%TF.GenerationSoftware,KiCad,Pcbnew,10.0.6*%
%TF.CreationDate,2026-09-24T09:55:41-04:00*%
%TF.ProjectId,s3_sensor_board,73335f73-656e-4736-9f72-5f626f617264,rev?*%
%TF.SameCoordinates,Original*%
%TF.FileFunction,Legend,Top*%
%TF.FilePolarity,Positive*%
%FSLAX46Y46*%
G04 Gerber Fmt 4.6, Leading zero omitted, Abs format (unit mm)*
G04 Created by KiCad (PCBNEW 10.0.6) date 2026-09-24 09:55:41*
%MOMM*%
%LPD*%
G01*
G04 APERTURE LIST*
%ADD10C,0.150000*%
%ADD11C,0.100000*%
%ADD12C,0.120000*%
%ADD13C,0.260000*%
G04 APERTURE END LIST*
D10*
X144719819Y-123714285D02*
X145529342Y-123714285D01*
X145529342Y-123714285D02*
X145624580Y-123666666D01*
X145624580Y-123666666D02*
X145672200Y-123619047D01*
X145672200Y-123619047D02*
X145719819Y-123523809D01*
X145719819Y-123523809D02*
X145719819Y-123333333D01*
X145719819Y-123333333D02*
X145672200Y-123238095D01*
X145672200Y-123238095D02*
X145624580Y-123190476D01*
X145624580Y-123190476D02*
X145529342Y-123142857D01*
X145529342Y-123142857D02*
X144719819Y-123142857D01*
X144719819Y-122190476D02*
X144719819Y-122666666D01*
X144719819Y-122666666D02*
X145196009Y-122714285D01*
X145196009Y-122714285D02*
X145148390Y-122666666D01*
X145148390Y-122666666D02*
X145100771Y-122571428D01*
X145100771Y-122571428D02*
X145100771Y-122333333D01*
X145100771Y-122333333D02*
X145148390Y-122238095D01*
X145148390Y-122238095D02*
X145196009Y-122190476D01*
X145196009Y-122190476D02*
X145291247Y-122142857D01*
X145291247Y-122142857D02*
X145529342Y-122142857D01*
X145529342Y-122142857D02*
X145624580Y-122190476D01*
X145624580Y-122190476D02*
X145672200Y-122238095D01*
X145672200Y-122238095D02*
X145719819Y-122333333D01*
X145719819Y-122333333D02*
X145719819Y-122571428D01*
X145719819Y-122571428D02*
X145672200Y-122666666D01*
X145672200Y-122666666D02*
X145624580Y-122714285D01*
X144719819Y-121523809D02*
X144719819Y-121428571D01*
X144719819Y-121428571D02*
X144767438Y-121333333D01*
X144767438Y-121333333D02*
X144815057Y-121285714D01*
X144815057Y-121285714D02*
X144910295Y-121238095D01*
X144910295Y-121238095D02*
X145100771Y-121190476D01*
X145100771Y-121190476D02*
X145338866Y-121190476D01*
X145338866Y-121190476D02*
X145529342Y-121238095D01*
X145529342Y-121238095D02*
X145624580Y-121285714D01*
X145624580Y-121285714D02*
X145672200Y-121333333D01*
X145672200Y-121333333D02*
X145719819Y-121428571D01*
X145719819Y-121428571D02*
X145719819Y-121523809D01*
X145719819Y-121523809D02*
X145672200Y-121619047D01*
X145672200Y-121619047D02*
X145624580Y-121666666D01*
X145624580Y-121666666D02*
X145529342Y-121714285D01*
X145529342Y-121714285D02*
X145338866Y-121761904D01*
X145338866Y-121761904D02*
X145100771Y-121761904D01*
X145100771Y-121761904D02*
X144910295Y-121714285D01*
X144910295Y-121714285D02*
X144815057Y-121666666D01*
X144815057Y-121666666D02*
X144767438Y-121619047D01*
X144767438Y-121619047D02*
X144719819Y-121523809D01*
X145719819Y-120238095D02*
X145719819Y-120809523D01*
X145719819Y-120523809D02*
X144719819Y-120523809D01*
X144719819Y-120523809D02*
X144862676Y-120619047D01*
X144862676Y-120619047D02*
X144957914Y-120714285D01*
X144957914Y-120714285D02*
X145005533Y-120809523D01*
X147730952Y-86804819D02*
X147254762Y-86804819D01*
X147254762Y-86804819D02*
X147254762Y-85804819D01*
X148016667Y-85900057D02*
X148064286Y-85852438D01*
X148064286Y-85852438D02*
X148159524Y-85804819D01*
X148159524Y-85804819D02*
X148397619Y-85804819D01*
X148397619Y-85804819D02*
X148492857Y-85852438D01*
X148492857Y-85852438D02*
X148540476Y-85900057D01*
X148540476Y-85900057D02*
X148588095Y-85995295D01*
X148588095Y-85995295D02*
X148588095Y-86090533D01*
X148588095Y-86090533D02*
X148540476Y-86233390D01*
X148540476Y-86233390D02*
X147969048Y-86804819D01*
X147969048Y-86804819D02*
X148588095Y-86804819D01*
X149207143Y-85804819D02*
X149302381Y-85804819D01*
X149302381Y-85804819D02*
X149397619Y-85852438D01*
X149397619Y-85852438D02*
X149445238Y-85900057D01*
X149445238Y-85900057D02*
X149492857Y-85995295D01*
X149492857Y-85995295D02*
X149540476Y-86185771D01*
X149540476Y-86185771D02*
X149540476Y-86423866D01*
X149540476Y-86423866D02*
X149492857Y-86614342D01*
X149492857Y-86614342D02*
X149445238Y-86709580D01*
X149445238Y-86709580D02*
X149397619Y-86757200D01*
X149397619Y-86757200D02*
X149302381Y-86804819D01*
X149302381Y-86804819D02*
X149207143Y-86804819D01*
X149207143Y-86804819D02*
X149111905Y-86757200D01*
X149111905Y-86757200D02*
X149064286Y-86709580D01*
X149064286Y-86709580D02*
X149016667Y-86614342D01*
X149016667Y-86614342D02*
X148969048Y-86423866D01*
X148969048Y-86423866D02*
X148969048Y-86185771D01*
X148969048Y-86185771D02*
X149016667Y-85995295D01*
X149016667Y-85995295D02*
X149064286Y-85900057D01*
X149064286Y-85900057D02*
X149111905Y-85852438D01*
X149111905Y-85852438D02*
X149207143Y-85804819D01*
X150492857Y-86804819D02*
X149921429Y-86804819D01*
X150207143Y-86804819D02*
X150207143Y-85804819D01*
X150207143Y-85804819D02*
X150111905Y-85947676D01*
X150111905Y-85947676D02*
X150016667Y-86042914D01*
X150016667Y-86042914D02*
X149921429Y-86090533D01*
X145154819Y-94669047D02*
X144678628Y-95002380D01*
X145154819Y-95240475D02*
X144154819Y-95240475D01*
X144154819Y-95240475D02*
X144154819Y-94859523D01*
X144154819Y-94859523D02*
X144202438Y-94764285D01*
X144202438Y-94764285D02*
X144250057Y-94716666D01*
X144250057Y-94716666D02*
X144345295Y-94669047D01*
X144345295Y-94669047D02*
X144488152Y-94669047D01*
X144488152Y-94669047D02*
X144583390Y-94716666D01*
X144583390Y-94716666D02*
X144631009Y-94764285D01*
X144631009Y-94764285D02*
X144678628Y-94859523D01*
X144678628Y-94859523D02*
X144678628Y-95240475D01*
X144154819Y-94335713D02*
X144154819Y-93716666D01*
X144154819Y-93716666D02*
X144535771Y-94049999D01*
X144535771Y-94049999D02*
X144535771Y-93907142D01*
X144535771Y-93907142D02*
X144583390Y-93811904D01*
X144583390Y-93811904D02*
X144631009Y-93764285D01*
X144631009Y-93764285D02*
X144726247Y-93716666D01*
X144726247Y-93716666D02*
X144964342Y-93716666D01*
X144964342Y-93716666D02*
X145059580Y-93764285D01*
X145059580Y-93764285D02*
X145107200Y-93811904D01*
X145107200Y-93811904D02*
X145154819Y-93907142D01*
X145154819Y-93907142D02*
X145154819Y-94192856D01*
X145154819Y-94192856D02*
X145107200Y-94288094D01*
X145107200Y-94288094D02*
X145059580Y-94335713D01*
X144154819Y-93097618D02*
X144154819Y-93002380D01*
X144154819Y-93002380D02*
X144202438Y-92907142D01*
X144202438Y-92907142D02*
X144250057Y-92859523D01*
X144250057Y-92859523D02*
X144345295Y-92811904D01*
X144345295Y-92811904D02*
X144535771Y-92764285D01*
X144535771Y-92764285D02*
X144773866Y-92764285D01*
X144773866Y-92764285D02*
X144964342Y-92811904D01*
X144964342Y-92811904D02*
X145059580Y-92859523D01*
X145059580Y-92859523D02*
X145107200Y-92907142D01*
X145107200Y-92907142D02*
X145154819Y-93002380D01*
X145154819Y-93002380D02*
X145154819Y-93097618D01*
X145154819Y-93097618D02*
X145107200Y-93192856D01*
X145107200Y-93192856D02*
X145059580Y-93240475D01*
X145059580Y-93240475D02*
X144964342Y-93288094D01*
X144964342Y-93288094D02*
X144773866Y-93335713D01*
X144773866Y-93335713D02*
X144535771Y-93335713D01*
X144535771Y-93335713D02*
X144345295Y-93288094D01*
X144345295Y-93288094D02*
X144250057Y-93240475D01*
X144250057Y-93240475D02*
X144202438Y-93192856D01*
X144202438Y-93192856D02*
X144154819Y-93097618D01*
X144154819Y-91907142D02*
X144154819Y-92097618D01*
X144154819Y-92097618D02*
X144202438Y-92192856D01*
X144202438Y-92192856D02*
X144250057Y-92240475D01*
X144250057Y-92240475D02*
X144392914Y-92335713D01*
X144392914Y-92335713D02*
X144583390Y-92383332D01*
X144583390Y-92383332D02*
X144964342Y-92383332D01*
X144964342Y-92383332D02*
X145059580Y-92335713D01*
X145059580Y-92335713D02*
X145107200Y-92288094D01*
X145107200Y-92288094D02*
X145154819Y-92192856D01*
X145154819Y-92192856D02*
X145154819Y-92002380D01*
X145154819Y-92002380D02*
X145107200Y-91907142D01*
X145107200Y-91907142D02*
X145059580Y-91859523D01*
X145059580Y-91859523D02*
X144964342Y-91811904D01*
X144964342Y-91811904D02*
X144726247Y-91811904D01*
X144726247Y-91811904D02*
X144631009Y-91859523D01*
X144631009Y-91859523D02*
X144583390Y-91907142D01*
X144583390Y-91907142D02*
X144535771Y-92002380D01*
X144535771Y-92002380D02*
X144535771Y-92192856D01*
X144535771Y-92192856D02*
X144583390Y-92288094D01*
X144583390Y-92288094D02*
X144631009Y-92335713D01*
X144631009Y-92335713D02*
X144726247Y-92383332D01*
X141305952Y-78054819D02*
X140972619Y-77578628D01*
X140734524Y-78054819D02*
X140734524Y-77054819D01*
X140734524Y-77054819D02*
X141115476Y-77054819D01*
X141115476Y-77054819D02*
X141210714Y-77102438D01*
X141210714Y-77102438D02*
X141258333Y-77150057D01*
X141258333Y-77150057D02*
X141305952Y-77245295D01*
X141305952Y-77245295D02*
X141305952Y-77388152D01*
X141305952Y-77388152D02*
X141258333Y-77483390D01*
X141258333Y-77483390D02*
X141210714Y-77531009D01*
X141210714Y-77531009D02*
X141115476Y-77578628D01*
X141115476Y-77578628D02*
X140734524Y-77578628D01*
X141686905Y-77150057D02*
X141734524Y-77102438D01*
X141734524Y-77102438D02*
X141829762Y-77054819D01*
X141829762Y-77054819D02*
X142067857Y-77054819D01*
X142067857Y-77054819D02*
X142163095Y-77102438D01*
X142163095Y-77102438D02*
X142210714Y-77150057D01*
X142210714Y-77150057D02*
X142258333Y-77245295D01*
X142258333Y-77245295D02*
X142258333Y-77340533D01*
X142258333Y-77340533D02*
X142210714Y-77483390D01*
X142210714Y-77483390D02*
X141639286Y-78054819D01*
X141639286Y-78054819D02*
X142258333Y-78054819D01*
X142877381Y-77054819D02*
X142972619Y-77054819D01*
X142972619Y-77054819D02*
X143067857Y-77102438D01*
X143067857Y-77102438D02*
X143115476Y-77150057D01*
X143115476Y-77150057D02*
X143163095Y-77245295D01*
X143163095Y-77245295D02*
X143210714Y-77435771D01*
X143210714Y-77435771D02*
X143210714Y-77673866D01*
X143210714Y-77673866D02*
X143163095Y-77864342D01*
X143163095Y-77864342D02*
X143115476Y-77959580D01*
X143115476Y-77959580D02*
X143067857Y-78007200D01*
X143067857Y-78007200D02*
X142972619Y-78054819D01*
X142972619Y-78054819D02*
X142877381Y-78054819D01*
X142877381Y-78054819D02*
X142782143Y-78007200D01*
X142782143Y-78007200D02*
X142734524Y-77959580D01*
X142734524Y-77959580D02*
X142686905Y-77864342D01*
X142686905Y-77864342D02*
X142639286Y-77673866D01*
X142639286Y-77673866D02*
X142639286Y-77435771D01*
X142639286Y-77435771D02*
X142686905Y-77245295D01*
X142686905Y-77245295D02*
X142734524Y-77150057D01*
X142734524Y-77150057D02*
X142782143Y-77102438D01*
X142782143Y-77102438D02*
X142877381Y-77054819D01*
X143544048Y-77054819D02*
X144163095Y-77054819D01*
X144163095Y-77054819D02*
X143829762Y-77435771D01*
X143829762Y-77435771D02*
X143972619Y-77435771D01*
X143972619Y-77435771D02*
X144067857Y-77483390D01*
X144067857Y-77483390D02*
X144115476Y-77531009D01*
X144115476Y-77531009D02*
X144163095Y-77626247D01*
X144163095Y-77626247D02*
X144163095Y-77864342D01*
X144163095Y-77864342D02*
X144115476Y-77959580D01*
X144115476Y-77959580D02*
X144067857Y-78007200D01*
X144067857Y-78007200D02*
X143972619Y-78054819D01*
X143972619Y-78054819D02*
X143686905Y-78054819D01*
X143686905Y-78054819D02*
X143591667Y-78007200D01*
X143591667Y-78007200D02*
X143544048Y-77959580D01*
X153980952Y-72284819D02*
X153647619Y-71808628D01*
X153409524Y-72284819D02*
X153409524Y-71284819D01*
X153409524Y-71284819D02*
X153790476Y-71284819D01*
X153790476Y-71284819D02*
X153885714Y-71332438D01*
X153885714Y-71332438D02*
X153933333Y-71380057D01*
X153933333Y-71380057D02*
X153980952Y-71475295D01*
X153980952Y-71475295D02*
X153980952Y-71618152D01*
X153980952Y-71618152D02*
X153933333Y-71713390D01*
X153933333Y-71713390D02*
X153885714Y-71761009D01*
X153885714Y-71761009D02*
X153790476Y-71808628D01*
X153790476Y-71808628D02*
X153409524Y-71808628D01*
X154314286Y-71284819D02*
X154933333Y-71284819D01*
X154933333Y-71284819D02*
X154600000Y-71665771D01*
X154600000Y-71665771D02*
X154742857Y-71665771D01*
X154742857Y-71665771D02*
X154838095Y-71713390D01*
X154838095Y-71713390D02*
X154885714Y-71761009D01*
X154885714Y-71761009D02*
X154933333Y-71856247D01*
X154933333Y-71856247D02*
X154933333Y-72094342D01*
X154933333Y-72094342D02*
X154885714Y-72189580D01*
X154885714Y-72189580D02*
X154838095Y-72237200D01*
X154838095Y-72237200D02*
X154742857Y-72284819D01*
X154742857Y-72284819D02*
X154457143Y-72284819D01*
X154457143Y-72284819D02*
X154361905Y-72237200D01*
X154361905Y-72237200D02*
X154314286Y-72189580D01*
X155552381Y-71284819D02*
X155647619Y-71284819D01*
X155647619Y-71284819D02*
X155742857Y-71332438D01*
X155742857Y-71332438D02*
X155790476Y-71380057D01*
X155790476Y-71380057D02*
X155838095Y-71475295D01*
X155838095Y-71475295D02*
X155885714Y-71665771D01*
X155885714Y-71665771D02*
X155885714Y-71903866D01*
X155885714Y-71903866D02*
X155838095Y-72094342D01*
X155838095Y-72094342D02*
X155790476Y-72189580D01*
X155790476Y-72189580D02*
X155742857Y-72237200D01*
X155742857Y-72237200D02*
X155647619Y-72284819D01*
X155647619Y-72284819D02*
X155552381Y-72284819D01*
X155552381Y-72284819D02*
X155457143Y-72237200D01*
X155457143Y-72237200D02*
X155409524Y-72189580D01*
X155409524Y-72189580D02*
X155361905Y-72094342D01*
X155361905Y-72094342D02*
X155314286Y-71903866D01*
X155314286Y-71903866D02*
X155314286Y-71665771D01*
X155314286Y-71665771D02*
X155361905Y-71475295D01*
X155361905Y-71475295D02*
X155409524Y-71380057D01*
X155409524Y-71380057D02*
X155457143Y-71332438D01*
X155457143Y-71332438D02*
X155552381Y-71284819D01*
X156219048Y-71284819D02*
X156838095Y-71284819D01*
X156838095Y-71284819D02*
X156504762Y-71665771D01*
X156504762Y-71665771D02*
X156647619Y-71665771D01*
X156647619Y-71665771D02*
X156742857Y-71713390D01*
X156742857Y-71713390D02*
X156790476Y-71761009D01*
X156790476Y-71761009D02*
X156838095Y-71856247D01*
X156838095Y-71856247D02*
X156838095Y-72094342D01*
X156838095Y-72094342D02*
X156790476Y-72189580D01*
X156790476Y-72189580D02*
X156742857Y-72237200D01*
X156742857Y-72237200D02*
X156647619Y-72284819D01*
X156647619Y-72284819D02*
X156361905Y-72284819D01*
X156361905Y-72284819D02*
X156266667Y-72237200D01*
X156266667Y-72237200D02*
X156219048Y-72189580D01*
X159354819Y-155047619D02*
X158878628Y-155380952D01*
X159354819Y-155619047D02*
X158354819Y-155619047D01*
X158354819Y-155619047D02*
X158354819Y-155238095D01*
X158354819Y-155238095D02*
X158402438Y-155142857D01*
X158402438Y-155142857D02*
X158450057Y-155095238D01*
X158450057Y-155095238D02*
X158545295Y-155047619D01*
X158545295Y-155047619D02*
X158688152Y-155047619D01*
X158688152Y-155047619D02*
X158783390Y-155095238D01*
X158783390Y-155095238D02*
X158831009Y-155142857D01*
X158831009Y-155142857D02*
X158878628Y-155238095D01*
X158878628Y-155238095D02*
X158878628Y-155619047D01*
X159307200Y-154666666D02*
X159354819Y-154523809D01*
X159354819Y-154523809D02*
X159354819Y-154285714D01*
X159354819Y-154285714D02*
X159307200Y-154190476D01*
X159307200Y-154190476D02*
X159259580Y-154142857D01*
X159259580Y-154142857D02*
X159164342Y-154095238D01*
X159164342Y-154095238D02*
X159069104Y-154095238D01*
X159069104Y-154095238D02*
X158973866Y-154142857D01*
X158973866Y-154142857D02*
X158926247Y-154190476D01*
X158926247Y-154190476D02*
X158878628Y-154285714D01*
X158878628Y-154285714D02*
X158831009Y-154476190D01*
X158831009Y-154476190D02*
X158783390Y-154571428D01*
X158783390Y-154571428D02*
X158735771Y-154619047D01*
X158735771Y-154619047D02*
X158640533Y-154666666D01*
X158640533Y-154666666D02*
X158545295Y-154666666D01*
X158545295Y-154666666D02*
X158450057Y-154619047D01*
X158450057Y-154619047D02*
X158402438Y-154571428D01*
X158402438Y-154571428D02*
X158354819Y-154476190D01*
X158354819Y-154476190D02*
X158354819Y-154238095D01*
X158354819Y-154238095D02*
X158402438Y-154095238D01*
X158354819Y-153809523D02*
X158354819Y-153238095D01*
X159354819Y-153523809D02*
X158354819Y-153523809D01*
X152230952Y-78304819D02*
X151897619Y-77828628D01*
X151659524Y-78304819D02*
X151659524Y-77304819D01*
X151659524Y-77304819D02*
X152040476Y-77304819D01*
X152040476Y-77304819D02*
X152135714Y-77352438D01*
X152135714Y-77352438D02*
X152183333Y-77400057D01*
X152183333Y-77400057D02*
X152230952Y-77495295D01*
X152230952Y-77495295D02*
X152230952Y-77638152D01*
X152230952Y-77638152D02*
X152183333Y-77733390D01*
X152183333Y-77733390D02*
X152135714Y-77781009D01*
X152135714Y-77781009D02*
X152040476Y-77828628D01*
X152040476Y-77828628D02*
X151659524Y-77828628D01*
X152611905Y-77400057D02*
X152659524Y-77352438D01*
X152659524Y-77352438D02*
X152754762Y-77304819D01*
X152754762Y-77304819D02*
X152992857Y-77304819D01*
X152992857Y-77304819D02*
X153088095Y-77352438D01*
X153088095Y-77352438D02*
X153135714Y-77400057D01*
X153135714Y-77400057D02*
X153183333Y-77495295D01*
X153183333Y-77495295D02*
X153183333Y-77590533D01*
X153183333Y-77590533D02*
X153135714Y-77733390D01*
X153135714Y-77733390D02*
X152564286Y-78304819D01*
X152564286Y-78304819D02*
X153183333Y-78304819D01*
X153802381Y-77304819D02*
X153897619Y-77304819D01*
X153897619Y-77304819D02*
X153992857Y-77352438D01*
X153992857Y-77352438D02*
X154040476Y-77400057D01*
X154040476Y-77400057D02*
X154088095Y-77495295D01*
X154088095Y-77495295D02*
X154135714Y-77685771D01*
X154135714Y-77685771D02*
X154135714Y-77923866D01*
X154135714Y-77923866D02*
X154088095Y-78114342D01*
X154088095Y-78114342D02*
X154040476Y-78209580D01*
X154040476Y-78209580D02*
X153992857Y-78257200D01*
X153992857Y-78257200D02*
X153897619Y-78304819D01*
X153897619Y-78304819D02*
X153802381Y-78304819D01*
X153802381Y-78304819D02*
X153707143Y-78257200D01*
X153707143Y-78257200D02*
X153659524Y-78209580D01*
X153659524Y-78209580D02*
X153611905Y-78114342D01*
X153611905Y-78114342D02*
X153564286Y-77923866D01*
X153564286Y-77923866D02*
X153564286Y-77685771D01*
X153564286Y-77685771D02*
X153611905Y-77495295D01*
X153611905Y-77495295D02*
X153659524Y-77400057D01*
X153659524Y-77400057D02*
X153707143Y-77352438D01*
X153707143Y-77352438D02*
X153802381Y-77304819D01*
X154516667Y-77400057D02*
X154564286Y-77352438D01*
X154564286Y-77352438D02*
X154659524Y-77304819D01*
X154659524Y-77304819D02*
X154897619Y-77304819D01*
X154897619Y-77304819D02*
X154992857Y-77352438D01*
X154992857Y-77352438D02*
X155040476Y-77400057D01*
X155040476Y-77400057D02*
X155088095Y-77495295D01*
X155088095Y-77495295D02*
X155088095Y-77590533D01*
X155088095Y-77590533D02*
X155040476Y-77733390D01*
X155040476Y-77733390D02*
X154469048Y-78304819D01*
X154469048Y-78304819D02*
X155088095Y-78304819D01*
X155659580Y-87419047D02*
X155707200Y-87466666D01*
X155707200Y-87466666D02*
X155754819Y-87609523D01*
X155754819Y-87609523D02*
X155754819Y-87704761D01*
X155754819Y-87704761D02*
X155707200Y-87847618D01*
X155707200Y-87847618D02*
X155611961Y-87942856D01*
X155611961Y-87942856D02*
X155516723Y-87990475D01*
X155516723Y-87990475D02*
X155326247Y-88038094D01*
X155326247Y-88038094D02*
X155183390Y-88038094D01*
X155183390Y-88038094D02*
X154992914Y-87990475D01*
X154992914Y-87990475D02*
X154897676Y-87942856D01*
X154897676Y-87942856D02*
X154802438Y-87847618D01*
X154802438Y-87847618D02*
X154754819Y-87704761D01*
X154754819Y-87704761D02*
X154754819Y-87609523D01*
X154754819Y-87609523D02*
X154802438Y-87466666D01*
X154802438Y-87466666D02*
X154850057Y-87419047D01*
X154850057Y-87038094D02*
X154802438Y-86990475D01*
X154802438Y-86990475D02*
X154754819Y-86895237D01*
X154754819Y-86895237D02*
X154754819Y-86657142D01*
X154754819Y-86657142D02*
X154802438Y-86561904D01*
X154802438Y-86561904D02*
X154850057Y-86514285D01*
X154850057Y-86514285D02*
X154945295Y-86466666D01*
X154945295Y-86466666D02*
X155040533Y-86466666D01*
X155040533Y-86466666D02*
X155183390Y-86514285D01*
X155183390Y-86514285D02*
X155754819Y-87085713D01*
X155754819Y-87085713D02*
X155754819Y-86466666D01*
X154754819Y-85847618D02*
X154754819Y-85752380D01*
X154754819Y-85752380D02*
X154802438Y-85657142D01*
X154802438Y-85657142D02*
X154850057Y-85609523D01*
X154850057Y-85609523D02*
X154945295Y-85561904D01*
X154945295Y-85561904D02*
X155135771Y-85514285D01*
X155135771Y-85514285D02*
X155373866Y-85514285D01*
X155373866Y-85514285D02*
X155564342Y-85561904D01*
X155564342Y-85561904D02*
X155659580Y-85609523D01*
X155659580Y-85609523D02*
X155707200Y-85657142D01*
X155707200Y-85657142D02*
X155754819Y-85752380D01*
X155754819Y-85752380D02*
X155754819Y-85847618D01*
X155754819Y-85847618D02*
X155707200Y-85942856D01*
X155707200Y-85942856D02*
X155659580Y-85990475D01*
X155659580Y-85990475D02*
X155564342Y-86038094D01*
X155564342Y-86038094D02*
X155373866Y-86085713D01*
X155373866Y-86085713D02*
X155135771Y-86085713D01*
X155135771Y-86085713D02*
X154945295Y-86038094D01*
X154945295Y-86038094D02*
X154850057Y-85990475D01*
X154850057Y-85990475D02*
X154802438Y-85942856D01*
X154802438Y-85942856D02*
X154754819Y-85847618D01*
X154754819Y-84657142D02*
X154754819Y-84847618D01*
X154754819Y-84847618D02*
X154802438Y-84942856D01*
X154802438Y-84942856D02*
X154850057Y-84990475D01*
X154850057Y-84990475D02*
X154992914Y-85085713D01*
X154992914Y-85085713D02*
X155183390Y-85133332D01*
X155183390Y-85133332D02*
X155564342Y-85133332D01*
X155564342Y-85133332D02*
X155659580Y-85085713D01*
X155659580Y-85085713D02*
X155707200Y-85038094D01*
X155707200Y-85038094D02*
X155754819Y-84942856D01*
X155754819Y-84942856D02*
X155754819Y-84752380D01*
X155754819Y-84752380D02*
X155707200Y-84657142D01*
X155707200Y-84657142D02*
X155659580Y-84609523D01*
X155659580Y-84609523D02*
X155564342Y-84561904D01*
X155564342Y-84561904D02*
X155326247Y-84561904D01*
X155326247Y-84561904D02*
X155231009Y-84609523D01*
X155231009Y-84609523D02*
X155183390Y-84657142D01*
X155183390Y-84657142D02*
X155135771Y-84752380D01*
X155135771Y-84752380D02*
X155135771Y-84942856D01*
X155135771Y-84942856D02*
X155183390Y-85038094D01*
X155183390Y-85038094D02*
X155231009Y-85085713D01*
X155231009Y-85085713D02*
X155326247Y-85133332D01*
X149859580Y-94019047D02*
X149907200Y-94066666D01*
X149907200Y-94066666D02*
X149954819Y-94209523D01*
X149954819Y-94209523D02*
X149954819Y-94304761D01*
X149954819Y-94304761D02*
X149907200Y-94447618D01*
X149907200Y-94447618D02*
X149811961Y-94542856D01*
X149811961Y-94542856D02*
X149716723Y-94590475D01*
X149716723Y-94590475D02*
X149526247Y-94638094D01*
X149526247Y-94638094D02*
X149383390Y-94638094D01*
X149383390Y-94638094D02*
X149192914Y-94590475D01*
X149192914Y-94590475D02*
X149097676Y-94542856D01*
X149097676Y-94542856D02*
X149002438Y-94447618D01*
X149002438Y-94447618D02*
X148954819Y-94304761D01*
X148954819Y-94304761D02*
X148954819Y-94209523D01*
X148954819Y-94209523D02*
X149002438Y-94066666D01*
X149002438Y-94066666D02*
X149050057Y-94019047D01*
X148954819Y-93685713D02*
X148954819Y-93066666D01*
X148954819Y-93066666D02*
X149335771Y-93399999D01*
X149335771Y-93399999D02*
X149335771Y-93257142D01*
X149335771Y-93257142D02*
X149383390Y-93161904D01*
X149383390Y-93161904D02*
X149431009Y-93114285D01*
X149431009Y-93114285D02*
X149526247Y-93066666D01*
X149526247Y-93066666D02*
X149764342Y-93066666D01*
X149764342Y-93066666D02*
X149859580Y-93114285D01*
X149859580Y-93114285D02*
X149907200Y-93161904D01*
X149907200Y-93161904D02*
X149954819Y-93257142D01*
X149954819Y-93257142D02*
X149954819Y-93542856D01*
X149954819Y-93542856D02*
X149907200Y-93638094D01*
X149907200Y-93638094D02*
X149859580Y-93685713D01*
X149954819Y-92114285D02*
X149954819Y-92685713D01*
X149954819Y-92399999D02*
X148954819Y-92399999D01*
X148954819Y-92399999D02*
X149097676Y-92495237D01*
X149097676Y-92495237D02*
X149192914Y-92590475D01*
X149192914Y-92590475D02*
X149240533Y-92685713D01*
X148954819Y-91495237D02*
X148954819Y-91399999D01*
X148954819Y-91399999D02*
X149002438Y-91304761D01*
X149002438Y-91304761D02*
X149050057Y-91257142D01*
X149050057Y-91257142D02*
X149145295Y-91209523D01*
X149145295Y-91209523D02*
X149335771Y-91161904D01*
X149335771Y-91161904D02*
X149573866Y-91161904D01*
X149573866Y-91161904D02*
X149764342Y-91209523D01*
X149764342Y-91209523D02*
X149859580Y-91257142D01*
X149859580Y-91257142D02*
X149907200Y-91304761D01*
X149907200Y-91304761D02*
X149954819Y-91399999D01*
X149954819Y-91399999D02*
X149954819Y-91495237D01*
X149954819Y-91495237D02*
X149907200Y-91590475D01*
X149907200Y-91590475D02*
X149859580Y-91638094D01*
X149859580Y-91638094D02*
X149764342Y-91685713D01*
X149764342Y-91685713D02*
X149573866Y-91733332D01*
X149573866Y-91733332D02*
X149335771Y-91733332D01*
X149335771Y-91733332D02*
X149145295Y-91685713D01*
X149145295Y-91685713D02*
X149050057Y-91638094D01*
X149050057Y-91638094D02*
X149002438Y-91590475D01*
X149002438Y-91590475D02*
X148954819Y-91495237D01*
X141154819Y-104314285D02*
X141964342Y-104314285D01*
X141964342Y-104314285D02*
X142059580Y-104266666D01*
X142059580Y-104266666D02*
X142107200Y-104219047D01*
X142107200Y-104219047D02*
X142154819Y-104123809D01*
X142154819Y-104123809D02*
X142154819Y-103933333D01*
X142154819Y-103933333D02*
X142107200Y-103838095D01*
X142107200Y-103838095D02*
X142059580Y-103790476D01*
X142059580Y-103790476D02*
X141964342Y-103742857D01*
X141964342Y-103742857D02*
X141154819Y-103742857D01*
X141154819Y-103361904D02*
X141154819Y-102742857D01*
X141154819Y-102742857D02*
X141535771Y-103076190D01*
X141535771Y-103076190D02*
X141535771Y-102933333D01*
X141535771Y-102933333D02*
X141583390Y-102838095D01*
X141583390Y-102838095D02*
X141631009Y-102790476D01*
X141631009Y-102790476D02*
X141726247Y-102742857D01*
X141726247Y-102742857D02*
X141964342Y-102742857D01*
X141964342Y-102742857D02*
X142059580Y-102790476D01*
X142059580Y-102790476D02*
X142107200Y-102838095D01*
X142107200Y-102838095D02*
X142154819Y-102933333D01*
X142154819Y-102933333D02*
X142154819Y-103219047D01*
X142154819Y-103219047D02*
X142107200Y-103314285D01*
X142107200Y-103314285D02*
X142059580Y-103361904D01*
X141154819Y-102123809D02*
X141154819Y-102028571D01*
X141154819Y-102028571D02*
X141202438Y-101933333D01*
X141202438Y-101933333D02*
X141250057Y-101885714D01*
X141250057Y-101885714D02*
X141345295Y-101838095D01*
X141345295Y-101838095D02*
X141535771Y-101790476D01*
X141535771Y-101790476D02*
X141773866Y-101790476D01*
X141773866Y-101790476D02*
X141964342Y-101838095D01*
X141964342Y-101838095D02*
X142059580Y-101885714D01*
X142059580Y-101885714D02*
X142107200Y-101933333D01*
X142107200Y-101933333D02*
X142154819Y-102028571D01*
X142154819Y-102028571D02*
X142154819Y-102123809D01*
X142154819Y-102123809D02*
X142107200Y-102219047D01*
X142107200Y-102219047D02*
X142059580Y-102266666D01*
X142059580Y-102266666D02*
X141964342Y-102314285D01*
X141964342Y-102314285D02*
X141773866Y-102361904D01*
X141773866Y-102361904D02*
X141535771Y-102361904D01*
X141535771Y-102361904D02*
X141345295Y-102314285D01*
X141345295Y-102314285D02*
X141250057Y-102266666D01*
X141250057Y-102266666D02*
X141202438Y-102219047D01*
X141202438Y-102219047D02*
X141154819Y-102123809D01*
X141250057Y-101409523D02*
X141202438Y-101361904D01*
X141202438Y-101361904D02*
X141154819Y-101266666D01*
X141154819Y-101266666D02*
X141154819Y-101028571D01*
X141154819Y-101028571D02*
X141202438Y-100933333D01*
X141202438Y-100933333D02*
X141250057Y-100885714D01*
X141250057Y-100885714D02*
X141345295Y-100838095D01*
X141345295Y-100838095D02*
X141440533Y-100838095D01*
X141440533Y-100838095D02*
X141583390Y-100885714D01*
X141583390Y-100885714D02*
X142154819Y-101457142D01*
X142154819Y-101457142D02*
X142154819Y-100838095D01*
X141954819Y-92369047D02*
X141478628Y-92702380D01*
X141954819Y-92940475D02*
X140954819Y-92940475D01*
X140954819Y-92940475D02*
X140954819Y-92559523D01*
X140954819Y-92559523D02*
X141002438Y-92464285D01*
X141002438Y-92464285D02*
X141050057Y-92416666D01*
X141050057Y-92416666D02*
X141145295Y-92369047D01*
X141145295Y-92369047D02*
X141288152Y-92369047D01*
X141288152Y-92369047D02*
X141383390Y-92416666D01*
X141383390Y-92416666D02*
X141431009Y-92464285D01*
X141431009Y-92464285D02*
X141478628Y-92559523D01*
X141478628Y-92559523D02*
X141478628Y-92940475D01*
X141954819Y-91416666D02*
X141954819Y-91988094D01*
X141954819Y-91702380D02*
X140954819Y-91702380D01*
X140954819Y-91702380D02*
X141097676Y-91797618D01*
X141097676Y-91797618D02*
X141192914Y-91892856D01*
X141192914Y-91892856D02*
X141240533Y-91988094D01*
X140954819Y-90797618D02*
X140954819Y-90702380D01*
X140954819Y-90702380D02*
X141002438Y-90607142D01*
X141002438Y-90607142D02*
X141050057Y-90559523D01*
X141050057Y-90559523D02*
X141145295Y-90511904D01*
X141145295Y-90511904D02*
X141335771Y-90464285D01*
X141335771Y-90464285D02*
X141573866Y-90464285D01*
X141573866Y-90464285D02*
X141764342Y-90511904D01*
X141764342Y-90511904D02*
X141859580Y-90559523D01*
X141859580Y-90559523D02*
X141907200Y-90607142D01*
X141907200Y-90607142D02*
X141954819Y-90702380D01*
X141954819Y-90702380D02*
X141954819Y-90797618D01*
X141954819Y-90797618D02*
X141907200Y-90892856D01*
X141907200Y-90892856D02*
X141859580Y-90940475D01*
X141859580Y-90940475D02*
X141764342Y-90988094D01*
X141764342Y-90988094D02*
X141573866Y-91035713D01*
X141573866Y-91035713D02*
X141335771Y-91035713D01*
X141335771Y-91035713D02*
X141145295Y-90988094D01*
X141145295Y-90988094D02*
X141050057Y-90940475D01*
X141050057Y-90940475D02*
X141002438Y-90892856D01*
X141002438Y-90892856D02*
X140954819Y-90797618D01*
X141050057Y-90083332D02*
X141002438Y-90035713D01*
X141002438Y-90035713D02*
X140954819Y-89940475D01*
X140954819Y-89940475D02*
X140954819Y-89702380D01*
X140954819Y-89702380D02*
X141002438Y-89607142D01*
X141002438Y-89607142D02*
X141050057Y-89559523D01*
X141050057Y-89559523D02*
X141145295Y-89511904D01*
X141145295Y-89511904D02*
X141240533Y-89511904D01*
X141240533Y-89511904D02*
X141383390Y-89559523D01*
X141383390Y-89559523D02*
X141954819Y-90130951D01*
X141954819Y-90130951D02*
X141954819Y-89511904D01*
X156780952Y-100754819D02*
X156447619Y-100278628D01*
X156209524Y-100754819D02*
X156209524Y-99754819D01*
X156209524Y-99754819D02*
X156590476Y-99754819D01*
X156590476Y-99754819D02*
X156685714Y-99802438D01*
X156685714Y-99802438D02*
X156733333Y-99850057D01*
X156733333Y-99850057D02*
X156780952Y-99945295D01*
X156780952Y-99945295D02*
X156780952Y-100088152D01*
X156780952Y-100088152D02*
X156733333Y-100183390D01*
X156733333Y-100183390D02*
X156685714Y-100231009D01*
X156685714Y-100231009D02*
X156590476Y-100278628D01*
X156590476Y-100278628D02*
X156209524Y-100278628D01*
X157114286Y-99754819D02*
X157733333Y-99754819D01*
X157733333Y-99754819D02*
X157400000Y-100135771D01*
X157400000Y-100135771D02*
X157542857Y-100135771D01*
X157542857Y-100135771D02*
X157638095Y-100183390D01*
X157638095Y-100183390D02*
X157685714Y-100231009D01*
X157685714Y-100231009D02*
X157733333Y-100326247D01*
X157733333Y-100326247D02*
X157733333Y-100564342D01*
X157733333Y-100564342D02*
X157685714Y-100659580D01*
X157685714Y-100659580D02*
X157638095Y-100707200D01*
X157638095Y-100707200D02*
X157542857Y-100754819D01*
X157542857Y-100754819D02*
X157257143Y-100754819D01*
X157257143Y-100754819D02*
X157161905Y-100707200D01*
X157161905Y-100707200D02*
X157114286Y-100659580D01*
X158352381Y-99754819D02*
X158447619Y-99754819D01*
X158447619Y-99754819D02*
X158542857Y-99802438D01*
X158542857Y-99802438D02*
X158590476Y-99850057D01*
X158590476Y-99850057D02*
X158638095Y-99945295D01*
X158638095Y-99945295D02*
X158685714Y-100135771D01*
X158685714Y-100135771D02*
X158685714Y-100373866D01*
X158685714Y-100373866D02*
X158638095Y-100564342D01*
X158638095Y-100564342D02*
X158590476Y-100659580D01*
X158590476Y-100659580D02*
X158542857Y-100707200D01*
X158542857Y-100707200D02*
X158447619Y-100754819D01*
X158447619Y-100754819D02*
X158352381Y-100754819D01*
X158352381Y-100754819D02*
X158257143Y-100707200D01*
X158257143Y-100707200D02*
X158209524Y-100659580D01*
X158209524Y-100659580D02*
X158161905Y-100564342D01*
X158161905Y-100564342D02*
X158114286Y-100373866D01*
X158114286Y-100373866D02*
X158114286Y-100135771D01*
X158114286Y-100135771D02*
X158161905Y-99945295D01*
X158161905Y-99945295D02*
X158209524Y-99850057D01*
X158209524Y-99850057D02*
X158257143Y-99802438D01*
X158257143Y-99802438D02*
X158352381Y-99754819D01*
X159638095Y-100754819D02*
X159066667Y-100754819D01*
X159352381Y-100754819D02*
X159352381Y-99754819D01*
X159352381Y-99754819D02*
X159257143Y-99897676D01*
X159257143Y-99897676D02*
X159161905Y-99992914D01*
X159161905Y-99992914D02*
X159066667Y-100040533D01*
X158214819Y-137219047D02*
X157738628Y-137552380D01*
X158214819Y-137790475D02*
X157214819Y-137790475D01*
X157214819Y-137790475D02*
X157214819Y-137409523D01*
X157214819Y-137409523D02*
X157262438Y-137314285D01*
X157262438Y-137314285D02*
X157310057Y-137266666D01*
X157310057Y-137266666D02*
X157405295Y-137219047D01*
X157405295Y-137219047D02*
X157548152Y-137219047D01*
X157548152Y-137219047D02*
X157643390Y-137266666D01*
X157643390Y-137266666D02*
X157691009Y-137314285D01*
X157691009Y-137314285D02*
X157738628Y-137409523D01*
X157738628Y-137409523D02*
X157738628Y-137790475D01*
X158214819Y-136266666D02*
X158214819Y-136838094D01*
X158214819Y-136552380D02*
X157214819Y-136552380D01*
X157214819Y-136552380D02*
X157357676Y-136647618D01*
X157357676Y-136647618D02*
X157452914Y-136742856D01*
X157452914Y-136742856D02*
X157500533Y-136838094D01*
X157214819Y-135647618D02*
X157214819Y-135552380D01*
X157214819Y-135552380D02*
X157262438Y-135457142D01*
X157262438Y-135457142D02*
X157310057Y-135409523D01*
X157310057Y-135409523D02*
X157405295Y-135361904D01*
X157405295Y-135361904D02*
X157595771Y-135314285D01*
X157595771Y-135314285D02*
X157833866Y-135314285D01*
X157833866Y-135314285D02*
X158024342Y-135361904D01*
X158024342Y-135361904D02*
X158119580Y-135409523D01*
X158119580Y-135409523D02*
X158167200Y-135457142D01*
X158167200Y-135457142D02*
X158214819Y-135552380D01*
X158214819Y-135552380D02*
X158214819Y-135647618D01*
X158214819Y-135647618D02*
X158167200Y-135742856D01*
X158167200Y-135742856D02*
X158119580Y-135790475D01*
X158119580Y-135790475D02*
X158024342Y-135838094D01*
X158024342Y-135838094D02*
X157833866Y-135885713D01*
X157833866Y-135885713D02*
X157595771Y-135885713D01*
X157595771Y-135885713D02*
X157405295Y-135838094D01*
X157405295Y-135838094D02*
X157310057Y-135790475D01*
X157310057Y-135790475D02*
X157262438Y-135742856D01*
X157262438Y-135742856D02*
X157214819Y-135647618D01*
X157548152Y-134457142D02*
X158214819Y-134457142D01*
X157167200Y-134695237D02*
X157881485Y-134933332D01*
X157881485Y-134933332D02*
X157881485Y-134314285D01*
X153214285Y-113854819D02*
X153214285Y-114569104D01*
X153214285Y-114569104D02*
X153166666Y-114711961D01*
X153166666Y-114711961D02*
X153071428Y-114807200D01*
X153071428Y-114807200D02*
X152928571Y-114854819D01*
X152928571Y-114854819D02*
X152833333Y-114854819D01*
X153595238Y-113854819D02*
X154214285Y-113854819D01*
X154214285Y-113854819D02*
X153880952Y-114235771D01*
X153880952Y-114235771D02*
X154023809Y-114235771D01*
X154023809Y-114235771D02*
X154119047Y-114283390D01*
X154119047Y-114283390D02*
X154166666Y-114331009D01*
X154166666Y-114331009D02*
X154214285Y-114426247D01*
X154214285Y-114426247D02*
X154214285Y-114664342D01*
X154214285Y-114664342D02*
X154166666Y-114759580D01*
X154166666Y-114759580D02*
X154119047Y-114807200D01*
X154119047Y-114807200D02*
X154023809Y-114854819D01*
X154023809Y-114854819D02*
X153738095Y-114854819D01*
X153738095Y-114854819D02*
X153642857Y-114807200D01*
X153642857Y-114807200D02*
X153595238Y-114759580D01*
X154833333Y-113854819D02*
X154928571Y-113854819D01*
X154928571Y-113854819D02*
X155023809Y-113902438D01*
X155023809Y-113902438D02*
X155071428Y-113950057D01*
X155071428Y-113950057D02*
X155119047Y-114045295D01*
X155119047Y-114045295D02*
X155166666Y-114235771D01*
X155166666Y-114235771D02*
X155166666Y-114473866D01*
X155166666Y-114473866D02*
X155119047Y-114664342D01*
X155119047Y-114664342D02*
X155071428Y-114759580D01*
X155071428Y-114759580D02*
X155023809Y-114807200D01*
X155023809Y-114807200D02*
X154928571Y-114854819D01*
X154928571Y-114854819D02*
X154833333Y-114854819D01*
X154833333Y-114854819D02*
X154738095Y-114807200D01*
X154738095Y-114807200D02*
X154690476Y-114759580D01*
X154690476Y-114759580D02*
X154642857Y-114664342D01*
X154642857Y-114664342D02*
X154595238Y-114473866D01*
X154595238Y-114473866D02*
X154595238Y-114235771D01*
X154595238Y-114235771D02*
X154642857Y-114045295D01*
X154642857Y-114045295D02*
X154690476Y-113950057D01*
X154690476Y-113950057D02*
X154738095Y-113902438D01*
X154738095Y-113902438D02*
X154833333Y-113854819D01*
X155547619Y-113950057D02*
X155595238Y-113902438D01*
X155595238Y-113902438D02*
X155690476Y-113854819D01*
X155690476Y-113854819D02*
X155928571Y-113854819D01*
X155928571Y-113854819D02*
X156023809Y-113902438D01*
X156023809Y-113902438D02*
X156071428Y-113950057D01*
X156071428Y-113950057D02*
X156119047Y-114045295D01*
X156119047Y-114045295D02*
X156119047Y-114140533D01*
X156119047Y-114140533D02*
X156071428Y-114283390D01*
X156071428Y-114283390D02*
X155500000Y-114854819D01*
X155500000Y-114854819D02*
X156119047Y-114854819D01*
X156880952Y-104109580D02*
X156833333Y-104157200D01*
X156833333Y-104157200D02*
X156690476Y-104204819D01*
X156690476Y-104204819D02*
X156595238Y-104204819D01*
X156595238Y-104204819D02*
X156452381Y-104157200D01*
X156452381Y-104157200D02*
X156357143Y-104061961D01*
X156357143Y-104061961D02*
X156309524Y-103966723D01*
X156309524Y-103966723D02*
X156261905Y-103776247D01*
X156261905Y-103776247D02*
X156261905Y-103633390D01*
X156261905Y-103633390D02*
X156309524Y-103442914D01*
X156309524Y-103442914D02*
X156357143Y-103347676D01*
X156357143Y-103347676D02*
X156452381Y-103252438D01*
X156452381Y-103252438D02*
X156595238Y-103204819D01*
X156595238Y-103204819D02*
X156690476Y-103204819D01*
X156690476Y-103204819D02*
X156833333Y-103252438D01*
X156833333Y-103252438D02*
X156880952Y-103300057D01*
X157214286Y-103204819D02*
X157833333Y-103204819D01*
X157833333Y-103204819D02*
X157500000Y-103585771D01*
X157500000Y-103585771D02*
X157642857Y-103585771D01*
X157642857Y-103585771D02*
X157738095Y-103633390D01*
X157738095Y-103633390D02*
X157785714Y-103681009D01*
X157785714Y-103681009D02*
X157833333Y-103776247D01*
X157833333Y-103776247D02*
X157833333Y-104014342D01*
X157833333Y-104014342D02*
X157785714Y-104109580D01*
X157785714Y-104109580D02*
X157738095Y-104157200D01*
X157738095Y-104157200D02*
X157642857Y-104204819D01*
X157642857Y-104204819D02*
X157357143Y-104204819D01*
X157357143Y-104204819D02*
X157261905Y-104157200D01*
X157261905Y-104157200D02*
X157214286Y-104109580D01*
X158452381Y-103204819D02*
X158547619Y-103204819D01*
X158547619Y-103204819D02*
X158642857Y-103252438D01*
X158642857Y-103252438D02*
X158690476Y-103300057D01*
X158690476Y-103300057D02*
X158738095Y-103395295D01*
X158738095Y-103395295D02*
X158785714Y-103585771D01*
X158785714Y-103585771D02*
X158785714Y-103823866D01*
X158785714Y-103823866D02*
X158738095Y-104014342D01*
X158738095Y-104014342D02*
X158690476Y-104109580D01*
X158690476Y-104109580D02*
X158642857Y-104157200D01*
X158642857Y-104157200D02*
X158547619Y-104204819D01*
X158547619Y-104204819D02*
X158452381Y-104204819D01*
X158452381Y-104204819D02*
X158357143Y-104157200D01*
X158357143Y-104157200D02*
X158309524Y-104109580D01*
X158309524Y-104109580D02*
X158261905Y-104014342D01*
X158261905Y-104014342D02*
X158214286Y-103823866D01*
X158214286Y-103823866D02*
X158214286Y-103585771D01*
X158214286Y-103585771D02*
X158261905Y-103395295D01*
X158261905Y-103395295D02*
X158309524Y-103300057D01*
X158309524Y-103300057D02*
X158357143Y-103252438D01*
X158357143Y-103252438D02*
X158452381Y-103204819D01*
X159166667Y-103300057D02*
X159214286Y-103252438D01*
X159214286Y-103252438D02*
X159309524Y-103204819D01*
X159309524Y-103204819D02*
X159547619Y-103204819D01*
X159547619Y-103204819D02*
X159642857Y-103252438D01*
X159642857Y-103252438D02*
X159690476Y-103300057D01*
X159690476Y-103300057D02*
X159738095Y-103395295D01*
X159738095Y-103395295D02*
X159738095Y-103490533D01*
X159738095Y-103490533D02*
X159690476Y-103633390D01*
X159690476Y-103633390D02*
X159119048Y-104204819D01*
X159119048Y-104204819D02*
X159738095Y-104204819D01*
X142980952Y-111189580D02*
X142933333Y-111237200D01*
X142933333Y-111237200D02*
X142790476Y-111284819D01*
X142790476Y-111284819D02*
X142695238Y-111284819D01*
X142695238Y-111284819D02*
X142552381Y-111237200D01*
X142552381Y-111237200D02*
X142457143Y-111141961D01*
X142457143Y-111141961D02*
X142409524Y-111046723D01*
X142409524Y-111046723D02*
X142361905Y-110856247D01*
X142361905Y-110856247D02*
X142361905Y-110713390D01*
X142361905Y-110713390D02*
X142409524Y-110522914D01*
X142409524Y-110522914D02*
X142457143Y-110427676D01*
X142457143Y-110427676D02*
X142552381Y-110332438D01*
X142552381Y-110332438D02*
X142695238Y-110284819D01*
X142695238Y-110284819D02*
X142790476Y-110284819D01*
X142790476Y-110284819D02*
X142933333Y-110332438D01*
X142933333Y-110332438D02*
X142980952Y-110380057D01*
X143314286Y-110284819D02*
X143933333Y-110284819D01*
X143933333Y-110284819D02*
X143600000Y-110665771D01*
X143600000Y-110665771D02*
X143742857Y-110665771D01*
X143742857Y-110665771D02*
X143838095Y-110713390D01*
X143838095Y-110713390D02*
X143885714Y-110761009D01*
X143885714Y-110761009D02*
X143933333Y-110856247D01*
X143933333Y-110856247D02*
X143933333Y-111094342D01*
X143933333Y-111094342D02*
X143885714Y-111189580D01*
X143885714Y-111189580D02*
X143838095Y-111237200D01*
X143838095Y-111237200D02*
X143742857Y-111284819D01*
X143742857Y-111284819D02*
X143457143Y-111284819D01*
X143457143Y-111284819D02*
X143361905Y-111237200D01*
X143361905Y-111237200D02*
X143314286Y-111189580D01*
X144552381Y-110284819D02*
X144647619Y-110284819D01*
X144647619Y-110284819D02*
X144742857Y-110332438D01*
X144742857Y-110332438D02*
X144790476Y-110380057D01*
X144790476Y-110380057D02*
X144838095Y-110475295D01*
X144838095Y-110475295D02*
X144885714Y-110665771D01*
X144885714Y-110665771D02*
X144885714Y-110903866D01*
X144885714Y-110903866D02*
X144838095Y-111094342D01*
X144838095Y-111094342D02*
X144790476Y-111189580D01*
X144790476Y-111189580D02*
X144742857Y-111237200D01*
X144742857Y-111237200D02*
X144647619Y-111284819D01*
X144647619Y-111284819D02*
X144552381Y-111284819D01*
X144552381Y-111284819D02*
X144457143Y-111237200D01*
X144457143Y-111237200D02*
X144409524Y-111189580D01*
X144409524Y-111189580D02*
X144361905Y-111094342D01*
X144361905Y-111094342D02*
X144314286Y-110903866D01*
X144314286Y-110903866D02*
X144314286Y-110665771D01*
X144314286Y-110665771D02*
X144361905Y-110475295D01*
X144361905Y-110475295D02*
X144409524Y-110380057D01*
X144409524Y-110380057D02*
X144457143Y-110332438D01*
X144457143Y-110332438D02*
X144552381Y-110284819D01*
X145742857Y-110618152D02*
X145742857Y-111284819D01*
X145504762Y-110237200D02*
X145266667Y-110951485D01*
X145266667Y-110951485D02*
X145885714Y-110951485D01*
X149859580Y-90319047D02*
X149907200Y-90366666D01*
X149907200Y-90366666D02*
X149954819Y-90509523D01*
X149954819Y-90509523D02*
X149954819Y-90604761D01*
X149954819Y-90604761D02*
X149907200Y-90747618D01*
X149907200Y-90747618D02*
X149811961Y-90842856D01*
X149811961Y-90842856D02*
X149716723Y-90890475D01*
X149716723Y-90890475D02*
X149526247Y-90938094D01*
X149526247Y-90938094D02*
X149383390Y-90938094D01*
X149383390Y-90938094D02*
X149192914Y-90890475D01*
X149192914Y-90890475D02*
X149097676Y-90842856D01*
X149097676Y-90842856D02*
X149002438Y-90747618D01*
X149002438Y-90747618D02*
X148954819Y-90604761D01*
X148954819Y-90604761D02*
X148954819Y-90509523D01*
X148954819Y-90509523D02*
X149002438Y-90366666D01*
X149002438Y-90366666D02*
X149050057Y-90319047D01*
X148954819Y-89985713D02*
X148954819Y-89366666D01*
X148954819Y-89366666D02*
X149335771Y-89699999D01*
X149335771Y-89699999D02*
X149335771Y-89557142D01*
X149335771Y-89557142D02*
X149383390Y-89461904D01*
X149383390Y-89461904D02*
X149431009Y-89414285D01*
X149431009Y-89414285D02*
X149526247Y-89366666D01*
X149526247Y-89366666D02*
X149764342Y-89366666D01*
X149764342Y-89366666D02*
X149859580Y-89414285D01*
X149859580Y-89414285D02*
X149907200Y-89461904D01*
X149907200Y-89461904D02*
X149954819Y-89557142D01*
X149954819Y-89557142D02*
X149954819Y-89842856D01*
X149954819Y-89842856D02*
X149907200Y-89938094D01*
X149907200Y-89938094D02*
X149859580Y-89985713D01*
X148954819Y-88747618D02*
X148954819Y-88652380D01*
X148954819Y-88652380D02*
X149002438Y-88557142D01*
X149002438Y-88557142D02*
X149050057Y-88509523D01*
X149050057Y-88509523D02*
X149145295Y-88461904D01*
X149145295Y-88461904D02*
X149335771Y-88414285D01*
X149335771Y-88414285D02*
X149573866Y-88414285D01*
X149573866Y-88414285D02*
X149764342Y-88461904D01*
X149764342Y-88461904D02*
X149859580Y-88509523D01*
X149859580Y-88509523D02*
X149907200Y-88557142D01*
X149907200Y-88557142D02*
X149954819Y-88652380D01*
X149954819Y-88652380D02*
X149954819Y-88747618D01*
X149954819Y-88747618D02*
X149907200Y-88842856D01*
X149907200Y-88842856D02*
X149859580Y-88890475D01*
X149859580Y-88890475D02*
X149764342Y-88938094D01*
X149764342Y-88938094D02*
X149573866Y-88985713D01*
X149573866Y-88985713D02*
X149335771Y-88985713D01*
X149335771Y-88985713D02*
X149145295Y-88938094D01*
X149145295Y-88938094D02*
X149050057Y-88890475D01*
X149050057Y-88890475D02*
X149002438Y-88842856D01*
X149002438Y-88842856D02*
X148954819Y-88747618D01*
X149954819Y-87938094D02*
X149954819Y-87747618D01*
X149954819Y-87747618D02*
X149907200Y-87652380D01*
X149907200Y-87652380D02*
X149859580Y-87604761D01*
X149859580Y-87604761D02*
X149716723Y-87509523D01*
X149716723Y-87509523D02*
X149526247Y-87461904D01*
X149526247Y-87461904D02*
X149145295Y-87461904D01*
X149145295Y-87461904D02*
X149050057Y-87509523D01*
X149050057Y-87509523D02*
X149002438Y-87557142D01*
X149002438Y-87557142D02*
X148954819Y-87652380D01*
X148954819Y-87652380D02*
X148954819Y-87842856D01*
X148954819Y-87842856D02*
X149002438Y-87938094D01*
X149002438Y-87938094D02*
X149050057Y-87985713D01*
X149050057Y-87985713D02*
X149145295Y-88033332D01*
X149145295Y-88033332D02*
X149383390Y-88033332D01*
X149383390Y-88033332D02*
X149478628Y-87985713D01*
X149478628Y-87985713D02*
X149526247Y-87938094D01*
X149526247Y-87938094D02*
X149573866Y-87842856D01*
X149573866Y-87842856D02*
X149573866Y-87652380D01*
X149573866Y-87652380D02*
X149526247Y-87557142D01*
X149526247Y-87557142D02*
X149478628Y-87509523D01*
X149478628Y-87509523D02*
X149383390Y-87461904D01*
X157354819Y-72885714D02*
X158069104Y-72885714D01*
X158069104Y-72885714D02*
X158211961Y-72933333D01*
X158211961Y-72933333D02*
X158307200Y-73028571D01*
X158307200Y-73028571D02*
X158354819Y-73171428D01*
X158354819Y-73171428D02*
X158354819Y-73266666D01*
X158354819Y-71885714D02*
X158354819Y-72457142D01*
X158354819Y-72171428D02*
X157354819Y-72171428D01*
X157354819Y-72171428D02*
X157497676Y-72266666D01*
X157497676Y-72266666D02*
X157592914Y-72361904D01*
X157592914Y-72361904D02*
X157640533Y-72457142D01*
X157354819Y-71266666D02*
X157354819Y-71171428D01*
X157354819Y-71171428D02*
X157402438Y-71076190D01*
X157402438Y-71076190D02*
X157450057Y-71028571D01*
X157450057Y-71028571D02*
X157545295Y-70980952D01*
X157545295Y-70980952D02*
X157735771Y-70933333D01*
X157735771Y-70933333D02*
X157973866Y-70933333D01*
X157973866Y-70933333D02*
X158164342Y-70980952D01*
X158164342Y-70980952D02*
X158259580Y-71028571D01*
X158259580Y-71028571D02*
X158307200Y-71076190D01*
X158307200Y-71076190D02*
X158354819Y-71171428D01*
X158354819Y-71171428D02*
X158354819Y-71266666D01*
X158354819Y-71266666D02*
X158307200Y-71361904D01*
X158307200Y-71361904D02*
X158259580Y-71409523D01*
X158259580Y-71409523D02*
X158164342Y-71457142D01*
X158164342Y-71457142D02*
X157973866Y-71504761D01*
X157973866Y-71504761D02*
X157735771Y-71504761D01*
X157735771Y-71504761D02*
X157545295Y-71457142D01*
X157545295Y-71457142D02*
X157450057Y-71409523D01*
X157450057Y-71409523D02*
X157402438Y-71361904D01*
X157402438Y-71361904D02*
X157354819Y-71266666D01*
X157450057Y-70552380D02*
X157402438Y-70504761D01*
X157402438Y-70504761D02*
X157354819Y-70409523D01*
X157354819Y-70409523D02*
X157354819Y-70171428D01*
X157354819Y-70171428D02*
X157402438Y-70076190D01*
X157402438Y-70076190D02*
X157450057Y-70028571D01*
X157450057Y-70028571D02*
X157545295Y-69980952D01*
X157545295Y-69980952D02*
X157640533Y-69980952D01*
X157640533Y-69980952D02*
X157783390Y-70028571D01*
X157783390Y-70028571D02*
X158354819Y-70599999D01*
X158354819Y-70599999D02*
X158354819Y-69980952D01*
X141954819Y-82869047D02*
X141478628Y-83202380D01*
X141954819Y-83440475D02*
X140954819Y-83440475D01*
X140954819Y-83440475D02*
X140954819Y-83059523D01*
X140954819Y-83059523D02*
X141002438Y-82964285D01*
X141002438Y-82964285D02*
X141050057Y-82916666D01*
X141050057Y-82916666D02*
X141145295Y-82869047D01*
X141145295Y-82869047D02*
X141288152Y-82869047D01*
X141288152Y-82869047D02*
X141383390Y-82916666D01*
X141383390Y-82916666D02*
X141431009Y-82964285D01*
X141431009Y-82964285D02*
X141478628Y-83059523D01*
X141478628Y-83059523D02*
X141478628Y-83440475D01*
X141954819Y-81916666D02*
X141954819Y-82488094D01*
X141954819Y-82202380D02*
X140954819Y-82202380D01*
X140954819Y-82202380D02*
X141097676Y-82297618D01*
X141097676Y-82297618D02*
X141192914Y-82392856D01*
X141192914Y-82392856D02*
X141240533Y-82488094D01*
X140954819Y-81297618D02*
X140954819Y-81202380D01*
X140954819Y-81202380D02*
X141002438Y-81107142D01*
X141002438Y-81107142D02*
X141050057Y-81059523D01*
X141050057Y-81059523D02*
X141145295Y-81011904D01*
X141145295Y-81011904D02*
X141335771Y-80964285D01*
X141335771Y-80964285D02*
X141573866Y-80964285D01*
X141573866Y-80964285D02*
X141764342Y-81011904D01*
X141764342Y-81011904D02*
X141859580Y-81059523D01*
X141859580Y-81059523D02*
X141907200Y-81107142D01*
X141907200Y-81107142D02*
X141954819Y-81202380D01*
X141954819Y-81202380D02*
X141954819Y-81297618D01*
X141954819Y-81297618D02*
X141907200Y-81392856D01*
X141907200Y-81392856D02*
X141859580Y-81440475D01*
X141859580Y-81440475D02*
X141764342Y-81488094D01*
X141764342Y-81488094D02*
X141573866Y-81535713D01*
X141573866Y-81535713D02*
X141335771Y-81535713D01*
X141335771Y-81535713D02*
X141145295Y-81488094D01*
X141145295Y-81488094D02*
X141050057Y-81440475D01*
X141050057Y-81440475D02*
X141002438Y-81392856D01*
X141002438Y-81392856D02*
X140954819Y-81297618D01*
X141954819Y-80011904D02*
X141954819Y-80583332D01*
X141954819Y-80297618D02*
X140954819Y-80297618D01*
X140954819Y-80297618D02*
X141097676Y-80392856D01*
X141097676Y-80392856D02*
X141192914Y-80488094D01*
X141192914Y-80488094D02*
X141240533Y-80583332D01*
X153059580Y-149269047D02*
X153107200Y-149316666D01*
X153107200Y-149316666D02*
X153154819Y-149459523D01*
X153154819Y-149459523D02*
X153154819Y-149554761D01*
X153154819Y-149554761D02*
X153107200Y-149697618D01*
X153107200Y-149697618D02*
X153011961Y-149792856D01*
X153011961Y-149792856D02*
X152916723Y-149840475D01*
X152916723Y-149840475D02*
X152726247Y-149888094D01*
X152726247Y-149888094D02*
X152583390Y-149888094D01*
X152583390Y-149888094D02*
X152392914Y-149840475D01*
X152392914Y-149840475D02*
X152297676Y-149792856D01*
X152297676Y-149792856D02*
X152202438Y-149697618D01*
X152202438Y-149697618D02*
X152154819Y-149554761D01*
X152154819Y-149554761D02*
X152154819Y-149459523D01*
X152154819Y-149459523D02*
X152202438Y-149316666D01*
X152202438Y-149316666D02*
X152250057Y-149269047D01*
X152154819Y-148935713D02*
X152154819Y-148316666D01*
X152154819Y-148316666D02*
X152535771Y-148649999D01*
X152535771Y-148649999D02*
X152535771Y-148507142D01*
X152535771Y-148507142D02*
X152583390Y-148411904D01*
X152583390Y-148411904D02*
X152631009Y-148364285D01*
X152631009Y-148364285D02*
X152726247Y-148316666D01*
X152726247Y-148316666D02*
X152964342Y-148316666D01*
X152964342Y-148316666D02*
X153059580Y-148364285D01*
X153059580Y-148364285D02*
X153107200Y-148411904D01*
X153107200Y-148411904D02*
X153154819Y-148507142D01*
X153154819Y-148507142D02*
X153154819Y-148792856D01*
X153154819Y-148792856D02*
X153107200Y-148888094D01*
X153107200Y-148888094D02*
X153059580Y-148935713D01*
X153154819Y-147364285D02*
X153154819Y-147935713D01*
X153154819Y-147649999D02*
X152154819Y-147649999D01*
X152154819Y-147649999D02*
X152297676Y-147745237D01*
X152297676Y-147745237D02*
X152392914Y-147840475D01*
X152392914Y-147840475D02*
X152440533Y-147935713D01*
X153154819Y-146411904D02*
X153154819Y-146983332D01*
X153154819Y-146697618D02*
X152154819Y-146697618D01*
X152154819Y-146697618D02*
X152297676Y-146792856D01*
X152297676Y-146792856D02*
X152392914Y-146888094D01*
X152392914Y-146888094D02*
X152440533Y-146983332D01*
X152230952Y-79804819D02*
X151897619Y-79328628D01*
X151659524Y-79804819D02*
X151659524Y-78804819D01*
X151659524Y-78804819D02*
X152040476Y-78804819D01*
X152040476Y-78804819D02*
X152135714Y-78852438D01*
X152135714Y-78852438D02*
X152183333Y-78900057D01*
X152183333Y-78900057D02*
X152230952Y-78995295D01*
X152230952Y-78995295D02*
X152230952Y-79138152D01*
X152230952Y-79138152D02*
X152183333Y-79233390D01*
X152183333Y-79233390D02*
X152135714Y-79281009D01*
X152135714Y-79281009D02*
X152040476Y-79328628D01*
X152040476Y-79328628D02*
X151659524Y-79328628D01*
X152611905Y-78900057D02*
X152659524Y-78852438D01*
X152659524Y-78852438D02*
X152754762Y-78804819D01*
X152754762Y-78804819D02*
X152992857Y-78804819D01*
X152992857Y-78804819D02*
X153088095Y-78852438D01*
X153088095Y-78852438D02*
X153135714Y-78900057D01*
X153135714Y-78900057D02*
X153183333Y-78995295D01*
X153183333Y-78995295D02*
X153183333Y-79090533D01*
X153183333Y-79090533D02*
X153135714Y-79233390D01*
X153135714Y-79233390D02*
X152564286Y-79804819D01*
X152564286Y-79804819D02*
X153183333Y-79804819D01*
X153802381Y-78804819D02*
X153897619Y-78804819D01*
X153897619Y-78804819D02*
X153992857Y-78852438D01*
X153992857Y-78852438D02*
X154040476Y-78900057D01*
X154040476Y-78900057D02*
X154088095Y-78995295D01*
X154088095Y-78995295D02*
X154135714Y-79185771D01*
X154135714Y-79185771D02*
X154135714Y-79423866D01*
X154135714Y-79423866D02*
X154088095Y-79614342D01*
X154088095Y-79614342D02*
X154040476Y-79709580D01*
X154040476Y-79709580D02*
X153992857Y-79757200D01*
X153992857Y-79757200D02*
X153897619Y-79804819D01*
X153897619Y-79804819D02*
X153802381Y-79804819D01*
X153802381Y-79804819D02*
X153707143Y-79757200D01*
X153707143Y-79757200D02*
X153659524Y-79709580D01*
X153659524Y-79709580D02*
X153611905Y-79614342D01*
X153611905Y-79614342D02*
X153564286Y-79423866D01*
X153564286Y-79423866D02*
X153564286Y-79185771D01*
X153564286Y-79185771D02*
X153611905Y-78995295D01*
X153611905Y-78995295D02*
X153659524Y-78900057D01*
X153659524Y-78900057D02*
X153707143Y-78852438D01*
X153707143Y-78852438D02*
X153802381Y-78804819D01*
X155040476Y-78804819D02*
X154564286Y-78804819D01*
X154564286Y-78804819D02*
X154516667Y-79281009D01*
X154516667Y-79281009D02*
X154564286Y-79233390D01*
X154564286Y-79233390D02*
X154659524Y-79185771D01*
X154659524Y-79185771D02*
X154897619Y-79185771D01*
X154897619Y-79185771D02*
X154992857Y-79233390D01*
X154992857Y-79233390D02*
X155040476Y-79281009D01*
X155040476Y-79281009D02*
X155088095Y-79376247D01*
X155088095Y-79376247D02*
X155088095Y-79614342D01*
X155088095Y-79614342D02*
X155040476Y-79709580D01*
X155040476Y-79709580D02*
X154992857Y-79757200D01*
X154992857Y-79757200D02*
X154897619Y-79804819D01*
X154897619Y-79804819D02*
X154659524Y-79804819D01*
X154659524Y-79804819D02*
X154564286Y-79757200D01*
X154564286Y-79757200D02*
X154516667Y-79709580D01*
X146754819Y-94669047D02*
X146278628Y-95002380D01*
X146754819Y-95240475D02*
X145754819Y-95240475D01*
X145754819Y-95240475D02*
X145754819Y-94859523D01*
X145754819Y-94859523D02*
X145802438Y-94764285D01*
X145802438Y-94764285D02*
X145850057Y-94716666D01*
X145850057Y-94716666D02*
X145945295Y-94669047D01*
X145945295Y-94669047D02*
X146088152Y-94669047D01*
X146088152Y-94669047D02*
X146183390Y-94716666D01*
X146183390Y-94716666D02*
X146231009Y-94764285D01*
X146231009Y-94764285D02*
X146278628Y-94859523D01*
X146278628Y-94859523D02*
X146278628Y-95240475D01*
X145754819Y-94335713D02*
X145754819Y-93716666D01*
X145754819Y-93716666D02*
X146135771Y-94049999D01*
X146135771Y-94049999D02*
X146135771Y-93907142D01*
X146135771Y-93907142D02*
X146183390Y-93811904D01*
X146183390Y-93811904D02*
X146231009Y-93764285D01*
X146231009Y-93764285D02*
X146326247Y-93716666D01*
X146326247Y-93716666D02*
X146564342Y-93716666D01*
X146564342Y-93716666D02*
X146659580Y-93764285D01*
X146659580Y-93764285D02*
X146707200Y-93811904D01*
X146707200Y-93811904D02*
X146754819Y-93907142D01*
X146754819Y-93907142D02*
X146754819Y-94192856D01*
X146754819Y-94192856D02*
X146707200Y-94288094D01*
X146707200Y-94288094D02*
X146659580Y-94335713D01*
X145754819Y-93097618D02*
X145754819Y-93002380D01*
X145754819Y-93002380D02*
X145802438Y-92907142D01*
X145802438Y-92907142D02*
X145850057Y-92859523D01*
X145850057Y-92859523D02*
X145945295Y-92811904D01*
X145945295Y-92811904D02*
X146135771Y-92764285D01*
X146135771Y-92764285D02*
X146373866Y-92764285D01*
X146373866Y-92764285D02*
X146564342Y-92811904D01*
X146564342Y-92811904D02*
X146659580Y-92859523D01*
X146659580Y-92859523D02*
X146707200Y-92907142D01*
X146707200Y-92907142D02*
X146754819Y-93002380D01*
X146754819Y-93002380D02*
X146754819Y-93097618D01*
X146754819Y-93097618D02*
X146707200Y-93192856D01*
X146707200Y-93192856D02*
X146659580Y-93240475D01*
X146659580Y-93240475D02*
X146564342Y-93288094D01*
X146564342Y-93288094D02*
X146373866Y-93335713D01*
X146373866Y-93335713D02*
X146135771Y-93335713D01*
X146135771Y-93335713D02*
X145945295Y-93288094D01*
X145945295Y-93288094D02*
X145850057Y-93240475D01*
X145850057Y-93240475D02*
X145802438Y-93192856D01*
X145802438Y-93192856D02*
X145754819Y-93097618D01*
X145754819Y-92430951D02*
X145754819Y-91764285D01*
X145754819Y-91764285D02*
X146754819Y-92192856D01*
X152409524Y-123704819D02*
X152409524Y-122704819D01*
X152409524Y-122704819D02*
X152647619Y-122704819D01*
X152647619Y-122704819D02*
X152790476Y-122752438D01*
X152790476Y-122752438D02*
X152885714Y-122847676D01*
X152885714Y-122847676D02*
X152933333Y-122942914D01*
X152933333Y-122942914D02*
X152980952Y-123133390D01*
X152980952Y-123133390D02*
X152980952Y-123276247D01*
X152980952Y-123276247D02*
X152933333Y-123466723D01*
X152933333Y-123466723D02*
X152885714Y-123561961D01*
X152885714Y-123561961D02*
X152790476Y-123657200D01*
X152790476Y-123657200D02*
X152647619Y-123704819D01*
X152647619Y-123704819D02*
X152409524Y-123704819D01*
X153314286Y-122704819D02*
X153933333Y-122704819D01*
X153933333Y-122704819D02*
X153600000Y-123085771D01*
X153600000Y-123085771D02*
X153742857Y-123085771D01*
X153742857Y-123085771D02*
X153838095Y-123133390D01*
X153838095Y-123133390D02*
X153885714Y-123181009D01*
X153885714Y-123181009D02*
X153933333Y-123276247D01*
X153933333Y-123276247D02*
X153933333Y-123514342D01*
X153933333Y-123514342D02*
X153885714Y-123609580D01*
X153885714Y-123609580D02*
X153838095Y-123657200D01*
X153838095Y-123657200D02*
X153742857Y-123704819D01*
X153742857Y-123704819D02*
X153457143Y-123704819D01*
X153457143Y-123704819D02*
X153361905Y-123657200D01*
X153361905Y-123657200D02*
X153314286Y-123609580D01*
X154552381Y-122704819D02*
X154647619Y-122704819D01*
X154647619Y-122704819D02*
X154742857Y-122752438D01*
X154742857Y-122752438D02*
X154790476Y-122800057D01*
X154790476Y-122800057D02*
X154838095Y-122895295D01*
X154838095Y-122895295D02*
X154885714Y-123085771D01*
X154885714Y-123085771D02*
X154885714Y-123323866D01*
X154885714Y-123323866D02*
X154838095Y-123514342D01*
X154838095Y-123514342D02*
X154790476Y-123609580D01*
X154790476Y-123609580D02*
X154742857Y-123657200D01*
X154742857Y-123657200D02*
X154647619Y-123704819D01*
X154647619Y-123704819D02*
X154552381Y-123704819D01*
X154552381Y-123704819D02*
X154457143Y-123657200D01*
X154457143Y-123657200D02*
X154409524Y-123609580D01*
X154409524Y-123609580D02*
X154361905Y-123514342D01*
X154361905Y-123514342D02*
X154314286Y-123323866D01*
X154314286Y-123323866D02*
X154314286Y-123085771D01*
X154314286Y-123085771D02*
X154361905Y-122895295D01*
X154361905Y-122895295D02*
X154409524Y-122800057D01*
X154409524Y-122800057D02*
X154457143Y-122752438D01*
X154457143Y-122752438D02*
X154552381Y-122704819D01*
X155838095Y-123704819D02*
X155266667Y-123704819D01*
X155552381Y-123704819D02*
X155552381Y-122704819D01*
X155552381Y-122704819D02*
X155457143Y-122847676D01*
X155457143Y-122847676D02*
X155361905Y-122942914D01*
X155361905Y-122942914D02*
X155266667Y-122990533D01*
X146384819Y-149444047D02*
X145908628Y-149777380D01*
X146384819Y-150015475D02*
X145384819Y-150015475D01*
X145384819Y-150015475D02*
X145384819Y-149634523D01*
X145384819Y-149634523D02*
X145432438Y-149539285D01*
X145432438Y-149539285D02*
X145480057Y-149491666D01*
X145480057Y-149491666D02*
X145575295Y-149444047D01*
X145575295Y-149444047D02*
X145718152Y-149444047D01*
X145718152Y-149444047D02*
X145813390Y-149491666D01*
X145813390Y-149491666D02*
X145861009Y-149539285D01*
X145861009Y-149539285D02*
X145908628Y-149634523D01*
X145908628Y-149634523D02*
X145908628Y-150015475D01*
X145384819Y-149110713D02*
X145384819Y-148491666D01*
X145384819Y-148491666D02*
X145765771Y-148824999D01*
X145765771Y-148824999D02*
X145765771Y-148682142D01*
X145765771Y-148682142D02*
X145813390Y-148586904D01*
X145813390Y-148586904D02*
X145861009Y-148539285D01*
X145861009Y-148539285D02*
X145956247Y-148491666D01*
X145956247Y-148491666D02*
X146194342Y-148491666D01*
X146194342Y-148491666D02*
X146289580Y-148539285D01*
X146289580Y-148539285D02*
X146337200Y-148586904D01*
X146337200Y-148586904D02*
X146384819Y-148682142D01*
X146384819Y-148682142D02*
X146384819Y-148967856D01*
X146384819Y-148967856D02*
X146337200Y-149063094D01*
X146337200Y-149063094D02*
X146289580Y-149110713D01*
X146384819Y-147539285D02*
X146384819Y-148110713D01*
X146384819Y-147824999D02*
X145384819Y-147824999D01*
X145384819Y-147824999D02*
X145527676Y-147920237D01*
X145527676Y-147920237D02*
X145622914Y-148015475D01*
X145622914Y-148015475D02*
X145670533Y-148110713D01*
X145384819Y-147205951D02*
X145384819Y-146586904D01*
X145384819Y-146586904D02*
X145765771Y-146920237D01*
X145765771Y-146920237D02*
X145765771Y-146777380D01*
X145765771Y-146777380D02*
X145813390Y-146682142D01*
X145813390Y-146682142D02*
X145861009Y-146634523D01*
X145861009Y-146634523D02*
X145956247Y-146586904D01*
X145956247Y-146586904D02*
X146194342Y-146586904D01*
X146194342Y-146586904D02*
X146289580Y-146634523D01*
X146289580Y-146634523D02*
X146337200Y-146682142D01*
X146337200Y-146682142D02*
X146384819Y-146777380D01*
X146384819Y-146777380D02*
X146384819Y-147063094D01*
X146384819Y-147063094D02*
X146337200Y-147158332D01*
X146337200Y-147158332D02*
X146289580Y-147205951D01*
X152871428Y-89153628D02*
X152871428Y-89629819D01*
X152538095Y-88629819D02*
X152871428Y-89153628D01*
X152871428Y-89153628D02*
X153204761Y-88629819D01*
X153442857Y-88629819D02*
X154061904Y-88629819D01*
X154061904Y-88629819D02*
X153728571Y-89010771D01*
X153728571Y-89010771D02*
X153871428Y-89010771D01*
X153871428Y-89010771D02*
X153966666Y-89058390D01*
X153966666Y-89058390D02*
X154014285Y-89106009D01*
X154014285Y-89106009D02*
X154061904Y-89201247D01*
X154061904Y-89201247D02*
X154061904Y-89439342D01*
X154061904Y-89439342D02*
X154014285Y-89534580D01*
X154014285Y-89534580D02*
X153966666Y-89582200D01*
X153966666Y-89582200D02*
X153871428Y-89629819D01*
X153871428Y-89629819D02*
X153585714Y-89629819D01*
X153585714Y-89629819D02*
X153490476Y-89582200D01*
X153490476Y-89582200D02*
X153442857Y-89534580D01*
X154680952Y-88629819D02*
X154776190Y-88629819D01*
X154776190Y-88629819D02*
X154871428Y-88677438D01*
X154871428Y-88677438D02*
X154919047Y-88725057D01*
X154919047Y-88725057D02*
X154966666Y-88820295D01*
X154966666Y-88820295D02*
X155014285Y-89010771D01*
X155014285Y-89010771D02*
X155014285Y-89248866D01*
X155014285Y-89248866D02*
X154966666Y-89439342D01*
X154966666Y-89439342D02*
X154919047Y-89534580D01*
X154919047Y-89534580D02*
X154871428Y-89582200D01*
X154871428Y-89582200D02*
X154776190Y-89629819D01*
X154776190Y-89629819D02*
X154680952Y-89629819D01*
X154680952Y-89629819D02*
X154585714Y-89582200D01*
X154585714Y-89582200D02*
X154538095Y-89534580D01*
X154538095Y-89534580D02*
X154490476Y-89439342D01*
X154490476Y-89439342D02*
X154442857Y-89248866D01*
X154442857Y-89248866D02*
X154442857Y-89010771D01*
X154442857Y-89010771D02*
X154490476Y-88820295D01*
X154490476Y-88820295D02*
X154538095Y-88725057D01*
X154538095Y-88725057D02*
X154585714Y-88677438D01*
X154585714Y-88677438D02*
X154680952Y-88629819D01*
X155966666Y-89629819D02*
X155395238Y-89629819D01*
X155680952Y-89629819D02*
X155680952Y-88629819D01*
X155680952Y-88629819D02*
X155585714Y-88772676D01*
X155585714Y-88772676D02*
X155490476Y-88867914D01*
X155490476Y-88867914D02*
X155395238Y-88915533D01*
X151719580Y-87819047D02*
X151767200Y-87866666D01*
X151767200Y-87866666D02*
X151814819Y-88009523D01*
X151814819Y-88009523D02*
X151814819Y-88104761D01*
X151814819Y-88104761D02*
X151767200Y-88247618D01*
X151767200Y-88247618D02*
X151671961Y-88342856D01*
X151671961Y-88342856D02*
X151576723Y-88390475D01*
X151576723Y-88390475D02*
X151386247Y-88438094D01*
X151386247Y-88438094D02*
X151243390Y-88438094D01*
X151243390Y-88438094D02*
X151052914Y-88390475D01*
X151052914Y-88390475D02*
X150957676Y-88342856D01*
X150957676Y-88342856D02*
X150862438Y-88247618D01*
X150862438Y-88247618D02*
X150814819Y-88104761D01*
X150814819Y-88104761D02*
X150814819Y-88009523D01*
X150814819Y-88009523D02*
X150862438Y-87866666D01*
X150862438Y-87866666D02*
X150910057Y-87819047D01*
X150910057Y-87438094D02*
X150862438Y-87390475D01*
X150862438Y-87390475D02*
X150814819Y-87295237D01*
X150814819Y-87295237D02*
X150814819Y-87057142D01*
X150814819Y-87057142D02*
X150862438Y-86961904D01*
X150862438Y-86961904D02*
X150910057Y-86914285D01*
X150910057Y-86914285D02*
X151005295Y-86866666D01*
X151005295Y-86866666D02*
X151100533Y-86866666D01*
X151100533Y-86866666D02*
X151243390Y-86914285D01*
X151243390Y-86914285D02*
X151814819Y-87485713D01*
X151814819Y-87485713D02*
X151814819Y-86866666D01*
X150814819Y-86247618D02*
X150814819Y-86152380D01*
X150814819Y-86152380D02*
X150862438Y-86057142D01*
X150862438Y-86057142D02*
X150910057Y-86009523D01*
X150910057Y-86009523D02*
X151005295Y-85961904D01*
X151005295Y-85961904D02*
X151195771Y-85914285D01*
X151195771Y-85914285D02*
X151433866Y-85914285D01*
X151433866Y-85914285D02*
X151624342Y-85961904D01*
X151624342Y-85961904D02*
X151719580Y-86009523D01*
X151719580Y-86009523D02*
X151767200Y-86057142D01*
X151767200Y-86057142D02*
X151814819Y-86152380D01*
X151814819Y-86152380D02*
X151814819Y-86247618D01*
X151814819Y-86247618D02*
X151767200Y-86342856D01*
X151767200Y-86342856D02*
X151719580Y-86390475D01*
X151719580Y-86390475D02*
X151624342Y-86438094D01*
X151624342Y-86438094D02*
X151433866Y-86485713D01*
X151433866Y-86485713D02*
X151195771Y-86485713D01*
X151195771Y-86485713D02*
X151005295Y-86438094D01*
X151005295Y-86438094D02*
X150910057Y-86390475D01*
X150910057Y-86390475D02*
X150862438Y-86342856D01*
X150862438Y-86342856D02*
X150814819Y-86247618D01*
X151148152Y-85057142D02*
X151814819Y-85057142D01*
X150767200Y-85295237D02*
X151481485Y-85533332D01*
X151481485Y-85533332D02*
X151481485Y-84914285D01*
X155580952Y-95454819D02*
X155247619Y-94978628D01*
X155009524Y-95454819D02*
X155009524Y-94454819D01*
X155009524Y-94454819D02*
X155390476Y-94454819D01*
X155390476Y-94454819D02*
X155485714Y-94502438D01*
X155485714Y-94502438D02*
X155533333Y-94550057D01*
X155533333Y-94550057D02*
X155580952Y-94645295D01*
X155580952Y-94645295D02*
X155580952Y-94788152D01*
X155580952Y-94788152D02*
X155533333Y-94883390D01*
X155533333Y-94883390D02*
X155485714Y-94931009D01*
X155485714Y-94931009D02*
X155390476Y-94978628D01*
X155390476Y-94978628D02*
X155009524Y-94978628D01*
X155914286Y-94454819D02*
X156533333Y-94454819D01*
X156533333Y-94454819D02*
X156200000Y-94835771D01*
X156200000Y-94835771D02*
X156342857Y-94835771D01*
X156342857Y-94835771D02*
X156438095Y-94883390D01*
X156438095Y-94883390D02*
X156485714Y-94931009D01*
X156485714Y-94931009D02*
X156533333Y-95026247D01*
X156533333Y-95026247D02*
X156533333Y-95264342D01*
X156533333Y-95264342D02*
X156485714Y-95359580D01*
X156485714Y-95359580D02*
X156438095Y-95407200D01*
X156438095Y-95407200D02*
X156342857Y-95454819D01*
X156342857Y-95454819D02*
X156057143Y-95454819D01*
X156057143Y-95454819D02*
X155961905Y-95407200D01*
X155961905Y-95407200D02*
X155914286Y-95359580D01*
X157485714Y-95454819D02*
X156914286Y-95454819D01*
X157200000Y-95454819D02*
X157200000Y-94454819D01*
X157200000Y-94454819D02*
X157104762Y-94597676D01*
X157104762Y-94597676D02*
X157009524Y-94692914D01*
X157009524Y-94692914D02*
X156914286Y-94740533D01*
X158390476Y-94454819D02*
X157914286Y-94454819D01*
X157914286Y-94454819D02*
X157866667Y-94931009D01*
X157866667Y-94931009D02*
X157914286Y-94883390D01*
X157914286Y-94883390D02*
X158009524Y-94835771D01*
X158009524Y-94835771D02*
X158247619Y-94835771D01*
X158247619Y-94835771D02*
X158342857Y-94883390D01*
X158342857Y-94883390D02*
X158390476Y-94931009D01*
X158390476Y-94931009D02*
X158438095Y-95026247D01*
X158438095Y-95026247D02*
X158438095Y-95264342D01*
X158438095Y-95264342D02*
X158390476Y-95359580D01*
X158390476Y-95359580D02*
X158342857Y-95407200D01*
X158342857Y-95407200D02*
X158247619Y-95454819D01*
X158247619Y-95454819D02*
X158009524Y-95454819D01*
X158009524Y-95454819D02*
X157914286Y-95407200D01*
X157914286Y-95407200D02*
X157866667Y-95359580D01*
X141305952Y-79554819D02*
X140972619Y-79078628D01*
X140734524Y-79554819D02*
X140734524Y-78554819D01*
X140734524Y-78554819D02*
X141115476Y-78554819D01*
X141115476Y-78554819D02*
X141210714Y-78602438D01*
X141210714Y-78602438D02*
X141258333Y-78650057D01*
X141258333Y-78650057D02*
X141305952Y-78745295D01*
X141305952Y-78745295D02*
X141305952Y-78888152D01*
X141305952Y-78888152D02*
X141258333Y-78983390D01*
X141258333Y-78983390D02*
X141210714Y-79031009D01*
X141210714Y-79031009D02*
X141115476Y-79078628D01*
X141115476Y-79078628D02*
X140734524Y-79078628D01*
X141686905Y-78650057D02*
X141734524Y-78602438D01*
X141734524Y-78602438D02*
X141829762Y-78554819D01*
X141829762Y-78554819D02*
X142067857Y-78554819D01*
X142067857Y-78554819D02*
X142163095Y-78602438D01*
X142163095Y-78602438D02*
X142210714Y-78650057D01*
X142210714Y-78650057D02*
X142258333Y-78745295D01*
X142258333Y-78745295D02*
X142258333Y-78840533D01*
X142258333Y-78840533D02*
X142210714Y-78983390D01*
X142210714Y-78983390D02*
X141639286Y-79554819D01*
X141639286Y-79554819D02*
X142258333Y-79554819D01*
X142877381Y-78554819D02*
X142972619Y-78554819D01*
X142972619Y-78554819D02*
X143067857Y-78602438D01*
X143067857Y-78602438D02*
X143115476Y-78650057D01*
X143115476Y-78650057D02*
X143163095Y-78745295D01*
X143163095Y-78745295D02*
X143210714Y-78935771D01*
X143210714Y-78935771D02*
X143210714Y-79173866D01*
X143210714Y-79173866D02*
X143163095Y-79364342D01*
X143163095Y-79364342D02*
X143115476Y-79459580D01*
X143115476Y-79459580D02*
X143067857Y-79507200D01*
X143067857Y-79507200D02*
X142972619Y-79554819D01*
X142972619Y-79554819D02*
X142877381Y-79554819D01*
X142877381Y-79554819D02*
X142782143Y-79507200D01*
X142782143Y-79507200D02*
X142734524Y-79459580D01*
X142734524Y-79459580D02*
X142686905Y-79364342D01*
X142686905Y-79364342D02*
X142639286Y-79173866D01*
X142639286Y-79173866D02*
X142639286Y-78935771D01*
X142639286Y-78935771D02*
X142686905Y-78745295D01*
X142686905Y-78745295D02*
X142734524Y-78650057D01*
X142734524Y-78650057D02*
X142782143Y-78602438D01*
X142782143Y-78602438D02*
X142877381Y-78554819D01*
X144067857Y-78888152D02*
X144067857Y-79554819D01*
X143829762Y-78507200D02*
X143591667Y-79221485D01*
X143591667Y-79221485D02*
X144210714Y-79221485D01*
X152230952Y-76459580D02*
X152183333Y-76507200D01*
X152183333Y-76507200D02*
X152040476Y-76554819D01*
X152040476Y-76554819D02*
X151945238Y-76554819D01*
X151945238Y-76554819D02*
X151802381Y-76507200D01*
X151802381Y-76507200D02*
X151707143Y-76411961D01*
X151707143Y-76411961D02*
X151659524Y-76316723D01*
X151659524Y-76316723D02*
X151611905Y-76126247D01*
X151611905Y-76126247D02*
X151611905Y-75983390D01*
X151611905Y-75983390D02*
X151659524Y-75792914D01*
X151659524Y-75792914D02*
X151707143Y-75697676D01*
X151707143Y-75697676D02*
X151802381Y-75602438D01*
X151802381Y-75602438D02*
X151945238Y-75554819D01*
X151945238Y-75554819D02*
X152040476Y-75554819D01*
X152040476Y-75554819D02*
X152183333Y-75602438D01*
X152183333Y-75602438D02*
X152230952Y-75650057D01*
X152611905Y-75650057D02*
X152659524Y-75602438D01*
X152659524Y-75602438D02*
X152754762Y-75554819D01*
X152754762Y-75554819D02*
X152992857Y-75554819D01*
X152992857Y-75554819D02*
X153088095Y-75602438D01*
X153088095Y-75602438D02*
X153135714Y-75650057D01*
X153135714Y-75650057D02*
X153183333Y-75745295D01*
X153183333Y-75745295D02*
X153183333Y-75840533D01*
X153183333Y-75840533D02*
X153135714Y-75983390D01*
X153135714Y-75983390D02*
X152564286Y-76554819D01*
X152564286Y-76554819D02*
X153183333Y-76554819D01*
X153802381Y-75554819D02*
X153897619Y-75554819D01*
X153897619Y-75554819D02*
X153992857Y-75602438D01*
X153992857Y-75602438D02*
X154040476Y-75650057D01*
X154040476Y-75650057D02*
X154088095Y-75745295D01*
X154088095Y-75745295D02*
X154135714Y-75935771D01*
X154135714Y-75935771D02*
X154135714Y-76173866D01*
X154135714Y-76173866D02*
X154088095Y-76364342D01*
X154088095Y-76364342D02*
X154040476Y-76459580D01*
X154040476Y-76459580D02*
X153992857Y-76507200D01*
X153992857Y-76507200D02*
X153897619Y-76554819D01*
X153897619Y-76554819D02*
X153802381Y-76554819D01*
X153802381Y-76554819D02*
X153707143Y-76507200D01*
X153707143Y-76507200D02*
X153659524Y-76459580D01*
X153659524Y-76459580D02*
X153611905Y-76364342D01*
X153611905Y-76364342D02*
X153564286Y-76173866D01*
X153564286Y-76173866D02*
X153564286Y-75935771D01*
X153564286Y-75935771D02*
X153611905Y-75745295D01*
X153611905Y-75745295D02*
X153659524Y-75650057D01*
X153659524Y-75650057D02*
X153707143Y-75602438D01*
X153707143Y-75602438D02*
X153802381Y-75554819D01*
X154469048Y-75554819D02*
X155088095Y-75554819D01*
X155088095Y-75554819D02*
X154754762Y-75935771D01*
X154754762Y-75935771D02*
X154897619Y-75935771D01*
X154897619Y-75935771D02*
X154992857Y-75983390D01*
X154992857Y-75983390D02*
X155040476Y-76031009D01*
X155040476Y-76031009D02*
X155088095Y-76126247D01*
X155088095Y-76126247D02*
X155088095Y-76364342D01*
X155088095Y-76364342D02*
X155040476Y-76459580D01*
X155040476Y-76459580D02*
X154992857Y-76507200D01*
X154992857Y-76507200D02*
X154897619Y-76554819D01*
X154897619Y-76554819D02*
X154611905Y-76554819D01*
X154611905Y-76554819D02*
X154516667Y-76507200D01*
X154516667Y-76507200D02*
X154469048Y-76459580D01*
X154754819Y-149269047D02*
X154278628Y-149602380D01*
X154754819Y-149840475D02*
X153754819Y-149840475D01*
X153754819Y-149840475D02*
X153754819Y-149459523D01*
X153754819Y-149459523D02*
X153802438Y-149364285D01*
X153802438Y-149364285D02*
X153850057Y-149316666D01*
X153850057Y-149316666D02*
X153945295Y-149269047D01*
X153945295Y-149269047D02*
X154088152Y-149269047D01*
X154088152Y-149269047D02*
X154183390Y-149316666D01*
X154183390Y-149316666D02*
X154231009Y-149364285D01*
X154231009Y-149364285D02*
X154278628Y-149459523D01*
X154278628Y-149459523D02*
X154278628Y-149840475D01*
X153754819Y-148935713D02*
X153754819Y-148316666D01*
X153754819Y-148316666D02*
X154135771Y-148649999D01*
X154135771Y-148649999D02*
X154135771Y-148507142D01*
X154135771Y-148507142D02*
X154183390Y-148411904D01*
X154183390Y-148411904D02*
X154231009Y-148364285D01*
X154231009Y-148364285D02*
X154326247Y-148316666D01*
X154326247Y-148316666D02*
X154564342Y-148316666D01*
X154564342Y-148316666D02*
X154659580Y-148364285D01*
X154659580Y-148364285D02*
X154707200Y-148411904D01*
X154707200Y-148411904D02*
X154754819Y-148507142D01*
X154754819Y-148507142D02*
X154754819Y-148792856D01*
X154754819Y-148792856D02*
X154707200Y-148888094D01*
X154707200Y-148888094D02*
X154659580Y-148935713D01*
X153754819Y-147697618D02*
X153754819Y-147602380D01*
X153754819Y-147602380D02*
X153802438Y-147507142D01*
X153802438Y-147507142D02*
X153850057Y-147459523D01*
X153850057Y-147459523D02*
X153945295Y-147411904D01*
X153945295Y-147411904D02*
X154135771Y-147364285D01*
X154135771Y-147364285D02*
X154373866Y-147364285D01*
X154373866Y-147364285D02*
X154564342Y-147411904D01*
X154564342Y-147411904D02*
X154659580Y-147459523D01*
X154659580Y-147459523D02*
X154707200Y-147507142D01*
X154707200Y-147507142D02*
X154754819Y-147602380D01*
X154754819Y-147602380D02*
X154754819Y-147697618D01*
X154754819Y-147697618D02*
X154707200Y-147792856D01*
X154707200Y-147792856D02*
X154659580Y-147840475D01*
X154659580Y-147840475D02*
X154564342Y-147888094D01*
X154564342Y-147888094D02*
X154373866Y-147935713D01*
X154373866Y-147935713D02*
X154135771Y-147935713D01*
X154135771Y-147935713D02*
X153945295Y-147888094D01*
X153945295Y-147888094D02*
X153850057Y-147840475D01*
X153850057Y-147840475D02*
X153802438Y-147792856D01*
X153802438Y-147792856D02*
X153754819Y-147697618D01*
X154754819Y-146888094D02*
X154754819Y-146697618D01*
X154754819Y-146697618D02*
X154707200Y-146602380D01*
X154707200Y-146602380D02*
X154659580Y-146554761D01*
X154659580Y-146554761D02*
X154516723Y-146459523D01*
X154516723Y-146459523D02*
X154326247Y-146411904D01*
X154326247Y-146411904D02*
X153945295Y-146411904D01*
X153945295Y-146411904D02*
X153850057Y-146459523D01*
X153850057Y-146459523D02*
X153802438Y-146507142D01*
X153802438Y-146507142D02*
X153754819Y-146602380D01*
X153754819Y-146602380D02*
X153754819Y-146792856D01*
X153754819Y-146792856D02*
X153802438Y-146888094D01*
X153802438Y-146888094D02*
X153850057Y-146935713D01*
X153850057Y-146935713D02*
X153945295Y-146983332D01*
X153945295Y-146983332D02*
X154183390Y-146983332D01*
X154183390Y-146983332D02*
X154278628Y-146935713D01*
X154278628Y-146935713D02*
X154326247Y-146888094D01*
X154326247Y-146888094D02*
X154373866Y-146792856D01*
X154373866Y-146792856D02*
X154373866Y-146602380D01*
X154373866Y-146602380D02*
X154326247Y-146507142D01*
X154326247Y-146507142D02*
X154278628Y-146459523D01*
X154278628Y-146459523D02*
X154183390Y-146411904D01*
X149554819Y-149369047D02*
X149078628Y-149702380D01*
X149554819Y-149940475D02*
X148554819Y-149940475D01*
X148554819Y-149940475D02*
X148554819Y-149559523D01*
X148554819Y-149559523D02*
X148602438Y-149464285D01*
X148602438Y-149464285D02*
X148650057Y-149416666D01*
X148650057Y-149416666D02*
X148745295Y-149369047D01*
X148745295Y-149369047D02*
X148888152Y-149369047D01*
X148888152Y-149369047D02*
X148983390Y-149416666D01*
X148983390Y-149416666D02*
X149031009Y-149464285D01*
X149031009Y-149464285D02*
X149078628Y-149559523D01*
X149078628Y-149559523D02*
X149078628Y-149940475D01*
X148554819Y-149035713D02*
X148554819Y-148416666D01*
X148554819Y-148416666D02*
X148935771Y-148749999D01*
X148935771Y-148749999D02*
X148935771Y-148607142D01*
X148935771Y-148607142D02*
X148983390Y-148511904D01*
X148983390Y-148511904D02*
X149031009Y-148464285D01*
X149031009Y-148464285D02*
X149126247Y-148416666D01*
X149126247Y-148416666D02*
X149364342Y-148416666D01*
X149364342Y-148416666D02*
X149459580Y-148464285D01*
X149459580Y-148464285D02*
X149507200Y-148511904D01*
X149507200Y-148511904D02*
X149554819Y-148607142D01*
X149554819Y-148607142D02*
X149554819Y-148892856D01*
X149554819Y-148892856D02*
X149507200Y-148988094D01*
X149507200Y-148988094D02*
X149459580Y-149035713D01*
X149554819Y-147464285D02*
X149554819Y-148035713D01*
X149554819Y-147749999D02*
X148554819Y-147749999D01*
X148554819Y-147749999D02*
X148697676Y-147845237D01*
X148697676Y-147845237D02*
X148792914Y-147940475D01*
X148792914Y-147940475D02*
X148840533Y-148035713D01*
X148554819Y-146845237D02*
X148554819Y-146749999D01*
X148554819Y-146749999D02*
X148602438Y-146654761D01*
X148602438Y-146654761D02*
X148650057Y-146607142D01*
X148650057Y-146607142D02*
X148745295Y-146559523D01*
X148745295Y-146559523D02*
X148935771Y-146511904D01*
X148935771Y-146511904D02*
X149173866Y-146511904D01*
X149173866Y-146511904D02*
X149364342Y-146559523D01*
X149364342Y-146559523D02*
X149459580Y-146607142D01*
X149459580Y-146607142D02*
X149507200Y-146654761D01*
X149507200Y-146654761D02*
X149554819Y-146749999D01*
X149554819Y-146749999D02*
X149554819Y-146845237D01*
X149554819Y-146845237D02*
X149507200Y-146940475D01*
X149507200Y-146940475D02*
X149459580Y-146988094D01*
X149459580Y-146988094D02*
X149364342Y-147035713D01*
X149364342Y-147035713D02*
X149173866Y-147083332D01*
X149173866Y-147083332D02*
X148935771Y-147083332D01*
X148935771Y-147083332D02*
X148745295Y-147035713D01*
X148745295Y-147035713D02*
X148650057Y-146988094D01*
X148650057Y-146988094D02*
X148602438Y-146940475D01*
X148602438Y-146940475D02*
X148554819Y-146845237D01*
X156880952Y-105559580D02*
X156833333Y-105607200D01*
X156833333Y-105607200D02*
X156690476Y-105654819D01*
X156690476Y-105654819D02*
X156595238Y-105654819D01*
X156595238Y-105654819D02*
X156452381Y-105607200D01*
X156452381Y-105607200D02*
X156357143Y-105511961D01*
X156357143Y-105511961D02*
X156309524Y-105416723D01*
X156309524Y-105416723D02*
X156261905Y-105226247D01*
X156261905Y-105226247D02*
X156261905Y-105083390D01*
X156261905Y-105083390D02*
X156309524Y-104892914D01*
X156309524Y-104892914D02*
X156357143Y-104797676D01*
X156357143Y-104797676D02*
X156452381Y-104702438D01*
X156452381Y-104702438D02*
X156595238Y-104654819D01*
X156595238Y-104654819D02*
X156690476Y-104654819D01*
X156690476Y-104654819D02*
X156833333Y-104702438D01*
X156833333Y-104702438D02*
X156880952Y-104750057D01*
X157214286Y-104654819D02*
X157833333Y-104654819D01*
X157833333Y-104654819D02*
X157500000Y-105035771D01*
X157500000Y-105035771D02*
X157642857Y-105035771D01*
X157642857Y-105035771D02*
X157738095Y-105083390D01*
X157738095Y-105083390D02*
X157785714Y-105131009D01*
X157785714Y-105131009D02*
X157833333Y-105226247D01*
X157833333Y-105226247D02*
X157833333Y-105464342D01*
X157833333Y-105464342D02*
X157785714Y-105559580D01*
X157785714Y-105559580D02*
X157738095Y-105607200D01*
X157738095Y-105607200D02*
X157642857Y-105654819D01*
X157642857Y-105654819D02*
X157357143Y-105654819D01*
X157357143Y-105654819D02*
X157261905Y-105607200D01*
X157261905Y-105607200D02*
X157214286Y-105559580D01*
X158785714Y-105654819D02*
X158214286Y-105654819D01*
X158500000Y-105654819D02*
X158500000Y-104654819D01*
X158500000Y-104654819D02*
X158404762Y-104797676D01*
X158404762Y-104797676D02*
X158309524Y-104892914D01*
X158309524Y-104892914D02*
X158214286Y-104940533D01*
X159166667Y-104750057D02*
X159214286Y-104702438D01*
X159214286Y-104702438D02*
X159309524Y-104654819D01*
X159309524Y-104654819D02*
X159547619Y-104654819D01*
X159547619Y-104654819D02*
X159642857Y-104702438D01*
X159642857Y-104702438D02*
X159690476Y-104750057D01*
X159690476Y-104750057D02*
X159738095Y-104845295D01*
X159738095Y-104845295D02*
X159738095Y-104940533D01*
X159738095Y-104940533D02*
X159690476Y-105083390D01*
X159690476Y-105083390D02*
X159119048Y-105654819D01*
X159119048Y-105654819D02*
X159738095Y-105654819D01*
X156354819Y-149269047D02*
X155878628Y-149602380D01*
X156354819Y-149840475D02*
X155354819Y-149840475D01*
X155354819Y-149840475D02*
X155354819Y-149459523D01*
X155354819Y-149459523D02*
X155402438Y-149364285D01*
X155402438Y-149364285D02*
X155450057Y-149316666D01*
X155450057Y-149316666D02*
X155545295Y-149269047D01*
X155545295Y-149269047D02*
X155688152Y-149269047D01*
X155688152Y-149269047D02*
X155783390Y-149316666D01*
X155783390Y-149316666D02*
X155831009Y-149364285D01*
X155831009Y-149364285D02*
X155878628Y-149459523D01*
X155878628Y-149459523D02*
X155878628Y-149840475D01*
X155354819Y-148935713D02*
X155354819Y-148316666D01*
X155354819Y-148316666D02*
X155735771Y-148649999D01*
X155735771Y-148649999D02*
X155735771Y-148507142D01*
X155735771Y-148507142D02*
X155783390Y-148411904D01*
X155783390Y-148411904D02*
X155831009Y-148364285D01*
X155831009Y-148364285D02*
X155926247Y-148316666D01*
X155926247Y-148316666D02*
X156164342Y-148316666D01*
X156164342Y-148316666D02*
X156259580Y-148364285D01*
X156259580Y-148364285D02*
X156307200Y-148411904D01*
X156307200Y-148411904D02*
X156354819Y-148507142D01*
X156354819Y-148507142D02*
X156354819Y-148792856D01*
X156354819Y-148792856D02*
X156307200Y-148888094D01*
X156307200Y-148888094D02*
X156259580Y-148935713D01*
X156354819Y-147364285D02*
X156354819Y-147935713D01*
X156354819Y-147649999D02*
X155354819Y-147649999D01*
X155354819Y-147649999D02*
X155497676Y-147745237D01*
X155497676Y-147745237D02*
X155592914Y-147840475D01*
X155592914Y-147840475D02*
X155640533Y-147935713D01*
X155450057Y-146983332D02*
X155402438Y-146935713D01*
X155402438Y-146935713D02*
X155354819Y-146840475D01*
X155354819Y-146840475D02*
X155354819Y-146602380D01*
X155354819Y-146602380D02*
X155402438Y-146507142D01*
X155402438Y-146507142D02*
X155450057Y-146459523D01*
X155450057Y-146459523D02*
X155545295Y-146411904D01*
X155545295Y-146411904D02*
X155640533Y-146411904D01*
X155640533Y-146411904D02*
X155783390Y-146459523D01*
X155783390Y-146459523D02*
X156354819Y-147030951D01*
X156354819Y-147030951D02*
X156354819Y-146411904D01*
X156930952Y-102809580D02*
X156883333Y-102857200D01*
X156883333Y-102857200D02*
X156740476Y-102904819D01*
X156740476Y-102904819D02*
X156645238Y-102904819D01*
X156645238Y-102904819D02*
X156502381Y-102857200D01*
X156502381Y-102857200D02*
X156407143Y-102761961D01*
X156407143Y-102761961D02*
X156359524Y-102666723D01*
X156359524Y-102666723D02*
X156311905Y-102476247D01*
X156311905Y-102476247D02*
X156311905Y-102333390D01*
X156311905Y-102333390D02*
X156359524Y-102142914D01*
X156359524Y-102142914D02*
X156407143Y-102047676D01*
X156407143Y-102047676D02*
X156502381Y-101952438D01*
X156502381Y-101952438D02*
X156645238Y-101904819D01*
X156645238Y-101904819D02*
X156740476Y-101904819D01*
X156740476Y-101904819D02*
X156883333Y-101952438D01*
X156883333Y-101952438D02*
X156930952Y-102000057D01*
X157264286Y-101904819D02*
X157883333Y-101904819D01*
X157883333Y-101904819D02*
X157550000Y-102285771D01*
X157550000Y-102285771D02*
X157692857Y-102285771D01*
X157692857Y-102285771D02*
X157788095Y-102333390D01*
X157788095Y-102333390D02*
X157835714Y-102381009D01*
X157835714Y-102381009D02*
X157883333Y-102476247D01*
X157883333Y-102476247D02*
X157883333Y-102714342D01*
X157883333Y-102714342D02*
X157835714Y-102809580D01*
X157835714Y-102809580D02*
X157788095Y-102857200D01*
X157788095Y-102857200D02*
X157692857Y-102904819D01*
X157692857Y-102904819D02*
X157407143Y-102904819D01*
X157407143Y-102904819D02*
X157311905Y-102857200D01*
X157311905Y-102857200D02*
X157264286Y-102809580D01*
X158502381Y-101904819D02*
X158597619Y-101904819D01*
X158597619Y-101904819D02*
X158692857Y-101952438D01*
X158692857Y-101952438D02*
X158740476Y-102000057D01*
X158740476Y-102000057D02*
X158788095Y-102095295D01*
X158788095Y-102095295D02*
X158835714Y-102285771D01*
X158835714Y-102285771D02*
X158835714Y-102523866D01*
X158835714Y-102523866D02*
X158788095Y-102714342D01*
X158788095Y-102714342D02*
X158740476Y-102809580D01*
X158740476Y-102809580D02*
X158692857Y-102857200D01*
X158692857Y-102857200D02*
X158597619Y-102904819D01*
X158597619Y-102904819D02*
X158502381Y-102904819D01*
X158502381Y-102904819D02*
X158407143Y-102857200D01*
X158407143Y-102857200D02*
X158359524Y-102809580D01*
X158359524Y-102809580D02*
X158311905Y-102714342D01*
X158311905Y-102714342D02*
X158264286Y-102523866D01*
X158264286Y-102523866D02*
X158264286Y-102285771D01*
X158264286Y-102285771D02*
X158311905Y-102095295D01*
X158311905Y-102095295D02*
X158359524Y-102000057D01*
X158359524Y-102000057D02*
X158407143Y-101952438D01*
X158407143Y-101952438D02*
X158502381Y-101904819D01*
X159788095Y-102904819D02*
X159216667Y-102904819D01*
X159502381Y-102904819D02*
X159502381Y-101904819D01*
X159502381Y-101904819D02*
X159407143Y-102047676D01*
X159407143Y-102047676D02*
X159311905Y-102142914D01*
X159311905Y-102142914D02*
X159216667Y-102190533D01*
X148980952Y-95729580D02*
X148933333Y-95777200D01*
X148933333Y-95777200D02*
X148790476Y-95824819D01*
X148790476Y-95824819D02*
X148695238Y-95824819D01*
X148695238Y-95824819D02*
X148552381Y-95777200D01*
X148552381Y-95777200D02*
X148457143Y-95681961D01*
X148457143Y-95681961D02*
X148409524Y-95586723D01*
X148409524Y-95586723D02*
X148361905Y-95396247D01*
X148361905Y-95396247D02*
X148361905Y-95253390D01*
X148361905Y-95253390D02*
X148409524Y-95062914D01*
X148409524Y-95062914D02*
X148457143Y-94967676D01*
X148457143Y-94967676D02*
X148552381Y-94872438D01*
X148552381Y-94872438D02*
X148695238Y-94824819D01*
X148695238Y-94824819D02*
X148790476Y-94824819D01*
X148790476Y-94824819D02*
X148933333Y-94872438D01*
X148933333Y-94872438D02*
X148980952Y-94920057D01*
X149314286Y-94824819D02*
X149933333Y-94824819D01*
X149933333Y-94824819D02*
X149600000Y-95205771D01*
X149600000Y-95205771D02*
X149742857Y-95205771D01*
X149742857Y-95205771D02*
X149838095Y-95253390D01*
X149838095Y-95253390D02*
X149885714Y-95301009D01*
X149885714Y-95301009D02*
X149933333Y-95396247D01*
X149933333Y-95396247D02*
X149933333Y-95634342D01*
X149933333Y-95634342D02*
X149885714Y-95729580D01*
X149885714Y-95729580D02*
X149838095Y-95777200D01*
X149838095Y-95777200D02*
X149742857Y-95824819D01*
X149742857Y-95824819D02*
X149457143Y-95824819D01*
X149457143Y-95824819D02*
X149361905Y-95777200D01*
X149361905Y-95777200D02*
X149314286Y-95729580D01*
X150552381Y-94824819D02*
X150647619Y-94824819D01*
X150647619Y-94824819D02*
X150742857Y-94872438D01*
X150742857Y-94872438D02*
X150790476Y-94920057D01*
X150790476Y-94920057D02*
X150838095Y-95015295D01*
X150838095Y-95015295D02*
X150885714Y-95205771D01*
X150885714Y-95205771D02*
X150885714Y-95443866D01*
X150885714Y-95443866D02*
X150838095Y-95634342D01*
X150838095Y-95634342D02*
X150790476Y-95729580D01*
X150790476Y-95729580D02*
X150742857Y-95777200D01*
X150742857Y-95777200D02*
X150647619Y-95824819D01*
X150647619Y-95824819D02*
X150552381Y-95824819D01*
X150552381Y-95824819D02*
X150457143Y-95777200D01*
X150457143Y-95777200D02*
X150409524Y-95729580D01*
X150409524Y-95729580D02*
X150361905Y-95634342D01*
X150361905Y-95634342D02*
X150314286Y-95443866D01*
X150314286Y-95443866D02*
X150314286Y-95205771D01*
X150314286Y-95205771D02*
X150361905Y-95015295D01*
X150361905Y-95015295D02*
X150409524Y-94920057D01*
X150409524Y-94920057D02*
X150457143Y-94872438D01*
X150457143Y-94872438D02*
X150552381Y-94824819D01*
X151219048Y-94824819D02*
X151838095Y-94824819D01*
X151838095Y-94824819D02*
X151504762Y-95205771D01*
X151504762Y-95205771D02*
X151647619Y-95205771D01*
X151647619Y-95205771D02*
X151742857Y-95253390D01*
X151742857Y-95253390D02*
X151790476Y-95301009D01*
X151790476Y-95301009D02*
X151838095Y-95396247D01*
X151838095Y-95396247D02*
X151838095Y-95634342D01*
X151838095Y-95634342D02*
X151790476Y-95729580D01*
X151790476Y-95729580D02*
X151742857Y-95777200D01*
X151742857Y-95777200D02*
X151647619Y-95824819D01*
X151647619Y-95824819D02*
X151361905Y-95824819D01*
X151361905Y-95824819D02*
X151266667Y-95777200D01*
X151266667Y-95777200D02*
X151219048Y-95729580D01*
X151180952Y-107759580D02*
X151133333Y-107807200D01*
X151133333Y-107807200D02*
X150990476Y-107854819D01*
X150990476Y-107854819D02*
X150895238Y-107854819D01*
X150895238Y-107854819D02*
X150752381Y-107807200D01*
X150752381Y-107807200D02*
X150657143Y-107711961D01*
X150657143Y-107711961D02*
X150609524Y-107616723D01*
X150609524Y-107616723D02*
X150561905Y-107426247D01*
X150561905Y-107426247D02*
X150561905Y-107283390D01*
X150561905Y-107283390D02*
X150609524Y-107092914D01*
X150609524Y-107092914D02*
X150657143Y-106997676D01*
X150657143Y-106997676D02*
X150752381Y-106902438D01*
X150752381Y-106902438D02*
X150895238Y-106854819D01*
X150895238Y-106854819D02*
X150990476Y-106854819D01*
X150990476Y-106854819D02*
X151133333Y-106902438D01*
X151133333Y-106902438D02*
X151180952Y-106950057D01*
X151514286Y-106854819D02*
X152133333Y-106854819D01*
X152133333Y-106854819D02*
X151800000Y-107235771D01*
X151800000Y-107235771D02*
X151942857Y-107235771D01*
X151942857Y-107235771D02*
X152038095Y-107283390D01*
X152038095Y-107283390D02*
X152085714Y-107331009D01*
X152085714Y-107331009D02*
X152133333Y-107426247D01*
X152133333Y-107426247D02*
X152133333Y-107664342D01*
X152133333Y-107664342D02*
X152085714Y-107759580D01*
X152085714Y-107759580D02*
X152038095Y-107807200D01*
X152038095Y-107807200D02*
X151942857Y-107854819D01*
X151942857Y-107854819D02*
X151657143Y-107854819D01*
X151657143Y-107854819D02*
X151561905Y-107807200D01*
X151561905Y-107807200D02*
X151514286Y-107759580D01*
X152752381Y-106854819D02*
X152847619Y-106854819D01*
X152847619Y-106854819D02*
X152942857Y-106902438D01*
X152942857Y-106902438D02*
X152990476Y-106950057D01*
X152990476Y-106950057D02*
X153038095Y-107045295D01*
X153038095Y-107045295D02*
X153085714Y-107235771D01*
X153085714Y-107235771D02*
X153085714Y-107473866D01*
X153085714Y-107473866D02*
X153038095Y-107664342D01*
X153038095Y-107664342D02*
X152990476Y-107759580D01*
X152990476Y-107759580D02*
X152942857Y-107807200D01*
X152942857Y-107807200D02*
X152847619Y-107854819D01*
X152847619Y-107854819D02*
X152752381Y-107854819D01*
X152752381Y-107854819D02*
X152657143Y-107807200D01*
X152657143Y-107807200D02*
X152609524Y-107759580D01*
X152609524Y-107759580D02*
X152561905Y-107664342D01*
X152561905Y-107664342D02*
X152514286Y-107473866D01*
X152514286Y-107473866D02*
X152514286Y-107235771D01*
X152514286Y-107235771D02*
X152561905Y-107045295D01*
X152561905Y-107045295D02*
X152609524Y-106950057D01*
X152609524Y-106950057D02*
X152657143Y-106902438D01*
X152657143Y-106902438D02*
X152752381Y-106854819D01*
X153990476Y-106854819D02*
X153514286Y-106854819D01*
X153514286Y-106854819D02*
X153466667Y-107331009D01*
X153466667Y-107331009D02*
X153514286Y-107283390D01*
X153514286Y-107283390D02*
X153609524Y-107235771D01*
X153609524Y-107235771D02*
X153847619Y-107235771D01*
X153847619Y-107235771D02*
X153942857Y-107283390D01*
X153942857Y-107283390D02*
X153990476Y-107331009D01*
X153990476Y-107331009D02*
X154038095Y-107426247D01*
X154038095Y-107426247D02*
X154038095Y-107664342D01*
X154038095Y-107664342D02*
X153990476Y-107759580D01*
X153990476Y-107759580D02*
X153942857Y-107807200D01*
X153942857Y-107807200D02*
X153847619Y-107854819D01*
X153847619Y-107854819D02*
X153609524Y-107854819D01*
X153609524Y-107854819D02*
X153514286Y-107807200D01*
X153514286Y-107807200D02*
X153466667Y-107759580D01*
X149259580Y-117919047D02*
X149307200Y-117966666D01*
X149307200Y-117966666D02*
X149354819Y-118109523D01*
X149354819Y-118109523D02*
X149354819Y-118204761D01*
X149354819Y-118204761D02*
X149307200Y-118347618D01*
X149307200Y-118347618D02*
X149211961Y-118442856D01*
X149211961Y-118442856D02*
X149116723Y-118490475D01*
X149116723Y-118490475D02*
X148926247Y-118538094D01*
X148926247Y-118538094D02*
X148783390Y-118538094D01*
X148783390Y-118538094D02*
X148592914Y-118490475D01*
X148592914Y-118490475D02*
X148497676Y-118442856D01*
X148497676Y-118442856D02*
X148402438Y-118347618D01*
X148402438Y-118347618D02*
X148354819Y-118204761D01*
X148354819Y-118204761D02*
X148354819Y-118109523D01*
X148354819Y-118109523D02*
X148402438Y-117966666D01*
X148402438Y-117966666D02*
X148450057Y-117919047D01*
X148354819Y-117585713D02*
X148354819Y-116966666D01*
X148354819Y-116966666D02*
X148735771Y-117299999D01*
X148735771Y-117299999D02*
X148735771Y-117157142D01*
X148735771Y-117157142D02*
X148783390Y-117061904D01*
X148783390Y-117061904D02*
X148831009Y-117014285D01*
X148831009Y-117014285D02*
X148926247Y-116966666D01*
X148926247Y-116966666D02*
X149164342Y-116966666D01*
X149164342Y-116966666D02*
X149259580Y-117014285D01*
X149259580Y-117014285D02*
X149307200Y-117061904D01*
X149307200Y-117061904D02*
X149354819Y-117157142D01*
X149354819Y-117157142D02*
X149354819Y-117442856D01*
X149354819Y-117442856D02*
X149307200Y-117538094D01*
X149307200Y-117538094D02*
X149259580Y-117585713D01*
X149354819Y-116014285D02*
X149354819Y-116585713D01*
X149354819Y-116299999D02*
X148354819Y-116299999D01*
X148354819Y-116299999D02*
X148497676Y-116395237D01*
X148497676Y-116395237D02*
X148592914Y-116490475D01*
X148592914Y-116490475D02*
X148640533Y-116585713D01*
X148354819Y-115157142D02*
X148354819Y-115347618D01*
X148354819Y-115347618D02*
X148402438Y-115442856D01*
X148402438Y-115442856D02*
X148450057Y-115490475D01*
X148450057Y-115490475D02*
X148592914Y-115585713D01*
X148592914Y-115585713D02*
X148783390Y-115633332D01*
X148783390Y-115633332D02*
X149164342Y-115633332D01*
X149164342Y-115633332D02*
X149259580Y-115585713D01*
X149259580Y-115585713D02*
X149307200Y-115538094D01*
X149307200Y-115538094D02*
X149354819Y-115442856D01*
X149354819Y-115442856D02*
X149354819Y-115252380D01*
X149354819Y-115252380D02*
X149307200Y-115157142D01*
X149307200Y-115157142D02*
X149259580Y-115109523D01*
X149259580Y-115109523D02*
X149164342Y-115061904D01*
X149164342Y-115061904D02*
X148926247Y-115061904D01*
X148926247Y-115061904D02*
X148831009Y-115109523D01*
X148831009Y-115109523D02*
X148783390Y-115157142D01*
X148783390Y-115157142D02*
X148735771Y-115252380D01*
X148735771Y-115252380D02*
X148735771Y-115442856D01*
X148735771Y-115442856D02*
X148783390Y-115538094D01*
X148783390Y-115538094D02*
X148831009Y-115585713D01*
X148831009Y-115585713D02*
X148926247Y-115633332D01*
X146054819Y-86564285D02*
X146864342Y-86564285D01*
X146864342Y-86564285D02*
X146959580Y-86516666D01*
X146959580Y-86516666D02*
X147007200Y-86469047D01*
X147007200Y-86469047D02*
X147054819Y-86373809D01*
X147054819Y-86373809D02*
X147054819Y-86183333D01*
X147054819Y-86183333D02*
X147007200Y-86088095D01*
X147007200Y-86088095D02*
X146959580Y-86040476D01*
X146959580Y-86040476D02*
X146864342Y-85992857D01*
X146864342Y-85992857D02*
X146054819Y-85992857D01*
X146150057Y-85564285D02*
X146102438Y-85516666D01*
X146102438Y-85516666D02*
X146054819Y-85421428D01*
X146054819Y-85421428D02*
X146054819Y-85183333D01*
X146054819Y-85183333D02*
X146102438Y-85088095D01*
X146102438Y-85088095D02*
X146150057Y-85040476D01*
X146150057Y-85040476D02*
X146245295Y-84992857D01*
X146245295Y-84992857D02*
X146340533Y-84992857D01*
X146340533Y-84992857D02*
X146483390Y-85040476D01*
X146483390Y-85040476D02*
X147054819Y-85611904D01*
X147054819Y-85611904D02*
X147054819Y-84992857D01*
X146054819Y-84373809D02*
X146054819Y-84278571D01*
X146054819Y-84278571D02*
X146102438Y-84183333D01*
X146102438Y-84183333D02*
X146150057Y-84135714D01*
X146150057Y-84135714D02*
X146245295Y-84088095D01*
X146245295Y-84088095D02*
X146435771Y-84040476D01*
X146435771Y-84040476D02*
X146673866Y-84040476D01*
X146673866Y-84040476D02*
X146864342Y-84088095D01*
X146864342Y-84088095D02*
X146959580Y-84135714D01*
X146959580Y-84135714D02*
X147007200Y-84183333D01*
X147007200Y-84183333D02*
X147054819Y-84278571D01*
X147054819Y-84278571D02*
X147054819Y-84373809D01*
X147054819Y-84373809D02*
X147007200Y-84469047D01*
X147007200Y-84469047D02*
X146959580Y-84516666D01*
X146959580Y-84516666D02*
X146864342Y-84564285D01*
X146864342Y-84564285D02*
X146673866Y-84611904D01*
X146673866Y-84611904D02*
X146435771Y-84611904D01*
X146435771Y-84611904D02*
X146245295Y-84564285D01*
X146245295Y-84564285D02*
X146150057Y-84516666D01*
X146150057Y-84516666D02*
X146102438Y-84469047D01*
X146102438Y-84469047D02*
X146054819Y-84373809D01*
X147054819Y-83088095D02*
X147054819Y-83659523D01*
X147054819Y-83373809D02*
X146054819Y-83373809D01*
X146054819Y-83373809D02*
X146197676Y-83469047D01*
X146197676Y-83469047D02*
X146292914Y-83564285D01*
X146292914Y-83564285D02*
X146340533Y-83659523D01*
X151314285Y-111931009D02*
X150980952Y-111931009D01*
X150980952Y-112454819D02*
X150980952Y-111454819D01*
X150980952Y-111454819D02*
X151457142Y-111454819D01*
X152171428Y-111931009D02*
X152314285Y-111978628D01*
X152314285Y-111978628D02*
X152361904Y-112026247D01*
X152361904Y-112026247D02*
X152409523Y-112121485D01*
X152409523Y-112121485D02*
X152409523Y-112264342D01*
X152409523Y-112264342D02*
X152361904Y-112359580D01*
X152361904Y-112359580D02*
X152314285Y-112407200D01*
X152314285Y-112407200D02*
X152219047Y-112454819D01*
X152219047Y-112454819D02*
X151838095Y-112454819D01*
X151838095Y-112454819D02*
X151838095Y-111454819D01*
X151838095Y-111454819D02*
X152171428Y-111454819D01*
X152171428Y-111454819D02*
X152266666Y-111502438D01*
X152266666Y-111502438D02*
X152314285Y-111550057D01*
X152314285Y-111550057D02*
X152361904Y-111645295D01*
X152361904Y-111645295D02*
X152361904Y-111740533D01*
X152361904Y-111740533D02*
X152314285Y-111835771D01*
X152314285Y-111835771D02*
X152266666Y-111883390D01*
X152266666Y-111883390D02*
X152171428Y-111931009D01*
X152171428Y-111931009D02*
X151838095Y-111931009D01*
X152742857Y-111454819D02*
X153361904Y-111454819D01*
X153361904Y-111454819D02*
X153028571Y-111835771D01*
X153028571Y-111835771D02*
X153171428Y-111835771D01*
X153171428Y-111835771D02*
X153266666Y-111883390D01*
X153266666Y-111883390D02*
X153314285Y-111931009D01*
X153314285Y-111931009D02*
X153361904Y-112026247D01*
X153361904Y-112026247D02*
X153361904Y-112264342D01*
X153361904Y-112264342D02*
X153314285Y-112359580D01*
X153314285Y-112359580D02*
X153266666Y-112407200D01*
X153266666Y-112407200D02*
X153171428Y-112454819D01*
X153171428Y-112454819D02*
X152885714Y-112454819D01*
X152885714Y-112454819D02*
X152790476Y-112407200D01*
X152790476Y-112407200D02*
X152742857Y-112359580D01*
X153980952Y-111454819D02*
X154076190Y-111454819D01*
X154076190Y-111454819D02*
X154171428Y-111502438D01*
X154171428Y-111502438D02*
X154219047Y-111550057D01*
X154219047Y-111550057D02*
X154266666Y-111645295D01*
X154266666Y-111645295D02*
X154314285Y-111835771D01*
X154314285Y-111835771D02*
X154314285Y-112073866D01*
X154314285Y-112073866D02*
X154266666Y-112264342D01*
X154266666Y-112264342D02*
X154219047Y-112359580D01*
X154219047Y-112359580D02*
X154171428Y-112407200D01*
X154171428Y-112407200D02*
X154076190Y-112454819D01*
X154076190Y-112454819D02*
X153980952Y-112454819D01*
X153980952Y-112454819D02*
X153885714Y-112407200D01*
X153885714Y-112407200D02*
X153838095Y-112359580D01*
X153838095Y-112359580D02*
X153790476Y-112264342D01*
X153790476Y-112264342D02*
X153742857Y-112073866D01*
X153742857Y-112073866D02*
X153742857Y-111835771D01*
X153742857Y-111835771D02*
X153790476Y-111645295D01*
X153790476Y-111645295D02*
X153838095Y-111550057D01*
X153838095Y-111550057D02*
X153885714Y-111502438D01*
X153885714Y-111502438D02*
X153980952Y-111454819D01*
X155266666Y-112454819D02*
X154695238Y-112454819D01*
X154980952Y-112454819D02*
X154980952Y-111454819D01*
X154980952Y-111454819D02*
X154885714Y-111597676D01*
X154885714Y-111597676D02*
X154790476Y-111692914D01*
X154790476Y-111692914D02*
X154695238Y-111740533D01*
X150684819Y-112719047D02*
X150208628Y-113052380D01*
X150684819Y-113290475D02*
X149684819Y-113290475D01*
X149684819Y-113290475D02*
X149684819Y-112909523D01*
X149684819Y-112909523D02*
X149732438Y-112814285D01*
X149732438Y-112814285D02*
X149780057Y-112766666D01*
X149780057Y-112766666D02*
X149875295Y-112719047D01*
X149875295Y-112719047D02*
X150018152Y-112719047D01*
X150018152Y-112719047D02*
X150113390Y-112766666D01*
X150113390Y-112766666D02*
X150161009Y-112814285D01*
X150161009Y-112814285D02*
X150208628Y-112909523D01*
X150208628Y-112909523D02*
X150208628Y-113290475D01*
X149684819Y-112385713D02*
X149684819Y-111766666D01*
X149684819Y-111766666D02*
X150065771Y-112099999D01*
X150065771Y-112099999D02*
X150065771Y-111957142D01*
X150065771Y-111957142D02*
X150113390Y-111861904D01*
X150113390Y-111861904D02*
X150161009Y-111814285D01*
X150161009Y-111814285D02*
X150256247Y-111766666D01*
X150256247Y-111766666D02*
X150494342Y-111766666D01*
X150494342Y-111766666D02*
X150589580Y-111814285D01*
X150589580Y-111814285D02*
X150637200Y-111861904D01*
X150637200Y-111861904D02*
X150684819Y-111957142D01*
X150684819Y-111957142D02*
X150684819Y-112242856D01*
X150684819Y-112242856D02*
X150637200Y-112338094D01*
X150637200Y-112338094D02*
X150589580Y-112385713D01*
X150684819Y-110814285D02*
X150684819Y-111385713D01*
X150684819Y-111099999D02*
X149684819Y-111099999D01*
X149684819Y-111099999D02*
X149827676Y-111195237D01*
X149827676Y-111195237D02*
X149922914Y-111290475D01*
X149922914Y-111290475D02*
X149970533Y-111385713D01*
X149684819Y-109957142D02*
X149684819Y-110147618D01*
X149684819Y-110147618D02*
X149732438Y-110242856D01*
X149732438Y-110242856D02*
X149780057Y-110290475D01*
X149780057Y-110290475D02*
X149922914Y-110385713D01*
X149922914Y-110385713D02*
X150113390Y-110433332D01*
X150113390Y-110433332D02*
X150494342Y-110433332D01*
X150494342Y-110433332D02*
X150589580Y-110385713D01*
X150589580Y-110385713D02*
X150637200Y-110338094D01*
X150637200Y-110338094D02*
X150684819Y-110242856D01*
X150684819Y-110242856D02*
X150684819Y-110052380D01*
X150684819Y-110052380D02*
X150637200Y-109957142D01*
X150637200Y-109957142D02*
X150589580Y-109909523D01*
X150589580Y-109909523D02*
X150494342Y-109861904D01*
X150494342Y-109861904D02*
X150256247Y-109861904D01*
X150256247Y-109861904D02*
X150161009Y-109909523D01*
X150161009Y-109909523D02*
X150113390Y-109957142D01*
X150113390Y-109957142D02*
X150065771Y-110052380D01*
X150065771Y-110052380D02*
X150065771Y-110242856D01*
X150065771Y-110242856D02*
X150113390Y-110338094D01*
X150113390Y-110338094D02*
X150161009Y-110385713D01*
X150161009Y-110385713D02*
X150256247Y-110433332D01*
X151229580Y-93294047D02*
X151277200Y-93341666D01*
X151277200Y-93341666D02*
X151324819Y-93484523D01*
X151324819Y-93484523D02*
X151324819Y-93579761D01*
X151324819Y-93579761D02*
X151277200Y-93722618D01*
X151277200Y-93722618D02*
X151181961Y-93817856D01*
X151181961Y-93817856D02*
X151086723Y-93865475D01*
X151086723Y-93865475D02*
X150896247Y-93913094D01*
X150896247Y-93913094D02*
X150753390Y-93913094D01*
X150753390Y-93913094D02*
X150562914Y-93865475D01*
X150562914Y-93865475D02*
X150467676Y-93817856D01*
X150467676Y-93817856D02*
X150372438Y-93722618D01*
X150372438Y-93722618D02*
X150324819Y-93579761D01*
X150324819Y-93579761D02*
X150324819Y-93484523D01*
X150324819Y-93484523D02*
X150372438Y-93341666D01*
X150372438Y-93341666D02*
X150420057Y-93294047D01*
X150324819Y-92960713D02*
X150324819Y-92341666D01*
X150324819Y-92341666D02*
X150705771Y-92674999D01*
X150705771Y-92674999D02*
X150705771Y-92532142D01*
X150705771Y-92532142D02*
X150753390Y-92436904D01*
X150753390Y-92436904D02*
X150801009Y-92389285D01*
X150801009Y-92389285D02*
X150896247Y-92341666D01*
X150896247Y-92341666D02*
X151134342Y-92341666D01*
X151134342Y-92341666D02*
X151229580Y-92389285D01*
X151229580Y-92389285D02*
X151277200Y-92436904D01*
X151277200Y-92436904D02*
X151324819Y-92532142D01*
X151324819Y-92532142D02*
X151324819Y-92817856D01*
X151324819Y-92817856D02*
X151277200Y-92913094D01*
X151277200Y-92913094D02*
X151229580Y-92960713D01*
X151324819Y-91389285D02*
X151324819Y-91960713D01*
X151324819Y-91674999D02*
X150324819Y-91674999D01*
X150324819Y-91674999D02*
X150467676Y-91770237D01*
X150467676Y-91770237D02*
X150562914Y-91865475D01*
X150562914Y-91865475D02*
X150610533Y-91960713D01*
X150658152Y-90532142D02*
X151324819Y-90532142D01*
X150277200Y-90770237D02*
X150991485Y-91008332D01*
X150991485Y-91008332D02*
X150991485Y-90389285D01*
X145759580Y-86519047D02*
X145807200Y-86566666D01*
X145807200Y-86566666D02*
X145854819Y-86709523D01*
X145854819Y-86709523D02*
X145854819Y-86804761D01*
X145854819Y-86804761D02*
X145807200Y-86947618D01*
X145807200Y-86947618D02*
X145711961Y-87042856D01*
X145711961Y-87042856D02*
X145616723Y-87090475D01*
X145616723Y-87090475D02*
X145426247Y-87138094D01*
X145426247Y-87138094D02*
X145283390Y-87138094D01*
X145283390Y-87138094D02*
X145092914Y-87090475D01*
X145092914Y-87090475D02*
X144997676Y-87042856D01*
X144997676Y-87042856D02*
X144902438Y-86947618D01*
X144902438Y-86947618D02*
X144854819Y-86804761D01*
X144854819Y-86804761D02*
X144854819Y-86709523D01*
X144854819Y-86709523D02*
X144902438Y-86566666D01*
X144902438Y-86566666D02*
X144950057Y-86519047D01*
X144950057Y-86138094D02*
X144902438Y-86090475D01*
X144902438Y-86090475D02*
X144854819Y-85995237D01*
X144854819Y-85995237D02*
X144854819Y-85757142D01*
X144854819Y-85757142D02*
X144902438Y-85661904D01*
X144902438Y-85661904D02*
X144950057Y-85614285D01*
X144950057Y-85614285D02*
X145045295Y-85566666D01*
X145045295Y-85566666D02*
X145140533Y-85566666D01*
X145140533Y-85566666D02*
X145283390Y-85614285D01*
X145283390Y-85614285D02*
X145854819Y-86185713D01*
X145854819Y-86185713D02*
X145854819Y-85566666D01*
X144854819Y-84947618D02*
X144854819Y-84852380D01*
X144854819Y-84852380D02*
X144902438Y-84757142D01*
X144902438Y-84757142D02*
X144950057Y-84709523D01*
X144950057Y-84709523D02*
X145045295Y-84661904D01*
X145045295Y-84661904D02*
X145235771Y-84614285D01*
X145235771Y-84614285D02*
X145473866Y-84614285D01*
X145473866Y-84614285D02*
X145664342Y-84661904D01*
X145664342Y-84661904D02*
X145759580Y-84709523D01*
X145759580Y-84709523D02*
X145807200Y-84757142D01*
X145807200Y-84757142D02*
X145854819Y-84852380D01*
X145854819Y-84852380D02*
X145854819Y-84947618D01*
X145854819Y-84947618D02*
X145807200Y-85042856D01*
X145807200Y-85042856D02*
X145759580Y-85090475D01*
X145759580Y-85090475D02*
X145664342Y-85138094D01*
X145664342Y-85138094D02*
X145473866Y-85185713D01*
X145473866Y-85185713D02*
X145235771Y-85185713D01*
X145235771Y-85185713D02*
X145045295Y-85138094D01*
X145045295Y-85138094D02*
X144950057Y-85090475D01*
X144950057Y-85090475D02*
X144902438Y-85042856D01*
X144902438Y-85042856D02*
X144854819Y-84947618D01*
X144950057Y-84233332D02*
X144902438Y-84185713D01*
X144902438Y-84185713D02*
X144854819Y-84090475D01*
X144854819Y-84090475D02*
X144854819Y-83852380D01*
X144854819Y-83852380D02*
X144902438Y-83757142D01*
X144902438Y-83757142D02*
X144950057Y-83709523D01*
X144950057Y-83709523D02*
X145045295Y-83661904D01*
X145045295Y-83661904D02*
X145140533Y-83661904D01*
X145140533Y-83661904D02*
X145283390Y-83709523D01*
X145283390Y-83709523D02*
X145854819Y-84280951D01*
X145854819Y-84280951D02*
X145854819Y-83661904D01*
X156855952Y-99159580D02*
X156808333Y-99207200D01*
X156808333Y-99207200D02*
X156665476Y-99254819D01*
X156665476Y-99254819D02*
X156570238Y-99254819D01*
X156570238Y-99254819D02*
X156427381Y-99207200D01*
X156427381Y-99207200D02*
X156332143Y-99111961D01*
X156332143Y-99111961D02*
X156284524Y-99016723D01*
X156284524Y-99016723D02*
X156236905Y-98826247D01*
X156236905Y-98826247D02*
X156236905Y-98683390D01*
X156236905Y-98683390D02*
X156284524Y-98492914D01*
X156284524Y-98492914D02*
X156332143Y-98397676D01*
X156332143Y-98397676D02*
X156427381Y-98302438D01*
X156427381Y-98302438D02*
X156570238Y-98254819D01*
X156570238Y-98254819D02*
X156665476Y-98254819D01*
X156665476Y-98254819D02*
X156808333Y-98302438D01*
X156808333Y-98302438D02*
X156855952Y-98350057D01*
X157189286Y-98254819D02*
X157808333Y-98254819D01*
X157808333Y-98254819D02*
X157475000Y-98635771D01*
X157475000Y-98635771D02*
X157617857Y-98635771D01*
X157617857Y-98635771D02*
X157713095Y-98683390D01*
X157713095Y-98683390D02*
X157760714Y-98731009D01*
X157760714Y-98731009D02*
X157808333Y-98826247D01*
X157808333Y-98826247D02*
X157808333Y-99064342D01*
X157808333Y-99064342D02*
X157760714Y-99159580D01*
X157760714Y-99159580D02*
X157713095Y-99207200D01*
X157713095Y-99207200D02*
X157617857Y-99254819D01*
X157617857Y-99254819D02*
X157332143Y-99254819D01*
X157332143Y-99254819D02*
X157236905Y-99207200D01*
X157236905Y-99207200D02*
X157189286Y-99159580D01*
X158427381Y-98254819D02*
X158522619Y-98254819D01*
X158522619Y-98254819D02*
X158617857Y-98302438D01*
X158617857Y-98302438D02*
X158665476Y-98350057D01*
X158665476Y-98350057D02*
X158713095Y-98445295D01*
X158713095Y-98445295D02*
X158760714Y-98635771D01*
X158760714Y-98635771D02*
X158760714Y-98873866D01*
X158760714Y-98873866D02*
X158713095Y-99064342D01*
X158713095Y-99064342D02*
X158665476Y-99159580D01*
X158665476Y-99159580D02*
X158617857Y-99207200D01*
X158617857Y-99207200D02*
X158522619Y-99254819D01*
X158522619Y-99254819D02*
X158427381Y-99254819D01*
X158427381Y-99254819D02*
X158332143Y-99207200D01*
X158332143Y-99207200D02*
X158284524Y-99159580D01*
X158284524Y-99159580D02*
X158236905Y-99064342D01*
X158236905Y-99064342D02*
X158189286Y-98873866D01*
X158189286Y-98873866D02*
X158189286Y-98635771D01*
X158189286Y-98635771D02*
X158236905Y-98445295D01*
X158236905Y-98445295D02*
X158284524Y-98350057D01*
X158284524Y-98350057D02*
X158332143Y-98302438D01*
X158332143Y-98302438D02*
X158427381Y-98254819D01*
X159094048Y-98254819D02*
X159760714Y-98254819D01*
X159760714Y-98254819D02*
X159332143Y-99254819D01*
X153709580Y-87819047D02*
X153757200Y-87866666D01*
X153757200Y-87866666D02*
X153804819Y-88009523D01*
X153804819Y-88009523D02*
X153804819Y-88104761D01*
X153804819Y-88104761D02*
X153757200Y-88247618D01*
X153757200Y-88247618D02*
X153661961Y-88342856D01*
X153661961Y-88342856D02*
X153566723Y-88390475D01*
X153566723Y-88390475D02*
X153376247Y-88438094D01*
X153376247Y-88438094D02*
X153233390Y-88438094D01*
X153233390Y-88438094D02*
X153042914Y-88390475D01*
X153042914Y-88390475D02*
X152947676Y-88342856D01*
X152947676Y-88342856D02*
X152852438Y-88247618D01*
X152852438Y-88247618D02*
X152804819Y-88104761D01*
X152804819Y-88104761D02*
X152804819Y-88009523D01*
X152804819Y-88009523D02*
X152852438Y-87866666D01*
X152852438Y-87866666D02*
X152900057Y-87819047D01*
X152900057Y-87438094D02*
X152852438Y-87390475D01*
X152852438Y-87390475D02*
X152804819Y-87295237D01*
X152804819Y-87295237D02*
X152804819Y-87057142D01*
X152804819Y-87057142D02*
X152852438Y-86961904D01*
X152852438Y-86961904D02*
X152900057Y-86914285D01*
X152900057Y-86914285D02*
X152995295Y-86866666D01*
X152995295Y-86866666D02*
X153090533Y-86866666D01*
X153090533Y-86866666D02*
X153233390Y-86914285D01*
X153233390Y-86914285D02*
X153804819Y-87485713D01*
X153804819Y-87485713D02*
X153804819Y-86866666D01*
X152804819Y-86247618D02*
X152804819Y-86152380D01*
X152804819Y-86152380D02*
X152852438Y-86057142D01*
X152852438Y-86057142D02*
X152900057Y-86009523D01*
X152900057Y-86009523D02*
X152995295Y-85961904D01*
X152995295Y-85961904D02*
X153185771Y-85914285D01*
X153185771Y-85914285D02*
X153423866Y-85914285D01*
X153423866Y-85914285D02*
X153614342Y-85961904D01*
X153614342Y-85961904D02*
X153709580Y-86009523D01*
X153709580Y-86009523D02*
X153757200Y-86057142D01*
X153757200Y-86057142D02*
X153804819Y-86152380D01*
X153804819Y-86152380D02*
X153804819Y-86247618D01*
X153804819Y-86247618D02*
X153757200Y-86342856D01*
X153757200Y-86342856D02*
X153709580Y-86390475D01*
X153709580Y-86390475D02*
X153614342Y-86438094D01*
X153614342Y-86438094D02*
X153423866Y-86485713D01*
X153423866Y-86485713D02*
X153185771Y-86485713D01*
X153185771Y-86485713D02*
X152995295Y-86438094D01*
X152995295Y-86438094D02*
X152900057Y-86390475D01*
X152900057Y-86390475D02*
X152852438Y-86342856D01*
X152852438Y-86342856D02*
X152804819Y-86247618D01*
X152804819Y-85009523D02*
X152804819Y-85485713D01*
X152804819Y-85485713D02*
X153281009Y-85533332D01*
X153281009Y-85533332D02*
X153233390Y-85485713D01*
X153233390Y-85485713D02*
X153185771Y-85390475D01*
X153185771Y-85390475D02*
X153185771Y-85152380D01*
X153185771Y-85152380D02*
X153233390Y-85057142D01*
X153233390Y-85057142D02*
X153281009Y-85009523D01*
X153281009Y-85009523D02*
X153376247Y-84961904D01*
X153376247Y-84961904D02*
X153614342Y-84961904D01*
X153614342Y-84961904D02*
X153709580Y-85009523D01*
X153709580Y-85009523D02*
X153757200Y-85057142D01*
X153757200Y-85057142D02*
X153804819Y-85152380D01*
X153804819Y-85152380D02*
X153804819Y-85390475D01*
X153804819Y-85390475D02*
X153757200Y-85485713D01*
X153757200Y-85485713D02*
X153709580Y-85533332D01*
X141714285Y-62299819D02*
X141714285Y-63014104D01*
X141714285Y-63014104D02*
X141666666Y-63156961D01*
X141666666Y-63156961D02*
X141571428Y-63252200D01*
X141571428Y-63252200D02*
X141428571Y-63299819D01*
X141428571Y-63299819D02*
X141333333Y-63299819D01*
X142714285Y-63299819D02*
X142142857Y-63299819D01*
X142428571Y-63299819D02*
X142428571Y-62299819D01*
X142428571Y-62299819D02*
X142333333Y-62442676D01*
X142333333Y-62442676D02*
X142238095Y-62537914D01*
X142238095Y-62537914D02*
X142142857Y-62585533D01*
X143333333Y-62299819D02*
X143428571Y-62299819D01*
X143428571Y-62299819D02*
X143523809Y-62347438D01*
X143523809Y-62347438D02*
X143571428Y-62395057D01*
X143571428Y-62395057D02*
X143619047Y-62490295D01*
X143619047Y-62490295D02*
X143666666Y-62680771D01*
X143666666Y-62680771D02*
X143666666Y-62918866D01*
X143666666Y-62918866D02*
X143619047Y-63109342D01*
X143619047Y-63109342D02*
X143571428Y-63204580D01*
X143571428Y-63204580D02*
X143523809Y-63252200D01*
X143523809Y-63252200D02*
X143428571Y-63299819D01*
X143428571Y-63299819D02*
X143333333Y-63299819D01*
X143333333Y-63299819D02*
X143238095Y-63252200D01*
X143238095Y-63252200D02*
X143190476Y-63204580D01*
X143190476Y-63204580D02*
X143142857Y-63109342D01*
X143142857Y-63109342D02*
X143095238Y-62918866D01*
X143095238Y-62918866D02*
X143095238Y-62680771D01*
X143095238Y-62680771D02*
X143142857Y-62490295D01*
X143142857Y-62490295D02*
X143190476Y-62395057D01*
X143190476Y-62395057D02*
X143238095Y-62347438D01*
X143238095Y-62347438D02*
X143333333Y-62299819D01*
X144619047Y-63299819D02*
X144047619Y-63299819D01*
X144333333Y-63299819D02*
X144333333Y-62299819D01*
X144333333Y-62299819D02*
X144238095Y-62442676D01*
X144238095Y-62442676D02*
X144142857Y-62537914D01*
X144142857Y-62537914D02*
X144047619Y-62585533D01*
X143159580Y-114544047D02*
X143207200Y-114591666D01*
X143207200Y-114591666D02*
X143254819Y-114734523D01*
X143254819Y-114734523D02*
X143254819Y-114829761D01*
X143254819Y-114829761D02*
X143207200Y-114972618D01*
X143207200Y-114972618D02*
X143111961Y-115067856D01*
X143111961Y-115067856D02*
X143016723Y-115115475D01*
X143016723Y-115115475D02*
X142826247Y-115163094D01*
X142826247Y-115163094D02*
X142683390Y-115163094D01*
X142683390Y-115163094D02*
X142492914Y-115115475D01*
X142492914Y-115115475D02*
X142397676Y-115067856D01*
X142397676Y-115067856D02*
X142302438Y-114972618D01*
X142302438Y-114972618D02*
X142254819Y-114829761D01*
X142254819Y-114829761D02*
X142254819Y-114734523D01*
X142254819Y-114734523D02*
X142302438Y-114591666D01*
X142302438Y-114591666D02*
X142350057Y-114544047D01*
X142254819Y-114210713D02*
X142254819Y-113591666D01*
X142254819Y-113591666D02*
X142635771Y-113924999D01*
X142635771Y-113924999D02*
X142635771Y-113782142D01*
X142635771Y-113782142D02*
X142683390Y-113686904D01*
X142683390Y-113686904D02*
X142731009Y-113639285D01*
X142731009Y-113639285D02*
X142826247Y-113591666D01*
X142826247Y-113591666D02*
X143064342Y-113591666D01*
X143064342Y-113591666D02*
X143159580Y-113639285D01*
X143159580Y-113639285D02*
X143207200Y-113686904D01*
X143207200Y-113686904D02*
X143254819Y-113782142D01*
X143254819Y-113782142D02*
X143254819Y-114067856D01*
X143254819Y-114067856D02*
X143207200Y-114163094D01*
X143207200Y-114163094D02*
X143159580Y-114210713D01*
X143254819Y-112639285D02*
X143254819Y-113210713D01*
X143254819Y-112924999D02*
X142254819Y-112924999D01*
X142254819Y-112924999D02*
X142397676Y-113020237D01*
X142397676Y-113020237D02*
X142492914Y-113115475D01*
X142492914Y-113115475D02*
X142540533Y-113210713D01*
X142254819Y-112305951D02*
X142254819Y-111639285D01*
X142254819Y-111639285D02*
X143254819Y-112067856D01*
X144471428Y-115778628D02*
X144471428Y-116254819D01*
X144138095Y-115254819D02*
X144471428Y-115778628D01*
X144471428Y-115778628D02*
X144804761Y-115254819D01*
X145042857Y-115254819D02*
X145661904Y-115254819D01*
X145661904Y-115254819D02*
X145328571Y-115635771D01*
X145328571Y-115635771D02*
X145471428Y-115635771D01*
X145471428Y-115635771D02*
X145566666Y-115683390D01*
X145566666Y-115683390D02*
X145614285Y-115731009D01*
X145614285Y-115731009D02*
X145661904Y-115826247D01*
X145661904Y-115826247D02*
X145661904Y-116064342D01*
X145661904Y-116064342D02*
X145614285Y-116159580D01*
X145614285Y-116159580D02*
X145566666Y-116207200D01*
X145566666Y-116207200D02*
X145471428Y-116254819D01*
X145471428Y-116254819D02*
X145185714Y-116254819D01*
X145185714Y-116254819D02*
X145090476Y-116207200D01*
X145090476Y-116207200D02*
X145042857Y-116159580D01*
X146280952Y-115254819D02*
X146376190Y-115254819D01*
X146376190Y-115254819D02*
X146471428Y-115302438D01*
X146471428Y-115302438D02*
X146519047Y-115350057D01*
X146519047Y-115350057D02*
X146566666Y-115445295D01*
X146566666Y-115445295D02*
X146614285Y-115635771D01*
X146614285Y-115635771D02*
X146614285Y-115873866D01*
X146614285Y-115873866D02*
X146566666Y-116064342D01*
X146566666Y-116064342D02*
X146519047Y-116159580D01*
X146519047Y-116159580D02*
X146471428Y-116207200D01*
X146471428Y-116207200D02*
X146376190Y-116254819D01*
X146376190Y-116254819D02*
X146280952Y-116254819D01*
X146280952Y-116254819D02*
X146185714Y-116207200D01*
X146185714Y-116207200D02*
X146138095Y-116159580D01*
X146138095Y-116159580D02*
X146090476Y-116064342D01*
X146090476Y-116064342D02*
X146042857Y-115873866D01*
X146042857Y-115873866D02*
X146042857Y-115635771D01*
X146042857Y-115635771D02*
X146090476Y-115445295D01*
X146090476Y-115445295D02*
X146138095Y-115350057D01*
X146138095Y-115350057D02*
X146185714Y-115302438D01*
X146185714Y-115302438D02*
X146280952Y-115254819D01*
X146995238Y-115350057D02*
X147042857Y-115302438D01*
X147042857Y-115302438D02*
X147138095Y-115254819D01*
X147138095Y-115254819D02*
X147376190Y-115254819D01*
X147376190Y-115254819D02*
X147471428Y-115302438D01*
X147471428Y-115302438D02*
X147519047Y-115350057D01*
X147519047Y-115350057D02*
X147566666Y-115445295D01*
X147566666Y-115445295D02*
X147566666Y-115540533D01*
X147566666Y-115540533D02*
X147519047Y-115683390D01*
X147519047Y-115683390D02*
X146947619Y-116254819D01*
X146947619Y-116254819D02*
X147566666Y-116254819D01*
X152485714Y-72754819D02*
X152485714Y-73564342D01*
X152485714Y-73564342D02*
X152533333Y-73659580D01*
X152533333Y-73659580D02*
X152580952Y-73707200D01*
X152580952Y-73707200D02*
X152676190Y-73754819D01*
X152676190Y-73754819D02*
X152866666Y-73754819D01*
X152866666Y-73754819D02*
X152961904Y-73707200D01*
X152961904Y-73707200D02*
X153009523Y-73659580D01*
X153009523Y-73659580D02*
X153057142Y-73564342D01*
X153057142Y-73564342D02*
X153057142Y-72754819D01*
X153438095Y-72754819D02*
X154057142Y-72754819D01*
X154057142Y-72754819D02*
X153723809Y-73135771D01*
X153723809Y-73135771D02*
X153866666Y-73135771D01*
X153866666Y-73135771D02*
X153961904Y-73183390D01*
X153961904Y-73183390D02*
X154009523Y-73231009D01*
X154009523Y-73231009D02*
X154057142Y-73326247D01*
X154057142Y-73326247D02*
X154057142Y-73564342D01*
X154057142Y-73564342D02*
X154009523Y-73659580D01*
X154009523Y-73659580D02*
X153961904Y-73707200D01*
X153961904Y-73707200D02*
X153866666Y-73754819D01*
X153866666Y-73754819D02*
X153580952Y-73754819D01*
X153580952Y-73754819D02*
X153485714Y-73707200D01*
X153485714Y-73707200D02*
X153438095Y-73659580D01*
X154676190Y-72754819D02*
X154771428Y-72754819D01*
X154771428Y-72754819D02*
X154866666Y-72802438D01*
X154866666Y-72802438D02*
X154914285Y-72850057D01*
X154914285Y-72850057D02*
X154961904Y-72945295D01*
X154961904Y-72945295D02*
X155009523Y-73135771D01*
X155009523Y-73135771D02*
X155009523Y-73373866D01*
X155009523Y-73373866D02*
X154961904Y-73564342D01*
X154961904Y-73564342D02*
X154914285Y-73659580D01*
X154914285Y-73659580D02*
X154866666Y-73707200D01*
X154866666Y-73707200D02*
X154771428Y-73754819D01*
X154771428Y-73754819D02*
X154676190Y-73754819D01*
X154676190Y-73754819D02*
X154580952Y-73707200D01*
X154580952Y-73707200D02*
X154533333Y-73659580D01*
X154533333Y-73659580D02*
X154485714Y-73564342D01*
X154485714Y-73564342D02*
X154438095Y-73373866D01*
X154438095Y-73373866D02*
X154438095Y-73135771D01*
X154438095Y-73135771D02*
X154485714Y-72945295D01*
X154485714Y-72945295D02*
X154533333Y-72850057D01*
X154533333Y-72850057D02*
X154580952Y-72802438D01*
X154580952Y-72802438D02*
X154676190Y-72754819D01*
X155961904Y-73754819D02*
X155390476Y-73754819D01*
X155676190Y-73754819D02*
X155676190Y-72754819D01*
X155676190Y-72754819D02*
X155580952Y-72897676D01*
X155580952Y-72897676D02*
X155485714Y-72992914D01*
X155485714Y-72992914D02*
X155390476Y-73040533D01*
X156855952Y-97409580D02*
X156808333Y-97457200D01*
X156808333Y-97457200D02*
X156665476Y-97504819D01*
X156665476Y-97504819D02*
X156570238Y-97504819D01*
X156570238Y-97504819D02*
X156427381Y-97457200D01*
X156427381Y-97457200D02*
X156332143Y-97361961D01*
X156332143Y-97361961D02*
X156284524Y-97266723D01*
X156284524Y-97266723D02*
X156236905Y-97076247D01*
X156236905Y-97076247D02*
X156236905Y-96933390D01*
X156236905Y-96933390D02*
X156284524Y-96742914D01*
X156284524Y-96742914D02*
X156332143Y-96647676D01*
X156332143Y-96647676D02*
X156427381Y-96552438D01*
X156427381Y-96552438D02*
X156570238Y-96504819D01*
X156570238Y-96504819D02*
X156665476Y-96504819D01*
X156665476Y-96504819D02*
X156808333Y-96552438D01*
X156808333Y-96552438D02*
X156855952Y-96600057D01*
X157189286Y-96504819D02*
X157808333Y-96504819D01*
X157808333Y-96504819D02*
X157475000Y-96885771D01*
X157475000Y-96885771D02*
X157617857Y-96885771D01*
X157617857Y-96885771D02*
X157713095Y-96933390D01*
X157713095Y-96933390D02*
X157760714Y-96981009D01*
X157760714Y-96981009D02*
X157808333Y-97076247D01*
X157808333Y-97076247D02*
X157808333Y-97314342D01*
X157808333Y-97314342D02*
X157760714Y-97409580D01*
X157760714Y-97409580D02*
X157713095Y-97457200D01*
X157713095Y-97457200D02*
X157617857Y-97504819D01*
X157617857Y-97504819D02*
X157332143Y-97504819D01*
X157332143Y-97504819D02*
X157236905Y-97457200D01*
X157236905Y-97457200D02*
X157189286Y-97409580D01*
X158427381Y-96504819D02*
X158522619Y-96504819D01*
X158522619Y-96504819D02*
X158617857Y-96552438D01*
X158617857Y-96552438D02*
X158665476Y-96600057D01*
X158665476Y-96600057D02*
X158713095Y-96695295D01*
X158713095Y-96695295D02*
X158760714Y-96885771D01*
X158760714Y-96885771D02*
X158760714Y-97123866D01*
X158760714Y-97123866D02*
X158713095Y-97314342D01*
X158713095Y-97314342D02*
X158665476Y-97409580D01*
X158665476Y-97409580D02*
X158617857Y-97457200D01*
X158617857Y-97457200D02*
X158522619Y-97504819D01*
X158522619Y-97504819D02*
X158427381Y-97504819D01*
X158427381Y-97504819D02*
X158332143Y-97457200D01*
X158332143Y-97457200D02*
X158284524Y-97409580D01*
X158284524Y-97409580D02*
X158236905Y-97314342D01*
X158236905Y-97314342D02*
X158189286Y-97123866D01*
X158189286Y-97123866D02*
X158189286Y-96885771D01*
X158189286Y-96885771D02*
X158236905Y-96695295D01*
X158236905Y-96695295D02*
X158284524Y-96600057D01*
X158284524Y-96600057D02*
X158332143Y-96552438D01*
X158332143Y-96552438D02*
X158427381Y-96504819D01*
X159617857Y-96504819D02*
X159427381Y-96504819D01*
X159427381Y-96504819D02*
X159332143Y-96552438D01*
X159332143Y-96552438D02*
X159284524Y-96600057D01*
X159284524Y-96600057D02*
X159189286Y-96742914D01*
X159189286Y-96742914D02*
X159141667Y-96933390D01*
X159141667Y-96933390D02*
X159141667Y-97314342D01*
X159141667Y-97314342D02*
X159189286Y-97409580D01*
X159189286Y-97409580D02*
X159236905Y-97457200D01*
X159236905Y-97457200D02*
X159332143Y-97504819D01*
X159332143Y-97504819D02*
X159522619Y-97504819D01*
X159522619Y-97504819D02*
X159617857Y-97457200D01*
X159617857Y-97457200D02*
X159665476Y-97409580D01*
X159665476Y-97409580D02*
X159713095Y-97314342D01*
X159713095Y-97314342D02*
X159713095Y-97076247D01*
X159713095Y-97076247D02*
X159665476Y-96981009D01*
X159665476Y-96981009D02*
X159617857Y-96933390D01*
X159617857Y-96933390D02*
X159522619Y-96885771D01*
X159522619Y-96885771D02*
X159332143Y-96885771D01*
X159332143Y-96885771D02*
X159236905Y-96933390D01*
X159236905Y-96933390D02*
X159189286Y-96981009D01*
X159189286Y-96981009D02*
X159141667Y-97076247D01*
X151154819Y-149244047D02*
X150678628Y-149577380D01*
X151154819Y-149815475D02*
X150154819Y-149815475D01*
X150154819Y-149815475D02*
X150154819Y-149434523D01*
X150154819Y-149434523D02*
X150202438Y-149339285D01*
X150202438Y-149339285D02*
X150250057Y-149291666D01*
X150250057Y-149291666D02*
X150345295Y-149244047D01*
X150345295Y-149244047D02*
X150488152Y-149244047D01*
X150488152Y-149244047D02*
X150583390Y-149291666D01*
X150583390Y-149291666D02*
X150631009Y-149339285D01*
X150631009Y-149339285D02*
X150678628Y-149434523D01*
X150678628Y-149434523D02*
X150678628Y-149815475D01*
X150154819Y-148910713D02*
X150154819Y-148291666D01*
X150154819Y-148291666D02*
X150535771Y-148624999D01*
X150535771Y-148624999D02*
X150535771Y-148482142D01*
X150535771Y-148482142D02*
X150583390Y-148386904D01*
X150583390Y-148386904D02*
X150631009Y-148339285D01*
X150631009Y-148339285D02*
X150726247Y-148291666D01*
X150726247Y-148291666D02*
X150964342Y-148291666D01*
X150964342Y-148291666D02*
X151059580Y-148339285D01*
X151059580Y-148339285D02*
X151107200Y-148386904D01*
X151107200Y-148386904D02*
X151154819Y-148482142D01*
X151154819Y-148482142D02*
X151154819Y-148767856D01*
X151154819Y-148767856D02*
X151107200Y-148863094D01*
X151107200Y-148863094D02*
X151059580Y-148910713D01*
X150154819Y-147672618D02*
X150154819Y-147577380D01*
X150154819Y-147577380D02*
X150202438Y-147482142D01*
X150202438Y-147482142D02*
X150250057Y-147434523D01*
X150250057Y-147434523D02*
X150345295Y-147386904D01*
X150345295Y-147386904D02*
X150535771Y-147339285D01*
X150535771Y-147339285D02*
X150773866Y-147339285D01*
X150773866Y-147339285D02*
X150964342Y-147386904D01*
X150964342Y-147386904D02*
X151059580Y-147434523D01*
X151059580Y-147434523D02*
X151107200Y-147482142D01*
X151107200Y-147482142D02*
X151154819Y-147577380D01*
X151154819Y-147577380D02*
X151154819Y-147672618D01*
X151154819Y-147672618D02*
X151107200Y-147767856D01*
X151107200Y-147767856D02*
X151059580Y-147815475D01*
X151059580Y-147815475D02*
X150964342Y-147863094D01*
X150964342Y-147863094D02*
X150773866Y-147910713D01*
X150773866Y-147910713D02*
X150535771Y-147910713D01*
X150535771Y-147910713D02*
X150345295Y-147863094D01*
X150345295Y-147863094D02*
X150250057Y-147815475D01*
X150250057Y-147815475D02*
X150202438Y-147767856D01*
X150202438Y-147767856D02*
X150154819Y-147672618D01*
X150583390Y-146767856D02*
X150535771Y-146863094D01*
X150535771Y-146863094D02*
X150488152Y-146910713D01*
X150488152Y-146910713D02*
X150392914Y-146958332D01*
X150392914Y-146958332D02*
X150345295Y-146958332D01*
X150345295Y-146958332D02*
X150250057Y-146910713D01*
X150250057Y-146910713D02*
X150202438Y-146863094D01*
X150202438Y-146863094D02*
X150154819Y-146767856D01*
X150154819Y-146767856D02*
X150154819Y-146577380D01*
X150154819Y-146577380D02*
X150202438Y-146482142D01*
X150202438Y-146482142D02*
X150250057Y-146434523D01*
X150250057Y-146434523D02*
X150345295Y-146386904D01*
X150345295Y-146386904D02*
X150392914Y-146386904D01*
X150392914Y-146386904D02*
X150488152Y-146434523D01*
X150488152Y-146434523D02*
X150535771Y-146482142D01*
X150535771Y-146482142D02*
X150583390Y-146577380D01*
X150583390Y-146577380D02*
X150583390Y-146767856D01*
X150583390Y-146767856D02*
X150631009Y-146863094D01*
X150631009Y-146863094D02*
X150678628Y-146910713D01*
X150678628Y-146910713D02*
X150773866Y-146958332D01*
X150773866Y-146958332D02*
X150964342Y-146958332D01*
X150964342Y-146958332D02*
X151059580Y-146910713D01*
X151059580Y-146910713D02*
X151107200Y-146863094D01*
X151107200Y-146863094D02*
X151154819Y-146767856D01*
X151154819Y-146767856D02*
X151154819Y-146577380D01*
X151154819Y-146577380D02*
X151107200Y-146482142D01*
X151107200Y-146482142D02*
X151059580Y-146434523D01*
X151059580Y-146434523D02*
X150964342Y-146386904D01*
X150964342Y-146386904D02*
X150773866Y-146386904D01*
X150773866Y-146386904D02*
X150678628Y-146434523D01*
X150678628Y-146434523D02*
X150631009Y-146482142D01*
X150631009Y-146482142D02*
X150583390Y-146577380D01*
X141405952Y-71054819D02*
X141072619Y-70578628D01*
X140834524Y-71054819D02*
X140834524Y-70054819D01*
X140834524Y-70054819D02*
X141215476Y-70054819D01*
X141215476Y-70054819D02*
X141310714Y-70102438D01*
X141310714Y-70102438D02*
X141358333Y-70150057D01*
X141358333Y-70150057D02*
X141405952Y-70245295D01*
X141405952Y-70245295D02*
X141405952Y-70388152D01*
X141405952Y-70388152D02*
X141358333Y-70483390D01*
X141358333Y-70483390D02*
X141310714Y-70531009D01*
X141310714Y-70531009D02*
X141215476Y-70578628D01*
X141215476Y-70578628D02*
X140834524Y-70578628D01*
X141739286Y-70054819D02*
X142358333Y-70054819D01*
X142358333Y-70054819D02*
X142025000Y-70435771D01*
X142025000Y-70435771D02*
X142167857Y-70435771D01*
X142167857Y-70435771D02*
X142263095Y-70483390D01*
X142263095Y-70483390D02*
X142310714Y-70531009D01*
X142310714Y-70531009D02*
X142358333Y-70626247D01*
X142358333Y-70626247D02*
X142358333Y-70864342D01*
X142358333Y-70864342D02*
X142310714Y-70959580D01*
X142310714Y-70959580D02*
X142263095Y-71007200D01*
X142263095Y-71007200D02*
X142167857Y-71054819D01*
X142167857Y-71054819D02*
X141882143Y-71054819D01*
X141882143Y-71054819D02*
X141786905Y-71007200D01*
X141786905Y-71007200D02*
X141739286Y-70959580D01*
X142977381Y-70054819D02*
X143072619Y-70054819D01*
X143072619Y-70054819D02*
X143167857Y-70102438D01*
X143167857Y-70102438D02*
X143215476Y-70150057D01*
X143215476Y-70150057D02*
X143263095Y-70245295D01*
X143263095Y-70245295D02*
X143310714Y-70435771D01*
X143310714Y-70435771D02*
X143310714Y-70673866D01*
X143310714Y-70673866D02*
X143263095Y-70864342D01*
X143263095Y-70864342D02*
X143215476Y-70959580D01*
X143215476Y-70959580D02*
X143167857Y-71007200D01*
X143167857Y-71007200D02*
X143072619Y-71054819D01*
X143072619Y-71054819D02*
X142977381Y-71054819D01*
X142977381Y-71054819D02*
X142882143Y-71007200D01*
X142882143Y-71007200D02*
X142834524Y-70959580D01*
X142834524Y-70959580D02*
X142786905Y-70864342D01*
X142786905Y-70864342D02*
X142739286Y-70673866D01*
X142739286Y-70673866D02*
X142739286Y-70435771D01*
X142739286Y-70435771D02*
X142786905Y-70245295D01*
X142786905Y-70245295D02*
X142834524Y-70150057D01*
X142834524Y-70150057D02*
X142882143Y-70102438D01*
X142882143Y-70102438D02*
X142977381Y-70054819D01*
X144167857Y-70388152D02*
X144167857Y-71054819D01*
X143929762Y-70007200D02*
X143691667Y-70721485D01*
X143691667Y-70721485D02*
X144310714Y-70721485D01*
X147994819Y-149444047D02*
X147518628Y-149777380D01*
X147994819Y-150015475D02*
X146994819Y-150015475D01*
X146994819Y-150015475D02*
X146994819Y-149634523D01*
X146994819Y-149634523D02*
X147042438Y-149539285D01*
X147042438Y-149539285D02*
X147090057Y-149491666D01*
X147090057Y-149491666D02*
X147185295Y-149444047D01*
X147185295Y-149444047D02*
X147328152Y-149444047D01*
X147328152Y-149444047D02*
X147423390Y-149491666D01*
X147423390Y-149491666D02*
X147471009Y-149539285D01*
X147471009Y-149539285D02*
X147518628Y-149634523D01*
X147518628Y-149634523D02*
X147518628Y-150015475D01*
X146994819Y-149110713D02*
X146994819Y-148491666D01*
X146994819Y-148491666D02*
X147375771Y-148824999D01*
X147375771Y-148824999D02*
X147375771Y-148682142D01*
X147375771Y-148682142D02*
X147423390Y-148586904D01*
X147423390Y-148586904D02*
X147471009Y-148539285D01*
X147471009Y-148539285D02*
X147566247Y-148491666D01*
X147566247Y-148491666D02*
X147804342Y-148491666D01*
X147804342Y-148491666D02*
X147899580Y-148539285D01*
X147899580Y-148539285D02*
X147947200Y-148586904D01*
X147947200Y-148586904D02*
X147994819Y-148682142D01*
X147994819Y-148682142D02*
X147994819Y-148967856D01*
X147994819Y-148967856D02*
X147947200Y-149063094D01*
X147947200Y-149063094D02*
X147899580Y-149110713D01*
X147994819Y-147539285D02*
X147994819Y-148110713D01*
X147994819Y-147824999D02*
X146994819Y-147824999D01*
X146994819Y-147824999D02*
X147137676Y-147920237D01*
X147137676Y-147920237D02*
X147232914Y-148015475D01*
X147232914Y-148015475D02*
X147280533Y-148110713D01*
X147328152Y-146682142D02*
X147994819Y-146682142D01*
X146947200Y-146920237D02*
X147661485Y-147158332D01*
X147661485Y-147158332D02*
X147661485Y-146539285D01*
X155259580Y-109919047D02*
X155307200Y-109966666D01*
X155307200Y-109966666D02*
X155354819Y-110109523D01*
X155354819Y-110109523D02*
X155354819Y-110204761D01*
X155354819Y-110204761D02*
X155307200Y-110347618D01*
X155307200Y-110347618D02*
X155211961Y-110442856D01*
X155211961Y-110442856D02*
X155116723Y-110490475D01*
X155116723Y-110490475D02*
X154926247Y-110538094D01*
X154926247Y-110538094D02*
X154783390Y-110538094D01*
X154783390Y-110538094D02*
X154592914Y-110490475D01*
X154592914Y-110490475D02*
X154497676Y-110442856D01*
X154497676Y-110442856D02*
X154402438Y-110347618D01*
X154402438Y-110347618D02*
X154354819Y-110204761D01*
X154354819Y-110204761D02*
X154354819Y-110109523D01*
X154354819Y-110109523D02*
X154402438Y-109966666D01*
X154402438Y-109966666D02*
X154450057Y-109919047D01*
X154354819Y-109585713D02*
X154354819Y-108966666D01*
X154354819Y-108966666D02*
X154735771Y-109299999D01*
X154735771Y-109299999D02*
X154735771Y-109157142D01*
X154735771Y-109157142D02*
X154783390Y-109061904D01*
X154783390Y-109061904D02*
X154831009Y-109014285D01*
X154831009Y-109014285D02*
X154926247Y-108966666D01*
X154926247Y-108966666D02*
X155164342Y-108966666D01*
X155164342Y-108966666D02*
X155259580Y-109014285D01*
X155259580Y-109014285D02*
X155307200Y-109061904D01*
X155307200Y-109061904D02*
X155354819Y-109157142D01*
X155354819Y-109157142D02*
X155354819Y-109442856D01*
X155354819Y-109442856D02*
X155307200Y-109538094D01*
X155307200Y-109538094D02*
X155259580Y-109585713D01*
X155354819Y-108014285D02*
X155354819Y-108585713D01*
X155354819Y-108299999D02*
X154354819Y-108299999D01*
X154354819Y-108299999D02*
X154497676Y-108395237D01*
X154497676Y-108395237D02*
X154592914Y-108490475D01*
X154592914Y-108490475D02*
X154640533Y-108585713D01*
X154354819Y-107680951D02*
X154354819Y-107061904D01*
X154354819Y-107061904D02*
X154735771Y-107395237D01*
X154735771Y-107395237D02*
X154735771Y-107252380D01*
X154735771Y-107252380D02*
X154783390Y-107157142D01*
X154783390Y-107157142D02*
X154831009Y-107109523D01*
X154831009Y-107109523D02*
X154926247Y-107061904D01*
X154926247Y-107061904D02*
X155164342Y-107061904D01*
X155164342Y-107061904D02*
X155259580Y-107109523D01*
X155259580Y-107109523D02*
X155307200Y-107157142D01*
X155307200Y-107157142D02*
X155354819Y-107252380D01*
X155354819Y-107252380D02*
X155354819Y-107538094D01*
X155354819Y-107538094D02*
X155307200Y-107633332D01*
X155307200Y-107633332D02*
X155259580Y-107680951D01*
X144459580Y-86719047D02*
X144507200Y-86766666D01*
X144507200Y-86766666D02*
X144554819Y-86909523D01*
X144554819Y-86909523D02*
X144554819Y-87004761D01*
X144554819Y-87004761D02*
X144507200Y-87147618D01*
X144507200Y-87147618D02*
X144411961Y-87242856D01*
X144411961Y-87242856D02*
X144316723Y-87290475D01*
X144316723Y-87290475D02*
X144126247Y-87338094D01*
X144126247Y-87338094D02*
X143983390Y-87338094D01*
X143983390Y-87338094D02*
X143792914Y-87290475D01*
X143792914Y-87290475D02*
X143697676Y-87242856D01*
X143697676Y-87242856D02*
X143602438Y-87147618D01*
X143602438Y-87147618D02*
X143554819Y-87004761D01*
X143554819Y-87004761D02*
X143554819Y-86909523D01*
X143554819Y-86909523D02*
X143602438Y-86766666D01*
X143602438Y-86766666D02*
X143650057Y-86719047D01*
X143650057Y-86338094D02*
X143602438Y-86290475D01*
X143602438Y-86290475D02*
X143554819Y-86195237D01*
X143554819Y-86195237D02*
X143554819Y-85957142D01*
X143554819Y-85957142D02*
X143602438Y-85861904D01*
X143602438Y-85861904D02*
X143650057Y-85814285D01*
X143650057Y-85814285D02*
X143745295Y-85766666D01*
X143745295Y-85766666D02*
X143840533Y-85766666D01*
X143840533Y-85766666D02*
X143983390Y-85814285D01*
X143983390Y-85814285D02*
X144554819Y-86385713D01*
X144554819Y-86385713D02*
X144554819Y-85766666D01*
X143554819Y-85147618D02*
X143554819Y-85052380D01*
X143554819Y-85052380D02*
X143602438Y-84957142D01*
X143602438Y-84957142D02*
X143650057Y-84909523D01*
X143650057Y-84909523D02*
X143745295Y-84861904D01*
X143745295Y-84861904D02*
X143935771Y-84814285D01*
X143935771Y-84814285D02*
X144173866Y-84814285D01*
X144173866Y-84814285D02*
X144364342Y-84861904D01*
X144364342Y-84861904D02*
X144459580Y-84909523D01*
X144459580Y-84909523D02*
X144507200Y-84957142D01*
X144507200Y-84957142D02*
X144554819Y-85052380D01*
X144554819Y-85052380D02*
X144554819Y-85147618D01*
X144554819Y-85147618D02*
X144507200Y-85242856D01*
X144507200Y-85242856D02*
X144459580Y-85290475D01*
X144459580Y-85290475D02*
X144364342Y-85338094D01*
X144364342Y-85338094D02*
X144173866Y-85385713D01*
X144173866Y-85385713D02*
X143935771Y-85385713D01*
X143935771Y-85385713D02*
X143745295Y-85338094D01*
X143745295Y-85338094D02*
X143650057Y-85290475D01*
X143650057Y-85290475D02*
X143602438Y-85242856D01*
X143602438Y-85242856D02*
X143554819Y-85147618D01*
X144554819Y-83861904D02*
X144554819Y-84433332D01*
X144554819Y-84147618D02*
X143554819Y-84147618D01*
X143554819Y-84147618D02*
X143697676Y-84242856D01*
X143697676Y-84242856D02*
X143792914Y-84338094D01*
X143792914Y-84338094D02*
X143840533Y-84433332D01*
X142131009Y-155857142D02*
X142178628Y-155714285D01*
X142178628Y-155714285D02*
X142226247Y-155666666D01*
X142226247Y-155666666D02*
X142321485Y-155619047D01*
X142321485Y-155619047D02*
X142464342Y-155619047D01*
X142464342Y-155619047D02*
X142559580Y-155666666D01*
X142559580Y-155666666D02*
X142607200Y-155714285D01*
X142607200Y-155714285D02*
X142654819Y-155809523D01*
X142654819Y-155809523D02*
X142654819Y-156190475D01*
X142654819Y-156190475D02*
X141654819Y-156190475D01*
X141654819Y-156190475D02*
X141654819Y-155857142D01*
X141654819Y-155857142D02*
X141702438Y-155761904D01*
X141702438Y-155761904D02*
X141750057Y-155714285D01*
X141750057Y-155714285D02*
X141845295Y-155666666D01*
X141845295Y-155666666D02*
X141940533Y-155666666D01*
X141940533Y-155666666D02*
X142035771Y-155714285D01*
X142035771Y-155714285D02*
X142083390Y-155761904D01*
X142083390Y-155761904D02*
X142131009Y-155857142D01*
X142131009Y-155857142D02*
X142131009Y-156190475D01*
X141654819Y-154999999D02*
X141654819Y-154809523D01*
X141654819Y-154809523D02*
X141702438Y-154714285D01*
X141702438Y-154714285D02*
X141797676Y-154619047D01*
X141797676Y-154619047D02*
X141988152Y-154571428D01*
X141988152Y-154571428D02*
X142321485Y-154571428D01*
X142321485Y-154571428D02*
X142511961Y-154619047D01*
X142511961Y-154619047D02*
X142607200Y-154714285D01*
X142607200Y-154714285D02*
X142654819Y-154809523D01*
X142654819Y-154809523D02*
X142654819Y-154999999D01*
X142654819Y-154999999D02*
X142607200Y-155095237D01*
X142607200Y-155095237D02*
X142511961Y-155190475D01*
X142511961Y-155190475D02*
X142321485Y-155238094D01*
X142321485Y-155238094D02*
X141988152Y-155238094D01*
X141988152Y-155238094D02*
X141797676Y-155190475D01*
X141797676Y-155190475D02*
X141702438Y-155095237D01*
X141702438Y-155095237D02*
X141654819Y-154999999D01*
X141654819Y-153952380D02*
X141654819Y-153761904D01*
X141654819Y-153761904D02*
X141702438Y-153666666D01*
X141702438Y-153666666D02*
X141797676Y-153571428D01*
X141797676Y-153571428D02*
X141988152Y-153523809D01*
X141988152Y-153523809D02*
X142321485Y-153523809D01*
X142321485Y-153523809D02*
X142511961Y-153571428D01*
X142511961Y-153571428D02*
X142607200Y-153666666D01*
X142607200Y-153666666D02*
X142654819Y-153761904D01*
X142654819Y-153761904D02*
X142654819Y-153952380D01*
X142654819Y-153952380D02*
X142607200Y-154047618D01*
X142607200Y-154047618D02*
X142511961Y-154142856D01*
X142511961Y-154142856D02*
X142321485Y-154190475D01*
X142321485Y-154190475D02*
X141988152Y-154190475D01*
X141988152Y-154190475D02*
X141797676Y-154142856D01*
X141797676Y-154142856D02*
X141702438Y-154047618D01*
X141702438Y-154047618D02*
X141654819Y-153952380D01*
X141654819Y-153238094D02*
X141654819Y-152666666D01*
X142654819Y-152952380D02*
X141654819Y-152952380D01*
D11*
X160004704Y-115119047D02*
X160004704Y-114642857D01*
X160290419Y-115214285D02*
X159290419Y-114880952D01*
X159290419Y-114880952D02*
X160290419Y-114547619D01*
X159766609Y-114214285D02*
X159766609Y-113880952D01*
X160290419Y-113738095D02*
X160290419Y-114214285D01*
X160290419Y-114214285D02*
X159290419Y-114214285D01*
X159290419Y-114214285D02*
X159290419Y-113738095D01*
X159290419Y-113404761D02*
X159290419Y-112785714D01*
X159290419Y-112785714D02*
X159671371Y-113119047D01*
X159671371Y-113119047D02*
X159671371Y-112976190D01*
X159671371Y-112976190D02*
X159718990Y-112880952D01*
X159718990Y-112880952D02*
X159766609Y-112833333D01*
X159766609Y-112833333D02*
X159861847Y-112785714D01*
X159861847Y-112785714D02*
X160099942Y-112785714D01*
X160099942Y-112785714D02*
X160195180Y-112833333D01*
X160195180Y-112833333D02*
X160242800Y-112880952D01*
X160242800Y-112880952D02*
X160290419Y-112976190D01*
X160290419Y-112976190D02*
X160290419Y-113261904D01*
X160290419Y-113261904D02*
X160242800Y-113357142D01*
X160242800Y-113357142D02*
X160195180Y-113404761D01*
X159290419Y-112166666D02*
X159290419Y-112071428D01*
X159290419Y-112071428D02*
X159338038Y-111976190D01*
X159338038Y-111976190D02*
X159385657Y-111928571D01*
X159385657Y-111928571D02*
X159480895Y-111880952D01*
X159480895Y-111880952D02*
X159671371Y-111833333D01*
X159671371Y-111833333D02*
X159909466Y-111833333D01*
X159909466Y-111833333D02*
X160099942Y-111880952D01*
X160099942Y-111880952D02*
X160195180Y-111928571D01*
X160195180Y-111928571D02*
X160242800Y-111976190D01*
X160242800Y-111976190D02*
X160290419Y-112071428D01*
X160290419Y-112071428D02*
X160290419Y-112166666D01*
X160290419Y-112166666D02*
X160242800Y-112261904D01*
X160242800Y-112261904D02*
X160195180Y-112309523D01*
X160195180Y-112309523D02*
X160099942Y-112357142D01*
X160099942Y-112357142D02*
X159909466Y-112404761D01*
X159909466Y-112404761D02*
X159671371Y-112404761D01*
X159671371Y-112404761D02*
X159480895Y-112357142D01*
X159480895Y-112357142D02*
X159385657Y-112309523D01*
X159385657Y-112309523D02*
X159338038Y-112261904D01*
X159338038Y-112261904D02*
X159290419Y-112166666D01*
X160290419Y-110880952D02*
X160290419Y-111452380D01*
X160290419Y-111166666D02*
X159290419Y-111166666D01*
X159290419Y-111166666D02*
X159433276Y-111261904D01*
X159433276Y-111261904D02*
X159528514Y-111357142D01*
X159528514Y-111357142D02*
X159576133Y-111452380D01*
D10*
X141305952Y-76554819D02*
X140972619Y-76078628D01*
X140734524Y-76554819D02*
X140734524Y-75554819D01*
X140734524Y-75554819D02*
X141115476Y-75554819D01*
X141115476Y-75554819D02*
X141210714Y-75602438D01*
X141210714Y-75602438D02*
X141258333Y-75650057D01*
X141258333Y-75650057D02*
X141305952Y-75745295D01*
X141305952Y-75745295D02*
X141305952Y-75888152D01*
X141305952Y-75888152D02*
X141258333Y-75983390D01*
X141258333Y-75983390D02*
X141210714Y-76031009D01*
X141210714Y-76031009D02*
X141115476Y-76078628D01*
X141115476Y-76078628D02*
X140734524Y-76078628D01*
X141686905Y-75650057D02*
X141734524Y-75602438D01*
X141734524Y-75602438D02*
X141829762Y-75554819D01*
X141829762Y-75554819D02*
X142067857Y-75554819D01*
X142067857Y-75554819D02*
X142163095Y-75602438D01*
X142163095Y-75602438D02*
X142210714Y-75650057D01*
X142210714Y-75650057D02*
X142258333Y-75745295D01*
X142258333Y-75745295D02*
X142258333Y-75840533D01*
X142258333Y-75840533D02*
X142210714Y-75983390D01*
X142210714Y-75983390D02*
X141639286Y-76554819D01*
X141639286Y-76554819D02*
X142258333Y-76554819D01*
X142877381Y-75554819D02*
X142972619Y-75554819D01*
X142972619Y-75554819D02*
X143067857Y-75602438D01*
X143067857Y-75602438D02*
X143115476Y-75650057D01*
X143115476Y-75650057D02*
X143163095Y-75745295D01*
X143163095Y-75745295D02*
X143210714Y-75935771D01*
X143210714Y-75935771D02*
X143210714Y-76173866D01*
X143210714Y-76173866D02*
X143163095Y-76364342D01*
X143163095Y-76364342D02*
X143115476Y-76459580D01*
X143115476Y-76459580D02*
X143067857Y-76507200D01*
X143067857Y-76507200D02*
X142972619Y-76554819D01*
X142972619Y-76554819D02*
X142877381Y-76554819D01*
X142877381Y-76554819D02*
X142782143Y-76507200D01*
X142782143Y-76507200D02*
X142734524Y-76459580D01*
X142734524Y-76459580D02*
X142686905Y-76364342D01*
X142686905Y-76364342D02*
X142639286Y-76173866D01*
X142639286Y-76173866D02*
X142639286Y-75935771D01*
X142639286Y-75935771D02*
X142686905Y-75745295D01*
X142686905Y-75745295D02*
X142734524Y-75650057D01*
X142734524Y-75650057D02*
X142782143Y-75602438D01*
X142782143Y-75602438D02*
X142877381Y-75554819D01*
X144163095Y-76554819D02*
X143591667Y-76554819D01*
X143877381Y-76554819D02*
X143877381Y-75554819D01*
X143877381Y-75554819D02*
X143782143Y-75697676D01*
X143782143Y-75697676D02*
X143686905Y-75792914D01*
X143686905Y-75792914D02*
X143591667Y-75840533D01*
X158159580Y-93294047D02*
X158207200Y-93341666D01*
X158207200Y-93341666D02*
X158254819Y-93484523D01*
X158254819Y-93484523D02*
X158254819Y-93579761D01*
X158254819Y-93579761D02*
X158207200Y-93722618D01*
X158207200Y-93722618D02*
X158111961Y-93817856D01*
X158111961Y-93817856D02*
X158016723Y-93865475D01*
X158016723Y-93865475D02*
X157826247Y-93913094D01*
X157826247Y-93913094D02*
X157683390Y-93913094D01*
X157683390Y-93913094D02*
X157492914Y-93865475D01*
X157492914Y-93865475D02*
X157397676Y-93817856D01*
X157397676Y-93817856D02*
X157302438Y-93722618D01*
X157302438Y-93722618D02*
X157254819Y-93579761D01*
X157254819Y-93579761D02*
X157254819Y-93484523D01*
X157254819Y-93484523D02*
X157302438Y-93341666D01*
X157302438Y-93341666D02*
X157350057Y-93294047D01*
X157254819Y-92960713D02*
X157254819Y-92341666D01*
X157254819Y-92341666D02*
X157635771Y-92674999D01*
X157635771Y-92674999D02*
X157635771Y-92532142D01*
X157635771Y-92532142D02*
X157683390Y-92436904D01*
X157683390Y-92436904D02*
X157731009Y-92389285D01*
X157731009Y-92389285D02*
X157826247Y-92341666D01*
X157826247Y-92341666D02*
X158064342Y-92341666D01*
X158064342Y-92341666D02*
X158159580Y-92389285D01*
X158159580Y-92389285D02*
X158207200Y-92436904D01*
X158207200Y-92436904D02*
X158254819Y-92532142D01*
X158254819Y-92532142D02*
X158254819Y-92817856D01*
X158254819Y-92817856D02*
X158207200Y-92913094D01*
X158207200Y-92913094D02*
X158159580Y-92960713D01*
X158254819Y-91389285D02*
X158254819Y-91960713D01*
X158254819Y-91674999D02*
X157254819Y-91674999D01*
X157254819Y-91674999D02*
X157397676Y-91770237D01*
X157397676Y-91770237D02*
X157492914Y-91865475D01*
X157492914Y-91865475D02*
X157540533Y-91960713D01*
X157254819Y-90484523D02*
X157254819Y-90960713D01*
X157254819Y-90960713D02*
X157731009Y-91008332D01*
X157731009Y-91008332D02*
X157683390Y-90960713D01*
X157683390Y-90960713D02*
X157635771Y-90865475D01*
X157635771Y-90865475D02*
X157635771Y-90627380D01*
X157635771Y-90627380D02*
X157683390Y-90532142D01*
X157683390Y-90532142D02*
X157731009Y-90484523D01*
X157731009Y-90484523D02*
X157826247Y-90436904D01*
X157826247Y-90436904D02*
X158064342Y-90436904D01*
X158064342Y-90436904D02*
X158159580Y-90484523D01*
X158159580Y-90484523D02*
X158207200Y-90532142D01*
X158207200Y-90532142D02*
X158254819Y-90627380D01*
X158254819Y-90627380D02*
X158254819Y-90865475D01*
X158254819Y-90865475D02*
X158207200Y-90960713D01*
X158207200Y-90960713D02*
X158159580Y-91008332D01*
X142354819Y-75090475D02*
X141354819Y-75090475D01*
X141354819Y-75090475D02*
X141354819Y-74852380D01*
X141354819Y-74852380D02*
X141402438Y-74709523D01*
X141402438Y-74709523D02*
X141497676Y-74614285D01*
X141497676Y-74614285D02*
X141592914Y-74566666D01*
X141592914Y-74566666D02*
X141783390Y-74519047D01*
X141783390Y-74519047D02*
X141926247Y-74519047D01*
X141926247Y-74519047D02*
X142116723Y-74566666D01*
X142116723Y-74566666D02*
X142211961Y-74614285D01*
X142211961Y-74614285D02*
X142307200Y-74709523D01*
X142307200Y-74709523D02*
X142354819Y-74852380D01*
X142354819Y-74852380D02*
X142354819Y-75090475D01*
X142354819Y-73566666D02*
X142354819Y-74138094D01*
X142354819Y-73852380D02*
X141354819Y-73852380D01*
X141354819Y-73852380D02*
X141497676Y-73947618D01*
X141497676Y-73947618D02*
X141592914Y-74042856D01*
X141592914Y-74042856D02*
X141640533Y-74138094D01*
X141354819Y-72947618D02*
X141354819Y-72852380D01*
X141354819Y-72852380D02*
X141402438Y-72757142D01*
X141402438Y-72757142D02*
X141450057Y-72709523D01*
X141450057Y-72709523D02*
X141545295Y-72661904D01*
X141545295Y-72661904D02*
X141735771Y-72614285D01*
X141735771Y-72614285D02*
X141973866Y-72614285D01*
X141973866Y-72614285D02*
X142164342Y-72661904D01*
X142164342Y-72661904D02*
X142259580Y-72709523D01*
X142259580Y-72709523D02*
X142307200Y-72757142D01*
X142307200Y-72757142D02*
X142354819Y-72852380D01*
X142354819Y-72852380D02*
X142354819Y-72947618D01*
X142354819Y-72947618D02*
X142307200Y-73042856D01*
X142307200Y-73042856D02*
X142259580Y-73090475D01*
X142259580Y-73090475D02*
X142164342Y-73138094D01*
X142164342Y-73138094D02*
X141973866Y-73185713D01*
X141973866Y-73185713D02*
X141735771Y-73185713D01*
X141735771Y-73185713D02*
X141545295Y-73138094D01*
X141545295Y-73138094D02*
X141450057Y-73090475D01*
X141450057Y-73090475D02*
X141402438Y-73042856D01*
X141402438Y-73042856D02*
X141354819Y-72947618D01*
X142354819Y-71661904D02*
X142354819Y-72233332D01*
X142354819Y-71947618D02*
X141354819Y-71947618D01*
X141354819Y-71947618D02*
X141497676Y-72042856D01*
X141497676Y-72042856D02*
X141592914Y-72138094D01*
X141592914Y-72138094D02*
X141640533Y-72233332D01*
X159714819Y-137219047D02*
X159238628Y-137552380D01*
X159714819Y-137790475D02*
X158714819Y-137790475D01*
X158714819Y-137790475D02*
X158714819Y-137409523D01*
X158714819Y-137409523D02*
X158762438Y-137314285D01*
X158762438Y-137314285D02*
X158810057Y-137266666D01*
X158810057Y-137266666D02*
X158905295Y-137219047D01*
X158905295Y-137219047D02*
X159048152Y-137219047D01*
X159048152Y-137219047D02*
X159143390Y-137266666D01*
X159143390Y-137266666D02*
X159191009Y-137314285D01*
X159191009Y-137314285D02*
X159238628Y-137409523D01*
X159238628Y-137409523D02*
X159238628Y-137790475D01*
X159714819Y-136266666D02*
X159714819Y-136838094D01*
X159714819Y-136552380D02*
X158714819Y-136552380D01*
X158714819Y-136552380D02*
X158857676Y-136647618D01*
X158857676Y-136647618D02*
X158952914Y-136742856D01*
X158952914Y-136742856D02*
X159000533Y-136838094D01*
X158714819Y-135647618D02*
X158714819Y-135552380D01*
X158714819Y-135552380D02*
X158762438Y-135457142D01*
X158762438Y-135457142D02*
X158810057Y-135409523D01*
X158810057Y-135409523D02*
X158905295Y-135361904D01*
X158905295Y-135361904D02*
X159095771Y-135314285D01*
X159095771Y-135314285D02*
X159333866Y-135314285D01*
X159333866Y-135314285D02*
X159524342Y-135361904D01*
X159524342Y-135361904D02*
X159619580Y-135409523D01*
X159619580Y-135409523D02*
X159667200Y-135457142D01*
X159667200Y-135457142D02*
X159714819Y-135552380D01*
X159714819Y-135552380D02*
X159714819Y-135647618D01*
X159714819Y-135647618D02*
X159667200Y-135742856D01*
X159667200Y-135742856D02*
X159619580Y-135790475D01*
X159619580Y-135790475D02*
X159524342Y-135838094D01*
X159524342Y-135838094D02*
X159333866Y-135885713D01*
X159333866Y-135885713D02*
X159095771Y-135885713D01*
X159095771Y-135885713D02*
X158905295Y-135838094D01*
X158905295Y-135838094D02*
X158810057Y-135790475D01*
X158810057Y-135790475D02*
X158762438Y-135742856D01*
X158762438Y-135742856D02*
X158714819Y-135647618D01*
X158714819Y-134980951D02*
X158714819Y-134361904D01*
X158714819Y-134361904D02*
X159095771Y-134695237D01*
X159095771Y-134695237D02*
X159095771Y-134552380D01*
X159095771Y-134552380D02*
X159143390Y-134457142D01*
X159143390Y-134457142D02*
X159191009Y-134409523D01*
X159191009Y-134409523D02*
X159286247Y-134361904D01*
X159286247Y-134361904D02*
X159524342Y-134361904D01*
X159524342Y-134361904D02*
X159619580Y-134409523D01*
X159619580Y-134409523D02*
X159667200Y-134457142D01*
X159667200Y-134457142D02*
X159714819Y-134552380D01*
X159714819Y-134552380D02*
X159714819Y-134838094D01*
X159714819Y-134838094D02*
X159667200Y-134933332D01*
X159667200Y-134933332D02*
X159619580Y-134980951D01*
X151139580Y-123244047D02*
X151187200Y-123291666D01*
X151187200Y-123291666D02*
X151234819Y-123434523D01*
X151234819Y-123434523D02*
X151234819Y-123529761D01*
X151234819Y-123529761D02*
X151187200Y-123672618D01*
X151187200Y-123672618D02*
X151091961Y-123767856D01*
X151091961Y-123767856D02*
X150996723Y-123815475D01*
X150996723Y-123815475D02*
X150806247Y-123863094D01*
X150806247Y-123863094D02*
X150663390Y-123863094D01*
X150663390Y-123863094D02*
X150472914Y-123815475D01*
X150472914Y-123815475D02*
X150377676Y-123767856D01*
X150377676Y-123767856D02*
X150282438Y-123672618D01*
X150282438Y-123672618D02*
X150234819Y-123529761D01*
X150234819Y-123529761D02*
X150234819Y-123434523D01*
X150234819Y-123434523D02*
X150282438Y-123291666D01*
X150282438Y-123291666D02*
X150330057Y-123244047D01*
X150234819Y-122339285D02*
X150234819Y-122815475D01*
X150234819Y-122815475D02*
X150711009Y-122863094D01*
X150711009Y-122863094D02*
X150663390Y-122815475D01*
X150663390Y-122815475D02*
X150615771Y-122720237D01*
X150615771Y-122720237D02*
X150615771Y-122482142D01*
X150615771Y-122482142D02*
X150663390Y-122386904D01*
X150663390Y-122386904D02*
X150711009Y-122339285D01*
X150711009Y-122339285D02*
X150806247Y-122291666D01*
X150806247Y-122291666D02*
X151044342Y-122291666D01*
X151044342Y-122291666D02*
X151139580Y-122339285D01*
X151139580Y-122339285D02*
X151187200Y-122386904D01*
X151187200Y-122386904D02*
X151234819Y-122482142D01*
X151234819Y-122482142D02*
X151234819Y-122720237D01*
X151234819Y-122720237D02*
X151187200Y-122815475D01*
X151187200Y-122815475D02*
X151139580Y-122863094D01*
X150234819Y-121672618D02*
X150234819Y-121577380D01*
X150234819Y-121577380D02*
X150282438Y-121482142D01*
X150282438Y-121482142D02*
X150330057Y-121434523D01*
X150330057Y-121434523D02*
X150425295Y-121386904D01*
X150425295Y-121386904D02*
X150615771Y-121339285D01*
X150615771Y-121339285D02*
X150853866Y-121339285D01*
X150853866Y-121339285D02*
X151044342Y-121386904D01*
X151044342Y-121386904D02*
X151139580Y-121434523D01*
X151139580Y-121434523D02*
X151187200Y-121482142D01*
X151187200Y-121482142D02*
X151234819Y-121577380D01*
X151234819Y-121577380D02*
X151234819Y-121672618D01*
X151234819Y-121672618D02*
X151187200Y-121767856D01*
X151187200Y-121767856D02*
X151139580Y-121815475D01*
X151139580Y-121815475D02*
X151044342Y-121863094D01*
X151044342Y-121863094D02*
X150853866Y-121910713D01*
X150853866Y-121910713D02*
X150615771Y-121910713D01*
X150615771Y-121910713D02*
X150425295Y-121863094D01*
X150425295Y-121863094D02*
X150330057Y-121815475D01*
X150330057Y-121815475D02*
X150282438Y-121767856D01*
X150282438Y-121767856D02*
X150234819Y-121672618D01*
X151234819Y-120386904D02*
X151234819Y-120958332D01*
X151234819Y-120672618D02*
X150234819Y-120672618D01*
X150234819Y-120672618D02*
X150377676Y-120767856D01*
X150377676Y-120767856D02*
X150472914Y-120863094D01*
X150472914Y-120863094D02*
X150520533Y-120958332D01*
X152159580Y-157819047D02*
X152207200Y-157866666D01*
X152207200Y-157866666D02*
X152254819Y-158009523D01*
X152254819Y-158009523D02*
X152254819Y-158104761D01*
X152254819Y-158104761D02*
X152207200Y-158247618D01*
X152207200Y-158247618D02*
X152111961Y-158342856D01*
X152111961Y-158342856D02*
X152016723Y-158390475D01*
X152016723Y-158390475D02*
X151826247Y-158438094D01*
X151826247Y-158438094D02*
X151683390Y-158438094D01*
X151683390Y-158438094D02*
X151492914Y-158390475D01*
X151492914Y-158390475D02*
X151397676Y-158342856D01*
X151397676Y-158342856D02*
X151302438Y-158247618D01*
X151302438Y-158247618D02*
X151254819Y-158104761D01*
X151254819Y-158104761D02*
X151254819Y-158009523D01*
X151254819Y-158009523D02*
X151302438Y-157866666D01*
X151302438Y-157866666D02*
X151350057Y-157819047D01*
X151254819Y-157485713D02*
X151254819Y-156866666D01*
X151254819Y-156866666D02*
X151635771Y-157199999D01*
X151635771Y-157199999D02*
X151635771Y-157057142D01*
X151635771Y-157057142D02*
X151683390Y-156961904D01*
X151683390Y-156961904D02*
X151731009Y-156914285D01*
X151731009Y-156914285D02*
X151826247Y-156866666D01*
X151826247Y-156866666D02*
X152064342Y-156866666D01*
X152064342Y-156866666D02*
X152159580Y-156914285D01*
X152159580Y-156914285D02*
X152207200Y-156961904D01*
X152207200Y-156961904D02*
X152254819Y-157057142D01*
X152254819Y-157057142D02*
X152254819Y-157342856D01*
X152254819Y-157342856D02*
X152207200Y-157438094D01*
X152207200Y-157438094D02*
X152159580Y-157485713D01*
X151254819Y-156247618D02*
X151254819Y-156152380D01*
X151254819Y-156152380D02*
X151302438Y-156057142D01*
X151302438Y-156057142D02*
X151350057Y-156009523D01*
X151350057Y-156009523D02*
X151445295Y-155961904D01*
X151445295Y-155961904D02*
X151635771Y-155914285D01*
X151635771Y-155914285D02*
X151873866Y-155914285D01*
X151873866Y-155914285D02*
X152064342Y-155961904D01*
X152064342Y-155961904D02*
X152159580Y-156009523D01*
X152159580Y-156009523D02*
X152207200Y-156057142D01*
X152207200Y-156057142D02*
X152254819Y-156152380D01*
X152254819Y-156152380D02*
X152254819Y-156247618D01*
X152254819Y-156247618D02*
X152207200Y-156342856D01*
X152207200Y-156342856D02*
X152159580Y-156390475D01*
X152159580Y-156390475D02*
X152064342Y-156438094D01*
X152064342Y-156438094D02*
X151873866Y-156485713D01*
X151873866Y-156485713D02*
X151635771Y-156485713D01*
X151635771Y-156485713D02*
X151445295Y-156438094D01*
X151445295Y-156438094D02*
X151350057Y-156390475D01*
X151350057Y-156390475D02*
X151302438Y-156342856D01*
X151302438Y-156342856D02*
X151254819Y-156247618D01*
X151683390Y-155342856D02*
X151635771Y-155438094D01*
X151635771Y-155438094D02*
X151588152Y-155485713D01*
X151588152Y-155485713D02*
X151492914Y-155533332D01*
X151492914Y-155533332D02*
X151445295Y-155533332D01*
X151445295Y-155533332D02*
X151350057Y-155485713D01*
X151350057Y-155485713D02*
X151302438Y-155438094D01*
X151302438Y-155438094D02*
X151254819Y-155342856D01*
X151254819Y-155342856D02*
X151254819Y-155152380D01*
X151254819Y-155152380D02*
X151302438Y-155057142D01*
X151302438Y-155057142D02*
X151350057Y-155009523D01*
X151350057Y-155009523D02*
X151445295Y-154961904D01*
X151445295Y-154961904D02*
X151492914Y-154961904D01*
X151492914Y-154961904D02*
X151588152Y-155009523D01*
X151588152Y-155009523D02*
X151635771Y-155057142D01*
X151635771Y-155057142D02*
X151683390Y-155152380D01*
X151683390Y-155152380D02*
X151683390Y-155342856D01*
X151683390Y-155342856D02*
X151731009Y-155438094D01*
X151731009Y-155438094D02*
X151778628Y-155485713D01*
X151778628Y-155485713D02*
X151873866Y-155533332D01*
X151873866Y-155533332D02*
X152064342Y-155533332D01*
X152064342Y-155533332D02*
X152159580Y-155485713D01*
X152159580Y-155485713D02*
X152207200Y-155438094D01*
X152207200Y-155438094D02*
X152254819Y-155342856D01*
X152254819Y-155342856D02*
X152254819Y-155152380D01*
X152254819Y-155152380D02*
X152207200Y-155057142D01*
X152207200Y-155057142D02*
X152159580Y-155009523D01*
X152159580Y-155009523D02*
X152064342Y-154961904D01*
X152064342Y-154961904D02*
X151873866Y-154961904D01*
X151873866Y-154961904D02*
X151778628Y-155009523D01*
X151778628Y-155009523D02*
X151731009Y-155057142D01*
X151731009Y-155057142D02*
X151683390Y-155152380D01*
X154204819Y-157294047D02*
X153728628Y-157627380D01*
X154204819Y-157865475D02*
X153204819Y-157865475D01*
X153204819Y-157865475D02*
X153204819Y-157484523D01*
X153204819Y-157484523D02*
X153252438Y-157389285D01*
X153252438Y-157389285D02*
X153300057Y-157341666D01*
X153300057Y-157341666D02*
X153395295Y-157294047D01*
X153395295Y-157294047D02*
X153538152Y-157294047D01*
X153538152Y-157294047D02*
X153633390Y-157341666D01*
X153633390Y-157341666D02*
X153681009Y-157389285D01*
X153681009Y-157389285D02*
X153728628Y-157484523D01*
X153728628Y-157484523D02*
X153728628Y-157865475D01*
X153204819Y-156960713D02*
X153204819Y-156341666D01*
X153204819Y-156341666D02*
X153585771Y-156674999D01*
X153585771Y-156674999D02*
X153585771Y-156532142D01*
X153585771Y-156532142D02*
X153633390Y-156436904D01*
X153633390Y-156436904D02*
X153681009Y-156389285D01*
X153681009Y-156389285D02*
X153776247Y-156341666D01*
X153776247Y-156341666D02*
X154014342Y-156341666D01*
X154014342Y-156341666D02*
X154109580Y-156389285D01*
X154109580Y-156389285D02*
X154157200Y-156436904D01*
X154157200Y-156436904D02*
X154204819Y-156532142D01*
X154204819Y-156532142D02*
X154204819Y-156817856D01*
X154204819Y-156817856D02*
X154157200Y-156913094D01*
X154157200Y-156913094D02*
X154109580Y-156960713D01*
X153204819Y-155722618D02*
X153204819Y-155627380D01*
X153204819Y-155627380D02*
X153252438Y-155532142D01*
X153252438Y-155532142D02*
X153300057Y-155484523D01*
X153300057Y-155484523D02*
X153395295Y-155436904D01*
X153395295Y-155436904D02*
X153585771Y-155389285D01*
X153585771Y-155389285D02*
X153823866Y-155389285D01*
X153823866Y-155389285D02*
X154014342Y-155436904D01*
X154014342Y-155436904D02*
X154109580Y-155484523D01*
X154109580Y-155484523D02*
X154157200Y-155532142D01*
X154157200Y-155532142D02*
X154204819Y-155627380D01*
X154204819Y-155627380D02*
X154204819Y-155722618D01*
X154204819Y-155722618D02*
X154157200Y-155817856D01*
X154157200Y-155817856D02*
X154109580Y-155865475D01*
X154109580Y-155865475D02*
X154014342Y-155913094D01*
X154014342Y-155913094D02*
X153823866Y-155960713D01*
X153823866Y-155960713D02*
X153585771Y-155960713D01*
X153585771Y-155960713D02*
X153395295Y-155913094D01*
X153395295Y-155913094D02*
X153300057Y-155865475D01*
X153300057Y-155865475D02*
X153252438Y-155817856D01*
X153252438Y-155817856D02*
X153204819Y-155722618D01*
X153204819Y-154484523D02*
X153204819Y-154960713D01*
X153204819Y-154960713D02*
X153681009Y-155008332D01*
X153681009Y-155008332D02*
X153633390Y-154960713D01*
X153633390Y-154960713D02*
X153585771Y-154865475D01*
X153585771Y-154865475D02*
X153585771Y-154627380D01*
X153585771Y-154627380D02*
X153633390Y-154532142D01*
X153633390Y-154532142D02*
X153681009Y-154484523D01*
X153681009Y-154484523D02*
X153776247Y-154436904D01*
X153776247Y-154436904D02*
X154014342Y-154436904D01*
X154014342Y-154436904D02*
X154109580Y-154484523D01*
X154109580Y-154484523D02*
X154157200Y-154532142D01*
X154157200Y-154532142D02*
X154204819Y-154627380D01*
X154204819Y-154627380D02*
X154204819Y-154865475D01*
X154204819Y-154865475D02*
X154157200Y-154960713D01*
X154157200Y-154960713D02*
X154109580Y-155008332D01*
X159754819Y-109319047D02*
X159754819Y-109795237D01*
X159754819Y-109795237D02*
X158754819Y-109795237D01*
X158754819Y-109080951D02*
X158754819Y-108461904D01*
X158754819Y-108461904D02*
X159135771Y-108795237D01*
X159135771Y-108795237D02*
X159135771Y-108652380D01*
X159135771Y-108652380D02*
X159183390Y-108557142D01*
X159183390Y-108557142D02*
X159231009Y-108509523D01*
X159231009Y-108509523D02*
X159326247Y-108461904D01*
X159326247Y-108461904D02*
X159564342Y-108461904D01*
X159564342Y-108461904D02*
X159659580Y-108509523D01*
X159659580Y-108509523D02*
X159707200Y-108557142D01*
X159707200Y-108557142D02*
X159754819Y-108652380D01*
X159754819Y-108652380D02*
X159754819Y-108938094D01*
X159754819Y-108938094D02*
X159707200Y-109033332D01*
X159707200Y-109033332D02*
X159659580Y-109080951D01*
X158754819Y-107842856D02*
X158754819Y-107747618D01*
X158754819Y-107747618D02*
X158802438Y-107652380D01*
X158802438Y-107652380D02*
X158850057Y-107604761D01*
X158850057Y-107604761D02*
X158945295Y-107557142D01*
X158945295Y-107557142D02*
X159135771Y-107509523D01*
X159135771Y-107509523D02*
X159373866Y-107509523D01*
X159373866Y-107509523D02*
X159564342Y-107557142D01*
X159564342Y-107557142D02*
X159659580Y-107604761D01*
X159659580Y-107604761D02*
X159707200Y-107652380D01*
X159707200Y-107652380D02*
X159754819Y-107747618D01*
X159754819Y-107747618D02*
X159754819Y-107842856D01*
X159754819Y-107842856D02*
X159707200Y-107938094D01*
X159707200Y-107938094D02*
X159659580Y-107985713D01*
X159659580Y-107985713D02*
X159564342Y-108033332D01*
X159564342Y-108033332D02*
X159373866Y-108080951D01*
X159373866Y-108080951D02*
X159135771Y-108080951D01*
X159135771Y-108080951D02*
X158945295Y-108033332D01*
X158945295Y-108033332D02*
X158850057Y-107985713D01*
X158850057Y-107985713D02*
X158802438Y-107938094D01*
X158802438Y-107938094D02*
X158754819Y-107842856D01*
X159754819Y-106557142D02*
X159754819Y-107128570D01*
X159754819Y-106842856D02*
X158754819Y-106842856D01*
X158754819Y-106842856D02*
X158897676Y-106938094D01*
X158897676Y-106938094D02*
X158992914Y-107033332D01*
X158992914Y-107033332D02*
X159040533Y-107128570D01*
X153130952Y-121954819D02*
X152797619Y-121478628D01*
X152559524Y-121954819D02*
X152559524Y-120954819D01*
X152559524Y-120954819D02*
X152940476Y-120954819D01*
X152940476Y-120954819D02*
X153035714Y-121002438D01*
X153035714Y-121002438D02*
X153083333Y-121050057D01*
X153083333Y-121050057D02*
X153130952Y-121145295D01*
X153130952Y-121145295D02*
X153130952Y-121288152D01*
X153130952Y-121288152D02*
X153083333Y-121383390D01*
X153083333Y-121383390D02*
X153035714Y-121431009D01*
X153035714Y-121431009D02*
X152940476Y-121478628D01*
X152940476Y-121478628D02*
X152559524Y-121478628D01*
X153464286Y-120954819D02*
X154083333Y-120954819D01*
X154083333Y-120954819D02*
X153750000Y-121335771D01*
X153750000Y-121335771D02*
X153892857Y-121335771D01*
X153892857Y-121335771D02*
X153988095Y-121383390D01*
X153988095Y-121383390D02*
X154035714Y-121431009D01*
X154035714Y-121431009D02*
X154083333Y-121526247D01*
X154083333Y-121526247D02*
X154083333Y-121764342D01*
X154083333Y-121764342D02*
X154035714Y-121859580D01*
X154035714Y-121859580D02*
X153988095Y-121907200D01*
X153988095Y-121907200D02*
X153892857Y-121954819D01*
X153892857Y-121954819D02*
X153607143Y-121954819D01*
X153607143Y-121954819D02*
X153511905Y-121907200D01*
X153511905Y-121907200D02*
X153464286Y-121859580D01*
X154702381Y-120954819D02*
X154797619Y-120954819D01*
X154797619Y-120954819D02*
X154892857Y-121002438D01*
X154892857Y-121002438D02*
X154940476Y-121050057D01*
X154940476Y-121050057D02*
X154988095Y-121145295D01*
X154988095Y-121145295D02*
X155035714Y-121335771D01*
X155035714Y-121335771D02*
X155035714Y-121573866D01*
X155035714Y-121573866D02*
X154988095Y-121764342D01*
X154988095Y-121764342D02*
X154940476Y-121859580D01*
X154940476Y-121859580D02*
X154892857Y-121907200D01*
X154892857Y-121907200D02*
X154797619Y-121954819D01*
X154797619Y-121954819D02*
X154702381Y-121954819D01*
X154702381Y-121954819D02*
X154607143Y-121907200D01*
X154607143Y-121907200D02*
X154559524Y-121859580D01*
X154559524Y-121859580D02*
X154511905Y-121764342D01*
X154511905Y-121764342D02*
X154464286Y-121573866D01*
X154464286Y-121573866D02*
X154464286Y-121335771D01*
X154464286Y-121335771D02*
X154511905Y-121145295D01*
X154511905Y-121145295D02*
X154559524Y-121050057D01*
X154559524Y-121050057D02*
X154607143Y-121002438D01*
X154607143Y-121002438D02*
X154702381Y-120954819D01*
X155416667Y-121050057D02*
X155464286Y-121002438D01*
X155464286Y-121002438D02*
X155559524Y-120954819D01*
X155559524Y-120954819D02*
X155797619Y-120954819D01*
X155797619Y-120954819D02*
X155892857Y-121002438D01*
X155892857Y-121002438D02*
X155940476Y-121050057D01*
X155940476Y-121050057D02*
X155988095Y-121145295D01*
X155988095Y-121145295D02*
X155988095Y-121240533D01*
X155988095Y-121240533D02*
X155940476Y-121383390D01*
X155940476Y-121383390D02*
X155369048Y-121954819D01*
X155369048Y-121954819D02*
X155988095Y-121954819D01*
D12*
%TO.C,U501*%
X146365000Y-123200000D02*
X146365000Y-123480000D01*
X146085000Y-123200000D01*
X146365000Y-123200000D01*
G36*
X146365000Y-123480000D02*
G01*
X146085000Y-123200000D01*
X146365000Y-123200000D01*
X146365000Y-123480000D01*
G37*
X147825000Y-122750000D02*
X147825000Y-121250000D01*
X146105000Y-122750000D02*
X146105000Y-121250000D01*
%TO.C,L201*%
X147850000Y-83250000D02*
X149850000Y-83250000D01*
X147850000Y-85450000D02*
X149850000Y-85450000D01*
%TO.C,R306*%
X144177500Y-89987742D02*
X144177500Y-90462258D01*
X145222500Y-89987742D02*
X145222500Y-90462258D01*
%TO.C,R203*%
X146162258Y-77077500D02*
X145687742Y-77077500D01*
X146162258Y-78122500D02*
X145687742Y-78122500D01*
%TO.C,R303*%
X155337258Y-69877500D02*
X154862742Y-69877500D01*
X155337258Y-70922500D02*
X154862742Y-70922500D01*
%TO.C,SW302*%
D10*
X155000000Y-156500000D02*
X155000000Y-152500000D01*
X158000000Y-156500000D02*
X158000000Y-152500000D01*
%TO.C,R202*%
D12*
X150087258Y-77327500D02*
X149612742Y-77327500D01*
X150087258Y-78372500D02*
X149612742Y-78372500D01*
%TO.C,C206*%
X154840000Y-83040580D02*
X154840000Y-82759420D01*
X155860000Y-83040580D02*
X155860000Y-82759420D01*
%TO.C,C310*%
X147390000Y-91884420D02*
X147390000Y-92165580D01*
X148410000Y-91884420D02*
X148410000Y-92165580D01*
%TO.C,U302*%
X142890000Y-99790000D02*
X143540000Y-99790000D01*
X142890000Y-100440000D02*
X142890000Y-99790000D01*
X142890000Y-107010000D02*
X142890000Y-106360000D01*
X143540000Y-107010000D02*
X142890000Y-107010000D01*
X149460000Y-99790000D02*
X150110000Y-99790000D01*
X150110000Y-99790000D02*
X150110000Y-100440000D01*
X150110000Y-106360000D02*
X150110000Y-107010000D01*
X150110000Y-107010000D02*
X149460000Y-107010000D01*
X150610000Y-106000000D02*
X150940000Y-105760000D01*
X150940000Y-106240000D01*
X150610000Y-106000000D01*
G36*
X150940000Y-106240000D02*
G01*
X150610000Y-106000000D01*
X150940000Y-105760000D01*
X150940000Y-106240000D01*
G37*
%TO.C,R102*%
X140977500Y-87762742D02*
X140977500Y-88237258D01*
X142022500Y-87762742D02*
X142022500Y-88237258D01*
%TO.C,R301*%
X154262742Y-99977500D02*
X154737258Y-99977500D01*
X154262742Y-101022500D02*
X154737258Y-101022500D01*
%TO.C,R104*%
X157237500Y-139662258D02*
X157237500Y-139187742D01*
X158282500Y-139662258D02*
X158282500Y-139187742D01*
%TO.C,J302*%
X154733000Y-116000000D02*
X155533000Y-116000000D01*
X154733000Y-116200000D02*
X154733000Y-116000000D01*
X154933000Y-119000000D02*
X154733000Y-118800000D01*
X155533000Y-119000000D02*
X154933000Y-119000000D01*
X155533000Y-119000000D02*
X155533000Y-119500000D01*
X156933000Y-116000000D02*
X157733000Y-116000000D01*
X156933000Y-119000000D02*
X156933000Y-119500000D01*
X157733000Y-116000000D02*
X157733000Y-116200000D01*
X157733000Y-118800000D02*
X157733000Y-119000000D01*
X157733000Y-119000000D02*
X156933000Y-119000000D01*
%TO.C,C302*%
X154109420Y-104490000D02*
X154390580Y-104490000D01*
X154109420Y-105510000D02*
X154390580Y-105510000D01*
%TO.C,C304*%
X144240580Y-108890000D02*
X143959420Y-108890000D01*
X144240580Y-109910000D02*
X143959420Y-109910000D01*
%TO.C,C309*%
X147390000Y-88965580D02*
X147390000Y-88684420D01*
X148410000Y-88965580D02*
X148410000Y-88684420D01*
%TO.C,J102*%
X156520000Y-61420000D02*
X157900000Y-61420000D01*
X156520000Y-62800000D02*
X156520000Y-61420000D01*
X156520000Y-64070000D02*
X156520000Y-69260000D01*
X156520000Y-64070000D02*
X159280000Y-64070000D01*
X156520000Y-69260000D02*
X159280000Y-69260000D01*
X159280000Y-64070000D02*
X159280000Y-69260000D01*
%TO.C,R101*%
X140977500Y-84762742D02*
X140977500Y-85237258D01*
X142022500Y-84762742D02*
X142022500Y-85237258D01*
%TO.C,C311*%
X152190000Y-144509420D02*
X152190000Y-144790580D01*
X153210000Y-144509420D02*
X153210000Y-144790580D01*
%TO.C,R205*%
X150087258Y-78827500D02*
X149612742Y-78827500D01*
X150087258Y-79872500D02*
X149612742Y-79872500D01*
%TO.C,R307*%
X145777500Y-90462258D02*
X145777500Y-89987742D01*
X146822500Y-90462258D02*
X146822500Y-89987742D01*
%TO.C,D301*%
X156065000Y-122290000D02*
X156065000Y-124210000D01*
X156065000Y-124210000D02*
X158750000Y-124210000D01*
X158750000Y-122290000D02*
X156065000Y-122290000D01*
%TO.C,R313*%
X145377500Y-144412742D02*
X145377500Y-144887258D01*
X146422500Y-144412742D02*
X146422500Y-144887258D01*
%TO.C,Y301*%
X153425000Y-91250000D02*
X153425000Y-92600000D01*
X155175000Y-91250000D02*
X155175000Y-92600000D01*
%TO.C,C204*%
X150615000Y-83161252D02*
X150615000Y-82638748D01*
X152085000Y-83161252D02*
X152085000Y-82638748D01*
%TO.C,R315*%
X153787258Y-94402500D02*
X153312742Y-94402500D01*
X153787258Y-95447500D02*
X153312742Y-95447500D01*
%TO.C,R204*%
X146162258Y-78577500D02*
X145687742Y-78577500D01*
X146162258Y-79622500D02*
X145687742Y-79622500D01*
%TO.C,C203*%
X150111252Y-75365000D02*
X149588748Y-75365000D01*
X150111252Y-76835000D02*
X149588748Y-76835000D01*
%TO.C,R309*%
X153777500Y-144412742D02*
X153777500Y-144887258D01*
X154822500Y-144412742D02*
X154822500Y-144887258D01*
%TO.C,R310*%
X148577500Y-144887258D02*
X148577500Y-144412742D01*
X149622500Y-144887258D02*
X149622500Y-144412742D01*
%TO.C,C312*%
X156934420Y-106090000D02*
X157215580Y-106090000D01*
X156934420Y-107110000D02*
X157215580Y-107110000D01*
%TO.C,R312*%
X155377500Y-144412742D02*
X155377500Y-144887258D01*
X156422500Y-144412742D02*
X156422500Y-144887258D01*
%TO.C,C301*%
X153988748Y-102515000D02*
X154511252Y-102515000D01*
X153988748Y-103985000D02*
X154511252Y-103985000D01*
%TO.C,C303*%
X149459420Y-96290000D02*
X149740580Y-96290000D01*
X149459420Y-97310000D02*
X149740580Y-97310000D01*
%TO.C,C305*%
X151984420Y-108090000D02*
X152265580Y-108090000D01*
X151984420Y-109110000D02*
X152265580Y-109110000D01*
%TO.C,C316*%
X148290000Y-113284420D02*
X148290000Y-113565580D01*
X149310000Y-113284420D02*
X149310000Y-113565580D01*
%TO.C,U201*%
X146915000Y-82275568D02*
X146915000Y-81140000D01*
X148785000Y-81140000D02*
X148785000Y-82560000D01*
X146910000Y-82570000D02*
X146720000Y-82710000D01*
X146720000Y-82430000D01*
X146910000Y-82570000D01*
G36*
X146910000Y-82570000D02*
G01*
X146720000Y-82710000D01*
X146720000Y-82430000D01*
X146910000Y-82570000D01*
G37*
%TO.C,FB301*%
X152097936Y-109665000D02*
X152552064Y-109665000D01*
X152097936Y-111135000D02*
X152552064Y-111135000D01*
%TO.C,R316*%
X148277500Y-110112742D02*
X148277500Y-110587258D01*
X149322500Y-110112742D02*
X149322500Y-110587258D01*
%TO.C,C314*%
X151790000Y-92315580D02*
X151790000Y-92034420D01*
X152810000Y-92315580D02*
X152810000Y-92034420D01*
%TO.C,C202*%
X145090000Y-81990580D02*
X145090000Y-81709420D01*
X146110000Y-81990580D02*
X146110000Y-81709420D01*
%TO.C,C307*%
X154590580Y-98290000D02*
X154309420Y-98290000D01*
X154590580Y-99310000D02*
X154309420Y-99310000D01*
%TO.C,C205*%
X152615000Y-83161252D02*
X152615000Y-82638748D01*
X154085000Y-83161252D02*
X154085000Y-82638748D01*
%TO.C,J101*%
X141620000Y-63845000D02*
X143000000Y-63845000D01*
X141620000Y-65225000D02*
X141620000Y-63845000D01*
X141620000Y-66495000D02*
X141620000Y-69145000D01*
X141620000Y-66495000D02*
X144380000Y-66495000D01*
X141620000Y-69145000D02*
X144380000Y-69145000D01*
X144380000Y-66495000D02*
X144380000Y-69145000D01*
%TO.C,C317*%
X143790000Y-113284420D02*
X143790000Y-113565580D01*
X144810000Y-113284420D02*
X144810000Y-113565580D01*
%TO.C,Y302*%
X145340000Y-114835000D02*
X147760000Y-114835000D01*
X147760000Y-114835000D02*
X147760000Y-112015000D01*
%TO.C,U301*%
X149140000Y-70827500D02*
X149190000Y-70827500D01*
X149140000Y-72647500D02*
X149140000Y-70827500D01*
X149190000Y-72647500D02*
X149140000Y-72647500D01*
X152210000Y-70827500D02*
X152260000Y-70827500D01*
X152260000Y-70827500D02*
X152260000Y-72647500D01*
X152260000Y-72647500D02*
X152210000Y-72647500D01*
X149190000Y-73187500D02*
X148860000Y-73427500D01*
X148860000Y-72947500D01*
X149190000Y-73187500D01*
G36*
X149190000Y-73187500D02*
G01*
X148860000Y-73427500D01*
X148860000Y-72947500D01*
X149190000Y-73187500D01*
G37*
%TO.C,C306*%
X154511252Y-96265000D02*
X153988748Y-96265000D01*
X154511252Y-97735000D02*
X153988748Y-97735000D01*
%TO.C,R308*%
X150177500Y-144862258D02*
X150177500Y-144387742D01*
X151222500Y-144862258D02*
X151222500Y-144387742D01*
%TO.C,R304*%
X145662742Y-69877500D02*
X146137258Y-69877500D01*
X145662742Y-70922500D02*
X146137258Y-70922500D01*
%TO.C,R314*%
X146977500Y-144412742D02*
X146977500Y-144887258D01*
X148022500Y-144412742D02*
X148022500Y-144887258D01*
%TO.C,JP301*%
X155575000Y-110700000D02*
X155575000Y-111900000D01*
X155575000Y-113600000D02*
X155575000Y-112600000D01*
X156675000Y-110700000D02*
X155575000Y-110700000D01*
X156975000Y-112600000D02*
X156975000Y-113600000D01*
X156975000Y-113600000D02*
X155575000Y-113600000D01*
X157475000Y-112100000D02*
X158475000Y-112100000D01*
X158475000Y-110700000D02*
X157475000Y-110700000D01*
X158475000Y-112100000D02*
X158475000Y-110700000D01*
D13*
X158905000Y-112300000D02*
G75*
G02*
X158645000Y-112300000I-130000J0D01*
G01*
X158645000Y-112300000D02*
G75*
G02*
X158905000Y-112300000I130000J0D01*
G01*
%TO.C,J301*%
D12*
X145905000Y-62525000D02*
X145905000Y-59795000D01*
X145905000Y-66125000D02*
X145905000Y-65225000D01*
X154975000Y-69205000D02*
X146025000Y-69205000D01*
X155095000Y-59795000D02*
X145905000Y-59795000D01*
X155095000Y-62525000D02*
X155095000Y-59795000D01*
X155095000Y-66125000D02*
X155095000Y-65225000D01*
%TO.C,C313*%
X156959420Y-109290000D02*
X157240580Y-109290000D01*
X156959420Y-110310000D02*
X157240580Y-110310000D01*
%TO.C,C201*%
X142865000Y-82111252D02*
X142865000Y-81588748D01*
X144335000Y-82111252D02*
X144335000Y-81588748D01*
%TO.C,SW301*%
D10*
X146000000Y-152500000D02*
X146000000Y-156500000D01*
X143000000Y-152500000D02*
X143000000Y-156500000D01*
%TO.C,AE301*%
D11*
X157471000Y-112757000D02*
X158995000Y-112757000D01*
X158995000Y-115043000D01*
X157471000Y-115043000D01*
X157471000Y-112757000D01*
%TO.C,R201*%
D12*
X145687742Y-75577500D02*
X146162258Y-75577500D01*
X145687742Y-76622500D02*
X146162258Y-76622500D01*
%TO.C,C315*%
X155790000Y-92315580D02*
X155790000Y-92034420D01*
X156810000Y-92315580D02*
X156810000Y-92034420D01*
%TO.C,D101*%
X143340000Y-71600000D02*
X143340000Y-73600000D01*
X143340000Y-71600000D02*
X147350000Y-71600000D01*
X143340000Y-73600000D02*
X147350000Y-73600000D01*
%TO.C,R103*%
X158727500Y-139662258D02*
X158727500Y-139187742D01*
X159772500Y-139662258D02*
X159772500Y-139187742D01*
%TO.C,C501*%
X148365000Y-121863748D02*
X148365000Y-122386252D01*
X149835000Y-121863748D02*
X149835000Y-122386252D01*
%TO.C,C308*%
X151015000Y-152738748D02*
X151015000Y-153261252D01*
X152485000Y-152738748D02*
X152485000Y-153261252D01*
%TO.C,R305*%
X153227500Y-152512742D02*
X153227500Y-152987258D01*
X154272500Y-152512742D02*
X154272500Y-152987258D01*
%TO.C,L301*%
X156912221Y-107690000D02*
X157237779Y-107690000D01*
X156912221Y-108710000D02*
X157237779Y-108710000D01*
%TO.C,R302*%
X158237258Y-120992500D02*
X157762742Y-120992500D01*
X158237258Y-122037500D02*
X157762742Y-122037500D01*
%TD*%
M02*
