%TF.GenerationSoftware,KiCad,Pcbnew,10.0.6*%
%TF.CreationDate,2026-09-24T09:55:41-04:00*%
%TF.ProjectId,s3_sensor_board,73335f73-656e-4736-9f72-5f626f617264,rev?*%
%TF.SameCoordinates,Original*%
%TF.FileFunction,Legend,Bot*%
%TF.FilePolarity,Positive*%
%FSLAX46Y46*%
G04 Gerber Fmt 4.6, Leading zero omitted, Abs format (unit mm)*
G04 Created by KiCad (PCBNEW 10.0.6) date 2026-09-24 09:55:41*
%MOMM*%
%LPD*%
G01*
G04 APERTURE LIST*
%ADD10C,0.150000*%
%ADD11C,0.120000*%
G04 APERTURE END LIST*
D10*
X149164285Y-152350180D02*
X149164285Y-151635895D01*
X149164285Y-151635895D02*
X149116666Y-151493038D01*
X149116666Y-151493038D02*
X149021428Y-151397800D01*
X149021428Y-151397800D02*
X148878571Y-151350180D01*
X148878571Y-151350180D02*
X148783333Y-151350180D01*
X149545238Y-152350180D02*
X150164285Y-152350180D01*
X150164285Y-152350180D02*
X149830952Y-151969228D01*
X149830952Y-151969228D02*
X149973809Y-151969228D01*
X149973809Y-151969228D02*
X150069047Y-151921609D01*
X150069047Y-151921609D02*
X150116666Y-151873990D01*
X150116666Y-151873990D02*
X150164285Y-151778752D01*
X150164285Y-151778752D02*
X150164285Y-151540657D01*
X150164285Y-151540657D02*
X150116666Y-151445419D01*
X150116666Y-151445419D02*
X150069047Y-151397800D01*
X150069047Y-151397800D02*
X149973809Y-151350180D01*
X149973809Y-151350180D02*
X149688095Y-151350180D01*
X149688095Y-151350180D02*
X149592857Y-151397800D01*
X149592857Y-151397800D02*
X149545238Y-151445419D01*
X150783333Y-152350180D02*
X150878571Y-152350180D01*
X150878571Y-152350180D02*
X150973809Y-152302561D01*
X150973809Y-152302561D02*
X151021428Y-152254942D01*
X151021428Y-152254942D02*
X151069047Y-152159704D01*
X151069047Y-152159704D02*
X151116666Y-151969228D01*
X151116666Y-151969228D02*
X151116666Y-151731133D01*
X151116666Y-151731133D02*
X151069047Y-151540657D01*
X151069047Y-151540657D02*
X151021428Y-151445419D01*
X151021428Y-151445419D02*
X150973809Y-151397800D01*
X150973809Y-151397800D02*
X150878571Y-151350180D01*
X150878571Y-151350180D02*
X150783333Y-151350180D01*
X150783333Y-151350180D02*
X150688095Y-151397800D01*
X150688095Y-151397800D02*
X150640476Y-151445419D01*
X150640476Y-151445419D02*
X150592857Y-151540657D01*
X150592857Y-151540657D02*
X150545238Y-151731133D01*
X150545238Y-151731133D02*
X150545238Y-151969228D01*
X150545238Y-151969228D02*
X150592857Y-152159704D01*
X150592857Y-152159704D02*
X150640476Y-152254942D01*
X150640476Y-152254942D02*
X150688095Y-152302561D01*
X150688095Y-152302561D02*
X150783333Y-152350180D01*
X151450000Y-152350180D02*
X152069047Y-152350180D01*
X152069047Y-152350180D02*
X151735714Y-151969228D01*
X151735714Y-151969228D02*
X151878571Y-151969228D01*
X151878571Y-151969228D02*
X151973809Y-151921609D01*
X151973809Y-151921609D02*
X152021428Y-151873990D01*
X152021428Y-151873990D02*
X152069047Y-151778752D01*
X152069047Y-151778752D02*
X152069047Y-151540657D01*
X152069047Y-151540657D02*
X152021428Y-151445419D01*
X152021428Y-151445419D02*
X151973809Y-151397800D01*
X151973809Y-151397800D02*
X151878571Y-151350180D01*
X151878571Y-151350180D02*
X151592857Y-151350180D01*
X151592857Y-151350180D02*
X151497619Y-151397800D01*
X151497619Y-151397800D02*
X151450000Y-151445419D01*
X161134819Y-128196785D02*
X161849104Y-128196785D01*
X161849104Y-128196785D02*
X161991961Y-128149166D01*
X161991961Y-128149166D02*
X162087200Y-128053928D01*
X162087200Y-128053928D02*
X162134819Y-127911071D01*
X162134819Y-127911071D02*
X162134819Y-127815833D01*
X162134819Y-129196785D02*
X162134819Y-128625357D01*
X162134819Y-128911071D02*
X161134819Y-128911071D01*
X161134819Y-128911071D02*
X161277676Y-128815833D01*
X161277676Y-128815833D02*
X161372914Y-128720595D01*
X161372914Y-128720595D02*
X161420533Y-128625357D01*
X161134819Y-129815833D02*
X161134819Y-129911071D01*
X161134819Y-129911071D02*
X161182438Y-130006309D01*
X161182438Y-130006309D02*
X161230057Y-130053928D01*
X161230057Y-130053928D02*
X161325295Y-130101547D01*
X161325295Y-130101547D02*
X161515771Y-130149166D01*
X161515771Y-130149166D02*
X161753866Y-130149166D01*
X161753866Y-130149166D02*
X161944342Y-130101547D01*
X161944342Y-130101547D02*
X162039580Y-130053928D01*
X162039580Y-130053928D02*
X162087200Y-130006309D01*
X162087200Y-130006309D02*
X162134819Y-129911071D01*
X162134819Y-129911071D02*
X162134819Y-129815833D01*
X162134819Y-129815833D02*
X162087200Y-129720595D01*
X162087200Y-129720595D02*
X162039580Y-129672976D01*
X162039580Y-129672976D02*
X161944342Y-129625357D01*
X161944342Y-129625357D02*
X161753866Y-129577738D01*
X161753866Y-129577738D02*
X161515771Y-129577738D01*
X161515771Y-129577738D02*
X161325295Y-129625357D01*
X161325295Y-129625357D02*
X161230057Y-129672976D01*
X161230057Y-129672976D02*
X161182438Y-129720595D01*
X161182438Y-129720595D02*
X161134819Y-129815833D01*
X161134819Y-130482500D02*
X161134819Y-131101547D01*
X161134819Y-131101547D02*
X161515771Y-130768214D01*
X161515771Y-130768214D02*
X161515771Y-130911071D01*
X161515771Y-130911071D02*
X161563390Y-131006309D01*
X161563390Y-131006309D02*
X161611009Y-131053928D01*
X161611009Y-131053928D02*
X161706247Y-131101547D01*
X161706247Y-131101547D02*
X161944342Y-131101547D01*
X161944342Y-131101547D02*
X162039580Y-131053928D01*
X162039580Y-131053928D02*
X162087200Y-131006309D01*
X162087200Y-131006309D02*
X162134819Y-130911071D01*
X162134819Y-130911071D02*
X162134819Y-130625357D01*
X162134819Y-130625357D02*
X162087200Y-130530119D01*
X162087200Y-130530119D02*
X162039580Y-130482500D01*
%TO.C,J303*%
D11*
X144950000Y-150650000D02*
X156950000Y-150650000D01*
X156950000Y-159650000D01*
X144950000Y-159650000D01*
X144950000Y-150650000D01*
%TO.C,J103*%
X140210000Y-124922500D02*
X140210000Y-134042500D01*
X140210000Y-134042500D02*
X160790000Y-134042500D01*
X141510000Y-126232500D02*
X141510000Y-132732500D01*
X141510000Y-132732500D02*
X148450000Y-132732500D01*
X148450000Y-132732500D02*
X148450000Y-134042500D01*
X152550000Y-132732500D02*
X159490000Y-132732500D01*
X152550000Y-134042500D02*
X152550000Y-132732500D01*
X155080000Y-135432500D02*
X155580000Y-134432500D01*
X155580000Y-134432500D02*
X156080000Y-135432500D01*
X156080000Y-135432500D02*
X155080000Y-135432500D01*
X159490000Y-126232500D02*
X141510000Y-126232500D01*
X159490000Y-132732500D02*
X159490000Y-126232500D01*
X160790000Y-124922500D02*
X140210000Y-124922500D01*
X160790000Y-134042500D02*
X160790000Y-124922500D01*
%TD*%
M02*
