%TF.GenerationSoftware,KiCad,Pcbnew,10.0.6*%
%TF.CreationDate,2026-09-24T09:55:40-04:00*%
%TF.ProjectId,s3_sensor_board,73335f73-656e-4736-9f72-5f626f617264,rev?*%
%TF.SameCoordinates,Original*%
%TF.FileFunction,Copper,L4,Bot*%
%TF.FilePolarity,Positive*%
%FSLAX46Y46*%
G04 Gerber Fmt 4.6, Leading zero omitted, Abs format (unit mm)*
G04 Created by KiCad (PCBNEW 10.0.6) date 2026-09-24 09:55:40*
%MOMM*%
%LPD*%
G01*
G04 APERTURE LIST*
G04 Aperture macros list*
%AMRoundRect*
0 Rectangle with rounded corners*
0 $1 Rounding radius*
0 $2 $3 $4 $5 $6 $7 $8 $9 X,Y pos of 4 corners*
0 Add a 4 corners polygon primitive as box body*
4,1,4,$2,$3,$4,$5,$6,$7,$8,$9,$2,$3,0*
0 Add four circle primitives for the rounded corners*
1,1,$1+$1,$2,$3*
1,1,$1+$1,$4,$5*
1,1,$1+$1,$6,$7*
1,1,$1+$1,$8,$9*
0 Add four rect primitives between the rounded corners*
20,1,$1+$1,$2,$3,$4,$5,0*
20,1,$1+$1,$4,$5,$6,$7,0*
20,1,$1+$1,$6,$7,$8,$9,0*
20,1,$1+$1,$8,$9,$2,$3,0*%
G04 Aperture macros list end*
%TA.AperFunction,SMDPad,CuDef*%
%ADD10RoundRect,0.150000X0.150000X0.600000X-0.150000X0.600000X-0.150000X-0.600000X0.150000X-0.600000X0*%
%TD*%
%TA.AperFunction,ComponentPad*%
%ADD11R,1.700000X1.700000*%
%TD*%
%TA.AperFunction,ComponentPad*%
%ADD12C,1.700000*%
%TD*%
%TA.AperFunction,ComponentPad*%
%ADD13C,0.700000*%
%TD*%
%TA.AperFunction,ComponentPad*%
%ADD14O,0.900000X2.400000*%
%TD*%
%TA.AperFunction,ComponentPad*%
%ADD15O,0.900000X1.700000*%
%TD*%
%TA.AperFunction,ComponentPad*%
%ADD16RoundRect,0.250000X0.600000X-0.600000X0.600000X0.600000X-0.600000X0.600000X-0.600000X-0.600000X0*%
%TD*%
%TA.AperFunction,ViaPad*%
%ADD17C,0.800000*%
%TD*%
%TA.AperFunction,ViaPad*%
%ADD18C,0.500000*%
%TD*%
%TA.AperFunction,Conductor*%
%ADD19C,0.250000*%
%TD*%
%TA.AperFunction,Conductor*%
%ADD20C,0.200000*%
%TD*%
%TA.AperFunction,Conductor*%
%ADD21C,1.000000*%
%TD*%
%TA.AperFunction,Conductor*%
%ADD22C,0.400000*%
%TD*%
%TA.AperFunction,Conductor*%
%ADD23C,0.267208*%
%TD*%
G04 APERTURE END LIST*
D10*
%TO.P,J303,1,DAT2_1*%
%TO.N,/Microprocessor/SD_DAT2*%
X147400000Y-138650000D03*
%TO.P,J303,2,DAT3/CD_2*%
%TO.N,/Microprocessor/SD_DAT3*%
X148500000Y-138650000D03*
%TO.P,J303,3,CMD_3*%
%TO.N,/Microprocessor/SD_CMD*%
X149600000Y-138650000D03*
%TO.P,J303,4,VDD_4*%
%TO.N,/Microprocessor/SD_VDD*%
X150700000Y-138650000D03*
%TO.P,J303,5,CLK_5*%
%TO.N,/Microprocessor/SD_SCK*%
X151800000Y-138650000D03*
%TO.P,J303,6,VSS_6*%
%TO.N,GND*%
X152900000Y-138650000D03*
%TO.P,J303,7,DAT0_7*%
%TO.N,/Microprocessor/SD_DAT0*%
X154000000Y-138650000D03*
%TO.P,J303,8,DAT1_8*%
%TO.N,/Microprocessor/SD_DAT1*%
X155100000Y-138650000D03*
%TO.P,J303,9,DET_B_9*%
%TO.N,GND*%
X146300000Y-138650000D03*
%TO.P,J303,10,DET_A_10*%
%TO.N,/Microprocessor/SD_DET*%
X145200000Y-138650000D03*
%TO.P,J303,11,SHIELD_11*%
%TO.N,unconnected-(J303-SHIELD-Pad11)*%
X143200000Y-146400000D03*
%TO.N,unconnected-(J303-SHIELD-Pad11)_1*%
X157700000Y-146400000D03*
%TD*%
D11*
%TO.P,J102,1,Pin_1_1*%
%TO.N,GND*%
X157900000Y-62800000D03*
D12*
%TO.P,J102,2,Pin_2_2*%
%TO.N,+3.3V*%
X157900000Y-65340000D03*
%TO.P,J102,3,Pin_3_3*%
%TO.N,/TPS56425X Regulator/PWR_GD*%
X157900000Y-67880000D03*
%TD*%
D11*
%TO.P,J101,1,Pin_1_1*%
%TO.N,GND*%
X143000000Y-65225000D03*
D12*
%TO.P,J101,2,Pin_2_2*%
%TO.N,/TPS56425X Regulator/Vin*%
X143000000Y-67765000D03*
%TD*%
D13*
%TO.P,J301,A1,GND_A1*%
%TO.N,GND*%
X153475000Y-68525000D03*
%TO.P,J301,A4,VBUS_A4*%
%TO.N,/Microprocessor/V_usb*%
X152625000Y-68525000D03*
%TO.P,J301,A5,CC1_A5*%
%TO.N,Net-(J301-CC1)*%
X151775000Y-68525000D03*
%TO.P,J301,A6,D+_A6*%
%TO.N,/Microprocessor/USB_P*%
X150925000Y-68525000D03*
%TO.P,J301,A7,D-_A7*%
%TO.N,/Microprocessor/USB_N*%
X150075000Y-68525000D03*
%TO.P,J301,A8,SBU1_A8*%
%TO.N,unconnected-(J301-SBU1-PadA8)*%
X149225000Y-68525000D03*
%TO.P,J301,A9,VBUS_A9*%
%TO.N,/Microprocessor/V_usb*%
X148375000Y-68525000D03*
%TO.P,J301,A12,GND_A12*%
%TO.N,GND*%
X147525000Y-68525000D03*
%TO.P,J301,B1,GND_B1*%
X147525000Y-67175000D03*
%TO.P,J301,B4,VBUS_B4*%
%TO.N,/Microprocessor/V_usb*%
X148375000Y-67175000D03*
%TO.P,J301,B5,CC2_B5*%
%TO.N,Net-(J301-CC2)*%
X149225000Y-67175000D03*
%TO.P,J301,B6,D+_B6*%
%TO.N,/Microprocessor/USB_P*%
X150075000Y-67175000D03*
%TO.P,J301,B7,D-_B7*%
%TO.N,/Microprocessor/USB_N*%
X150925000Y-67175000D03*
%TO.P,J301,B8,SBU2_B8*%
%TO.N,unconnected-(J301-SBU2-PadB8)*%
X151775000Y-67175000D03*
%TO.P,J301,B9,VBUS_B9*%
%TO.N,/Microprocessor/V_usb*%
X152625000Y-67175000D03*
%TO.P,J301,B12,GND_B12*%
%TO.N,GND*%
X153475000Y-67175000D03*
D14*
%TO.P,J301,SH,SHIELD_SH*%
%TO.N,unconnected-(J301-SHIELD-PadSH)_2*%
X154825000Y-67545000D03*
D15*
%TO.N,unconnected-(J301-SHIELD-PadSH)_3*%
X154825000Y-64165000D03*
D14*
%TO.N,unconnected-(J301-SHIELD-PadSH)*%
X146175000Y-67545000D03*
D15*
%TO.N,unconnected-(J301-SHIELD-PadSH)_1*%
X146175000Y-64165000D03*
%TD*%
D16*
%TO.P,J103,1,Pin_1_1*%
%TO.N,GND*%
X155580000Y-130752500D03*
D12*
%TO.P,J103,2,Pin_2_2*%
%TO.N,+3.3V*%
X155580000Y-128212500D03*
%TO.P,J103,3,Pin_3_3*%
%TO.N,/PDM_CLK*%
X153040000Y-130752500D03*
%TO.P,J103,4,Pin_4_4*%
%TO.N,/PDM_D0*%
X153040000Y-128212500D03*
%TO.P,J103,5,Pin_5_5*%
%TO.N,/PDM_D1*%
X150500000Y-130752500D03*
%TO.P,J103,6,Pin_6_6*%
%TO.N,/PDM_D2*%
X150500000Y-128212500D03*
%TO.P,J103,7,Pin_7_7*%
%TO.N,/PDM_D3*%
X147960000Y-130752500D03*
%TO.P,J103,8,Pin_8_8*%
%TO.N,/I2C_SCL*%
X147960000Y-128212500D03*
%TO.P,J103,9,Pin_9_9*%
%TO.N,/I2C_SDA*%
X145420000Y-130752500D03*
%TO.P,J103,10,Pin_10_10*%
%TO.N,/INT*%
X145420000Y-128212500D03*
%TD*%
D17*
%TO.N,+3.3V*%
X150700000Y-69600000D03*
D18*
X151500000Y-85000000D03*
X144250000Y-110250000D03*
X159250000Y-99500000D03*
X154500000Y-85000000D03*
X159250000Y-128250000D03*
X159250000Y-98750000D03*
X146250000Y-115500000D03*
X159250000Y-145000000D03*
X152750000Y-85000000D03*
X156000000Y-85000000D03*
%TO.N,GND*%
X142750000Y-84750000D03*
X144000000Y-87750000D03*
X151250000Y-96000000D03*
X149500000Y-82000000D03*
X158300000Y-115500000D03*
X156500000Y-124700000D03*
X155200000Y-124700000D03*
X141250000Y-90250000D03*
X155000000Y-115500000D03*
X151500000Y-140400000D03*
X158300000Y-119500000D03*
X157750000Y-94750000D03*
X151500000Y-142200000D03*
X153300000Y-140400000D03*
X145100000Y-113750000D03*
X155750000Y-79250000D03*
X152100000Y-96800000D03*
X150250000Y-99000000D03*
X154750000Y-81000000D03*
X143750000Y-108500000D03*
X147900000Y-112300000D03*
X150250000Y-98000000D03*
X153250000Y-80750000D03*
X155000000Y-109000000D03*
X153250000Y-78250000D03*
X151250000Y-80750000D03*
X141250000Y-92500000D03*
X153000000Y-89500000D03*
X150250000Y-112500000D03*
X143250000Y-110500000D03*
X156500000Y-80000000D03*
X147900000Y-111600000D03*
X150250000Y-113750000D03*
D17*
X150500000Y-74200000D03*
D18*
X154750000Y-78250000D03*
X151250000Y-99000000D03*
X155500000Y-89500000D03*
X148800000Y-116300000D03*
X153300000Y-142200000D03*
X155000000Y-119500000D03*
X146500000Y-87750000D03*
X149500000Y-87750000D03*
X150750000Y-92000000D03*
X144750000Y-116000000D03*
X150300000Y-116300000D03*
X145000000Y-92250000D03*
X153000000Y-87750000D03*
X157750000Y-92000000D03*
X155500000Y-87750000D03*
X149500000Y-92000000D03*
X153300000Y-137200000D03*
X150250000Y-118900000D03*
X150250000Y-124750000D03*
X148250000Y-124750000D03*
X152000000Y-78250000D03*
X155000000Y-107750000D03*
X152100000Y-98000000D03*
%TO.N,/Microprocessor/CHIP_EN*%
X158000000Y-150750000D03*
X153500000Y-101500000D03*
%TO.N,/I2C_SDA*%
X141500000Y-105750000D03*
%TO.N,/I2C_SCL*%
X142000000Y-105000000D03*
%TO.N,/Microprocessor/BOOT_MODE*%
X146250000Y-152000000D03*
X152250000Y-101000000D03*
%TO.N,/Microprocessor/Vin_DIV*%
X142750000Y-87000000D03*
X150750000Y-104000000D03*
%TO.N,/PDM_CLK*%
X149300000Y-99200000D03*
%TO.N,/PDM_D0*%
X149300000Y-98400000D03*
%TO.N,/PDM_D1*%
X148500000Y-98000000D03*
%TO.N,/PDM_D2*%
X147900000Y-98400000D03*
%TO.N,/PDM_D3*%
X147500000Y-99000000D03*
%TO.N,/INT*%
X142000000Y-106250000D03*
%TO.N,/Microprocessor/SD_DET*%
X145750000Y-136500000D03*
%TO.N,/Microprocessor/SD_DAT2*%
X147300000Y-137200000D03*
%TO.N,/Microprocessor/SD_DAT3*%
X148500000Y-137200000D03*
%TO.N,/Microprocessor/SD_CMD*%
X149700000Y-136800000D03*
%TO.N,/Microprocessor/SD_SCK*%
X151700000Y-137000000D03*
%TO.N,/Microprocessor/SD_DAT0*%
X154100000Y-137000000D03*
%TO.N,/Microprocessor/SD_DAT1*%
X155300000Y-136800000D03*
%TO.N,/Microprocessor/STATUS_LED*%
X147250000Y-116250000D03*
X147200000Y-110600000D03*
%TO.N,/TPS56425X Regulator/PWR_GD*%
X154000000Y-75000000D03*
%TO.N,/Microprocessor/SD_VDD*%
X150700000Y-137200000D03*
%TD*%
%TO.N,/Microprocessor/V_usb*%
D19*
X148375000Y-67175000D02*
X148375000Y-66725000D01*
X148375000Y-66725000D02*
X149100000Y-66000000D01*
X152100000Y-66000000D02*
X152625000Y-66525000D01*
X149100000Y-66000000D02*
X152100000Y-66000000D01*
X152625000Y-66525000D02*
X152625000Y-67175000D01*
%TO.N,+3.3V*%
X156500000Y-69000000D02*
X156500000Y-66740000D01*
X156500000Y-66740000D02*
X157900000Y-65340000D01*
X155900000Y-69600000D02*
X156500000Y-69000000D01*
X150700000Y-69600000D02*
X155900000Y-69600000D01*
%TO.N,/PDM_D0*%
D20*
X148800000Y-98900000D02*
X149300000Y-98400000D01*
%TO.N,+3.3V*%
D21*
X154500000Y-85000000D02*
X157400000Y-82100000D01*
X157400000Y-79627207D02*
X159370000Y-77657207D01*
X157400000Y-82100000D02*
X157400000Y-79627207D01*
X159250000Y-89250000D02*
X159250000Y-128250000D01*
D22*
X144250000Y-114057107D02*
X145692893Y-115500000D01*
D21*
X159370000Y-77657207D02*
X159370000Y-66810000D01*
X159250000Y-128250000D02*
X159250000Y-145000000D01*
X159370000Y-66810000D02*
X157900000Y-65340000D01*
X154500000Y-85000000D02*
X158750000Y-89250000D01*
D22*
X145692893Y-115500000D02*
X146250000Y-115500000D01*
X144250000Y-110250000D02*
X144250000Y-114057107D01*
%TO.N,GND*%
D20*
X146300000Y-138650000D02*
X146300000Y-137458204D01*
X146300000Y-137458204D02*
X146529102Y-137229102D01*
%TO.N,/Microprocessor/CHIP_EN*%
X157780000Y-145048234D02*
X158220000Y-145488234D01*
X158220000Y-150530000D02*
X158000000Y-150750000D01*
X157780000Y-105780000D02*
X153500000Y-101500000D01*
X158220000Y-145488234D02*
X158220000Y-150530000D01*
X157780000Y-145048234D02*
X157780000Y-105780000D01*
%TO.N,/Microprocessor/USB_P*%
D23*
X150925000Y-68113478D02*
X150075000Y-67263478D01*
X150925000Y-68525000D02*
X150925000Y-68113478D01*
%TO.N,/I2C_SDA*%
D20*
X141400000Y-105850000D02*
X141500000Y-105750000D01*
X141400000Y-126732500D02*
X141400000Y-105850000D01*
X145420000Y-130752500D02*
X141400000Y-126732500D01*
%TO.N,/I2C_SCL*%
X142500000Y-122752500D02*
X142500000Y-105500000D01*
X142500000Y-105500000D02*
X142000000Y-105000000D01*
X147960000Y-128212500D02*
X142500000Y-122752500D01*
%TO.N,/Microprocessor/BOOT_MODE*%
X157460000Y-144837452D02*
X157430000Y-144867452D01*
X157180000Y-150070000D02*
X155250000Y-152000000D01*
X157430000Y-145392584D02*
X157180000Y-145642584D01*
X157460000Y-106210000D02*
X157460000Y-144837452D01*
X157430000Y-144867452D02*
X157430000Y-145392584D01*
X157180000Y-145642584D02*
X157180000Y-150070000D01*
X155250000Y-152000000D02*
X146250000Y-152000000D01*
X152250000Y-101000000D02*
X157460000Y-106210000D01*
%TO.N,/Microprocessor/Vin_DIV*%
X150750000Y-104000000D02*
X142750000Y-96000000D01*
X142750000Y-96000000D02*
X142750000Y-87000000D01*
%TO.N,/PDM_CLK*%
X149552548Y-99200000D02*
X153360000Y-103007452D01*
X154110000Y-129682500D02*
X153040000Y-130752500D01*
X153360000Y-103007452D02*
X153360000Y-103260000D01*
X153360000Y-103260000D02*
X154110000Y-104010000D01*
X154110000Y-104010000D02*
X154110000Y-129682500D01*
X149300000Y-99200000D02*
X149552548Y-99200000D01*
%TO.N,/PDM_D0*%
X153040000Y-103647107D02*
X148800000Y-99407107D01*
X148800000Y-99407107D02*
X148800000Y-98900000D01*
X153040000Y-128212500D02*
X153040000Y-103647107D01*
%TO.N,/PDM_D1*%
X148500000Y-98747452D02*
X148500000Y-98000000D01*
X152500000Y-126400000D02*
X152500000Y-103852548D01*
X148380000Y-99732548D02*
X148380000Y-98867452D01*
X148380000Y-98867452D02*
X148500000Y-98747452D01*
X151700000Y-127200000D02*
X152500000Y-126400000D01*
X152500000Y-103852548D02*
X148380000Y-99732548D01*
X151700000Y-129552500D02*
X151700000Y-127200000D01*
X150500000Y-130752500D02*
X151700000Y-129552500D01*
%TO.N,/PDM_D2*%
X148060000Y-99865096D02*
X148060000Y-98560000D01*
X151900000Y-103705096D02*
X148060000Y-99865096D01*
X148060000Y-98560000D02*
X147900000Y-98400000D01*
X151900000Y-126000000D02*
X151900000Y-103705096D01*
X150500000Y-127400000D02*
X151900000Y-126000000D01*
X150500000Y-128212500D02*
X150500000Y-127400000D01*
%TO.N,/PDM_D3*%
X149430000Y-127270000D02*
X151300000Y-125400000D01*
X149430000Y-129282500D02*
X149430000Y-127270000D01*
X151300000Y-103557644D02*
X147500000Y-99757644D01*
X151300000Y-125400000D02*
X151300000Y-103557644D01*
X147960000Y-130752500D02*
X149430000Y-129282500D01*
X147500000Y-99757644D02*
X147500000Y-99000000D01*
%TO.N,/INT*%
X141900000Y-106350000D02*
X142000000Y-106250000D01*
X141900000Y-124692500D02*
X141900000Y-106350000D01*
X145420000Y-128212500D02*
X141900000Y-124692500D01*
%TO.N,/Microprocessor/SD_DET*%
X145200000Y-137050000D02*
X145200000Y-138650000D01*
X145750000Y-136500000D02*
X145200000Y-137050000D01*
%TO.N,/Microprocessor/SD_DAT2*%
X147300000Y-137200000D02*
X147300000Y-138550000D01*
%TO.N,/Microprocessor/SD_DAT3*%
X148500000Y-137200000D02*
X148500000Y-138650000D01*
%TO.N,/Microprocessor/SD_CMD*%
X149700000Y-136800000D02*
X149700000Y-138550000D01*
%TO.N,/Microprocessor/SD_SCK*%
X151800000Y-137100000D02*
X151700000Y-137000000D01*
X151800000Y-138650000D02*
X151800000Y-137100000D01*
%TO.N,/Microprocessor/SD_DAT0*%
X154100000Y-137000000D02*
X154100000Y-138550000D01*
%TO.N,/Microprocessor/SD_DAT1*%
X155300000Y-136800000D02*
X155300000Y-138450000D01*
%TO.N,/Microprocessor/STATUS_LED*%
X147200000Y-110700000D02*
X147300000Y-110600000D01*
X147200000Y-116200000D02*
X147200000Y-110700000D01*
X147250000Y-116250000D02*
X147200000Y-116200000D01*
%TO.N,/TPS56425X Regulator/PWR_GD*%
D19*
X154000000Y-75000000D02*
X156000000Y-75000000D01*
X156000000Y-75000000D02*
X157900000Y-73100000D01*
X157900000Y-73100000D02*
X157900000Y-67880000D01*
%TO.N,/Microprocessor/SD_VDD*%
D20*
X150700000Y-137200000D02*
X150700000Y-138650000D01*
%TD*%
%TA.AperFunction,Conductor*%
%TO.N,GND*%
G36*
X158499156Y-60000524D02*
G01*
X158500829Y-60000578D01*
X158502365Y-60000654D01*
X158756198Y-60017291D01*
X158759351Y-60017601D01*
X158762565Y-60018025D01*
X158765708Y-60018545D01*
X159012794Y-60067693D01*
X159015909Y-60068419D01*
X159018988Y-60069244D01*
X159022042Y-60070170D01*
X159260619Y-60151155D01*
X159263616Y-60152283D01*
X159266567Y-60153505D01*
X159269488Y-60154828D01*
X159495455Y-60266264D01*
X159498253Y-60267759D01*
X159501034Y-60269365D01*
X159503742Y-60271049D01*
X159596572Y-60333076D01*
X159713213Y-60411013D01*
X159715808Y-60412872D01*
X159718375Y-60414842D01*
X159720842Y-60416867D01*
X159910241Y-60582966D01*
X159912581Y-60585158D01*
X159914840Y-60587417D01*
X159917032Y-60589757D01*
X160083131Y-60779156D01*
X160085158Y-60781626D01*
X160085163Y-60781632D01*
X160085166Y-60781635D01*
X160087118Y-60784179D01*
X160088985Y-60786785D01*
X160228939Y-60996241D01*
X160230631Y-60998963D01*
X160232235Y-61001741D01*
X160233748Y-61004570D01*
X160345167Y-61230505D01*
X160346485Y-61233412D01*
X160347714Y-61236380D01*
X160348845Y-61239382D01*
X160429822Y-61477936D01*
X160430756Y-61481016D01*
X160431585Y-61484113D01*
X160432309Y-61487224D01*
X160481452Y-61734285D01*
X160481974Y-61737440D01*
X160482392Y-61740611D01*
X160482707Y-61743810D01*
X160499341Y-61997588D01*
X160499419Y-61999161D01*
X160499473Y-62000781D01*
X160499500Y-62002413D01*
X160499500Y-157997585D01*
X160499473Y-157999217D01*
X160499419Y-158000837D01*
X160499341Y-158002410D01*
X160482707Y-158256188D01*
X160482392Y-158259387D01*
X160481974Y-158262558D01*
X160481452Y-158265713D01*
X160432309Y-158512774D01*
X160431585Y-158515885D01*
X160430756Y-158518982D01*
X160429822Y-158522062D01*
X160348845Y-158760616D01*
X160347710Y-158763631D01*
X160346485Y-158766586D01*
X160345167Y-158769493D01*
X160233748Y-158995428D01*
X160232235Y-158998257D01*
X160230631Y-159001035D01*
X160228939Y-159003757D01*
X160088985Y-159213213D01*
X160087118Y-159215819D01*
X160085166Y-159218363D01*
X160083131Y-159220842D01*
X159917032Y-159410241D01*
X159914840Y-159412581D01*
X159912581Y-159414840D01*
X159910241Y-159417032D01*
X159720842Y-159583131D01*
X159718363Y-159585166D01*
X159715819Y-159587118D01*
X159713213Y-159588985D01*
X159503757Y-159728939D01*
X159501035Y-159730631D01*
X159498257Y-159732235D01*
X159495428Y-159733748D01*
X159269493Y-159845167D01*
X159266586Y-159846485D01*
X159263631Y-159847710D01*
X159260616Y-159848845D01*
X159022062Y-159929822D01*
X159018982Y-159930756D01*
X159015885Y-159931585D01*
X159012774Y-159932309D01*
X158765713Y-159981452D01*
X158762558Y-159981974D01*
X158759387Y-159982392D01*
X158756188Y-159982707D01*
X158502411Y-159999341D01*
X158500839Y-159999419D01*
X158499220Y-159999473D01*
X158497587Y-159999500D01*
X142502413Y-159999500D01*
X142500781Y-159999473D01*
X142499161Y-159999419D01*
X142497588Y-159999341D01*
X142243810Y-159982707D01*
X142240611Y-159982392D01*
X142237440Y-159981974D01*
X142234285Y-159981452D01*
X141987224Y-159932309D01*
X141984113Y-159931585D01*
X141981016Y-159930756D01*
X141977936Y-159929822D01*
X141739382Y-159848845D01*
X141736380Y-159847714D01*
X141734871Y-159847089D01*
X141733412Y-159846485D01*
X141730505Y-159845167D01*
X141575201Y-159768580D01*
X141504562Y-159733744D01*
X141501738Y-159732235D01*
X141498959Y-159730630D01*
X141496244Y-159728941D01*
X141390862Y-159658527D01*
X141286785Y-159588985D01*
X141284179Y-159587118D01*
X141281626Y-159585158D01*
X141279156Y-159583131D01*
X141089757Y-159417032D01*
X141087417Y-159414840D01*
X141085158Y-159412581D01*
X141082966Y-159410241D01*
X140916867Y-159220842D01*
X140914832Y-159218362D01*
X140912877Y-159215814D01*
X140911013Y-159213213D01*
X140905143Y-159204428D01*
X140771048Y-159003741D01*
X140769365Y-159001034D01*
X140767759Y-158998253D01*
X140766261Y-158995449D01*
X140654828Y-158769487D01*
X140653506Y-158766568D01*
X140652286Y-158763623D01*
X140651155Y-158760620D01*
X140570176Y-158522062D01*
X140569247Y-158519001D01*
X140568411Y-158515876D01*
X140567689Y-158512774D01*
X140518546Y-158265713D01*
X140518026Y-158262575D01*
X140517603Y-158259360D01*
X140517291Y-158256188D01*
X140500658Y-158002410D01*
X140500579Y-158000807D01*
X140500526Y-157999187D01*
X140500500Y-157997585D01*
X140500500Y-145766740D01*
X142699500Y-145766740D01*
X142699500Y-147033260D01*
X142709427Y-147101393D01*
X142760802Y-147206483D01*
X142843517Y-147289198D01*
X142948607Y-147340573D01*
X142996879Y-147347605D01*
X142996881Y-147347606D01*
X142996882Y-147347606D01*
X143003502Y-147348570D01*
X143016738Y-147350500D01*
X143016740Y-147350500D01*
X143383259Y-147350500D01*
X143383262Y-147350500D01*
X143393658Y-147348984D01*
X143400592Y-147347974D01*
X143400592Y-147347973D01*
X143451393Y-147340573D01*
X143556483Y-147289198D01*
X143639198Y-147206483D01*
X143690573Y-147101393D01*
X143700500Y-147033260D01*
X143700500Y-145766740D01*
X143690573Y-145698607D01*
X143639198Y-145593517D01*
X143556483Y-145510802D01*
X143556482Y-145510801D01*
X143556480Y-145510800D01*
X143503938Y-145485114D01*
X143503938Y-145485113D01*
X143451620Y-145459537D01*
X143451401Y-145459429D01*
X143451396Y-145459427D01*
X143383264Y-145449500D01*
X143383262Y-145449500D01*
X143383260Y-145449500D01*
X143016740Y-145449500D01*
X143016738Y-145449500D01*
X143016736Y-145449500D01*
X142948605Y-145459427D01*
X142948590Y-145459432D01*
X142948423Y-145459515D01*
X142843518Y-145510801D01*
X142843513Y-145510804D01*
X142760804Y-145593513D01*
X142760801Y-145593518D01*
X142709515Y-145698423D01*
X142709429Y-145698597D01*
X142709055Y-145700178D01*
X142708930Y-145701906D01*
X142708940Y-145701944D01*
X142708909Y-145702159D01*
X142699500Y-145766740D01*
X140500500Y-145766740D01*
X140500500Y-141551451D01*
X144549500Y-141551451D01*
X144549500Y-141748547D01*
X144587942Y-141941804D01*
X144587943Y-141941811D01*
X144587951Y-141941842D01*
X144663366Y-142123910D01*
X144663368Y-142123914D01*
X144772861Y-142287782D01*
X144912218Y-142427139D01*
X145076086Y-142536632D01*
X145258165Y-142612051D01*
X145451459Y-142650500D01*
X145648541Y-142650500D01*
X145841835Y-142612051D01*
X146023914Y-142536632D01*
X146187782Y-142427139D01*
X146327139Y-142287782D01*
X146436632Y-142123914D01*
X146512051Y-141941835D01*
X146550500Y-141748541D01*
X146550500Y-141551459D01*
X146550498Y-141551451D01*
X154349500Y-141551451D01*
X154349500Y-141748547D01*
X154387942Y-141941804D01*
X154387943Y-141941811D01*
X154387951Y-141941842D01*
X154463366Y-142123910D01*
X154463368Y-142123914D01*
X154572861Y-142287782D01*
X154712218Y-142427139D01*
X154876086Y-142536632D01*
X155058165Y-142612051D01*
X155251459Y-142650500D01*
X155448541Y-142650500D01*
X155641835Y-142612051D01*
X155823914Y-142536632D01*
X155987782Y-142427139D01*
X156127139Y-142287782D01*
X156236632Y-142123914D01*
X156312051Y-141941835D01*
X156350500Y-141748541D01*
X156350500Y-141551459D01*
X156312051Y-141358165D01*
X156236632Y-141176086D01*
X156127139Y-141012218D01*
X155987782Y-140872861D01*
X155987779Y-140872859D01*
X155823893Y-140763354D01*
X155823893Y-140763353D01*
X155823502Y-140763093D01*
X155821670Y-140762438D01*
X155641844Y-140687952D01*
X155641840Y-140687950D01*
X155641836Y-140687949D01*
X155641833Y-140687948D01*
X155641829Y-140687947D01*
X155641790Y-140687939D01*
X155448547Y-140649500D01*
X155448544Y-140649500D01*
X155448541Y-140649500D01*
X155251459Y-140649500D01*
X155251455Y-140649500D01*
X155251451Y-140649500D01*
X155058208Y-140687939D01*
X155058169Y-140687947D01*
X155058154Y-140687952D01*
X154876092Y-140763364D01*
X154712218Y-140872859D01*
X154572859Y-141012218D01*
X154463364Y-141176092D01*
X154387952Y-141358154D01*
X154387947Y-141358169D01*
X154387939Y-141358208D01*
X154349500Y-141551451D01*
X146550498Y-141551451D01*
X146537802Y-141487622D01*
X146512051Y-141358165D01*
X146436632Y-141176086D01*
X146327139Y-141012218D01*
X146187782Y-140872861D01*
X146187779Y-140872859D01*
X146023893Y-140763354D01*
X146023893Y-140763353D01*
X146023502Y-140763093D01*
X146021670Y-140762438D01*
X145841844Y-140687952D01*
X145841840Y-140687950D01*
X145841836Y-140687949D01*
X145841833Y-140687948D01*
X145841829Y-140687947D01*
X145841790Y-140687939D01*
X145648547Y-140649500D01*
X145648544Y-140649500D01*
X145648541Y-140649500D01*
X145451459Y-140649500D01*
X145451455Y-140649500D01*
X145451451Y-140649500D01*
X145258208Y-140687939D01*
X145258169Y-140687947D01*
X145258154Y-140687952D01*
X145076092Y-140763364D01*
X144912218Y-140872859D01*
X144772859Y-141012218D01*
X144663364Y-141176092D01*
X144587952Y-141358154D01*
X144587947Y-141358169D01*
X144587939Y-141358208D01*
X144549500Y-141551451D01*
X140500500Y-141551451D01*
X140500500Y-138016738D01*
X144699500Y-138016738D01*
X144699500Y-138019108D01*
X144699500Y-139283262D01*
X144709427Y-139351393D01*
X144709431Y-139351404D01*
X144709466Y-139351476D01*
X144709620Y-139351789D01*
X144709649Y-139351913D01*
X144709675Y-139351901D01*
X144760802Y-139456483D01*
X144843517Y-139539198D01*
X144948607Y-139590573D01*
X144996879Y-139597605D01*
X144996881Y-139597606D01*
X144996882Y-139597606D01*
X145003502Y-139598570D01*
X145016738Y-139600500D01*
X145016740Y-139600500D01*
X145383259Y-139600500D01*
X145383262Y-139600500D01*
X145393658Y-139598984D01*
X145400592Y-139597974D01*
X145400592Y-139597973D01*
X145451393Y-139590573D01*
X145556483Y-139539198D01*
X145639198Y-139456483D01*
X145690326Y-139351899D01*
X145810230Y-139351899D01*
X145810230Y-139351900D01*
X145861213Y-139456186D01*
X145861215Y-139456190D01*
X145943809Y-139538784D01*
X145943813Y-139538786D01*
X146048751Y-139590087D01*
X146101426Y-139597762D01*
X146116777Y-139599999D01*
X146483221Y-139599999D01*
X146483223Y-139599999D01*
X146530298Y-139593140D01*
X146547734Y-139590599D01*
X146549629Y-139590462D01*
X146551239Y-139590089D01*
X146551248Y-139590088D01*
X146551249Y-139590088D01*
X146656186Y-139538787D01*
X146656190Y-139538784D01*
X146738784Y-139456190D01*
X146738788Y-139456184D01*
X146789768Y-139351901D01*
X146789768Y-139351900D01*
X146300000Y-138862132D01*
X145810230Y-139351899D01*
X145690326Y-139351899D01*
X145690573Y-139351393D01*
X145700500Y-139283260D01*
X145700500Y-138937866D01*
X145800000Y-138937866D01*
X146087868Y-138650000D01*
X146087866Y-138649998D01*
X146512132Y-138649998D01*
X146512132Y-138649999D01*
X146512132Y-138650000D01*
X146799999Y-138937867D01*
X146799999Y-138362132D01*
X146512132Y-138649998D01*
X146087866Y-138649998D01*
X145800000Y-138362132D01*
X145800000Y-138937866D01*
X145700500Y-138937866D01*
X145700500Y-138016740D01*
X145700499Y-138016736D01*
X145690713Y-137949568D01*
X145690713Y-137949566D01*
X145690573Y-137948609D01*
X145690573Y-137948607D01*
X145690323Y-137948096D01*
X145810230Y-137948096D01*
X145810230Y-137948098D01*
X146300000Y-138437868D01*
X146300001Y-138437868D01*
X146789768Y-137948098D01*
X146738801Y-137843843D01*
X146738786Y-137843812D01*
X146738782Y-137843807D01*
X146656190Y-137761215D01*
X146656155Y-137761198D01*
X146655333Y-137760796D01*
X146551248Y-137709912D01*
X146528572Y-137706608D01*
X146483222Y-137700000D01*
X146483220Y-137700000D01*
X146116778Y-137700000D01*
X146116776Y-137700000D01*
X146085417Y-137704569D01*
X146052264Y-137709399D01*
X146050369Y-137709536D01*
X146048749Y-137709911D01*
X145943814Y-137761210D01*
X145943810Y-137761213D01*
X145943803Y-137761219D01*
X145861213Y-137843810D01*
X145861209Y-137843816D01*
X145810230Y-137948096D01*
X145690323Y-137948096D01*
X145639198Y-137843517D01*
X145556483Y-137760802D01*
X145556482Y-137760801D01*
X145556479Y-137760799D01*
X145536735Y-137751147D01*
X145521524Y-137739557D01*
X145512768Y-137729640D01*
X145500500Y-137697209D01*
X145500500Y-137204514D01*
X145501826Y-137200918D01*
X145504229Y-137185764D01*
X145511123Y-137169120D01*
X145521741Y-137153229D01*
X145534285Y-137140685D01*
X146849500Y-137140685D01*
X146849500Y-137259313D01*
X146876610Y-137360486D01*
X146880200Y-137373884D01*
X146880201Y-137373887D01*
X146894133Y-137398017D01*
X146939507Y-137476607D01*
X146939509Y-137476609D01*
X146939511Y-137476613D01*
X146939512Y-137476614D01*
X146939514Y-137476616D01*
X146978255Y-137515357D01*
X146988877Y-137531252D01*
X146995770Y-137547892D01*
X146999500Y-137566645D01*
X146999500Y-137774775D01*
X146995770Y-137793527D01*
X146988878Y-137810165D01*
X146978256Y-137826061D01*
X146960804Y-137843512D01*
X146960803Y-137843513D01*
X146960786Y-137843548D01*
X146909515Y-137948423D01*
X146909432Y-137948590D01*
X146909427Y-137948605D01*
X146899500Y-138016736D01*
X146899500Y-139283262D01*
X146909427Y-139351393D01*
X146909431Y-139351404D01*
X146909466Y-139351476D01*
X146909620Y-139351789D01*
X146909649Y-139351913D01*
X146909675Y-139351901D01*
X146960802Y-139456483D01*
X147043517Y-139539198D01*
X147148607Y-139590573D01*
X147196879Y-139597605D01*
X147196881Y-139597606D01*
X147196882Y-139597606D01*
X147203502Y-139598570D01*
X147216738Y-139600500D01*
X147216740Y-139600500D01*
X147583259Y-139600500D01*
X147583262Y-139600500D01*
X147593658Y-139598984D01*
X147600592Y-139597974D01*
X147600592Y-139597973D01*
X147651393Y-139590573D01*
X147756483Y-139539198D01*
X147839198Y-139456483D01*
X147890573Y-139351393D01*
X147900500Y-139283260D01*
X147900500Y-138016740D01*
X147900499Y-138016736D01*
X147999500Y-138016736D01*
X147999500Y-139283262D01*
X148009427Y-139351393D01*
X148009431Y-139351404D01*
X148009466Y-139351476D01*
X148009620Y-139351789D01*
X148009649Y-139351913D01*
X148009675Y-139351901D01*
X148060802Y-139456483D01*
X148143517Y-139539198D01*
X148248607Y-139590573D01*
X148296879Y-139597605D01*
X148296881Y-139597606D01*
X148296882Y-139597606D01*
X148303502Y-139598570D01*
X148316738Y-139600500D01*
X148316740Y-139600500D01*
X148683259Y-139600500D01*
X148683262Y-139600500D01*
X148693658Y-139598984D01*
X148700592Y-139597974D01*
X148700592Y-139597973D01*
X148751393Y-139590573D01*
X148856483Y-139539198D01*
X148939198Y-139456483D01*
X148990573Y-139351393D01*
X149000500Y-139283260D01*
X149000500Y-138016740D01*
X149000499Y-138016736D01*
X149099500Y-138016736D01*
X149099500Y-139283262D01*
X149109427Y-139351393D01*
X149109431Y-139351404D01*
X149109466Y-139351476D01*
X149109620Y-139351789D01*
X149109649Y-139351913D01*
X149109675Y-139351901D01*
X149160802Y-139456483D01*
X149243517Y-139539198D01*
X149348607Y-139590573D01*
X149396879Y-139597605D01*
X149396881Y-139597606D01*
X149396882Y-139597606D01*
X149403502Y-139598570D01*
X149416738Y-139600500D01*
X149416740Y-139600500D01*
X149783259Y-139600500D01*
X149783262Y-139600500D01*
X149793658Y-139598984D01*
X149800592Y-139597974D01*
X149800592Y-139597973D01*
X149851393Y-139590573D01*
X149956483Y-139539198D01*
X150039198Y-139456483D01*
X150090573Y-139351393D01*
X150100500Y-139283260D01*
X150100500Y-138016740D01*
X150100499Y-138016736D01*
X150199500Y-138016736D01*
X150199500Y-139283262D01*
X150209427Y-139351393D01*
X150209431Y-139351404D01*
X150209466Y-139351476D01*
X150209620Y-139351789D01*
X150209649Y-139351913D01*
X150209675Y-139351901D01*
X150260802Y-139456483D01*
X150343517Y-139539198D01*
X150448607Y-139590573D01*
X150496879Y-139597605D01*
X150496881Y-139597606D01*
X150496882Y-139597606D01*
X150503502Y-139598570D01*
X150516738Y-139600500D01*
X150516740Y-139600500D01*
X150883259Y-139600500D01*
X150883262Y-139600500D01*
X150893658Y-139598984D01*
X150900592Y-139597974D01*
X150900592Y-139597973D01*
X150951393Y-139590573D01*
X151056483Y-139539198D01*
X151139198Y-139456483D01*
X151190573Y-139351393D01*
X151200500Y-139283260D01*
X151200500Y-138016740D01*
X151200499Y-138016736D01*
X151195193Y-137980317D01*
X151190573Y-137948607D01*
X151139198Y-137843517D01*
X151056483Y-137760802D01*
X151056482Y-137760801D01*
X151056479Y-137760799D01*
X151036735Y-137751147D01*
X151021524Y-137739557D01*
X151012768Y-137729640D01*
X151000500Y-137697209D01*
X151000500Y-137566645D01*
X151004229Y-137547895D01*
X151004230Y-137547892D01*
X151011123Y-137531251D01*
X151021739Y-137515362D01*
X151060488Y-137476614D01*
X151060489Y-137476613D01*
X151119799Y-137373886D01*
X151145863Y-137276614D01*
X151150500Y-137259311D01*
X151150500Y-137140688D01*
X151150500Y-137140686D01*
X151128694Y-137059310D01*
X151119799Y-137026115D01*
X151119798Y-137026112D01*
X151082770Y-136961979D01*
X151082770Y-136961978D01*
X151082767Y-136961974D01*
X151076143Y-136950500D01*
X151070476Y-136940685D01*
X151249500Y-136940685D01*
X151249500Y-137059313D01*
X151280195Y-137173866D01*
X151280200Y-137173884D01*
X151280201Y-137173887D01*
X151310804Y-137226892D01*
X151339507Y-137276607D01*
X151339509Y-137276610D01*
X151339511Y-137276613D01*
X151423387Y-137360489D01*
X151423390Y-137360490D01*
X151423393Y-137360493D01*
X151466558Y-137385414D01*
X151480930Y-137398017D01*
X151489372Y-137409017D01*
X151499500Y-137438849D01*
X151499500Y-137693097D01*
X151495770Y-137711849D01*
X151490707Y-137724072D01*
X151466959Y-137749341D01*
X151443517Y-137760801D01*
X151443514Y-137760803D01*
X151360804Y-137843513D01*
X151360801Y-137843518D01*
X151309515Y-137948423D01*
X151309432Y-137948590D01*
X151309427Y-137948605D01*
X151299500Y-138016736D01*
X151299500Y-139283262D01*
X151309427Y-139351393D01*
X151309431Y-139351404D01*
X151309466Y-139351476D01*
X151309620Y-139351789D01*
X151309649Y-139351913D01*
X151309675Y-139351901D01*
X151360802Y-139456483D01*
X151443517Y-139539198D01*
X151548607Y-139590573D01*
X151596879Y-139597605D01*
X151596881Y-139597606D01*
X151596882Y-139597606D01*
X151603502Y-139598570D01*
X151616738Y-139600500D01*
X151616740Y-139600500D01*
X151983259Y-139600500D01*
X151983262Y-139600500D01*
X151993658Y-139598984D01*
X152000592Y-139597974D01*
X152000592Y-139597973D01*
X152051393Y-139590573D01*
X152156483Y-139539198D01*
X152239198Y-139456483D01*
X152290326Y-139351899D01*
X152410230Y-139351899D01*
X152410230Y-139351900D01*
X152461213Y-139456186D01*
X152461215Y-139456190D01*
X152543809Y-139538784D01*
X152543813Y-139538786D01*
X152648751Y-139590087D01*
X152701426Y-139597762D01*
X152716777Y-139599999D01*
X153083221Y-139599999D01*
X153083223Y-139599999D01*
X153130298Y-139593140D01*
X153147734Y-139590599D01*
X153149629Y-139590462D01*
X153151239Y-139590089D01*
X153151248Y-139590088D01*
X153151249Y-139590088D01*
X153256186Y-139538787D01*
X153256190Y-139538784D01*
X153338784Y-139456190D01*
X153338788Y-139456184D01*
X153389768Y-139351901D01*
X153389768Y-139351900D01*
X152900000Y-138862132D01*
X152410230Y-139351899D01*
X152290326Y-139351899D01*
X152290573Y-139351393D01*
X152300500Y-139283260D01*
X152300500Y-138937866D01*
X152400000Y-138937866D01*
X152687868Y-138650000D01*
X152687866Y-138649998D01*
X153112132Y-138649998D01*
X153112132Y-138649999D01*
X153112132Y-138650000D01*
X153399999Y-138937867D01*
X153399999Y-138362132D01*
X153112132Y-138649998D01*
X152687866Y-138649998D01*
X152400000Y-138362132D01*
X152400000Y-138937866D01*
X152300500Y-138937866D01*
X152300500Y-138016740D01*
X152300499Y-138016736D01*
X152290713Y-137949568D01*
X152290713Y-137949566D01*
X152290573Y-137948609D01*
X152290573Y-137948607D01*
X152290323Y-137948096D01*
X152410230Y-137948096D01*
X152410230Y-137948098D01*
X152900000Y-138437868D01*
X152900001Y-138437868D01*
X153128774Y-138209093D01*
X153321132Y-138016736D01*
X153499500Y-138016736D01*
X153499500Y-139283262D01*
X153509427Y-139351393D01*
X153509431Y-139351404D01*
X153509466Y-139351476D01*
X153509620Y-139351789D01*
X153509649Y-139351913D01*
X153509675Y-139351901D01*
X153560802Y-139456483D01*
X153643517Y-139539198D01*
X153748607Y-139590573D01*
X153796879Y-139597605D01*
X153796881Y-139597606D01*
X153796882Y-139597606D01*
X153803502Y-139598570D01*
X153816738Y-139600500D01*
X153816740Y-139600500D01*
X154183259Y-139600500D01*
X154183262Y-139600500D01*
X154193658Y-139598984D01*
X154200592Y-139597974D01*
X154200592Y-139597973D01*
X154251393Y-139590573D01*
X154356483Y-139539198D01*
X154439198Y-139456483D01*
X154490573Y-139351393D01*
X154500500Y-139283260D01*
X154500500Y-138016740D01*
X154500499Y-138016736D01*
X154599500Y-138016736D01*
X154599500Y-139283262D01*
X154609427Y-139351393D01*
X154609431Y-139351404D01*
X154609466Y-139351476D01*
X154609620Y-139351789D01*
X154609649Y-139351913D01*
X154609675Y-139351901D01*
X154660802Y-139456483D01*
X154743517Y-139539198D01*
X154848607Y-139590573D01*
X154896879Y-139597605D01*
X154896881Y-139597606D01*
X154896882Y-139597606D01*
X154903502Y-139598570D01*
X154916738Y-139600500D01*
X154916740Y-139600500D01*
X155283259Y-139600500D01*
X155283262Y-139600500D01*
X155293658Y-139598984D01*
X155300592Y-139597974D01*
X155300592Y-139597973D01*
X155351393Y-139590573D01*
X155456483Y-139539198D01*
X155539198Y-139456483D01*
X155590573Y-139351393D01*
X155600500Y-139283260D01*
X155600500Y-138016740D01*
X155600500Y-137166645D01*
X155604229Y-137147895D01*
X155604230Y-137147892D01*
X155611123Y-137131251D01*
X155621739Y-137115362D01*
X155660488Y-137076614D01*
X155660489Y-137076613D01*
X155719799Y-136973886D01*
X155730484Y-136934008D01*
X155735149Y-136916598D01*
X155735149Y-136916597D01*
X155750184Y-136860489D01*
X155750500Y-136859311D01*
X155750500Y-136740688D01*
X155750500Y-136740686D01*
X155732600Y-136673887D01*
X155719799Y-136626115D01*
X155719798Y-136626112D01*
X155719797Y-136626110D01*
X155719797Y-136626109D01*
X155670012Y-136539881D01*
X155660492Y-136523392D01*
X155660491Y-136523391D01*
X155660489Y-136523387D01*
X155576613Y-136439511D01*
X155576609Y-136439509D01*
X155576607Y-136439507D01*
X155527162Y-136410960D01*
X155473887Y-136380201D01*
X155473884Y-136380200D01*
X155473881Y-136380199D01*
X155473875Y-136380197D01*
X155359314Y-136349500D01*
X155359312Y-136349500D01*
X155359309Y-136349500D01*
X155240691Y-136349500D01*
X155240688Y-136349500D01*
X155240685Y-136349500D01*
X155126132Y-136380195D01*
X155126112Y-136380201D01*
X155021480Y-136440611D01*
X155018822Y-136444075D01*
X154944075Y-136518822D01*
X154940611Y-136521480D01*
X154880201Y-136626112D01*
X154880195Y-136626132D01*
X154849500Y-136740685D01*
X154849500Y-136859313D01*
X154880195Y-136973866D01*
X154880200Y-136973884D01*
X154880201Y-136973887D01*
X154901302Y-137010434D01*
X154939507Y-137076607D01*
X154939509Y-137076610D01*
X154939510Y-137076612D01*
X154939513Y-137076615D01*
X154978255Y-137115357D01*
X154988876Y-137131251D01*
X154992785Y-137140688D01*
X154995770Y-137147892D01*
X154999500Y-137166645D01*
X154999500Y-137640752D01*
X154995771Y-137659503D01*
X154992916Y-137666396D01*
X154966398Y-137692914D01*
X154959503Y-137695770D01*
X154940753Y-137699500D01*
X154916736Y-137699500D01*
X154848605Y-137709427D01*
X154848590Y-137709432D01*
X154848423Y-137709515D01*
X154743518Y-137760801D01*
X154743513Y-137760804D01*
X154660804Y-137843513D01*
X154660801Y-137843518D01*
X154609515Y-137948423D01*
X154609432Y-137948590D01*
X154609427Y-137948605D01*
X154599500Y-138016736D01*
X154500499Y-138016736D01*
X154495193Y-137980317D01*
X154490573Y-137948607D01*
X154439198Y-137843517D01*
X154421744Y-137826063D01*
X154411122Y-137810166D01*
X154404229Y-137793525D01*
X154400500Y-137774775D01*
X154400500Y-137366645D01*
X154404229Y-137347895D01*
X154404230Y-137347892D01*
X154411123Y-137331251D01*
X154421739Y-137315362D01*
X154460488Y-137276614D01*
X154460489Y-137276613D01*
X154519799Y-137173886D01*
X154545863Y-137076614D01*
X154550500Y-137059311D01*
X154550500Y-136940688D01*
X154550500Y-136940686D01*
X154529010Y-136860489D01*
X154519799Y-136826115D01*
X154519798Y-136826112D01*
X154475565Y-136749500D01*
X154460489Y-136723387D01*
X154376613Y-136639511D01*
X154376609Y-136639509D01*
X154376607Y-136639507D01*
X154353409Y-136626114D01*
X154353400Y-136626109D01*
X154273887Y-136580201D01*
X154273884Y-136580200D01*
X154273881Y-136580199D01*
X154273875Y-136580197D01*
X154159314Y-136549500D01*
X154159312Y-136549500D01*
X154159309Y-136549500D01*
X154040691Y-136549500D01*
X154040688Y-136549500D01*
X154040685Y-136549500D01*
X153926132Y-136580195D01*
X153926112Y-136580201D01*
X153821480Y-136640611D01*
X153818822Y-136644075D01*
X153744075Y-136718822D01*
X153740611Y-136721480D01*
X153680201Y-136826112D01*
X153680195Y-136826132D01*
X153649500Y-136940685D01*
X153649500Y-137059313D01*
X153680195Y-137173866D01*
X153680200Y-137173884D01*
X153680201Y-137173887D01*
X153710804Y-137226892D01*
X153739507Y-137276607D01*
X153739509Y-137276610D01*
X153739510Y-137276612D01*
X153739513Y-137276615D01*
X153778255Y-137315357D01*
X153788877Y-137331252D01*
X153795770Y-137347892D01*
X153799500Y-137366645D01*
X153799500Y-137649885D01*
X153795770Y-137668637D01*
X153792131Y-137677422D01*
X153768837Y-137702465D01*
X153764646Y-137704569D01*
X153749745Y-137709260D01*
X153748610Y-137709425D01*
X153748600Y-137709428D01*
X153643525Y-137760796D01*
X153643514Y-137760803D01*
X153560804Y-137843513D01*
X153560801Y-137843518D01*
X153509515Y-137948423D01*
X153509432Y-137948590D01*
X153509427Y-137948605D01*
X153499500Y-138016736D01*
X153321132Y-138016736D01*
X153357551Y-137980317D01*
X153389767Y-137948099D01*
X153389768Y-137948098D01*
X153338801Y-137843843D01*
X153338786Y-137843812D01*
X153338782Y-137843807D01*
X153256190Y-137761215D01*
X153256155Y-137761198D01*
X153255333Y-137760796D01*
X153151248Y-137709912D01*
X153128572Y-137706608D01*
X153083222Y-137700000D01*
X153083220Y-137700000D01*
X152716778Y-137700000D01*
X152716776Y-137700000D01*
X152685417Y-137704569D01*
X152652264Y-137709399D01*
X152650369Y-137709536D01*
X152648749Y-137709911D01*
X152543814Y-137761210D01*
X152543810Y-137761213D01*
X152543803Y-137761219D01*
X152461213Y-137843810D01*
X152461209Y-137843816D01*
X152410230Y-137948096D01*
X152290323Y-137948096D01*
X152239198Y-137843517D01*
X152156483Y-137760802D01*
X152156482Y-137760801D01*
X152156479Y-137760799D01*
X152136735Y-137751147D01*
X152121524Y-137739557D01*
X152112768Y-137729640D01*
X152100500Y-137697209D01*
X152100500Y-137226892D01*
X152102169Y-137214213D01*
X152105394Y-137202174D01*
X152110287Y-137190359D01*
X152119799Y-137173886D01*
X152119805Y-137173866D01*
X152135482Y-137115356D01*
X152147101Y-137071993D01*
X152150500Y-137066106D01*
X152150500Y-136940686D01*
X152129010Y-136860489D01*
X152119799Y-136826115D01*
X152119798Y-136826112D01*
X152075565Y-136749500D01*
X152060489Y-136723387D01*
X151976613Y-136639511D01*
X151976609Y-136639509D01*
X151976607Y-136639507D01*
X151953409Y-136626114D01*
X151953400Y-136626109D01*
X151873887Y-136580201D01*
X151873884Y-136580200D01*
X151873881Y-136580199D01*
X151873875Y-136580197D01*
X151759314Y-136549500D01*
X151759312Y-136549500D01*
X151759309Y-136549500D01*
X151640691Y-136549500D01*
X151640688Y-136549500D01*
X151640685Y-136549500D01*
X151526132Y-136580195D01*
X151526112Y-136580201D01*
X151421480Y-136640611D01*
X151418822Y-136644075D01*
X151344075Y-136718822D01*
X151340611Y-136721480D01*
X151280201Y-136826112D01*
X151280195Y-136826132D01*
X151249500Y-136940685D01*
X151070476Y-136940685D01*
X151060492Y-136923392D01*
X151060491Y-136923391D01*
X151060489Y-136923387D01*
X150976613Y-136839511D01*
X150976609Y-136839509D01*
X150976607Y-136839507D01*
X150953409Y-136826114D01*
X150953406Y-136826112D01*
X150873887Y-136780201D01*
X150873884Y-136780200D01*
X150873881Y-136780199D01*
X150873875Y-136780197D01*
X150759314Y-136749500D01*
X150759312Y-136749500D01*
X150759309Y-136749500D01*
X150640691Y-136749500D01*
X150640688Y-136749500D01*
X150640685Y-136749500D01*
X150526132Y-136780195D01*
X150526112Y-136780201D01*
X150421480Y-136840611D01*
X150418822Y-136844075D01*
X150344075Y-136918822D01*
X150340611Y-136921480D01*
X150280201Y-137026112D01*
X150280195Y-137026132D01*
X150249500Y-137140685D01*
X150249500Y-137259313D01*
X150276610Y-137360486D01*
X150280200Y-137373884D01*
X150280201Y-137373887D01*
X150294133Y-137398017D01*
X150339507Y-137476607D01*
X150339509Y-137476609D01*
X150339511Y-137476613D01*
X150339512Y-137476614D01*
X150339514Y-137476616D01*
X150378255Y-137515357D01*
X150388877Y-137531252D01*
X150395770Y-137547892D01*
X150399500Y-137566645D01*
X150399500Y-137693097D01*
X150395770Y-137711849D01*
X150390707Y-137724072D01*
X150366959Y-137749341D01*
X150343517Y-137760801D01*
X150343514Y-137760803D01*
X150260804Y-137843513D01*
X150260801Y-137843518D01*
X150209515Y-137948423D01*
X150209432Y-137948590D01*
X150209427Y-137948605D01*
X150199500Y-138016736D01*
X150100499Y-138016736D01*
X150095193Y-137980317D01*
X150090573Y-137948607D01*
X150039198Y-137843517D01*
X150021744Y-137826063D01*
X150011122Y-137810166D01*
X150004229Y-137793525D01*
X150000500Y-137774775D01*
X150000500Y-137166645D01*
X150004229Y-137147895D01*
X150004230Y-137147892D01*
X150011123Y-137131251D01*
X150021739Y-137115362D01*
X150060488Y-137076614D01*
X150060489Y-137076613D01*
X150119799Y-136973886D01*
X150130484Y-136934008D01*
X150135149Y-136916598D01*
X150135149Y-136916597D01*
X150150184Y-136860489D01*
X150150500Y-136859311D01*
X150150500Y-136740688D01*
X150150500Y-136740686D01*
X150132600Y-136673887D01*
X150119799Y-136626115D01*
X150119798Y-136626112D01*
X150119797Y-136626110D01*
X150119797Y-136626109D01*
X150070012Y-136539881D01*
X150060492Y-136523392D01*
X150060491Y-136523391D01*
X150060489Y-136523387D01*
X149976613Y-136439511D01*
X149976609Y-136439509D01*
X149976607Y-136439507D01*
X149927162Y-136410960D01*
X149873887Y-136380201D01*
X149873884Y-136380200D01*
X149873881Y-136380199D01*
X149873875Y-136380197D01*
X149759314Y-136349500D01*
X149759312Y-136349500D01*
X149759309Y-136349500D01*
X149640691Y-136349500D01*
X149640688Y-136349500D01*
X149640685Y-136349500D01*
X149526132Y-136380195D01*
X149526112Y-136380201D01*
X149421480Y-136440611D01*
X149418822Y-136444075D01*
X149344075Y-136518822D01*
X149340611Y-136521480D01*
X149280201Y-136626112D01*
X149280195Y-136626132D01*
X149249500Y-136740685D01*
X149249500Y-136859313D01*
X149280195Y-136973866D01*
X149280200Y-136973884D01*
X149280201Y-136973887D01*
X149301302Y-137010434D01*
X149339507Y-137076607D01*
X149339509Y-137076610D01*
X149339510Y-137076612D01*
X149339513Y-137076615D01*
X149378255Y-137115357D01*
X149388876Y-137131251D01*
X149392785Y-137140688D01*
X149395770Y-137147892D01*
X149399500Y-137166645D01*
X149399500Y-137649885D01*
X149395770Y-137668637D01*
X149392131Y-137677422D01*
X149368837Y-137702465D01*
X149364646Y-137704569D01*
X149349745Y-137709260D01*
X149348610Y-137709425D01*
X149348600Y-137709428D01*
X149243525Y-137760796D01*
X149243514Y-137760803D01*
X149160804Y-137843513D01*
X149160801Y-137843518D01*
X149109515Y-137948423D01*
X149109432Y-137948590D01*
X149109427Y-137948605D01*
X149099500Y-138016736D01*
X149000499Y-138016736D01*
X148995193Y-137980317D01*
X148990573Y-137948607D01*
X148939198Y-137843517D01*
X148856483Y-137760802D01*
X148856482Y-137760801D01*
X148856479Y-137760799D01*
X148836735Y-137751147D01*
X148821524Y-137739557D01*
X148812768Y-137729640D01*
X148800500Y-137697209D01*
X148800500Y-137566645D01*
X148804229Y-137547895D01*
X148804230Y-137547892D01*
X148811123Y-137531251D01*
X148821739Y-137515362D01*
X148860488Y-137476614D01*
X148860489Y-137476613D01*
X148919799Y-137373886D01*
X148945863Y-137276614D01*
X148950500Y-137259311D01*
X148950500Y-137140688D01*
X148950500Y-137140686D01*
X148933331Y-137076615D01*
X148919799Y-137026115D01*
X148919798Y-137026112D01*
X148919797Y-137026110D01*
X148919797Y-137026109D01*
X148876143Y-136950500D01*
X148860492Y-136923392D01*
X148860491Y-136923391D01*
X148860489Y-136923387D01*
X148776613Y-136839511D01*
X148776609Y-136839509D01*
X148776607Y-136839507D01*
X148753409Y-136826114D01*
X148753406Y-136826112D01*
X148673887Y-136780201D01*
X148673884Y-136780200D01*
X148673881Y-136780199D01*
X148673875Y-136780197D01*
X148559314Y-136749500D01*
X148559312Y-136749500D01*
X148559309Y-136749500D01*
X148440691Y-136749500D01*
X148440688Y-136749500D01*
X148440685Y-136749500D01*
X148326132Y-136780195D01*
X148326112Y-136780201D01*
X148221480Y-136840611D01*
X148218822Y-136844075D01*
X148144075Y-136918822D01*
X148140611Y-136921480D01*
X148080201Y-137026112D01*
X148080195Y-137026132D01*
X148049500Y-137140685D01*
X148049500Y-137259313D01*
X148076610Y-137360486D01*
X148080200Y-137373884D01*
X148080201Y-137373887D01*
X148094133Y-137398017D01*
X148139507Y-137476607D01*
X148139509Y-137476609D01*
X148139511Y-137476613D01*
X148139512Y-137476614D01*
X148139514Y-137476616D01*
X148178255Y-137515357D01*
X148188877Y-137531252D01*
X148195770Y-137547892D01*
X148199500Y-137566645D01*
X148199500Y-137693097D01*
X148195770Y-137711849D01*
X148190707Y-137724072D01*
X148166959Y-137749341D01*
X148143517Y-137760801D01*
X148143514Y-137760803D01*
X148060804Y-137843513D01*
X148060801Y-137843518D01*
X148009515Y-137948423D01*
X148009432Y-137948590D01*
X148009427Y-137948605D01*
X147999500Y-138016736D01*
X147900499Y-138016736D01*
X147895193Y-137980317D01*
X147890573Y-137948607D01*
X147839198Y-137843517D01*
X147756483Y-137760802D01*
X147756481Y-137760801D01*
X147756478Y-137760799D01*
X147756475Y-137760797D01*
X147651398Y-137709428D01*
X147651381Y-137709423D01*
X147649280Y-137708924D01*
X147649364Y-137708567D01*
X147634058Y-137703130D01*
X147632944Y-137702466D01*
X147625892Y-137698263D01*
X147604469Y-137671595D01*
X147602991Y-137667138D01*
X147600500Y-137651715D01*
X147600500Y-137566645D01*
X147604229Y-137547895D01*
X147604230Y-137547892D01*
X147611123Y-137531251D01*
X147621739Y-137515362D01*
X147660488Y-137476614D01*
X147660489Y-137476613D01*
X147719799Y-137373886D01*
X147745863Y-137276614D01*
X147750500Y-137259311D01*
X147750500Y-137140688D01*
X147750500Y-137140686D01*
X147733331Y-137076615D01*
X147719799Y-137026115D01*
X147719798Y-137026112D01*
X147719797Y-137026110D01*
X147719797Y-137026109D01*
X147676143Y-136950500D01*
X147660492Y-136923392D01*
X147660491Y-136923391D01*
X147660489Y-136923387D01*
X147576613Y-136839511D01*
X147576609Y-136839509D01*
X147576607Y-136839507D01*
X147553409Y-136826114D01*
X147553406Y-136826112D01*
X147473887Y-136780201D01*
X147473884Y-136780200D01*
X147473881Y-136780199D01*
X147473875Y-136780197D01*
X147359314Y-136749500D01*
X147359312Y-136749500D01*
X147359309Y-136749500D01*
X147240691Y-136749500D01*
X147240688Y-136749500D01*
X147240685Y-136749500D01*
X147126132Y-136780195D01*
X147126112Y-136780201D01*
X147021480Y-136840611D01*
X147018822Y-136844075D01*
X146944075Y-136918822D01*
X146940611Y-136921480D01*
X146880201Y-137026112D01*
X146880195Y-137026132D01*
X146849500Y-137140685D01*
X145534285Y-137140685D01*
X145703229Y-136971741D01*
X145719120Y-136961123D01*
X145735765Y-136954228D01*
X145754514Y-136950500D01*
X145809313Y-136950500D01*
X145847608Y-136940238D01*
X145870850Y-136934010D01*
X145923886Y-136919799D01*
X146026613Y-136860489D01*
X146110489Y-136776613D01*
X146169799Y-136673886D01*
X146194902Y-136580201D01*
X146200500Y-136559311D01*
X146200500Y-136440688D01*
X146200500Y-136440686D01*
X146176065Y-136349500D01*
X146169799Y-136326115D01*
X146169798Y-136326112D01*
X146110488Y-136223386D01*
X146026613Y-136139511D01*
X146026609Y-136139509D01*
X146026607Y-136139507D01*
X145977162Y-136110960D01*
X145923887Y-136080201D01*
X145923884Y-136080200D01*
X145923881Y-136080199D01*
X145923875Y-136080197D01*
X145809314Y-136049500D01*
X145809312Y-136049500D01*
X145809309Y-136049500D01*
X145690691Y-136049500D01*
X145690688Y-136049500D01*
X145690685Y-136049500D01*
X145576132Y-136080195D01*
X145576112Y-136080201D01*
X145471480Y-136140611D01*
X145468822Y-136144075D01*
X145394075Y-136218822D01*
X145390611Y-136221480D01*
X145330201Y-136326112D01*
X145330195Y-136326132D01*
X145299500Y-136440685D01*
X145299500Y-136495485D01*
X145295770Y-136514238D01*
X145288877Y-136530878D01*
X145278255Y-136546773D01*
X144964104Y-136860924D01*
X144960641Y-136863581D01*
X144919979Y-136934006D01*
X144918310Y-136940238D01*
X144918309Y-136940242D01*
X144899500Y-137010434D01*
X144899500Y-137693097D01*
X144895770Y-137711849D01*
X144890707Y-137724072D01*
X144866959Y-137749341D01*
X144843517Y-137760801D01*
X144843514Y-137760803D01*
X144760804Y-137843513D01*
X144760801Y-137843518D01*
X144712614Y-137942082D01*
X144712612Y-137942088D01*
X144709428Y-137948603D01*
X144709427Y-137948605D01*
X144699500Y-138016738D01*
X140500500Y-138016738D01*
X140500500Y-105690685D01*
X141049500Y-105690685D01*
X141049500Y-105809315D01*
X141080197Y-105923876D01*
X141080196Y-105923876D01*
X141080198Y-105923880D01*
X141080199Y-105923882D01*
X141080200Y-105923884D01*
X141080201Y-105923886D01*
X141089710Y-105940356D01*
X141094603Y-105952169D01*
X141097829Y-105964205D01*
X141099500Y-105976891D01*
X141099500Y-126772064D01*
X141118309Y-126842256D01*
X141118310Y-126842261D01*
X141119979Y-126848492D01*
X141151035Y-126902280D01*
X141151034Y-126902280D01*
X141151036Y-126902283D01*
X141159538Y-126917008D01*
X141159541Y-126917012D01*
X144461466Y-130218937D01*
X144472087Y-130234831D01*
X144476649Y-130245844D01*
X144476962Y-130246598D01*
X144476963Y-130284101D01*
X144476962Y-130284103D01*
X144409873Y-130446068D01*
X144409867Y-130446088D01*
X144389591Y-130548019D01*
X144389592Y-130548020D01*
X144369500Y-130649035D01*
X144369500Y-130855965D01*
X144387308Y-130945493D01*
X144387307Y-130945493D01*
X144409866Y-131058908D01*
X144409874Y-131058932D01*
X144489059Y-131250098D01*
X144593704Y-131406713D01*
X144593720Y-131406737D01*
X144604023Y-131422155D01*
X144750345Y-131568477D01*
X144922402Y-131683441D01*
X145113580Y-131762630D01*
X145316535Y-131803000D01*
X145316538Y-131803000D01*
X145523462Y-131803000D01*
X145523465Y-131803000D01*
X145726420Y-131762630D01*
X145917598Y-131683441D01*
X146089655Y-131568477D01*
X146235977Y-131422155D01*
X146350941Y-131250098D01*
X146430130Y-131058920D01*
X146470500Y-130855965D01*
X146470500Y-130649035D01*
X146430130Y-130446080D01*
X146350941Y-130254902D01*
X146235977Y-130082845D01*
X146089655Y-129936523D01*
X146089652Y-129936521D01*
X146047073Y-129908071D01*
X145917598Y-129821559D01*
X145917594Y-129821557D01*
X145917592Y-129821556D01*
X145893269Y-129811481D01*
X145893268Y-129811481D01*
X145726432Y-129742374D01*
X145726424Y-129742371D01*
X145726423Y-129742371D01*
X145726417Y-129742369D01*
X145624324Y-129722062D01*
X145523465Y-129702000D01*
X145523462Y-129702000D01*
X145316538Y-129702000D01*
X145316535Y-129702000D01*
X145215676Y-129722062D01*
X145215676Y-129722061D01*
X145113590Y-129742366D01*
X145113568Y-129742373D01*
X144955734Y-129807751D01*
X144936982Y-129811481D01*
X144924248Y-129811481D01*
X144889600Y-129797129D01*
X141721744Y-126629273D01*
X141711122Y-126613376D01*
X141704229Y-126596735D01*
X141700500Y-126577985D01*
X141700500Y-125046014D01*
X141704227Y-125027269D01*
X141706246Y-125022393D01*
X141732760Y-124995873D01*
X141770261Y-124995867D01*
X141775145Y-124997889D01*
X141791040Y-125008511D01*
X144461466Y-127678937D01*
X144472088Y-127694832D01*
X144476962Y-127706598D01*
X144476963Y-127744101D01*
X144476962Y-127744103D01*
X144409873Y-127906068D01*
X144409867Y-127906088D01*
X144389591Y-128008019D01*
X144389592Y-128008020D01*
X144369500Y-128109035D01*
X144369500Y-128315965D01*
X144380500Y-128371265D01*
X144380500Y-128371266D01*
X144409869Y-128518916D01*
X144409872Y-128518927D01*
X144468185Y-128659705D01*
X144478808Y-128685352D01*
X144489059Y-128710098D01*
X144566045Y-128825317D01*
X144600264Y-128876530D01*
X144604023Y-128882155D01*
X144750345Y-129028477D01*
X144922402Y-129143441D01*
X145113580Y-129222630D01*
X145316535Y-129263000D01*
X145316538Y-129263000D01*
X145523462Y-129263000D01*
X145523465Y-129263000D01*
X145726420Y-129222630D01*
X145917598Y-129143441D01*
X146089655Y-129028477D01*
X146235977Y-128882155D01*
X146350941Y-128710098D01*
X146430130Y-128518920D01*
X146470500Y-128315965D01*
X146470500Y-128109035D01*
X146430130Y-127906080D01*
X146350941Y-127714902D01*
X146235977Y-127542845D01*
X146089655Y-127396523D01*
X146089654Y-127396522D01*
X145917599Y-127281559D01*
X145917596Y-127281558D01*
X145726432Y-127202374D01*
X145726424Y-127202371D01*
X145726423Y-127202371D01*
X145726417Y-127202369D01*
X145642277Y-127185633D01*
X145523465Y-127162000D01*
X145523462Y-127162000D01*
X145316538Y-127162000D01*
X145316535Y-127162000D01*
X145215520Y-127182092D01*
X145215519Y-127182091D01*
X145113588Y-127202367D01*
X145113568Y-127202373D01*
X144955734Y-127267751D01*
X144936982Y-127271481D01*
X144924248Y-127271481D01*
X144889600Y-127257129D01*
X142221744Y-124589273D01*
X142211122Y-124573376D01*
X142204229Y-124556735D01*
X142200500Y-124537985D01*
X142200500Y-123006014D01*
X142204227Y-122987269D01*
X142206246Y-122982393D01*
X142232760Y-122955873D01*
X142270261Y-122955867D01*
X142275145Y-122957889D01*
X142291040Y-122968511D01*
X147001466Y-127678937D01*
X147012088Y-127694832D01*
X147016962Y-127706598D01*
X147016963Y-127744101D01*
X147016962Y-127744103D01*
X146949873Y-127906068D01*
X146949867Y-127906088D01*
X146929591Y-128008019D01*
X146929592Y-128008020D01*
X146909500Y-128109035D01*
X146909500Y-128315965D01*
X146920500Y-128371265D01*
X146920500Y-128371266D01*
X146949869Y-128518916D01*
X146949872Y-128518927D01*
X147008185Y-128659705D01*
X147018808Y-128685352D01*
X147029059Y-128710098D01*
X147106045Y-128825317D01*
X147140264Y-128876530D01*
X147144023Y-128882155D01*
X147290345Y-129028477D01*
X147462402Y-129143441D01*
X147653580Y-129222630D01*
X147856535Y-129263000D01*
X147856538Y-129263000D01*
X148063462Y-129263000D01*
X148063465Y-129263000D01*
X148266420Y-129222630D01*
X148457598Y-129143441D01*
X148629655Y-129028477D01*
X148775977Y-128882155D01*
X148890941Y-128710098D01*
X148970130Y-128518920D01*
X149010500Y-128315965D01*
X149010500Y-128109035D01*
X148970130Y-127906080D01*
X148890941Y-127714902D01*
X148775977Y-127542845D01*
X148629655Y-127396523D01*
X148629654Y-127396522D01*
X148457599Y-127281559D01*
X148457596Y-127281558D01*
X148266432Y-127202374D01*
X148266424Y-127202371D01*
X148266423Y-127202371D01*
X148266417Y-127202369D01*
X148182277Y-127185633D01*
X148063465Y-127162000D01*
X148063462Y-127162000D01*
X147856538Y-127162000D01*
X147856535Y-127162000D01*
X147755520Y-127182092D01*
X147755519Y-127182091D01*
X147653588Y-127202367D01*
X147653568Y-127202373D01*
X147495734Y-127267751D01*
X147476982Y-127271481D01*
X147464248Y-127271481D01*
X147429600Y-127257129D01*
X142821744Y-122649273D01*
X142811122Y-122633376D01*
X142804229Y-122616735D01*
X142800500Y-122597985D01*
X142800500Y-110190685D01*
X143799500Y-110190685D01*
X143799500Y-110309315D01*
X143830197Y-110423876D01*
X143830196Y-110423876D01*
X143830198Y-110423880D01*
X143830199Y-110423882D01*
X143830200Y-110423884D01*
X143830201Y-110423886D01*
X143831487Y-110426113D01*
X143839710Y-110440356D01*
X143844603Y-110452169D01*
X143847829Y-110464205D01*
X143849500Y-110476891D01*
X143849500Y-114109840D01*
X143876790Y-114211688D01*
X143876793Y-114211696D01*
X143876801Y-114211710D01*
X143929516Y-114303014D01*
X143929518Y-114303016D01*
X143929520Y-114303020D01*
X145446980Y-115820480D01*
X145491431Y-115846144D01*
X145538303Y-115873206D01*
X145538305Y-115873207D01*
X145538309Y-115873208D01*
X145637053Y-115899666D01*
X145639510Y-115900500D01*
X145640163Y-115900500D01*
X145640166Y-115900500D01*
X146023106Y-115900500D01*
X146035787Y-115902169D01*
X146047824Y-115905394D01*
X146059643Y-115910290D01*
X146076110Y-115919797D01*
X146076111Y-115919797D01*
X146076114Y-115919799D01*
X146104758Y-115927474D01*
X146190686Y-115950500D01*
X146190688Y-115950500D01*
X146190691Y-115950500D01*
X146309310Y-115950500D01*
X146309311Y-115950500D01*
X146366597Y-115935149D01*
X146423886Y-115919799D01*
X146526613Y-115860489D01*
X146610489Y-115776613D01*
X146669799Y-115673886D01*
X146685149Y-115616597D01*
X146700500Y-115559311D01*
X146700500Y-115440688D01*
X146700500Y-115440686D01*
X146669798Y-115326113D01*
X146669798Y-115326112D01*
X146610488Y-115223386D01*
X146526613Y-115139511D01*
X146526609Y-115139509D01*
X146526607Y-115139507D01*
X146454419Y-115097829D01*
X146423887Y-115080201D01*
X146423884Y-115080200D01*
X146423881Y-115080199D01*
X146423875Y-115080197D01*
X146309314Y-115049500D01*
X146309312Y-115049500D01*
X146309309Y-115049500D01*
X146190691Y-115049500D01*
X146190688Y-115049500D01*
X146190685Y-115049500D01*
X146076132Y-115080195D01*
X146076111Y-115080201D01*
X146076108Y-115080202D01*
X146059643Y-115089709D01*
X146047829Y-115094603D01*
X146035793Y-115097829D01*
X146023107Y-115099500D01*
X145888829Y-115099500D01*
X145870078Y-115095770D01*
X145853435Y-115088876D01*
X145837541Y-115078255D01*
X144671744Y-113912458D01*
X144661122Y-113896561D01*
X144654229Y-113879920D01*
X144650500Y-113861170D01*
X144650500Y-112200000D01*
X145500000Y-112200000D01*
X145500000Y-114600000D01*
X146840753Y-114600000D01*
X146859499Y-114603727D01*
X146866393Y-114606583D01*
X146892913Y-114633098D01*
X146895771Y-114639999D01*
X146899500Y-114658747D01*
X146899500Y-115935647D01*
X146896900Y-115951396D01*
X146890881Y-115969129D01*
X146886916Y-115977880D01*
X146830201Y-116076112D01*
X146830195Y-116076132D01*
X146799500Y-116190685D01*
X146799500Y-116309313D01*
X146814850Y-116366597D01*
X146830200Y-116423884D01*
X146830201Y-116423887D01*
X146860960Y-116477162D01*
X146889507Y-116526607D01*
X146889509Y-116526609D01*
X146889511Y-116526613D01*
X146973387Y-116610489D01*
X147032691Y-116644728D01*
X147076110Y-116669797D01*
X147076114Y-116669799D01*
X147104758Y-116677474D01*
X147190686Y-116700500D01*
X147190688Y-116700500D01*
X147190691Y-116700500D01*
X147309310Y-116700500D01*
X147309311Y-116700500D01*
X147366597Y-116685149D01*
X147423886Y-116669799D01*
X147526613Y-116610489D01*
X147610489Y-116526613D01*
X147669799Y-116423886D01*
X147685149Y-116366597D01*
X147700500Y-116309311D01*
X147700500Y-116190688D01*
X147700500Y-116190686D01*
X147684046Y-116129284D01*
X147669799Y-116076115D01*
X147669798Y-116076112D01*
X147610488Y-115973386D01*
X147526616Y-115889514D01*
X147526613Y-115889511D01*
X147526605Y-115889503D01*
X147525006Y-115887903D01*
X147520788Y-115883091D01*
X147510623Y-115869841D01*
X147500500Y-115840016D01*
X147500500Y-110966645D01*
X147504229Y-110947895D01*
X147504230Y-110947892D01*
X147511123Y-110931251D01*
X147521739Y-110915362D01*
X147560488Y-110876614D01*
X147560489Y-110876613D01*
X147619799Y-110773886D01*
X147635149Y-110716597D01*
X147650500Y-110659311D01*
X147650500Y-110540688D01*
X147650500Y-110540686D01*
X147630008Y-110464213D01*
X147619799Y-110426115D01*
X147619798Y-110426112D01*
X147560488Y-110323386D01*
X147476613Y-110239511D01*
X147476609Y-110239509D01*
X147476607Y-110239507D01*
X147427162Y-110210960D01*
X147373887Y-110180201D01*
X147373884Y-110180200D01*
X147373881Y-110180199D01*
X147373875Y-110180197D01*
X147259314Y-110149500D01*
X147259312Y-110149500D01*
X147259309Y-110149500D01*
X147140691Y-110149500D01*
X147140688Y-110149500D01*
X147140685Y-110149500D01*
X147026132Y-110180195D01*
X147026112Y-110180201D01*
X146921480Y-110240611D01*
X146918822Y-110244075D01*
X146844075Y-110318822D01*
X146840611Y-110321480D01*
X146780201Y-110426112D01*
X146780195Y-110426132D01*
X146749500Y-110540685D01*
X146749500Y-110659313D01*
X146764850Y-110716597D01*
X146780200Y-110773884D01*
X146780201Y-110773887D01*
X146810960Y-110827162D01*
X146839507Y-110876607D01*
X146839509Y-110876609D01*
X146839511Y-110876613D01*
X146839512Y-110876614D01*
X146839514Y-110876616D01*
X146878255Y-110915357D01*
X146888877Y-110931252D01*
X146895770Y-110947892D01*
X146899500Y-110966645D01*
X146899500Y-112141252D01*
X146895771Y-112160003D01*
X146892916Y-112166896D01*
X146866398Y-112193414D01*
X146859503Y-112196270D01*
X146840753Y-112200000D01*
X145500000Y-112200000D01*
X144650500Y-112200000D01*
X144650500Y-110476892D01*
X144652169Y-110464213D01*
X144655394Y-110452174D01*
X144660289Y-110440356D01*
X144669799Y-110423886D01*
X144697101Y-110321993D01*
X144700500Y-110316106D01*
X144700500Y-110190686D01*
X144684046Y-110129284D01*
X144669799Y-110076115D01*
X144669798Y-110076112D01*
X144610488Y-109973386D01*
X144526613Y-109889511D01*
X144526609Y-109889509D01*
X144526607Y-109889507D01*
X144477162Y-109860960D01*
X144423887Y-109830201D01*
X144423884Y-109830200D01*
X144423881Y-109830199D01*
X144423875Y-109830197D01*
X144309314Y-109799500D01*
X144309312Y-109799500D01*
X144309309Y-109799500D01*
X144190691Y-109799500D01*
X144190688Y-109799500D01*
X144190685Y-109799500D01*
X144076132Y-109830195D01*
X144076112Y-109830201D01*
X143971480Y-109890611D01*
X143968822Y-109894075D01*
X143894075Y-109968822D01*
X143890611Y-109971480D01*
X143830201Y-110076112D01*
X143830195Y-110076132D01*
X143799500Y-110190685D01*
X142800500Y-110190685D01*
X142800500Y-105460436D01*
X142797837Y-105450499D01*
X142797837Y-105450500D01*
X142797569Y-105449500D01*
X142780022Y-105384012D01*
X142740460Y-105315489D01*
X142471744Y-105046773D01*
X142461122Y-105030876D01*
X142454229Y-105014235D01*
X142450500Y-104995485D01*
X142450500Y-104940686D01*
X142434046Y-104879284D01*
X142419799Y-104826115D01*
X142419798Y-104826112D01*
X142360488Y-104723386D01*
X142276613Y-104639511D01*
X142276609Y-104639509D01*
X142276607Y-104639507D01*
X142227162Y-104610960D01*
X142173887Y-104580201D01*
X142173884Y-104580200D01*
X142173881Y-104580199D01*
X142173875Y-104580197D01*
X142059314Y-104549500D01*
X142059312Y-104549500D01*
X142059309Y-104549500D01*
X141940691Y-104549500D01*
X141940688Y-104549500D01*
X141940685Y-104549500D01*
X141826132Y-104580195D01*
X141826112Y-104580201D01*
X141721480Y-104640611D01*
X141718822Y-104644075D01*
X141644075Y-104718822D01*
X141640611Y-104721480D01*
X141580201Y-104826112D01*
X141580195Y-104826132D01*
X141549500Y-104940685D01*
X141549500Y-105059314D01*
X141580087Y-105173464D01*
X141580189Y-105173860D01*
X141580201Y-105173888D01*
X141605853Y-105218318D01*
X141611999Y-105236424D01*
X141612866Y-105243011D01*
X141603158Y-105279235D01*
X141573854Y-105297462D01*
X141568355Y-105298557D01*
X141558786Y-105299500D01*
X141440685Y-105299500D01*
X141326132Y-105330195D01*
X141326112Y-105330201D01*
X141221480Y-105390611D01*
X141218822Y-105394075D01*
X141144075Y-105468822D01*
X141140611Y-105471480D01*
X141080201Y-105576112D01*
X141080195Y-105576132D01*
X141049500Y-105690685D01*
X140500500Y-105690685D01*
X140500500Y-86940685D01*
X142299500Y-86940685D01*
X142299500Y-87059313D01*
X142314850Y-87116597D01*
X142330200Y-87173884D01*
X142330201Y-87173887D01*
X142360960Y-87227162D01*
X142389507Y-87276607D01*
X142389509Y-87276609D01*
X142389511Y-87276613D01*
X142389512Y-87276614D01*
X142389514Y-87276616D01*
X142428255Y-87315357D01*
X142438877Y-87331252D01*
X142445770Y-87347892D01*
X142449500Y-87366645D01*
X142449500Y-96039564D01*
X142468309Y-96109756D01*
X142468310Y-96109761D01*
X142469979Y-96115992D01*
X142495733Y-96160598D01*
X142509540Y-96184511D01*
X142509543Y-96184514D01*
X150278255Y-103953226D01*
X150288876Y-103969120D01*
X150289422Y-103970438D01*
X150295770Y-103985761D01*
X150299500Y-104004514D01*
X150299500Y-104059313D01*
X150327689Y-104164514D01*
X150330200Y-104173884D01*
X150330201Y-104173887D01*
X150360960Y-104227162D01*
X150389507Y-104276607D01*
X150389509Y-104276609D01*
X150389511Y-104276613D01*
X150473387Y-104360489D01*
X150532691Y-104394728D01*
X150576110Y-104419797D01*
X150576114Y-104419799D01*
X150604758Y-104427474D01*
X150690686Y-104450500D01*
X150809312Y-104450500D01*
X150816106Y-104450500D01*
X150821993Y-104447101D01*
X150900695Y-104426013D01*
X150926992Y-104418967D01*
X150927089Y-104419329D01*
X150933608Y-104417576D01*
X150943054Y-104416332D01*
X150979252Y-104426013D01*
X150979705Y-104426361D01*
X150997236Y-104452570D01*
X150997828Y-104454778D01*
X150999500Y-104467467D01*
X150999500Y-125245485D01*
X150995770Y-125264238D01*
X150988877Y-125280878D01*
X150978255Y-125296773D01*
X149194104Y-127080924D01*
X149190641Y-127083581D01*
X149149979Y-127154006D01*
X149148310Y-127160238D01*
X149148309Y-127160242D01*
X149129500Y-127230434D01*
X149129500Y-129127984D01*
X149125770Y-129146737D01*
X149118877Y-129163377D01*
X149108255Y-129179272D01*
X148493560Y-129793966D01*
X148477665Y-129804588D01*
X148465899Y-129809462D01*
X148428396Y-129809463D01*
X148428394Y-129809462D01*
X148266432Y-129742374D01*
X148266424Y-129742371D01*
X148266423Y-129742371D01*
X148266417Y-129742369D01*
X148164324Y-129722062D01*
X148063465Y-129702000D01*
X148063462Y-129702000D01*
X147856538Y-129702000D01*
X147856535Y-129702000D01*
X147755681Y-129722061D01*
X147755676Y-129722062D01*
X147653582Y-129742369D01*
X147653566Y-129742374D01*
X147462404Y-129821557D01*
X147290345Y-129936521D01*
X147144021Y-130082845D01*
X147029057Y-130254904D01*
X146949874Y-130446066D01*
X146949866Y-130446090D01*
X146929591Y-130548019D01*
X146929592Y-130548020D01*
X146909500Y-130649035D01*
X146909500Y-130855965D01*
X146927308Y-130945493D01*
X146927307Y-130945493D01*
X146949866Y-131058908D01*
X146949874Y-131058932D01*
X147029059Y-131250098D01*
X147133704Y-131406713D01*
X147133720Y-131406737D01*
X147144023Y-131422155D01*
X147290345Y-131568477D01*
X147462402Y-131683441D01*
X147653580Y-131762630D01*
X147856535Y-131803000D01*
X147856538Y-131803000D01*
X148063462Y-131803000D01*
X148063465Y-131803000D01*
X148266420Y-131762630D01*
X148457598Y-131683441D01*
X148629655Y-131568477D01*
X148775977Y-131422155D01*
X148890941Y-131250098D01*
X148970130Y-131058920D01*
X149010500Y-130855965D01*
X149010500Y-130649035D01*
X148970130Y-130446080D01*
X148931327Y-130352401D01*
X148904748Y-130288233D01*
X148901018Y-130269482D01*
X148901018Y-130256747D01*
X148915370Y-130222099D01*
X149074394Y-130063075D01*
X149670460Y-129467011D01*
X149684877Y-129442040D01*
X149710021Y-129398489D01*
X149730500Y-129322062D01*
X149730500Y-129056675D01*
X149734227Y-129037930D01*
X149734230Y-129037923D01*
X149736246Y-129033054D01*
X149762760Y-129006534D01*
X149800261Y-129006528D01*
X149805145Y-129008550D01*
X149821040Y-129019172D01*
X149830345Y-129028477D01*
X150002402Y-129143441D01*
X150193580Y-129222630D01*
X150396535Y-129263000D01*
X150396538Y-129263000D01*
X150603462Y-129263000D01*
X150603465Y-129263000D01*
X150806420Y-129222630D01*
X150997598Y-129143441D01*
X151169655Y-129028477D01*
X151308962Y-128889169D01*
X151324852Y-128878551D01*
X151329730Y-128876530D01*
X151367232Y-128876530D01*
X151393751Y-128903049D01*
X151395770Y-128907923D01*
X151399500Y-128926675D01*
X151399500Y-129397984D01*
X151395770Y-129416737D01*
X151388877Y-129433377D01*
X151378255Y-129449272D01*
X151033560Y-129793966D01*
X151017665Y-129804588D01*
X151005899Y-129809462D01*
X150968396Y-129809463D01*
X150968394Y-129809462D01*
X150806432Y-129742374D01*
X150806424Y-129742371D01*
X150806423Y-129742371D01*
X150806417Y-129742369D01*
X150704324Y-129722062D01*
X150603465Y-129702000D01*
X150603462Y-129702000D01*
X150396538Y-129702000D01*
X150396535Y-129702000D01*
X150295681Y-129722061D01*
X150295676Y-129722062D01*
X150193582Y-129742369D01*
X150193566Y-129742374D01*
X150002404Y-129821557D01*
X149830345Y-129936521D01*
X149684021Y-130082845D01*
X149569057Y-130254904D01*
X149489874Y-130446066D01*
X149489866Y-130446090D01*
X149469591Y-130548019D01*
X149469592Y-130548020D01*
X149449500Y-130649035D01*
X149449500Y-130855965D01*
X149467308Y-130945493D01*
X149467307Y-130945493D01*
X149489866Y-131058908D01*
X149489874Y-131058932D01*
X149569059Y-131250098D01*
X149673704Y-131406713D01*
X149673720Y-131406737D01*
X149684023Y-131422155D01*
X149830345Y-131568477D01*
X150002402Y-131683441D01*
X150193580Y-131762630D01*
X150396535Y-131803000D01*
X150396538Y-131803000D01*
X150603462Y-131803000D01*
X150603465Y-131803000D01*
X150806420Y-131762630D01*
X150997598Y-131683441D01*
X151169655Y-131568477D01*
X151315977Y-131422155D01*
X151430941Y-131250098D01*
X151510130Y-131058920D01*
X151550500Y-130855965D01*
X151550500Y-130649035D01*
X151510130Y-130446080D01*
X151471327Y-130352401D01*
X151444748Y-130288233D01*
X151441018Y-130269482D01*
X151441018Y-130256747D01*
X151455370Y-130222099D01*
X151466273Y-130211196D01*
X151940460Y-129737011D01*
X151949091Y-129722062D01*
X151980021Y-129668489D01*
X152000500Y-129592062D01*
X152000500Y-128704100D01*
X152004228Y-128685352D01*
X152006247Y-128680477D01*
X152032763Y-128653958D01*
X152070266Y-128653955D01*
X152096787Y-128680472D01*
X152096788Y-128680475D01*
X152102537Y-128694353D01*
X152109059Y-128710098D01*
X152186045Y-128825317D01*
X152220264Y-128876530D01*
X152224023Y-128882155D01*
X152370345Y-129028477D01*
X152542402Y-129143441D01*
X152733580Y-129222630D01*
X152936535Y-129263000D01*
X152936538Y-129263000D01*
X153143462Y-129263000D01*
X153143465Y-129263000D01*
X153346420Y-129222630D01*
X153537598Y-129143441D01*
X153709655Y-129028477D01*
X153718963Y-129019168D01*
X153734852Y-129008551D01*
X153739730Y-129006530D01*
X153777232Y-129006530D01*
X153803751Y-129033049D01*
X153805770Y-129037923D01*
X153809500Y-129056675D01*
X153809500Y-129527984D01*
X153805770Y-129546737D01*
X153798877Y-129563377D01*
X153788255Y-129579272D01*
X153573560Y-129793966D01*
X153557665Y-129804588D01*
X153545899Y-129809462D01*
X153508396Y-129809463D01*
X153508394Y-129809462D01*
X153346432Y-129742374D01*
X153346424Y-129742371D01*
X153346423Y-129742371D01*
X153346417Y-129742369D01*
X153244324Y-129722062D01*
X153143465Y-129702000D01*
X153143462Y-129702000D01*
X152936538Y-129702000D01*
X152936535Y-129702000D01*
X152835681Y-129722061D01*
X152835676Y-129722062D01*
X152733582Y-129742369D01*
X152733566Y-129742374D01*
X152542404Y-129821557D01*
X152370345Y-129936521D01*
X152224021Y-130082845D01*
X152109057Y-130254904D01*
X152029874Y-130446066D01*
X152029866Y-130446090D01*
X152009591Y-130548019D01*
X152009592Y-130548020D01*
X151989500Y-130649035D01*
X151989500Y-130855965D01*
X152007308Y-130945493D01*
X152007307Y-130945493D01*
X152029866Y-131058908D01*
X152029874Y-131058932D01*
X152109059Y-131250098D01*
X152213704Y-131406713D01*
X152213720Y-131406737D01*
X152224023Y-131422155D01*
X152370345Y-131568477D01*
X152542402Y-131683441D01*
X152733580Y-131762630D01*
X152936535Y-131803000D01*
X152936538Y-131803000D01*
X153143462Y-131803000D01*
X153143465Y-131803000D01*
X153346420Y-131762630D01*
X153537598Y-131683441D01*
X153709655Y-131568477D01*
X153855977Y-131422155D01*
X153970941Y-131250098D01*
X154050130Y-131058920D01*
X154090500Y-130855965D01*
X154090500Y-130649035D01*
X154050130Y-130446080D01*
X154011327Y-130352401D01*
X153984748Y-130288233D01*
X153981018Y-130269482D01*
X153981018Y-130256747D01*
X153995370Y-130222099D01*
X154119164Y-130098306D01*
X154530000Y-130098306D01*
X154530000Y-130602500D01*
X155038696Y-130602500D01*
X155073344Y-130616852D01*
X155087696Y-130651500D01*
X155086026Y-130664182D01*
X155080000Y-130686670D01*
X155080000Y-130818329D01*
X155086026Y-130840818D01*
X155081131Y-130878000D01*
X155051378Y-130900830D01*
X155038696Y-130902500D01*
X154530001Y-130902500D01*
X154530001Y-131406691D01*
X154530002Y-131406715D01*
X154530003Y-131406735D01*
X154530004Y-131406737D01*
X154532849Y-131437096D01*
X154532850Y-131437105D01*
X154532852Y-131437112D01*
X154577646Y-131565128D01*
X154577652Y-131565142D01*
X154577659Y-131565154D01*
X154658206Y-131674292D01*
X154670603Y-131683441D01*
X154767351Y-131754844D01*
X154767359Y-131754848D01*
X154767368Y-131754851D01*
X154767370Y-131754852D01*
X154895391Y-131799648D01*
X154895393Y-131799648D01*
X154895395Y-131799649D01*
X154925785Y-131802498D01*
X154925794Y-131802498D01*
X154925806Y-131802499D01*
X155429998Y-131802499D01*
X155429999Y-131802499D01*
X155430000Y-131802498D01*
X155430000Y-131293803D01*
X155444352Y-131259155D01*
X155479000Y-131244803D01*
X155491679Y-131246472D01*
X155505210Y-131250098D01*
X155514173Y-131252500D01*
X155645826Y-131252500D01*
X155645827Y-131252500D01*
X155654790Y-131250098D01*
X155668317Y-131246473D01*
X155705498Y-131251367D01*
X155728330Y-131281119D01*
X155730000Y-131293803D01*
X155730000Y-131802499D01*
X156234187Y-131802499D01*
X156234191Y-131802499D01*
X156234215Y-131802497D01*
X156264602Y-131799649D01*
X156264608Y-131799648D01*
X156392640Y-131754848D01*
X156392648Y-131754844D01*
X156501792Y-131674292D01*
X156582344Y-131565148D01*
X156582348Y-131565140D01*
X156627149Y-131437105D01*
X156627149Y-131437103D01*
X156627150Y-131437096D01*
X156627297Y-131436233D01*
X156627363Y-131434820D01*
X156629998Y-131406714D01*
X156629999Y-131406714D01*
X156630000Y-131406702D01*
X156630000Y-130902500D01*
X156121304Y-130902500D01*
X156086656Y-130888148D01*
X156072304Y-130853500D01*
X156073974Y-130840818D01*
X156079999Y-130818329D01*
X156080000Y-130818329D01*
X156080000Y-130686671D01*
X156079999Y-130686670D01*
X156073974Y-130664182D01*
X156078869Y-130627000D01*
X156108622Y-130604170D01*
X156121304Y-130602500D01*
X156629999Y-130602500D01*
X156629999Y-130098311D01*
X156629991Y-130098222D01*
X156627149Y-130067900D01*
X156627148Y-130067896D01*
X156627148Y-130067891D01*
X156582348Y-129939859D01*
X156582344Y-129939851D01*
X156579887Y-129936522D01*
X156501792Y-129830706D01*
X156392654Y-129750159D01*
X156392651Y-129750157D01*
X156392648Y-129750155D01*
X156392640Y-129750151D01*
X156392638Y-129750150D01*
X156392628Y-129750146D01*
X156264607Y-129705350D01*
X156264601Y-129705349D01*
X156234223Y-129702501D01*
X156234207Y-129702500D01*
X156234193Y-129702500D01*
X155730000Y-129702500D01*
X155730000Y-130211196D01*
X155715648Y-130245844D01*
X155681000Y-130260196D01*
X155668318Y-130258526D01*
X155645829Y-130252500D01*
X155645826Y-130252500D01*
X155514174Y-130252500D01*
X155514171Y-130252500D01*
X155491682Y-130258526D01*
X155454500Y-130253631D01*
X155431670Y-130223878D01*
X155430000Y-130211196D01*
X155430000Y-129702500D01*
X154925808Y-129702500D01*
X154925784Y-129702502D01*
X154925772Y-129702503D01*
X154925722Y-129702507D01*
X154895400Y-129705349D01*
X154895393Y-129705350D01*
X154895386Y-129705352D01*
X154767370Y-129750146D01*
X154767356Y-129750152D01*
X154767344Y-129750159D01*
X154658206Y-129830706D01*
X154577659Y-129939844D01*
X154577652Y-129939856D01*
X154577646Y-129939870D01*
X154532849Y-130067894D01*
X154532702Y-130068763D01*
X154532648Y-130069905D01*
X154532658Y-130069935D01*
X154532643Y-130070102D01*
X154530001Y-130098285D01*
X154530000Y-130098306D01*
X154119164Y-130098306D01*
X154154395Y-130063075D01*
X154171048Y-130046421D01*
X154350460Y-129867011D01*
X154390022Y-129798488D01*
X154410500Y-129722062D01*
X154410500Y-129642938D01*
X154410500Y-128109035D01*
X154529500Y-128109035D01*
X154529500Y-128315965D01*
X154540500Y-128371265D01*
X154540500Y-128371266D01*
X154569869Y-128518916D01*
X154569872Y-128518927D01*
X154628185Y-128659705D01*
X154638808Y-128685352D01*
X154649059Y-128710098D01*
X154726045Y-128825317D01*
X154760264Y-128876530D01*
X154764023Y-128882155D01*
X154910345Y-129028477D01*
X155082402Y-129143441D01*
X155273580Y-129222630D01*
X155476535Y-129263000D01*
X155476538Y-129263000D01*
X155683462Y-129263000D01*
X155683465Y-129263000D01*
X155886420Y-129222630D01*
X156077598Y-129143441D01*
X156249655Y-129028477D01*
X156395977Y-128882155D01*
X156510941Y-128710098D01*
X156590130Y-128518920D01*
X156630500Y-128315965D01*
X156630500Y-128109035D01*
X156590130Y-127906080D01*
X156510941Y-127714902D01*
X156395977Y-127542845D01*
X156249655Y-127396523D01*
X156249654Y-127396522D01*
X156077599Y-127281559D01*
X156077596Y-127281558D01*
X155886432Y-127202374D01*
X155886424Y-127202371D01*
X155886423Y-127202371D01*
X155886417Y-127202369D01*
X155802277Y-127185633D01*
X155683465Y-127162000D01*
X155683462Y-127162000D01*
X155476538Y-127162000D01*
X155476535Y-127162000D01*
X155375520Y-127182092D01*
X155375519Y-127182091D01*
X155273590Y-127202366D01*
X155273566Y-127202374D01*
X155082404Y-127281557D01*
X154910345Y-127396521D01*
X154764021Y-127542845D01*
X154649057Y-127714904D01*
X154569874Y-127906066D01*
X154569866Y-127906090D01*
X154549591Y-128008019D01*
X154549592Y-128008020D01*
X154529500Y-128109035D01*
X154410500Y-128109035D01*
X154410500Y-103970438D01*
X154410500Y-103970436D01*
X154401843Y-103938134D01*
X154390021Y-103894011D01*
X154390020Y-103894009D01*
X154390020Y-103894008D01*
X154350459Y-103825488D01*
X153681744Y-103156773D01*
X153671122Y-103140876D01*
X153664229Y-103124235D01*
X153660500Y-103105485D01*
X153660500Y-102967887D01*
X153660494Y-102967842D01*
X153660493Y-102955050D01*
X153661322Y-102948750D01*
X153680071Y-102916271D01*
X153716294Y-102906562D01*
X153717246Y-102906687D01*
X153717438Y-102906713D01*
X153745672Y-102920643D01*
X157138255Y-106313226D01*
X157148877Y-106329121D01*
X157155770Y-106345761D01*
X157159500Y-106364514D01*
X157159500Y-144715390D01*
X157157830Y-144728075D01*
X157154604Y-144740112D01*
X157151143Y-144748467D01*
X157151208Y-144748494D01*
X157149979Y-144751460D01*
X157129500Y-144827886D01*
X157129500Y-145238069D01*
X157125770Y-145256822D01*
X157118877Y-145273462D01*
X157108255Y-145289357D01*
X156944104Y-145453508D01*
X156940641Y-145456165D01*
X156899979Y-145526590D01*
X156898310Y-145532822D01*
X156898309Y-145532826D01*
X156879500Y-145603018D01*
X156879500Y-149915485D01*
X156875770Y-149934238D01*
X156868877Y-149950878D01*
X156858255Y-149966773D01*
X155146773Y-151678255D01*
X155130879Y-151688876D01*
X155114240Y-151695769D01*
X155095486Y-151699500D01*
X146616645Y-151699500D01*
X146597894Y-151695770D01*
X146581251Y-151688876D01*
X146565357Y-151678255D01*
X146526616Y-151639514D01*
X146526613Y-151639511D01*
X146526609Y-151639509D01*
X146526607Y-151639507D01*
X146477162Y-151610960D01*
X146423887Y-151580201D01*
X146423884Y-151580200D01*
X146423881Y-151580199D01*
X146423875Y-151580197D01*
X146309314Y-151549500D01*
X146309312Y-151549500D01*
X146309309Y-151549500D01*
X146190691Y-151549500D01*
X146190688Y-151549500D01*
X146190685Y-151549500D01*
X146076132Y-151580195D01*
X146076112Y-151580201D01*
X145971480Y-151640611D01*
X145968822Y-151644075D01*
X145894075Y-151718822D01*
X145890611Y-151721480D01*
X145830201Y-151826112D01*
X145830195Y-151826132D01*
X145799500Y-151940685D01*
X145799500Y-152059313D01*
X145830195Y-152173866D01*
X145830201Y-152173887D01*
X145836332Y-152184507D01*
X145836335Y-152184511D01*
X145889507Y-152276607D01*
X145889509Y-152276609D01*
X145889511Y-152276613D01*
X145973387Y-152360489D01*
X146032691Y-152394728D01*
X146076110Y-152419797D01*
X146076114Y-152419799D01*
X146104758Y-152427474D01*
X146190686Y-152450500D01*
X146190688Y-152450500D01*
X146190691Y-152450500D01*
X146309310Y-152450500D01*
X146309311Y-152450500D01*
X146366597Y-152435149D01*
X146423886Y-152419799D01*
X146526613Y-152360489D01*
X146565362Y-152321739D01*
X146581251Y-152311123D01*
X146597896Y-152304228D01*
X146616645Y-152300500D01*
X155289563Y-152300500D01*
X155289564Y-152300500D01*
X155316230Y-152293354D01*
X155365989Y-152280021D01*
X155434511Y-152240460D01*
X155490460Y-152184511D01*
X157420460Y-150254511D01*
X157434900Y-150229500D01*
X157460021Y-150185989D01*
X157480500Y-150109562D01*
X157480500Y-147409247D01*
X157484227Y-147390502D01*
X157487083Y-147383606D01*
X157513594Y-147357088D01*
X157520502Y-147354226D01*
X157539247Y-147350500D01*
X157860753Y-147350500D01*
X157879499Y-147354227D01*
X157886393Y-147357083D01*
X157912913Y-147383598D01*
X157915771Y-147390499D01*
X157919500Y-147409247D01*
X157919500Y-150257831D01*
X157915770Y-150276583D01*
X157911513Y-150286860D01*
X157890739Y-150310546D01*
X157888764Y-150311686D01*
X157876951Y-150316578D01*
X157826123Y-150330197D01*
X157826112Y-150330201D01*
X157721480Y-150390611D01*
X157718822Y-150394075D01*
X157644075Y-150468822D01*
X157640611Y-150471480D01*
X157580201Y-150576112D01*
X157580199Y-150576118D01*
X157549500Y-150690685D01*
X157549500Y-150809313D01*
X157564850Y-150866597D01*
X157580200Y-150923884D01*
X157580201Y-150923887D01*
X157610960Y-150977162D01*
X157639507Y-151026607D01*
X157639509Y-151026609D01*
X157639511Y-151026613D01*
X157723387Y-151110489D01*
X157782691Y-151144728D01*
X157826110Y-151169797D01*
X157826114Y-151169799D01*
X157854758Y-151177474D01*
X157940686Y-151200500D01*
X157940688Y-151200500D01*
X157940691Y-151200500D01*
X158059310Y-151200500D01*
X158059311Y-151200500D01*
X158116597Y-151185149D01*
X158173886Y-151169799D01*
X158276613Y-151110489D01*
X158360489Y-151026613D01*
X158419799Y-150923886D01*
X158435149Y-150866597D01*
X158450500Y-150809311D01*
X158450500Y-150752214D01*
X158453101Y-150736462D01*
X158459136Y-150718685D01*
X158463101Y-150709936D01*
X158474213Y-150690691D01*
X158500020Y-150645991D01*
X158500022Y-150645986D01*
X158518743Y-150576117D01*
X158518744Y-150576114D01*
X158520500Y-150569564D01*
X158520500Y-145448670D01*
X158508027Y-145402124D01*
X158508027Y-145402123D01*
X158500020Y-145372243D01*
X158500020Y-145372242D01*
X158460459Y-145303722D01*
X158101744Y-144945007D01*
X158091122Y-144929110D01*
X158084229Y-144912469D01*
X158080500Y-144893719D01*
X158080500Y-105740436D01*
X158067169Y-105690688D01*
X158067169Y-105690687D01*
X158060020Y-105664009D01*
X158060020Y-105664008D01*
X158034939Y-105620568D01*
X158020460Y-105595489D01*
X157964511Y-105539540D01*
X153971744Y-101546773D01*
X153961122Y-101530876D01*
X153954229Y-101514235D01*
X153950500Y-101495485D01*
X153950500Y-101440686D01*
X153923226Y-101338904D01*
X153923226Y-101338903D01*
X153921228Y-101331446D01*
X153919799Y-101326114D01*
X153860489Y-101223387D01*
X153776613Y-101139511D01*
X153776609Y-101139509D01*
X153776607Y-101139507D01*
X153727162Y-101110960D01*
X153673887Y-101080201D01*
X153673884Y-101080200D01*
X153673881Y-101080199D01*
X153673875Y-101080197D01*
X153559314Y-101049500D01*
X153559312Y-101049500D01*
X153559309Y-101049500D01*
X153440691Y-101049500D01*
X153440688Y-101049500D01*
X153440685Y-101049500D01*
X153326132Y-101080195D01*
X153326112Y-101080201D01*
X153221480Y-101140611D01*
X153218822Y-101144075D01*
X153144075Y-101218822D01*
X153140611Y-101221480D01*
X153088044Y-101312528D01*
X153075434Y-101326906D01*
X153069516Y-101331446D01*
X153033295Y-101341149D01*
X153030006Y-101340716D01*
X153001754Y-101326783D01*
X152721744Y-101046773D01*
X152711122Y-101030876D01*
X152704229Y-101014235D01*
X152700500Y-100995485D01*
X152700500Y-100940686D01*
X152671468Y-100832344D01*
X152669799Y-100826115D01*
X152669798Y-100826112D01*
X152610488Y-100723386D01*
X152526613Y-100639511D01*
X152526609Y-100639509D01*
X152526607Y-100639507D01*
X152477162Y-100610960D01*
X152423887Y-100580201D01*
X152423884Y-100580200D01*
X152423881Y-100580199D01*
X152423875Y-100580197D01*
X152309314Y-100549500D01*
X152309312Y-100549500D01*
X152309309Y-100549500D01*
X152190691Y-100549500D01*
X152190688Y-100549500D01*
X152190685Y-100549500D01*
X152076132Y-100580195D01*
X152076112Y-100580201D01*
X151971480Y-100640611D01*
X151968822Y-100644075D01*
X151894075Y-100718822D01*
X151890612Y-100721479D01*
X151830201Y-100826110D01*
X151828532Y-100832342D01*
X151828531Y-100832344D01*
X151806808Y-100913408D01*
X151798355Y-100930551D01*
X151793814Y-100936470D01*
X151761351Y-100955222D01*
X151760783Y-100955297D01*
X151729866Y-100949153D01*
X151727890Y-100948012D01*
X151717745Y-100940226D01*
X149737073Y-98959553D01*
X149737065Y-98959545D01*
X149737061Y-98959542D01*
X149737055Y-98959537D01*
X149716804Y-98947846D01*
X149716804Y-98947845D01*
X149716802Y-98947845D01*
X149704411Y-98940691D01*
X149668551Y-98919987D01*
X149668537Y-98919979D01*
X149668525Y-98919973D01*
X149667582Y-98919616D01*
X149660467Y-98916238D01*
X149649183Y-98909723D01*
X149639042Y-98901940D01*
X149580079Y-98842977D01*
X149572296Y-98832836D01*
X149567180Y-98823978D01*
X149562280Y-98786800D01*
X149563264Y-98783125D01*
X149575947Y-98761154D01*
X149576610Y-98760490D01*
X149576613Y-98760489D01*
X149660489Y-98676613D01*
X149719799Y-98573886D01*
X149746422Y-98474529D01*
X149750500Y-98459311D01*
X149750500Y-98340688D01*
X149750500Y-98340686D01*
X149734046Y-98279284D01*
X149719799Y-98226115D01*
X149719798Y-98226112D01*
X149660488Y-98123386D01*
X149576613Y-98039511D01*
X149576609Y-98039509D01*
X149576607Y-98039507D01*
X149513294Y-98002953D01*
X149473887Y-97980201D01*
X149473884Y-97980200D01*
X149473881Y-97980199D01*
X149473875Y-97980197D01*
X149359314Y-97949500D01*
X149359312Y-97949500D01*
X149359309Y-97949500D01*
X149240691Y-97949500D01*
X149240688Y-97949500D01*
X149240685Y-97949500D01*
X149126534Y-97980087D01*
X149126140Y-97980189D01*
X149126110Y-97980201D01*
X149032440Y-98034283D01*
X149014331Y-98040429D01*
X149006935Y-98041402D01*
X148970734Y-98031710D01*
X148970280Y-98031362D01*
X148952760Y-98005155D01*
X148952170Y-98002953D01*
X148950500Y-97990271D01*
X148950500Y-97940686D01*
X148921468Y-97832344D01*
X148919799Y-97826115D01*
X148919798Y-97826112D01*
X148860488Y-97723386D01*
X148776613Y-97639511D01*
X148776609Y-97639509D01*
X148776607Y-97639507D01*
X148727162Y-97610960D01*
X148673887Y-97580201D01*
X148673884Y-97580200D01*
X148673881Y-97580199D01*
X148673875Y-97580197D01*
X148559314Y-97549500D01*
X148559312Y-97549500D01*
X148559309Y-97549500D01*
X148440691Y-97549500D01*
X148440688Y-97549500D01*
X148440685Y-97549500D01*
X148326132Y-97580195D01*
X148326112Y-97580201D01*
X148221480Y-97640611D01*
X148218822Y-97644075D01*
X148144075Y-97718822D01*
X148140612Y-97721479D01*
X148080201Y-97826110D01*
X148078532Y-97832342D01*
X148078531Y-97832344D01*
X148056459Y-97914711D01*
X148048005Y-97931855D01*
X148043463Y-97937775D01*
X148018713Y-97952065D01*
X148017232Y-97953635D01*
X148015931Y-97953672D01*
X148010986Y-97956528D01*
X148010978Y-97956529D01*
X148003582Y-97957502D01*
X147984510Y-97956252D01*
X147959310Y-97949500D01*
X147959309Y-97949500D01*
X147840691Y-97949500D01*
X147840688Y-97949500D01*
X147840685Y-97949500D01*
X147726132Y-97980195D01*
X147726112Y-97980201D01*
X147621480Y-98040611D01*
X147618822Y-98044075D01*
X147544075Y-98118822D01*
X147540611Y-98121480D01*
X147480201Y-98226112D01*
X147480195Y-98226132D01*
X147449500Y-98340685D01*
X147449500Y-98459311D01*
X147456252Y-98484508D01*
X147455731Y-98488460D01*
X147457503Y-98503588D01*
X147456529Y-98510985D01*
X147451656Y-98519424D01*
X147451358Y-98521690D01*
X147449370Y-98523383D01*
X147437777Y-98543462D01*
X147431859Y-98548003D01*
X147414713Y-98556459D01*
X147332345Y-98578531D01*
X147332341Y-98578531D01*
X147332342Y-98578532D01*
X147326110Y-98580201D01*
X147221479Y-98640612D01*
X147218822Y-98644075D01*
X147144075Y-98718822D01*
X147140611Y-98721480D01*
X147080201Y-98826112D01*
X147080195Y-98826132D01*
X147049500Y-98940685D01*
X147049500Y-99059313D01*
X147080195Y-99173866D01*
X147080200Y-99173884D01*
X147080201Y-99173887D01*
X147110960Y-99227162D01*
X147139507Y-99276607D01*
X147139509Y-99276609D01*
X147139511Y-99276613D01*
X147139514Y-99276616D01*
X147178255Y-99315357D01*
X147188877Y-99331252D01*
X147195770Y-99347892D01*
X147199500Y-99366645D01*
X147199500Y-99797209D01*
X147219865Y-99873211D01*
X147219967Y-99873607D01*
X147219977Y-99873631D01*
X147246657Y-99919840D01*
X147246656Y-99919840D01*
X147246658Y-99919843D01*
X147255759Y-99935606D01*
X147259535Y-99942148D01*
X147259536Y-99942149D01*
X147259545Y-99942161D01*
X147259553Y-99942169D01*
X150776344Y-103458959D01*
X150786962Y-103474847D01*
X150787754Y-103476758D01*
X150787762Y-103514261D01*
X150761248Y-103540784D01*
X150723745Y-103540792D01*
X150723738Y-103540789D01*
X150719124Y-103538878D01*
X150703226Y-103528255D01*
X143071744Y-95896773D01*
X143061122Y-95880876D01*
X143054229Y-95864235D01*
X143050500Y-95845485D01*
X143050500Y-87366645D01*
X143054229Y-87347895D01*
X143054230Y-87347892D01*
X143061123Y-87331251D01*
X143071739Y-87315362D01*
X143110488Y-87276614D01*
X143110489Y-87276613D01*
X143169799Y-87173886D01*
X143185149Y-87116597D01*
X143200500Y-87059311D01*
X143200500Y-86940688D01*
X143200500Y-86940686D01*
X143184046Y-86879284D01*
X143169799Y-86826115D01*
X143169798Y-86826112D01*
X143110488Y-86723386D01*
X143026613Y-86639511D01*
X143026609Y-86639509D01*
X143026607Y-86639507D01*
X142977162Y-86610960D01*
X142923887Y-86580201D01*
X142923884Y-86580200D01*
X142923881Y-86580199D01*
X142923875Y-86580197D01*
X142809314Y-86549500D01*
X142809312Y-86549500D01*
X142809309Y-86549500D01*
X142690691Y-86549500D01*
X142690688Y-86549500D01*
X142690685Y-86549500D01*
X142576132Y-86580195D01*
X142576112Y-86580201D01*
X142471480Y-86640611D01*
X142468822Y-86644075D01*
X142394075Y-86718822D01*
X142390611Y-86721480D01*
X142330201Y-86826112D01*
X142330195Y-86826132D01*
X142299500Y-86940685D01*
X140500500Y-86940685D01*
X140500500Y-67661535D01*
X141949500Y-67661535D01*
X141949500Y-67868465D01*
X141972585Y-67984523D01*
X141972584Y-67984523D01*
X141989866Y-68071408D01*
X141989874Y-68071432D01*
X142069058Y-68262596D01*
X142069059Y-68262599D01*
X142177627Y-68425083D01*
X142184023Y-68434655D01*
X142330345Y-68580977D01*
X142502402Y-68695941D01*
X142693580Y-68775130D01*
X142896535Y-68815500D01*
X142896538Y-68815500D01*
X143103462Y-68815500D01*
X143103465Y-68815500D01*
X143306420Y-68775130D01*
X143497598Y-68695941D01*
X143669655Y-68580977D01*
X143815977Y-68434655D01*
X143930941Y-68262598D01*
X144010130Y-68071420D01*
X144050500Y-67868465D01*
X144050500Y-67661535D01*
X144010130Y-67458580D01*
X143930941Y-67267402D01*
X143842088Y-67134423D01*
X143815977Y-67095344D01*
X143669656Y-66949023D01*
X143656466Y-66940211D01*
X143656465Y-66940210D01*
X143537131Y-66860474D01*
X143537131Y-66860473D01*
X143497598Y-66834059D01*
X143497596Y-66834058D01*
X143352097Y-66773790D01*
X143352097Y-66773789D01*
X143336608Y-66767374D01*
X143336607Y-66767374D01*
X143306432Y-66754874D01*
X143306424Y-66754871D01*
X143306423Y-66754871D01*
X143306417Y-66754869D01*
X143203967Y-66734491D01*
X143186029Y-66730923D01*
X145524500Y-66730923D01*
X145524500Y-68359075D01*
X145549494Y-68484724D01*
X145549497Y-68484737D01*
X145549498Y-68484743D01*
X145595638Y-68596132D01*
X145595639Y-68596136D01*
X145598533Y-68603124D01*
X145660576Y-68695979D01*
X145669724Y-68709669D01*
X145760331Y-68800276D01*
X145866873Y-68871465D01*
X145985256Y-68920501D01*
X146110931Y-68945500D01*
X146239067Y-68945500D01*
X146239069Y-68945500D01*
X146254031Y-68942523D01*
X146254035Y-68942524D01*
X146254035Y-68942523D01*
X146268467Y-68939653D01*
X146284438Y-68936475D01*
X146316385Y-68930120D01*
X146364744Y-68920501D01*
X146483127Y-68871465D01*
X146589669Y-68800276D01*
X146680276Y-68709669D01*
X146751465Y-68603127D01*
X146800501Y-68484744D01*
X146803979Y-68467255D01*
X146809438Y-68439819D01*
X146815682Y-68408425D01*
X146821812Y-68377611D01*
X146821814Y-68377598D01*
X146825500Y-68359069D01*
X146825500Y-67102584D01*
X146975000Y-67102584D01*
X146975000Y-67247414D01*
X147012478Y-67387282D01*
X147012480Y-67387288D01*
X147012485Y-67387297D01*
X147044725Y-67443141D01*
X147044725Y-67443140D01*
X147044726Y-67443141D01*
X147257940Y-67229928D01*
X147292588Y-67215576D01*
X147327236Y-67229928D01*
X147337857Y-67245822D01*
X147355448Y-67288291D01*
X147355449Y-67288292D01*
X147355450Y-67288294D01*
X147411706Y-67344550D01*
X147411708Y-67344551D01*
X147411709Y-67344552D01*
X147454174Y-67362141D01*
X147480693Y-67388659D01*
X147480693Y-67426162D01*
X147470071Y-67442059D01*
X147256857Y-67655271D01*
X147256857Y-67655272D01*
X147256858Y-67655273D01*
X147312705Y-67687517D01*
X147312708Y-67687517D01*
X147312725Y-67687525D01*
X147313051Y-67687609D01*
X147375017Y-67704214D01*
X147452586Y-67725000D01*
X147597411Y-67725000D01*
X147597413Y-67725000D01*
X147687015Y-67700990D01*
X147737288Y-67687519D01*
X147737294Y-67687517D01*
X147793140Y-67655273D01*
X147793141Y-67655272D01*
X147793140Y-67655271D01*
X147793141Y-67655271D01*
X147579928Y-67442059D01*
X147565576Y-67407411D01*
X147579928Y-67372763D01*
X147595822Y-67362142D01*
X147638291Y-67344552D01*
X147638292Y-67344550D01*
X147638294Y-67344550D01*
X147694550Y-67288294D01*
X147694550Y-67288292D01*
X147694552Y-67288291D01*
X147712142Y-67245823D01*
X147738659Y-67219306D01*
X147776162Y-67219306D01*
X147792058Y-67229926D01*
X147816108Y-67253976D01*
X147823891Y-67264120D01*
X147830118Y-67274904D01*
X147830124Y-67274915D01*
X147835018Y-67286732D01*
X147862009Y-67387464D01*
X147862015Y-67387486D01*
X147927782Y-67501395D01*
X147934487Y-67513009D01*
X147934489Y-67513011D01*
X147934491Y-67513015D01*
X148036985Y-67615509D01*
X148082930Y-67642035D01*
X148162511Y-67687983D01*
X148162515Y-67687984D01*
X148197517Y-67697363D01*
X148302520Y-67725500D01*
X148447477Y-67725500D01*
X148447479Y-67725500D01*
X148522656Y-67705355D01*
X148538950Y-67700989D01*
X148587485Y-67687984D01*
X148588291Y-67687519D01*
X148604304Y-67678273D01*
X148713015Y-67615509D01*
X148758464Y-67570059D01*
X148774350Y-67559444D01*
X148781251Y-67556586D01*
X148818750Y-67556586D01*
X148825647Y-67559443D01*
X148841540Y-67570064D01*
X148886985Y-67615509D01*
X148932930Y-67642035D01*
X149012511Y-67687983D01*
X149012515Y-67687984D01*
X149047517Y-67697363D01*
X149152520Y-67725500D01*
X149297477Y-67725500D01*
X149297479Y-67725500D01*
X149372656Y-67705355D01*
X149388950Y-67700989D01*
X149437485Y-67687984D01*
X149438291Y-67687519D01*
X149454304Y-67678273D01*
X149563015Y-67615509D01*
X149608464Y-67570059D01*
X149624350Y-67559444D01*
X149631251Y-67556586D01*
X149668750Y-67556586D01*
X149675647Y-67559443D01*
X149691540Y-67570064D01*
X149736985Y-67615509D01*
X149782930Y-67642035D01*
X149862511Y-67687983D01*
X149862515Y-67687984D01*
X149897517Y-67697363D01*
X150002520Y-67725500D01*
X150002522Y-67725500D01*
X150002525Y-67725500D01*
X150034485Y-67725500D01*
X150053236Y-67729230D01*
X150069875Y-67736122D01*
X150085772Y-67746744D01*
X150238106Y-67899078D01*
X150248728Y-67914974D01*
X150250747Y-67919848D01*
X150250748Y-67957351D01*
X150224234Y-67983868D01*
X150223189Y-67984301D01*
X150191749Y-67986362D01*
X150175796Y-67982088D01*
X150147480Y-67974500D01*
X150147478Y-67974500D01*
X150147475Y-67974500D01*
X150002525Y-67974500D01*
X150002522Y-67974500D01*
X150002519Y-67974500D01*
X149862935Y-68011902D01*
X149862541Y-68012004D01*
X149862511Y-68012016D01*
X149735078Y-68085591D01*
X149732420Y-68089055D01*
X149691540Y-68129935D01*
X149675645Y-68140557D01*
X149668753Y-68143412D01*
X149631250Y-68143413D01*
X149631249Y-68143413D01*
X149624354Y-68140557D01*
X149608459Y-68129935D01*
X149563018Y-68084494D01*
X149563015Y-68084491D01*
X149563011Y-68084489D01*
X149563009Y-68084487D01*
X149437487Y-68012016D01*
X149437459Y-68012004D01*
X149437063Y-68011902D01*
X149297481Y-67974500D01*
X149297478Y-67974500D01*
X149297475Y-67974500D01*
X149152525Y-67974500D01*
X149152522Y-67974500D01*
X149152519Y-67974500D01*
X149012935Y-68011902D01*
X149012541Y-68012004D01*
X149012511Y-68012016D01*
X148885078Y-68085591D01*
X148882420Y-68089055D01*
X148841540Y-68129935D01*
X148825645Y-68140557D01*
X148818753Y-68143412D01*
X148781250Y-68143413D01*
X148781249Y-68143413D01*
X148774354Y-68140557D01*
X148758459Y-68129935D01*
X148713018Y-68084494D01*
X148713015Y-68084491D01*
X148713011Y-68084489D01*
X148713009Y-68084487D01*
X148587487Y-68012016D01*
X148587459Y-68012004D01*
X148587063Y-68011902D01*
X148447481Y-67974500D01*
X148447478Y-67974500D01*
X148447475Y-67974500D01*
X148302525Y-67974500D01*
X148302522Y-67974500D01*
X148302519Y-67974500D01*
X148162935Y-68011902D01*
X148162541Y-68012004D01*
X148162511Y-68012016D01*
X148035078Y-68085591D01*
X148032420Y-68089055D01*
X147939055Y-68182420D01*
X147935591Y-68185078D01*
X147862015Y-68312512D01*
X147862009Y-68312534D01*
X147835018Y-68413266D01*
X147830124Y-68425083D01*
X147823893Y-68435876D01*
X147816105Y-68446025D01*
X147792059Y-68470071D01*
X147757411Y-68484423D01*
X147722763Y-68470071D01*
X147712141Y-68454174D01*
X147711484Y-68452588D01*
X147694552Y-68411709D01*
X147694551Y-68411708D01*
X147694550Y-68411706D01*
X147638294Y-68355450D01*
X147638292Y-68355449D01*
X147638291Y-68355448D01*
X147595823Y-68337857D01*
X147569306Y-68311339D01*
X147569306Y-68273836D01*
X147579926Y-68257941D01*
X147793141Y-68044726D01*
X147793140Y-68044725D01*
X147737307Y-68012490D01*
X147737288Y-68012480D01*
X147737282Y-68012478D01*
X147597415Y-67975000D01*
X147597412Y-67975000D01*
X147452588Y-67975000D01*
X147452585Y-67975000D01*
X147312716Y-68012478D01*
X147312712Y-68012479D01*
X147256857Y-68044725D01*
X147470072Y-68257940D01*
X147484424Y-68292588D01*
X147470072Y-68327236D01*
X147454176Y-68337858D01*
X147411707Y-68355449D01*
X147355449Y-68411707D01*
X147355448Y-68411708D01*
X147355448Y-68411709D01*
X147338516Y-68452588D01*
X147337858Y-68454176D01*
X147311339Y-68480694D01*
X147273836Y-68480694D01*
X147257940Y-68470072D01*
X147044725Y-68256857D01*
X147012479Y-68312712D01*
X147012478Y-68312716D01*
X146975000Y-68452584D01*
X146975000Y-68597414D01*
X147012478Y-68737282D01*
X147012480Y-68737288D01*
X147012485Y-68737297D01*
X147044725Y-68793141D01*
X147044725Y-68793140D01*
X147044726Y-68793141D01*
X147257940Y-68579928D01*
X147292588Y-68565576D01*
X147327236Y-68579928D01*
X147337857Y-68595822D01*
X147355448Y-68638291D01*
X147355449Y-68638292D01*
X147355450Y-68638294D01*
X147411706Y-68694550D01*
X147411708Y-68694551D01*
X147411709Y-68694552D01*
X147454174Y-68712141D01*
X147480693Y-68738659D01*
X147480693Y-68776162D01*
X147470071Y-68792059D01*
X147256856Y-69005271D01*
X147256857Y-69005271D01*
X147256857Y-69005272D01*
X147256858Y-69005273D01*
X147312705Y-69037517D01*
X147312708Y-69037517D01*
X147312725Y-69037525D01*
X147313051Y-69037609D01*
X147367273Y-69052139D01*
X147452586Y-69075000D01*
X147597411Y-69075000D01*
X147597413Y-69075000D01*
X147686985Y-69050998D01*
X147737288Y-69037519D01*
X147737294Y-69037517D01*
X147793140Y-69005273D01*
X147793141Y-69005272D01*
X147793140Y-69005271D01*
X147793141Y-69005271D01*
X147579928Y-68792059D01*
X147565576Y-68757411D01*
X147579928Y-68722763D01*
X147595822Y-68712142D01*
X147638291Y-68694552D01*
X147638292Y-68694550D01*
X147638294Y-68694550D01*
X147694550Y-68638294D01*
X147694550Y-68638292D01*
X147694552Y-68638291D01*
X147712142Y-68595823D01*
X147738659Y-68569306D01*
X147776162Y-68569306D01*
X147792058Y-68579926D01*
X147816108Y-68603976D01*
X147823893Y-68614122D01*
X147830124Y-68624915D01*
X147835018Y-68636732D01*
X147862009Y-68737464D01*
X147862015Y-68737486D01*
X147893524Y-68792059D01*
X147907058Y-68815500D01*
X147934491Y-68863015D01*
X148036985Y-68965509D01*
X148082930Y-68992035D01*
X148162511Y-69037983D01*
X148162515Y-69037984D01*
X148197517Y-69047363D01*
X148302520Y-69075500D01*
X148447477Y-69075500D01*
X148447479Y-69075500D01*
X148503623Y-69060455D01*
X148517480Y-69056742D01*
X148587485Y-69037984D01*
X148588291Y-69037519D01*
X148604304Y-69028273D01*
X148713015Y-68965509D01*
X148758464Y-68920059D01*
X148774350Y-68909444D01*
X148781251Y-68906586D01*
X148818750Y-68906586D01*
X148825647Y-68909443D01*
X148841540Y-68920064D01*
X148886985Y-68965509D01*
X148932930Y-68992035D01*
X149012511Y-69037983D01*
X149012515Y-69037984D01*
X149047517Y-69047363D01*
X149152520Y-69075500D01*
X149297477Y-69075500D01*
X149297479Y-69075500D01*
X149353623Y-69060455D01*
X149367480Y-69056742D01*
X149437485Y-69037984D01*
X149438291Y-69037519D01*
X149454304Y-69028273D01*
X149563015Y-68965509D01*
X149608464Y-68920059D01*
X149624350Y-68909444D01*
X149631251Y-68906586D01*
X149668750Y-68906586D01*
X149675647Y-68909443D01*
X149691540Y-68920064D01*
X149736985Y-68965509D01*
X149782930Y-68992035D01*
X149862511Y-69037983D01*
X149862515Y-69037984D01*
X149897517Y-69047363D01*
X150002520Y-69075500D01*
X150147477Y-69075500D01*
X150147479Y-69075500D01*
X150188867Y-69064409D01*
X150250952Y-69047773D01*
X150272590Y-69041974D01*
X150291659Y-69040725D01*
X150296889Y-69041413D01*
X150329369Y-69060161D01*
X150339082Y-69096365D01*
X150338935Y-69097486D01*
X150324999Y-69125763D01*
X150219486Y-69231275D01*
X150219473Y-69231292D01*
X150140422Y-69368213D01*
X150140412Y-69368238D01*
X150140309Y-69368636D01*
X150099500Y-69520935D01*
X150099500Y-69679063D01*
X150140309Y-69831362D01*
X150140412Y-69831761D01*
X150140422Y-69831785D01*
X150219470Y-69968701D01*
X150219479Y-69968715D01*
X150331315Y-70080551D01*
X150331910Y-70080907D01*
X150334542Y-70082533D01*
X150335573Y-70082997D01*
X150422957Y-70133447D01*
X150468214Y-70159577D01*
X150532762Y-70176871D01*
X150588665Y-70191851D01*
X150617847Y-70199670D01*
X150620290Y-70200500D01*
X150779060Y-70200500D01*
X150785854Y-70200500D01*
X150791740Y-70197101D01*
X150931784Y-70159577D01*
X151068716Y-70080520D01*
X151180520Y-69968716D01*
X151186451Y-69958441D01*
X151199061Y-69944063D01*
X151210062Y-69935623D01*
X151239888Y-69925500D01*
X155949650Y-69925500D01*
X155955535Y-69922101D01*
X156025639Y-69903318D01*
X156099862Y-69860465D01*
X156760465Y-69199862D01*
X156803318Y-69125639D01*
X156822101Y-69055535D01*
X156825500Y-69049649D01*
X156825500Y-68287103D01*
X156829228Y-68268355D01*
X156831247Y-68263480D01*
X156857763Y-68236961D01*
X156895266Y-68236958D01*
X156921787Y-68263475D01*
X156921788Y-68263478D01*
X156961383Y-68359068D01*
X156969059Y-68377598D01*
X156997055Y-68419497D01*
X157011732Y-68441463D01*
X157040967Y-68485218D01*
X157067548Y-68524999D01*
X157084023Y-68549655D01*
X157230345Y-68695977D01*
X157402402Y-68810941D01*
X157535244Y-68865965D01*
X157551139Y-68876585D01*
X157560146Y-68885591D01*
X157574500Y-68920238D01*
X157574500Y-72935129D01*
X157570770Y-72953882D01*
X157563877Y-72970522D01*
X157553255Y-72986417D01*
X155886417Y-74653255D01*
X155870523Y-74663876D01*
X155853884Y-74670769D01*
X155835130Y-74674500D01*
X154341645Y-74674500D01*
X154322894Y-74670770D01*
X154306251Y-74663876D01*
X154290357Y-74653255D01*
X154276616Y-74639514D01*
X154276613Y-74639511D01*
X154276609Y-74639509D01*
X154276607Y-74639507D01*
X154227162Y-74610960D01*
X154173887Y-74580201D01*
X154173884Y-74580200D01*
X154173881Y-74580199D01*
X154173875Y-74580197D01*
X154059314Y-74549500D01*
X154059312Y-74549500D01*
X154059309Y-74549500D01*
X153940691Y-74549500D01*
X153940688Y-74549500D01*
X153940685Y-74549500D01*
X153826132Y-74580195D01*
X153826112Y-74580201D01*
X153721480Y-74640611D01*
X153718822Y-74644075D01*
X153644075Y-74718822D01*
X153640611Y-74721480D01*
X153580201Y-74826112D01*
X153580195Y-74826132D01*
X153549500Y-74940685D01*
X153549500Y-75059313D01*
X153580195Y-75173866D01*
X153580202Y-75173890D01*
X153630186Y-75260464D01*
X153630187Y-75260464D01*
X153639511Y-75276613D01*
X153723387Y-75360489D01*
X153782691Y-75394728D01*
X153826110Y-75419797D01*
X153826114Y-75419799D01*
X153854758Y-75427474D01*
X153940686Y-75450500D01*
X153940688Y-75450500D01*
X153940691Y-75450500D01*
X154059310Y-75450500D01*
X154059311Y-75450500D01*
X154116597Y-75435149D01*
X154173886Y-75419799D01*
X154276613Y-75360489D01*
X154290359Y-75346742D01*
X154306251Y-75336123D01*
X154322896Y-75329228D01*
X154341645Y-75325500D01*
X156049650Y-75325500D01*
X156055535Y-75322101D01*
X156125639Y-75303318D01*
X156199862Y-75260465D01*
X158092967Y-73367356D01*
X158092974Y-73367352D01*
X158099861Y-73360465D01*
X158099862Y-73360465D01*
X158160465Y-73299862D01*
X158181891Y-73262750D01*
X158203318Y-73225639D01*
X158225501Y-73142853D01*
X158225501Y-73057147D01*
X158225501Y-73054151D01*
X158225501Y-73053471D01*
X158225500Y-73053435D01*
X158225500Y-68924713D01*
X158229228Y-68905965D01*
X158234103Y-68894195D01*
X158260614Y-68867680D01*
X158397598Y-68810941D01*
X158569655Y-68695977D01*
X158578963Y-68686668D01*
X158594852Y-68676051D01*
X158599730Y-68674030D01*
X158637232Y-68674030D01*
X158663751Y-68700549D01*
X158665770Y-68705423D01*
X158669500Y-68724175D01*
X158669500Y-77337006D01*
X158665770Y-77355759D01*
X158658877Y-77372399D01*
X158648255Y-77388294D01*
X156855884Y-79180664D01*
X156779222Y-79295398D01*
X156726418Y-79422879D01*
X156699500Y-79558204D01*
X156699500Y-81779798D01*
X156695770Y-81798551D01*
X156688877Y-81815191D01*
X156678255Y-81831086D01*
X155940088Y-82569252D01*
X155905440Y-82583604D01*
X155905158Y-82583603D01*
X149226463Y-82545220D01*
X149160627Y-82552012D01*
X149160623Y-82552013D01*
X149108408Y-82563216D01*
X149108375Y-82563224D01*
X149069347Y-82574357D01*
X149069337Y-82574361D01*
X148972439Y-82631031D01*
X148972429Y-82631039D01*
X148919621Y-82676797D01*
X148919615Y-82676803D01*
X148877450Y-82721522D01*
X148877447Y-82721526D01*
X148826560Y-82821602D01*
X148806875Y-82888642D01*
X148794500Y-82974711D01*
X148794500Y-85976006D01*
X148801480Y-86040927D01*
X148801483Y-86040950D01*
X148812682Y-86092431D01*
X148812688Y-86092453D01*
X148823646Y-86130661D01*
X148823647Y-86130662D01*
X148880317Y-86227560D01*
X148880322Y-86227567D01*
X148880325Y-86227571D01*
X148920487Y-86273920D01*
X148926083Y-86280378D01*
X148926089Y-86280384D01*
X148970808Y-86322549D01*
X148970811Y-86322551D01*
X148970813Y-86322553D01*
X149020002Y-86347564D01*
X149070888Y-86373439D01*
X149137928Y-86393124D01*
X149224000Y-86405500D01*
X154894547Y-86405500D01*
X154929195Y-86419852D01*
X158303457Y-89794114D01*
X158418189Y-89870775D01*
X158510244Y-89908905D01*
X158526139Y-89919525D01*
X158535146Y-89928531D01*
X158549500Y-89963178D01*
X158549500Y-145069001D01*
X158576418Y-145204325D01*
X158629223Y-145331808D01*
X158629225Y-145331812D01*
X158656240Y-145372242D01*
X158705882Y-145446538D01*
X158803460Y-145544116D01*
X158849102Y-145574613D01*
X158849101Y-145574613D01*
X158918187Y-145620774D01*
X158918189Y-145620775D01*
X159045672Y-145673580D01*
X159045673Y-145673580D01*
X159045702Y-145673592D01*
X159045758Y-145673608D01*
X159046402Y-145673726D01*
X159170564Y-145698423D01*
X159181001Y-145700499D01*
X159181007Y-145700500D01*
X159318993Y-145700500D01*
X159454328Y-145673580D01*
X159581811Y-145620775D01*
X159696542Y-145544114D01*
X159794114Y-145446542D01*
X159870775Y-145331811D01*
X159923580Y-145204328D01*
X159950500Y-145068993D01*
X159950500Y-128181007D01*
X159950500Y-89181007D01*
X159923580Y-89045672D01*
X159870775Y-88918189D01*
X159870774Y-88918187D01*
X159824613Y-88849101D01*
X159824613Y-88849102D01*
X159794116Y-88803460D01*
X159696538Y-88705882D01*
X159628074Y-88660137D01*
X159581790Y-88629211D01*
X159581790Y-88629210D01*
X159581399Y-88628950D01*
X159579567Y-88628295D01*
X159454326Y-88576418D01*
X159454327Y-88576418D01*
X159319001Y-88549500D01*
X159318998Y-88549500D01*
X159318993Y-88549500D01*
X159181007Y-88549500D01*
X159164761Y-88552731D01*
X159156638Y-88554347D01*
X159098768Y-88565856D01*
X159079649Y-88565855D01*
X159065343Y-88563009D01*
X159040256Y-88549599D01*
X156806352Y-86315695D01*
X156792000Y-86281047D01*
X156805348Y-86247433D01*
X156822553Y-86229187D01*
X156873439Y-86129111D01*
X156893124Y-86062072D01*
X156905500Y-85976000D01*
X156905500Y-83605452D01*
X156919852Y-83570804D01*
X157944113Y-82546543D01*
X158020774Y-82431812D01*
X158020775Y-82431811D01*
X158073580Y-82304328D01*
X158100500Y-82168993D01*
X158100500Y-79947407D01*
X158104229Y-79928657D01*
X158111123Y-79912013D01*
X158121741Y-79896122D01*
X158837200Y-79180664D01*
X159914114Y-78103750D01*
X159990775Y-77989018D01*
X160043580Y-77861535D01*
X160070500Y-77726201D01*
X160070500Y-77588213D01*
X160070500Y-66741007D01*
X160065227Y-66714500D01*
X160043580Y-66605672D01*
X160043413Y-66605270D01*
X160008331Y-66520573D01*
X159990775Y-66478189D01*
X159914114Y-66363457D01*
X158971744Y-65421087D01*
X158961122Y-65405190D01*
X158954229Y-65388549D01*
X158950500Y-65369799D01*
X158950500Y-65236538D01*
X158950500Y-65236535D01*
X158910130Y-65033580D01*
X158830941Y-64842402D01*
X158715977Y-64670345D01*
X158569655Y-64524023D01*
X158569654Y-64524022D01*
X158397599Y-64409059D01*
X158397596Y-64409058D01*
X158206432Y-64329874D01*
X158206423Y-64329871D01*
X158206417Y-64329869D01*
X158206415Y-64329868D01*
X158206407Y-64329866D01*
X158124572Y-64313588D01*
X158124572Y-64313589D01*
X158003465Y-64289500D01*
X158003462Y-64289500D01*
X157796538Y-64289500D01*
X157796535Y-64289500D01*
X157695520Y-64309592D01*
X157695519Y-64309591D01*
X157593590Y-64329866D01*
X157593566Y-64329874D01*
X157402404Y-64409057D01*
X157230345Y-64524021D01*
X157084021Y-64670345D01*
X156969057Y-64842404D01*
X156889874Y-65033566D01*
X156889871Y-65033576D01*
X156889869Y-65033582D01*
X156881631Y-65075000D01*
X156849500Y-65236535D01*
X156849500Y-65443465D01*
X156867112Y-65532006D01*
X156867113Y-65532017D01*
X156889866Y-65646408D01*
X156889869Y-65646417D01*
X156889872Y-65646427D01*
X156939526Y-65766303D01*
X156944895Y-65779263D01*
X156948625Y-65798015D01*
X156948625Y-65810750D01*
X156934273Y-65845398D01*
X156239538Y-66540133D01*
X156239531Y-66540142D01*
X156196690Y-66614344D01*
X156196682Y-66614358D01*
X156196680Y-66614362D01*
X156186961Y-66650640D01*
X156186960Y-66650641D01*
X156174500Y-66697141D01*
X156174500Y-68835129D01*
X156170770Y-68853882D01*
X156163877Y-68870522D01*
X156153255Y-68886417D01*
X155786417Y-69253255D01*
X155770523Y-69263876D01*
X155753884Y-69270769D01*
X155735130Y-69274500D01*
X151243508Y-69274500D01*
X151224755Y-69270769D01*
X151211944Y-69265462D01*
X151188261Y-69244692D01*
X151180522Y-69231287D01*
X151180517Y-69231281D01*
X151085879Y-69136643D01*
X151075258Y-69120750D01*
X151072401Y-69113853D01*
X151072386Y-69076390D01*
X151072606Y-69075858D01*
X151093385Y-69052142D01*
X151095374Y-69050993D01*
X151107175Y-69046104D01*
X151109622Y-69045449D01*
X151109629Y-69045450D01*
X151109629Y-69045448D01*
X151127254Y-69040725D01*
X151137485Y-69037984D01*
X151138291Y-69037519D01*
X151154304Y-69028273D01*
X151263015Y-68965509D01*
X151308464Y-68920059D01*
X151324350Y-68909444D01*
X151331251Y-68906586D01*
X151368750Y-68906586D01*
X151375647Y-68909443D01*
X151391540Y-68920064D01*
X151436985Y-68965509D01*
X151482930Y-68992035D01*
X151562511Y-69037983D01*
X151562515Y-69037984D01*
X151597517Y-69047363D01*
X151702520Y-69075500D01*
X151847477Y-69075500D01*
X151847479Y-69075500D01*
X151903623Y-69060455D01*
X151917480Y-69056742D01*
X151987485Y-69037984D01*
X151988291Y-69037519D01*
X152004304Y-69028273D01*
X152113015Y-68965509D01*
X152158464Y-68920059D01*
X152174350Y-68909444D01*
X152181251Y-68906586D01*
X152218750Y-68906586D01*
X152225647Y-68909443D01*
X152241540Y-68920064D01*
X152286985Y-68965509D01*
X152332930Y-68992035D01*
X152412511Y-69037983D01*
X152412515Y-69037984D01*
X152447517Y-69047363D01*
X152552520Y-69075500D01*
X152697477Y-69075500D01*
X152697479Y-69075500D01*
X152753623Y-69060455D01*
X152767480Y-69056742D01*
X152837485Y-69037984D01*
X152838291Y-69037519D01*
X152854304Y-69028273D01*
X152963015Y-68965509D01*
X153065509Y-68863015D01*
X153137984Y-68737485D01*
X153164984Y-68636714D01*
X153169876Y-68624907D01*
X153176108Y-68614115D01*
X153183885Y-68603979D01*
X153207941Y-68579924D01*
X153242588Y-68565574D01*
X153277236Y-68579926D01*
X153287857Y-68595822D01*
X153305448Y-68638291D01*
X153305449Y-68638292D01*
X153305450Y-68638294D01*
X153361706Y-68694550D01*
X153361708Y-68694551D01*
X153361709Y-68694552D01*
X153404174Y-68712141D01*
X153430693Y-68738659D01*
X153430693Y-68776162D01*
X153420071Y-68792059D01*
X153206856Y-69005271D01*
X153206857Y-69005271D01*
X153206857Y-69005272D01*
X153206858Y-69005273D01*
X153262705Y-69037517D01*
X153262708Y-69037517D01*
X153262725Y-69037525D01*
X153263051Y-69037609D01*
X153317273Y-69052139D01*
X153402586Y-69075000D01*
X153547411Y-69075000D01*
X153547413Y-69075000D01*
X153636985Y-69050998D01*
X153687288Y-69037519D01*
X153687294Y-69037517D01*
X153743140Y-69005273D01*
X153743141Y-69005272D01*
X153743140Y-69005271D01*
X153743141Y-69005271D01*
X153529928Y-68792059D01*
X153515576Y-68757411D01*
X153529928Y-68722763D01*
X153545822Y-68712142D01*
X153588291Y-68694552D01*
X153588292Y-68694550D01*
X153588294Y-68694550D01*
X153644550Y-68638294D01*
X153644550Y-68638292D01*
X153644552Y-68638291D01*
X153662142Y-68595823D01*
X153688659Y-68569306D01*
X153726162Y-68569306D01*
X153742059Y-68579928D01*
X153955271Y-68793141D01*
X153955271Y-68793140D01*
X153955272Y-68793141D01*
X153955273Y-68793140D01*
X153987517Y-68737294D01*
X153987519Y-68737288D01*
X154023242Y-68603971D01*
X154025000Y-68597412D01*
X154025000Y-68452586D01*
X153999941Y-68359072D01*
X153987609Y-68313051D01*
X153987525Y-68312725D01*
X153987517Y-68312708D01*
X153987517Y-68312705D01*
X153961911Y-68268355D01*
X153955276Y-68256863D01*
X153955275Y-68256862D01*
X153955273Y-68256858D01*
X153955272Y-68256857D01*
X153955271Y-68256857D01*
X153742059Y-68470070D01*
X153707411Y-68484422D01*
X153672763Y-68470070D01*
X153662141Y-68454173D01*
X153654056Y-68434654D01*
X153644552Y-68411709D01*
X153644551Y-68411708D01*
X153644550Y-68411706D01*
X153588294Y-68355450D01*
X153588292Y-68355449D01*
X153588291Y-68355448D01*
X153545823Y-68337857D01*
X153519306Y-68311339D01*
X153519306Y-68273836D01*
X153529926Y-68257941D01*
X153743141Y-68044726D01*
X153743140Y-68044725D01*
X153687307Y-68012490D01*
X153687288Y-68012480D01*
X153687282Y-68012478D01*
X153547415Y-67975000D01*
X153547412Y-67975000D01*
X153402588Y-67975000D01*
X153402585Y-67975000D01*
X153262716Y-68012478D01*
X153262712Y-68012479D01*
X153206857Y-68044725D01*
X153420072Y-68257940D01*
X153434424Y-68292588D01*
X153420072Y-68327236D01*
X153404176Y-68337858D01*
X153361707Y-68355449D01*
X153305449Y-68411707D01*
X153305448Y-68411708D01*
X153305448Y-68411709D01*
X153288516Y-68452588D01*
X153287858Y-68454176D01*
X153261339Y-68480694D01*
X153223836Y-68480694D01*
X153207940Y-68470072D01*
X153183895Y-68446027D01*
X153176108Y-68435879D01*
X153169875Y-68425083D01*
X153164980Y-68413267D01*
X153137984Y-68312515D01*
X153137983Y-68312512D01*
X153065508Y-68186984D01*
X152963015Y-68084491D01*
X152963011Y-68084489D01*
X152963009Y-68084487D01*
X152837487Y-68012016D01*
X152837459Y-68012004D01*
X152837063Y-68011902D01*
X152697481Y-67974500D01*
X152697478Y-67974500D01*
X152697475Y-67974500D01*
X152552525Y-67974500D01*
X152552522Y-67974500D01*
X152552519Y-67974500D01*
X152412935Y-68011902D01*
X152412541Y-68012004D01*
X152412511Y-68012016D01*
X152285078Y-68085591D01*
X152282420Y-68089055D01*
X152241540Y-68129935D01*
X152225645Y-68140557D01*
X152218753Y-68143412D01*
X152181250Y-68143413D01*
X152181249Y-68143413D01*
X152174354Y-68140557D01*
X152158459Y-68129935D01*
X152113018Y-68084494D01*
X152113015Y-68084491D01*
X152113011Y-68084489D01*
X152113009Y-68084487D01*
X151987487Y-68012016D01*
X151987459Y-68012004D01*
X151987063Y-68011902D01*
X151847481Y-67974500D01*
X151847478Y-67974500D01*
X151847475Y-67974500D01*
X151702525Y-67974500D01*
X151702522Y-67974500D01*
X151702519Y-67974500D01*
X151562935Y-68011902D01*
X151562541Y-68012004D01*
X151562511Y-68012016D01*
X151435989Y-68085065D01*
X151435986Y-68085077D01*
X151432420Y-68089055D01*
X151391540Y-68129935D01*
X151375645Y-68140557D01*
X151368753Y-68143412D01*
X151331250Y-68143413D01*
X151331249Y-68143413D01*
X151324354Y-68140557D01*
X151308459Y-68129935D01*
X151277010Y-68098486D01*
X151269224Y-68088339D01*
X151262991Y-68077544D01*
X151258097Y-68065731D01*
X151236427Y-67984865D01*
X151236342Y-67984535D01*
X151236335Y-67984519D01*
X151218668Y-67953918D01*
X151218667Y-67953917D01*
X151192352Y-67908336D01*
X151192347Y-67908330D01*
X151128027Y-67844010D01*
X151128005Y-67843989D01*
X151073875Y-67789859D01*
X151063254Y-67773966D01*
X151060397Y-67767069D01*
X151060382Y-67729606D01*
X151060602Y-67729074D01*
X151081381Y-67705357D01*
X151083368Y-67704210D01*
X151095170Y-67699321D01*
X151137485Y-67687984D01*
X151138291Y-67687519D01*
X151154304Y-67678273D01*
X151263015Y-67615509D01*
X151308464Y-67570059D01*
X151324350Y-67559444D01*
X151331251Y-67556586D01*
X151368750Y-67556586D01*
X151375647Y-67559443D01*
X151391540Y-67570064D01*
X151436985Y-67615509D01*
X151482930Y-67642035D01*
X151562511Y-67687983D01*
X151562515Y-67687984D01*
X151597517Y-67697363D01*
X151702520Y-67725500D01*
X151847477Y-67725500D01*
X151847479Y-67725500D01*
X151922656Y-67705355D01*
X151938950Y-67700989D01*
X151987485Y-67687984D01*
X151988291Y-67687519D01*
X152004304Y-67678273D01*
X152113015Y-67615509D01*
X152158464Y-67570059D01*
X152174350Y-67559444D01*
X152181251Y-67556586D01*
X152218750Y-67556586D01*
X152225647Y-67559443D01*
X152241540Y-67570064D01*
X152286985Y-67615509D01*
X152332930Y-67642035D01*
X152412511Y-67687983D01*
X152412515Y-67687984D01*
X152447517Y-67697363D01*
X152552520Y-67725500D01*
X152697477Y-67725500D01*
X152697479Y-67725500D01*
X152772656Y-67705355D01*
X152788950Y-67700989D01*
X152837485Y-67687984D01*
X152838291Y-67687519D01*
X152854304Y-67678273D01*
X152963015Y-67615509D01*
X153065509Y-67513015D01*
X153137984Y-67387485D01*
X153164984Y-67286714D01*
X153169876Y-67274907D01*
X153176108Y-67264115D01*
X153183885Y-67253979D01*
X153207941Y-67229924D01*
X153242588Y-67215574D01*
X153277236Y-67229926D01*
X153287857Y-67245822D01*
X153305448Y-67288291D01*
X153305449Y-67288292D01*
X153305450Y-67288294D01*
X153361706Y-67344550D01*
X153361708Y-67344551D01*
X153361709Y-67344552D01*
X153404174Y-67362141D01*
X153430693Y-67388659D01*
X153430693Y-67426162D01*
X153420071Y-67442059D01*
X153206856Y-67655271D01*
X153206857Y-67655271D01*
X153206857Y-67655272D01*
X153206858Y-67655273D01*
X153262705Y-67687517D01*
X153262708Y-67687517D01*
X153262725Y-67687525D01*
X153263051Y-67687609D01*
X153325017Y-67704214D01*
X153402586Y-67725000D01*
X153547411Y-67725000D01*
X153547413Y-67725000D01*
X153637015Y-67700990D01*
X153687288Y-67687519D01*
X153687294Y-67687517D01*
X153743140Y-67655273D01*
X153743141Y-67655272D01*
X153743140Y-67655271D01*
X153743141Y-67655271D01*
X153529928Y-67442059D01*
X153515576Y-67407411D01*
X153529928Y-67372763D01*
X153545822Y-67362142D01*
X153588291Y-67344552D01*
X153588292Y-67344550D01*
X153588294Y-67344550D01*
X153644550Y-67288294D01*
X153644550Y-67288292D01*
X153644552Y-67288291D01*
X153662142Y-67245823D01*
X153688659Y-67219306D01*
X153726162Y-67219306D01*
X153742059Y-67229928D01*
X153955271Y-67443141D01*
X153955271Y-67443140D01*
X153955272Y-67443141D01*
X153955273Y-67443140D01*
X153987517Y-67387294D01*
X153987519Y-67387288D01*
X154025000Y-67247411D01*
X154025000Y-67102588D01*
X154025000Y-67102586D01*
X153998971Y-67005450D01*
X153987609Y-66963051D01*
X153987525Y-66962725D01*
X153987517Y-66962708D01*
X153987517Y-66962705D01*
X153955273Y-66906858D01*
X153955272Y-66906857D01*
X153955271Y-66906857D01*
X153742059Y-67120070D01*
X153707411Y-67134422D01*
X153672763Y-67120070D01*
X153662141Y-67104173D01*
X153654562Y-67085876D01*
X153644552Y-67061709D01*
X153644551Y-67061708D01*
X153644550Y-67061706D01*
X153588294Y-67005450D01*
X153588292Y-67005449D01*
X153588291Y-67005448D01*
X153545823Y-66987857D01*
X153519306Y-66961339D01*
X153519306Y-66923836D01*
X153529928Y-66907940D01*
X153584279Y-66853589D01*
X153706943Y-66730923D01*
X154174500Y-66730923D01*
X154174500Y-68359075D01*
X154199494Y-68484724D01*
X154199497Y-68484737D01*
X154199498Y-68484743D01*
X154245638Y-68596132D01*
X154245639Y-68596136D01*
X154248533Y-68603124D01*
X154310576Y-68695979D01*
X154319724Y-68709669D01*
X154410331Y-68800276D01*
X154516873Y-68871465D01*
X154635256Y-68920501D01*
X154760931Y-68945500D01*
X154889069Y-68945500D01*
X155014744Y-68920501D01*
X155133127Y-68871465D01*
X155239669Y-68800276D01*
X155330276Y-68709669D01*
X155401465Y-68603127D01*
X155450501Y-68484744D01*
X155475500Y-68359069D01*
X155475500Y-66730931D01*
X155450501Y-66605256D01*
X155401465Y-66486873D01*
X155330276Y-66380331D01*
X155239669Y-66289724D01*
X155217631Y-66274999D01*
X155134110Y-66219192D01*
X155133127Y-66218535D01*
X155016344Y-66170162D01*
X155015336Y-66169701D01*
X155014744Y-66169498D01*
X155014728Y-66169495D01*
X155014721Y-66169493D01*
X154889075Y-66144500D01*
X154889072Y-66144500D01*
X154889069Y-66144500D01*
X154760931Y-66144500D01*
X154760927Y-66144500D01*
X154760923Y-66144500D01*
X154635274Y-66169494D01*
X154635263Y-66169496D01*
X154635255Y-66169498D01*
X154516877Y-66218532D01*
X154410330Y-66289723D01*
X154319723Y-66380330D01*
X154248532Y-66486877D01*
X154199498Y-66605255D01*
X154199498Y-66605256D01*
X154199498Y-66605257D01*
X154199497Y-66605262D01*
X154199494Y-66605274D01*
X154174500Y-66730923D01*
X153706943Y-66730923D01*
X153743140Y-66694726D01*
X153743139Y-66694725D01*
X153687320Y-66662498D01*
X153687305Y-66662490D01*
X153687306Y-66662490D01*
X153687293Y-66662483D01*
X153687287Y-66662480D01*
X153687284Y-66662479D01*
X153687280Y-66662477D01*
X153547415Y-66625000D01*
X153547412Y-66625000D01*
X153402588Y-66625000D01*
X153402585Y-66625000D01*
X153262716Y-66662478D01*
X153262712Y-66662479D01*
X153206857Y-66694725D01*
X153420072Y-66907940D01*
X153434424Y-66942588D01*
X153420072Y-66977236D01*
X153404176Y-66987858D01*
X153361707Y-67005449D01*
X153305449Y-67061707D01*
X153305448Y-67061708D01*
X153305448Y-67061709D01*
X153288516Y-67102588D01*
X153287858Y-67104176D01*
X153261339Y-67130694D01*
X153223836Y-67130694D01*
X153207940Y-67120072D01*
X153183895Y-67096027D01*
X153176108Y-67085879D01*
X153169875Y-67075083D01*
X153164980Y-67063267D01*
X153137984Y-66962515D01*
X153137983Y-66962512D01*
X153065508Y-66836984D01*
X153065507Y-66836983D01*
X152975460Y-66746935D01*
X152971744Y-66743219D01*
X152961122Y-66727322D01*
X152954229Y-66710681D01*
X152950500Y-66691931D01*
X152950500Y-66482142D01*
X152943406Y-66455672D01*
X152930070Y-66405902D01*
X152929892Y-66405212D01*
X152925870Y-66389124D01*
X152915564Y-66377271D01*
X152885465Y-66325138D01*
X152299862Y-65739535D01*
X152299858Y-65739533D01*
X152299856Y-65739531D01*
X152262750Y-65718108D01*
X152261356Y-65717303D01*
X152225640Y-65696682D01*
X152225637Y-65696681D01*
X152225629Y-65696678D01*
X152225620Y-65696676D01*
X152142859Y-65674500D01*
X152142856Y-65674500D01*
X152142853Y-65674500D01*
X149142853Y-65674500D01*
X149057147Y-65674500D01*
X149057144Y-65674500D01*
X149057141Y-65674500D01*
X148974781Y-65696568D01*
X148974387Y-65696670D01*
X148974352Y-65696684D01*
X148937252Y-65718106D01*
X148937251Y-65718107D01*
X148900142Y-65739531D01*
X148900129Y-65739541D01*
X148119099Y-66520573D01*
X148115635Y-66523231D01*
X148071683Y-66599356D01*
X148071671Y-66599386D01*
X148071570Y-66599776D01*
X148069992Y-66605667D01*
X148069991Y-66605672D01*
X148049500Y-66682141D01*
X148049500Y-66691931D01*
X148045770Y-66710684D01*
X148038877Y-66727324D01*
X148028255Y-66743219D01*
X147934495Y-66836979D01*
X147934487Y-66836989D01*
X147862015Y-66962512D01*
X147862009Y-66962534D01*
X147835018Y-67063266D01*
X147830124Y-67075083D01*
X147823893Y-67085876D01*
X147816105Y-67096025D01*
X147792059Y-67120071D01*
X147757411Y-67134423D01*
X147722763Y-67120071D01*
X147712141Y-67104174D01*
X147711484Y-67102588D01*
X147694552Y-67061709D01*
X147694551Y-67061708D01*
X147694550Y-67061706D01*
X147638294Y-67005450D01*
X147638292Y-67005449D01*
X147638291Y-67005448D01*
X147595823Y-66987857D01*
X147569306Y-66961339D01*
X147569306Y-66923836D01*
X147579926Y-66907941D01*
X147793141Y-66694726D01*
X147793140Y-66694725D01*
X147737307Y-66662490D01*
X147737288Y-66662480D01*
X147737282Y-66662478D01*
X147597415Y-66625000D01*
X147597412Y-66625000D01*
X147452588Y-66625000D01*
X147452585Y-66625000D01*
X147312716Y-66662478D01*
X147312712Y-66662479D01*
X147256857Y-66694725D01*
X147470072Y-66907940D01*
X147484424Y-66942588D01*
X147470072Y-66977236D01*
X147454176Y-66987858D01*
X147411707Y-67005449D01*
X147355449Y-67061707D01*
X147355448Y-67061708D01*
X147355448Y-67061709D01*
X147338516Y-67102588D01*
X147337858Y-67104176D01*
X147311339Y-67130694D01*
X147273836Y-67130694D01*
X147257940Y-67120072D01*
X147044725Y-66906857D01*
X147012479Y-66962712D01*
X147012478Y-66962716D01*
X146975000Y-67102584D01*
X146825500Y-67102584D01*
X146825500Y-66730931D01*
X146823315Y-66719950D01*
X146822232Y-66714498D01*
X146822232Y-66714497D01*
X146800508Y-66605288D01*
X146800504Y-66605270D01*
X146800503Y-66605264D01*
X146800501Y-66605257D01*
X146798058Y-66599357D01*
X146751465Y-66486873D01*
X146680276Y-66380331D01*
X146589669Y-66289724D01*
X146567631Y-66274999D01*
X146484110Y-66219192D01*
X146483127Y-66218535D01*
X146366344Y-66170162D01*
X146365336Y-66169701D01*
X146364744Y-66169498D01*
X146364728Y-66169495D01*
X146364721Y-66169493D01*
X146239075Y-66144500D01*
X146239072Y-66144500D01*
X146239069Y-66144500D01*
X146110931Y-66144500D01*
X146110927Y-66144500D01*
X146110923Y-66144500D01*
X145985274Y-66169494D01*
X145985263Y-66169496D01*
X145985255Y-66169498D01*
X145866877Y-66218532D01*
X145760330Y-66289723D01*
X145669723Y-66380330D01*
X145598532Y-66486877D01*
X145549498Y-66605255D01*
X145549498Y-66605256D01*
X145549498Y-66605257D01*
X145549497Y-66605262D01*
X145549494Y-66605274D01*
X145524500Y-66730923D01*
X143186029Y-66730923D01*
X143103465Y-66714500D01*
X143103462Y-66714500D01*
X142896538Y-66714500D01*
X142896535Y-66714500D01*
X142796053Y-66734487D01*
X142796033Y-66734491D01*
X142693582Y-66754869D01*
X142693566Y-66754874D01*
X142502404Y-66834057D01*
X142330345Y-66949021D01*
X142184021Y-67095345D01*
X142069057Y-67267404D01*
X141989874Y-67458566D01*
X141989871Y-67458576D01*
X141989869Y-67458582D01*
X141979042Y-67513015D01*
X141949500Y-67661535D01*
X140500500Y-67661535D01*
X140500500Y-64355305D01*
X141950000Y-64355305D01*
X141950000Y-65075000D01*
X142458696Y-65075000D01*
X142493344Y-65089352D01*
X142507696Y-65124000D01*
X142506026Y-65136682D01*
X142500000Y-65159170D01*
X142500000Y-65290829D01*
X142506026Y-65313318D01*
X142501131Y-65350500D01*
X142471378Y-65373330D01*
X142458696Y-65375000D01*
X141950000Y-65375000D01*
X141950000Y-66094694D01*
X141961604Y-66153036D01*
X142005807Y-66219192D01*
X142071963Y-66263395D01*
X142130305Y-66275000D01*
X142850000Y-66275000D01*
X142850000Y-65766303D01*
X142864352Y-65731655D01*
X142899000Y-65717303D01*
X142911679Y-65718972D01*
X142927611Y-65723241D01*
X142934173Y-65725000D01*
X143065826Y-65725000D01*
X143065827Y-65725000D01*
X143072388Y-65723241D01*
X143088317Y-65718973D01*
X143125498Y-65723867D01*
X143148330Y-65753619D01*
X143150000Y-65766303D01*
X143150000Y-66275000D01*
X143869695Y-66275000D01*
X143928036Y-66263395D01*
X143994192Y-66219192D01*
X144038395Y-66153036D01*
X144050000Y-66094694D01*
X144050000Y-65375000D01*
X143541304Y-65375000D01*
X143506656Y-65360648D01*
X143492304Y-65326000D01*
X143493974Y-65313318D01*
X143499999Y-65290829D01*
X143500000Y-65290829D01*
X143500000Y-65159171D01*
X143499999Y-65159170D01*
X143493974Y-65136682D01*
X143498869Y-65099500D01*
X143528622Y-65076670D01*
X143541304Y-65075000D01*
X144050000Y-65075000D01*
X144050000Y-64355308D01*
X144050000Y-64355307D01*
X144050000Y-64355305D01*
X144038395Y-64296963D01*
X143994192Y-64230807D01*
X143928036Y-64186604D01*
X143869695Y-64175000D01*
X143869692Y-64175000D01*
X143150000Y-64175000D01*
X143150000Y-64683696D01*
X143135648Y-64718344D01*
X143101000Y-64732696D01*
X143088318Y-64731026D01*
X143065829Y-64725000D01*
X143065826Y-64725000D01*
X142934174Y-64725000D01*
X142934171Y-64725000D01*
X142911682Y-64731026D01*
X142874500Y-64726131D01*
X142851670Y-64696378D01*
X142850000Y-64683696D01*
X142850000Y-64175000D01*
X142130305Y-64175000D01*
X142071963Y-64186604D01*
X142071962Y-64186604D01*
X142071960Y-64186605D01*
X142005807Y-64230807D01*
X141961605Y-64296960D01*
X141961604Y-64296962D01*
X141961604Y-64296963D01*
X141950000Y-64355305D01*
X140500500Y-64355305D01*
X140500500Y-63700923D01*
X145524500Y-63700923D01*
X145524500Y-64629075D01*
X145549494Y-64754724D01*
X145549497Y-64754737D01*
X145549498Y-64754743D01*
X145585809Y-64842402D01*
X145585809Y-64842403D01*
X145598535Y-64873127D01*
X145669724Y-64979669D01*
X145760331Y-65070276D01*
X145866873Y-65141465D01*
X145985256Y-65190501D01*
X146110931Y-65215500D01*
X146239069Y-65215500D01*
X146364744Y-65190501D01*
X146483127Y-65141465D01*
X146589669Y-65070276D01*
X146680276Y-64979669D01*
X146751465Y-64873127D01*
X146800501Y-64754744D01*
X146825500Y-64629069D01*
X146825500Y-63700931D01*
X146825498Y-63700923D01*
X154174500Y-63700923D01*
X154174500Y-64629075D01*
X154199494Y-64754724D01*
X154199497Y-64754737D01*
X154199498Y-64754743D01*
X154235809Y-64842402D01*
X154235809Y-64842403D01*
X154248535Y-64873127D01*
X154319724Y-64979669D01*
X154410331Y-65070276D01*
X154516873Y-65141465D01*
X154635256Y-65190501D01*
X154760931Y-65215500D01*
X154889069Y-65215500D01*
X155014744Y-65190501D01*
X155133127Y-65141465D01*
X155239669Y-65070276D01*
X155330276Y-64979669D01*
X155401465Y-64873127D01*
X155450501Y-64754744D01*
X155475500Y-64629069D01*
X155475500Y-63700931D01*
X155450501Y-63575256D01*
X155401465Y-63456873D01*
X155330276Y-63350331D01*
X155239669Y-63259724D01*
X155133127Y-63188535D01*
X155016344Y-63140162D01*
X155015336Y-63139701D01*
X155014744Y-63139498D01*
X155014728Y-63139495D01*
X155014721Y-63139493D01*
X154889075Y-63114500D01*
X154889072Y-63114500D01*
X154889069Y-63114500D01*
X154760931Y-63114500D01*
X154760927Y-63114500D01*
X154760923Y-63114500D01*
X154635274Y-63139494D01*
X154635263Y-63139496D01*
X154635255Y-63139498D01*
X154516877Y-63188532D01*
X154410330Y-63259723D01*
X154319723Y-63350330D01*
X154248532Y-63456877D01*
X154199498Y-63575255D01*
X154199498Y-63575256D01*
X154199498Y-63575257D01*
X154199497Y-63575262D01*
X154199494Y-63575274D01*
X154174500Y-63700923D01*
X146825498Y-63700923D01*
X146800505Y-63575275D01*
X146800501Y-63575256D01*
X146751465Y-63456873D01*
X146680276Y-63350331D01*
X146589669Y-63259724D01*
X146483127Y-63188535D01*
X146366344Y-63140162D01*
X146365336Y-63139701D01*
X146364744Y-63139498D01*
X146364728Y-63139495D01*
X146364721Y-63139493D01*
X146239075Y-63114500D01*
X146239072Y-63114500D01*
X146239069Y-63114500D01*
X146110931Y-63114500D01*
X146110927Y-63114500D01*
X146110923Y-63114500D01*
X145985274Y-63139494D01*
X145985263Y-63139496D01*
X145985255Y-63139498D01*
X145866877Y-63188532D01*
X145760330Y-63259723D01*
X145669723Y-63350330D01*
X145598532Y-63456877D01*
X145549498Y-63575255D01*
X145549498Y-63575256D01*
X145549498Y-63575257D01*
X145549497Y-63575262D01*
X145549494Y-63575274D01*
X145524500Y-63700923D01*
X140500500Y-63700923D01*
X140500500Y-62002413D01*
X140500549Y-62000877D01*
X140500526Y-62000811D01*
X140500579Y-61999191D01*
X140500658Y-61997588D01*
X140505068Y-61930305D01*
X156850000Y-61930305D01*
X156850000Y-62650000D01*
X157358696Y-62650000D01*
X157393344Y-62664352D01*
X157407696Y-62699000D01*
X157406026Y-62711682D01*
X157400000Y-62734170D01*
X157400000Y-62865829D01*
X157406026Y-62888318D01*
X157401131Y-62925500D01*
X157371378Y-62948330D01*
X157358696Y-62950000D01*
X156850000Y-62950000D01*
X156850000Y-63669694D01*
X156861604Y-63728036D01*
X156905807Y-63794192D01*
X156971963Y-63838395D01*
X157030305Y-63850000D01*
X157750000Y-63850000D01*
X157750000Y-63341303D01*
X157764352Y-63306655D01*
X157799000Y-63292303D01*
X157811679Y-63293972D01*
X157827611Y-63298241D01*
X157834173Y-63300000D01*
X157965826Y-63300000D01*
X157965827Y-63300000D01*
X157972388Y-63298241D01*
X157988317Y-63293973D01*
X158025498Y-63298867D01*
X158048330Y-63328619D01*
X158050000Y-63341303D01*
X158050000Y-63850000D01*
X158769695Y-63850000D01*
X158828036Y-63838395D01*
X158894192Y-63794192D01*
X158938395Y-63728036D01*
X158950000Y-63669694D01*
X158950000Y-62950000D01*
X158441304Y-62950000D01*
X158406656Y-62935648D01*
X158392304Y-62901000D01*
X158393974Y-62888318D01*
X158399999Y-62865829D01*
X158400000Y-62865829D01*
X158400000Y-62734171D01*
X158399999Y-62734170D01*
X158393974Y-62711682D01*
X158398869Y-62674500D01*
X158428622Y-62651670D01*
X158441304Y-62650000D01*
X158950000Y-62650000D01*
X158950000Y-61930308D01*
X158950000Y-61930307D01*
X158950000Y-61930305D01*
X158938395Y-61871963D01*
X158894192Y-61805807D01*
X158828036Y-61761604D01*
X158769695Y-61750000D01*
X158769692Y-61750000D01*
X158050000Y-61750000D01*
X158050000Y-62258696D01*
X158035648Y-62293344D01*
X158001000Y-62307696D01*
X157988318Y-62306026D01*
X157965829Y-62300000D01*
X157965826Y-62300000D01*
X157834174Y-62300000D01*
X157834171Y-62300000D01*
X157811682Y-62306026D01*
X157774500Y-62301131D01*
X157751670Y-62271378D01*
X157750000Y-62258696D01*
X157750000Y-61750000D01*
X157030305Y-61750000D01*
X156971963Y-61761604D01*
X156971962Y-61761604D01*
X156971960Y-61761605D01*
X156905807Y-61805807D01*
X156861605Y-61871960D01*
X156861604Y-61871962D01*
X156861604Y-61871963D01*
X156850000Y-61930305D01*
X140505068Y-61930305D01*
X140505436Y-61924693D01*
X140505436Y-61924690D01*
X140516125Y-61761604D01*
X140517291Y-61743800D01*
X140517602Y-61740641D01*
X140518027Y-61737417D01*
X140518539Y-61734317D01*
X140567697Y-61487182D01*
X140568411Y-61484122D01*
X140569239Y-61481027D01*
X140570165Y-61477967D01*
X140651166Y-61239346D01*
X140652286Y-61236374D01*
X140652289Y-61236367D01*
X140653513Y-61233412D01*
X140654812Y-61230542D01*
X140766267Y-61004536D01*
X140767769Y-61001728D01*
X140769358Y-60998976D01*
X140771036Y-60996276D01*
X140911029Y-60786760D01*
X140912882Y-60784176D01*
X140914835Y-60781632D01*
X140916861Y-60779164D01*
X140916868Y-60779156D01*
X141082988Y-60589732D01*
X141085158Y-60587417D01*
X141087424Y-60585150D01*
X141089732Y-60582988D01*
X141279170Y-60416855D01*
X141281632Y-60414835D01*
X141281823Y-60414688D01*
X141284179Y-60412880D01*
X141286760Y-60411029D01*
X141496276Y-60271036D01*
X141498966Y-60269363D01*
X141501735Y-60267765D01*
X141504536Y-60266267D01*
X141730542Y-60154812D01*
X141733429Y-60153505D01*
X141736382Y-60152283D01*
X141739346Y-60151166D01*
X141977982Y-60070160D01*
X141980994Y-60069247D01*
X141984114Y-60068412D01*
X141987176Y-60067698D01*
X142234327Y-60018537D01*
X142237423Y-60018026D01*
X142240651Y-60017601D01*
X142243780Y-60017292D01*
X142497633Y-60000654D01*
X142499169Y-60000578D01*
X142500843Y-60000524D01*
X142502391Y-60000500D01*
X158497608Y-60000500D01*
X158499156Y-60000524D01*
G37*
%TD.AperFunction*%
%TD*%
%TA.AperFunction,Conductor*%
%TO.N,+3.3V*%
G36*
X156476714Y-82892394D02*
G01*
X156543638Y-82912464D01*
X156589089Y-82965530D01*
X156600000Y-83016392D01*
X156600000Y-85976000D01*
X156580315Y-86043039D01*
X156527511Y-86088794D01*
X156476000Y-86100000D01*
X150100000Y-86100000D01*
X149224000Y-86100000D01*
X149156961Y-86080315D01*
X149111206Y-86027511D01*
X149100000Y-85976000D01*
X149100000Y-82974714D01*
X149119685Y-82907675D01*
X149172489Y-82861920D01*
X149224709Y-82850716D01*
X156476714Y-82892394D01*
G37*
%TD.AperFunction*%
%TD*%
M02*
