M48
; DRILL file KiCad 10.0.6 date 2026-09-24T09:55:45
; FORMAT={-:-/ absolute / metric / decimal}
; #@! TF.CreationDate,2026-09-24T09:55:45-04:00
; #@! TF.GenerationSoftware,Kicad,Pcbnew,10.0.6
; #@! TF.FileFunction,Plated,1,4,PTH
FMAT,2
METRIC
; #@! TA.AperFunction,Plated,PTH,ViaDrill
T1C0.300
; #@! TA.AperFunction,Plated,PTH,ViaDrill
T2C0.400
; #@! TA.AperFunction,Plated,PTH,ComponentDrill
T3C0.400
; #@! TA.AperFunction,Plated,PTH,ComponentDrill
T4C0.600
; #@! TA.AperFunction,Plated,PTH,ComponentDrill
T5C1.000
%
G90
G05
T1
X141.25Y-90.25
X141.25Y-92.5
X141.5Y-105.75
X142.0Y-105.0
X142.0Y-106.25
X142.75Y-84.75
X142.75Y-87.0
X143.25Y-110.5
X143.75Y-108.5
X144.0Y-87.75
X144.25Y-110.25
X144.75Y-116.0
X145.0Y-92.25
X145.1Y-113.75
X145.75Y-136.5
X146.25Y-115.5
X146.25Y-152.0
X146.5Y-87.75
X147.2Y-110.6
X147.25Y-116.25
X147.3Y-137.2
X147.5Y-99.0
X147.9Y-98.4
X147.9Y-111.6
X147.9Y-112.3
X148.25Y-124.75
X148.5Y-98.0
X148.5Y-137.2
X148.8Y-116.3
X149.3Y-98.4
X149.3Y-99.2
X149.5Y-82.0
X149.5Y-87.75
X149.5Y-92.0
X149.7Y-136.8
X150.25Y-98.0
X150.25Y-99.0
X150.25Y-112.5
X150.25Y-113.75
X150.25Y-118.9
X150.25Y-124.75
X150.3Y-116.3
X150.7Y-137.2
X150.75Y-92.0
X150.75Y-104.0
X151.25Y-80.75
X151.25Y-96.0
X151.25Y-99.0
X151.5Y-85.0
X151.5Y-140.4
X151.5Y-142.2
X151.7Y-137.0
X152.0Y-78.25
X152.1Y-96.8
X152.1Y-98.0
X152.25Y-101.0
X152.75Y-85.0
X153.0Y-87.75
X153.0Y-89.5
X153.25Y-78.25
X153.25Y-80.75
X153.3Y-137.2
X153.3Y-140.4
X153.3Y-142.2
X153.5Y-101.5
X154.0Y-75.0
X154.1Y-137.0
X154.5Y-85.0
X154.75Y-78.25
X154.75Y-81.0
X155.0Y-107.75
X155.0Y-109.0
X155.0Y-115.5
X155.0Y-119.5
X155.2Y-124.7
X155.3Y-136.8
X155.5Y-87.75
X155.5Y-89.5
X155.75Y-79.25
X156.0Y-85.0
X156.5Y-80.0
X156.5Y-124.7
X157.75Y-92.0
X157.75Y-94.75
X158.0Y-150.75
X158.3Y-115.5
X158.3Y-119.5
X159.25Y-98.75
X159.25Y-99.5
X159.25Y-128.25
X159.25Y-145.0
T2
X150.5Y-74.2
X150.7Y-69.6
T3
X147.525Y-67.175
X147.525Y-68.525
X148.375Y-67.175
X148.375Y-68.525
X149.225Y-67.175
X149.225Y-68.525
X150.075Y-67.175
X150.075Y-68.525
X150.925Y-67.175
X150.925Y-68.525
X151.775Y-67.175
X151.775Y-68.525
X152.625Y-67.175
X152.625Y-68.525
X153.475Y-67.175
X153.475Y-68.525
T5
X143.0Y-65.225
X143.0Y-67.765
X145.42Y-128.213
X145.42Y-130.752
X147.96Y-128.213
X147.96Y-130.752
X150.5Y-128.213
X150.5Y-130.752
X153.04Y-128.213
X153.04Y-130.752
X155.58Y-128.213
X155.58Y-130.752
X157.9Y-62.8
X157.9Y-65.34
X157.9Y-67.88
T4
G00X146.175Y-64.565
M15
G01X146.175Y-63.765
M16
G05
G00X146.175Y-68.295
M15
G01X146.175Y-66.795
M16
G05
G00X154.825Y-64.565
M15
G01X154.825Y-63.765
M16
G05
G00X154.825Y-68.295
M15
G01X154.825Y-66.795
M16
G05
M30
