%TF.GenerationSoftware,KiCad,Pcbnew,10.0.6*%
%TF.CreationDate,2026-09-24T09:55:40-04:00*%
%TF.ProjectId,s3_sensor_board,73335f73-656e-4736-9f72-5f626f617264,rev?*%
%TF.SameCoordinates,Original*%
%TF.FileFunction,Copper,L2,Inr*%
%TF.FilePolarity,Positive*%
%FSLAX46Y46*%
G04 Gerber Fmt 4.6, Leading zero omitted, Abs format (unit mm)*
G04 Created by KiCad (PCBNEW 10.0.6) date 2026-09-24 09:55:40*
%MOMM*%
%LPD*%
G01*
G04 APERTURE LIST*
G04 Aperture macros list*
%AMRoundRect*
0 Rectangle with rounded corners*
0 $1 Rounding radius*
0 $2 $3 $4 $5 $6 $7 $8 $9 X,Y pos of 4 corners*
0 Add a 4 corners polygon primitive as box body*
4,1,4,$2,$3,$4,$5,$6,$7,$8,$9,$2,$3,0*
0 Add four circle primitives for the rounded corners*
1,1,$1+$1,$2,$3*
1,1,$1+$1,$4,$5*
1,1,$1+$1,$6,$7*
1,1,$1+$1,$8,$9*
0 Add four rect primitives between the rounded corners*
20,1,$1+$1,$2,$3,$4,$5,0*
20,1,$1+$1,$4,$5,$6,$7,0*
20,1,$1+$1,$6,$7,$8,$9,0*
20,1,$1+$1,$8,$9,$2,$3,0*%
G04 Aperture macros list end*
%TA.AperFunction,ComponentPad*%
%ADD10R,1.700000X1.700000*%
%TD*%
%TA.AperFunction,ComponentPad*%
%ADD11C,1.700000*%
%TD*%
%TA.AperFunction,ComponentPad*%
%ADD12C,0.700000*%
%TD*%
%TA.AperFunction,ComponentPad*%
%ADD13O,0.900000X2.400000*%
%TD*%
%TA.AperFunction,ComponentPad*%
%ADD14O,0.900000X1.700000*%
%TD*%
%TA.AperFunction,ComponentPad*%
%ADD15RoundRect,0.250000X0.600000X-0.600000X0.600000X0.600000X-0.600000X0.600000X-0.600000X-0.600000X0*%
%TD*%
%TA.AperFunction,ViaPad*%
%ADD16C,0.800000*%
%TD*%
%TA.AperFunction,ViaPad*%
%ADD17C,0.500000*%
%TD*%
G04 APERTURE END LIST*
D10*
%TO.N,GND*%
%TO.C,J102*%
X157900000Y-62800000D03*
D11*
%TO.N,+3.3V*%
X157900000Y-65340000D03*
%TO.N,/TPS56425X Regulator/PWR_GD*%
X157900000Y-67880000D03*
%TD*%
D10*
%TO.N,GND*%
%TO.C,J101*%
X143000000Y-65225000D03*
D11*
%TO.N,/TPS56425X Regulator/Vin*%
X143000000Y-67765000D03*
%TD*%
D12*
%TO.N,GND*%
%TO.C,J301*%
X153475000Y-68525000D03*
%TO.N,/Microprocessor/V_usb*%
X152625000Y-68525000D03*
%TO.N,Net-(J301-CC1)*%
X151775000Y-68525000D03*
%TO.N,/Microprocessor/USB_P*%
X150925000Y-68525000D03*
%TO.N,/Microprocessor/USB_N*%
X150075000Y-68525000D03*
%TO.N,unconnected-(J301-SBU1-PadA8)*%
X149225000Y-68525000D03*
%TO.N,/Microprocessor/V_usb*%
X148375000Y-68525000D03*
%TO.N,GND*%
X147525000Y-68525000D03*
X147525000Y-67175000D03*
%TO.N,/Microprocessor/V_usb*%
X148375000Y-67175000D03*
%TO.N,Net-(J301-CC2)*%
X149225000Y-67175000D03*
%TO.N,/Microprocessor/USB_P*%
X150075000Y-67175000D03*
%TO.N,/Microprocessor/USB_N*%
X150925000Y-67175000D03*
%TO.N,unconnected-(J301-SBU2-PadB8)*%
X151775000Y-67175000D03*
%TO.N,/Microprocessor/V_usb*%
X152625000Y-67175000D03*
%TO.N,GND*%
X153475000Y-67175000D03*
D13*
%TO.N,unconnected-(J301-SHIELD-PadSH)_2*%
X154825000Y-67545000D03*
D14*
%TO.N,unconnected-(J301-SHIELD-PadSH)_3*%
X154825000Y-64165000D03*
D13*
%TO.N,unconnected-(J301-SHIELD-PadSH)*%
X146175000Y-67545000D03*
D14*
%TO.N,unconnected-(J301-SHIELD-PadSH)_1*%
X146175000Y-64165000D03*
%TD*%
D15*
%TO.N,GND*%
%TO.C,J103*%
X155580000Y-130752500D03*
D11*
%TO.N,+3.3V*%
X155580000Y-128212500D03*
%TO.N,/PDM_CLK*%
X153040000Y-130752500D03*
%TO.N,/PDM_D0*%
X153040000Y-128212500D03*
%TO.N,/PDM_D1*%
X150500000Y-130752500D03*
%TO.N,/PDM_D2*%
X150500000Y-128212500D03*
%TO.N,/PDM_D3*%
X147960000Y-130752500D03*
%TO.N,/I2C_SCL*%
X147960000Y-128212500D03*
%TO.N,/I2C_SDA*%
X145420000Y-130752500D03*
%TO.N,/INT*%
X145420000Y-128212500D03*
%TD*%
D16*
%TO.N,+3.3V*%
X150700000Y-69600000D03*
D17*
X151500000Y-85000000D03*
X144250000Y-110250000D03*
X159250000Y-99500000D03*
X154500000Y-85000000D03*
X159250000Y-128250000D03*
X159250000Y-98750000D03*
X146250000Y-115500000D03*
X159250000Y-145000000D03*
X152750000Y-85000000D03*
X156000000Y-85000000D03*
%TO.N,GND*%
X142750000Y-84750000D03*
X144000000Y-87750000D03*
X151250000Y-96000000D03*
X149500000Y-82000000D03*
X158300000Y-115500000D03*
X156500000Y-124700000D03*
X155200000Y-124700000D03*
X141250000Y-90250000D03*
X155000000Y-115500000D03*
X151500000Y-140400000D03*
X158300000Y-119500000D03*
X157750000Y-94750000D03*
X151500000Y-142200000D03*
X153300000Y-140400000D03*
X145100000Y-113750000D03*
X155750000Y-79250000D03*
X152100000Y-96800000D03*
X150250000Y-99000000D03*
X154750000Y-81000000D03*
X143750000Y-108500000D03*
X147900000Y-112300000D03*
X150250000Y-98000000D03*
X153250000Y-80750000D03*
X155000000Y-109000000D03*
X153250000Y-78250000D03*
X151250000Y-80750000D03*
X141250000Y-92500000D03*
X153000000Y-89500000D03*
X150250000Y-112500000D03*
X143250000Y-110500000D03*
X156500000Y-80000000D03*
X147900000Y-111600000D03*
X150250000Y-113750000D03*
D16*
X150500000Y-74200000D03*
D17*
X154750000Y-78250000D03*
X151250000Y-99000000D03*
X155500000Y-89500000D03*
X148800000Y-116300000D03*
X153300000Y-142200000D03*
X155000000Y-119500000D03*
X146500000Y-87750000D03*
X149500000Y-87750000D03*
X150750000Y-92000000D03*
X144750000Y-116000000D03*
X150300000Y-116300000D03*
X145000000Y-92250000D03*
X153000000Y-87750000D03*
X157750000Y-92000000D03*
X155500000Y-87750000D03*
X149500000Y-92000000D03*
X153300000Y-137200000D03*
X150250000Y-118900000D03*
X150250000Y-124750000D03*
X148250000Y-124750000D03*
X152000000Y-78250000D03*
X155000000Y-107750000D03*
X152100000Y-98000000D03*
%TO.N,/Microprocessor/CHIP_EN*%
X158000000Y-150750000D03*
X153500000Y-101500000D03*
%TO.N,/I2C_SDA*%
X141500000Y-105750000D03*
%TO.N,/I2C_SCL*%
X142000000Y-105000000D03*
%TO.N,/Microprocessor/BOOT_MODE*%
X146250000Y-152000000D03*
X152250000Y-101000000D03*
%TO.N,/Microprocessor/Vin_DIV*%
X142750000Y-87000000D03*
X150750000Y-104000000D03*
%TO.N,/PDM_CLK*%
X149300000Y-99200000D03*
%TO.N,/PDM_D0*%
X149300000Y-98400000D03*
%TO.N,/PDM_D1*%
X148500000Y-98000000D03*
%TO.N,/PDM_D2*%
X147900000Y-98400000D03*
%TO.N,/PDM_D3*%
X147500000Y-99000000D03*
%TO.N,/INT*%
X142000000Y-106250000D03*
%TO.N,/Microprocessor/SD_DET*%
X145750000Y-136500000D03*
%TO.N,/Microprocessor/SD_DAT2*%
X147300000Y-137200000D03*
%TO.N,/Microprocessor/SD_DAT3*%
X148500000Y-137200000D03*
%TO.N,/Microprocessor/SD_CMD*%
X149700000Y-136800000D03*
%TO.N,/Microprocessor/SD_SCK*%
X151700000Y-137000000D03*
%TO.N,/Microprocessor/SD_DAT0*%
X154100000Y-137000000D03*
%TO.N,/Microprocessor/SD_DAT1*%
X155300000Y-136800000D03*
%TO.N,/Microprocessor/STATUS_LED*%
X147250000Y-116250000D03*
X147200000Y-110600000D03*
%TO.N,/TPS56425X Regulator/PWR_GD*%
X154000000Y-75000000D03*
%TO.N,/Microprocessor/SD_VDD*%
X150700000Y-137200000D03*
%TD*%
%TA.AperFunction,Conductor*%
%TO.N,GND*%
G36*
X158504043Y-60000765D02*
G01*
X158752895Y-60017075D01*
X158768953Y-60019190D01*
X159009544Y-60067046D01*
X159025199Y-60071241D01*
X159257478Y-60150089D01*
X159272460Y-60156294D01*
X159403400Y-60220867D01*
X159492460Y-60264787D01*
X159506506Y-60272897D01*
X159710460Y-60409174D01*
X159723329Y-60419048D01*
X159907749Y-60580781D01*
X159919218Y-60592250D01*
X160080951Y-60776670D01*
X160090825Y-60789539D01*
X160227102Y-60993493D01*
X160235212Y-61007539D01*
X160343704Y-61227537D01*
X160349911Y-61242523D01*
X160428756Y-61474794D01*
X160432954Y-61490461D01*
X160480807Y-61731035D01*
X160482925Y-61747116D01*
X160499235Y-61995956D01*
X160499500Y-62004066D01*
X160499500Y-157995933D01*
X160499235Y-158004043D01*
X160482925Y-158252883D01*
X160480807Y-158268964D01*
X160432954Y-158509538D01*
X160428756Y-158525205D01*
X160349911Y-158757476D01*
X160343704Y-158772462D01*
X160235212Y-158992460D01*
X160227102Y-159006506D01*
X160090825Y-159210460D01*
X160080951Y-159223329D01*
X159919218Y-159407749D01*
X159907749Y-159419218D01*
X159723329Y-159580951D01*
X159710460Y-159590825D01*
X159506506Y-159727102D01*
X159492460Y-159735212D01*
X159272462Y-159843704D01*
X159257476Y-159849911D01*
X159025205Y-159928756D01*
X159009538Y-159932954D01*
X158768964Y-159980807D01*
X158752883Y-159982925D01*
X158504043Y-159999235D01*
X158495933Y-159999500D01*
X142504067Y-159999500D01*
X142495957Y-159999235D01*
X142247116Y-159982925D01*
X142231035Y-159980807D01*
X141990461Y-159932954D01*
X141974794Y-159928756D01*
X141742523Y-159849911D01*
X141727537Y-159843704D01*
X141507539Y-159735212D01*
X141493493Y-159727102D01*
X141289539Y-159590825D01*
X141276670Y-159580951D01*
X141092250Y-159419218D01*
X141080781Y-159407749D01*
X140919048Y-159223329D01*
X140909174Y-159210460D01*
X140772897Y-159006506D01*
X140764787Y-158992460D01*
X140656295Y-158772462D01*
X140650088Y-158757476D01*
X140571243Y-158525205D01*
X140567045Y-158509538D01*
X140519190Y-158268953D01*
X140517075Y-158252895D01*
X140500765Y-158004043D01*
X140500500Y-157995933D01*
X140500500Y-151927525D01*
X145699500Y-151927525D01*
X145699500Y-152072475D01*
X145737016Y-152212485D01*
X145737017Y-152212488D01*
X145809488Y-152338011D01*
X145809490Y-152338013D01*
X145809491Y-152338015D01*
X145911985Y-152440509D01*
X145911986Y-152440510D01*
X145911988Y-152440511D01*
X146037511Y-152512982D01*
X146037512Y-152512982D01*
X146037515Y-152512984D01*
X146177525Y-152550500D01*
X146177528Y-152550500D01*
X146322472Y-152550500D01*
X146322475Y-152550500D01*
X146462485Y-152512984D01*
X146588015Y-152440509D01*
X146690509Y-152338015D01*
X146762984Y-152212485D01*
X146800500Y-152072475D01*
X146800500Y-151927525D01*
X146762984Y-151787515D01*
X146690509Y-151661985D01*
X146588015Y-151559491D01*
X146588013Y-151559490D01*
X146588011Y-151559488D01*
X146462488Y-151487017D01*
X146462489Y-151487017D01*
X146451006Y-151483940D01*
X146322475Y-151449500D01*
X146177525Y-151449500D01*
X146048993Y-151483940D01*
X146037511Y-151487017D01*
X145911988Y-151559488D01*
X145911982Y-151559493D01*
X145809493Y-151661982D01*
X145809488Y-151661988D01*
X145737017Y-151787511D01*
X145737016Y-151787515D01*
X145699500Y-151927525D01*
X140500500Y-151927525D01*
X140500500Y-150677525D01*
X157449500Y-150677525D01*
X157449500Y-150822475D01*
X157487016Y-150962485D01*
X157487017Y-150962488D01*
X157559488Y-151088011D01*
X157559490Y-151088013D01*
X157559491Y-151088015D01*
X157661985Y-151190509D01*
X157661986Y-151190510D01*
X157661988Y-151190511D01*
X157787511Y-151262982D01*
X157787512Y-151262982D01*
X157787515Y-151262984D01*
X157927525Y-151300500D01*
X157927528Y-151300500D01*
X158072472Y-151300500D01*
X158072475Y-151300500D01*
X158212485Y-151262984D01*
X158338015Y-151190509D01*
X158440509Y-151088015D01*
X158512984Y-150962485D01*
X158550500Y-150822475D01*
X158550500Y-150677525D01*
X158512984Y-150537515D01*
X158440509Y-150411985D01*
X158338015Y-150309491D01*
X158338013Y-150309490D01*
X158338011Y-150309488D01*
X158212488Y-150237017D01*
X158212489Y-150237017D01*
X158201006Y-150233940D01*
X158072475Y-150199500D01*
X157927525Y-150199500D01*
X157798993Y-150233940D01*
X157787511Y-150237017D01*
X157661988Y-150309488D01*
X157661982Y-150309493D01*
X157559493Y-150411982D01*
X157559488Y-150411988D01*
X157487017Y-150537511D01*
X157487016Y-150537515D01*
X157449500Y-150677525D01*
X140500500Y-150677525D01*
X140500500Y-144927525D01*
X158699500Y-144927525D01*
X158699500Y-145072475D01*
X158737016Y-145212485D01*
X158737017Y-145212488D01*
X158809488Y-145338011D01*
X158809490Y-145338013D01*
X158809491Y-145338015D01*
X158911985Y-145440509D01*
X158911986Y-145440510D01*
X158911988Y-145440511D01*
X159037511Y-145512982D01*
X159037512Y-145512982D01*
X159037515Y-145512984D01*
X159177525Y-145550500D01*
X159177528Y-145550500D01*
X159322472Y-145550500D01*
X159322475Y-145550500D01*
X159462485Y-145512984D01*
X159588015Y-145440509D01*
X159690509Y-145338015D01*
X159762984Y-145212485D01*
X159800500Y-145072475D01*
X159800500Y-144927525D01*
X159762984Y-144787515D01*
X159690509Y-144661985D01*
X159588015Y-144559491D01*
X159588013Y-144559490D01*
X159588011Y-144559488D01*
X159462488Y-144487017D01*
X159462489Y-144487017D01*
X159451006Y-144483940D01*
X159322475Y-144449500D01*
X159177525Y-144449500D01*
X159048993Y-144483940D01*
X159037511Y-144487017D01*
X158911988Y-144559488D01*
X158911982Y-144559493D01*
X158809493Y-144661982D01*
X158809488Y-144661988D01*
X158737017Y-144787511D01*
X158737016Y-144787515D01*
X158699500Y-144927525D01*
X140500500Y-144927525D01*
X140500500Y-141748543D01*
X144549499Y-141748543D01*
X144587947Y-141941829D01*
X144587950Y-141941839D01*
X144663364Y-142123907D01*
X144663371Y-142123920D01*
X144772860Y-142287781D01*
X144772863Y-142287785D01*
X144912214Y-142427136D01*
X144912218Y-142427139D01*
X145076079Y-142536628D01*
X145076092Y-142536635D01*
X145258160Y-142612049D01*
X145258165Y-142612051D01*
X145258169Y-142612051D01*
X145258170Y-142612052D01*
X145451456Y-142650500D01*
X145451459Y-142650500D01*
X145648543Y-142650500D01*
X145778582Y-142624632D01*
X145841835Y-142612051D01*
X146023914Y-142536632D01*
X146187782Y-142427139D01*
X146327139Y-142287782D01*
X146436632Y-142123914D01*
X146512051Y-141941835D01*
X146550500Y-141748543D01*
X154349499Y-141748543D01*
X154387947Y-141941829D01*
X154387950Y-141941839D01*
X154463364Y-142123907D01*
X154463371Y-142123920D01*
X154572860Y-142287781D01*
X154572863Y-142287785D01*
X154712214Y-142427136D01*
X154712218Y-142427139D01*
X154876079Y-142536628D01*
X154876092Y-142536635D01*
X155058160Y-142612049D01*
X155058165Y-142612051D01*
X155058169Y-142612051D01*
X155058170Y-142612052D01*
X155251456Y-142650500D01*
X155251459Y-142650500D01*
X155448543Y-142650500D01*
X155578582Y-142624632D01*
X155641835Y-142612051D01*
X155823914Y-142536632D01*
X155987782Y-142427139D01*
X156127139Y-142287782D01*
X156236632Y-142123914D01*
X156312051Y-141941835D01*
X156350500Y-141748541D01*
X156350500Y-141551459D01*
X156350500Y-141551456D01*
X156312052Y-141358170D01*
X156312051Y-141358169D01*
X156312051Y-141358165D01*
X156312049Y-141358160D01*
X156236635Y-141176092D01*
X156236628Y-141176079D01*
X156127139Y-141012218D01*
X156127136Y-141012214D01*
X155987785Y-140872863D01*
X155987781Y-140872860D01*
X155823920Y-140763371D01*
X155823907Y-140763364D01*
X155641839Y-140687950D01*
X155641829Y-140687947D01*
X155448543Y-140649500D01*
X155448541Y-140649500D01*
X155251459Y-140649500D01*
X155251457Y-140649500D01*
X155058170Y-140687947D01*
X155058160Y-140687950D01*
X154876092Y-140763364D01*
X154876079Y-140763371D01*
X154712218Y-140872860D01*
X154712214Y-140872863D01*
X154572863Y-141012214D01*
X154572860Y-141012218D01*
X154463371Y-141176079D01*
X154463364Y-141176092D01*
X154387950Y-141358160D01*
X154387947Y-141358170D01*
X154349500Y-141551456D01*
X154349500Y-141551459D01*
X154349500Y-141748541D01*
X154349500Y-141748543D01*
X154349499Y-141748543D01*
X146550500Y-141748543D01*
X146550500Y-141748541D01*
X146550500Y-141551459D01*
X146550500Y-141551456D01*
X146512052Y-141358170D01*
X146512051Y-141358169D01*
X146512051Y-141358165D01*
X146512049Y-141358160D01*
X146436635Y-141176092D01*
X146436628Y-141176079D01*
X146327139Y-141012218D01*
X146327136Y-141012214D01*
X146187785Y-140872863D01*
X146187781Y-140872860D01*
X146023920Y-140763371D01*
X146023907Y-140763364D01*
X145841839Y-140687950D01*
X145841829Y-140687947D01*
X145648543Y-140649500D01*
X145648541Y-140649500D01*
X145451459Y-140649500D01*
X145451457Y-140649500D01*
X145258170Y-140687947D01*
X145258160Y-140687950D01*
X145076092Y-140763364D01*
X145076079Y-140763371D01*
X144912218Y-140872860D01*
X144912214Y-140872863D01*
X144772863Y-141012214D01*
X144772860Y-141012218D01*
X144663371Y-141176079D01*
X144663364Y-141176092D01*
X144587950Y-141358160D01*
X144587947Y-141358170D01*
X144549500Y-141551456D01*
X144549500Y-141551459D01*
X144549500Y-141748541D01*
X144549500Y-141748543D01*
X144549499Y-141748543D01*
X140500500Y-141748543D01*
X140500500Y-137127525D01*
X146749500Y-137127525D01*
X146749500Y-137272475D01*
X146787016Y-137412485D01*
X146787017Y-137412488D01*
X146859488Y-137538011D01*
X146859490Y-137538013D01*
X146859491Y-137538015D01*
X146961985Y-137640509D01*
X146961986Y-137640510D01*
X146961988Y-137640511D01*
X147087511Y-137712982D01*
X147087512Y-137712982D01*
X147087515Y-137712984D01*
X147227525Y-137750500D01*
X147227528Y-137750500D01*
X147372472Y-137750500D01*
X147372475Y-137750500D01*
X147512485Y-137712984D01*
X147638015Y-137640509D01*
X147740509Y-137538015D01*
X147792613Y-137447769D01*
X147843180Y-137399553D01*
X147911787Y-137386331D01*
X147976652Y-137412299D01*
X148007387Y-137447769D01*
X148059491Y-137538015D01*
X148161985Y-137640509D01*
X148161986Y-137640510D01*
X148161988Y-137640511D01*
X148287511Y-137712982D01*
X148287512Y-137712982D01*
X148287515Y-137712984D01*
X148427525Y-137750500D01*
X148427528Y-137750500D01*
X148572472Y-137750500D01*
X148572475Y-137750500D01*
X148712485Y-137712984D01*
X148838015Y-137640509D01*
X148940509Y-137538015D01*
X149012984Y-137412485D01*
X149050500Y-137272475D01*
X149050500Y-137228386D01*
X149070185Y-137161347D01*
X149122989Y-137115592D01*
X149192147Y-137105648D01*
X149255703Y-137134673D01*
X149262181Y-137140705D01*
X149361985Y-137240509D01*
X149361986Y-137240510D01*
X149361988Y-137240511D01*
X149487511Y-137312982D01*
X149487512Y-137312982D01*
X149487515Y-137312984D01*
X149627525Y-137350500D01*
X149627528Y-137350500D01*
X149772472Y-137350500D01*
X149772475Y-137350500D01*
X149912485Y-137312984D01*
X149912487Y-137312982D01*
X149912489Y-137312982D01*
X149912490Y-137312981D01*
X149987195Y-137269850D01*
X150055095Y-137253376D01*
X150121122Y-137276228D01*
X150164313Y-137331149D01*
X150168970Y-137345141D01*
X150187015Y-137412483D01*
X150187017Y-137412488D01*
X150259488Y-137538011D01*
X150259490Y-137538013D01*
X150259491Y-137538015D01*
X150361985Y-137640509D01*
X150361986Y-137640510D01*
X150361988Y-137640511D01*
X150487511Y-137712982D01*
X150487512Y-137712982D01*
X150487515Y-137712984D01*
X150627525Y-137750500D01*
X150627528Y-137750500D01*
X150772472Y-137750500D01*
X150772475Y-137750500D01*
X150912485Y-137712984D01*
X151038015Y-137640509D01*
X151140509Y-137538015D01*
X151176819Y-137475123D01*
X151227384Y-137426910D01*
X151295991Y-137413686D01*
X151354740Y-137436800D01*
X151354946Y-137436445D01*
X151357319Y-137437815D01*
X151359690Y-137438748D01*
X151361985Y-137440509D01*
X151487511Y-137512982D01*
X151487512Y-137512982D01*
X151487515Y-137512984D01*
X151627525Y-137550500D01*
X151627528Y-137550500D01*
X151772472Y-137550500D01*
X151772475Y-137550500D01*
X151912485Y-137512984D01*
X152038015Y-137440509D01*
X152140509Y-137338015D01*
X152212984Y-137212485D01*
X152250500Y-137072475D01*
X152250500Y-136927525D01*
X153549500Y-136927525D01*
X153549500Y-137072475D01*
X153587016Y-137212485D01*
X153587017Y-137212488D01*
X153659488Y-137338011D01*
X153659490Y-137338013D01*
X153659491Y-137338015D01*
X153761985Y-137440509D01*
X153761986Y-137440510D01*
X153761988Y-137440511D01*
X153887511Y-137512982D01*
X153887512Y-137512982D01*
X153887515Y-137512984D01*
X154027525Y-137550500D01*
X154027528Y-137550500D01*
X154172472Y-137550500D01*
X154172475Y-137550500D01*
X154312485Y-137512984D01*
X154438015Y-137440509D01*
X154540509Y-137338015D01*
X154612984Y-137212485D01*
X154627272Y-137159159D01*
X154663635Y-137099502D01*
X154726482Y-137068972D01*
X154795858Y-137077266D01*
X154849736Y-137121751D01*
X154854432Y-137129253D01*
X154859488Y-137138011D01*
X154859490Y-137138013D01*
X154859491Y-137138015D01*
X154961985Y-137240509D01*
X154961986Y-137240510D01*
X154961988Y-137240511D01*
X155087511Y-137312982D01*
X155087512Y-137312982D01*
X155087515Y-137312984D01*
X155227525Y-137350500D01*
X155227528Y-137350500D01*
X155372472Y-137350500D01*
X155372475Y-137350500D01*
X155512485Y-137312984D01*
X155638015Y-137240509D01*
X155740509Y-137138015D01*
X155812984Y-137012485D01*
X155850500Y-136872475D01*
X155850500Y-136727525D01*
X155812984Y-136587515D01*
X155796805Y-136559493D01*
X155740511Y-136461988D01*
X155740506Y-136461982D01*
X155638017Y-136359493D01*
X155638011Y-136359488D01*
X155512488Y-136287017D01*
X155512489Y-136287017D01*
X155501006Y-136283940D01*
X155372475Y-136249500D01*
X155227525Y-136249500D01*
X155098993Y-136283940D01*
X155087511Y-136287017D01*
X154961988Y-136359488D01*
X154961982Y-136359493D01*
X154859493Y-136461982D01*
X154859488Y-136461988D01*
X154787017Y-136587511D01*
X154787015Y-136587516D01*
X154772727Y-136640839D01*
X154736362Y-136700499D01*
X154673515Y-136731027D01*
X154604139Y-136722732D01*
X154550262Y-136678246D01*
X154545566Y-136670744D01*
X154540512Y-136661991D01*
X154540509Y-136661985D01*
X154438015Y-136559491D01*
X154438013Y-136559490D01*
X154438011Y-136559488D01*
X154312488Y-136487017D01*
X154312489Y-136487017D01*
X154301006Y-136483940D01*
X154172475Y-136449500D01*
X154027525Y-136449500D01*
X153898993Y-136483940D01*
X153887511Y-136487017D01*
X153761988Y-136559488D01*
X153761982Y-136559493D01*
X153659493Y-136661982D01*
X153659488Y-136661988D01*
X153587017Y-136787511D01*
X153587016Y-136787515D01*
X153549500Y-136927525D01*
X152250500Y-136927525D01*
X152212984Y-136787515D01*
X152212289Y-136786312D01*
X152140511Y-136661988D01*
X152140506Y-136661982D01*
X152038017Y-136559493D01*
X152038011Y-136559488D01*
X151912488Y-136487017D01*
X151912489Y-136487017D01*
X151901006Y-136483940D01*
X151772475Y-136449500D01*
X151627525Y-136449500D01*
X151498993Y-136483940D01*
X151487511Y-136487017D01*
X151361988Y-136559488D01*
X151361982Y-136559493D01*
X151259493Y-136661982D01*
X151259487Y-136661991D01*
X151223180Y-136724875D01*
X151172613Y-136773090D01*
X151104006Y-136786312D01*
X151045259Y-136763198D01*
X151045054Y-136763555D01*
X151042678Y-136762183D01*
X151040311Y-136761252D01*
X151038018Y-136759492D01*
X150912488Y-136687017D01*
X150912489Y-136687017D01*
X150879755Y-136678246D01*
X150772475Y-136649500D01*
X150627525Y-136649500D01*
X150520245Y-136678246D01*
X150487511Y-136687017D01*
X150412803Y-136730150D01*
X150344902Y-136746623D01*
X150278876Y-136723770D01*
X150235685Y-136668849D01*
X150231028Y-136654857D01*
X150227272Y-136640839D01*
X150212984Y-136587515D01*
X150196805Y-136559493D01*
X150140511Y-136461988D01*
X150140506Y-136461982D01*
X150038017Y-136359493D01*
X150038011Y-136359488D01*
X149912488Y-136287017D01*
X149912489Y-136287017D01*
X149901006Y-136283940D01*
X149772475Y-136249500D01*
X149627525Y-136249500D01*
X149498993Y-136283940D01*
X149487511Y-136287017D01*
X149361988Y-136359488D01*
X149361982Y-136359493D01*
X149259493Y-136461982D01*
X149259488Y-136461988D01*
X149187017Y-136587511D01*
X149187016Y-136587515D01*
X149149500Y-136727525D01*
X149149500Y-136727527D01*
X149149500Y-136771614D01*
X149129815Y-136838653D01*
X149077011Y-136884408D01*
X149007853Y-136894352D01*
X148944297Y-136865327D01*
X148937819Y-136859295D01*
X148838017Y-136759493D01*
X148838011Y-136759488D01*
X148712488Y-136687017D01*
X148712489Y-136687017D01*
X148679755Y-136678246D01*
X148572475Y-136649500D01*
X148427525Y-136649500D01*
X148320245Y-136678246D01*
X148287511Y-136687017D01*
X148161988Y-136759488D01*
X148161982Y-136759493D01*
X148059493Y-136861982D01*
X148059491Y-136861985D01*
X148007387Y-136952231D01*
X147956819Y-137000446D01*
X147888212Y-137013668D01*
X147823347Y-136987700D01*
X147792613Y-136952231D01*
X147758644Y-136893396D01*
X147740509Y-136861985D01*
X147638015Y-136759491D01*
X147638013Y-136759490D01*
X147638011Y-136759488D01*
X147512488Y-136687017D01*
X147512489Y-136687017D01*
X147479755Y-136678246D01*
X147372475Y-136649500D01*
X147227525Y-136649500D01*
X147120245Y-136678246D01*
X147087511Y-136687017D01*
X146961988Y-136759488D01*
X146961982Y-136759493D01*
X146859493Y-136861982D01*
X146859488Y-136861988D01*
X146787017Y-136987511D01*
X146787016Y-136987515D01*
X146749500Y-137127525D01*
X140500500Y-137127525D01*
X140500500Y-136427525D01*
X145199500Y-136427525D01*
X145199500Y-136572475D01*
X145237016Y-136712485D01*
X145237017Y-136712488D01*
X145309488Y-136838011D01*
X145309490Y-136838013D01*
X145309491Y-136838015D01*
X145411985Y-136940509D01*
X145411986Y-136940510D01*
X145411988Y-136940511D01*
X145537511Y-137012982D01*
X145537512Y-137012982D01*
X145537515Y-137012984D01*
X145677525Y-137050500D01*
X145677528Y-137050500D01*
X145822472Y-137050500D01*
X145822475Y-137050500D01*
X145962485Y-137012984D01*
X145964170Y-137012011D01*
X145964171Y-137012011D01*
X146006605Y-136987511D01*
X146088015Y-136940509D01*
X146190509Y-136838015D01*
X146262984Y-136712485D01*
X146300500Y-136572475D01*
X146300500Y-136427525D01*
X146262984Y-136287515D01*
X146262696Y-136287017D01*
X146190511Y-136161988D01*
X146190506Y-136161982D01*
X146088017Y-136059493D01*
X146088011Y-136059488D01*
X145962488Y-135987017D01*
X145962489Y-135987017D01*
X145951006Y-135983940D01*
X145822475Y-135949500D01*
X145677525Y-135949500D01*
X145548993Y-135983940D01*
X145537511Y-135987017D01*
X145411988Y-136059488D01*
X145411982Y-136059493D01*
X145309493Y-136161982D01*
X145309488Y-136161988D01*
X145237017Y-136287511D01*
X145237016Y-136287515D01*
X145199500Y-136427525D01*
X140500500Y-136427525D01*
X140500500Y-128121948D01*
X144269500Y-128121948D01*
X144269500Y-128303051D01*
X144297829Y-128481910D01*
X144353787Y-128654136D01*
X144353788Y-128654139D01*
X144436006Y-128815497D01*
X144542441Y-128961994D01*
X144542445Y-128961999D01*
X144670500Y-129090054D01*
X144670505Y-129090058D01*
X144798287Y-129182896D01*
X144817006Y-129196496D01*
X144922484Y-129250240D01*
X144978360Y-129278711D01*
X144978363Y-129278712D01*
X145064476Y-129306691D01*
X145150591Y-129334671D01*
X145223639Y-129346240D01*
X145310678Y-129360027D01*
X145373813Y-129389956D01*
X145410744Y-129449268D01*
X145409746Y-129519131D01*
X145371136Y-129577363D01*
X145310678Y-129604973D01*
X145150589Y-129630329D01*
X144978363Y-129686287D01*
X144978360Y-129686288D01*
X144817002Y-129768506D01*
X144670505Y-129874941D01*
X144670500Y-129874945D01*
X144542445Y-130003000D01*
X144542441Y-130003005D01*
X144436006Y-130149502D01*
X144353788Y-130310860D01*
X144353787Y-130310863D01*
X144297829Y-130483089D01*
X144269500Y-130661948D01*
X144269500Y-130843051D01*
X144297829Y-131021910D01*
X144353787Y-131194136D01*
X144353788Y-131194139D01*
X144436006Y-131355497D01*
X144542441Y-131501994D01*
X144542445Y-131501999D01*
X144670500Y-131630054D01*
X144670505Y-131630058D01*
X144731389Y-131674292D01*
X144817006Y-131736496D01*
X144922484Y-131790240D01*
X144978360Y-131818711D01*
X144978363Y-131818712D01*
X145064476Y-131846691D01*
X145150591Y-131874671D01*
X145233429Y-131887791D01*
X145329449Y-131903000D01*
X145329454Y-131903000D01*
X145510551Y-131903000D01*
X145597259Y-131889265D01*
X145689409Y-131874671D01*
X145861639Y-131818711D01*
X146022994Y-131736496D01*
X146169501Y-131630053D01*
X146297553Y-131502001D01*
X146403996Y-131355494D01*
X146486211Y-131194139D01*
X146542171Y-131021909D01*
X146556452Y-130931740D01*
X146567527Y-130861821D01*
X146597456Y-130798686D01*
X146656768Y-130761755D01*
X146726630Y-130762753D01*
X146784863Y-130801363D01*
X146812473Y-130861821D01*
X146837829Y-131021910D01*
X146893787Y-131194136D01*
X146893788Y-131194139D01*
X146976006Y-131355497D01*
X147082441Y-131501994D01*
X147082445Y-131501999D01*
X147210500Y-131630054D01*
X147210505Y-131630058D01*
X147271389Y-131674292D01*
X147357006Y-131736496D01*
X147462484Y-131790240D01*
X147518360Y-131818711D01*
X147518363Y-131818712D01*
X147604476Y-131846691D01*
X147690591Y-131874671D01*
X147773429Y-131887791D01*
X147869449Y-131903000D01*
X147869454Y-131903000D01*
X148050551Y-131903000D01*
X148137259Y-131889265D01*
X148229409Y-131874671D01*
X148401639Y-131818711D01*
X148562994Y-131736496D01*
X148709501Y-131630053D01*
X148837553Y-131502001D01*
X148943996Y-131355494D01*
X149026211Y-131194139D01*
X149082171Y-131021909D01*
X149096452Y-130931740D01*
X149107527Y-130861821D01*
X149137456Y-130798686D01*
X149196768Y-130761755D01*
X149266630Y-130762753D01*
X149324863Y-130801363D01*
X149352473Y-130861821D01*
X149377829Y-131021910D01*
X149433787Y-131194136D01*
X149433788Y-131194139D01*
X149516006Y-131355497D01*
X149622441Y-131501994D01*
X149622445Y-131501999D01*
X149750500Y-131630054D01*
X149750505Y-131630058D01*
X149811389Y-131674292D01*
X149897006Y-131736496D01*
X150002484Y-131790240D01*
X150058360Y-131818711D01*
X150058363Y-131818712D01*
X150144476Y-131846691D01*
X150230591Y-131874671D01*
X150313429Y-131887791D01*
X150409449Y-131903000D01*
X150409454Y-131903000D01*
X150590551Y-131903000D01*
X150677259Y-131889265D01*
X150769409Y-131874671D01*
X150941639Y-131818711D01*
X151102994Y-131736496D01*
X151249501Y-131630053D01*
X151377553Y-131502001D01*
X151483996Y-131355494D01*
X151566211Y-131194139D01*
X151622171Y-131021909D01*
X151636452Y-130931740D01*
X151647527Y-130861821D01*
X151677456Y-130798686D01*
X151736768Y-130761755D01*
X151806630Y-130762753D01*
X151864863Y-130801363D01*
X151892473Y-130861821D01*
X151917829Y-131021910D01*
X151973787Y-131194136D01*
X151973788Y-131194139D01*
X152056006Y-131355497D01*
X152162441Y-131501994D01*
X152162445Y-131501999D01*
X152290500Y-131630054D01*
X152290505Y-131630058D01*
X152351389Y-131674292D01*
X152437006Y-131736496D01*
X152542484Y-131790240D01*
X152598360Y-131818711D01*
X152598363Y-131818712D01*
X152684476Y-131846691D01*
X152770591Y-131874671D01*
X152853429Y-131887791D01*
X152949449Y-131903000D01*
X152949454Y-131903000D01*
X153130551Y-131903000D01*
X153217259Y-131889265D01*
X153309409Y-131874671D01*
X153481639Y-131818711D01*
X153642994Y-131736496D01*
X153789501Y-131630053D01*
X153917553Y-131502001D01*
X154023996Y-131355494D01*
X154106211Y-131194139D01*
X154162171Y-131021909D01*
X154165245Y-131002500D01*
X154176453Y-130931740D01*
X154190500Y-130843051D01*
X154190500Y-130661948D01*
X154165245Y-130502500D01*
X154162171Y-130483091D01*
X154106211Y-130310861D01*
X154106211Y-130310860D01*
X154025110Y-130151693D01*
X154025109Y-130151690D01*
X154023995Y-130149503D01*
X153986789Y-130098293D01*
X154530000Y-130098293D01*
X154530000Y-130502500D01*
X155146988Y-130502500D01*
X155114075Y-130559507D01*
X155080000Y-130686674D01*
X155080000Y-130818326D01*
X155114075Y-130945493D01*
X155146988Y-131002500D01*
X154530001Y-131002500D01*
X154530001Y-131406696D01*
X154532851Y-131437106D01*
X154577653Y-131565145D01*
X154658207Y-131674292D01*
X154767354Y-131754846D01*
X154895397Y-131799649D01*
X154925792Y-131802499D01*
X155329999Y-131802499D01*
X155330000Y-131802498D01*
X155330000Y-131185512D01*
X155387007Y-131218425D01*
X155514174Y-131252500D01*
X155645826Y-131252500D01*
X155772993Y-131218425D01*
X155830000Y-131185512D01*
X155830000Y-131802499D01*
X156234196Y-131802499D01*
X156264606Y-131799648D01*
X156392645Y-131754846D01*
X156501792Y-131674292D01*
X156582346Y-131565145D01*
X156627149Y-131437104D01*
X156627149Y-131437100D01*
X156630000Y-131406706D01*
X156630000Y-131002500D01*
X156013012Y-131002500D01*
X156045925Y-130945493D01*
X156080000Y-130818326D01*
X156080000Y-130686674D01*
X156045925Y-130559507D01*
X156013012Y-130502500D01*
X156629999Y-130502500D01*
X156629999Y-130098303D01*
X156627148Y-130067893D01*
X156582346Y-129939854D01*
X156501792Y-129830707D01*
X156392645Y-129750153D01*
X156264602Y-129705350D01*
X156234207Y-129702500D01*
X155830000Y-129702500D01*
X155830000Y-130319488D01*
X155772993Y-130286575D01*
X155645826Y-130252500D01*
X155514174Y-130252500D01*
X155387007Y-130286575D01*
X155330000Y-130319488D01*
X155330000Y-129702500D01*
X154925803Y-129702500D01*
X154895393Y-129705351D01*
X154767354Y-129750153D01*
X154658207Y-129830707D01*
X154577653Y-129939854D01*
X154532850Y-130067895D01*
X154532850Y-130067899D01*
X154530000Y-130098293D01*
X153986789Y-130098293D01*
X153917558Y-130003005D01*
X153917554Y-130003000D01*
X153789499Y-129874945D01*
X153789494Y-129874941D01*
X153642997Y-129768506D01*
X153642996Y-129768505D01*
X153642994Y-129768504D01*
X153591300Y-129742164D01*
X153481639Y-129686288D01*
X153481636Y-129686287D01*
X153309410Y-129630329D01*
X153149321Y-129604973D01*
X153086186Y-129575044D01*
X153049255Y-129515732D01*
X153050253Y-129445870D01*
X153088863Y-129387637D01*
X153149321Y-129360027D01*
X153219425Y-129348922D01*
X153309409Y-129334671D01*
X153481639Y-129278711D01*
X153642994Y-129196496D01*
X153789501Y-129090053D01*
X153917553Y-128962001D01*
X154023996Y-128815494D01*
X154106211Y-128654139D01*
X154162171Y-128481909D01*
X154187423Y-128322475D01*
X154187527Y-128321821D01*
X154217456Y-128258686D01*
X154276768Y-128221755D01*
X154346630Y-128222753D01*
X154404863Y-128261363D01*
X154432473Y-128321821D01*
X154457829Y-128481910D01*
X154513787Y-128654136D01*
X154513788Y-128654139D01*
X154596006Y-128815497D01*
X154702441Y-128961994D01*
X154702445Y-128961999D01*
X154830500Y-129090054D01*
X154830505Y-129090058D01*
X154958287Y-129182896D01*
X154977006Y-129196496D01*
X155082484Y-129250240D01*
X155138360Y-129278711D01*
X155138363Y-129278712D01*
X155224476Y-129306691D01*
X155310591Y-129334671D01*
X155393429Y-129347791D01*
X155489449Y-129363000D01*
X155489454Y-129363000D01*
X155670551Y-129363000D01*
X155757259Y-129349265D01*
X155849409Y-129334671D01*
X156021639Y-129278711D01*
X156182994Y-129196496D01*
X156329501Y-129090053D01*
X156457553Y-128962001D01*
X156563996Y-128815494D01*
X156646211Y-128654139D01*
X156702171Y-128481909D01*
X156727423Y-128322475D01*
X156730500Y-128303051D01*
X156730500Y-128177525D01*
X158699500Y-128177525D01*
X158699500Y-128322475D01*
X158737016Y-128462485D01*
X158737017Y-128462488D01*
X158809488Y-128588011D01*
X158809490Y-128588013D01*
X158809491Y-128588015D01*
X158911985Y-128690509D01*
X158911986Y-128690510D01*
X158911988Y-128690511D01*
X159037511Y-128762982D01*
X159037512Y-128762982D01*
X159037515Y-128762984D01*
X159177525Y-128800500D01*
X159177528Y-128800500D01*
X159322472Y-128800500D01*
X159322475Y-128800500D01*
X159462485Y-128762984D01*
X159588015Y-128690509D01*
X159690509Y-128588015D01*
X159762984Y-128462485D01*
X159800500Y-128322475D01*
X159800500Y-128177525D01*
X159762984Y-128037515D01*
X159690509Y-127911985D01*
X159588015Y-127809491D01*
X159588013Y-127809490D01*
X159588011Y-127809488D01*
X159462488Y-127737017D01*
X159462489Y-127737017D01*
X159451006Y-127733940D01*
X159322475Y-127699500D01*
X159177525Y-127699500D01*
X159048993Y-127733940D01*
X159037511Y-127737017D01*
X158911988Y-127809488D01*
X158911982Y-127809493D01*
X158809493Y-127911982D01*
X158809488Y-127911988D01*
X158737017Y-128037511D01*
X158737016Y-128037515D01*
X158699500Y-128177525D01*
X156730500Y-128177525D01*
X156730500Y-128121948D01*
X156714019Y-128017897D01*
X156702171Y-127943091D01*
X156658763Y-127809493D01*
X156646212Y-127770863D01*
X156646211Y-127770860D01*
X156617740Y-127714984D01*
X156563996Y-127609506D01*
X156550396Y-127590787D01*
X156457558Y-127463005D01*
X156457554Y-127463000D01*
X156329499Y-127334945D01*
X156329494Y-127334941D01*
X156182997Y-127228506D01*
X156182996Y-127228505D01*
X156182994Y-127228504D01*
X156131300Y-127202164D01*
X156021639Y-127146288D01*
X156021636Y-127146287D01*
X155849410Y-127090329D01*
X155670551Y-127062000D01*
X155670546Y-127062000D01*
X155489454Y-127062000D01*
X155489449Y-127062000D01*
X155310589Y-127090329D01*
X155138363Y-127146287D01*
X155138360Y-127146288D01*
X154977002Y-127228506D01*
X154830505Y-127334941D01*
X154830500Y-127334945D01*
X154702445Y-127463000D01*
X154702441Y-127463005D01*
X154596006Y-127609502D01*
X154513788Y-127770860D01*
X154513787Y-127770863D01*
X154457829Y-127943089D01*
X154432473Y-128103178D01*
X154402544Y-128166313D01*
X154343232Y-128203244D01*
X154273369Y-128202246D01*
X154215137Y-128163636D01*
X154187527Y-128103178D01*
X154173740Y-128016139D01*
X154162171Y-127943091D01*
X154118763Y-127809493D01*
X154106212Y-127770863D01*
X154106211Y-127770860D01*
X154077740Y-127714984D01*
X154023996Y-127609506D01*
X154010396Y-127590787D01*
X153917558Y-127463005D01*
X153917554Y-127463000D01*
X153789499Y-127334945D01*
X153789494Y-127334941D01*
X153642997Y-127228506D01*
X153642996Y-127228505D01*
X153642994Y-127228504D01*
X153591300Y-127202164D01*
X153481639Y-127146288D01*
X153481636Y-127146287D01*
X153309410Y-127090329D01*
X153130551Y-127062000D01*
X153130546Y-127062000D01*
X152949454Y-127062000D01*
X152949449Y-127062000D01*
X152770589Y-127090329D01*
X152598363Y-127146287D01*
X152598360Y-127146288D01*
X152437002Y-127228506D01*
X152290505Y-127334941D01*
X152290500Y-127334945D01*
X152162445Y-127463000D01*
X152162441Y-127463005D01*
X152056006Y-127609502D01*
X151973788Y-127770860D01*
X151973787Y-127770863D01*
X151917829Y-127943089D01*
X151892473Y-128103178D01*
X151862544Y-128166313D01*
X151803232Y-128203244D01*
X151733369Y-128202246D01*
X151675137Y-128163636D01*
X151647527Y-128103178D01*
X151633740Y-128016139D01*
X151622171Y-127943091D01*
X151578763Y-127809493D01*
X151566212Y-127770863D01*
X151566211Y-127770860D01*
X151537740Y-127714984D01*
X151483996Y-127609506D01*
X151470396Y-127590787D01*
X151377558Y-127463005D01*
X151377554Y-127463000D01*
X151249499Y-127334945D01*
X151249494Y-127334941D01*
X151102997Y-127228506D01*
X151102996Y-127228505D01*
X151102994Y-127228504D01*
X151051300Y-127202164D01*
X150941639Y-127146288D01*
X150941636Y-127146287D01*
X150769410Y-127090329D01*
X150590551Y-127062000D01*
X150590546Y-127062000D01*
X150409454Y-127062000D01*
X150409449Y-127062000D01*
X150230589Y-127090329D01*
X150058363Y-127146287D01*
X150058360Y-127146288D01*
X149897002Y-127228506D01*
X149750505Y-127334941D01*
X149750500Y-127334945D01*
X149622445Y-127463000D01*
X149622441Y-127463005D01*
X149516006Y-127609502D01*
X149433788Y-127770860D01*
X149433787Y-127770863D01*
X149377829Y-127943089D01*
X149352473Y-128103178D01*
X149322544Y-128166313D01*
X149263232Y-128203244D01*
X149193369Y-128202246D01*
X149135137Y-128163636D01*
X149107527Y-128103178D01*
X149093740Y-128016139D01*
X149082171Y-127943091D01*
X149038763Y-127809493D01*
X149026212Y-127770863D01*
X149026211Y-127770860D01*
X148997740Y-127714984D01*
X148943996Y-127609506D01*
X148930396Y-127590787D01*
X148837558Y-127463005D01*
X148837554Y-127463000D01*
X148709499Y-127334945D01*
X148709494Y-127334941D01*
X148562997Y-127228506D01*
X148562996Y-127228505D01*
X148562994Y-127228504D01*
X148511300Y-127202164D01*
X148401639Y-127146288D01*
X148401636Y-127146287D01*
X148229410Y-127090329D01*
X148050551Y-127062000D01*
X148050546Y-127062000D01*
X147869454Y-127062000D01*
X147869449Y-127062000D01*
X147690589Y-127090329D01*
X147518363Y-127146287D01*
X147518360Y-127146288D01*
X147357002Y-127228506D01*
X147210505Y-127334941D01*
X147210500Y-127334945D01*
X147082445Y-127463000D01*
X147082441Y-127463005D01*
X146976006Y-127609502D01*
X146893788Y-127770860D01*
X146893787Y-127770863D01*
X146837829Y-127943089D01*
X146812473Y-128103178D01*
X146782544Y-128166313D01*
X146723232Y-128203244D01*
X146653369Y-128202246D01*
X146595137Y-128163636D01*
X146567527Y-128103178D01*
X146553740Y-128016139D01*
X146542171Y-127943091D01*
X146498763Y-127809493D01*
X146486212Y-127770863D01*
X146486211Y-127770860D01*
X146457740Y-127714984D01*
X146403996Y-127609506D01*
X146390396Y-127590787D01*
X146297558Y-127463005D01*
X146297554Y-127463000D01*
X146169499Y-127334945D01*
X146169494Y-127334941D01*
X146022997Y-127228506D01*
X146022996Y-127228505D01*
X146022994Y-127228504D01*
X145971300Y-127202164D01*
X145861639Y-127146288D01*
X145861636Y-127146287D01*
X145689410Y-127090329D01*
X145510551Y-127062000D01*
X145510546Y-127062000D01*
X145329454Y-127062000D01*
X145329449Y-127062000D01*
X145150589Y-127090329D01*
X144978363Y-127146287D01*
X144978360Y-127146288D01*
X144817002Y-127228506D01*
X144670505Y-127334941D01*
X144670500Y-127334945D01*
X144542445Y-127463000D01*
X144542441Y-127463005D01*
X144436006Y-127609502D01*
X144353788Y-127770860D01*
X144353787Y-127770863D01*
X144297829Y-127943089D01*
X144269500Y-128121948D01*
X140500500Y-128121948D01*
X140500500Y-115427525D01*
X145699500Y-115427525D01*
X145699500Y-115572475D01*
X145733537Y-115699500D01*
X145737017Y-115712488D01*
X145809488Y-115838011D01*
X145809490Y-115838013D01*
X145809491Y-115838015D01*
X145911985Y-115940509D01*
X145911986Y-115940510D01*
X145911988Y-115940511D01*
X146037511Y-116012982D01*
X146037512Y-116012982D01*
X146037515Y-116012984D01*
X146177525Y-116050500D01*
X146177528Y-116050500D01*
X146322472Y-116050500D01*
X146322475Y-116050500D01*
X146462485Y-116012984D01*
X146462487Y-116012982D01*
X146462489Y-116012982D01*
X146462490Y-116012981D01*
X146535778Y-115970668D01*
X146603678Y-115954194D01*
X146669705Y-115977046D01*
X146712896Y-116031966D01*
X146719538Y-116101520D01*
X146717554Y-116110147D01*
X146699500Y-116177525D01*
X146699500Y-116322475D01*
X146737016Y-116462485D01*
X146737017Y-116462488D01*
X146809488Y-116588011D01*
X146809490Y-116588013D01*
X146809491Y-116588015D01*
X146911985Y-116690509D01*
X146911986Y-116690510D01*
X146911988Y-116690511D01*
X147037511Y-116762982D01*
X147037512Y-116762982D01*
X147037515Y-116762984D01*
X147177525Y-116800500D01*
X147177528Y-116800500D01*
X147322472Y-116800500D01*
X147322475Y-116800500D01*
X147462485Y-116762984D01*
X147588015Y-116690509D01*
X147690509Y-116588015D01*
X147762984Y-116462485D01*
X147800500Y-116322475D01*
X147800500Y-116177525D01*
X147762984Y-116037515D01*
X147759780Y-116031966D01*
X147690511Y-115911988D01*
X147690506Y-115911982D01*
X147588017Y-115809493D01*
X147588011Y-115809488D01*
X147462488Y-115737017D01*
X147462489Y-115737017D01*
X147451006Y-115733940D01*
X147322475Y-115699500D01*
X147177525Y-115699500D01*
X147048993Y-115733940D01*
X147037511Y-115737017D01*
X146964220Y-115779332D01*
X146896320Y-115795805D01*
X146830293Y-115772952D01*
X146787102Y-115718031D01*
X146780461Y-115648478D01*
X146782441Y-115639868D01*
X146800500Y-115572475D01*
X146800500Y-115427525D01*
X146762984Y-115287515D01*
X146690509Y-115161985D01*
X146588015Y-115059491D01*
X146588013Y-115059490D01*
X146588011Y-115059488D01*
X146462488Y-114987017D01*
X146462489Y-114987017D01*
X146451006Y-114983940D01*
X146322475Y-114949500D01*
X146177525Y-114949500D01*
X146048993Y-114983940D01*
X146037511Y-114987017D01*
X145911988Y-115059488D01*
X145911982Y-115059493D01*
X145809493Y-115161982D01*
X145809488Y-115161988D01*
X145737017Y-115287511D01*
X145737016Y-115287515D01*
X145699500Y-115427525D01*
X140500500Y-115427525D01*
X140500500Y-114600000D01*
X145500000Y-114600000D01*
X147500000Y-114600000D01*
X147500000Y-112200000D01*
X145500000Y-112200000D01*
X145500000Y-114600000D01*
X140500500Y-114600000D01*
X140500500Y-110177525D01*
X143699500Y-110177525D01*
X143699500Y-110322475D01*
X143716927Y-110387511D01*
X143737017Y-110462488D01*
X143809488Y-110588011D01*
X143809490Y-110588013D01*
X143809491Y-110588015D01*
X143911985Y-110690509D01*
X143911986Y-110690510D01*
X143911988Y-110690511D01*
X144037511Y-110762982D01*
X144037512Y-110762982D01*
X144037515Y-110762984D01*
X144177525Y-110800500D01*
X144177528Y-110800500D01*
X144322472Y-110800500D01*
X144322475Y-110800500D01*
X144462485Y-110762984D01*
X144588015Y-110690509D01*
X144690509Y-110588015D01*
X144725433Y-110527525D01*
X146649500Y-110527525D01*
X146649500Y-110672475D01*
X146683805Y-110800500D01*
X146687017Y-110812488D01*
X146759488Y-110938011D01*
X146759490Y-110938013D01*
X146759491Y-110938015D01*
X146861985Y-111040509D01*
X146861986Y-111040510D01*
X146861988Y-111040511D01*
X146987511Y-111112982D01*
X146987512Y-111112982D01*
X146987515Y-111112984D01*
X147127525Y-111150500D01*
X147127528Y-111150500D01*
X147272472Y-111150500D01*
X147272475Y-111150500D01*
X147412485Y-111112984D01*
X147538015Y-111040509D01*
X147640509Y-110938015D01*
X147712984Y-110812485D01*
X147750500Y-110672475D01*
X147750500Y-110527525D01*
X147712984Y-110387515D01*
X147675431Y-110322472D01*
X147640511Y-110261988D01*
X147640506Y-110261982D01*
X147538017Y-110159493D01*
X147538011Y-110159488D01*
X147412488Y-110087017D01*
X147412489Y-110087017D01*
X147401006Y-110083940D01*
X147272475Y-110049500D01*
X147127525Y-110049500D01*
X146998993Y-110083940D01*
X146987511Y-110087017D01*
X146861988Y-110159488D01*
X146861982Y-110159493D01*
X146759493Y-110261982D01*
X146759488Y-110261988D01*
X146687017Y-110387511D01*
X146687016Y-110387515D01*
X146649500Y-110527525D01*
X144725433Y-110527525D01*
X144762984Y-110462485D01*
X144800500Y-110322475D01*
X144800500Y-110177525D01*
X144762984Y-110037515D01*
X144690509Y-109911985D01*
X144588015Y-109809491D01*
X144588013Y-109809490D01*
X144588011Y-109809488D01*
X144462488Y-109737017D01*
X144462489Y-109737017D01*
X144451006Y-109733940D01*
X144322475Y-109699500D01*
X144177525Y-109699500D01*
X144048993Y-109733940D01*
X144037511Y-109737017D01*
X143911988Y-109809488D01*
X143911982Y-109809493D01*
X143809493Y-109911982D01*
X143809488Y-109911988D01*
X143737017Y-110037511D01*
X143737016Y-110037515D01*
X143699500Y-110177525D01*
X140500500Y-110177525D01*
X140500500Y-105677525D01*
X140949500Y-105677525D01*
X140949500Y-105822475D01*
X140987016Y-105962485D01*
X140987017Y-105962488D01*
X141059488Y-106088011D01*
X141059490Y-106088013D01*
X141059491Y-106088015D01*
X141161985Y-106190509D01*
X141161986Y-106190510D01*
X141161988Y-106190511D01*
X141287511Y-106262982D01*
X141287512Y-106262982D01*
X141287515Y-106262984D01*
X141375705Y-106286614D01*
X141435364Y-106322979D01*
X141463384Y-106374294D01*
X141487015Y-106462483D01*
X141487017Y-106462488D01*
X141559488Y-106588011D01*
X141559490Y-106588013D01*
X141559491Y-106588015D01*
X141661985Y-106690509D01*
X141661986Y-106690510D01*
X141661988Y-106690511D01*
X141787511Y-106762982D01*
X141787512Y-106762982D01*
X141787515Y-106762984D01*
X141927525Y-106800500D01*
X141927528Y-106800500D01*
X142072472Y-106800500D01*
X142072475Y-106800500D01*
X142212485Y-106762984D01*
X142338015Y-106690509D01*
X142440509Y-106588015D01*
X142512984Y-106462485D01*
X142550500Y-106322475D01*
X142550500Y-106177525D01*
X142512984Y-106037515D01*
X142469665Y-105962485D01*
X142440511Y-105911988D01*
X142440506Y-105911982D01*
X142338017Y-105809493D01*
X142338011Y-105809488D01*
X142205447Y-105732952D01*
X142207031Y-105730208D01*
X142164244Y-105695746D01*
X142142162Y-105629457D01*
X142159424Y-105561753D01*
X142206136Y-105518241D01*
X142205447Y-105517048D01*
X142292731Y-105466653D01*
X142338015Y-105440509D01*
X142440509Y-105338015D01*
X142512984Y-105212485D01*
X142550500Y-105072475D01*
X142550500Y-104927525D01*
X142512984Y-104787515D01*
X142440509Y-104661985D01*
X142338015Y-104559491D01*
X142338013Y-104559490D01*
X142338011Y-104559488D01*
X142212488Y-104487017D01*
X142212489Y-104487017D01*
X142201006Y-104483940D01*
X142072475Y-104449500D01*
X141927525Y-104449500D01*
X141798993Y-104483940D01*
X141787511Y-104487017D01*
X141661988Y-104559488D01*
X141661982Y-104559493D01*
X141559493Y-104661982D01*
X141559488Y-104661988D01*
X141487017Y-104787511D01*
X141487016Y-104787515D01*
X141449500Y-104927525D01*
X141449500Y-104927527D01*
X141449500Y-105072474D01*
X141450561Y-105080532D01*
X141447326Y-105080957D01*
X141446030Y-105135566D01*
X141406870Y-105193431D01*
X141360010Y-105217590D01*
X141306580Y-105231907D01*
X141287511Y-105237017D01*
X141161988Y-105309488D01*
X141161982Y-105309493D01*
X141059493Y-105411982D01*
X141059488Y-105411988D01*
X140987017Y-105537511D01*
X140987016Y-105537515D01*
X140949500Y-105677525D01*
X140500500Y-105677525D01*
X140500500Y-103927525D01*
X150199500Y-103927525D01*
X150199500Y-104072475D01*
X150237016Y-104212485D01*
X150237017Y-104212488D01*
X150309488Y-104338011D01*
X150309490Y-104338013D01*
X150309491Y-104338015D01*
X150411985Y-104440509D01*
X150411986Y-104440510D01*
X150411988Y-104440511D01*
X150537511Y-104512982D01*
X150537512Y-104512982D01*
X150537515Y-104512984D01*
X150677525Y-104550500D01*
X150677528Y-104550500D01*
X150822472Y-104550500D01*
X150822475Y-104550500D01*
X150962485Y-104512984D01*
X151088015Y-104440509D01*
X151190509Y-104338015D01*
X151262984Y-104212485D01*
X151300500Y-104072475D01*
X151300500Y-103927525D01*
X151262984Y-103787515D01*
X151190509Y-103661985D01*
X151088015Y-103559491D01*
X151088013Y-103559490D01*
X151088011Y-103559488D01*
X150962488Y-103487017D01*
X150962489Y-103487017D01*
X150951006Y-103483940D01*
X150822475Y-103449500D01*
X150677525Y-103449500D01*
X150548993Y-103483940D01*
X150537511Y-103487017D01*
X150411988Y-103559488D01*
X150411982Y-103559493D01*
X150309493Y-103661982D01*
X150309488Y-103661988D01*
X150237017Y-103787511D01*
X150237016Y-103787515D01*
X150199500Y-103927525D01*
X140500500Y-103927525D01*
X140500500Y-100927525D01*
X151699500Y-100927525D01*
X151699500Y-101072475D01*
X151737016Y-101212485D01*
X151737017Y-101212488D01*
X151809488Y-101338011D01*
X151809490Y-101338013D01*
X151809491Y-101338015D01*
X151911985Y-101440509D01*
X151911986Y-101440510D01*
X151911988Y-101440511D01*
X152037511Y-101512982D01*
X152037512Y-101512982D01*
X152037515Y-101512984D01*
X152177525Y-101550500D01*
X152177528Y-101550500D01*
X152322472Y-101550500D01*
X152322475Y-101550500D01*
X152462485Y-101512984D01*
X152588015Y-101440509D01*
X152600999Y-101427525D01*
X152949500Y-101427525D01*
X152949500Y-101572475D01*
X152987016Y-101712485D01*
X152987017Y-101712488D01*
X153059488Y-101838011D01*
X153059490Y-101838013D01*
X153059491Y-101838015D01*
X153161985Y-101940509D01*
X153161986Y-101940510D01*
X153161988Y-101940511D01*
X153287511Y-102012982D01*
X153287512Y-102012982D01*
X153287515Y-102012984D01*
X153427525Y-102050500D01*
X153427528Y-102050500D01*
X153572472Y-102050500D01*
X153572475Y-102050500D01*
X153712485Y-102012984D01*
X153838015Y-101940509D01*
X153940509Y-101838015D01*
X154012984Y-101712485D01*
X154050500Y-101572475D01*
X154050500Y-101427525D01*
X154012984Y-101287515D01*
X153989717Y-101247216D01*
X153940511Y-101161988D01*
X153940506Y-101161982D01*
X153838017Y-101059493D01*
X153838011Y-101059488D01*
X153712488Y-100987017D01*
X153712489Y-100987017D01*
X153701006Y-100983940D01*
X153572475Y-100949500D01*
X153427525Y-100949500D01*
X153298993Y-100983940D01*
X153287511Y-100987017D01*
X153161988Y-101059488D01*
X153161982Y-101059493D01*
X153059493Y-101161982D01*
X153059491Y-101161985D01*
X153007064Y-101252789D01*
X153007061Y-101252795D01*
X152987016Y-101287515D01*
X152972988Y-101339865D01*
X152972986Y-101339872D01*
X152949500Y-101427525D01*
X152600999Y-101427525D01*
X152690509Y-101338015D01*
X152762984Y-101212485D01*
X152800500Y-101072475D01*
X152800500Y-100927525D01*
X152762984Y-100787515D01*
X152690509Y-100661985D01*
X152588015Y-100559491D01*
X152588013Y-100559490D01*
X152588011Y-100559488D01*
X152462488Y-100487017D01*
X152462489Y-100487017D01*
X152451006Y-100483940D01*
X152322475Y-100449500D01*
X152177525Y-100449500D01*
X152048993Y-100483940D01*
X152037511Y-100487017D01*
X151911988Y-100559488D01*
X151911982Y-100559493D01*
X151809493Y-100661982D01*
X151809488Y-100661988D01*
X151737017Y-100787511D01*
X151737016Y-100787515D01*
X151699500Y-100927525D01*
X140500500Y-100927525D01*
X140500500Y-98927525D01*
X146949500Y-98927525D01*
X146949500Y-99072475D01*
X146980188Y-99187001D01*
X146987017Y-99212488D01*
X147059488Y-99338011D01*
X147059490Y-99338013D01*
X147059491Y-99338015D01*
X147161985Y-99440509D01*
X147161986Y-99440510D01*
X147161988Y-99440511D01*
X147287511Y-99512982D01*
X147287512Y-99512982D01*
X147287515Y-99512984D01*
X147427525Y-99550500D01*
X147427528Y-99550500D01*
X147572472Y-99550500D01*
X147572475Y-99550500D01*
X147712485Y-99512984D01*
X147838015Y-99440509D01*
X147940509Y-99338015D01*
X148012984Y-99212485D01*
X148050500Y-99072475D01*
X148050500Y-99020362D01*
X148070185Y-98953323D01*
X148112499Y-98912975D01*
X148238015Y-98840509D01*
X148340509Y-98738015D01*
X148412976Y-98612499D01*
X148463543Y-98564284D01*
X148520363Y-98550500D01*
X148572473Y-98550500D01*
X148572475Y-98550500D01*
X148637434Y-98533094D01*
X148707282Y-98534756D01*
X148765145Y-98573917D01*
X148784090Y-98605421D01*
X148787016Y-98612486D01*
X148859482Y-98738000D01*
X148875955Y-98805900D01*
X148859482Y-98862000D01*
X148787017Y-98987511D01*
X148787016Y-98987515D01*
X148749500Y-99127525D01*
X148749500Y-99272475D01*
X148787016Y-99412485D01*
X148787017Y-99412488D01*
X148859488Y-99538011D01*
X148859490Y-99538013D01*
X148859491Y-99538015D01*
X148961985Y-99640509D01*
X148961986Y-99640510D01*
X148961988Y-99640511D01*
X149087511Y-99712982D01*
X149087512Y-99712982D01*
X149087515Y-99712984D01*
X149227525Y-99750500D01*
X149227528Y-99750500D01*
X149372472Y-99750500D01*
X149372475Y-99750500D01*
X149512485Y-99712984D01*
X149638015Y-99640509D01*
X149740509Y-99538015D01*
X149812984Y-99412485D01*
X149850500Y-99272475D01*
X149850500Y-99127525D01*
X149812984Y-98987515D01*
X149740516Y-98861997D01*
X149737686Y-98850334D01*
X149730723Y-98840555D01*
X149729601Y-98817010D01*
X149724044Y-98794101D01*
X149727887Y-98781010D01*
X149727400Y-98770765D01*
X149740518Y-98737999D01*
X149775433Y-98677525D01*
X158699500Y-98677525D01*
X158699500Y-98822475D01*
X158727649Y-98927527D01*
X158737017Y-98962488D01*
X158795048Y-99063000D01*
X158811521Y-99130900D01*
X158795048Y-99187000D01*
X158737017Y-99287511D01*
X158737016Y-99287515D01*
X158699500Y-99427525D01*
X158699500Y-99572475D01*
X158737016Y-99712485D01*
X158737017Y-99712488D01*
X158809488Y-99838011D01*
X158809490Y-99838013D01*
X158809491Y-99838015D01*
X158911985Y-99940509D01*
X158911986Y-99940510D01*
X158911988Y-99940511D01*
X159037511Y-100012982D01*
X159037512Y-100012982D01*
X159037515Y-100012984D01*
X159177525Y-100050500D01*
X159177528Y-100050500D01*
X159322472Y-100050500D01*
X159322475Y-100050500D01*
X159462485Y-100012984D01*
X159588015Y-99940509D01*
X159690509Y-99838015D01*
X159762984Y-99712485D01*
X159800500Y-99572475D01*
X159800500Y-99427525D01*
X159762984Y-99287515D01*
X159704950Y-99186997D01*
X159688478Y-99119101D01*
X159704951Y-99063000D01*
X159762984Y-98962485D01*
X159800500Y-98822475D01*
X159800500Y-98677525D01*
X159762984Y-98537515D01*
X159733828Y-98487016D01*
X159690511Y-98411988D01*
X159690506Y-98411982D01*
X159588017Y-98309493D01*
X159588011Y-98309488D01*
X159462488Y-98237017D01*
X159462489Y-98237017D01*
X159451006Y-98233940D01*
X159322475Y-98199500D01*
X159177525Y-98199500D01*
X159048993Y-98233940D01*
X159037511Y-98237017D01*
X158911988Y-98309488D01*
X158911982Y-98309493D01*
X158809493Y-98411982D01*
X158809488Y-98411988D01*
X158737017Y-98537511D01*
X158737016Y-98537515D01*
X158699500Y-98677525D01*
X149775433Y-98677525D01*
X149812980Y-98612492D01*
X149812982Y-98612489D01*
X149812983Y-98612486D01*
X149812984Y-98612485D01*
X149850500Y-98472475D01*
X149850500Y-98327525D01*
X149812984Y-98187515D01*
X149740509Y-98061985D01*
X149638015Y-97959491D01*
X149638013Y-97959490D01*
X149638011Y-97959488D01*
X149512488Y-97887017D01*
X149512489Y-97887017D01*
X149501006Y-97883940D01*
X149372475Y-97849500D01*
X149227525Y-97849500D01*
X149162565Y-97866906D01*
X149092715Y-97865243D01*
X149034853Y-97826080D01*
X149015907Y-97794574D01*
X149012984Y-97787518D01*
X149012984Y-97787515D01*
X148940509Y-97661985D01*
X148838015Y-97559491D01*
X148838013Y-97559490D01*
X148838011Y-97559488D01*
X148712488Y-97487017D01*
X148712489Y-97487017D01*
X148701006Y-97483940D01*
X148572475Y-97449500D01*
X148427525Y-97449500D01*
X148298993Y-97483940D01*
X148287511Y-97487017D01*
X148161988Y-97559488D01*
X148161982Y-97559493D01*
X148059493Y-97661982D01*
X148059491Y-97661985D01*
X147987024Y-97787501D01*
X147936457Y-97835716D01*
X147879637Y-97849500D01*
X147827525Y-97849500D01*
X147698993Y-97883940D01*
X147687511Y-97887017D01*
X147561988Y-97959488D01*
X147561982Y-97959493D01*
X147459493Y-98061982D01*
X147459488Y-98061988D01*
X147387017Y-98187511D01*
X147387016Y-98187515D01*
X147349500Y-98327525D01*
X147349500Y-98327527D01*
X147349500Y-98379637D01*
X147329815Y-98446676D01*
X147287501Y-98487024D01*
X147161985Y-98559491D01*
X147161982Y-98559493D01*
X147059493Y-98661982D01*
X147059488Y-98661988D01*
X146987017Y-98787511D01*
X146987016Y-98787515D01*
X146949500Y-98927525D01*
X140500500Y-98927525D01*
X140500500Y-86927525D01*
X142199500Y-86927525D01*
X142199500Y-87072475D01*
X142237016Y-87212485D01*
X142237017Y-87212488D01*
X142309488Y-87338011D01*
X142309490Y-87338013D01*
X142309491Y-87338015D01*
X142411985Y-87440509D01*
X142411986Y-87440510D01*
X142411988Y-87440511D01*
X142537511Y-87512982D01*
X142537512Y-87512982D01*
X142537515Y-87512984D01*
X142677525Y-87550500D01*
X142677528Y-87550500D01*
X142822472Y-87550500D01*
X142822475Y-87550500D01*
X142962485Y-87512984D01*
X143088015Y-87440509D01*
X143190509Y-87338015D01*
X143262984Y-87212485D01*
X143300500Y-87072475D01*
X143300500Y-86927525D01*
X143262984Y-86787515D01*
X143190509Y-86661985D01*
X143088015Y-86559491D01*
X143088013Y-86559490D01*
X143088011Y-86559488D01*
X142962488Y-86487017D01*
X142962489Y-86487017D01*
X142951006Y-86483940D01*
X142822475Y-86449500D01*
X142677525Y-86449500D01*
X142548993Y-86483940D01*
X142537511Y-86487017D01*
X142411988Y-86559488D01*
X142411982Y-86559493D01*
X142309493Y-86661982D01*
X142309488Y-86661988D01*
X142237017Y-86787511D01*
X142237016Y-86787515D01*
X142199500Y-86927525D01*
X140500500Y-86927525D01*
X140500500Y-84927525D01*
X150949500Y-84927525D01*
X150949500Y-85072475D01*
X150974090Y-85164244D01*
X150987017Y-85212488D01*
X151059488Y-85338011D01*
X151059490Y-85338013D01*
X151059491Y-85338015D01*
X151161985Y-85440509D01*
X151161986Y-85440510D01*
X151161988Y-85440511D01*
X151287511Y-85512982D01*
X151287512Y-85512982D01*
X151287515Y-85512984D01*
X151427525Y-85550500D01*
X151427528Y-85550500D01*
X151572472Y-85550500D01*
X151572475Y-85550500D01*
X151712485Y-85512984D01*
X151838015Y-85440509D01*
X151940509Y-85338015D01*
X151966653Y-85292731D01*
X152017048Y-85205447D01*
X152019791Y-85207031D01*
X152054254Y-85164244D01*
X152120543Y-85142162D01*
X152188247Y-85159424D01*
X152231758Y-85206136D01*
X152232952Y-85205447D01*
X152309488Y-85338011D01*
X152309490Y-85338013D01*
X152309491Y-85338015D01*
X152411985Y-85440509D01*
X152411986Y-85440510D01*
X152411988Y-85440511D01*
X152537511Y-85512982D01*
X152537512Y-85512982D01*
X152537515Y-85512984D01*
X152677525Y-85550500D01*
X152677528Y-85550500D01*
X152822472Y-85550500D01*
X152822475Y-85550500D01*
X152962485Y-85512984D01*
X153088015Y-85440509D01*
X153190509Y-85338015D01*
X153262984Y-85212485D01*
X153300500Y-85072475D01*
X153300500Y-84927525D01*
X153949500Y-84927525D01*
X153949500Y-85072475D01*
X153974090Y-85164244D01*
X153987017Y-85212488D01*
X154059488Y-85338011D01*
X154059490Y-85338013D01*
X154059491Y-85338015D01*
X154161985Y-85440509D01*
X154161986Y-85440510D01*
X154161988Y-85440511D01*
X154287511Y-85512982D01*
X154287512Y-85512982D01*
X154287515Y-85512984D01*
X154427525Y-85550500D01*
X154427528Y-85550500D01*
X154572472Y-85550500D01*
X154572475Y-85550500D01*
X154712485Y-85512984D01*
X154838015Y-85440509D01*
X154940509Y-85338015D01*
X155012984Y-85212485D01*
X155050500Y-85072475D01*
X155050500Y-84927525D01*
X155449500Y-84927525D01*
X155449500Y-85072475D01*
X155474090Y-85164244D01*
X155487017Y-85212488D01*
X155559488Y-85338011D01*
X155559490Y-85338013D01*
X155559491Y-85338015D01*
X155661985Y-85440509D01*
X155661986Y-85440510D01*
X155661988Y-85440511D01*
X155787511Y-85512982D01*
X155787512Y-85512982D01*
X155787515Y-85512984D01*
X155927525Y-85550500D01*
X155927528Y-85550500D01*
X156072472Y-85550500D01*
X156072475Y-85550500D01*
X156212485Y-85512984D01*
X156338015Y-85440509D01*
X156440509Y-85338015D01*
X156512984Y-85212485D01*
X156550500Y-85072475D01*
X156550500Y-84927525D01*
X156512984Y-84787515D01*
X156440509Y-84661985D01*
X156338015Y-84559491D01*
X156338013Y-84559490D01*
X156338011Y-84559488D01*
X156212488Y-84487017D01*
X156212489Y-84487017D01*
X156201006Y-84483940D01*
X156072475Y-84449500D01*
X155927525Y-84449500D01*
X155798993Y-84483940D01*
X155787511Y-84487017D01*
X155661988Y-84559488D01*
X155661982Y-84559493D01*
X155559493Y-84661982D01*
X155559488Y-84661988D01*
X155487017Y-84787511D01*
X155487016Y-84787515D01*
X155449500Y-84927525D01*
X155050500Y-84927525D01*
X155012984Y-84787515D01*
X154940509Y-84661985D01*
X154838015Y-84559491D01*
X154838013Y-84559490D01*
X154838011Y-84559488D01*
X154712488Y-84487017D01*
X154712489Y-84487017D01*
X154701006Y-84483940D01*
X154572475Y-84449500D01*
X154427525Y-84449500D01*
X154298993Y-84483940D01*
X154287511Y-84487017D01*
X154161988Y-84559488D01*
X154161982Y-84559493D01*
X154059493Y-84661982D01*
X154059488Y-84661988D01*
X153987017Y-84787511D01*
X153987016Y-84787515D01*
X153949500Y-84927525D01*
X153300500Y-84927525D01*
X153262984Y-84787515D01*
X153190509Y-84661985D01*
X153088015Y-84559491D01*
X153088013Y-84559490D01*
X153088011Y-84559488D01*
X152962488Y-84487017D01*
X152962489Y-84487017D01*
X152951006Y-84483940D01*
X152822475Y-84449500D01*
X152677525Y-84449500D01*
X152548993Y-84483940D01*
X152537511Y-84487017D01*
X152411988Y-84559488D01*
X152411982Y-84559493D01*
X152309493Y-84661982D01*
X152309488Y-84661988D01*
X152232952Y-84794553D01*
X152230212Y-84792971D01*
X152195719Y-84835774D01*
X152129425Y-84857838D01*
X152061726Y-84840558D01*
X152018248Y-84793859D01*
X152017048Y-84794553D01*
X151940511Y-84661988D01*
X151940506Y-84661982D01*
X151838017Y-84559493D01*
X151838011Y-84559488D01*
X151712488Y-84487017D01*
X151712489Y-84487017D01*
X151701006Y-84483940D01*
X151572475Y-84449500D01*
X151427525Y-84449500D01*
X151298993Y-84483940D01*
X151287511Y-84487017D01*
X151161988Y-84559488D01*
X151161982Y-84559493D01*
X151059493Y-84661982D01*
X151059488Y-84661988D01*
X150987017Y-84787511D01*
X150987016Y-84787515D01*
X150949500Y-84927525D01*
X140500500Y-84927525D01*
X140500500Y-74927525D01*
X153449500Y-74927525D01*
X153449500Y-75072475D01*
X153487016Y-75212485D01*
X153487017Y-75212488D01*
X153559488Y-75338011D01*
X153559490Y-75338013D01*
X153559491Y-75338015D01*
X153661985Y-75440509D01*
X153661986Y-75440510D01*
X153661988Y-75440511D01*
X153787511Y-75512982D01*
X153787512Y-75512982D01*
X153787515Y-75512984D01*
X153927525Y-75550500D01*
X153927528Y-75550500D01*
X154072472Y-75550500D01*
X154072475Y-75550500D01*
X154212485Y-75512984D01*
X154338015Y-75440509D01*
X154440509Y-75338015D01*
X154512984Y-75212485D01*
X154550500Y-75072475D01*
X154550500Y-74927525D01*
X154512984Y-74787515D01*
X154440509Y-74661985D01*
X154338015Y-74559491D01*
X154338013Y-74559490D01*
X154338011Y-74559488D01*
X154212488Y-74487017D01*
X154212489Y-74487017D01*
X154201006Y-74483940D01*
X154072475Y-74449500D01*
X153927525Y-74449500D01*
X153798993Y-74483940D01*
X153787511Y-74487017D01*
X153661988Y-74559488D01*
X153661982Y-74559493D01*
X153559493Y-74661982D01*
X153559488Y-74661988D01*
X153487017Y-74787511D01*
X153487016Y-74787515D01*
X153449500Y-74927525D01*
X140500500Y-74927525D01*
X140500500Y-67674448D01*
X141849500Y-67674448D01*
X141849500Y-67855551D01*
X141877829Y-68034410D01*
X141933787Y-68206636D01*
X141933788Y-68206639D01*
X141957945Y-68254048D01*
X142009611Y-68355448D01*
X142016006Y-68367997D01*
X142122441Y-68514494D01*
X142122445Y-68514499D01*
X142250500Y-68642554D01*
X142250505Y-68642558D01*
X142349862Y-68714744D01*
X142397006Y-68748996D01*
X142476415Y-68789457D01*
X142558360Y-68831211D01*
X142558363Y-68831212D01*
X142644476Y-68859191D01*
X142730591Y-68887171D01*
X142813429Y-68900291D01*
X142909449Y-68915500D01*
X142909454Y-68915500D01*
X143090551Y-68915500D01*
X143177259Y-68901765D01*
X143269409Y-68887171D01*
X143441639Y-68831211D01*
X143602994Y-68748996D01*
X143749501Y-68642553D01*
X143877553Y-68514501D01*
X143983323Y-68368920D01*
X145424499Y-68368920D01*
X145453340Y-68513907D01*
X145453343Y-68513917D01*
X145509912Y-68650488D01*
X145509919Y-68650501D01*
X145592048Y-68773415D01*
X145592051Y-68773419D01*
X145696580Y-68877948D01*
X145696584Y-68877951D01*
X145819498Y-68960080D01*
X145819511Y-68960087D01*
X145956082Y-69016656D01*
X145956087Y-69016658D01*
X145956091Y-69016658D01*
X145956092Y-69016659D01*
X146101079Y-69045500D01*
X146101082Y-69045500D01*
X146248920Y-69045500D01*
X146374548Y-69020510D01*
X146393913Y-69016658D01*
X146530495Y-68960084D01*
X146653416Y-68877951D01*
X146757951Y-68773416D01*
X146794490Y-68718730D01*
X146848101Y-68673927D01*
X146917426Y-68665219D01*
X146953368Y-68682414D01*
X147001211Y-68695234D01*
X147171446Y-68525000D01*
X146961818Y-68315371D01*
X146928334Y-68254048D01*
X146925500Y-68227690D01*
X146925500Y-67472308D01*
X146945185Y-67405269D01*
X146961819Y-67384627D01*
X147171446Y-67175000D01*
X147131664Y-67135218D01*
X147325000Y-67135218D01*
X147325000Y-67214782D01*
X147355448Y-67288291D01*
X147411709Y-67344552D01*
X147485218Y-67375000D01*
X147564782Y-67375000D01*
X147638291Y-67344552D01*
X147646821Y-67336021D01*
X147642596Y-67395110D01*
X147614095Y-67439457D01*
X147354764Y-67698786D01*
X147452593Y-67725000D01*
X147597406Y-67725000D01*
X147737293Y-67687517D01*
X147737294Y-67687516D01*
X147800883Y-67650804D01*
X147806784Y-67649372D01*
X147811372Y-67645397D01*
X147840336Y-67641232D01*
X147868783Y-67634331D01*
X147874521Y-67636317D01*
X147880530Y-67635453D01*
X147907154Y-67647612D01*
X147934810Y-67657184D01*
X147938562Y-67661955D01*
X147944086Y-67664478D01*
X147950564Y-67670510D01*
X147960327Y-67680273D01*
X147960331Y-67680276D01*
X148060037Y-67746898D01*
X148104842Y-67800510D01*
X148113549Y-67869835D01*
X148083394Y-67932863D01*
X148060037Y-67953102D01*
X147960334Y-68019721D01*
X147960326Y-68019727D01*
X147950558Y-68029495D01*
X147931125Y-68040104D01*
X147914394Y-68054602D01*
X147901058Y-68056519D01*
X147889232Y-68062976D01*
X147867149Y-68061395D01*
X147845236Y-68064546D01*
X147832980Y-68058949D01*
X147819541Y-68057987D01*
X147800884Y-68049196D01*
X147737292Y-68012482D01*
X147737293Y-68012482D01*
X147597406Y-67975000D01*
X147452591Y-67975000D01*
X147354765Y-68001212D01*
X147614095Y-68260542D01*
X147647580Y-68321865D01*
X147644718Y-68361875D01*
X147638291Y-68355448D01*
X147564782Y-68325000D01*
X147485218Y-68325000D01*
X147411709Y-68355448D01*
X147355448Y-68411709D01*
X147325000Y-68485218D01*
X147325000Y-68564782D01*
X147355448Y-68638291D01*
X147411709Y-68694552D01*
X147485218Y-68725000D01*
X147564782Y-68725000D01*
X147638291Y-68694552D01*
X147646821Y-68686021D01*
X147642596Y-68745110D01*
X147614095Y-68789457D01*
X147354764Y-69048786D01*
X147452593Y-69075000D01*
X147597406Y-69075000D01*
X147737293Y-69037517D01*
X147737294Y-69037516D01*
X147800883Y-69000804D01*
X147868783Y-68984331D01*
X147934810Y-69007184D01*
X147950564Y-69020510D01*
X147960327Y-69030273D01*
X147960331Y-69030276D01*
X148066866Y-69101461D01*
X148066875Y-69101466D01*
X148076262Y-69105354D01*
X148185256Y-69150501D01*
X148185260Y-69150501D01*
X148185261Y-69150502D01*
X148310928Y-69175500D01*
X148310931Y-69175500D01*
X148439071Y-69175500D01*
X148523615Y-69158682D01*
X148564744Y-69150501D01*
X148683127Y-69101465D01*
X148722735Y-69075000D01*
X148731109Y-69069405D01*
X148797787Y-69048527D01*
X148865167Y-69067011D01*
X148868891Y-69069405D01*
X148916866Y-69101461D01*
X148916875Y-69101466D01*
X148926262Y-69105354D01*
X149035256Y-69150501D01*
X149035260Y-69150501D01*
X149035261Y-69150502D01*
X149160928Y-69175500D01*
X149160931Y-69175500D01*
X149289071Y-69175500D01*
X149373615Y-69158682D01*
X149414744Y-69150501D01*
X149533127Y-69101465D01*
X149572735Y-69075000D01*
X149581109Y-69069405D01*
X149647787Y-69048527D01*
X149715167Y-69067011D01*
X149718891Y-69069405D01*
X149766866Y-69101461D01*
X149766875Y-69101466D01*
X149776262Y-69105354D01*
X149885256Y-69150501D01*
X149885260Y-69150501D01*
X149885261Y-69150502D01*
X149961306Y-69165629D01*
X150023217Y-69198014D01*
X150057791Y-69258730D01*
X150054051Y-69328499D01*
X150051676Y-69334697D01*
X150026420Y-69395672D01*
X150026418Y-69395677D01*
X149999500Y-69531004D01*
X149999500Y-69531007D01*
X149999500Y-69668993D01*
X149999500Y-69668995D01*
X149999499Y-69668995D01*
X150026418Y-69804322D01*
X150026421Y-69804332D01*
X150079221Y-69931804D01*
X150079228Y-69931817D01*
X150155885Y-70046541D01*
X150155888Y-70046545D01*
X150253454Y-70144111D01*
X150253458Y-70144114D01*
X150368182Y-70220771D01*
X150368195Y-70220778D01*
X150495667Y-70273578D01*
X150495672Y-70273580D01*
X150495676Y-70273580D01*
X150495677Y-70273581D01*
X150631004Y-70300500D01*
X150631007Y-70300500D01*
X150768995Y-70300500D01*
X150860041Y-70282389D01*
X150904328Y-70273580D01*
X151031811Y-70220775D01*
X151146542Y-70144114D01*
X151244114Y-70046542D01*
X151320775Y-69931811D01*
X151373580Y-69804328D01*
X151400500Y-69668993D01*
X151400500Y-69531007D01*
X151400500Y-69531004D01*
X151373581Y-69395677D01*
X151373580Y-69395676D01*
X151373580Y-69395672D01*
X151321715Y-69270460D01*
X151314247Y-69200991D01*
X151345522Y-69138512D01*
X151405611Y-69102860D01*
X151475436Y-69105354D01*
X151483719Y-69108443D01*
X151585256Y-69150501D01*
X151585260Y-69150501D01*
X151585261Y-69150502D01*
X151710928Y-69175500D01*
X151710931Y-69175500D01*
X151839071Y-69175500D01*
X151923615Y-69158682D01*
X151964744Y-69150501D01*
X152083127Y-69101465D01*
X152122735Y-69075000D01*
X152131109Y-69069405D01*
X152197787Y-69048527D01*
X152265167Y-69067011D01*
X152268891Y-69069405D01*
X152316866Y-69101461D01*
X152316875Y-69101466D01*
X152326262Y-69105354D01*
X152435256Y-69150501D01*
X152435260Y-69150501D01*
X152435261Y-69150502D01*
X152560928Y-69175500D01*
X152560931Y-69175500D01*
X152689071Y-69175500D01*
X152773615Y-69158682D01*
X152814744Y-69150501D01*
X152933127Y-69101465D01*
X153039669Y-69030276D01*
X153049434Y-69020510D01*
X153110754Y-68987025D01*
X153180445Y-68992007D01*
X153199116Y-69000803D01*
X153262705Y-69037516D01*
X153262706Y-69037517D01*
X153402594Y-69075000D01*
X153547407Y-69075000D01*
X153645234Y-69048786D01*
X153385904Y-68789457D01*
X153352419Y-68728134D01*
X153355280Y-68688123D01*
X153361709Y-68694552D01*
X153435218Y-68725000D01*
X153514782Y-68725000D01*
X153588291Y-68694552D01*
X153644552Y-68638291D01*
X153675000Y-68564782D01*
X153675000Y-68485218D01*
X153644552Y-68411709D01*
X153588291Y-68355448D01*
X153514782Y-68325000D01*
X153435218Y-68325000D01*
X153361709Y-68355448D01*
X153353177Y-68363979D01*
X153357403Y-68304889D01*
X153385904Y-68260542D01*
X153645234Y-68001211D01*
X153547408Y-67975000D01*
X153402594Y-67975000D01*
X153262706Y-68012482D01*
X153262703Y-68012484D01*
X153199114Y-68049196D01*
X153193214Y-68050627D01*
X153188627Y-68054602D01*
X153159654Y-68058767D01*
X153131213Y-68065667D01*
X153125477Y-68063681D01*
X153119469Y-68064546D01*
X153092842Y-68052386D01*
X153065187Y-68042814D01*
X153061434Y-68038042D01*
X153055913Y-68035521D01*
X153049435Y-68029489D01*
X153039672Y-68019726D01*
X153039664Y-68019720D01*
X152939963Y-67953102D01*
X152895157Y-67899490D01*
X152886450Y-67830165D01*
X152916604Y-67767138D01*
X152939963Y-67746898D01*
X153028832Y-67687517D01*
X153039669Y-67680276D01*
X153049434Y-67670510D01*
X153068869Y-67659897D01*
X153085605Y-67645396D01*
X153098934Y-67643479D01*
X153110754Y-67637025D01*
X153132841Y-67638603D01*
X153154763Y-67635452D01*
X153167014Y-67641046D01*
X153180445Y-67642007D01*
X153199116Y-67650803D01*
X153262705Y-67687516D01*
X153262706Y-67687517D01*
X153402594Y-67725000D01*
X153547407Y-67725000D01*
X153645234Y-67698786D01*
X153385904Y-67439457D01*
X153352419Y-67378134D01*
X153355280Y-67338123D01*
X153361709Y-67344552D01*
X153435218Y-67375000D01*
X153514782Y-67375000D01*
X153588291Y-67344552D01*
X153644552Y-67288291D01*
X153675000Y-67214782D01*
X153675000Y-67175000D01*
X153828553Y-67175000D01*
X153828553Y-67175001D01*
X154038181Y-67384629D01*
X154071666Y-67445952D01*
X154074500Y-67472310D01*
X154074500Y-68227689D01*
X154054815Y-68294728D01*
X154038182Y-68315370D01*
X153828553Y-68525000D01*
X153828553Y-68525001D01*
X153998786Y-68695234D01*
X154046756Y-68682380D01*
X154081843Y-68665337D01*
X154151218Y-68673632D01*
X154205096Y-68718117D01*
X154205508Y-68718729D01*
X154242048Y-68773415D01*
X154242051Y-68773419D01*
X154346580Y-68877948D01*
X154346584Y-68877951D01*
X154469498Y-68960080D01*
X154469511Y-68960087D01*
X154606082Y-69016656D01*
X154606087Y-69016658D01*
X154606091Y-69016658D01*
X154606092Y-69016659D01*
X154751079Y-69045500D01*
X154751082Y-69045500D01*
X154898920Y-69045500D01*
X155024548Y-69020510D01*
X155043913Y-69016658D01*
X155180495Y-68960084D01*
X155303416Y-68877951D01*
X155407951Y-68773416D01*
X155490084Y-68650495D01*
X155546658Y-68513913D01*
X155575500Y-68368918D01*
X155575500Y-66721082D01*
X155575500Y-66721079D01*
X155546659Y-66576092D01*
X155546658Y-66576091D01*
X155546658Y-66576087D01*
X155525290Y-66524500D01*
X155490087Y-66439511D01*
X155490080Y-66439498D01*
X155407951Y-66316584D01*
X155407948Y-66316580D01*
X155303419Y-66212051D01*
X155303415Y-66212048D01*
X155180501Y-66129919D01*
X155180488Y-66129912D01*
X155043917Y-66073343D01*
X155043907Y-66073340D01*
X154898920Y-66044500D01*
X154898918Y-66044500D01*
X154751082Y-66044500D01*
X154751080Y-66044500D01*
X154606092Y-66073340D01*
X154606082Y-66073343D01*
X154469511Y-66129912D01*
X154469498Y-66129919D01*
X154346584Y-66212048D01*
X154346580Y-66212051D01*
X154242051Y-66316580D01*
X154242048Y-66316584D01*
X154159919Y-66439498D01*
X154159912Y-66439511D01*
X154103343Y-66576082D01*
X154103340Y-66576092D01*
X154074500Y-66721079D01*
X154074500Y-66877689D01*
X154054815Y-66944728D01*
X154038182Y-66965370D01*
X153828553Y-67175000D01*
X153675000Y-67175000D01*
X153675000Y-67135218D01*
X153644552Y-67061709D01*
X153588291Y-67005448D01*
X153514782Y-66975000D01*
X153435218Y-66975000D01*
X153361709Y-67005448D01*
X153353177Y-67013979D01*
X153357403Y-66954889D01*
X153385904Y-66910542D01*
X153645234Y-66651211D01*
X153547408Y-66625000D01*
X153402594Y-66625000D01*
X153262706Y-66662482D01*
X153262703Y-66662484D01*
X153199114Y-66699196D01*
X153131213Y-66715667D01*
X153065187Y-66692814D01*
X153049435Y-66679489D01*
X153039672Y-66669726D01*
X153039668Y-66669723D01*
X152933133Y-66598538D01*
X152933124Y-66598533D01*
X152814744Y-66549499D01*
X152814738Y-66549497D01*
X152689071Y-66524500D01*
X152689069Y-66524500D01*
X152560931Y-66524500D01*
X152560929Y-66524500D01*
X152435261Y-66549497D01*
X152435255Y-66549499D01*
X152316875Y-66598533D01*
X152316868Y-66598537D01*
X152268890Y-66630595D01*
X152202212Y-66651472D01*
X152134832Y-66632987D01*
X152131110Y-66630595D01*
X152083131Y-66598537D01*
X152083124Y-66598533D01*
X151964744Y-66549499D01*
X151964738Y-66549497D01*
X151839071Y-66524500D01*
X151839069Y-66524500D01*
X151710931Y-66524500D01*
X151710929Y-66524500D01*
X151585261Y-66549497D01*
X151585255Y-66549499D01*
X151466875Y-66598533D01*
X151466868Y-66598537D01*
X151418890Y-66630595D01*
X151352212Y-66651472D01*
X151284832Y-66632987D01*
X151281110Y-66630595D01*
X151233131Y-66598537D01*
X151233124Y-66598533D01*
X151114744Y-66549499D01*
X151114738Y-66549497D01*
X150989071Y-66524500D01*
X150989069Y-66524500D01*
X150860931Y-66524500D01*
X150860929Y-66524500D01*
X150735261Y-66549497D01*
X150735255Y-66549499D01*
X150616875Y-66598533D01*
X150616868Y-66598537D01*
X150568890Y-66630595D01*
X150502212Y-66651472D01*
X150434832Y-66632987D01*
X150431110Y-66630595D01*
X150383131Y-66598537D01*
X150383124Y-66598533D01*
X150264744Y-66549499D01*
X150264738Y-66549497D01*
X150139071Y-66524500D01*
X150139069Y-66524500D01*
X150010931Y-66524500D01*
X150010929Y-66524500D01*
X149885261Y-66549497D01*
X149885255Y-66549499D01*
X149766875Y-66598533D01*
X149766868Y-66598537D01*
X149718890Y-66630595D01*
X149652212Y-66651472D01*
X149584832Y-66632987D01*
X149581110Y-66630595D01*
X149533131Y-66598537D01*
X149533124Y-66598533D01*
X149414744Y-66549499D01*
X149414738Y-66549497D01*
X149289071Y-66524500D01*
X149289069Y-66524500D01*
X149160931Y-66524500D01*
X149160929Y-66524500D01*
X149035261Y-66549497D01*
X149035255Y-66549499D01*
X148916875Y-66598533D01*
X148916868Y-66598537D01*
X148868890Y-66630595D01*
X148802212Y-66651472D01*
X148734832Y-66632987D01*
X148731110Y-66630595D01*
X148683131Y-66598537D01*
X148683124Y-66598533D01*
X148564744Y-66549499D01*
X148564738Y-66549497D01*
X148439071Y-66524500D01*
X148439069Y-66524500D01*
X148310931Y-66524500D01*
X148310929Y-66524500D01*
X148185261Y-66549497D01*
X148185255Y-66549499D01*
X148066875Y-66598533D01*
X148066866Y-66598538D01*
X147960334Y-66669721D01*
X147960326Y-66669727D01*
X147950558Y-66679495D01*
X147889232Y-66712976D01*
X147819541Y-66707987D01*
X147800884Y-66699196D01*
X147737292Y-66662482D01*
X147737293Y-66662482D01*
X147597406Y-66625000D01*
X147452591Y-66625000D01*
X147354765Y-66651212D01*
X147614095Y-66910542D01*
X147647580Y-66971865D01*
X147644718Y-67011875D01*
X147638291Y-67005448D01*
X147564782Y-66975000D01*
X147485218Y-66975000D01*
X147411709Y-67005448D01*
X147355448Y-67061709D01*
X147325000Y-67135218D01*
X147131664Y-67135218D01*
X146961818Y-66965371D01*
X146947728Y-66939566D01*
X146931306Y-66915189D01*
X146930074Y-66907235D01*
X146928334Y-66904048D01*
X146925529Y-66880371D01*
X146925500Y-66879030D01*
X146925500Y-66721082D01*
X146896658Y-66576087D01*
X146875290Y-66524500D01*
X146840087Y-66439511D01*
X146840080Y-66439498D01*
X146757951Y-66316584D01*
X146757948Y-66316580D01*
X146653419Y-66212051D01*
X146653415Y-66212048D01*
X146530501Y-66129919D01*
X146530488Y-66129912D01*
X146393917Y-66073343D01*
X146393907Y-66073340D01*
X146248920Y-66044500D01*
X146248918Y-66044500D01*
X146101082Y-66044500D01*
X146101080Y-66044500D01*
X145956092Y-66073340D01*
X145956082Y-66073343D01*
X145819511Y-66129912D01*
X145819498Y-66129919D01*
X145696584Y-66212048D01*
X145696580Y-66212051D01*
X145592051Y-66316580D01*
X145592048Y-66316584D01*
X145509919Y-66439498D01*
X145509912Y-66439511D01*
X145453343Y-66576082D01*
X145453340Y-66576092D01*
X145424500Y-66721079D01*
X145424500Y-66721082D01*
X145424500Y-68368918D01*
X145424500Y-68368920D01*
X145424499Y-68368920D01*
X143983323Y-68368920D01*
X143983996Y-68367994D01*
X144066211Y-68206639D01*
X144122171Y-68034409D01*
X144143540Y-67899490D01*
X144150500Y-67855551D01*
X144150500Y-67674448D01*
X144134019Y-67570397D01*
X144122171Y-67495591D01*
X144079657Y-67364744D01*
X144066212Y-67323363D01*
X144066211Y-67323360D01*
X144023262Y-67239069D01*
X143983996Y-67162006D01*
X143970396Y-67143287D01*
X143877558Y-67015505D01*
X143877554Y-67015500D01*
X143749499Y-66887445D01*
X143749494Y-66887441D01*
X143650234Y-66815324D01*
X143650211Y-66815309D01*
X143602993Y-66781003D01*
X143441639Y-66698788D01*
X143441636Y-66698787D01*
X143269410Y-66642829D01*
X143090551Y-66614500D01*
X143090546Y-66614500D01*
X142909454Y-66614500D01*
X142909449Y-66614500D01*
X142730589Y-66642829D01*
X142558363Y-66698787D01*
X142558360Y-66698788D01*
X142397002Y-66781006D01*
X142250505Y-66887441D01*
X142250500Y-66887445D01*
X142122445Y-67015500D01*
X142122441Y-67015505D01*
X142016006Y-67162002D01*
X141933788Y-67323360D01*
X141933787Y-67323363D01*
X141877829Y-67495589D01*
X141849500Y-67674448D01*
X140500500Y-67674448D01*
X140500500Y-64355297D01*
X141950000Y-64355297D01*
X141950000Y-64975000D01*
X142566988Y-64975000D01*
X142534075Y-65032007D01*
X142500000Y-65159174D01*
X142500000Y-65290826D01*
X142534075Y-65417993D01*
X142566988Y-65475000D01*
X141950000Y-65475000D01*
X141950000Y-66094702D01*
X141961602Y-66153033D01*
X141961603Y-66153034D01*
X142005808Y-66219191D01*
X142071965Y-66263396D01*
X142071966Y-66263397D01*
X142130297Y-66274999D01*
X142130301Y-66275000D01*
X142750000Y-66275000D01*
X142750000Y-65658012D01*
X142807007Y-65690925D01*
X142934174Y-65725000D01*
X143065826Y-65725000D01*
X143192993Y-65690925D01*
X143250000Y-65658012D01*
X143250000Y-66275000D01*
X143869699Y-66275000D01*
X143869702Y-66274999D01*
X143928033Y-66263397D01*
X143928034Y-66263396D01*
X143994191Y-66219191D01*
X144038396Y-66153034D01*
X144038397Y-66153033D01*
X144049999Y-66094702D01*
X144050000Y-66094699D01*
X144050000Y-65475000D01*
X143433012Y-65475000D01*
X143465925Y-65417993D01*
X143500000Y-65290826D01*
X143500000Y-65159174D01*
X143465925Y-65032007D01*
X143433012Y-64975000D01*
X144050000Y-64975000D01*
X144050000Y-64638920D01*
X145424499Y-64638920D01*
X145453340Y-64783907D01*
X145453343Y-64783917D01*
X145509912Y-64920488D01*
X145509919Y-64920501D01*
X145592048Y-65043415D01*
X145592051Y-65043419D01*
X145696580Y-65147948D01*
X145696584Y-65147951D01*
X145819498Y-65230080D01*
X145819511Y-65230087D01*
X145866268Y-65249454D01*
X145956087Y-65286658D01*
X145956091Y-65286658D01*
X145956092Y-65286659D01*
X146101079Y-65315500D01*
X146101082Y-65315500D01*
X146248920Y-65315500D01*
X146346462Y-65296096D01*
X146393913Y-65286658D01*
X146530495Y-65230084D01*
X146653416Y-65147951D01*
X146757951Y-65043416D01*
X146840084Y-64920495D01*
X146896658Y-64783913D01*
X146925500Y-64638920D01*
X154074499Y-64638920D01*
X154103340Y-64783907D01*
X154103343Y-64783917D01*
X154159912Y-64920488D01*
X154159919Y-64920501D01*
X154242048Y-65043415D01*
X154242051Y-65043419D01*
X154346580Y-65147948D01*
X154346584Y-65147951D01*
X154469498Y-65230080D01*
X154469511Y-65230087D01*
X154516268Y-65249454D01*
X154606087Y-65286658D01*
X154606091Y-65286658D01*
X154606092Y-65286659D01*
X154751079Y-65315500D01*
X154751082Y-65315500D01*
X154898920Y-65315500D01*
X154996462Y-65296096D01*
X155043913Y-65286658D01*
X155133746Y-65249448D01*
X156749500Y-65249448D01*
X156749500Y-65430551D01*
X156777829Y-65609410D01*
X156833787Y-65781636D01*
X156833788Y-65781639D01*
X156916006Y-65942997D01*
X157022441Y-66089494D01*
X157022445Y-66089499D01*
X157150500Y-66217554D01*
X157150505Y-66217558D01*
X157213598Y-66263397D01*
X157297006Y-66323996D01*
X157402484Y-66377740D01*
X157458360Y-66406211D01*
X157458363Y-66406212D01*
X157544476Y-66434191D01*
X157630591Y-66462171D01*
X157703639Y-66473740D01*
X157790678Y-66487527D01*
X157853813Y-66517456D01*
X157890744Y-66576768D01*
X157889746Y-66646631D01*
X157851136Y-66704863D01*
X157790678Y-66732473D01*
X157630589Y-66757829D01*
X157458363Y-66813787D01*
X157458360Y-66813788D01*
X157297002Y-66896006D01*
X157150505Y-67002441D01*
X157150500Y-67002445D01*
X157022445Y-67130500D01*
X157022441Y-67130505D01*
X156916006Y-67277002D01*
X156833788Y-67438360D01*
X156833787Y-67438363D01*
X156777829Y-67610589D01*
X156749500Y-67789448D01*
X156749500Y-67970551D01*
X156777829Y-68149410D01*
X156833787Y-68321636D01*
X156833788Y-68321639D01*
X156860764Y-68374581D01*
X156904762Y-68460931D01*
X156916006Y-68482997D01*
X157022441Y-68629494D01*
X157022445Y-68629499D01*
X157150500Y-68757554D01*
X157150505Y-68757558D01*
X157194411Y-68789457D01*
X157297006Y-68863996D01*
X157398088Y-68915500D01*
X157458360Y-68946211D01*
X157458363Y-68946212D01*
X157544476Y-68974191D01*
X157630591Y-69002171D01*
X157713429Y-69015291D01*
X157809449Y-69030500D01*
X157809454Y-69030500D01*
X157990551Y-69030500D01*
X158077954Y-69016656D01*
X158169409Y-69002171D01*
X158341639Y-68946211D01*
X158502994Y-68863996D01*
X158649501Y-68757553D01*
X158777553Y-68629501D01*
X158883996Y-68482994D01*
X158966211Y-68321639D01*
X159022171Y-68149409D01*
X159037538Y-68052386D01*
X159050500Y-67970551D01*
X159050500Y-67789448D01*
X159032285Y-67674448D01*
X159022171Y-67610591D01*
X158977241Y-67472308D01*
X158966212Y-67438363D01*
X158966211Y-67438360D01*
X158928701Y-67364744D01*
X158883996Y-67277006D01*
X158838788Y-67214782D01*
X158777558Y-67130505D01*
X158777554Y-67130500D01*
X158649499Y-67002445D01*
X158649494Y-67002441D01*
X158502997Y-66896006D01*
X158502996Y-66896005D01*
X158502994Y-66896004D01*
X158445822Y-66866873D01*
X158341639Y-66813788D01*
X158341636Y-66813787D01*
X158169410Y-66757829D01*
X158009321Y-66732473D01*
X157946186Y-66702544D01*
X157909255Y-66643232D01*
X157910253Y-66573370D01*
X157948863Y-66515137D01*
X158009321Y-66487527D01*
X158079425Y-66476422D01*
X158169409Y-66462171D01*
X158341639Y-66406211D01*
X158502994Y-66323996D01*
X158649501Y-66217553D01*
X158777553Y-66089501D01*
X158883996Y-65942994D01*
X158966211Y-65781639D01*
X159022171Y-65609409D01*
X159036765Y-65517259D01*
X159050500Y-65430551D01*
X159050500Y-65249448D01*
X159034019Y-65145397D01*
X159022171Y-65070591D01*
X158973403Y-64920495D01*
X158966212Y-64898363D01*
X158966211Y-64898360D01*
X158907893Y-64783907D01*
X158883996Y-64737006D01*
X158812733Y-64638920D01*
X158777558Y-64590505D01*
X158777554Y-64590500D01*
X158649499Y-64462445D01*
X158649494Y-64462441D01*
X158502997Y-64356006D01*
X158502996Y-64356005D01*
X158502994Y-64356004D01*
X158451300Y-64329664D01*
X158341639Y-64273788D01*
X158341636Y-64273787D01*
X158169410Y-64217829D01*
X157990551Y-64189500D01*
X157990546Y-64189500D01*
X157809454Y-64189500D01*
X157809449Y-64189500D01*
X157630589Y-64217829D01*
X157458363Y-64273787D01*
X157458360Y-64273788D01*
X157297002Y-64356006D01*
X157150505Y-64462441D01*
X157150500Y-64462445D01*
X157022445Y-64590500D01*
X157022441Y-64590505D01*
X156916006Y-64737002D01*
X156833788Y-64898360D01*
X156833787Y-64898363D01*
X156777829Y-65070589D01*
X156749500Y-65249448D01*
X155133746Y-65249448D01*
X155180495Y-65230084D01*
X155303416Y-65147951D01*
X155407951Y-65043416D01*
X155490084Y-64920495D01*
X155546658Y-64783913D01*
X155575500Y-64638918D01*
X155575500Y-63691082D01*
X155575500Y-63691079D01*
X155546659Y-63546092D01*
X155546658Y-63546091D01*
X155546658Y-63546087D01*
X155546656Y-63546082D01*
X155490087Y-63409511D01*
X155490080Y-63409498D01*
X155407951Y-63286584D01*
X155407948Y-63286580D01*
X155303419Y-63182051D01*
X155303415Y-63182048D01*
X155183226Y-63101740D01*
X155180499Y-63099918D01*
X155180488Y-63099912D01*
X155043917Y-63043343D01*
X155043907Y-63043340D01*
X154898920Y-63014500D01*
X154898918Y-63014500D01*
X154751082Y-63014500D01*
X154751080Y-63014500D01*
X154606092Y-63043340D01*
X154606082Y-63043343D01*
X154469511Y-63099912D01*
X154469498Y-63099919D01*
X154346584Y-63182048D01*
X154346580Y-63182051D01*
X154242051Y-63286580D01*
X154242048Y-63286584D01*
X154159919Y-63409498D01*
X154159912Y-63409511D01*
X154103343Y-63546082D01*
X154103340Y-63546092D01*
X154074500Y-63691079D01*
X154074500Y-63691082D01*
X154074500Y-64638918D01*
X154074500Y-64638920D01*
X154074499Y-64638920D01*
X146925500Y-64638920D01*
X146925500Y-64638918D01*
X146925500Y-63691082D01*
X146925500Y-63691079D01*
X146896659Y-63546092D01*
X146896658Y-63546091D01*
X146896658Y-63546087D01*
X146896656Y-63546082D01*
X146840087Y-63409511D01*
X146840080Y-63409498D01*
X146757951Y-63286584D01*
X146757948Y-63286580D01*
X146653419Y-63182051D01*
X146653415Y-63182048D01*
X146530501Y-63099919D01*
X146530488Y-63099912D01*
X146393917Y-63043343D01*
X146393907Y-63043340D01*
X146248920Y-63014500D01*
X146248918Y-63014500D01*
X146101082Y-63014500D01*
X146101080Y-63014500D01*
X145956092Y-63043340D01*
X145956082Y-63043343D01*
X145819511Y-63099912D01*
X145819498Y-63099919D01*
X145696584Y-63182048D01*
X145696580Y-63182051D01*
X145592051Y-63286580D01*
X145592048Y-63286584D01*
X145509919Y-63409498D01*
X145509912Y-63409511D01*
X145453343Y-63546082D01*
X145453340Y-63546092D01*
X145424500Y-63691079D01*
X145424500Y-63691082D01*
X145424500Y-64638918D01*
X145424500Y-64638920D01*
X145424499Y-64638920D01*
X144050000Y-64638920D01*
X144050000Y-64355301D01*
X144049999Y-64355297D01*
X144038397Y-64296966D01*
X144038396Y-64296965D01*
X143994191Y-64230808D01*
X143928034Y-64186603D01*
X143928033Y-64186602D01*
X143869702Y-64175000D01*
X143250000Y-64175000D01*
X143250000Y-64791988D01*
X143192993Y-64759075D01*
X143065826Y-64725000D01*
X142934174Y-64725000D01*
X142807007Y-64759075D01*
X142750000Y-64791988D01*
X142750000Y-64175000D01*
X142130297Y-64175000D01*
X142071966Y-64186602D01*
X142071965Y-64186603D01*
X142005808Y-64230808D01*
X141961603Y-64296965D01*
X141961602Y-64296966D01*
X141950000Y-64355297D01*
X140500500Y-64355297D01*
X140500500Y-62004066D01*
X140500765Y-61995956D01*
X140505068Y-61930301D01*
X140505068Y-61930297D01*
X156850000Y-61930297D01*
X156850000Y-62550000D01*
X157466988Y-62550000D01*
X157434075Y-62607007D01*
X157400000Y-62734174D01*
X157400000Y-62865826D01*
X157434075Y-62992993D01*
X157466988Y-63050000D01*
X156850000Y-63050000D01*
X156850000Y-63669702D01*
X156861602Y-63728033D01*
X156861603Y-63728034D01*
X156905808Y-63794191D01*
X156971965Y-63838396D01*
X156971966Y-63838397D01*
X157030297Y-63849999D01*
X157030301Y-63850000D01*
X157650000Y-63850000D01*
X157650000Y-63233012D01*
X157707007Y-63265925D01*
X157834174Y-63300000D01*
X157965826Y-63300000D01*
X158092993Y-63265925D01*
X158150000Y-63233012D01*
X158150000Y-63850000D01*
X158769699Y-63850000D01*
X158769702Y-63849999D01*
X158828033Y-63838397D01*
X158828034Y-63838396D01*
X158894191Y-63794191D01*
X158938396Y-63728034D01*
X158938397Y-63728033D01*
X158949999Y-63669702D01*
X158950000Y-63669699D01*
X158950000Y-63050000D01*
X158333012Y-63050000D01*
X158365925Y-62992993D01*
X158400000Y-62865826D01*
X158400000Y-62734174D01*
X158365925Y-62607007D01*
X158333012Y-62550000D01*
X158950000Y-62550000D01*
X158950000Y-61930301D01*
X158949999Y-61930297D01*
X158938397Y-61871966D01*
X158938396Y-61871965D01*
X158894191Y-61805808D01*
X158828034Y-61761603D01*
X158828033Y-61761602D01*
X158769702Y-61750000D01*
X158150000Y-61750000D01*
X158150000Y-62366988D01*
X158092993Y-62334075D01*
X157965826Y-62300000D01*
X157834174Y-62300000D01*
X157707007Y-62334075D01*
X157650000Y-62366988D01*
X157650000Y-61750000D01*
X157030297Y-61750000D01*
X156971966Y-61761602D01*
X156971965Y-61761603D01*
X156905808Y-61805808D01*
X156861603Y-61871965D01*
X156861602Y-61871966D01*
X156850000Y-61930297D01*
X140505068Y-61930297D01*
X140517075Y-61747104D01*
X140519190Y-61731048D01*
X140567047Y-61490451D01*
X140571240Y-61474804D01*
X140650091Y-61242515D01*
X140656291Y-61227544D01*
X140764789Y-61007533D01*
X140772897Y-60993493D01*
X140909174Y-60789539D01*
X140919039Y-60776681D01*
X141080786Y-60592244D01*
X141092244Y-60580786D01*
X141276681Y-60419039D01*
X141289534Y-60409177D01*
X141493493Y-60272897D01*
X141507533Y-60264789D01*
X141727544Y-60156291D01*
X141742515Y-60150091D01*
X141974804Y-60071240D01*
X141990451Y-60067047D01*
X142231048Y-60019190D01*
X142247102Y-60017075D01*
X142495957Y-60000765D01*
X142504067Y-60000500D01*
X158495933Y-60000500D01*
X158504043Y-60000765D01*
G37*
%TD.AperFunction*%
%TD*%
M02*
