M48
; DRILL file {KiCad 7.0.8-7.0.8~ubuntu22.04.1} date Sun 29 Oct 2023 10:02:02 PM EDT
; FORMAT={-:-/ absolute / inch / decimal}
; #@! TF.CreationDate,2023-10-29T22:02:02-04:00
; #@! TF.GenerationSoftware,Kicad,Pcbnew,7.0.8-7.0.8~ubuntu22.04.1
; #@! TF.FileFunction,Plated,1,2,PTH
FMAT,2
INCH
; #@! TA.AperFunction,Plated,PTH,ComponentDrill
T1C0.0295
; #@! TA.AperFunction,Plated,PTH,ViaDrill
T2C0.0315
; #@! TA.AperFunction,Plated,PTH,ComponentDrill
T3C0.0394
; #@! TA.AperFunction,Plated,PTH,ComponentDrill
T4C0.0433
; #@! TA.AperFunction,Plated,PTH,ComponentDrill
T5C0.0472
%
G90
G05
T1
X8.5Y-4.1
X8.5Y-4.15
X8.5Y-4.2
T2
X6.7Y-4.125
X7.3Y-3.65
X7.4Y-3.775
X7.425Y-3.675
T3
X6.75Y-3.5
X6.85Y-3.5
X7.15Y-3.5
X7.25Y-3.5
X7.8Y-3.5
X7.9Y-3.5
X8.2813Y-3.7008
X8.3813Y-3.7008
X8.4Y-3.5
X8.4813Y-3.7008
X8.5Y-3.5
T4
X8.15Y-3.9
X8.15Y-4.2
T5
X6.3Y-3.15
X6.5Y-3.15
X6.7Y-3.15
X6.975Y-3.15
X7.175Y-3.15
X7.375Y-3.15
X7.65Y-3.15
X7.85Y-3.15
X8.05Y-3.15
X8.325Y-3.15
X8.525Y-3.15
X8.725Y-3.15
T3
G00X7.0866Y-3.8293
M15
G01X7.0866Y-3.7506
M16
G05
G00X7.0866Y-3.9994
M15
G01X7.0866Y-3.9207
M16
G05
G00X7.0866Y-4.1793
M15
G01X7.0866Y-4.1006
M16
G05
G00X7.0866Y-4.3494
M15
G01X7.0866Y-4.2707
M16
G05
G00X7.3012Y-3.8293
M15
G01X7.3012Y-3.7506
M16
G05
G00X7.3012Y-3.9994
M15
G01X7.3012Y-3.9207
M16
G05
G00X7.3012Y-4.1793
M15
G01X7.3012Y-4.1006
M16
G05
G00X7.3012Y-4.3494
M15
G01X7.3012Y-4.2707
M16
G05
G00X7.5512Y-3.8293
M15
G01X7.5512Y-3.7506
M16
G05
G00X7.5512Y-3.9994
M15
G01X7.5512Y-3.9207
M16
G05
G00X7.5512Y-4.1793
M15
G01X7.5512Y-4.1006
M16
G05
G00X7.5512Y-4.3494
M15
G01X7.5512Y-4.2707
M16
G05
G00X7.8012Y-3.8293
M15
G01X7.8012Y-3.7506
M16
G05
G00X7.8012Y-4.3494
M15
G01X7.8012Y-4.2707
M16
G05
T0
M30
