%TF.GenerationSoftware,KiCad,Pcbnew,7.0.8-7.0.8~ubuntu22.04.1*%
%TF.CreationDate,2023-10-29T22:01:59-04:00*%
%TF.ProjectId,relay_board,72656c61-795f-4626-9f61-72642e6b6963,rev?*%
%TF.SameCoordinates,Original*%
%TF.FileFunction,Soldermask,Bot*%
%TF.FilePolarity,Negative*%
%FSLAX46Y46*%
G04 Gerber Fmt 4.6, Leading zero omitted, Abs format (unit mm)*
G04 Created by KiCad (PCBNEW 7.0.8-7.0.8~ubuntu22.04.1) date 2023-10-29 22:01:59*
%MOMM*%
%LPD*%
G01*
G04 APERTURE LIST*
%ADD10C,3.200000*%
%ADD11R,1.700000X1.700000*%
%ADD12O,1.700000X1.700000*%
%ADD13O,2.000000X4.000000*%
%ADD14R,1.500000X1.050000*%
%ADD15O,1.500000X1.050000*%
%ADD16C,2.500000*%
%ADD17R,2.200000X2.200000*%
%ADD18O,2.200000X2.200000*%
G04 APERTURE END LIST*
D10*
%TO.C,H104*%
X223520000Y-91440000D03*
%TD*%
%TO.C,H103*%
X157480000Y-91440000D03*
%TD*%
%TO.C,H102*%
X223520000Y-68580000D03*
%TD*%
%TO.C,H101*%
X157480000Y-68580000D03*
%TD*%
D11*
%TO.C,J105*%
X215900000Y-88900000D03*
D12*
X213360000Y-88900000D03*
%TD*%
D11*
%TO.C,J104*%
X173990000Y-88900000D03*
D12*
X171450000Y-88900000D03*
%TD*%
D11*
%TO.C,J103*%
X184150000Y-88900000D03*
D12*
X181610000Y-88900000D03*
%TD*%
D11*
%TO.C,J102*%
X200660000Y-88900000D03*
D12*
X198120000Y-88900000D03*
%TD*%
D13*
%TO.C,R101*%
X180000000Y-96265000D03*
X180000000Y-100585000D03*
X180000000Y-105155000D03*
X180000000Y-109475000D03*
X185450000Y-96265000D03*
X185450000Y-100585000D03*
X185450000Y-105155000D03*
X185450000Y-109475000D03*
X191800000Y-96265000D03*
X191800000Y-100585000D03*
X191800000Y-105155000D03*
X191800000Y-109475000D03*
X198150000Y-96265000D03*
X198150000Y-109475000D03*
%TD*%
D14*
%TO.C,Q101*%
X215900000Y-104140000D03*
D15*
X215900000Y-105410000D03*
X215900000Y-106680000D03*
%TD*%
D16*
%TO.C,J109*%
X160020000Y-80010000D03*
X165100000Y-80010000D03*
X170180000Y-80010000D03*
%TD*%
%TO.C,J108*%
X177165000Y-80010000D03*
X182245000Y-80010000D03*
X187325000Y-80010000D03*
%TD*%
%TO.C,J107*%
X194310000Y-80010000D03*
X199390000Y-80010000D03*
X204470000Y-80010000D03*
%TD*%
%TO.C,J106*%
X211455000Y-80010000D03*
X216535000Y-80010000D03*
X221615000Y-80010000D03*
%TD*%
D11*
%TO.C,J101*%
X215425000Y-94000000D03*
D12*
X212885000Y-94000000D03*
X210345000Y-94000000D03*
%TD*%
D17*
%TO.C,D101*%
X207010000Y-106680000D03*
D18*
X207010000Y-99060000D03*
%TD*%
M02*
