%TF.GenerationSoftware,KiCad,Pcbnew,7.0.8-7.0.8~ubuntu22.04.1*%
%TF.CreationDate,2023-10-29T22:01:59-04:00*%
%TF.ProjectId,relay_board,72656c61-795f-4626-9f61-72642e6b6963,rev?*%
%TF.SameCoordinates,Original*%
%TF.FileFunction,Copper,L1,Top*%
%TF.FilePolarity,Positive*%
%FSLAX46Y46*%
G04 Gerber Fmt 4.6, Leading zero omitted, Abs format (unit mm)*
G04 Created by KiCad (PCBNEW 7.0.8-7.0.8~ubuntu22.04.1) date 2023-10-29 22:01:59*
%MOMM*%
%LPD*%
G01*
G04 APERTURE LIST*
G04 Aperture macros list*
%AMRoundRect*
0 Rectangle with rounded corners*
0 $1 Rounding radius*
0 $2 $3 $4 $5 $6 $7 $8 $9 X,Y pos of 4 corners*
0 Add a 4 corners polygon primitive as box body*
4,1,4,$2,$3,$4,$5,$6,$7,$8,$9,$2,$3,0*
0 Add four circle primitives for the rounded corners*
1,1,$1+$1,$2,$3*
1,1,$1+$1,$4,$5*
1,1,$1+$1,$6,$7*
1,1,$1+$1,$8,$9*
0 Add four rect primitives between the rounded corners*
20,1,$1+$1,$2,$3,$4,$5,0*
20,1,$1+$1,$4,$5,$6,$7,0*
20,1,$1+$1,$6,$7,$8,$9,0*
20,1,$1+$1,$8,$9,$2,$3,0*%
G04 Aperture macros list end*
%TA.AperFunction,ComponentPad*%
%ADD10R,1.700000X1.700000*%
%TD*%
%TA.AperFunction,ComponentPad*%
%ADD11O,1.700000X1.700000*%
%TD*%
%TA.AperFunction,SMDPad,CuDef*%
%ADD12RoundRect,0.200000X0.200000X0.275000X-0.200000X0.275000X-0.200000X-0.275000X0.200000X-0.275000X0*%
%TD*%
%TA.AperFunction,SMDPad,CuDef*%
%ADD13RoundRect,0.200000X-0.200000X-0.275000X0.200000X-0.275000X0.200000X0.275000X-0.200000X0.275000X0*%
%TD*%
%TA.AperFunction,ComponentPad*%
%ADD14O,2.000000X4.000000*%
%TD*%
%TA.AperFunction,ComponentPad*%
%ADD15R,1.500000X1.050000*%
%TD*%
%TA.AperFunction,ComponentPad*%
%ADD16O,1.500000X1.050000*%
%TD*%
%TA.AperFunction,ComponentPad*%
%ADD17C,2.500000*%
%TD*%
%TA.AperFunction,ComponentPad*%
%ADD18R,2.200000X2.200000*%
%TD*%
%TA.AperFunction,ComponentPad*%
%ADD19O,2.200000X2.200000*%
%TD*%
%TA.AperFunction,ViaPad*%
%ADD20C,1.200000*%
%TD*%
%TA.AperFunction,Conductor*%
%ADD21C,0.250000*%
%TD*%
%TA.AperFunction,Conductor*%
%ADD22C,0.500000*%
%TD*%
G04 APERTURE END LIST*
D10*
%TO.P,J105,1,Pin_1*%
%TO.N,VSS*%
X215900000Y-88900000D03*
D11*
%TO.P,J105,2,Pin_2*%
%TO.N,/COM_A*%
X213360000Y-88900000D03*
%TD*%
D10*
%TO.P,J104,1,Pin_1*%
%TO.N,/COM_C*%
X173990000Y-88900000D03*
D11*
%TO.P,J104,2,Pin_2*%
%TO.N,/COM_D*%
X171450000Y-88900000D03*
%TD*%
D10*
%TO.P,J103,1,Pin_1*%
%TO.N,/COM_B*%
X184150000Y-88900000D03*
D11*
%TO.P,J103,2,Pin_2*%
%TO.N,/COM_C*%
X181610000Y-88900000D03*
%TD*%
D10*
%TO.P,J102,1,Pin_1*%
%TO.N,/COM_A*%
X200660000Y-88900000D03*
D11*
%TO.P,J102,2,Pin_2*%
%TO.N,/COM_B*%
X198120000Y-88900000D03*
%TD*%
D12*
%TO.P,R103,1*%
%TO.N,GND*%
X215900000Y-100330000D03*
%TO.P,R103,2*%
%TO.N,Net-(Q101-G)*%
X214250000Y-100330000D03*
%TD*%
D13*
%TO.P,R102,1*%
%TO.N,/SIG*%
X210440000Y-100330000D03*
%TO.P,R102,2*%
%TO.N,Net-(Q101-G)*%
X212090000Y-100330000D03*
%TD*%
D14*
%TO.P,R101,1,NC*%
%TO.N,/NC_A*%
X180000000Y-96265000D03*
%TO.P,R101,2,NC*%
%TO.N,/NC_B*%
X180000000Y-100585000D03*
%TO.P,R101,3,NC*%
%TO.N,/NC_C*%
X180000000Y-105155000D03*
%TO.P,R101,4,NC*%
%TO.N,/NC_D*%
X180000000Y-109475000D03*
%TO.P,R101,5,NO*%
%TO.N,/NO_A*%
X185450000Y-96265000D03*
%TO.P,R101,6,NO*%
%TO.N,/NO_B*%
X185450000Y-100585000D03*
%TO.P,R101,7,NO*%
%TO.N,/NO_C*%
X185450000Y-105155000D03*
%TO.P,R101,8,NO*%
%TO.N,/NO_D*%
X185450000Y-109475000D03*
%TO.P,R101,9,COM*%
%TO.N,/COM_A*%
X191800000Y-96265000D03*
%TO.P,R101,10,COM*%
%TO.N,/COM_B*%
X191800000Y-100585000D03*
%TO.P,R101,11,COM*%
%TO.N,/COM_C*%
X191800000Y-105155000D03*
%TO.P,R101,12,COM*%
%TO.N,/COM_D*%
X191800000Y-109475000D03*
%TO.P,R101,13,-*%
%TO.N,Net-(D101-A)*%
X198150000Y-96265000D03*
%TO.P,R101,14,+*%
%TO.N,VSS*%
X198150000Y-109475000D03*
%TD*%
D15*
%TO.P,Q101,1,S*%
%TO.N,GND*%
X215900000Y-104140000D03*
D16*
%TO.P,Q101,2,G*%
%TO.N,Net-(Q101-G)*%
X215900000Y-105410000D03*
%TO.P,Q101,3,D*%
%TO.N,Net-(D101-A)*%
X215900000Y-106680000D03*
%TD*%
D17*
%TO.P,J109,1,Pin_1*%
%TO.N,/COM_D*%
X160020000Y-80010000D03*
%TO.P,J109,2,Pin_2*%
%TO.N,/NC_D*%
X165100000Y-80010000D03*
%TO.P,J109,3,Pin_3*%
%TO.N,/NO_D*%
X170180000Y-80010000D03*
%TD*%
%TO.P,J108,1,Pin_1*%
%TO.N,/COM_C*%
X177165000Y-80010000D03*
%TO.P,J108,2,Pin_2*%
%TO.N,/NC_C*%
X182245000Y-80010000D03*
%TO.P,J108,3,Pin_3*%
%TO.N,/NO_C*%
X187325000Y-80010000D03*
%TD*%
%TO.P,J107,1,Pin_1*%
%TO.N,/COM_B*%
X194310000Y-80010000D03*
%TO.P,J107,2,Pin_2*%
%TO.N,/NC_B*%
X199390000Y-80010000D03*
%TO.P,J107,3,Pin_3*%
%TO.N,/NO_B*%
X204470000Y-80010000D03*
%TD*%
%TO.P,J106,1,Pin_1*%
%TO.N,/COM_A*%
X211455000Y-80010000D03*
%TO.P,J106,2,Pin_2*%
%TO.N,/NC_A*%
X216535000Y-80010000D03*
%TO.P,J106,3,Pin_3*%
%TO.N,/NO_A*%
X221615000Y-80010000D03*
%TD*%
D10*
%TO.P,J101,1,Pin_1*%
%TO.N,GND*%
X215425000Y-94000000D03*
D11*
%TO.P,J101,2,Pin_2*%
%TO.N,VSS*%
X212885000Y-94000000D03*
%TO.P,J101,3,Pin_3*%
%TO.N,/SIG*%
X210345000Y-94000000D03*
%TD*%
D18*
%TO.P,D101,1,K*%
%TO.N,VSS*%
X207010000Y-106680000D03*
D19*
%TO.P,D101,2,A*%
%TO.N,Net-(D101-A)*%
X207010000Y-99060000D03*
%TD*%
D20*
%TO.N,/NO_A*%
X187960000Y-95885000D03*
%TO.N,/NC_B*%
X185420000Y-92710000D03*
%TO.N,/NC_A*%
X188595000Y-93345000D03*
%TO.N,/NO_D*%
X170180000Y-104775000D03*
%TD*%
D21*
%TO.N,/SIG*%
X210440000Y-100330000D02*
X210440000Y-94095000D01*
X210440000Y-94095000D02*
X210345000Y-94000000D01*
%TO.N,Net-(Q101-G)*%
X214250000Y-100330000D02*
X212090000Y-100330000D01*
X215900000Y-105410000D02*
X215153675Y-105410000D01*
X215153675Y-105410000D02*
X214250000Y-104506325D01*
X214250000Y-104506325D02*
X214250000Y-100330000D01*
%TO.N,Net-(D101-A)*%
X207010000Y-99060000D02*
X214630000Y-106680000D01*
X214630000Y-106680000D02*
X215900000Y-106680000D01*
X198150000Y-96265000D02*
X200945000Y-99060000D01*
X200945000Y-99060000D02*
X207010000Y-99060000D01*
%TO.N,VSS*%
X198150000Y-109475000D02*
X200945000Y-106680000D01*
X200945000Y-106680000D02*
X207010000Y-106680000D01*
D22*
%TO.N,/NO_A*%
X187960000Y-95885000D02*
X185830000Y-95885000D01*
X185830000Y-95885000D02*
X185450000Y-96265000D01*
X185705000Y-96520000D02*
X185450000Y-96265000D01*
%TO.N,/NC_A*%
X186910000Y-91660000D02*
X188595000Y-93345000D01*
X184605000Y-91660000D02*
X186910000Y-91660000D01*
X180000000Y-96265000D02*
X184605000Y-91660000D01*
%TO.N,/NC_B*%
X184000000Y-94130000D02*
X185420000Y-92710000D01*
%TO.N,/NO_B*%
X185450000Y-100585000D02*
X185800000Y-100585000D01*
%TO.N,/NC_B*%
X180000000Y-100585000D02*
X184000000Y-96585000D01*
X184000000Y-96585000D02*
X184000000Y-94130000D01*
D21*
%TO.N,VSS*%
X215900000Y-88900000D02*
X215900000Y-89535000D01*
X215900000Y-89535000D02*
X213995000Y-91440000D01*
X213995000Y-91440000D02*
X213995000Y-92890000D01*
X213995000Y-92890000D02*
X212885000Y-94000000D01*
D22*
%TO.N,/COM_A*%
X213360000Y-88900000D02*
X200660000Y-88900000D01*
X200660000Y-88900000D02*
X202565000Y-88900000D01*
X202565000Y-88900000D02*
X211455000Y-80010000D01*
X191800000Y-96265000D02*
X193295000Y-96265000D01*
X193295000Y-96265000D02*
X200660000Y-88900000D01*
%TO.N,/COM_B*%
X189865000Y-91440000D02*
X192405000Y-88900000D01*
X192405000Y-88900000D02*
X198120000Y-88900000D01*
X184150000Y-88900000D02*
X187325000Y-88900000D01*
X187325000Y-88900000D02*
X189865000Y-91440000D01*
X189865000Y-91440000D02*
X189865000Y-98650000D01*
X189865000Y-98650000D02*
X191800000Y-100585000D01*
X184150000Y-88900000D02*
X185420000Y-88900000D01*
X185420000Y-88900000D02*
X194310000Y-80010000D01*
%TO.N,/COM_C*%
X179398560Y-111923717D02*
X173990000Y-106515157D01*
%TO.N,/COM_D*%
X174853717Y-112623717D02*
X172085000Y-109855000D01*
X172085000Y-109855000D02*
X172085000Y-89535000D01*
%TO.N,/COM_C*%
X186526283Y-111923717D02*
X179398560Y-111923717D01*
X190350000Y-108100000D02*
X186526283Y-111923717D01*
X190350000Y-106605000D02*
X190350000Y-108100000D01*
X191800000Y-105155000D02*
X190350000Y-106605000D01*
X173990000Y-106515157D02*
X173990000Y-88900000D01*
%TO.N,/COM_D*%
X188651283Y-112623717D02*
X174853717Y-112623717D01*
X191800000Y-109475000D02*
X188651283Y-112623717D01*
X172085000Y-89535000D02*
X171450000Y-88900000D01*
%TO.N,/NO_D*%
X170180000Y-104775000D02*
X169299479Y-103894479D01*
X169299479Y-103894479D02*
X169299479Y-80890521D01*
X169299479Y-80890521D02*
X170180000Y-80010000D01*
%TO.N,/NC_C*%
X180000000Y-105155000D02*
X178550000Y-103705000D01*
X178550000Y-103705000D02*
X178550000Y-83705000D01*
X178550000Y-83705000D02*
X182245000Y-80010000D01*
%TO.N,/COM_C*%
X173990000Y-88900000D02*
X173990000Y-83185000D01*
X173990000Y-83185000D02*
X177165000Y-80010000D01*
%TD*%
%TA.AperFunction,Conductor*%
%TO.N,GND*%
G36*
X223737525Y-63509496D02*
G01*
X223942732Y-63518456D01*
X223947654Y-63518870D01*
X224165755Y-63546056D01*
X224370849Y-63573058D01*
X224375420Y-63573837D01*
X224590399Y-63618913D01*
X224792714Y-63663766D01*
X224796969Y-63664869D01*
X224915715Y-63700222D01*
X225007449Y-63727533D01*
X225060220Y-63744171D01*
X225205378Y-63789939D01*
X225209180Y-63791277D01*
X225413265Y-63870912D01*
X225413908Y-63871163D01*
X225605763Y-63950632D01*
X225609234Y-63952196D01*
X225806710Y-64048737D01*
X225806733Y-64048748D01*
X225991061Y-64144704D01*
X225994169Y-64146437D01*
X226116039Y-64219054D01*
X226183108Y-64259019D01*
X226358522Y-64370771D01*
X226361212Y-64372586D01*
X226540304Y-64500456D01*
X226705405Y-64627142D01*
X226707733Y-64629019D01*
X226875753Y-64771323D01*
X227030324Y-64912962D01*
X227187037Y-65069675D01*
X227328676Y-65224246D01*
X227470979Y-65392265D01*
X227472856Y-65394593D01*
X227599543Y-65559695D01*
X227727412Y-65738786D01*
X227729244Y-65741501D01*
X227840986Y-65916901D01*
X227953561Y-66105829D01*
X227955294Y-66108937D01*
X228051251Y-66293266D01*
X228147786Y-66490731D01*
X228149366Y-66494235D01*
X228228836Y-66686091D01*
X228260362Y-66766886D01*
X228308708Y-66890785D01*
X228310072Y-66894657D01*
X228372466Y-67092549D01*
X228435124Y-67303014D01*
X228436232Y-67307286D01*
X228481099Y-67509663D01*
X228526157Y-67724559D01*
X228526946Y-67729191D01*
X228553952Y-67934318D01*
X228581126Y-68152322D01*
X228581543Y-68157288D01*
X228590512Y-68362701D01*
X228599500Y-68580000D01*
X228599500Y-111760000D01*
X228590512Y-111977298D01*
X228581543Y-112182710D01*
X228581126Y-112187676D01*
X228553952Y-112405681D01*
X228526946Y-112610807D01*
X228526157Y-112615439D01*
X228481099Y-112830336D01*
X228436232Y-113032712D01*
X228435124Y-113036984D01*
X228372466Y-113247450D01*
X228310072Y-113445341D01*
X228308700Y-113449236D01*
X228228836Y-113653908D01*
X228149366Y-113845763D01*
X228147786Y-113849267D01*
X228051251Y-114046733D01*
X227955294Y-114231061D01*
X227953561Y-114234169D01*
X227840986Y-114423098D01*
X227729244Y-114598497D01*
X227727412Y-114601212D01*
X227599543Y-114780304D01*
X227472856Y-114945405D01*
X227470979Y-114947733D01*
X227328676Y-115115753D01*
X227187037Y-115270324D01*
X227030324Y-115427037D01*
X226875753Y-115568676D01*
X226707733Y-115710979D01*
X226705405Y-115712856D01*
X226540304Y-115839543D01*
X226361212Y-115967412D01*
X226358497Y-115969244D01*
X226183098Y-116080986D01*
X225994169Y-116193561D01*
X225991061Y-116195294D01*
X225806733Y-116291251D01*
X225609267Y-116387786D01*
X225605763Y-116389366D01*
X225413908Y-116468836D01*
X225209236Y-116548700D01*
X225205341Y-116550072D01*
X225007450Y-116612466D01*
X224796984Y-116675124D01*
X224792712Y-116676232D01*
X224590336Y-116721099D01*
X224375439Y-116766157D01*
X224370807Y-116766946D01*
X224165681Y-116793952D01*
X223947676Y-116821126D01*
X223942710Y-116821543D01*
X223737298Y-116830512D01*
X223520000Y-116839500D01*
X157480000Y-116839500D01*
X157262701Y-116830512D01*
X157057288Y-116821543D01*
X157052322Y-116821126D01*
X156834318Y-116793952D01*
X156629191Y-116766946D01*
X156624559Y-116766157D01*
X156409663Y-116721099D01*
X156207286Y-116676232D01*
X156203014Y-116675124D01*
X155992549Y-116612466D01*
X155794657Y-116550072D01*
X155790785Y-116548708D01*
X155658255Y-116496995D01*
X155586091Y-116468836D01*
X155394235Y-116389366D01*
X155390731Y-116387786D01*
X155193266Y-116291251D01*
X155008937Y-116195294D01*
X155005829Y-116193561D01*
X154816901Y-116080986D01*
X154641501Y-115969244D01*
X154638786Y-115967412D01*
X154459695Y-115839543D01*
X154294593Y-115712856D01*
X154292265Y-115710979D01*
X154124246Y-115568676D01*
X153969675Y-115427037D01*
X153812962Y-115270324D01*
X153671323Y-115115753D01*
X153529019Y-114947733D01*
X153527142Y-114945405D01*
X153400456Y-114780304D01*
X153272586Y-114601212D01*
X153270771Y-114598522D01*
X153159013Y-114423098D01*
X153119054Y-114356039D01*
X153046437Y-114234169D01*
X153044704Y-114231061D01*
X152948748Y-114046733D01*
X152852196Y-113849234D01*
X152850632Y-113845763D01*
X152771163Y-113653908D01*
X152753398Y-113608381D01*
X152691277Y-113449180D01*
X152689939Y-113445378D01*
X152632446Y-113263033D01*
X152627533Y-113247449D01*
X152597538Y-113146698D01*
X152564869Y-113036969D01*
X152563766Y-113032712D01*
X152518913Y-112830399D01*
X152473837Y-112615420D01*
X152473058Y-112610849D01*
X152446047Y-112405681D01*
X152418870Y-112187654D01*
X152418456Y-112182732D01*
X152409487Y-111977298D01*
X152400500Y-111760000D01*
X152400500Y-111759500D01*
X152400500Y-91507763D01*
X155625787Y-91507763D01*
X155655413Y-91777013D01*
X155655415Y-91777024D01*
X155723926Y-92039082D01*
X155723928Y-92039088D01*
X155829870Y-92288390D01*
X155870920Y-92355652D01*
X155970979Y-92519605D01*
X155970986Y-92519615D01*
X156144253Y-92727819D01*
X156144259Y-92727824D01*
X156253792Y-92825965D01*
X156345998Y-92908582D01*
X156571910Y-93058044D01*
X156817176Y-93173020D01*
X156817183Y-93173022D01*
X156817185Y-93173023D01*
X157076557Y-93251057D01*
X157076564Y-93251058D01*
X157076569Y-93251060D01*
X157344561Y-93290500D01*
X157344566Y-93290500D01*
X157547636Y-93290500D01*
X157599133Y-93286730D01*
X157750156Y-93275677D01*
X157862758Y-93250593D01*
X158014546Y-93216782D01*
X158014548Y-93216781D01*
X158014553Y-93216780D01*
X158267558Y-93120014D01*
X158503777Y-92987441D01*
X158718177Y-92821888D01*
X158906186Y-92626881D01*
X159063799Y-92406579D01*
X159143232Y-92252080D01*
X159187649Y-92165690D01*
X159187651Y-92165684D01*
X159187656Y-92165675D01*
X159275118Y-91909305D01*
X159324319Y-91642933D01*
X159334212Y-91372235D01*
X159304586Y-91102982D01*
X159236072Y-90840912D01*
X159130130Y-90591610D01*
X158989018Y-90360390D01*
X158987845Y-90358981D01*
X158815746Y-90152180D01*
X158815740Y-90152175D01*
X158614002Y-89971418D01*
X158388092Y-89821957D01*
X158376598Y-89816569D01*
X158142824Y-89706980D01*
X158142819Y-89706978D01*
X158142814Y-89706976D01*
X157883442Y-89628942D01*
X157883428Y-89628939D01*
X157767791Y-89611921D01*
X157615439Y-89589500D01*
X157412369Y-89589500D01*
X157412364Y-89589500D01*
X157209844Y-89604323D01*
X157209831Y-89604325D01*
X156945453Y-89663217D01*
X156945446Y-89663220D01*
X156692439Y-89759987D01*
X156456226Y-89892557D01*
X156241822Y-90058112D01*
X156053822Y-90253109D01*
X156053816Y-90253116D01*
X155896202Y-90473419D01*
X155896199Y-90473424D01*
X155772350Y-90714309D01*
X155772343Y-90714327D01*
X155684884Y-90970685D01*
X155684881Y-90970699D01*
X155635681Y-91237068D01*
X155635680Y-91237075D01*
X155625787Y-91507763D01*
X152400500Y-91507763D01*
X152400500Y-80010004D01*
X158264592Y-80010004D01*
X158284196Y-80271620D01*
X158284197Y-80271625D01*
X158342576Y-80527402D01*
X158342578Y-80527408D01*
X158342580Y-80527416D01*
X158438432Y-80771643D01*
X158569614Y-80998857D01*
X158701736Y-81164533D01*
X158733198Y-81203985D01*
X158914753Y-81372441D01*
X158925521Y-81382433D01*
X159142296Y-81530228D01*
X159142301Y-81530230D01*
X159142302Y-81530231D01*
X159142303Y-81530232D01*
X159267843Y-81590688D01*
X159378673Y-81644061D01*
X159378674Y-81644061D01*
X159378677Y-81644063D01*
X159629385Y-81721396D01*
X159888818Y-81760500D01*
X160151182Y-81760500D01*
X160410615Y-81721396D01*
X160661323Y-81644063D01*
X160897704Y-81530228D01*
X161114479Y-81382433D01*
X161306805Y-81203981D01*
X161470386Y-80998857D01*
X161601568Y-80771643D01*
X161697420Y-80527416D01*
X161755802Y-80271630D01*
X161775408Y-80010004D01*
X163344592Y-80010004D01*
X163364196Y-80271620D01*
X163364197Y-80271625D01*
X163422576Y-80527402D01*
X163422578Y-80527408D01*
X163422580Y-80527416D01*
X163518432Y-80771643D01*
X163649614Y-80998857D01*
X163781736Y-81164533D01*
X163813198Y-81203985D01*
X163994753Y-81372441D01*
X164005521Y-81382433D01*
X164222296Y-81530228D01*
X164222301Y-81530230D01*
X164222302Y-81530231D01*
X164222303Y-81530232D01*
X164347843Y-81590688D01*
X164458673Y-81644061D01*
X164458674Y-81644061D01*
X164458677Y-81644063D01*
X164709385Y-81721396D01*
X164968818Y-81760500D01*
X165231182Y-81760500D01*
X165490615Y-81721396D01*
X165741323Y-81644063D01*
X165977704Y-81530228D01*
X166194479Y-81382433D01*
X166386805Y-81203981D01*
X166550386Y-80998857D01*
X166681568Y-80771643D01*
X166777420Y-80527416D01*
X166835802Y-80271630D01*
X166855408Y-80010004D01*
X168424592Y-80010004D01*
X168444196Y-80271620D01*
X168444197Y-80271625D01*
X168502576Y-80527402D01*
X168502582Y-80527421D01*
X168558022Y-80668680D01*
X168564191Y-80738277D01*
X168563252Y-80742577D01*
X168548978Y-80802805D01*
X168548140Y-80809975D01*
X168548080Y-80809968D01*
X168547314Y-80817466D01*
X168547374Y-80817472D01*
X168546744Y-80824661D01*
X168548979Y-80901437D01*
X168548979Y-103830773D01*
X168547670Y-103848742D01*
X168544189Y-103872504D01*
X168548743Y-103924543D01*
X168548979Y-103929949D01*
X168548979Y-103938188D01*
X168552785Y-103970753D01*
X168559479Y-104047270D01*
X168560940Y-104054346D01*
X168560882Y-104054357D01*
X168562513Y-104061716D01*
X168562571Y-104061703D01*
X168564236Y-104068729D01*
X168590504Y-104140903D01*
X168614664Y-104213810D01*
X168617715Y-104220353D01*
X168617661Y-104220377D01*
X168620949Y-104227167D01*
X168621000Y-104227142D01*
X168624240Y-104233592D01*
X168624241Y-104233593D01*
X168624242Y-104233596D01*
X168630681Y-104243386D01*
X168666444Y-104297762D01*
X168706766Y-104363134D01*
X168711245Y-104368798D01*
X168711198Y-104368835D01*
X168715961Y-104374681D01*
X168716007Y-104374643D01*
X168720652Y-104380179D01*
X168776496Y-104432864D01*
X169038648Y-104695016D01*
X169072133Y-104756339D01*
X169074438Y-104771256D01*
X169093602Y-104978082D01*
X169149417Y-105174247D01*
X169149422Y-105174260D01*
X169240327Y-105356821D01*
X169363237Y-105519581D01*
X169513958Y-105656980D01*
X169513960Y-105656982D01*
X169613141Y-105718392D01*
X169687363Y-105764348D01*
X169877544Y-105838024D01*
X170078024Y-105875500D01*
X170078026Y-105875500D01*
X170281974Y-105875500D01*
X170281976Y-105875500D01*
X170482456Y-105838024D01*
X170672637Y-105764348D01*
X170846041Y-105656981D01*
X170982998Y-105532128D01*
X170996762Y-105519581D01*
X171032304Y-105472517D01*
X171111546Y-105367583D01*
X171167655Y-105325947D01*
X171237367Y-105321256D01*
X171298549Y-105354998D01*
X171331776Y-105416461D01*
X171334500Y-105442310D01*
X171334500Y-109791294D01*
X171333191Y-109809263D01*
X171329710Y-109833025D01*
X171334264Y-109885064D01*
X171334500Y-109890470D01*
X171334500Y-109898709D01*
X171336302Y-109914132D01*
X171338306Y-109931274D01*
X171345000Y-110007791D01*
X171346461Y-110014867D01*
X171346403Y-110014878D01*
X171348034Y-110022237D01*
X171348092Y-110022224D01*
X171349757Y-110029250D01*
X171376025Y-110101424D01*
X171400185Y-110174331D01*
X171403236Y-110180874D01*
X171403182Y-110180898D01*
X171406470Y-110187688D01*
X171406521Y-110187663D01*
X171409761Y-110194113D01*
X171409762Y-110194114D01*
X171409763Y-110194117D01*
X171422235Y-110213080D01*
X171451965Y-110258283D01*
X171492287Y-110323655D01*
X171496766Y-110329319D01*
X171496719Y-110329356D01*
X171501482Y-110335202D01*
X171501528Y-110335164D01*
X171506173Y-110340700D01*
X171562018Y-110393386D01*
X174277984Y-113109351D01*
X174289765Y-113122983D01*
X174304107Y-113142247D01*
X174344137Y-113175836D01*
X174348109Y-113179476D01*
X174353940Y-113185307D01*
X174353939Y-113185307D01*
X174375744Y-113202547D01*
X174379661Y-113205644D01*
X174438503Y-113255019D01*
X174438511Y-113255023D01*
X174444541Y-113258990D01*
X174444507Y-113259040D01*
X174450854Y-113263083D01*
X174450886Y-113263033D01*
X174457035Y-113266825D01*
X174457037Y-113266826D01*
X174457040Y-113266828D01*
X174526647Y-113299286D01*
X174595284Y-113333757D01*
X174595293Y-113333759D01*
X174602072Y-113336227D01*
X174602051Y-113336284D01*
X174609168Y-113338757D01*
X174609187Y-113338701D01*
X174616047Y-113340974D01*
X174691249Y-113356501D01*
X174765996Y-113374217D01*
X174766005Y-113374217D01*
X174773169Y-113375055D01*
X174773162Y-113375114D01*
X174780663Y-113375880D01*
X174780669Y-113375821D01*
X174787857Y-113376450D01*
X174787860Y-113376449D01*
X174787861Y-113376450D01*
X174864615Y-113374217D01*
X188587578Y-113374217D01*
X188605548Y-113375526D01*
X188629306Y-113379006D01*
X188681351Y-113374452D01*
X188686753Y-113374217D01*
X188694987Y-113374217D01*
X188694992Y-113374217D01*
X188706610Y-113372858D01*
X188727559Y-113370410D01*
X188740311Y-113369294D01*
X188804080Y-113363716D01*
X188804088Y-113363713D01*
X188811149Y-113362256D01*
X188811161Y-113362315D01*
X188818526Y-113360682D01*
X188818512Y-113360623D01*
X188825529Y-113358958D01*
X188825538Y-113358958D01*
X188897706Y-113332691D01*
X188970617Y-113308531D01*
X188970626Y-113308524D01*
X188977165Y-113305477D01*
X188977191Y-113305533D01*
X188983973Y-113302249D01*
X188983946Y-113302195D01*
X188990389Y-113298957D01*
X188990400Y-113298954D01*
X189054566Y-113256751D01*
X189119939Y-113216429D01*
X189119945Y-113216422D01*
X189125608Y-113211946D01*
X189125645Y-113211994D01*
X189131487Y-113207235D01*
X189131447Y-113207188D01*
X189136969Y-113202553D01*
X189136979Y-113202547D01*
X189162187Y-113175828D01*
X189189669Y-113146699D01*
X190156905Y-112179462D01*
X190687854Y-111648512D01*
X190749175Y-111615029D01*
X190818866Y-111620013D01*
X190851693Y-111638340D01*
X190976491Y-111735474D01*
X191195190Y-111853828D01*
X191430386Y-111934571D01*
X191675665Y-111975500D01*
X191924335Y-111975500D01*
X192169614Y-111934571D01*
X192404810Y-111853828D01*
X192623509Y-111735474D01*
X192819744Y-111582738D01*
X192988164Y-111399785D01*
X193124173Y-111191607D01*
X193224063Y-110963881D01*
X193285108Y-110722821D01*
X193300500Y-110537067D01*
X193300500Y-110537065D01*
X196649500Y-110537065D01*
X196664890Y-110722813D01*
X196664892Y-110722824D01*
X196725936Y-110963881D01*
X196825826Y-111191606D01*
X196961833Y-111399782D01*
X196961836Y-111399785D01*
X197130256Y-111582738D01*
X197326491Y-111735474D01*
X197545190Y-111853828D01*
X197780386Y-111934571D01*
X198025665Y-111975500D01*
X198274335Y-111975500D01*
X198519614Y-111934571D01*
X198754810Y-111853828D01*
X198973509Y-111735474D01*
X199169744Y-111582738D01*
X199338164Y-111399785D01*
X199474173Y-111191607D01*
X199574063Y-110963881D01*
X199635108Y-110722821D01*
X199650500Y-110537067D01*
X199650500Y-108910452D01*
X199670185Y-108843413D01*
X199686819Y-108822771D01*
X201167772Y-107341819D01*
X201229095Y-107308334D01*
X201255453Y-107305500D01*
X205285501Y-107305500D01*
X205352540Y-107325185D01*
X205398295Y-107377989D01*
X205409501Y-107429500D01*
X205409501Y-107827876D01*
X205415908Y-107887483D01*
X205466202Y-108022328D01*
X205466206Y-108022335D01*
X205552452Y-108137544D01*
X205552455Y-108137547D01*
X205667664Y-108223793D01*
X205667671Y-108223797D01*
X205802517Y-108274091D01*
X205802516Y-108274091D01*
X205809444Y-108274835D01*
X205862127Y-108280500D01*
X208157872Y-108280499D01*
X208217483Y-108274091D01*
X208352331Y-108223796D01*
X208467546Y-108137546D01*
X208553796Y-108022331D01*
X208604091Y-107887483D01*
X208610500Y-107827873D01*
X208610499Y-105532128D01*
X208604091Y-105472517D01*
X208583183Y-105416461D01*
X208553797Y-105337671D01*
X208553793Y-105337664D01*
X208467547Y-105222455D01*
X208467544Y-105222452D01*
X208352335Y-105136206D01*
X208352328Y-105136202D01*
X208217482Y-105085908D01*
X208217483Y-105085908D01*
X208157883Y-105079501D01*
X208157881Y-105079500D01*
X208157873Y-105079500D01*
X208157864Y-105079500D01*
X205862129Y-105079500D01*
X205862123Y-105079501D01*
X205802516Y-105085908D01*
X205667671Y-105136202D01*
X205667664Y-105136206D01*
X205552455Y-105222452D01*
X205552452Y-105222455D01*
X205466206Y-105337664D01*
X205466202Y-105337671D01*
X205415908Y-105472517D01*
X205410849Y-105519579D01*
X205409501Y-105532123D01*
X205409500Y-105532135D01*
X205409500Y-105930500D01*
X205389815Y-105997539D01*
X205337011Y-106043294D01*
X205285500Y-106054500D01*
X201027743Y-106054500D01*
X201012122Y-106052775D01*
X201012096Y-106053061D01*
X201004334Y-106052327D01*
X201004333Y-106052327D01*
X200935186Y-106054500D01*
X200905649Y-106054500D01*
X200898766Y-106055369D01*
X200892949Y-106055826D01*
X200846373Y-106057290D01*
X200827129Y-106062881D01*
X200808079Y-106066825D01*
X200788211Y-106069334D01*
X200744884Y-106086488D01*
X200739358Y-106088379D01*
X200694614Y-106101379D01*
X200694610Y-106101381D01*
X200677366Y-106111579D01*
X200659905Y-106120133D01*
X200641274Y-106127510D01*
X200641262Y-106127517D01*
X200603570Y-106154902D01*
X200598687Y-106158109D01*
X200558580Y-106181829D01*
X200544414Y-106195995D01*
X200529624Y-106208627D01*
X200513414Y-106220404D01*
X200513411Y-106220407D01*
X200483710Y-106256309D01*
X200479777Y-106260631D01*
X199358621Y-107381787D01*
X199297298Y-107415272D01*
X199227606Y-107410288D01*
X199179711Y-107378089D01*
X199169744Y-107367262D01*
X199169743Y-107367261D01*
X199169742Y-107367260D01*
X199035452Y-107262738D01*
X198973509Y-107214526D01*
X198973507Y-107214525D01*
X198973506Y-107214524D01*
X198754811Y-107096172D01*
X198754802Y-107096169D01*
X198519616Y-107015429D01*
X198274335Y-106974500D01*
X198025665Y-106974500D01*
X197780383Y-107015429D01*
X197545197Y-107096169D01*
X197545188Y-107096172D01*
X197326493Y-107214524D01*
X197130257Y-107367261D01*
X196961833Y-107550217D01*
X196825826Y-107758393D01*
X196725936Y-107986118D01*
X196664892Y-108227175D01*
X196664890Y-108227186D01*
X196649500Y-108412935D01*
X196649500Y-110537065D01*
X193300500Y-110537065D01*
X193300500Y-108412933D01*
X193296145Y-108360376D01*
X193285109Y-108227186D01*
X193285107Y-108227175D01*
X193224063Y-107986118D01*
X193124173Y-107758393D01*
X192988166Y-107550217D01*
X192917239Y-107473170D01*
X192848942Y-107398980D01*
X192818022Y-107336329D01*
X192825882Y-107266903D01*
X192848941Y-107231021D01*
X192988164Y-107079785D01*
X193124173Y-106871607D01*
X193224063Y-106643881D01*
X193285108Y-106402821D01*
X193288618Y-106360469D01*
X193300500Y-106217065D01*
X193300500Y-104092935D01*
X193297303Y-104054357D01*
X193294816Y-104024334D01*
X193285109Y-103907186D01*
X193285107Y-103907175D01*
X193224063Y-103666118D01*
X193124173Y-103438393D01*
X192988166Y-103230217D01*
X192934250Y-103171649D01*
X192819744Y-103047262D01*
X192819739Y-103047258D01*
X192819737Y-103047256D01*
X192717720Y-102967853D01*
X192676907Y-102911143D01*
X192673232Y-102841370D01*
X192707864Y-102780687D01*
X192717720Y-102772147D01*
X192768575Y-102732564D01*
X192819744Y-102692738D01*
X192988164Y-102509785D01*
X193124173Y-102301607D01*
X193224063Y-102073881D01*
X193285108Y-101832821D01*
X193300500Y-101647067D01*
X193300500Y-99522933D01*
X193286585Y-99354999D01*
X193285109Y-99337186D01*
X193285107Y-99337175D01*
X193224063Y-99096118D01*
X193124173Y-98868393D01*
X192988166Y-98660217D01*
X192958529Y-98628023D01*
X192848942Y-98508980D01*
X192818022Y-98446329D01*
X192825882Y-98376903D01*
X192848941Y-98341021D01*
X192988164Y-98189785D01*
X193124173Y-97981607D01*
X193224063Y-97753881D01*
X193285108Y-97512821D01*
X193289937Y-97454551D01*
X193300500Y-97327065D01*
X193300500Y-97131510D01*
X193320185Y-97064471D01*
X193372989Y-97018716D01*
X193413695Y-97007982D01*
X193447797Y-97004999D01*
X193447805Y-97004996D01*
X193454866Y-97003539D01*
X193454878Y-97003598D01*
X193462243Y-97001965D01*
X193462229Y-97001906D01*
X193469246Y-97000241D01*
X193469255Y-97000241D01*
X193541423Y-96973974D01*
X193614334Y-96949814D01*
X193614343Y-96949807D01*
X193620882Y-96946760D01*
X193620908Y-96946816D01*
X193627690Y-96943532D01*
X193627663Y-96943478D01*
X193634106Y-96940240D01*
X193634117Y-96940237D01*
X193698283Y-96898034D01*
X193763656Y-96857712D01*
X193763662Y-96857705D01*
X193769325Y-96853229D01*
X193769363Y-96853277D01*
X193775200Y-96848522D01*
X193775161Y-96848475D01*
X193780696Y-96843830D01*
X193833385Y-96787982D01*
X200334549Y-90286818D01*
X200395872Y-90253333D01*
X200422230Y-90250499D01*
X201557871Y-90250499D01*
X201557872Y-90250499D01*
X201617483Y-90244091D01*
X201752331Y-90193796D01*
X201867546Y-90107546D01*
X201953796Y-89992331D01*
X202004091Y-89857483D01*
X202010500Y-89797873D01*
X202010500Y-89774500D01*
X202030185Y-89707461D01*
X202082989Y-89661706D01*
X202134500Y-89650500D01*
X202501295Y-89650500D01*
X202519265Y-89651809D01*
X202543023Y-89655289D01*
X202595068Y-89650735D01*
X202600470Y-89650500D01*
X202608709Y-89650500D01*
X212172299Y-89650500D01*
X212239338Y-89670185D01*
X212273873Y-89703376D01*
X212313512Y-89759986D01*
X212321505Y-89771401D01*
X212488599Y-89938495D01*
X212585384Y-90006265D01*
X212682165Y-90074032D01*
X212682167Y-90074033D01*
X212682170Y-90074035D01*
X212896337Y-90173903D01*
X213124592Y-90235063D01*
X213301034Y-90250500D01*
X213359999Y-90255659D01*
X213360000Y-90255659D01*
X213360001Y-90255659D01*
X213418966Y-90250500D01*
X213595408Y-90235063D01*
X213823663Y-90173903D01*
X214037830Y-90074035D01*
X214231401Y-89938495D01*
X214353329Y-89816566D01*
X214414648Y-89783084D01*
X214484340Y-89788068D01*
X214540274Y-89829939D01*
X214557187Y-89860913D01*
X214565280Y-89882609D01*
X214570267Y-89952300D01*
X214536784Y-90013624D01*
X214536781Y-90013627D01*
X213611208Y-90939199D01*
X213598951Y-90949020D01*
X213599134Y-90949241D01*
X213593123Y-90954213D01*
X213545772Y-91004636D01*
X213524889Y-91025519D01*
X213524877Y-91025532D01*
X213520621Y-91031017D01*
X213516837Y-91035447D01*
X213484937Y-91069418D01*
X213484936Y-91069420D01*
X213475284Y-91086976D01*
X213464610Y-91103226D01*
X213452329Y-91119061D01*
X213452324Y-91119068D01*
X213433815Y-91161838D01*
X213431245Y-91167084D01*
X213408803Y-91207906D01*
X213403822Y-91227307D01*
X213397521Y-91245710D01*
X213389562Y-91264102D01*
X213389561Y-91264105D01*
X213382271Y-91310127D01*
X213381087Y-91315846D01*
X213369501Y-91360972D01*
X213369500Y-91360982D01*
X213369500Y-91381016D01*
X213367973Y-91400415D01*
X213364840Y-91420194D01*
X213364840Y-91420195D01*
X213369225Y-91466583D01*
X213369500Y-91472421D01*
X213369500Y-92570080D01*
X213349815Y-92637119D01*
X213297011Y-92682874D01*
X213227853Y-92692818D01*
X213213408Y-92689855D01*
X213120416Y-92664939D01*
X213120412Y-92664938D01*
X213120408Y-92664937D01*
X213120406Y-92664936D01*
X213120403Y-92664936D01*
X212885001Y-92644341D01*
X212884999Y-92644341D01*
X212649596Y-92664936D01*
X212649586Y-92664938D01*
X212421344Y-92726094D01*
X212421337Y-92726096D01*
X212421337Y-92726097D01*
X212407816Y-92732401D01*
X212207171Y-92825964D01*
X212207169Y-92825965D01*
X212013597Y-92961505D01*
X211846505Y-93128597D01*
X211716575Y-93314158D01*
X211661998Y-93357783D01*
X211592500Y-93364977D01*
X211530145Y-93333454D01*
X211513425Y-93314158D01*
X211383494Y-93128597D01*
X211216402Y-92961506D01*
X211216395Y-92961501D01*
X211022834Y-92825967D01*
X211022830Y-92825965D01*
X210951727Y-92792809D01*
X210808663Y-92726097D01*
X210808659Y-92726096D01*
X210808655Y-92726094D01*
X210580413Y-92664938D01*
X210580403Y-92664936D01*
X210345001Y-92644341D01*
X210344999Y-92644341D01*
X210109596Y-92664936D01*
X210109586Y-92664938D01*
X209881344Y-92726094D01*
X209881337Y-92726096D01*
X209881337Y-92726097D01*
X209867816Y-92732401D01*
X209667171Y-92825964D01*
X209667169Y-92825965D01*
X209473597Y-92961505D01*
X209306505Y-93128597D01*
X209170965Y-93322169D01*
X209170964Y-93322171D01*
X209071098Y-93536335D01*
X209071094Y-93536344D01*
X209009938Y-93764586D01*
X209009936Y-93764596D01*
X208989341Y-93999999D01*
X208989341Y-94000000D01*
X209009936Y-94235403D01*
X209009938Y-94235413D01*
X209071094Y-94463655D01*
X209071096Y-94463659D01*
X209071097Y-94463663D01*
X209151004Y-94635023D01*
X209170965Y-94677830D01*
X209170967Y-94677834D01*
X209245656Y-94784500D01*
X209306505Y-94871401D01*
X209473599Y-95038495D01*
X209550135Y-95092086D01*
X209667165Y-95174032D01*
X209667167Y-95174033D01*
X209667170Y-95174035D01*
X209742904Y-95209350D01*
X209795344Y-95255522D01*
X209814500Y-95321732D01*
X209814500Y-99438480D01*
X209794815Y-99505519D01*
X209778181Y-99526161D01*
X209684531Y-99619810D01*
X209684530Y-99619811D01*
X209596522Y-99765393D01*
X209545913Y-99927807D01*
X209539500Y-99998386D01*
X209539500Y-100405547D01*
X209519815Y-100472586D01*
X209467011Y-100518341D01*
X209397853Y-100528285D01*
X209334297Y-100499260D01*
X209327819Y-100493228D01*
X208552647Y-99718056D01*
X208519162Y-99656733D01*
X208524146Y-99587041D01*
X208525767Y-99582922D01*
X208531095Y-99570059D01*
X208536873Y-99556111D01*
X208595683Y-99311148D01*
X208615449Y-99060000D01*
X208595683Y-98808852D01*
X208536873Y-98563889D01*
X208440466Y-98331140D01*
X208308839Y-98116346D01*
X208308838Y-98116343D01*
X208193761Y-97981606D01*
X208145224Y-97924776D01*
X207959641Y-97766273D01*
X207953656Y-97761161D01*
X207953653Y-97761160D01*
X207738859Y-97629533D01*
X207506110Y-97533126D01*
X207261151Y-97474317D01*
X207010000Y-97454551D01*
X206758848Y-97474317D01*
X206513889Y-97533126D01*
X206281140Y-97629533D01*
X206066346Y-97761160D01*
X206066343Y-97761161D01*
X205874776Y-97924776D01*
X205711161Y-98116343D01*
X205711160Y-98116346D01*
X205579533Y-98331141D01*
X205579532Y-98331143D01*
X205568428Y-98357952D01*
X205524588Y-98412356D01*
X205458294Y-98434421D01*
X205453867Y-98434500D01*
X201255452Y-98434500D01*
X201188413Y-98414815D01*
X201167771Y-98398181D01*
X199686819Y-96917228D01*
X199653334Y-96855905D01*
X199650500Y-96829547D01*
X199650500Y-95202935D01*
X199650132Y-95198499D01*
X199645320Y-95140419D01*
X199635109Y-95017186D01*
X199635107Y-95017175D01*
X199574063Y-94776118D01*
X199474173Y-94548393D01*
X199338166Y-94340217D01*
X199255115Y-94250000D01*
X199169744Y-94157262D01*
X198973509Y-94004526D01*
X198973507Y-94004525D01*
X198973506Y-94004524D01*
X198754811Y-93886172D01*
X198754802Y-93886169D01*
X198519616Y-93805429D01*
X198274335Y-93764500D01*
X198025665Y-93764500D01*
X197780383Y-93805429D01*
X197545197Y-93886169D01*
X197545188Y-93886172D01*
X197326493Y-94004524D01*
X197130257Y-94157261D01*
X196961833Y-94340217D01*
X196825826Y-94548393D01*
X196725936Y-94776118D01*
X196664892Y-95017175D01*
X196664890Y-95017186D01*
X196651894Y-95174036D01*
X196649868Y-95198499D01*
X196649500Y-95202935D01*
X196649500Y-97327065D01*
X196664890Y-97512813D01*
X196664892Y-97512824D01*
X196725936Y-97753881D01*
X196825826Y-97981606D01*
X196961833Y-98189782D01*
X196961836Y-98189785D01*
X197130256Y-98372738D01*
X197326491Y-98525474D01*
X197545190Y-98643828D01*
X197780386Y-98724571D01*
X198025665Y-98765500D01*
X198274335Y-98765500D01*
X198519614Y-98724571D01*
X198754810Y-98643828D01*
X198973509Y-98525474D01*
X199169744Y-98372738D01*
X199179708Y-98361913D01*
X199239593Y-98325921D01*
X199309431Y-98328018D01*
X199358621Y-98358211D01*
X199969740Y-98969331D01*
X200444197Y-99443788D01*
X200454022Y-99456051D01*
X200454243Y-99455869D01*
X200459214Y-99461878D01*
X200485217Y-99486295D01*
X200509635Y-99509226D01*
X200530529Y-99530120D01*
X200536011Y-99534373D01*
X200540443Y-99538157D01*
X200574418Y-99570062D01*
X200591976Y-99579714D01*
X200608233Y-99590393D01*
X200624064Y-99602673D01*
X200643737Y-99611186D01*
X200666833Y-99621182D01*
X200672077Y-99623750D01*
X200712908Y-99646197D01*
X200725523Y-99649435D01*
X200732305Y-99651177D01*
X200750719Y-99657481D01*
X200769104Y-99665438D01*
X200815157Y-99672732D01*
X200820826Y-99673906D01*
X200865981Y-99685500D01*
X200886016Y-99685500D01*
X200905413Y-99687026D01*
X200925196Y-99690160D01*
X200971584Y-99685775D01*
X200977422Y-99685500D01*
X205453867Y-99685500D01*
X205520906Y-99705185D01*
X205566661Y-99757989D01*
X205568428Y-99762048D01*
X205579532Y-99788856D01*
X205579533Y-99788858D01*
X205711160Y-100003653D01*
X205711161Y-100003656D01*
X205711164Y-100003659D01*
X205874776Y-100195224D01*
X206023066Y-100321875D01*
X206066343Y-100358838D01*
X206066346Y-100358839D01*
X206281140Y-100490466D01*
X206469042Y-100568297D01*
X206513889Y-100586873D01*
X206758852Y-100645683D01*
X207010000Y-100665449D01*
X207261148Y-100645683D01*
X207506111Y-100586873D01*
X207532924Y-100575766D01*
X207602388Y-100568297D01*
X207664868Y-100599569D01*
X207668055Y-100602645D01*
X210905216Y-103839807D01*
X214129197Y-107063788D01*
X214139022Y-107076051D01*
X214139243Y-107075869D01*
X214144214Y-107081878D01*
X214159433Y-107096169D01*
X214194635Y-107129226D01*
X214215529Y-107150120D01*
X214221011Y-107154373D01*
X214225443Y-107158157D01*
X214259418Y-107190062D01*
X214276976Y-107199714D01*
X214293235Y-107210395D01*
X214309064Y-107222673D01*
X214351838Y-107241182D01*
X214357056Y-107243738D01*
X214397908Y-107266197D01*
X214417316Y-107271180D01*
X214435717Y-107277480D01*
X214454104Y-107285437D01*
X214497488Y-107292308D01*
X214500119Y-107292725D01*
X214505839Y-107293909D01*
X214550981Y-107305500D01*
X214571016Y-107305500D01*
X214590414Y-107307026D01*
X214610194Y-107310159D01*
X214610195Y-107310160D01*
X214610195Y-107310159D01*
X214610196Y-107310160D01*
X214656584Y-107305775D01*
X214662422Y-107305500D01*
X214803055Y-107305500D01*
X214870094Y-107325185D01*
X214898909Y-107350836D01*
X214946353Y-107408647D01*
X215102506Y-107536798D01*
X215102509Y-107536799D01*
X215102511Y-107536801D01*
X215280654Y-107632021D01*
X215280656Y-107632021D01*
X215280659Y-107632023D01*
X215473967Y-107690662D01*
X215624620Y-107705500D01*
X215624623Y-107705500D01*
X216175377Y-107705500D01*
X216175380Y-107705500D01*
X216326033Y-107690662D01*
X216519341Y-107632023D01*
X216697494Y-107536798D01*
X216853647Y-107408647D01*
X216981798Y-107252494D01*
X217065356Y-107096169D01*
X217077021Y-107074345D01*
X217077021Y-107074344D01*
X217077023Y-107074341D01*
X217135662Y-106881033D01*
X217155462Y-106680000D01*
X217135662Y-106478967D01*
X217077023Y-106285659D01*
X216981798Y-106107506D01*
X216981794Y-106107502D01*
X216979631Y-106103454D01*
X216965389Y-106035051D01*
X216979631Y-105986546D01*
X216981794Y-105982498D01*
X216981798Y-105982494D01*
X217077023Y-105804341D01*
X217135662Y-105611033D01*
X217155462Y-105410000D01*
X217135662Y-105208967D01*
X217077023Y-105015659D01*
X217077020Y-105015653D01*
X217076513Y-105013982D01*
X217075890Y-104944115D01*
X217090098Y-104915420D01*
X217089101Y-104914876D01*
X217093350Y-104907093D01*
X217143597Y-104772376D01*
X217143598Y-104772372D01*
X217149999Y-104712844D01*
X217150000Y-104712827D01*
X217150000Y-104390000D01*
X216234271Y-104390000D01*
X216228191Y-104389701D01*
X216192223Y-104386158D01*
X216183854Y-104385334D01*
X216218278Y-104347941D01*
X216268551Y-104233330D01*
X216278886Y-104108605D01*
X216248163Y-103987281D01*
X216184606Y-103890000D01*
X217150000Y-103890000D01*
X217150000Y-103567172D01*
X217149999Y-103567155D01*
X217143598Y-103507627D01*
X217143596Y-103507620D01*
X217093354Y-103372913D01*
X217093350Y-103372906D01*
X217007190Y-103257812D01*
X217007187Y-103257809D01*
X216892093Y-103171649D01*
X216892086Y-103171645D01*
X216757379Y-103121403D01*
X216757372Y-103121401D01*
X216697844Y-103115000D01*
X216150000Y-103115000D01*
X216150000Y-103859382D01*
X216080948Y-103805637D01*
X215962576Y-103765000D01*
X215868927Y-103765000D01*
X215776554Y-103780414D01*
X215666486Y-103839981D01*
X215650000Y-103857889D01*
X215650000Y-103115000D01*
X215102155Y-103115000D01*
X215042627Y-103121401D01*
X215035070Y-103123187D01*
X215034766Y-103121902D01*
X214973129Y-103126304D01*
X214911809Y-103092813D01*
X214878331Y-103031486D01*
X214875500Y-103005141D01*
X214875500Y-101221519D01*
X214895185Y-101154480D01*
X214911813Y-101133843D01*
X214987675Y-101057981D01*
X215048994Y-101024499D01*
X215118686Y-101029483D01*
X215163034Y-101057984D01*
X215265122Y-101160072D01*
X215410604Y-101248019D01*
X215410603Y-101248019D01*
X215572894Y-101298590D01*
X215572893Y-101298590D01*
X215643408Y-101304998D01*
X215643426Y-101304999D01*
X215649999Y-101304998D01*
X215650000Y-101304998D01*
X215650000Y-100580000D01*
X216150000Y-100580000D01*
X216150000Y-101304999D01*
X216156581Y-101304999D01*
X216227102Y-101298591D01*
X216227107Y-101298590D01*
X216389396Y-101248018D01*
X216534877Y-101160072D01*
X216655072Y-101039877D01*
X216743019Y-100894395D01*
X216793590Y-100732106D01*
X216800000Y-100661572D01*
X216800000Y-100580000D01*
X216150000Y-100580000D01*
X215650000Y-100580000D01*
X215650000Y-99355000D01*
X216150000Y-99355000D01*
X216150000Y-100080000D01*
X216799999Y-100080000D01*
X216799999Y-99998417D01*
X216793591Y-99927897D01*
X216793590Y-99927892D01*
X216743018Y-99765603D01*
X216655072Y-99620122D01*
X216534877Y-99499927D01*
X216389395Y-99411980D01*
X216389396Y-99411980D01*
X216227105Y-99361409D01*
X216227106Y-99361409D01*
X216156572Y-99355000D01*
X216150000Y-99355000D01*
X215650000Y-99355000D01*
X215649999Y-99354999D01*
X215643436Y-99355000D01*
X215643417Y-99355001D01*
X215572897Y-99361408D01*
X215572892Y-99361409D01*
X215410603Y-99411981D01*
X215265122Y-99499927D01*
X215265121Y-99499928D01*
X215163035Y-99602015D01*
X215101712Y-99635500D01*
X215032020Y-99630516D01*
X214987673Y-99602015D01*
X214885188Y-99499530D01*
X214875499Y-99493673D01*
X214739606Y-99411522D01*
X214577196Y-99360914D01*
X214577194Y-99360913D01*
X214577192Y-99360913D01*
X214527778Y-99356423D01*
X214506616Y-99354500D01*
X213993384Y-99354500D01*
X213974145Y-99356248D01*
X213922807Y-99360913D01*
X213760393Y-99411522D01*
X213614811Y-99499530D01*
X213494531Y-99619810D01*
X213494528Y-99619814D01*
X213479514Y-99644651D01*
X213427986Y-99691838D01*
X213373398Y-99704500D01*
X212966602Y-99704500D01*
X212899563Y-99684815D01*
X212860486Y-99644651D01*
X212846298Y-99621182D01*
X212845472Y-99619815D01*
X212845471Y-99619814D01*
X212845468Y-99619810D01*
X212725188Y-99499530D01*
X212715499Y-99493673D01*
X212579606Y-99411522D01*
X212417196Y-99360914D01*
X212417194Y-99360913D01*
X212417192Y-99360913D01*
X212367778Y-99356423D01*
X212346616Y-99354500D01*
X211833384Y-99354500D01*
X211814145Y-99356248D01*
X211762807Y-99360913D01*
X211600393Y-99411522D01*
X211454811Y-99499530D01*
X211454810Y-99499531D01*
X211352681Y-99601661D01*
X211291358Y-99635146D01*
X211221666Y-99630162D01*
X211177319Y-99601661D01*
X211101819Y-99526161D01*
X211068334Y-99464838D01*
X211065500Y-99438480D01*
X211065500Y-95208707D01*
X211085185Y-95141668D01*
X211118377Y-95107132D01*
X211139865Y-95092086D01*
X211216401Y-95038495D01*
X211383495Y-94871401D01*
X211513425Y-94685842D01*
X211568002Y-94642217D01*
X211637500Y-94635023D01*
X211699855Y-94666546D01*
X211716575Y-94685842D01*
X211846500Y-94871395D01*
X211846505Y-94871401D01*
X212013599Y-95038495D01*
X212090135Y-95092086D01*
X212207165Y-95174032D01*
X212207167Y-95174033D01*
X212207170Y-95174035D01*
X212421337Y-95273903D01*
X212649592Y-95335063D01*
X212820319Y-95350000D01*
X212884999Y-95355659D01*
X212885000Y-95355659D01*
X212885001Y-95355659D01*
X212949681Y-95350000D01*
X213120408Y-95335063D01*
X213348663Y-95273903D01*
X213562830Y-95174035D01*
X213756401Y-95038495D01*
X213878717Y-94916178D01*
X213940036Y-94882696D01*
X214009728Y-94887680D01*
X214065662Y-94929551D01*
X214082577Y-94960528D01*
X214131646Y-95092088D01*
X214131649Y-95092093D01*
X214217809Y-95207187D01*
X214217812Y-95207190D01*
X214332906Y-95293350D01*
X214332913Y-95293354D01*
X214467620Y-95343596D01*
X214467627Y-95343598D01*
X214527155Y-95349999D01*
X214527172Y-95350000D01*
X215175000Y-95350000D01*
X215175000Y-94435501D01*
X215282685Y-94484680D01*
X215389237Y-94500000D01*
X215460763Y-94500000D01*
X215567315Y-94484680D01*
X215675000Y-94435501D01*
X215675000Y-95350000D01*
X216322828Y-95350000D01*
X216322844Y-95349999D01*
X216382372Y-95343598D01*
X216382379Y-95343596D01*
X216517086Y-95293354D01*
X216517093Y-95293350D01*
X216632187Y-95207190D01*
X216632190Y-95207187D01*
X216718350Y-95092093D01*
X216718354Y-95092086D01*
X216768596Y-94957379D01*
X216768598Y-94957372D01*
X216774999Y-94897844D01*
X216775000Y-94897827D01*
X216775000Y-94250000D01*
X215858686Y-94250000D01*
X215884493Y-94209844D01*
X215925000Y-94071889D01*
X215925000Y-93928111D01*
X215884493Y-93790156D01*
X215858686Y-93750000D01*
X216775000Y-93750000D01*
X216775000Y-93102172D01*
X216774999Y-93102155D01*
X216768598Y-93042627D01*
X216768596Y-93042620D01*
X216718354Y-92907913D01*
X216718350Y-92907906D01*
X216632190Y-92792812D01*
X216632187Y-92792809D01*
X216517093Y-92706649D01*
X216517086Y-92706645D01*
X216382379Y-92656403D01*
X216382372Y-92656401D01*
X216322844Y-92650000D01*
X215675000Y-92650000D01*
X215675000Y-93564498D01*
X215567315Y-93515320D01*
X215460763Y-93500000D01*
X215389237Y-93500000D01*
X215282685Y-93515320D01*
X215175000Y-93564498D01*
X215175000Y-92650000D01*
X214744500Y-92650000D01*
X214677461Y-92630315D01*
X214631706Y-92577511D01*
X214620500Y-92526000D01*
X214620500Y-91750452D01*
X214640185Y-91683413D01*
X214656819Y-91662771D01*
X214811827Y-91507763D01*
X221665787Y-91507763D01*
X221695413Y-91777013D01*
X221695415Y-91777024D01*
X221763926Y-92039082D01*
X221763928Y-92039088D01*
X221869870Y-92288390D01*
X221910920Y-92355652D01*
X222010979Y-92519605D01*
X222010986Y-92519615D01*
X222184253Y-92727819D01*
X222184259Y-92727824D01*
X222293792Y-92825965D01*
X222385998Y-92908582D01*
X222611910Y-93058044D01*
X222857176Y-93173020D01*
X222857183Y-93173022D01*
X222857185Y-93173023D01*
X223116557Y-93251057D01*
X223116564Y-93251058D01*
X223116569Y-93251060D01*
X223384561Y-93290500D01*
X223384566Y-93290500D01*
X223587636Y-93290500D01*
X223639133Y-93286730D01*
X223790156Y-93275677D01*
X223902758Y-93250593D01*
X224054546Y-93216782D01*
X224054548Y-93216781D01*
X224054553Y-93216780D01*
X224307558Y-93120014D01*
X224543777Y-92987441D01*
X224758177Y-92821888D01*
X224946186Y-92626881D01*
X225103799Y-92406579D01*
X225183232Y-92252080D01*
X225227649Y-92165690D01*
X225227651Y-92165684D01*
X225227656Y-92165675D01*
X225315118Y-91909305D01*
X225364319Y-91642933D01*
X225374212Y-91372235D01*
X225344586Y-91102982D01*
X225276072Y-90840912D01*
X225170130Y-90591610D01*
X225029018Y-90360390D01*
X225027845Y-90358981D01*
X224855746Y-90152180D01*
X224855740Y-90152175D01*
X224654002Y-89971418D01*
X224428092Y-89821957D01*
X224416598Y-89816569D01*
X224182824Y-89706980D01*
X224182819Y-89706978D01*
X224182814Y-89706976D01*
X223923442Y-89628942D01*
X223923428Y-89628939D01*
X223807791Y-89611921D01*
X223655439Y-89589500D01*
X223452369Y-89589500D01*
X223452364Y-89589500D01*
X223249844Y-89604323D01*
X223249831Y-89604325D01*
X222985453Y-89663217D01*
X222985446Y-89663220D01*
X222732439Y-89759987D01*
X222496226Y-89892557D01*
X222281822Y-90058112D01*
X222093822Y-90253109D01*
X222093816Y-90253116D01*
X221936202Y-90473419D01*
X221936199Y-90473424D01*
X221812350Y-90714309D01*
X221812343Y-90714327D01*
X221724884Y-90970685D01*
X221724881Y-90970699D01*
X221675681Y-91237068D01*
X221675680Y-91237075D01*
X221665787Y-91507763D01*
X214811827Y-91507763D01*
X216032772Y-90286818D01*
X216094095Y-90253333D01*
X216120453Y-90250499D01*
X216797871Y-90250499D01*
X216797872Y-90250499D01*
X216857483Y-90244091D01*
X216992331Y-90193796D01*
X217107546Y-90107546D01*
X217193796Y-89992331D01*
X217244091Y-89857483D01*
X217250500Y-89797873D01*
X217250499Y-88002128D01*
X217244091Y-87942517D01*
X217242810Y-87939083D01*
X217193797Y-87807671D01*
X217193793Y-87807664D01*
X217107547Y-87692455D01*
X217107544Y-87692452D01*
X216992335Y-87606206D01*
X216992328Y-87606202D01*
X216857482Y-87555908D01*
X216857483Y-87555908D01*
X216797883Y-87549501D01*
X216797881Y-87549500D01*
X216797873Y-87549500D01*
X216797864Y-87549500D01*
X215002129Y-87549500D01*
X215002123Y-87549501D01*
X214942516Y-87555908D01*
X214807671Y-87606202D01*
X214807664Y-87606206D01*
X214692455Y-87692452D01*
X214692452Y-87692455D01*
X214606206Y-87807664D01*
X214606203Y-87807669D01*
X214557189Y-87939083D01*
X214515317Y-87995016D01*
X214449853Y-88019433D01*
X214381580Y-88004581D01*
X214353326Y-87983430D01*
X214231402Y-87861506D01*
X214231395Y-87861501D01*
X214037834Y-87725967D01*
X214037830Y-87725965D01*
X214037828Y-87725964D01*
X213823663Y-87626097D01*
X213823659Y-87626096D01*
X213823655Y-87626094D01*
X213595413Y-87564938D01*
X213595403Y-87564936D01*
X213360001Y-87544341D01*
X213359999Y-87544341D01*
X213124596Y-87564936D01*
X213124586Y-87564938D01*
X212896344Y-87626094D01*
X212896335Y-87626098D01*
X212682171Y-87725964D01*
X212682169Y-87725965D01*
X212488597Y-87861505D01*
X212321506Y-88028596D01*
X212273874Y-88096623D01*
X212219297Y-88140248D01*
X212172299Y-88149500D01*
X204676230Y-88149500D01*
X204609191Y-88129815D01*
X204563436Y-88077011D01*
X204553492Y-88007853D01*
X204582517Y-87944297D01*
X204588549Y-87937819D01*
X205100868Y-87425500D01*
X210813293Y-81713072D01*
X210874614Y-81679589D01*
X210937521Y-81682263D01*
X211064385Y-81721396D01*
X211323818Y-81760500D01*
X211586182Y-81760500D01*
X211845615Y-81721396D01*
X212096323Y-81644063D01*
X212332704Y-81530228D01*
X212549479Y-81382433D01*
X212741805Y-81203981D01*
X212905386Y-80998857D01*
X213036568Y-80771643D01*
X213132420Y-80527416D01*
X213190802Y-80271630D01*
X213210408Y-80010004D01*
X214779592Y-80010004D01*
X214799196Y-80271620D01*
X214799197Y-80271625D01*
X214857576Y-80527402D01*
X214857578Y-80527408D01*
X214857580Y-80527416D01*
X214953432Y-80771643D01*
X215084614Y-80998857D01*
X215216736Y-81164533D01*
X215248198Y-81203985D01*
X215429753Y-81372441D01*
X215440521Y-81382433D01*
X215657296Y-81530228D01*
X215657301Y-81530230D01*
X215657302Y-81530231D01*
X215657303Y-81530232D01*
X215782843Y-81590688D01*
X215893673Y-81644061D01*
X215893674Y-81644061D01*
X215893677Y-81644063D01*
X216144385Y-81721396D01*
X216403818Y-81760500D01*
X216666182Y-81760500D01*
X216925615Y-81721396D01*
X217176323Y-81644063D01*
X217412704Y-81530228D01*
X217629479Y-81382433D01*
X217821805Y-81203981D01*
X217985386Y-80998857D01*
X218116568Y-80771643D01*
X218212420Y-80527416D01*
X218270802Y-80271630D01*
X218290408Y-80010004D01*
X219859592Y-80010004D01*
X219879196Y-80271620D01*
X219879197Y-80271625D01*
X219937576Y-80527402D01*
X219937578Y-80527408D01*
X219937580Y-80527416D01*
X220033432Y-80771643D01*
X220164614Y-80998857D01*
X220296736Y-81164533D01*
X220328198Y-81203985D01*
X220509753Y-81372441D01*
X220520521Y-81382433D01*
X220737296Y-81530228D01*
X220737301Y-81530230D01*
X220737302Y-81530231D01*
X220737303Y-81530232D01*
X220862843Y-81590688D01*
X220973673Y-81644061D01*
X220973674Y-81644061D01*
X220973677Y-81644063D01*
X221224385Y-81721396D01*
X221483818Y-81760500D01*
X221746182Y-81760500D01*
X222005615Y-81721396D01*
X222256323Y-81644063D01*
X222492704Y-81530228D01*
X222709479Y-81382433D01*
X222901805Y-81203981D01*
X223065386Y-80998857D01*
X223196568Y-80771643D01*
X223292420Y-80527416D01*
X223350802Y-80271630D01*
X223370408Y-80010000D01*
X223350802Y-79748370D01*
X223292420Y-79492584D01*
X223196568Y-79248357D01*
X223065386Y-79021143D01*
X222901805Y-78816019D01*
X222901804Y-78816018D01*
X222901801Y-78816014D01*
X222709479Y-78637567D01*
X222492704Y-78489772D01*
X222492700Y-78489770D01*
X222492697Y-78489768D01*
X222492696Y-78489767D01*
X222256325Y-78375938D01*
X222256327Y-78375938D01*
X222005623Y-78298606D01*
X222005619Y-78298605D01*
X222005615Y-78298604D01*
X221880823Y-78279794D01*
X221746187Y-78259500D01*
X221746182Y-78259500D01*
X221483818Y-78259500D01*
X221483812Y-78259500D01*
X221322247Y-78283853D01*
X221224385Y-78298604D01*
X221224382Y-78298605D01*
X221224376Y-78298606D01*
X220973673Y-78375938D01*
X220737303Y-78489767D01*
X220737302Y-78489768D01*
X220520520Y-78637567D01*
X220328198Y-78816014D01*
X220164614Y-79021143D01*
X220033432Y-79248356D01*
X219937582Y-79492578D01*
X219937576Y-79492597D01*
X219879197Y-79748374D01*
X219879196Y-79748379D01*
X219859592Y-80009995D01*
X219859592Y-80010004D01*
X218290408Y-80010004D01*
X218290408Y-80010000D01*
X218270802Y-79748370D01*
X218212420Y-79492584D01*
X218116568Y-79248357D01*
X217985386Y-79021143D01*
X217821805Y-78816019D01*
X217821804Y-78816018D01*
X217821801Y-78816014D01*
X217629479Y-78637567D01*
X217412704Y-78489772D01*
X217412700Y-78489770D01*
X217412697Y-78489768D01*
X217412696Y-78489767D01*
X217176325Y-78375938D01*
X217176327Y-78375938D01*
X216925623Y-78298606D01*
X216925619Y-78298605D01*
X216925615Y-78298604D01*
X216800823Y-78279794D01*
X216666187Y-78259500D01*
X216666182Y-78259500D01*
X216403818Y-78259500D01*
X216403812Y-78259500D01*
X216242247Y-78283853D01*
X216144385Y-78298604D01*
X216144382Y-78298605D01*
X216144376Y-78298606D01*
X215893673Y-78375938D01*
X215657303Y-78489767D01*
X215657302Y-78489768D01*
X215440520Y-78637567D01*
X215248198Y-78816014D01*
X215084614Y-79021143D01*
X214953432Y-79248356D01*
X214857582Y-79492578D01*
X214857576Y-79492597D01*
X214799197Y-79748374D01*
X214799196Y-79748379D01*
X214779592Y-80009995D01*
X214779592Y-80010004D01*
X213210408Y-80010004D01*
X213210408Y-80010000D01*
X213190802Y-79748370D01*
X213132420Y-79492584D01*
X213036568Y-79248357D01*
X212905386Y-79021143D01*
X212741805Y-78816019D01*
X212741804Y-78816018D01*
X212741801Y-78816014D01*
X212549479Y-78637567D01*
X212332704Y-78489772D01*
X212332700Y-78489770D01*
X212332697Y-78489768D01*
X212332696Y-78489767D01*
X212096325Y-78375938D01*
X212096327Y-78375938D01*
X211845623Y-78298606D01*
X211845619Y-78298605D01*
X211845615Y-78298604D01*
X211720823Y-78279794D01*
X211586187Y-78259500D01*
X211586182Y-78259500D01*
X211323818Y-78259500D01*
X211323812Y-78259500D01*
X211162247Y-78283853D01*
X211064385Y-78298604D01*
X211064382Y-78298605D01*
X211064376Y-78298606D01*
X210813673Y-78375938D01*
X210577303Y-78489767D01*
X210577302Y-78489768D01*
X210360520Y-78637567D01*
X210168198Y-78816014D01*
X210004614Y-79021143D01*
X209873432Y-79248356D01*
X209777582Y-79492578D01*
X209777576Y-79492597D01*
X209719197Y-79748374D01*
X209719196Y-79748379D01*
X209699592Y-80009995D01*
X209699592Y-80010004D01*
X209719196Y-80271620D01*
X209719197Y-80271625D01*
X209777577Y-80527408D01*
X209778809Y-80531400D01*
X209779760Y-80601264D01*
X209747999Y-80655632D01*
X202290451Y-88113181D01*
X202229128Y-88146666D01*
X202202770Y-88149500D01*
X202134499Y-88149500D01*
X202067460Y-88129815D01*
X202021705Y-88077011D01*
X202010499Y-88025500D01*
X202010499Y-88002129D01*
X202010498Y-88002123D01*
X202010265Y-87999956D01*
X202004091Y-87942517D01*
X202002810Y-87939083D01*
X201953797Y-87807671D01*
X201953793Y-87807664D01*
X201867547Y-87692455D01*
X201867544Y-87692452D01*
X201752335Y-87606206D01*
X201752328Y-87606202D01*
X201617482Y-87555908D01*
X201617483Y-87555908D01*
X201557883Y-87549501D01*
X201557881Y-87549500D01*
X201557873Y-87549500D01*
X201557864Y-87549500D01*
X199762129Y-87549500D01*
X199762123Y-87549501D01*
X199702516Y-87555908D01*
X199567671Y-87606202D01*
X199567664Y-87606206D01*
X199452455Y-87692452D01*
X199452452Y-87692455D01*
X199366206Y-87807664D01*
X199366203Y-87807669D01*
X199317189Y-87939083D01*
X199275317Y-87995016D01*
X199209853Y-88019433D01*
X199141580Y-88004581D01*
X199113326Y-87983430D01*
X198991402Y-87861506D01*
X198991395Y-87861501D01*
X198797834Y-87725967D01*
X198797830Y-87725965D01*
X198797828Y-87725964D01*
X198583663Y-87626097D01*
X198583659Y-87626096D01*
X198583655Y-87626094D01*
X198355413Y-87564938D01*
X198355403Y-87564936D01*
X198120001Y-87544341D01*
X198119999Y-87544341D01*
X197884596Y-87564936D01*
X197884586Y-87564938D01*
X197656344Y-87626094D01*
X197656335Y-87626098D01*
X197442171Y-87725964D01*
X197442169Y-87725965D01*
X197248597Y-87861505D01*
X197081506Y-88028596D01*
X197033874Y-88096623D01*
X196979297Y-88140248D01*
X196932299Y-88149500D01*
X192468705Y-88149500D01*
X192450735Y-88148191D01*
X192426972Y-88144710D01*
X192381890Y-88148655D01*
X192374933Y-88149264D01*
X192369532Y-88149500D01*
X192361288Y-88149500D01*
X192328707Y-88153308D01*
X192252199Y-88160001D01*
X192245133Y-88161461D01*
X192245121Y-88161404D01*
X192237754Y-88163038D01*
X192237768Y-88163094D01*
X192230751Y-88164756D01*
X192158573Y-88191026D01*
X192085662Y-88215187D01*
X192079119Y-88218238D01*
X192079094Y-88218186D01*
X192072314Y-88221468D01*
X192072340Y-88221520D01*
X192065881Y-88224764D01*
X192001709Y-88266970D01*
X191936345Y-88307288D01*
X191930677Y-88311770D01*
X191930641Y-88311724D01*
X191924798Y-88316484D01*
X191924835Y-88316528D01*
X191919310Y-88321164D01*
X191866597Y-88377035D01*
X189952680Y-90290950D01*
X189891357Y-90324435D01*
X189821665Y-90319451D01*
X189777318Y-90290950D01*
X187900729Y-88414361D01*
X187888949Y-88400730D01*
X187881482Y-88390701D01*
X187874612Y-88381472D01*
X187874610Y-88381470D01*
X187834587Y-88347886D01*
X187830612Y-88344244D01*
X187827690Y-88341322D01*
X187824780Y-88338411D01*
X187799040Y-88318059D01*
X187740209Y-88268694D01*
X187734180Y-88264729D01*
X187734212Y-88264680D01*
X187727853Y-88260628D01*
X187727822Y-88260679D01*
X187721680Y-88256891D01*
X187721678Y-88256890D01*
X187721677Y-88256889D01*
X187682474Y-88238608D01*
X187652058Y-88224424D01*
X187617894Y-88207267D01*
X187583433Y-88189960D01*
X187583431Y-88189959D01*
X187583430Y-88189959D01*
X187576645Y-88187489D01*
X187576665Y-88187433D01*
X187569549Y-88184959D01*
X187569531Y-88185015D01*
X187562670Y-88182741D01*
X187509882Y-88171842D01*
X187487434Y-88167207D01*
X187482706Y-88166086D01*
X187422013Y-88131475D01*
X187389667Y-88069543D01*
X187395939Y-87999956D01*
X187423617Y-87957750D01*
X193668293Y-81713072D01*
X193729614Y-81679589D01*
X193792521Y-81682263D01*
X193919385Y-81721396D01*
X194178818Y-81760500D01*
X194441182Y-81760500D01*
X194700615Y-81721396D01*
X194951323Y-81644063D01*
X195187704Y-81530228D01*
X195404479Y-81382433D01*
X195596805Y-81203981D01*
X195760386Y-80998857D01*
X195891568Y-80771643D01*
X195987420Y-80527416D01*
X196045802Y-80271630D01*
X196065408Y-80010004D01*
X197634592Y-80010004D01*
X197654196Y-80271620D01*
X197654197Y-80271625D01*
X197712576Y-80527402D01*
X197712578Y-80527408D01*
X197712580Y-80527416D01*
X197808432Y-80771643D01*
X197939614Y-80998857D01*
X198071736Y-81164533D01*
X198103198Y-81203985D01*
X198284753Y-81372441D01*
X198295521Y-81382433D01*
X198512296Y-81530228D01*
X198512301Y-81530230D01*
X198512302Y-81530231D01*
X198512303Y-81530232D01*
X198637843Y-81590688D01*
X198748673Y-81644061D01*
X198748674Y-81644061D01*
X198748677Y-81644063D01*
X198999385Y-81721396D01*
X199258818Y-81760500D01*
X199521182Y-81760500D01*
X199780615Y-81721396D01*
X200031323Y-81644063D01*
X200267704Y-81530228D01*
X200484479Y-81382433D01*
X200676805Y-81203981D01*
X200840386Y-80998857D01*
X200971568Y-80771643D01*
X201067420Y-80527416D01*
X201125802Y-80271630D01*
X201145408Y-80010004D01*
X202714592Y-80010004D01*
X202734196Y-80271620D01*
X202734197Y-80271625D01*
X202792576Y-80527402D01*
X202792578Y-80527408D01*
X202792580Y-80527416D01*
X202888432Y-80771643D01*
X203019614Y-80998857D01*
X203151736Y-81164533D01*
X203183198Y-81203985D01*
X203364753Y-81372441D01*
X203375521Y-81382433D01*
X203592296Y-81530228D01*
X203592301Y-81530230D01*
X203592302Y-81530231D01*
X203592303Y-81530232D01*
X203717843Y-81590688D01*
X203828673Y-81644061D01*
X203828674Y-81644061D01*
X203828677Y-81644063D01*
X204079385Y-81721396D01*
X204338818Y-81760500D01*
X204601182Y-81760500D01*
X204860615Y-81721396D01*
X205111323Y-81644063D01*
X205347704Y-81530228D01*
X205564479Y-81382433D01*
X205756805Y-81203981D01*
X205920386Y-80998857D01*
X206051568Y-80771643D01*
X206147420Y-80527416D01*
X206205802Y-80271630D01*
X206225408Y-80010000D01*
X206205802Y-79748370D01*
X206147420Y-79492584D01*
X206051568Y-79248357D01*
X205920386Y-79021143D01*
X205756805Y-78816019D01*
X205756804Y-78816018D01*
X205756801Y-78816014D01*
X205564479Y-78637567D01*
X205347704Y-78489772D01*
X205347700Y-78489770D01*
X205347697Y-78489768D01*
X205347696Y-78489767D01*
X205111325Y-78375938D01*
X205111327Y-78375938D01*
X204860623Y-78298606D01*
X204860619Y-78298605D01*
X204860615Y-78298604D01*
X204735823Y-78279794D01*
X204601187Y-78259500D01*
X204601182Y-78259500D01*
X204338818Y-78259500D01*
X204338812Y-78259500D01*
X204177247Y-78283853D01*
X204079385Y-78298604D01*
X204079382Y-78298605D01*
X204079376Y-78298606D01*
X203828673Y-78375938D01*
X203592303Y-78489767D01*
X203592302Y-78489768D01*
X203375520Y-78637567D01*
X203183198Y-78816014D01*
X203019614Y-79021143D01*
X202888432Y-79248356D01*
X202792582Y-79492578D01*
X202792576Y-79492597D01*
X202734197Y-79748374D01*
X202734196Y-79748379D01*
X202714592Y-80009995D01*
X202714592Y-80010004D01*
X201145408Y-80010004D01*
X201145408Y-80010000D01*
X201125802Y-79748370D01*
X201067420Y-79492584D01*
X200971568Y-79248357D01*
X200840386Y-79021143D01*
X200676805Y-78816019D01*
X200676804Y-78816018D01*
X200676801Y-78816014D01*
X200484479Y-78637567D01*
X200267704Y-78489772D01*
X200267700Y-78489770D01*
X200267697Y-78489768D01*
X200267696Y-78489767D01*
X200031325Y-78375938D01*
X200031327Y-78375938D01*
X199780623Y-78298606D01*
X199780619Y-78298605D01*
X199780615Y-78298604D01*
X199655823Y-78279794D01*
X199521187Y-78259500D01*
X199521182Y-78259500D01*
X199258818Y-78259500D01*
X199258812Y-78259500D01*
X199097247Y-78283853D01*
X198999385Y-78298604D01*
X198999382Y-78298605D01*
X198999376Y-78298606D01*
X198748673Y-78375938D01*
X198512303Y-78489767D01*
X198512302Y-78489768D01*
X198295520Y-78637567D01*
X198103198Y-78816014D01*
X197939614Y-79021143D01*
X197808432Y-79248356D01*
X197712582Y-79492578D01*
X197712576Y-79492597D01*
X197654197Y-79748374D01*
X197654196Y-79748379D01*
X197634592Y-80009995D01*
X197634592Y-80010004D01*
X196065408Y-80010004D01*
X196065408Y-80010000D01*
X196045802Y-79748370D01*
X195987420Y-79492584D01*
X195891568Y-79248357D01*
X195760386Y-79021143D01*
X195596805Y-78816019D01*
X195596804Y-78816018D01*
X195596801Y-78816014D01*
X195404479Y-78637567D01*
X195187704Y-78489772D01*
X195187700Y-78489770D01*
X195187697Y-78489768D01*
X195187696Y-78489767D01*
X194951325Y-78375938D01*
X194951327Y-78375938D01*
X194700623Y-78298606D01*
X194700619Y-78298605D01*
X194700615Y-78298604D01*
X194575823Y-78279794D01*
X194441187Y-78259500D01*
X194441182Y-78259500D01*
X194178818Y-78259500D01*
X194178812Y-78259500D01*
X194017247Y-78283853D01*
X193919385Y-78298604D01*
X193919382Y-78298605D01*
X193919376Y-78298606D01*
X193668673Y-78375938D01*
X193432303Y-78489767D01*
X193432302Y-78489768D01*
X193215520Y-78637567D01*
X193023198Y-78816014D01*
X192859614Y-79021143D01*
X192728432Y-79248356D01*
X192632582Y-79492578D01*
X192632576Y-79492597D01*
X192574197Y-79748374D01*
X192574196Y-79748379D01*
X192554592Y-80009995D01*
X192554592Y-80010004D01*
X192574196Y-80271620D01*
X192574197Y-80271625D01*
X192632577Y-80527408D01*
X192633809Y-80531400D01*
X192634760Y-80601264D01*
X192602999Y-80655632D01*
X185548052Y-87710578D01*
X185486729Y-87744063D01*
X185417037Y-87739079D01*
X185361104Y-87697207D01*
X185357546Y-87692454D01*
X185357545Y-87692453D01*
X185357544Y-87692452D01*
X185242335Y-87606206D01*
X185242328Y-87606202D01*
X185107482Y-87555908D01*
X185107483Y-87555908D01*
X185047883Y-87549501D01*
X185047881Y-87549500D01*
X185047873Y-87549500D01*
X185047864Y-87549500D01*
X183252129Y-87549500D01*
X183252123Y-87549501D01*
X183192516Y-87555908D01*
X183057671Y-87606202D01*
X183057664Y-87606206D01*
X182942455Y-87692452D01*
X182942452Y-87692455D01*
X182856206Y-87807664D01*
X182856203Y-87807669D01*
X182807189Y-87939083D01*
X182765317Y-87995016D01*
X182699853Y-88019433D01*
X182631580Y-88004581D01*
X182603326Y-87983430D01*
X182481402Y-87861506D01*
X182481395Y-87861501D01*
X182287834Y-87725967D01*
X182287830Y-87725965D01*
X182287828Y-87725964D01*
X182073663Y-87626097D01*
X182073659Y-87626096D01*
X182073655Y-87626094D01*
X181845413Y-87564938D01*
X181845403Y-87564936D01*
X181610001Y-87544341D01*
X181609999Y-87544341D01*
X181374596Y-87564936D01*
X181374586Y-87564938D01*
X181146344Y-87626094D01*
X181146335Y-87626098D01*
X180932171Y-87725964D01*
X180932169Y-87725965D01*
X180738597Y-87861505D01*
X180571505Y-88028597D01*
X180435965Y-88222169D01*
X180435964Y-88222171D01*
X180336098Y-88436335D01*
X180336094Y-88436344D01*
X180274938Y-88664586D01*
X180274936Y-88664596D01*
X180254341Y-88899999D01*
X180254341Y-88900000D01*
X180274936Y-89135403D01*
X180274938Y-89135413D01*
X180336094Y-89363655D01*
X180336096Y-89363659D01*
X180336097Y-89363663D01*
X180411623Y-89525628D01*
X180435965Y-89577830D01*
X180435967Y-89577834D01*
X180512280Y-89686819D01*
X180571505Y-89771401D01*
X180738599Y-89938495D01*
X180835384Y-90006265D01*
X180932165Y-90074032D01*
X180932167Y-90074033D01*
X180932170Y-90074035D01*
X181146337Y-90173903D01*
X181374592Y-90235063D01*
X181551034Y-90250500D01*
X181609999Y-90255659D01*
X181610000Y-90255659D01*
X181610001Y-90255659D01*
X181668966Y-90250500D01*
X181845408Y-90235063D01*
X182073663Y-90173903D01*
X182287830Y-90074035D01*
X182481401Y-89938495D01*
X182603329Y-89816566D01*
X182664648Y-89783084D01*
X182734340Y-89788068D01*
X182790274Y-89829939D01*
X182807189Y-89860917D01*
X182856202Y-89992328D01*
X182856206Y-89992335D01*
X182942452Y-90107544D01*
X182942455Y-90107547D01*
X183057664Y-90193793D01*
X183057671Y-90193797D01*
X183192517Y-90244091D01*
X183192516Y-90244091D01*
X183199444Y-90244835D01*
X183252127Y-90250500D01*
X185047872Y-90250499D01*
X185107483Y-90244091D01*
X185242331Y-90193796D01*
X185357546Y-90107546D01*
X185443796Y-89992331D01*
X185494091Y-89857483D01*
X185500500Y-89797873D01*
X185500500Y-89774500D01*
X185520185Y-89707461D01*
X185572989Y-89661706D01*
X185624500Y-89650500D01*
X186962770Y-89650500D01*
X187029809Y-89670185D01*
X187050451Y-89686819D01*
X189078181Y-91714548D01*
X189111666Y-91775871D01*
X189114500Y-91802229D01*
X189114500Y-92185041D01*
X189094815Y-92252080D01*
X189042011Y-92297835D01*
X188972853Y-92307779D01*
X188945706Y-92300668D01*
X188897459Y-92281977D01*
X188897458Y-92281976D01*
X188897456Y-92281976D01*
X188696976Y-92244500D01*
X188696974Y-92244500D01*
X188607229Y-92244500D01*
X188540190Y-92224815D01*
X188519548Y-92208181D01*
X188010457Y-91699090D01*
X187485729Y-91174361D01*
X187473949Y-91160730D01*
X187466482Y-91150701D01*
X187459612Y-91141472D01*
X187459610Y-91141470D01*
X187419587Y-91107886D01*
X187415612Y-91104244D01*
X187412690Y-91101322D01*
X187409780Y-91098411D01*
X187384040Y-91078059D01*
X187330721Y-91033319D01*
X187325214Y-91028698D01*
X187325213Y-91028697D01*
X187325209Y-91028694D01*
X187319180Y-91024729D01*
X187319212Y-91024680D01*
X187312853Y-91020628D01*
X187312822Y-91020679D01*
X187306680Y-91016891D01*
X187306678Y-91016890D01*
X187306677Y-91016889D01*
X187267474Y-90998608D01*
X187237058Y-90984424D01*
X187176901Y-90954213D01*
X187168433Y-90949960D01*
X187168431Y-90949959D01*
X187168430Y-90949959D01*
X187161645Y-90947489D01*
X187161665Y-90947433D01*
X187154549Y-90944959D01*
X187154531Y-90945015D01*
X187147671Y-90942742D01*
X187119841Y-90936996D01*
X187072434Y-90927207D01*
X187023472Y-90915603D01*
X186997719Y-90909499D01*
X186990547Y-90908661D01*
X186990553Y-90908601D01*
X186983055Y-90907835D01*
X186983050Y-90907895D01*
X186975860Y-90907265D01*
X186899083Y-90909500D01*
X184668705Y-90909500D01*
X184650735Y-90908191D01*
X184626972Y-90904710D01*
X184581890Y-90908655D01*
X184574933Y-90909264D01*
X184569532Y-90909500D01*
X184561288Y-90909500D01*
X184528707Y-90913308D01*
X184452199Y-90920001D01*
X184445133Y-90921461D01*
X184445121Y-90921404D01*
X184437754Y-90923038D01*
X184437768Y-90923094D01*
X184430751Y-90924756D01*
X184361505Y-90949959D01*
X184358573Y-90951026D01*
X184299206Y-90970699D01*
X184285662Y-90975187D01*
X184279119Y-90978238D01*
X184279094Y-90978186D01*
X184272314Y-90981468D01*
X184272340Y-90981520D01*
X184265881Y-90984764D01*
X184201709Y-91026970D01*
X184136345Y-91067288D01*
X184130677Y-91071770D01*
X184130641Y-91071724D01*
X184124798Y-91076484D01*
X184124835Y-91076528D01*
X184119310Y-91081164D01*
X184119304Y-91081169D01*
X184119304Y-91081170D01*
X184103040Y-91098409D01*
X184066597Y-91137035D01*
X181112145Y-94091485D01*
X181050822Y-94124970D01*
X180981130Y-94119986D01*
X180948307Y-94101660D01*
X180823509Y-94004526D01*
X180699499Y-93937415D01*
X180604811Y-93886172D01*
X180604802Y-93886169D01*
X180369616Y-93805429D01*
X180124335Y-93764500D01*
X179875665Y-93764500D01*
X179630383Y-93805429D01*
X179464763Y-93862287D01*
X179394964Y-93865437D01*
X179334543Y-93830351D01*
X179302682Y-93768168D01*
X179300500Y-93745006D01*
X179300500Y-84067228D01*
X179320185Y-84000189D01*
X179336814Y-83979552D01*
X181603293Y-81713072D01*
X181664614Y-81679589D01*
X181727521Y-81682263D01*
X181854385Y-81721396D01*
X182113818Y-81760500D01*
X182376182Y-81760500D01*
X182635615Y-81721396D01*
X182886323Y-81644063D01*
X183122704Y-81530228D01*
X183339479Y-81382433D01*
X183531805Y-81203981D01*
X183695386Y-80998857D01*
X183826568Y-80771643D01*
X183922420Y-80527416D01*
X183980802Y-80271630D01*
X184000408Y-80010004D01*
X185569592Y-80010004D01*
X185589196Y-80271620D01*
X185589197Y-80271625D01*
X185647576Y-80527402D01*
X185647578Y-80527408D01*
X185647580Y-80527416D01*
X185743432Y-80771643D01*
X185874614Y-80998857D01*
X186006736Y-81164533D01*
X186038198Y-81203985D01*
X186219753Y-81372441D01*
X186230521Y-81382433D01*
X186447296Y-81530228D01*
X186447301Y-81530230D01*
X186447302Y-81530231D01*
X186447303Y-81530232D01*
X186572843Y-81590688D01*
X186683673Y-81644061D01*
X186683674Y-81644061D01*
X186683677Y-81644063D01*
X186934385Y-81721396D01*
X187193818Y-81760500D01*
X187456182Y-81760500D01*
X187715615Y-81721396D01*
X187966323Y-81644063D01*
X188202704Y-81530228D01*
X188419479Y-81382433D01*
X188611805Y-81203981D01*
X188775386Y-80998857D01*
X188906568Y-80771643D01*
X189002420Y-80527416D01*
X189060802Y-80271630D01*
X189080408Y-80010000D01*
X189060802Y-79748370D01*
X189002420Y-79492584D01*
X188906568Y-79248357D01*
X188775386Y-79021143D01*
X188611805Y-78816019D01*
X188611804Y-78816018D01*
X188611801Y-78816014D01*
X188419479Y-78637567D01*
X188202704Y-78489772D01*
X188202700Y-78489770D01*
X188202697Y-78489768D01*
X188202696Y-78489767D01*
X187966325Y-78375938D01*
X187966327Y-78375938D01*
X187715623Y-78298606D01*
X187715619Y-78298605D01*
X187715615Y-78298604D01*
X187590823Y-78279794D01*
X187456187Y-78259500D01*
X187456182Y-78259500D01*
X187193818Y-78259500D01*
X187193812Y-78259500D01*
X187032247Y-78283853D01*
X186934385Y-78298604D01*
X186934382Y-78298605D01*
X186934376Y-78298606D01*
X186683673Y-78375938D01*
X186447303Y-78489767D01*
X186447302Y-78489768D01*
X186230520Y-78637567D01*
X186038198Y-78816014D01*
X185874614Y-79021143D01*
X185743432Y-79248356D01*
X185647582Y-79492578D01*
X185647576Y-79492597D01*
X185589197Y-79748374D01*
X185589196Y-79748379D01*
X185569592Y-80009995D01*
X185569592Y-80010004D01*
X184000408Y-80010004D01*
X184000408Y-80010000D01*
X183980802Y-79748370D01*
X183922420Y-79492584D01*
X183826568Y-79248357D01*
X183695386Y-79021143D01*
X183531805Y-78816019D01*
X183531804Y-78816018D01*
X183531801Y-78816014D01*
X183339479Y-78637567D01*
X183122704Y-78489772D01*
X183122700Y-78489770D01*
X183122697Y-78489768D01*
X183122696Y-78489767D01*
X182886325Y-78375938D01*
X182886327Y-78375938D01*
X182635623Y-78298606D01*
X182635619Y-78298605D01*
X182635615Y-78298604D01*
X182510823Y-78279794D01*
X182376187Y-78259500D01*
X182376182Y-78259500D01*
X182113818Y-78259500D01*
X182113812Y-78259500D01*
X181952247Y-78283853D01*
X181854385Y-78298604D01*
X181854382Y-78298605D01*
X181854376Y-78298606D01*
X181603673Y-78375938D01*
X181367303Y-78489767D01*
X181367302Y-78489768D01*
X181150520Y-78637567D01*
X180958198Y-78816014D01*
X180794614Y-79021143D01*
X180663432Y-79248356D01*
X180567582Y-79492578D01*
X180567576Y-79492597D01*
X180509197Y-79748374D01*
X180509196Y-79748379D01*
X180489592Y-80009995D01*
X180489592Y-80010004D01*
X180509196Y-80271620D01*
X180509197Y-80271625D01*
X180567579Y-80527414D01*
X180568812Y-80531413D01*
X180569755Y-80601276D01*
X180537998Y-80655632D01*
X178064358Y-83129272D01*
X178050729Y-83141051D01*
X178031468Y-83155390D01*
X177997898Y-83195397D01*
X177994253Y-83199376D01*
X177988409Y-83205222D01*
X177968059Y-83230959D01*
X177918695Y-83289789D01*
X177914729Y-83295819D01*
X177914682Y-83295788D01*
X177910630Y-83302147D01*
X177910679Y-83302177D01*
X177906889Y-83308321D01*
X177874424Y-83377941D01*
X177839960Y-83446566D01*
X177837488Y-83453357D01*
X177837432Y-83453336D01*
X177834960Y-83460450D01*
X177835015Y-83460469D01*
X177832742Y-83467327D01*
X177824975Y-83504946D01*
X177817207Y-83542565D01*
X177804001Y-83598284D01*
X177799498Y-83617286D01*
X177798661Y-83624454D01*
X177798601Y-83624447D01*
X177797835Y-83631945D01*
X177797895Y-83631951D01*
X177797265Y-83639140D01*
X177799500Y-83715916D01*
X177799500Y-103641294D01*
X177798191Y-103659263D01*
X177794710Y-103683025D01*
X177799264Y-103735064D01*
X177799500Y-103740470D01*
X177799500Y-103748709D01*
X177803306Y-103781274D01*
X177810000Y-103857791D01*
X177811461Y-103864867D01*
X177811403Y-103864878D01*
X177813034Y-103872237D01*
X177813092Y-103872224D01*
X177814757Y-103879250D01*
X177841025Y-103951424D01*
X177865185Y-104024331D01*
X177868236Y-104030874D01*
X177868182Y-104030898D01*
X177871470Y-104037688D01*
X177871521Y-104037663D01*
X177874761Y-104044113D01*
X177874762Y-104044114D01*
X177874763Y-104044117D01*
X177890954Y-104068734D01*
X177916965Y-104108283D01*
X177957287Y-104173655D01*
X177961766Y-104179319D01*
X177961719Y-104179356D01*
X177966482Y-104185202D01*
X177966528Y-104185164D01*
X177971173Y-104190700D01*
X178009800Y-104227142D01*
X178027018Y-104243386D01*
X178257995Y-104474363D01*
X178463181Y-104679548D01*
X178496666Y-104740871D01*
X178499500Y-104767229D01*
X178499500Y-106217065D01*
X178514890Y-106402813D01*
X178514892Y-106402824D01*
X178575936Y-106643881D01*
X178675826Y-106871606D01*
X178811833Y-107079782D01*
X178951055Y-107231017D01*
X178981977Y-107293672D01*
X178974117Y-107363098D01*
X178951055Y-107398982D01*
X178940648Y-107410288D01*
X178811833Y-107550217D01*
X178675826Y-107758393D01*
X178575936Y-107986118D01*
X178514892Y-108227175D01*
X178514890Y-108227186D01*
X178499500Y-108412935D01*
X178499500Y-109663927D01*
X178479815Y-109730966D01*
X178427011Y-109776721D01*
X178357853Y-109786665D01*
X178294297Y-109757640D01*
X178287819Y-109751608D01*
X174776819Y-106240608D01*
X174743334Y-106179285D01*
X174740500Y-106152927D01*
X174740500Y-90374499D01*
X174760185Y-90307460D01*
X174812989Y-90261705D01*
X174864500Y-90250499D01*
X174887871Y-90250499D01*
X174887872Y-90250499D01*
X174947483Y-90244091D01*
X175082331Y-90193796D01*
X175197546Y-90107546D01*
X175283796Y-89992331D01*
X175334091Y-89857483D01*
X175340500Y-89797873D01*
X175340499Y-88002128D01*
X175334091Y-87942517D01*
X175332810Y-87939083D01*
X175283797Y-87807671D01*
X175283793Y-87807664D01*
X175197547Y-87692455D01*
X175197544Y-87692452D01*
X175082335Y-87606206D01*
X175082328Y-87606202D01*
X174947482Y-87555908D01*
X174947483Y-87555908D01*
X174887883Y-87549501D01*
X174887881Y-87549500D01*
X174887873Y-87549500D01*
X174887865Y-87549500D01*
X174864500Y-87549500D01*
X174797461Y-87529815D01*
X174751706Y-87477011D01*
X174740500Y-87425500D01*
X174740500Y-83547229D01*
X174760185Y-83480190D01*
X174776814Y-83459553D01*
X176523294Y-81713072D01*
X176584615Y-81679589D01*
X176647522Y-81682263D01*
X176774385Y-81721396D01*
X177033818Y-81760500D01*
X177296182Y-81760500D01*
X177555615Y-81721396D01*
X177806323Y-81644063D01*
X178042704Y-81530228D01*
X178259479Y-81382433D01*
X178451805Y-81203981D01*
X178615386Y-80998857D01*
X178746568Y-80771643D01*
X178842420Y-80527416D01*
X178900802Y-80271630D01*
X178920408Y-80010000D01*
X178900802Y-79748370D01*
X178842420Y-79492584D01*
X178746568Y-79248357D01*
X178615386Y-79021143D01*
X178451805Y-78816019D01*
X178451804Y-78816018D01*
X178451801Y-78816014D01*
X178259479Y-78637567D01*
X178042704Y-78489772D01*
X178042700Y-78489770D01*
X178042697Y-78489768D01*
X178042696Y-78489767D01*
X177806325Y-78375938D01*
X177806327Y-78375938D01*
X177555623Y-78298606D01*
X177555619Y-78298605D01*
X177555615Y-78298604D01*
X177430823Y-78279794D01*
X177296187Y-78259500D01*
X177296182Y-78259500D01*
X177033818Y-78259500D01*
X177033812Y-78259500D01*
X176872247Y-78283853D01*
X176774385Y-78298604D01*
X176774382Y-78298605D01*
X176774376Y-78298606D01*
X176523673Y-78375938D01*
X176287303Y-78489767D01*
X176287302Y-78489768D01*
X176070520Y-78637567D01*
X175878198Y-78816014D01*
X175714614Y-79021143D01*
X175583432Y-79248356D01*
X175487582Y-79492578D01*
X175487576Y-79492597D01*
X175429197Y-79748374D01*
X175429196Y-79748379D01*
X175409592Y-80009995D01*
X175409592Y-80010004D01*
X175429196Y-80271620D01*
X175429197Y-80271625D01*
X175487579Y-80527414D01*
X175488812Y-80531413D01*
X175489755Y-80601276D01*
X175457998Y-80655632D01*
X173504358Y-82609272D01*
X173490729Y-82621051D01*
X173471468Y-82635390D01*
X173437898Y-82675397D01*
X173434253Y-82679376D01*
X173428409Y-82685222D01*
X173408059Y-82710959D01*
X173358695Y-82769789D01*
X173354729Y-82775819D01*
X173354682Y-82775788D01*
X173350630Y-82782147D01*
X173350679Y-82782177D01*
X173346889Y-82788321D01*
X173314424Y-82857941D01*
X173279960Y-82926566D01*
X173277488Y-82933357D01*
X173277432Y-82933336D01*
X173274960Y-82940450D01*
X173275015Y-82940469D01*
X173272742Y-82947327D01*
X173264975Y-82984946D01*
X173257207Y-83022565D01*
X173244001Y-83078284D01*
X173239498Y-83097286D01*
X173238661Y-83104454D01*
X173238601Y-83104447D01*
X173237835Y-83111945D01*
X173237895Y-83111951D01*
X173237265Y-83119140D01*
X173239500Y-83195916D01*
X173239500Y-87425500D01*
X173219815Y-87492539D01*
X173167011Y-87538294D01*
X173115505Y-87549500D01*
X173092132Y-87549500D01*
X173092123Y-87549501D01*
X173032516Y-87555908D01*
X172897671Y-87606202D01*
X172897664Y-87606206D01*
X172782455Y-87692452D01*
X172782452Y-87692455D01*
X172696206Y-87807664D01*
X172696203Y-87807669D01*
X172647189Y-87939083D01*
X172605317Y-87995016D01*
X172539853Y-88019433D01*
X172471580Y-88004581D01*
X172443326Y-87983430D01*
X172321402Y-87861506D01*
X172321395Y-87861501D01*
X172127834Y-87725967D01*
X172127830Y-87725965D01*
X172127828Y-87725964D01*
X171913663Y-87626097D01*
X171913659Y-87626096D01*
X171913655Y-87626094D01*
X171685413Y-87564938D01*
X171685403Y-87564936D01*
X171450001Y-87544341D01*
X171449999Y-87544341D01*
X171214596Y-87564936D01*
X171214586Y-87564938D01*
X170986344Y-87626094D01*
X170986335Y-87626098D01*
X170772171Y-87725964D01*
X170772169Y-87725965D01*
X170578597Y-87861505D01*
X170411505Y-88028597D01*
X170275554Y-88222757D01*
X170220977Y-88266382D01*
X170151479Y-88273576D01*
X170089124Y-88242053D01*
X170053710Y-88181823D01*
X170049979Y-88151634D01*
X170049979Y-81884500D01*
X170069664Y-81817461D01*
X170122468Y-81771706D01*
X170173979Y-81760500D01*
X170311182Y-81760500D01*
X170570615Y-81721396D01*
X170821323Y-81644063D01*
X171057704Y-81530228D01*
X171274479Y-81382433D01*
X171466805Y-81203981D01*
X171630386Y-80998857D01*
X171761568Y-80771643D01*
X171857420Y-80527416D01*
X171915802Y-80271630D01*
X171935408Y-80010000D01*
X171915802Y-79748370D01*
X171857420Y-79492584D01*
X171761568Y-79248357D01*
X171630386Y-79021143D01*
X171466805Y-78816019D01*
X171466804Y-78816018D01*
X171466801Y-78816014D01*
X171274479Y-78637567D01*
X171057704Y-78489772D01*
X171057700Y-78489770D01*
X171057697Y-78489768D01*
X171057696Y-78489767D01*
X170821325Y-78375938D01*
X170821327Y-78375938D01*
X170570623Y-78298606D01*
X170570619Y-78298605D01*
X170570615Y-78298604D01*
X170445823Y-78279794D01*
X170311187Y-78259500D01*
X170311182Y-78259500D01*
X170048818Y-78259500D01*
X170048812Y-78259500D01*
X169887247Y-78283853D01*
X169789385Y-78298604D01*
X169789382Y-78298605D01*
X169789376Y-78298606D01*
X169538673Y-78375938D01*
X169302303Y-78489767D01*
X169302302Y-78489768D01*
X169085520Y-78637567D01*
X168893198Y-78816014D01*
X168729614Y-79021143D01*
X168598432Y-79248356D01*
X168502582Y-79492578D01*
X168502576Y-79492597D01*
X168444197Y-79748374D01*
X168444196Y-79748379D01*
X168424592Y-80009995D01*
X168424592Y-80010004D01*
X166855408Y-80010004D01*
X166855408Y-80010000D01*
X166835802Y-79748370D01*
X166777420Y-79492584D01*
X166681568Y-79248357D01*
X166550386Y-79021143D01*
X166386805Y-78816019D01*
X166386804Y-78816018D01*
X166386801Y-78816014D01*
X166194479Y-78637567D01*
X165977704Y-78489772D01*
X165977700Y-78489770D01*
X165977697Y-78489768D01*
X165977696Y-78489767D01*
X165741325Y-78375938D01*
X165741327Y-78375938D01*
X165490623Y-78298606D01*
X165490619Y-78298605D01*
X165490615Y-78298604D01*
X165365823Y-78279794D01*
X165231187Y-78259500D01*
X165231182Y-78259500D01*
X164968818Y-78259500D01*
X164968812Y-78259500D01*
X164807247Y-78283853D01*
X164709385Y-78298604D01*
X164709382Y-78298605D01*
X164709376Y-78298606D01*
X164458673Y-78375938D01*
X164222303Y-78489767D01*
X164222302Y-78489768D01*
X164005520Y-78637567D01*
X163813198Y-78816014D01*
X163649614Y-79021143D01*
X163518432Y-79248356D01*
X163422582Y-79492578D01*
X163422576Y-79492597D01*
X163364197Y-79748374D01*
X163364196Y-79748379D01*
X163344592Y-80009995D01*
X163344592Y-80010004D01*
X161775408Y-80010004D01*
X161775408Y-80010000D01*
X161755802Y-79748370D01*
X161697420Y-79492584D01*
X161601568Y-79248357D01*
X161470386Y-79021143D01*
X161306805Y-78816019D01*
X161306804Y-78816018D01*
X161306801Y-78816014D01*
X161114479Y-78637567D01*
X160897704Y-78489772D01*
X160897700Y-78489770D01*
X160897697Y-78489768D01*
X160897696Y-78489767D01*
X160661325Y-78375938D01*
X160661327Y-78375938D01*
X160410623Y-78298606D01*
X160410619Y-78298605D01*
X160410615Y-78298604D01*
X160285823Y-78279794D01*
X160151187Y-78259500D01*
X160151182Y-78259500D01*
X159888818Y-78259500D01*
X159888812Y-78259500D01*
X159727247Y-78283853D01*
X159629385Y-78298604D01*
X159629382Y-78298605D01*
X159629376Y-78298606D01*
X159378673Y-78375938D01*
X159142303Y-78489767D01*
X159142302Y-78489768D01*
X158925520Y-78637567D01*
X158733198Y-78816014D01*
X158569614Y-79021143D01*
X158438432Y-79248356D01*
X158342582Y-79492578D01*
X158342576Y-79492597D01*
X158284197Y-79748374D01*
X158284196Y-79748379D01*
X158264592Y-80009995D01*
X158264592Y-80010004D01*
X152400500Y-80010004D01*
X152400500Y-68647763D01*
X155625787Y-68647763D01*
X155655413Y-68917013D01*
X155655415Y-68917024D01*
X155723926Y-69179082D01*
X155723928Y-69179088D01*
X155829870Y-69428390D01*
X155901998Y-69546575D01*
X155970979Y-69659605D01*
X155970986Y-69659615D01*
X156144253Y-69867819D01*
X156144259Y-69867824D01*
X156345998Y-70048582D01*
X156571910Y-70198044D01*
X156817176Y-70313020D01*
X156817183Y-70313022D01*
X156817185Y-70313023D01*
X157076557Y-70391057D01*
X157076564Y-70391058D01*
X157076569Y-70391060D01*
X157344561Y-70430500D01*
X157344566Y-70430500D01*
X157547636Y-70430500D01*
X157599133Y-70426730D01*
X157750156Y-70415677D01*
X157862758Y-70390593D01*
X158014546Y-70356782D01*
X158014548Y-70356781D01*
X158014553Y-70356780D01*
X158267558Y-70260014D01*
X158503777Y-70127441D01*
X158718177Y-69961888D01*
X158906186Y-69766881D01*
X159063799Y-69546579D01*
X159137787Y-69402669D01*
X159187649Y-69305690D01*
X159187651Y-69305684D01*
X159187656Y-69305675D01*
X159275118Y-69049305D01*
X159324319Y-68782933D01*
X159329259Y-68647763D01*
X221665787Y-68647763D01*
X221695413Y-68917013D01*
X221695415Y-68917024D01*
X221763926Y-69179082D01*
X221763928Y-69179088D01*
X221869870Y-69428390D01*
X221941998Y-69546575D01*
X222010979Y-69659605D01*
X222010986Y-69659615D01*
X222184253Y-69867819D01*
X222184259Y-69867824D01*
X222385998Y-70048582D01*
X222611910Y-70198044D01*
X222857176Y-70313020D01*
X222857183Y-70313022D01*
X222857185Y-70313023D01*
X223116557Y-70391057D01*
X223116564Y-70391058D01*
X223116569Y-70391060D01*
X223384561Y-70430500D01*
X223384566Y-70430500D01*
X223587636Y-70430500D01*
X223639133Y-70426730D01*
X223790156Y-70415677D01*
X223902758Y-70390593D01*
X224054546Y-70356782D01*
X224054548Y-70356781D01*
X224054553Y-70356780D01*
X224307558Y-70260014D01*
X224543777Y-70127441D01*
X224758177Y-69961888D01*
X224946186Y-69766881D01*
X225103799Y-69546579D01*
X225177787Y-69402669D01*
X225227649Y-69305690D01*
X225227651Y-69305684D01*
X225227656Y-69305675D01*
X225315118Y-69049305D01*
X225364319Y-68782933D01*
X225374212Y-68512235D01*
X225344586Y-68242982D01*
X225276072Y-67980912D01*
X225170130Y-67731610D01*
X225029018Y-67500390D01*
X224939747Y-67393119D01*
X224855746Y-67292180D01*
X224855740Y-67292175D01*
X224654002Y-67111418D01*
X224428092Y-66961957D01*
X224361391Y-66930689D01*
X224182824Y-66846980D01*
X224182819Y-66846978D01*
X224182814Y-66846976D01*
X223923442Y-66768942D01*
X223923428Y-66768939D01*
X223807791Y-66751921D01*
X223655439Y-66729500D01*
X223452369Y-66729500D01*
X223452364Y-66729500D01*
X223249844Y-66744323D01*
X223249831Y-66744325D01*
X222985453Y-66803217D01*
X222985446Y-66803220D01*
X222732439Y-66899987D01*
X222496226Y-67032557D01*
X222281822Y-67198112D01*
X222093822Y-67393109D01*
X222093816Y-67393116D01*
X221936202Y-67613419D01*
X221936199Y-67613424D01*
X221812350Y-67854309D01*
X221812343Y-67854327D01*
X221724884Y-68110685D01*
X221724881Y-68110699D01*
X221675681Y-68377068D01*
X221675680Y-68377075D01*
X221665787Y-68647763D01*
X159329259Y-68647763D01*
X159334212Y-68512235D01*
X159304586Y-68242982D01*
X159236072Y-67980912D01*
X159130130Y-67731610D01*
X158989018Y-67500390D01*
X158899747Y-67393119D01*
X158815746Y-67292180D01*
X158815740Y-67292175D01*
X158614002Y-67111418D01*
X158388092Y-66961957D01*
X158321391Y-66930689D01*
X158142824Y-66846980D01*
X158142819Y-66846978D01*
X158142814Y-66846976D01*
X157883442Y-66768942D01*
X157883428Y-66768939D01*
X157767791Y-66751921D01*
X157615439Y-66729500D01*
X157412369Y-66729500D01*
X157412364Y-66729500D01*
X157209844Y-66744323D01*
X157209831Y-66744325D01*
X156945453Y-66803217D01*
X156945446Y-66803220D01*
X156692439Y-66899987D01*
X156456226Y-67032557D01*
X156241822Y-67198112D01*
X156053822Y-67393109D01*
X156053816Y-67393116D01*
X155896202Y-67613419D01*
X155896199Y-67613424D01*
X155772350Y-67854309D01*
X155772343Y-67854327D01*
X155684884Y-68110685D01*
X155684881Y-68110699D01*
X155635681Y-68377068D01*
X155635680Y-68377075D01*
X155625787Y-68647763D01*
X152400500Y-68647763D01*
X152400500Y-68580000D01*
X152409501Y-68362364D01*
X152418457Y-68157263D01*
X152418869Y-68152349D01*
X152446056Y-67934247D01*
X152473059Y-67729141D01*
X152473835Y-67724588D01*
X152518904Y-67509646D01*
X152563768Y-67307278D01*
X152564865Y-67303044D01*
X152627533Y-67092549D01*
X152646448Y-67032557D01*
X152689945Y-66894602D01*
X152691270Y-66890838D01*
X152771169Y-66686075D01*
X152850640Y-66494216D01*
X152852185Y-66490789D01*
X152948759Y-66293243D01*
X153044712Y-66108921D01*
X153046428Y-66105842D01*
X153159020Y-65916889D01*
X153270794Y-65741441D01*
X153272555Y-65738831D01*
X153400462Y-65559686D01*
X153527169Y-65394559D01*
X153528999Y-65392289D01*
X153671331Y-65224237D01*
X153812951Y-65069686D01*
X153969686Y-64912951D01*
X154124247Y-64771323D01*
X154292289Y-64628999D01*
X154294559Y-64627169D01*
X154459670Y-64500473D01*
X154638831Y-64372555D01*
X154641441Y-64370794D01*
X154816889Y-64259020D01*
X155005842Y-64146428D01*
X155008921Y-64144712D01*
X155193243Y-64048759D01*
X155390789Y-63952185D01*
X155394216Y-63950640D01*
X155586059Y-63871175D01*
X155790838Y-63791270D01*
X155794602Y-63789945D01*
X155975892Y-63732784D01*
X155992550Y-63727533D01*
X156018593Y-63719779D01*
X156203044Y-63664865D01*
X156207278Y-63663768D01*
X156409646Y-63618904D01*
X156624588Y-63573835D01*
X156629141Y-63573059D01*
X156834278Y-63546052D01*
X157052349Y-63518869D01*
X157057263Y-63518457D01*
X157262364Y-63509501D01*
X157480000Y-63500500D01*
X157480500Y-63500500D01*
X223519500Y-63500500D01*
X223520000Y-63500500D01*
X223737525Y-63509496D01*
G37*
%TD.AperFunction*%
%TD*%
M02*
