%TF.GenerationSoftware,KiCad,Pcbnew,8.0.7-8.0.7-0~ubuntu24.04.1*%
%TF.CreationDate,2025-01-11T18:55:05-05:00*%
%TF.ProjectId,esp32_sensor_board,65737033-325f-4736-956e-736f725f626f,rev?*%
%TF.SameCoordinates,Original*%
%TF.FileFunction,Legend,Bot*%
%TF.FilePolarity,Positive*%
%FSLAX46Y46*%
G04 Gerber Fmt 4.6, Leading zero omitted, Abs format (unit mm)*
G04 Created by KiCad (PCBNEW 8.0.7-8.0.7-0~ubuntu24.04.1) date 2025-01-11 18:55:05*
%MOMM*%
%LPD*%
G01*
G04 APERTURE LIST*
%ADD10C,0.150000*%
%ADD11C,0.010000*%
G04 APERTURE END LIST*
D10*
X100000000Y-110000000D02*
X137500000Y-110000000D01*
X137500000Y-117000000D01*
X100000000Y-117000000D01*
X100000000Y-110000000D01*
G36*
X100000000Y-110000000D02*
G01*
X137500000Y-110000000D01*
X137500000Y-117000000D01*
X100000000Y-117000000D01*
X100000000Y-110000000D01*
G37*
X122250000Y-122750000D02*
X129000000Y-122750000D01*
X129000000Y-129750000D01*
X122250000Y-129750000D01*
X122250000Y-122750000D01*
X132236000Y-88288000D02*
X134776000Y-88288000D01*
X134776000Y-94384000D01*
X132236000Y-94384000D01*
X132236000Y-88288000D01*
X152750000Y-122000000D02*
X159750000Y-122000000D01*
X159750000Y-129000000D01*
X152750000Y-129000000D01*
X152750000Y-122000000D01*
X138750000Y-95500000D02*
X145000000Y-95500000D01*
X145000000Y-102750000D01*
X138750000Y-102750000D01*
X138750000Y-95500000D01*
X86250000Y-82500000D02*
X92250000Y-82500000D01*
X92250000Y-85000000D01*
X86250000Y-85000000D01*
X86250000Y-82500000D01*
X139856000Y-88288000D02*
X142396000Y-88288000D01*
X142396000Y-94384000D01*
X139856000Y-94384000D01*
X139856000Y-88288000D01*
X145000000Y-99000000D02*
X147254000Y-99000000D01*
X147254000Y-109750000D01*
X145000000Y-109750000D01*
X145000000Y-99000000D01*
X112170000Y-73302000D02*
X118012000Y-73302000D01*
X118012000Y-75842000D01*
X112170000Y-75842000D01*
X112170000Y-73302000D01*
X88548000Y-107846000D02*
X96930000Y-107846000D01*
X96930000Y-110386000D01*
X88548000Y-110386000D01*
X88548000Y-107846000D01*
X88548000Y-117244000D02*
X96930000Y-117244000D01*
X96930000Y-119784000D01*
X88548000Y-119784000D01*
X88548000Y-117244000D01*
X129696000Y-88288000D02*
X132236000Y-88288000D01*
X132236000Y-94384000D01*
X129696000Y-94384000D01*
X129696000Y-88288000D01*
X142396000Y-91590000D02*
X154334000Y-91590000D01*
X154334000Y-94384000D01*
X142396000Y-94384000D01*
X142396000Y-91590000D01*
X88548000Y-127404000D02*
X96930000Y-127404000D01*
X96930000Y-129944000D01*
X88548000Y-129944000D01*
X88548000Y-127404000D01*
X88548000Y-105306000D02*
X96930000Y-105306000D01*
X96930000Y-107846000D01*
X88548000Y-107846000D01*
X88548000Y-105306000D01*
X88548000Y-102766000D02*
X96930000Y-102766000D01*
X96930000Y-105306000D01*
X88548000Y-105306000D01*
X88548000Y-102766000D01*
X152281000Y-78250000D02*
X161469000Y-78250000D01*
X161469000Y-90250000D01*
X152281000Y-90250000D01*
X152281000Y-78250000D01*
X86250000Y-85000000D02*
X92250000Y-85000000D01*
X92250000Y-87500000D01*
X86250000Y-87500000D01*
X86250000Y-85000000D01*
X86250000Y-87500000D02*
X96500000Y-87500000D01*
X96500000Y-90000000D01*
X86250000Y-90000000D01*
X86250000Y-87500000D01*
X107670000Y-75842000D02*
X118012000Y-75842000D01*
X118012000Y-78382000D01*
X107670000Y-78382000D01*
X107670000Y-75842000D01*
X110000000Y-122750000D02*
X122250000Y-122750000D01*
X122250000Y-129750000D01*
X110000000Y-129750000D01*
X110000000Y-122750000D01*
X107670000Y-78382000D02*
X118012000Y-78382000D01*
X118012000Y-80922000D01*
X107670000Y-80922000D01*
X107670000Y-78382000D01*
X88548000Y-122324000D02*
X96930000Y-122324000D01*
X96930000Y-124864000D01*
X88548000Y-124864000D01*
X88548000Y-122324000D01*
X152750000Y-103000000D02*
X159750000Y-103000000D01*
X159750000Y-109750000D01*
X152750000Y-109750000D01*
X152750000Y-103000000D01*
X152750000Y-109750000D02*
X159750000Y-109750000D01*
X159750000Y-122000000D01*
X152750000Y-122000000D01*
X152750000Y-109750000D01*
X88548000Y-110386000D02*
X96930000Y-110386000D01*
X96930000Y-112926000D01*
X88548000Y-112926000D01*
X88548000Y-110386000D01*
X103000000Y-122750000D02*
X110000000Y-122750000D01*
X110000000Y-129750000D01*
X103000000Y-129750000D01*
X103000000Y-122750000D01*
X138750000Y-102750000D02*
X145000000Y-102750000D01*
X145000000Y-109750000D01*
X138750000Y-109750000D01*
X138750000Y-102750000D01*
X137316000Y-88288000D02*
X139856000Y-88288000D01*
X139856000Y-94384000D01*
X137316000Y-94384000D01*
X137316000Y-88288000D01*
X134776000Y-88288000D02*
X137316000Y-88288000D01*
X137316000Y-94384000D01*
X134776000Y-94384000D01*
X134776000Y-88288000D01*
X147254000Y-99000000D02*
X149746000Y-99000000D01*
X149746000Y-109750000D01*
X147254000Y-109750000D01*
X147254000Y-99000000D01*
X86250000Y-90000000D02*
X96500000Y-90000000D01*
X96500000Y-92500000D01*
X86250000Y-92500000D01*
X86250000Y-90000000D01*
X88548000Y-124864000D02*
X96930000Y-124864000D01*
X96930000Y-127404000D01*
X88548000Y-127404000D01*
X88548000Y-124864000D01*
X88548000Y-119784000D02*
X96930000Y-119784000D01*
X96930000Y-122324000D01*
X88548000Y-122324000D01*
X88548000Y-119784000D01*
X88548000Y-112926000D02*
X96930000Y-112926000D01*
X96930000Y-115466000D01*
X88548000Y-115466000D01*
X88548000Y-112926000D01*
X95789160Y-113667438D02*
X95884398Y-113619819D01*
X95884398Y-113619819D02*
X96027255Y-113619819D01*
X96027255Y-113619819D02*
X96170112Y-113667438D01*
X96170112Y-113667438D02*
X96265350Y-113762676D01*
X96265350Y-113762676D02*
X96312969Y-113857914D01*
X96312969Y-113857914D02*
X96360588Y-114048390D01*
X96360588Y-114048390D02*
X96360588Y-114191247D01*
X96360588Y-114191247D02*
X96312969Y-114381723D01*
X96312969Y-114381723D02*
X96265350Y-114476961D01*
X96265350Y-114476961D02*
X96170112Y-114572200D01*
X96170112Y-114572200D02*
X96027255Y-114619819D01*
X96027255Y-114619819D02*
X95932017Y-114619819D01*
X95932017Y-114619819D02*
X95789160Y-114572200D01*
X95789160Y-114572200D02*
X95741541Y-114524580D01*
X95741541Y-114524580D02*
X95741541Y-114191247D01*
X95741541Y-114191247D02*
X95932017Y-114191247D01*
X95312969Y-114619819D02*
X95312969Y-113619819D01*
X95312969Y-113619819D02*
X94741541Y-114619819D01*
X94741541Y-114619819D02*
X94741541Y-113619819D01*
X94265350Y-114619819D02*
X94265350Y-113619819D01*
X94265350Y-113619819D02*
X94027255Y-113619819D01*
X94027255Y-113619819D02*
X93884398Y-113667438D01*
X93884398Y-113667438D02*
X93789160Y-113762676D01*
X93789160Y-113762676D02*
X93741541Y-113857914D01*
X93741541Y-113857914D02*
X93693922Y-114048390D01*
X93693922Y-114048390D02*
X93693922Y-114191247D01*
X93693922Y-114191247D02*
X93741541Y-114381723D01*
X93741541Y-114381723D02*
X93789160Y-114476961D01*
X93789160Y-114476961D02*
X93884398Y-114572200D01*
X93884398Y-114572200D02*
X94027255Y-114619819D01*
X94027255Y-114619819D02*
X94265350Y-114619819D01*
X92551065Y-113572200D02*
X93408207Y-114857914D01*
X92027255Y-114143628D02*
X92027255Y-114619819D01*
X92360588Y-113619819D02*
X92027255Y-114143628D01*
X92027255Y-114143628D02*
X91693922Y-113619819D01*
X114611411Y-73997438D02*
X114706649Y-73949819D01*
X114706649Y-73949819D02*
X114849506Y-73949819D01*
X114849506Y-73949819D02*
X114992363Y-73997438D01*
X114992363Y-73997438D02*
X115087601Y-74092676D01*
X115087601Y-74092676D02*
X115135220Y-74187914D01*
X115135220Y-74187914D02*
X115182839Y-74378390D01*
X115182839Y-74378390D02*
X115182839Y-74521247D01*
X115182839Y-74521247D02*
X115135220Y-74711723D01*
X115135220Y-74711723D02*
X115087601Y-74806961D01*
X115087601Y-74806961D02*
X114992363Y-74902200D01*
X114992363Y-74902200D02*
X114849506Y-74949819D01*
X114849506Y-74949819D02*
X114754268Y-74949819D01*
X114754268Y-74949819D02*
X114611411Y-74902200D01*
X114611411Y-74902200D02*
X114563792Y-74854580D01*
X114563792Y-74854580D02*
X114563792Y-74521247D01*
X114563792Y-74521247D02*
X114754268Y-74521247D01*
X114135220Y-74949819D02*
X114135220Y-73949819D01*
X114135220Y-73949819D02*
X113563792Y-74949819D01*
X113563792Y-74949819D02*
X113563792Y-73949819D01*
X113087601Y-74949819D02*
X113087601Y-73949819D01*
X113087601Y-73949819D02*
X112849506Y-73949819D01*
X112849506Y-73949819D02*
X112706649Y-73997438D01*
X112706649Y-73997438D02*
X112611411Y-74092676D01*
X112611411Y-74092676D02*
X112563792Y-74187914D01*
X112563792Y-74187914D02*
X112516173Y-74378390D01*
X112516173Y-74378390D02*
X112516173Y-74521247D01*
X112516173Y-74521247D02*
X112563792Y-74711723D01*
X112563792Y-74711723D02*
X112611411Y-74806961D01*
X112611411Y-74806961D02*
X112706649Y-74902200D01*
X112706649Y-74902200D02*
X112849506Y-74949819D01*
X112849506Y-74949819D02*
X113087601Y-74949819D01*
X115278077Y-79029819D02*
X114706649Y-79029819D01*
X114992363Y-80029819D02*
X114992363Y-79029819D01*
X114468553Y-79029819D02*
X113801887Y-80029819D01*
X113801887Y-79029819D02*
X114468553Y-80029819D01*
X112659029Y-79648866D02*
X111897125Y-79648866D01*
X110135220Y-79077438D02*
X110230458Y-79029819D01*
X110230458Y-79029819D02*
X110373315Y-79029819D01*
X110373315Y-79029819D02*
X110516172Y-79077438D01*
X110516172Y-79077438D02*
X110611410Y-79172676D01*
X110611410Y-79172676D02*
X110659029Y-79267914D01*
X110659029Y-79267914D02*
X110706648Y-79458390D01*
X110706648Y-79458390D02*
X110706648Y-79601247D01*
X110706648Y-79601247D02*
X110659029Y-79791723D01*
X110659029Y-79791723D02*
X110611410Y-79886961D01*
X110611410Y-79886961D02*
X110516172Y-79982200D01*
X110516172Y-79982200D02*
X110373315Y-80029819D01*
X110373315Y-80029819D02*
X110278077Y-80029819D01*
X110278077Y-80029819D02*
X110135220Y-79982200D01*
X110135220Y-79982200D02*
X110087601Y-79934580D01*
X110087601Y-79934580D02*
X110087601Y-79601247D01*
X110087601Y-79601247D02*
X110278077Y-79601247D01*
X109706648Y-79125057D02*
X109659029Y-79077438D01*
X109659029Y-79077438D02*
X109563791Y-79029819D01*
X109563791Y-79029819D02*
X109325696Y-79029819D01*
X109325696Y-79029819D02*
X109230458Y-79077438D01*
X109230458Y-79077438D02*
X109182839Y-79125057D01*
X109182839Y-79125057D02*
X109135220Y-79220295D01*
X109135220Y-79220295D02*
X109135220Y-79315533D01*
X109135220Y-79315533D02*
X109182839Y-79458390D01*
X109182839Y-79458390D02*
X109754267Y-80029819D01*
X109754267Y-80029819D02*
X109135220Y-80029819D01*
X108182839Y-80029819D02*
X108754267Y-80029819D01*
X108468553Y-80029819D02*
X108468553Y-79029819D01*
X108468553Y-79029819D02*
X108563791Y-79172676D01*
X108563791Y-79172676D02*
X108659029Y-79267914D01*
X108659029Y-79267914D02*
X108754267Y-79315533D01*
X95960839Y-89322200D02*
X95817982Y-89369819D01*
X95817982Y-89369819D02*
X95579887Y-89369819D01*
X95579887Y-89369819D02*
X95484649Y-89322200D01*
X95484649Y-89322200D02*
X95437030Y-89274580D01*
X95437030Y-89274580D02*
X95389411Y-89179342D01*
X95389411Y-89179342D02*
X95389411Y-89084104D01*
X95389411Y-89084104D02*
X95437030Y-88988866D01*
X95437030Y-88988866D02*
X95484649Y-88941247D01*
X95484649Y-88941247D02*
X95579887Y-88893628D01*
X95579887Y-88893628D02*
X95770363Y-88846009D01*
X95770363Y-88846009D02*
X95865601Y-88798390D01*
X95865601Y-88798390D02*
X95913220Y-88750771D01*
X95913220Y-88750771D02*
X95960839Y-88655533D01*
X95960839Y-88655533D02*
X95960839Y-88560295D01*
X95960839Y-88560295D02*
X95913220Y-88465057D01*
X95913220Y-88465057D02*
X95865601Y-88417438D01*
X95865601Y-88417438D02*
X95770363Y-88369819D01*
X95770363Y-88369819D02*
X95532268Y-88369819D01*
X95532268Y-88369819D02*
X95389411Y-88417438D01*
X94960839Y-89369819D02*
X94960839Y-88369819D01*
X94960839Y-88369819D02*
X94722744Y-88369819D01*
X94722744Y-88369819D02*
X94579887Y-88417438D01*
X94579887Y-88417438D02*
X94484649Y-88512676D01*
X94484649Y-88512676D02*
X94437030Y-88607914D01*
X94437030Y-88607914D02*
X94389411Y-88798390D01*
X94389411Y-88798390D02*
X94389411Y-88941247D01*
X94389411Y-88941247D02*
X94437030Y-89131723D01*
X94437030Y-89131723D02*
X94484649Y-89226961D01*
X94484649Y-89226961D02*
X94579887Y-89322200D01*
X94579887Y-89322200D02*
X94722744Y-89369819D01*
X94722744Y-89369819D02*
X94960839Y-89369819D01*
X94008458Y-89084104D02*
X93532268Y-89084104D01*
X94103696Y-89369819D02*
X93770363Y-88369819D01*
X93770363Y-88369819D02*
X93437030Y-89369819D01*
X92341791Y-88988866D02*
X91579887Y-88988866D01*
X89817982Y-88417438D02*
X89913220Y-88369819D01*
X89913220Y-88369819D02*
X90056077Y-88369819D01*
X90056077Y-88369819D02*
X90198934Y-88417438D01*
X90198934Y-88417438D02*
X90294172Y-88512676D01*
X90294172Y-88512676D02*
X90341791Y-88607914D01*
X90341791Y-88607914D02*
X90389410Y-88798390D01*
X90389410Y-88798390D02*
X90389410Y-88941247D01*
X90389410Y-88941247D02*
X90341791Y-89131723D01*
X90341791Y-89131723D02*
X90294172Y-89226961D01*
X90294172Y-89226961D02*
X90198934Y-89322200D01*
X90198934Y-89322200D02*
X90056077Y-89369819D01*
X90056077Y-89369819D02*
X89960839Y-89369819D01*
X89960839Y-89369819D02*
X89817982Y-89322200D01*
X89817982Y-89322200D02*
X89770363Y-89274580D01*
X89770363Y-89274580D02*
X89770363Y-88941247D01*
X89770363Y-88941247D02*
X89960839Y-88941247D01*
X88913220Y-88703152D02*
X88913220Y-89369819D01*
X89151315Y-88322200D02*
X89389410Y-89036485D01*
X89389410Y-89036485D02*
X88770363Y-89036485D01*
X144263220Y-106736065D02*
X143929887Y-106736065D01*
X143787030Y-107259875D02*
X144263220Y-107259875D01*
X144263220Y-107259875D02*
X144263220Y-106259875D01*
X144263220Y-106259875D02*
X143787030Y-106259875D01*
X143453696Y-106259875D02*
X142787030Y-107259875D01*
X142787030Y-106259875D02*
X143453696Y-107259875D01*
X142548934Y-106259875D02*
X141977506Y-106259875D01*
X142263220Y-107259875D02*
X142263220Y-106259875D01*
X141691791Y-106355113D02*
X141644172Y-106307494D01*
X141644172Y-106307494D02*
X141548934Y-106259875D01*
X141548934Y-106259875D02*
X141310839Y-106259875D01*
X141310839Y-106259875D02*
X141215601Y-106307494D01*
X141215601Y-106307494D02*
X141167982Y-106355113D01*
X141167982Y-106355113D02*
X141120363Y-106450351D01*
X141120363Y-106450351D02*
X141120363Y-106545589D01*
X141120363Y-106545589D02*
X141167982Y-106688446D01*
X141167982Y-106688446D02*
X141739410Y-107259875D01*
X141739410Y-107259875D02*
X141120363Y-107259875D01*
X143739411Y-107917438D02*
X143834649Y-107869819D01*
X143834649Y-107869819D02*
X143977506Y-107869819D01*
X143977506Y-107869819D02*
X144120363Y-107917438D01*
X144120363Y-107917438D02*
X144215601Y-108012676D01*
X144215601Y-108012676D02*
X144263220Y-108107914D01*
X144263220Y-108107914D02*
X144310839Y-108298390D01*
X144310839Y-108298390D02*
X144310839Y-108441247D01*
X144310839Y-108441247D02*
X144263220Y-108631723D01*
X144263220Y-108631723D02*
X144215601Y-108726961D01*
X144215601Y-108726961D02*
X144120363Y-108822200D01*
X144120363Y-108822200D02*
X143977506Y-108869819D01*
X143977506Y-108869819D02*
X143882268Y-108869819D01*
X143882268Y-108869819D02*
X143739411Y-108822200D01*
X143739411Y-108822200D02*
X143691792Y-108774580D01*
X143691792Y-108774580D02*
X143691792Y-108441247D01*
X143691792Y-108441247D02*
X143882268Y-108441247D01*
X143263220Y-108869819D02*
X143263220Y-107869819D01*
X143263220Y-107869819D02*
X142882268Y-107869819D01*
X142882268Y-107869819D02*
X142787030Y-107917438D01*
X142787030Y-107917438D02*
X142739411Y-107965057D01*
X142739411Y-107965057D02*
X142691792Y-108060295D01*
X142691792Y-108060295D02*
X142691792Y-108203152D01*
X142691792Y-108203152D02*
X142739411Y-108298390D01*
X142739411Y-108298390D02*
X142787030Y-108346009D01*
X142787030Y-108346009D02*
X142882268Y-108393628D01*
X142882268Y-108393628D02*
X143263220Y-108393628D01*
X142263220Y-108869819D02*
X142263220Y-107869819D01*
X141596554Y-107869819D02*
X141406078Y-107869819D01*
X141406078Y-107869819D02*
X141310840Y-107917438D01*
X141310840Y-107917438D02*
X141215602Y-108012676D01*
X141215602Y-108012676D02*
X141167983Y-108203152D01*
X141167983Y-108203152D02*
X141167983Y-108536485D01*
X141167983Y-108536485D02*
X141215602Y-108726961D01*
X141215602Y-108726961D02*
X141310840Y-108822200D01*
X141310840Y-108822200D02*
X141406078Y-108869819D01*
X141406078Y-108869819D02*
X141596554Y-108869819D01*
X141596554Y-108869819D02*
X141691792Y-108822200D01*
X141691792Y-108822200D02*
X141787030Y-108726961D01*
X141787030Y-108726961D02*
X141834649Y-108536485D01*
X141834649Y-108536485D02*
X141834649Y-108203152D01*
X141834649Y-108203152D02*
X141787030Y-108012676D01*
X141787030Y-108012676D02*
X141691792Y-107917438D01*
X141691792Y-107917438D02*
X141596554Y-107869819D01*
X140548935Y-107869819D02*
X140453697Y-107869819D01*
X140453697Y-107869819D02*
X140358459Y-107917438D01*
X140358459Y-107917438D02*
X140310840Y-107965057D01*
X140310840Y-107965057D02*
X140263221Y-108060295D01*
X140263221Y-108060295D02*
X140215602Y-108250771D01*
X140215602Y-108250771D02*
X140215602Y-108488866D01*
X140215602Y-108488866D02*
X140263221Y-108679342D01*
X140263221Y-108679342D02*
X140310840Y-108774580D01*
X140310840Y-108774580D02*
X140358459Y-108822200D01*
X140358459Y-108822200D02*
X140453697Y-108869819D01*
X140453697Y-108869819D02*
X140548935Y-108869819D01*
X140548935Y-108869819D02*
X140644173Y-108822200D01*
X140644173Y-108822200D02*
X140691792Y-108774580D01*
X140691792Y-108774580D02*
X140739411Y-108679342D01*
X140739411Y-108679342D02*
X140787030Y-108488866D01*
X140787030Y-108488866D02*
X140787030Y-108250771D01*
X140787030Y-108250771D02*
X140739411Y-108060295D01*
X140739411Y-108060295D02*
X140691792Y-107965057D01*
X140691792Y-107965057D02*
X140644173Y-107917438D01*
X140644173Y-107917438D02*
X140548935Y-107869819D01*
X139358459Y-108203152D02*
X139358459Y-108869819D01*
X139596554Y-107822200D02*
X139834649Y-108536485D01*
X139834649Y-108536485D02*
X139215602Y-108536485D01*
X114563792Y-77489819D02*
X114897125Y-77013628D01*
X115135220Y-77489819D02*
X115135220Y-76489819D01*
X115135220Y-76489819D02*
X114754268Y-76489819D01*
X114754268Y-76489819D02*
X114659030Y-76537438D01*
X114659030Y-76537438D02*
X114611411Y-76585057D01*
X114611411Y-76585057D02*
X114563792Y-76680295D01*
X114563792Y-76680295D02*
X114563792Y-76823152D01*
X114563792Y-76823152D02*
X114611411Y-76918390D01*
X114611411Y-76918390D02*
X114659030Y-76966009D01*
X114659030Y-76966009D02*
X114754268Y-77013628D01*
X114754268Y-77013628D02*
X115135220Y-77013628D01*
X114230458Y-76489819D02*
X113563792Y-77489819D01*
X113563792Y-76489819D02*
X114230458Y-77489819D01*
X112420934Y-77108866D02*
X111659030Y-77108866D01*
X109897125Y-76537438D02*
X109992363Y-76489819D01*
X109992363Y-76489819D02*
X110135220Y-76489819D01*
X110135220Y-76489819D02*
X110278077Y-76537438D01*
X110278077Y-76537438D02*
X110373315Y-76632676D01*
X110373315Y-76632676D02*
X110420934Y-76727914D01*
X110420934Y-76727914D02*
X110468553Y-76918390D01*
X110468553Y-76918390D02*
X110468553Y-77061247D01*
X110468553Y-77061247D02*
X110420934Y-77251723D01*
X110420934Y-77251723D02*
X110373315Y-77346961D01*
X110373315Y-77346961D02*
X110278077Y-77442200D01*
X110278077Y-77442200D02*
X110135220Y-77489819D01*
X110135220Y-77489819D02*
X110039982Y-77489819D01*
X110039982Y-77489819D02*
X109897125Y-77442200D01*
X109897125Y-77442200D02*
X109849506Y-77394580D01*
X109849506Y-77394580D02*
X109849506Y-77061247D01*
X109849506Y-77061247D02*
X110039982Y-77061247D01*
X109468553Y-76585057D02*
X109420934Y-76537438D01*
X109420934Y-76537438D02*
X109325696Y-76489819D01*
X109325696Y-76489819D02*
X109087601Y-76489819D01*
X109087601Y-76489819D02*
X108992363Y-76537438D01*
X108992363Y-76537438D02*
X108944744Y-76585057D01*
X108944744Y-76585057D02*
X108897125Y-76680295D01*
X108897125Y-76680295D02*
X108897125Y-76775533D01*
X108897125Y-76775533D02*
X108944744Y-76918390D01*
X108944744Y-76918390D02*
X109516172Y-77489819D01*
X109516172Y-77489819D02*
X108897125Y-77489819D01*
X108278077Y-76489819D02*
X108182839Y-76489819D01*
X108182839Y-76489819D02*
X108087601Y-76537438D01*
X108087601Y-76537438D02*
X108039982Y-76585057D01*
X108039982Y-76585057D02*
X107992363Y-76680295D01*
X107992363Y-76680295D02*
X107944744Y-76870771D01*
X107944744Y-76870771D02*
X107944744Y-77108866D01*
X107944744Y-77108866D02*
X107992363Y-77299342D01*
X107992363Y-77299342D02*
X108039982Y-77394580D01*
X108039982Y-77394580D02*
X108087601Y-77442200D01*
X108087601Y-77442200D02*
X108182839Y-77489819D01*
X108182839Y-77489819D02*
X108278077Y-77489819D01*
X108278077Y-77489819D02*
X108373315Y-77442200D01*
X108373315Y-77442200D02*
X108420934Y-77394580D01*
X108420934Y-77394580D02*
X108468553Y-77299342D01*
X108468553Y-77299342D02*
X108516172Y-77108866D01*
X108516172Y-77108866D02*
X108516172Y-76870771D01*
X108516172Y-76870771D02*
X108468553Y-76680295D01*
X108468553Y-76680295D02*
X108420934Y-76585057D01*
X108420934Y-76585057D02*
X108373315Y-76537438D01*
X108373315Y-76537438D02*
X108278077Y-76489819D01*
X145369819Y-106693922D02*
X146369819Y-107027255D01*
X146369819Y-107027255D02*
X145369819Y-107360588D01*
X146369819Y-107693922D02*
X145369819Y-107693922D01*
X146369819Y-108170112D02*
X145369819Y-108170112D01*
X145369819Y-108170112D02*
X146369819Y-108741540D01*
X146369819Y-108741540D02*
X145369819Y-108741540D01*
X95789160Y-128145438D02*
X95884398Y-128097819D01*
X95884398Y-128097819D02*
X96027255Y-128097819D01*
X96027255Y-128097819D02*
X96170112Y-128145438D01*
X96170112Y-128145438D02*
X96265350Y-128240676D01*
X96265350Y-128240676D02*
X96312969Y-128335914D01*
X96312969Y-128335914D02*
X96360588Y-128526390D01*
X96360588Y-128526390D02*
X96360588Y-128669247D01*
X96360588Y-128669247D02*
X96312969Y-128859723D01*
X96312969Y-128859723D02*
X96265350Y-128954961D01*
X96265350Y-128954961D02*
X96170112Y-129050200D01*
X96170112Y-129050200D02*
X96027255Y-129097819D01*
X96027255Y-129097819D02*
X95932017Y-129097819D01*
X95932017Y-129097819D02*
X95789160Y-129050200D01*
X95789160Y-129050200D02*
X95741541Y-129002580D01*
X95741541Y-129002580D02*
X95741541Y-128669247D01*
X95741541Y-128669247D02*
X95932017Y-128669247D01*
X95312969Y-129097819D02*
X95312969Y-128097819D01*
X95312969Y-128097819D02*
X94741541Y-129097819D01*
X94741541Y-129097819D02*
X94741541Y-128097819D01*
X94265350Y-129097819D02*
X94265350Y-128097819D01*
X94265350Y-128097819D02*
X94027255Y-128097819D01*
X94027255Y-128097819D02*
X93884398Y-128145438D01*
X93884398Y-128145438D02*
X93789160Y-128240676D01*
X93789160Y-128240676D02*
X93741541Y-128335914D01*
X93741541Y-128335914D02*
X93693922Y-128526390D01*
X93693922Y-128526390D02*
X93693922Y-128669247D01*
X93693922Y-128669247D02*
X93741541Y-128859723D01*
X93741541Y-128859723D02*
X93789160Y-128954961D01*
X93789160Y-128954961D02*
X93884398Y-129050200D01*
X93884398Y-129050200D02*
X94027255Y-129097819D01*
X94027255Y-129097819D02*
X94265350Y-129097819D01*
X92551065Y-128050200D02*
X93408207Y-129335914D01*
X92027255Y-128621628D02*
X92027255Y-129097819D01*
X92360588Y-128097819D02*
X92027255Y-128621628D01*
X92027255Y-128621628D02*
X91693922Y-128097819D01*
X91389411Y-83167438D02*
X91484649Y-83119819D01*
X91484649Y-83119819D02*
X91627506Y-83119819D01*
X91627506Y-83119819D02*
X91770363Y-83167438D01*
X91770363Y-83167438D02*
X91865601Y-83262676D01*
X91865601Y-83262676D02*
X91913220Y-83357914D01*
X91913220Y-83357914D02*
X91960839Y-83548390D01*
X91960839Y-83548390D02*
X91960839Y-83691247D01*
X91960839Y-83691247D02*
X91913220Y-83881723D01*
X91913220Y-83881723D02*
X91865601Y-83976961D01*
X91865601Y-83976961D02*
X91770363Y-84072200D01*
X91770363Y-84072200D02*
X91627506Y-84119819D01*
X91627506Y-84119819D02*
X91532268Y-84119819D01*
X91532268Y-84119819D02*
X91389411Y-84072200D01*
X91389411Y-84072200D02*
X91341792Y-84024580D01*
X91341792Y-84024580D02*
X91341792Y-83691247D01*
X91341792Y-83691247D02*
X91532268Y-83691247D01*
X90913220Y-84119819D02*
X90913220Y-83119819D01*
X90913220Y-83119819D02*
X90341792Y-84119819D01*
X90341792Y-84119819D02*
X90341792Y-83119819D01*
X89865601Y-84119819D02*
X89865601Y-83119819D01*
X89865601Y-83119819D02*
X89627506Y-83119819D01*
X89627506Y-83119819D02*
X89484649Y-83167438D01*
X89484649Y-83167438D02*
X89389411Y-83262676D01*
X89389411Y-83262676D02*
X89341792Y-83357914D01*
X89341792Y-83357914D02*
X89294173Y-83548390D01*
X89294173Y-83548390D02*
X89294173Y-83691247D01*
X89294173Y-83691247D02*
X89341792Y-83881723D01*
X89341792Y-83881723D02*
X89389411Y-83976961D01*
X89389411Y-83976961D02*
X89484649Y-84072200D01*
X89484649Y-84072200D02*
X89627506Y-84119819D01*
X89627506Y-84119819D02*
X89865601Y-84119819D01*
X154132424Y-79289160D02*
X154180043Y-79432017D01*
X154180043Y-79432017D02*
X154180043Y-79670112D01*
X154180043Y-79670112D02*
X154132424Y-79765350D01*
X154132424Y-79765350D02*
X154084804Y-79812969D01*
X154084804Y-79812969D02*
X153989566Y-79860588D01*
X153989566Y-79860588D02*
X153894328Y-79860588D01*
X153894328Y-79860588D02*
X153799090Y-79812969D01*
X153799090Y-79812969D02*
X153751471Y-79765350D01*
X153751471Y-79765350D02*
X153703852Y-79670112D01*
X153703852Y-79670112D02*
X153656233Y-79479636D01*
X153656233Y-79479636D02*
X153608614Y-79384398D01*
X153608614Y-79384398D02*
X153560995Y-79336779D01*
X153560995Y-79336779D02*
X153465757Y-79289160D01*
X153465757Y-79289160D02*
X153370519Y-79289160D01*
X153370519Y-79289160D02*
X153275281Y-79336779D01*
X153275281Y-79336779D02*
X153227662Y-79384398D01*
X153227662Y-79384398D02*
X153180043Y-79479636D01*
X153180043Y-79479636D02*
X153180043Y-79717731D01*
X153180043Y-79717731D02*
X153227662Y-79860588D01*
X154180043Y-80289160D02*
X153180043Y-80289160D01*
X153180043Y-80289160D02*
X153180043Y-80527255D01*
X153180043Y-80527255D02*
X153227662Y-80670112D01*
X153227662Y-80670112D02*
X153322900Y-80765350D01*
X153322900Y-80765350D02*
X153418138Y-80812969D01*
X153418138Y-80812969D02*
X153608614Y-80860588D01*
X153608614Y-80860588D02*
X153751471Y-80860588D01*
X153751471Y-80860588D02*
X153941947Y-80812969D01*
X153941947Y-80812969D02*
X154037185Y-80765350D01*
X154037185Y-80765350D02*
X154132424Y-80670112D01*
X154132424Y-80670112D02*
X154180043Y-80527255D01*
X154180043Y-80527255D02*
X154180043Y-80289160D01*
X154180043Y-82051065D02*
X153180043Y-82051065D01*
X153180043Y-82051065D02*
X153180043Y-82289160D01*
X153180043Y-82289160D02*
X153227662Y-82432017D01*
X153227662Y-82432017D02*
X153322900Y-82527255D01*
X153322900Y-82527255D02*
X153418138Y-82574874D01*
X153418138Y-82574874D02*
X153608614Y-82622493D01*
X153608614Y-82622493D02*
X153751471Y-82622493D01*
X153751471Y-82622493D02*
X153941947Y-82574874D01*
X153941947Y-82574874D02*
X154037185Y-82527255D01*
X154037185Y-82527255D02*
X154132424Y-82432017D01*
X154132424Y-82432017D02*
X154180043Y-82289160D01*
X154180043Y-82289160D02*
X154180043Y-82051065D01*
X153656233Y-83051065D02*
X153656233Y-83384398D01*
X154180043Y-83527255D02*
X154180043Y-83051065D01*
X154180043Y-83051065D02*
X153180043Y-83051065D01*
X153180043Y-83051065D02*
X153180043Y-83527255D01*
X153180043Y-83812970D02*
X153180043Y-84384398D01*
X154180043Y-84098684D02*
X153180043Y-84098684D01*
X153799090Y-85479637D02*
X153799090Y-86241542D01*
X153227662Y-88003446D02*
X153180043Y-87908208D01*
X153180043Y-87908208D02*
X153180043Y-87765351D01*
X153180043Y-87765351D02*
X153227662Y-87622494D01*
X153227662Y-87622494D02*
X153322900Y-87527256D01*
X153322900Y-87527256D02*
X153418138Y-87479637D01*
X153418138Y-87479637D02*
X153608614Y-87432018D01*
X153608614Y-87432018D02*
X153751471Y-87432018D01*
X153751471Y-87432018D02*
X153941947Y-87479637D01*
X153941947Y-87479637D02*
X154037185Y-87527256D01*
X154037185Y-87527256D02*
X154132424Y-87622494D01*
X154132424Y-87622494D02*
X154180043Y-87765351D01*
X154180043Y-87765351D02*
X154180043Y-87860589D01*
X154180043Y-87860589D02*
X154132424Y-88003446D01*
X154132424Y-88003446D02*
X154084804Y-88051065D01*
X154084804Y-88051065D02*
X153751471Y-88051065D01*
X153751471Y-88051065D02*
X153751471Y-87860589D01*
X154180043Y-89003446D02*
X154180043Y-88432018D01*
X154180043Y-88717732D02*
X153180043Y-88717732D01*
X153180043Y-88717732D02*
X153322900Y-88622494D01*
X153322900Y-88622494D02*
X153418138Y-88527256D01*
X153418138Y-88527256D02*
X153465757Y-88432018D01*
X154180043Y-89955827D02*
X154180043Y-89384399D01*
X154180043Y-89670113D02*
X153180043Y-89670113D01*
X153180043Y-89670113D02*
X153322900Y-89574875D01*
X153322900Y-89574875D02*
X153418138Y-89479637D01*
X153418138Y-89479637D02*
X153465757Y-89384399D01*
X155694748Y-79908207D02*
X155742368Y-79860588D01*
X155742368Y-79860588D02*
X155789987Y-79717731D01*
X155789987Y-79717731D02*
X155789987Y-79622493D01*
X155789987Y-79622493D02*
X155742368Y-79479636D01*
X155742368Y-79479636D02*
X155647129Y-79384398D01*
X155647129Y-79384398D02*
X155551891Y-79336779D01*
X155551891Y-79336779D02*
X155361415Y-79289160D01*
X155361415Y-79289160D02*
X155218558Y-79289160D01*
X155218558Y-79289160D02*
X155028082Y-79336779D01*
X155028082Y-79336779D02*
X154932844Y-79384398D01*
X154932844Y-79384398D02*
X154837606Y-79479636D01*
X154837606Y-79479636D02*
X154789987Y-79622493D01*
X154789987Y-79622493D02*
X154789987Y-79717731D01*
X154789987Y-79717731D02*
X154837606Y-79860588D01*
X154837606Y-79860588D02*
X154885225Y-79908207D01*
X155742368Y-80289160D02*
X155789987Y-80432017D01*
X155789987Y-80432017D02*
X155789987Y-80670112D01*
X155789987Y-80670112D02*
X155742368Y-80765350D01*
X155742368Y-80765350D02*
X155694748Y-80812969D01*
X155694748Y-80812969D02*
X155599510Y-80860588D01*
X155599510Y-80860588D02*
X155504272Y-80860588D01*
X155504272Y-80860588D02*
X155409034Y-80812969D01*
X155409034Y-80812969D02*
X155361415Y-80765350D01*
X155361415Y-80765350D02*
X155313796Y-80670112D01*
X155313796Y-80670112D02*
X155266177Y-80479636D01*
X155266177Y-80479636D02*
X155218558Y-80384398D01*
X155218558Y-80384398D02*
X155170939Y-80336779D01*
X155170939Y-80336779D02*
X155075701Y-80289160D01*
X155075701Y-80289160D02*
X154980463Y-80289160D01*
X154980463Y-80289160D02*
X154885225Y-80336779D01*
X154885225Y-80336779D02*
X154837606Y-80384398D01*
X154837606Y-80384398D02*
X154789987Y-80479636D01*
X154789987Y-80479636D02*
X154789987Y-80717731D01*
X154789987Y-80717731D02*
X154837606Y-80860588D01*
X155409034Y-82051065D02*
X155409034Y-82812970D01*
X154837606Y-84574874D02*
X154789987Y-84479636D01*
X154789987Y-84479636D02*
X154789987Y-84336779D01*
X154789987Y-84336779D02*
X154837606Y-84193922D01*
X154837606Y-84193922D02*
X154932844Y-84098684D01*
X154932844Y-84098684D02*
X155028082Y-84051065D01*
X155028082Y-84051065D02*
X155218558Y-84003446D01*
X155218558Y-84003446D02*
X155361415Y-84003446D01*
X155361415Y-84003446D02*
X155551891Y-84051065D01*
X155551891Y-84051065D02*
X155647129Y-84098684D01*
X155647129Y-84098684D02*
X155742368Y-84193922D01*
X155742368Y-84193922D02*
X155789987Y-84336779D01*
X155789987Y-84336779D02*
X155789987Y-84432017D01*
X155789987Y-84432017D02*
X155742368Y-84574874D01*
X155742368Y-84574874D02*
X155694748Y-84622493D01*
X155694748Y-84622493D02*
X155361415Y-84622493D01*
X155361415Y-84622493D02*
X155361415Y-84432017D01*
X155789987Y-85574874D02*
X155789987Y-85003446D01*
X155789987Y-85289160D02*
X154789987Y-85289160D01*
X154789987Y-85289160D02*
X154932844Y-85193922D01*
X154932844Y-85193922D02*
X155028082Y-85098684D01*
X155028082Y-85098684D02*
X155075701Y-85003446D01*
X155123320Y-86432017D02*
X155789987Y-86432017D01*
X154742368Y-86193922D02*
X155456653Y-85955827D01*
X155456653Y-85955827D02*
X155456653Y-86574874D01*
X157352312Y-79289160D02*
X157399931Y-79432017D01*
X157399931Y-79432017D02*
X157399931Y-79670112D01*
X157399931Y-79670112D02*
X157352312Y-79765350D01*
X157352312Y-79765350D02*
X157304692Y-79812969D01*
X157304692Y-79812969D02*
X157209454Y-79860588D01*
X157209454Y-79860588D02*
X157114216Y-79860588D01*
X157114216Y-79860588D02*
X157018978Y-79812969D01*
X157018978Y-79812969D02*
X156971359Y-79765350D01*
X156971359Y-79765350D02*
X156923740Y-79670112D01*
X156923740Y-79670112D02*
X156876121Y-79479636D01*
X156876121Y-79479636D02*
X156828502Y-79384398D01*
X156828502Y-79384398D02*
X156780883Y-79336779D01*
X156780883Y-79336779D02*
X156685645Y-79289160D01*
X156685645Y-79289160D02*
X156590407Y-79289160D01*
X156590407Y-79289160D02*
X156495169Y-79336779D01*
X156495169Y-79336779D02*
X156447550Y-79384398D01*
X156447550Y-79384398D02*
X156399931Y-79479636D01*
X156399931Y-79479636D02*
X156399931Y-79717731D01*
X156399931Y-79717731D02*
X156447550Y-79860588D01*
X157304692Y-80860588D02*
X157352312Y-80812969D01*
X157352312Y-80812969D02*
X157399931Y-80670112D01*
X157399931Y-80670112D02*
X157399931Y-80574874D01*
X157399931Y-80574874D02*
X157352312Y-80432017D01*
X157352312Y-80432017D02*
X157257073Y-80336779D01*
X157257073Y-80336779D02*
X157161835Y-80289160D01*
X157161835Y-80289160D02*
X156971359Y-80241541D01*
X156971359Y-80241541D02*
X156828502Y-80241541D01*
X156828502Y-80241541D02*
X156638026Y-80289160D01*
X156638026Y-80289160D02*
X156542788Y-80336779D01*
X156542788Y-80336779D02*
X156447550Y-80432017D01*
X156447550Y-80432017D02*
X156399931Y-80574874D01*
X156399931Y-80574874D02*
X156399931Y-80670112D01*
X156399931Y-80670112D02*
X156447550Y-80812969D01*
X156447550Y-80812969D02*
X156495169Y-80860588D01*
X157399931Y-81289160D02*
X156399931Y-81289160D01*
X157399931Y-81860588D02*
X156828502Y-81432017D01*
X156399931Y-81860588D02*
X156971359Y-81289160D01*
X157018978Y-83051065D02*
X157018978Y-83812970D01*
X156447550Y-85574874D02*
X156399931Y-85479636D01*
X156399931Y-85479636D02*
X156399931Y-85336779D01*
X156399931Y-85336779D02*
X156447550Y-85193922D01*
X156447550Y-85193922D02*
X156542788Y-85098684D01*
X156542788Y-85098684D02*
X156638026Y-85051065D01*
X156638026Y-85051065D02*
X156828502Y-85003446D01*
X156828502Y-85003446D02*
X156971359Y-85003446D01*
X156971359Y-85003446D02*
X157161835Y-85051065D01*
X157161835Y-85051065D02*
X157257073Y-85098684D01*
X157257073Y-85098684D02*
X157352312Y-85193922D01*
X157352312Y-85193922D02*
X157399931Y-85336779D01*
X157399931Y-85336779D02*
X157399931Y-85432017D01*
X157399931Y-85432017D02*
X157352312Y-85574874D01*
X157352312Y-85574874D02*
X157304692Y-85622493D01*
X157304692Y-85622493D02*
X156971359Y-85622493D01*
X156971359Y-85622493D02*
X156971359Y-85432017D01*
X157399931Y-86574874D02*
X157399931Y-86003446D01*
X157399931Y-86289160D02*
X156399931Y-86289160D01*
X156399931Y-86289160D02*
X156542788Y-86193922D01*
X156542788Y-86193922D02*
X156638026Y-86098684D01*
X156638026Y-86098684D02*
X156685645Y-86003446D01*
X156399931Y-87479636D02*
X156399931Y-87003446D01*
X156399931Y-87003446D02*
X156876121Y-86955827D01*
X156876121Y-86955827D02*
X156828502Y-87003446D01*
X156828502Y-87003446D02*
X156780883Y-87098684D01*
X156780883Y-87098684D02*
X156780883Y-87336779D01*
X156780883Y-87336779D02*
X156828502Y-87432017D01*
X156828502Y-87432017D02*
X156876121Y-87479636D01*
X156876121Y-87479636D02*
X156971359Y-87527255D01*
X156971359Y-87527255D02*
X157209454Y-87527255D01*
X157209454Y-87527255D02*
X157304692Y-87479636D01*
X157304692Y-87479636D02*
X157352312Y-87432017D01*
X157352312Y-87432017D02*
X157399931Y-87336779D01*
X157399931Y-87336779D02*
X157399931Y-87098684D01*
X157399931Y-87098684D02*
X157352312Y-87003446D01*
X157352312Y-87003446D02*
X157304692Y-86955827D01*
X158914636Y-79908207D02*
X158962256Y-79860588D01*
X158962256Y-79860588D02*
X159009875Y-79717731D01*
X159009875Y-79717731D02*
X159009875Y-79622493D01*
X159009875Y-79622493D02*
X158962256Y-79479636D01*
X158962256Y-79479636D02*
X158867017Y-79384398D01*
X158867017Y-79384398D02*
X158771779Y-79336779D01*
X158771779Y-79336779D02*
X158581303Y-79289160D01*
X158581303Y-79289160D02*
X158438446Y-79289160D01*
X158438446Y-79289160D02*
X158247970Y-79336779D01*
X158247970Y-79336779D02*
X158152732Y-79384398D01*
X158152732Y-79384398D02*
X158057494Y-79479636D01*
X158057494Y-79479636D02*
X158009875Y-79622493D01*
X158009875Y-79622493D02*
X158009875Y-79717731D01*
X158009875Y-79717731D02*
X158057494Y-79860588D01*
X158057494Y-79860588D02*
X158105113Y-79908207D01*
X158009875Y-80527255D02*
X158009875Y-80717731D01*
X158009875Y-80717731D02*
X158057494Y-80812969D01*
X158057494Y-80812969D02*
X158152732Y-80908207D01*
X158152732Y-80908207D02*
X158343208Y-80955826D01*
X158343208Y-80955826D02*
X158676541Y-80955826D01*
X158676541Y-80955826D02*
X158867017Y-80908207D01*
X158867017Y-80908207D02*
X158962256Y-80812969D01*
X158962256Y-80812969D02*
X159009875Y-80717731D01*
X159009875Y-80717731D02*
X159009875Y-80527255D01*
X159009875Y-80527255D02*
X158962256Y-80432017D01*
X158962256Y-80432017D02*
X158867017Y-80336779D01*
X158867017Y-80336779D02*
X158676541Y-80289160D01*
X158676541Y-80289160D02*
X158343208Y-80289160D01*
X158343208Y-80289160D02*
X158152732Y-80336779D01*
X158152732Y-80336779D02*
X158057494Y-80432017D01*
X158057494Y-80432017D02*
X158009875Y-80527255D01*
X159009875Y-81384398D02*
X158009875Y-81384398D01*
X158009875Y-81384398D02*
X158009875Y-81765350D01*
X158009875Y-81765350D02*
X158057494Y-81860588D01*
X158057494Y-81860588D02*
X158105113Y-81908207D01*
X158105113Y-81908207D02*
X158200351Y-81955826D01*
X158200351Y-81955826D02*
X158343208Y-81955826D01*
X158343208Y-81955826D02*
X158438446Y-81908207D01*
X158438446Y-81908207D02*
X158486065Y-81860588D01*
X158486065Y-81860588D02*
X158533684Y-81765350D01*
X158533684Y-81765350D02*
X158533684Y-81384398D01*
X159009875Y-82384398D02*
X158009875Y-82384398D01*
X158628922Y-83622493D02*
X158628922Y-84384398D01*
X158057494Y-86146302D02*
X158009875Y-86051064D01*
X158009875Y-86051064D02*
X158009875Y-85908207D01*
X158009875Y-85908207D02*
X158057494Y-85765350D01*
X158057494Y-85765350D02*
X158152732Y-85670112D01*
X158152732Y-85670112D02*
X158247970Y-85622493D01*
X158247970Y-85622493D02*
X158438446Y-85574874D01*
X158438446Y-85574874D02*
X158581303Y-85574874D01*
X158581303Y-85574874D02*
X158771779Y-85622493D01*
X158771779Y-85622493D02*
X158867017Y-85670112D01*
X158867017Y-85670112D02*
X158962256Y-85765350D01*
X158962256Y-85765350D02*
X159009875Y-85908207D01*
X159009875Y-85908207D02*
X159009875Y-86003445D01*
X159009875Y-86003445D02*
X158962256Y-86146302D01*
X158962256Y-86146302D02*
X158914636Y-86193921D01*
X158914636Y-86193921D02*
X158581303Y-86193921D01*
X158581303Y-86193921D02*
X158581303Y-86003445D01*
X159009875Y-87146302D02*
X159009875Y-86574874D01*
X159009875Y-86860588D02*
X158009875Y-86860588D01*
X158009875Y-86860588D02*
X158152732Y-86765350D01*
X158152732Y-86765350D02*
X158247970Y-86670112D01*
X158247970Y-86670112D02*
X158295589Y-86574874D01*
X158009875Y-88003445D02*
X158009875Y-87812969D01*
X158009875Y-87812969D02*
X158057494Y-87717731D01*
X158057494Y-87717731D02*
X158105113Y-87670112D01*
X158105113Y-87670112D02*
X158247970Y-87574874D01*
X158247970Y-87574874D02*
X158438446Y-87527255D01*
X158438446Y-87527255D02*
X158819398Y-87527255D01*
X158819398Y-87527255D02*
X158914636Y-87574874D01*
X158914636Y-87574874D02*
X158962256Y-87622493D01*
X158962256Y-87622493D02*
X159009875Y-87717731D01*
X159009875Y-87717731D02*
X159009875Y-87908207D01*
X159009875Y-87908207D02*
X158962256Y-88003445D01*
X158962256Y-88003445D02*
X158914636Y-88051064D01*
X158914636Y-88051064D02*
X158819398Y-88098683D01*
X158819398Y-88098683D02*
X158581303Y-88098683D01*
X158581303Y-88098683D02*
X158486065Y-88051064D01*
X158486065Y-88051064D02*
X158438446Y-88003445D01*
X158438446Y-88003445D02*
X158390827Y-87908207D01*
X158390827Y-87908207D02*
X158390827Y-87717731D01*
X158390827Y-87717731D02*
X158438446Y-87622493D01*
X158438446Y-87622493D02*
X158486065Y-87574874D01*
X158486065Y-87574874D02*
X158581303Y-87527255D01*
X160524580Y-79908207D02*
X160572200Y-79860588D01*
X160572200Y-79860588D02*
X160619819Y-79717731D01*
X160619819Y-79717731D02*
X160619819Y-79622493D01*
X160619819Y-79622493D02*
X160572200Y-79479636D01*
X160572200Y-79479636D02*
X160476961Y-79384398D01*
X160476961Y-79384398D02*
X160381723Y-79336779D01*
X160381723Y-79336779D02*
X160191247Y-79289160D01*
X160191247Y-79289160D02*
X160048390Y-79289160D01*
X160048390Y-79289160D02*
X159857914Y-79336779D01*
X159857914Y-79336779D02*
X159762676Y-79384398D01*
X159762676Y-79384398D02*
X159667438Y-79479636D01*
X159667438Y-79479636D02*
X159619819Y-79622493D01*
X159619819Y-79622493D02*
X159619819Y-79717731D01*
X159619819Y-79717731D02*
X159667438Y-79860588D01*
X159667438Y-79860588D02*
X159715057Y-79908207D01*
X160619819Y-80336779D02*
X159619819Y-80336779D01*
X160619819Y-80812969D02*
X159619819Y-80812969D01*
X159619819Y-80812969D02*
X159619819Y-81193921D01*
X159619819Y-81193921D02*
X159667438Y-81289159D01*
X159667438Y-81289159D02*
X159715057Y-81336778D01*
X159715057Y-81336778D02*
X159810295Y-81384397D01*
X159810295Y-81384397D02*
X159953152Y-81384397D01*
X159953152Y-81384397D02*
X160048390Y-81336778D01*
X160048390Y-81336778D02*
X160096009Y-81289159D01*
X160096009Y-81289159D02*
X160143628Y-81193921D01*
X160143628Y-81193921D02*
X160143628Y-80812969D01*
X159619819Y-82003445D02*
X159619819Y-82193921D01*
X159619819Y-82193921D02*
X159667438Y-82289159D01*
X159667438Y-82289159D02*
X159762676Y-82384397D01*
X159762676Y-82384397D02*
X159953152Y-82432016D01*
X159953152Y-82432016D02*
X160286485Y-82432016D01*
X160286485Y-82432016D02*
X160476961Y-82384397D01*
X160476961Y-82384397D02*
X160572200Y-82289159D01*
X160572200Y-82289159D02*
X160619819Y-82193921D01*
X160619819Y-82193921D02*
X160619819Y-82003445D01*
X160619819Y-82003445D02*
X160572200Y-81908207D01*
X160572200Y-81908207D02*
X160476961Y-81812969D01*
X160476961Y-81812969D02*
X160286485Y-81765350D01*
X160286485Y-81765350D02*
X159953152Y-81765350D01*
X159953152Y-81765350D02*
X159762676Y-81812969D01*
X159762676Y-81812969D02*
X159667438Y-81908207D01*
X159667438Y-81908207D02*
X159619819Y-82003445D01*
X160238866Y-83622493D02*
X160238866Y-84384398D01*
X159667438Y-86146302D02*
X159619819Y-86051064D01*
X159619819Y-86051064D02*
X159619819Y-85908207D01*
X159619819Y-85908207D02*
X159667438Y-85765350D01*
X159667438Y-85765350D02*
X159762676Y-85670112D01*
X159762676Y-85670112D02*
X159857914Y-85622493D01*
X159857914Y-85622493D02*
X160048390Y-85574874D01*
X160048390Y-85574874D02*
X160191247Y-85574874D01*
X160191247Y-85574874D02*
X160381723Y-85622493D01*
X160381723Y-85622493D02*
X160476961Y-85670112D01*
X160476961Y-85670112D02*
X160572200Y-85765350D01*
X160572200Y-85765350D02*
X160619819Y-85908207D01*
X160619819Y-85908207D02*
X160619819Y-86003445D01*
X160619819Y-86003445D02*
X160572200Y-86146302D01*
X160572200Y-86146302D02*
X160524580Y-86193921D01*
X160524580Y-86193921D02*
X160191247Y-86193921D01*
X160191247Y-86193921D02*
X160191247Y-86003445D01*
X160619819Y-87146302D02*
X160619819Y-86574874D01*
X160619819Y-86860588D02*
X159619819Y-86860588D01*
X159619819Y-86860588D02*
X159762676Y-86765350D01*
X159762676Y-86765350D02*
X159857914Y-86670112D01*
X159857914Y-86670112D02*
X159905533Y-86574874D01*
X159619819Y-87479636D02*
X159619819Y-88146302D01*
X159619819Y-88146302D02*
X160619819Y-87717731D01*
X157417438Y-106110588D02*
X157369819Y-106015350D01*
X157369819Y-106015350D02*
X157369819Y-105872493D01*
X157369819Y-105872493D02*
X157417438Y-105729636D01*
X157417438Y-105729636D02*
X157512676Y-105634398D01*
X157512676Y-105634398D02*
X157607914Y-105586779D01*
X157607914Y-105586779D02*
X157798390Y-105539160D01*
X157798390Y-105539160D02*
X157941247Y-105539160D01*
X157941247Y-105539160D02*
X158131723Y-105586779D01*
X158131723Y-105586779D02*
X158226961Y-105634398D01*
X158226961Y-105634398D02*
X158322200Y-105729636D01*
X158322200Y-105729636D02*
X158369819Y-105872493D01*
X158369819Y-105872493D02*
X158369819Y-105967731D01*
X158369819Y-105967731D02*
X158322200Y-106110588D01*
X158322200Y-106110588D02*
X158274580Y-106158207D01*
X158274580Y-106158207D02*
X157941247Y-106158207D01*
X157941247Y-106158207D02*
X157941247Y-105967731D01*
X158369819Y-106586779D02*
X157369819Y-106586779D01*
X157369819Y-106586779D02*
X158369819Y-107158207D01*
X158369819Y-107158207D02*
X157369819Y-107158207D01*
X158369819Y-107634398D02*
X157369819Y-107634398D01*
X157369819Y-107634398D02*
X157369819Y-107872493D01*
X157369819Y-107872493D02*
X157417438Y-108015350D01*
X157417438Y-108015350D02*
X157512676Y-108110588D01*
X157512676Y-108110588D02*
X157607914Y-108158207D01*
X157607914Y-108158207D02*
X157798390Y-108205826D01*
X157798390Y-108205826D02*
X157941247Y-108205826D01*
X157941247Y-108205826D02*
X158131723Y-108158207D01*
X158131723Y-108158207D02*
X158226961Y-108110588D01*
X158226961Y-108110588D02*
X158322200Y-108015350D01*
X158322200Y-108015350D02*
X158369819Y-107872493D01*
X158369819Y-107872493D02*
X158369819Y-107634398D01*
X125889411Y-127417438D02*
X125984649Y-127369819D01*
X125984649Y-127369819D02*
X126127506Y-127369819D01*
X126127506Y-127369819D02*
X126270363Y-127417438D01*
X126270363Y-127417438D02*
X126365601Y-127512676D01*
X126365601Y-127512676D02*
X126413220Y-127607914D01*
X126413220Y-127607914D02*
X126460839Y-127798390D01*
X126460839Y-127798390D02*
X126460839Y-127941247D01*
X126460839Y-127941247D02*
X126413220Y-128131723D01*
X126413220Y-128131723D02*
X126365601Y-128226961D01*
X126365601Y-128226961D02*
X126270363Y-128322200D01*
X126270363Y-128322200D02*
X126127506Y-128369819D01*
X126127506Y-128369819D02*
X126032268Y-128369819D01*
X126032268Y-128369819D02*
X125889411Y-128322200D01*
X125889411Y-128322200D02*
X125841792Y-128274580D01*
X125841792Y-128274580D02*
X125841792Y-127941247D01*
X125841792Y-127941247D02*
X126032268Y-127941247D01*
X125413220Y-128369819D02*
X125413220Y-127369819D01*
X125413220Y-127369819D02*
X124841792Y-128369819D01*
X124841792Y-128369819D02*
X124841792Y-127369819D01*
X124365601Y-128369819D02*
X124365601Y-127369819D01*
X124365601Y-127369819D02*
X124127506Y-127369819D01*
X124127506Y-127369819D02*
X123984649Y-127417438D01*
X123984649Y-127417438D02*
X123889411Y-127512676D01*
X123889411Y-127512676D02*
X123841792Y-127607914D01*
X123841792Y-127607914D02*
X123794173Y-127798390D01*
X123794173Y-127798390D02*
X123794173Y-127941247D01*
X123794173Y-127941247D02*
X123841792Y-128131723D01*
X123841792Y-128131723D02*
X123889411Y-128226961D01*
X123889411Y-128226961D02*
X123984649Y-128322200D01*
X123984649Y-128322200D02*
X124127506Y-128369819D01*
X124127506Y-128369819D02*
X124365601Y-128369819D01*
X161072200Y-120714286D02*
X161119819Y-120857143D01*
X161119819Y-120857143D02*
X161119819Y-121095238D01*
X161119819Y-121095238D02*
X161072200Y-121190476D01*
X161072200Y-121190476D02*
X161024580Y-121238095D01*
X161024580Y-121238095D02*
X160929342Y-121285714D01*
X160929342Y-121285714D02*
X160834104Y-121285714D01*
X160834104Y-121285714D02*
X160738866Y-121238095D01*
X160738866Y-121238095D02*
X160691247Y-121190476D01*
X160691247Y-121190476D02*
X160643628Y-121095238D01*
X160643628Y-121095238D02*
X160596009Y-120904762D01*
X160596009Y-120904762D02*
X160548390Y-120809524D01*
X160548390Y-120809524D02*
X160500771Y-120761905D01*
X160500771Y-120761905D02*
X160405533Y-120714286D01*
X160405533Y-120714286D02*
X160310295Y-120714286D01*
X160310295Y-120714286D02*
X160215057Y-120761905D01*
X160215057Y-120761905D02*
X160167438Y-120809524D01*
X160167438Y-120809524D02*
X160119819Y-120904762D01*
X160119819Y-120904762D02*
X160119819Y-121142857D01*
X160119819Y-121142857D02*
X160167438Y-121285714D01*
X161119819Y-122285714D02*
X160643628Y-121952381D01*
X161119819Y-121714286D02*
X160119819Y-121714286D01*
X160119819Y-121714286D02*
X160119819Y-122095238D01*
X160119819Y-122095238D02*
X160167438Y-122190476D01*
X160167438Y-122190476D02*
X160215057Y-122238095D01*
X160215057Y-122238095D02*
X160310295Y-122285714D01*
X160310295Y-122285714D02*
X160453152Y-122285714D01*
X160453152Y-122285714D02*
X160548390Y-122238095D01*
X160548390Y-122238095D02*
X160596009Y-122190476D01*
X160596009Y-122190476D02*
X160643628Y-122095238D01*
X160643628Y-122095238D02*
X160643628Y-121714286D01*
X161024580Y-123285714D02*
X161072200Y-123238095D01*
X161072200Y-123238095D02*
X161119819Y-123095238D01*
X161119819Y-123095238D02*
X161119819Y-123000000D01*
X161119819Y-123000000D02*
X161072200Y-122857143D01*
X161072200Y-122857143D02*
X160976961Y-122761905D01*
X160976961Y-122761905D02*
X160881723Y-122714286D01*
X160881723Y-122714286D02*
X160691247Y-122666667D01*
X160691247Y-122666667D02*
X160548390Y-122666667D01*
X160548390Y-122666667D02*
X160357914Y-122714286D01*
X160357914Y-122714286D02*
X160262676Y-122761905D01*
X160262676Y-122761905D02*
X160167438Y-122857143D01*
X160167438Y-122857143D02*
X160119819Y-123000000D01*
X160119819Y-123000000D02*
X160119819Y-123095238D01*
X160119819Y-123095238D02*
X160167438Y-123238095D01*
X160167438Y-123238095D02*
X160215057Y-123285714D01*
X148205931Y-112636904D02*
X148920216Y-112636904D01*
X148920216Y-112636904D02*
X149063073Y-112589285D01*
X149063073Y-112589285D02*
X149158312Y-112494047D01*
X149158312Y-112494047D02*
X149205931Y-112351190D01*
X149205931Y-112351190D02*
X149205931Y-112255952D01*
X149205931Y-113636904D02*
X149205931Y-113065476D01*
X149205931Y-113351190D02*
X148205931Y-113351190D01*
X148205931Y-113351190D02*
X148348788Y-113255952D01*
X148348788Y-113255952D02*
X148444026Y-113160714D01*
X148444026Y-113160714D02*
X148491645Y-113065476D01*
X148205931Y-114255952D02*
X148205931Y-114351190D01*
X148205931Y-114351190D02*
X148253550Y-114446428D01*
X148253550Y-114446428D02*
X148301169Y-114494047D01*
X148301169Y-114494047D02*
X148396407Y-114541666D01*
X148396407Y-114541666D02*
X148586883Y-114589285D01*
X148586883Y-114589285D02*
X148824978Y-114589285D01*
X148824978Y-114589285D02*
X149015454Y-114541666D01*
X149015454Y-114541666D02*
X149110692Y-114494047D01*
X149110692Y-114494047D02*
X149158312Y-114446428D01*
X149158312Y-114446428D02*
X149205931Y-114351190D01*
X149205931Y-114351190D02*
X149205931Y-114255952D01*
X149205931Y-114255952D02*
X149158312Y-114160714D01*
X149158312Y-114160714D02*
X149110692Y-114113095D01*
X149110692Y-114113095D02*
X149015454Y-114065476D01*
X149015454Y-114065476D02*
X148824978Y-114017857D01*
X148824978Y-114017857D02*
X148586883Y-114017857D01*
X148586883Y-114017857D02*
X148396407Y-114065476D01*
X148396407Y-114065476D02*
X148301169Y-114113095D01*
X148301169Y-114113095D02*
X148253550Y-114160714D01*
X148253550Y-114160714D02*
X148205931Y-114255952D01*
X149205931Y-115541666D02*
X149205931Y-114970238D01*
X149205931Y-115255952D02*
X148205931Y-115255952D01*
X148205931Y-115255952D02*
X148348788Y-115160714D01*
X148348788Y-115160714D02*
X148444026Y-115065476D01*
X148444026Y-115065476D02*
X148491645Y-114970238D01*
X148158312Y-116684523D02*
X149444026Y-115827381D01*
X149205931Y-117541666D02*
X149205931Y-116970238D01*
X149205931Y-117255952D02*
X148205931Y-117255952D01*
X148205931Y-117255952D02*
X148348788Y-117160714D01*
X148348788Y-117160714D02*
X148444026Y-117065476D01*
X148444026Y-117065476D02*
X148491645Y-116970238D01*
X148205931Y-118160714D02*
X148205931Y-118255952D01*
X148205931Y-118255952D02*
X148253550Y-118351190D01*
X148253550Y-118351190D02*
X148301169Y-118398809D01*
X148301169Y-118398809D02*
X148396407Y-118446428D01*
X148396407Y-118446428D02*
X148586883Y-118494047D01*
X148586883Y-118494047D02*
X148824978Y-118494047D01*
X148824978Y-118494047D02*
X149015454Y-118446428D01*
X149015454Y-118446428D02*
X149110692Y-118398809D01*
X149110692Y-118398809D02*
X149158312Y-118351190D01*
X149158312Y-118351190D02*
X149205931Y-118255952D01*
X149205931Y-118255952D02*
X149205931Y-118160714D01*
X149205931Y-118160714D02*
X149158312Y-118065476D01*
X149158312Y-118065476D02*
X149110692Y-118017857D01*
X149110692Y-118017857D02*
X149015454Y-117970238D01*
X149015454Y-117970238D02*
X148824978Y-117922619D01*
X148824978Y-117922619D02*
X148586883Y-117922619D01*
X148586883Y-117922619D02*
X148396407Y-117970238D01*
X148396407Y-117970238D02*
X148301169Y-118017857D01*
X148301169Y-118017857D02*
X148253550Y-118065476D01*
X148253550Y-118065476D02*
X148205931Y-118160714D01*
X148301169Y-118875000D02*
X148253550Y-118922619D01*
X148253550Y-118922619D02*
X148205931Y-119017857D01*
X148205931Y-119017857D02*
X148205931Y-119255952D01*
X148205931Y-119255952D02*
X148253550Y-119351190D01*
X148253550Y-119351190D02*
X148301169Y-119398809D01*
X148301169Y-119398809D02*
X148396407Y-119446428D01*
X148396407Y-119446428D02*
X148491645Y-119446428D01*
X148491645Y-119446428D02*
X148634502Y-119398809D01*
X148634502Y-119398809D02*
X149205931Y-118827381D01*
X149205931Y-118827381D02*
X149205931Y-119446428D01*
X150292065Y-110708332D02*
X150339684Y-110851189D01*
X150339684Y-110851189D02*
X150387303Y-110898808D01*
X150387303Y-110898808D02*
X150482541Y-110946427D01*
X150482541Y-110946427D02*
X150625398Y-110946427D01*
X150625398Y-110946427D02*
X150720636Y-110898808D01*
X150720636Y-110898808D02*
X150768256Y-110851189D01*
X150768256Y-110851189D02*
X150815875Y-110755951D01*
X150815875Y-110755951D02*
X150815875Y-110374999D01*
X150815875Y-110374999D02*
X149815875Y-110374999D01*
X149815875Y-110374999D02*
X149815875Y-110708332D01*
X149815875Y-110708332D02*
X149863494Y-110803570D01*
X149863494Y-110803570D02*
X149911113Y-110851189D01*
X149911113Y-110851189D02*
X150006351Y-110898808D01*
X150006351Y-110898808D02*
X150101589Y-110898808D01*
X150101589Y-110898808D02*
X150196827Y-110851189D01*
X150196827Y-110851189D02*
X150244446Y-110803570D01*
X150244446Y-110803570D02*
X150292065Y-110708332D01*
X150292065Y-110708332D02*
X150292065Y-110374999D01*
X150815875Y-111517856D02*
X150768256Y-111422618D01*
X150768256Y-111422618D02*
X150720636Y-111374999D01*
X150720636Y-111374999D02*
X150625398Y-111327380D01*
X150625398Y-111327380D02*
X150339684Y-111327380D01*
X150339684Y-111327380D02*
X150244446Y-111374999D01*
X150244446Y-111374999D02*
X150196827Y-111422618D01*
X150196827Y-111422618D02*
X150149208Y-111517856D01*
X150149208Y-111517856D02*
X150149208Y-111660713D01*
X150149208Y-111660713D02*
X150196827Y-111755951D01*
X150196827Y-111755951D02*
X150244446Y-111803570D01*
X150244446Y-111803570D02*
X150339684Y-111851189D01*
X150339684Y-111851189D02*
X150625398Y-111851189D01*
X150625398Y-111851189D02*
X150720636Y-111803570D01*
X150720636Y-111803570D02*
X150768256Y-111755951D01*
X150768256Y-111755951D02*
X150815875Y-111660713D01*
X150815875Y-111660713D02*
X150815875Y-111517856D01*
X150815875Y-112708332D02*
X150292065Y-112708332D01*
X150292065Y-112708332D02*
X150196827Y-112660713D01*
X150196827Y-112660713D02*
X150149208Y-112565475D01*
X150149208Y-112565475D02*
X150149208Y-112374999D01*
X150149208Y-112374999D02*
X150196827Y-112279761D01*
X150768256Y-112708332D02*
X150815875Y-112613094D01*
X150815875Y-112613094D02*
X150815875Y-112374999D01*
X150815875Y-112374999D02*
X150768256Y-112279761D01*
X150768256Y-112279761D02*
X150673017Y-112232142D01*
X150673017Y-112232142D02*
X150577779Y-112232142D01*
X150577779Y-112232142D02*
X150482541Y-112279761D01*
X150482541Y-112279761D02*
X150434922Y-112374999D01*
X150434922Y-112374999D02*
X150434922Y-112613094D01*
X150434922Y-112613094D02*
X150387303Y-112708332D01*
X150815875Y-113184523D02*
X150149208Y-113184523D01*
X150339684Y-113184523D02*
X150244446Y-113232142D01*
X150244446Y-113232142D02*
X150196827Y-113279761D01*
X150196827Y-113279761D02*
X150149208Y-113374999D01*
X150149208Y-113374999D02*
X150149208Y-113470237D01*
X150815875Y-114232142D02*
X149815875Y-114232142D01*
X150768256Y-114232142D02*
X150815875Y-114136904D01*
X150815875Y-114136904D02*
X150815875Y-113946428D01*
X150815875Y-113946428D02*
X150768256Y-113851190D01*
X150768256Y-113851190D02*
X150720636Y-113803571D01*
X150720636Y-113803571D02*
X150625398Y-113755952D01*
X150625398Y-113755952D02*
X150339684Y-113755952D01*
X150339684Y-113755952D02*
X150244446Y-113803571D01*
X150244446Y-113803571D02*
X150196827Y-113851190D01*
X150196827Y-113851190D02*
X150149208Y-113946428D01*
X150149208Y-113946428D02*
X150149208Y-114136904D01*
X150149208Y-114136904D02*
X150196827Y-114232142D01*
X150815875Y-116279762D02*
X150815875Y-116232143D01*
X150815875Y-116232143D02*
X150768256Y-116136904D01*
X150768256Y-116136904D02*
X150625398Y-115994047D01*
X150625398Y-115994047D02*
X150339684Y-115755952D01*
X150339684Y-115755952D02*
X150196827Y-115660714D01*
X150196827Y-115660714D02*
X150053970Y-115613095D01*
X150053970Y-115613095D02*
X149958732Y-115613095D01*
X149958732Y-115613095D02*
X149863494Y-115660714D01*
X149863494Y-115660714D02*
X149815875Y-115755952D01*
X149815875Y-115755952D02*
X149815875Y-115803571D01*
X149815875Y-115803571D02*
X149863494Y-115898809D01*
X149863494Y-115898809D02*
X149958732Y-115946428D01*
X149958732Y-115946428D02*
X150006351Y-115946428D01*
X150006351Y-115946428D02*
X150101589Y-115898809D01*
X150101589Y-115898809D02*
X150149208Y-115851190D01*
X150149208Y-115851190D02*
X150339684Y-115565476D01*
X150339684Y-115565476D02*
X150387303Y-115517857D01*
X150387303Y-115517857D02*
X150482541Y-115470238D01*
X150482541Y-115470238D02*
X150625398Y-115470238D01*
X150625398Y-115470238D02*
X150720636Y-115517857D01*
X150720636Y-115517857D02*
X150768256Y-115565476D01*
X150768256Y-115565476D02*
X150815875Y-115660714D01*
X150815875Y-115660714D02*
X150815875Y-115803571D01*
X150815875Y-115803571D02*
X150768256Y-115898809D01*
X150768256Y-115898809D02*
X150720636Y-115946428D01*
X150720636Y-115946428D02*
X150530160Y-116089285D01*
X150530160Y-116089285D02*
X150387303Y-116136904D01*
X150387303Y-116136904D02*
X150292065Y-116136904D01*
X150768256Y-117422619D02*
X150815875Y-117565476D01*
X150815875Y-117565476D02*
X150815875Y-117803571D01*
X150815875Y-117803571D02*
X150768256Y-117898809D01*
X150768256Y-117898809D02*
X150720636Y-117946428D01*
X150720636Y-117946428D02*
X150625398Y-117994047D01*
X150625398Y-117994047D02*
X150530160Y-117994047D01*
X150530160Y-117994047D02*
X150434922Y-117946428D01*
X150434922Y-117946428D02*
X150387303Y-117898809D01*
X150387303Y-117898809D02*
X150339684Y-117803571D01*
X150339684Y-117803571D02*
X150292065Y-117613095D01*
X150292065Y-117613095D02*
X150244446Y-117517857D01*
X150244446Y-117517857D02*
X150196827Y-117470238D01*
X150196827Y-117470238D02*
X150101589Y-117422619D01*
X150101589Y-117422619D02*
X150006351Y-117422619D01*
X150006351Y-117422619D02*
X149911113Y-117470238D01*
X149911113Y-117470238D02*
X149863494Y-117517857D01*
X149863494Y-117517857D02*
X149815875Y-117613095D01*
X149815875Y-117613095D02*
X149815875Y-117851190D01*
X149815875Y-117851190D02*
X149863494Y-117994047D01*
X150768256Y-118803571D02*
X150815875Y-118708333D01*
X150815875Y-118708333D02*
X150815875Y-118517857D01*
X150815875Y-118517857D02*
X150768256Y-118422619D01*
X150768256Y-118422619D02*
X150673017Y-118375000D01*
X150673017Y-118375000D02*
X150292065Y-118375000D01*
X150292065Y-118375000D02*
X150196827Y-118422619D01*
X150196827Y-118422619D02*
X150149208Y-118517857D01*
X150149208Y-118517857D02*
X150149208Y-118708333D01*
X150149208Y-118708333D02*
X150196827Y-118803571D01*
X150196827Y-118803571D02*
X150292065Y-118851190D01*
X150292065Y-118851190D02*
X150387303Y-118851190D01*
X150387303Y-118851190D02*
X150482541Y-118375000D01*
X150149208Y-119279762D02*
X150815875Y-119279762D01*
X150244446Y-119279762D02*
X150196827Y-119327381D01*
X150196827Y-119327381D02*
X150149208Y-119422619D01*
X150149208Y-119422619D02*
X150149208Y-119565476D01*
X150149208Y-119565476D02*
X150196827Y-119660714D01*
X150196827Y-119660714D02*
X150292065Y-119708333D01*
X150292065Y-119708333D02*
X150815875Y-119708333D01*
X150768256Y-120136905D02*
X150815875Y-120232143D01*
X150815875Y-120232143D02*
X150815875Y-120422619D01*
X150815875Y-120422619D02*
X150768256Y-120517857D01*
X150768256Y-120517857D02*
X150673017Y-120565476D01*
X150673017Y-120565476D02*
X150625398Y-120565476D01*
X150625398Y-120565476D02*
X150530160Y-120517857D01*
X150530160Y-120517857D02*
X150482541Y-120422619D01*
X150482541Y-120422619D02*
X150482541Y-120279762D01*
X150482541Y-120279762D02*
X150434922Y-120184524D01*
X150434922Y-120184524D02*
X150339684Y-120136905D01*
X150339684Y-120136905D02*
X150292065Y-120136905D01*
X150292065Y-120136905D02*
X150196827Y-120184524D01*
X150196827Y-120184524D02*
X150149208Y-120279762D01*
X150149208Y-120279762D02*
X150149208Y-120422619D01*
X150149208Y-120422619D02*
X150196827Y-120517857D01*
X150768256Y-121375000D02*
X150815875Y-121279762D01*
X150815875Y-121279762D02*
X150815875Y-121089286D01*
X150815875Y-121089286D02*
X150768256Y-120994048D01*
X150768256Y-120994048D02*
X150673017Y-120946429D01*
X150673017Y-120946429D02*
X150292065Y-120946429D01*
X150292065Y-120946429D02*
X150196827Y-120994048D01*
X150196827Y-120994048D02*
X150149208Y-121089286D01*
X150149208Y-121089286D02*
X150149208Y-121279762D01*
X150149208Y-121279762D02*
X150196827Y-121375000D01*
X150196827Y-121375000D02*
X150292065Y-121422619D01*
X150292065Y-121422619D02*
X150387303Y-121422619D01*
X150387303Y-121422619D02*
X150482541Y-120946429D01*
X151425819Y-110946428D02*
X152235342Y-110946428D01*
X152235342Y-110946428D02*
X152330580Y-110994047D01*
X152330580Y-110994047D02*
X152378200Y-111041666D01*
X152378200Y-111041666D02*
X152425819Y-111136904D01*
X152425819Y-111136904D02*
X152425819Y-111327380D01*
X152425819Y-111327380D02*
X152378200Y-111422618D01*
X152378200Y-111422618D02*
X152330580Y-111470237D01*
X152330580Y-111470237D02*
X152235342Y-111517856D01*
X152235342Y-111517856D02*
X151425819Y-111517856D01*
X151759152Y-112422618D02*
X152425819Y-112422618D01*
X151378200Y-112184523D02*
X152092485Y-111946428D01*
X152092485Y-111946428D02*
X152092485Y-112565475D01*
X151425819Y-113136904D02*
X151425819Y-113232142D01*
X151425819Y-113232142D02*
X151473438Y-113327380D01*
X151473438Y-113327380D02*
X151521057Y-113374999D01*
X151521057Y-113374999D02*
X151616295Y-113422618D01*
X151616295Y-113422618D02*
X151806771Y-113470237D01*
X151806771Y-113470237D02*
X152044866Y-113470237D01*
X152044866Y-113470237D02*
X152235342Y-113422618D01*
X152235342Y-113422618D02*
X152330580Y-113374999D01*
X152330580Y-113374999D02*
X152378200Y-113327380D01*
X152378200Y-113327380D02*
X152425819Y-113232142D01*
X152425819Y-113232142D02*
X152425819Y-113136904D01*
X152425819Y-113136904D02*
X152378200Y-113041666D01*
X152378200Y-113041666D02*
X152330580Y-112994047D01*
X152330580Y-112994047D02*
X152235342Y-112946428D01*
X152235342Y-112946428D02*
X152044866Y-112898809D01*
X152044866Y-112898809D02*
X151806771Y-112898809D01*
X151806771Y-112898809D02*
X151616295Y-112946428D01*
X151616295Y-112946428D02*
X151521057Y-112994047D01*
X151521057Y-112994047D02*
X151473438Y-113041666D01*
X151473438Y-113041666D02*
X151425819Y-113136904D01*
X152425819Y-114422618D02*
X152425819Y-113851190D01*
X152425819Y-114136904D02*
X151425819Y-114136904D01*
X151425819Y-114136904D02*
X151568676Y-114041666D01*
X151568676Y-114041666D02*
X151663914Y-113946428D01*
X151663914Y-113946428D02*
X151711533Y-113851190D01*
X152044866Y-115613095D02*
X152044866Y-116375000D01*
X151425819Y-117803571D02*
X151425819Y-117898809D01*
X151425819Y-117898809D02*
X151473438Y-117994047D01*
X151473438Y-117994047D02*
X151521057Y-118041666D01*
X151521057Y-118041666D02*
X151616295Y-118089285D01*
X151616295Y-118089285D02*
X151806771Y-118136904D01*
X151806771Y-118136904D02*
X152044866Y-118136904D01*
X152044866Y-118136904D02*
X152235342Y-118089285D01*
X152235342Y-118089285D02*
X152330580Y-118041666D01*
X152330580Y-118041666D02*
X152378200Y-117994047D01*
X152378200Y-117994047D02*
X152425819Y-117898809D01*
X152425819Y-117898809D02*
X152425819Y-117803571D01*
X152425819Y-117803571D02*
X152378200Y-117708333D01*
X152378200Y-117708333D02*
X152330580Y-117660714D01*
X152330580Y-117660714D02*
X152235342Y-117613095D01*
X152235342Y-117613095D02*
X152044866Y-117565476D01*
X152044866Y-117565476D02*
X151806771Y-117565476D01*
X151806771Y-117565476D02*
X151616295Y-117613095D01*
X151616295Y-117613095D02*
X151521057Y-117660714D01*
X151521057Y-117660714D02*
X151473438Y-117708333D01*
X151473438Y-117708333D02*
X151425819Y-117803571D01*
X152425819Y-118470238D02*
X151759152Y-118994047D01*
X151759152Y-118470238D02*
X152425819Y-118994047D01*
X151759152Y-119803571D02*
X152425819Y-119803571D01*
X151378200Y-119565476D02*
X152092485Y-119327381D01*
X152092485Y-119327381D02*
X152092485Y-119946428D01*
X151425819Y-120755952D02*
X151425819Y-120565476D01*
X151425819Y-120565476D02*
X151473438Y-120470238D01*
X151473438Y-120470238D02*
X151521057Y-120422619D01*
X151521057Y-120422619D02*
X151663914Y-120327381D01*
X151663914Y-120327381D02*
X151854390Y-120279762D01*
X151854390Y-120279762D02*
X152235342Y-120279762D01*
X152235342Y-120279762D02*
X152330580Y-120327381D01*
X152330580Y-120327381D02*
X152378200Y-120375000D01*
X152378200Y-120375000D02*
X152425819Y-120470238D01*
X152425819Y-120470238D02*
X152425819Y-120660714D01*
X152425819Y-120660714D02*
X152378200Y-120755952D01*
X152378200Y-120755952D02*
X152330580Y-120803571D01*
X152330580Y-120803571D02*
X152235342Y-120851190D01*
X152235342Y-120851190D02*
X151997247Y-120851190D01*
X151997247Y-120851190D02*
X151902009Y-120803571D01*
X151902009Y-120803571D02*
X151854390Y-120755952D01*
X151854390Y-120755952D02*
X151806771Y-120660714D01*
X151806771Y-120660714D02*
X151806771Y-120470238D01*
X151806771Y-120470238D02*
X151854390Y-120375000D01*
X151854390Y-120375000D02*
X151902009Y-120327381D01*
X151902009Y-120327381D02*
X151997247Y-120279762D01*
X96551064Y-120824009D02*
X96217731Y-120824009D01*
X96074874Y-121347819D02*
X96551064Y-121347819D01*
X96551064Y-121347819D02*
X96551064Y-120347819D01*
X96551064Y-120347819D02*
X96074874Y-120347819D01*
X95646302Y-120966866D02*
X94884398Y-120966866D01*
X93693922Y-120300200D02*
X94551064Y-121585914D01*
X93027255Y-120824009D02*
X92884398Y-120871628D01*
X92884398Y-120871628D02*
X92836779Y-120919247D01*
X92836779Y-120919247D02*
X92789160Y-121014485D01*
X92789160Y-121014485D02*
X92789160Y-121157342D01*
X92789160Y-121157342D02*
X92836779Y-121252580D01*
X92836779Y-121252580D02*
X92884398Y-121300200D01*
X92884398Y-121300200D02*
X92979636Y-121347819D01*
X92979636Y-121347819D02*
X93360588Y-121347819D01*
X93360588Y-121347819D02*
X93360588Y-120347819D01*
X93360588Y-120347819D02*
X93027255Y-120347819D01*
X93027255Y-120347819D02*
X92932017Y-120395438D01*
X92932017Y-120395438D02*
X92884398Y-120443057D01*
X92884398Y-120443057D02*
X92836779Y-120538295D01*
X92836779Y-120538295D02*
X92836779Y-120633533D01*
X92836779Y-120633533D02*
X92884398Y-120728771D01*
X92884398Y-120728771D02*
X92932017Y-120776390D01*
X92932017Y-120776390D02*
X93027255Y-120824009D01*
X93027255Y-120824009D02*
X93360588Y-120824009D01*
X92360588Y-121347819D02*
X92360588Y-120347819D01*
X91789160Y-121347819D02*
X92217731Y-120776390D01*
X91789160Y-120347819D02*
X92360588Y-120919247D01*
X96551064Y-118074009D02*
X96217731Y-118074009D01*
X96074874Y-118597819D02*
X96551064Y-118597819D01*
X96551064Y-118597819D02*
X96551064Y-117597819D01*
X96551064Y-117597819D02*
X96074874Y-117597819D01*
X95646302Y-118216866D02*
X94884398Y-118216866D01*
X95265350Y-118597819D02*
X95265350Y-117835914D01*
X93693922Y-117550200D02*
X94551064Y-118835914D01*
X92789160Y-118597819D02*
X93122493Y-118121628D01*
X93360588Y-118597819D02*
X93360588Y-117597819D01*
X93360588Y-117597819D02*
X92979636Y-117597819D01*
X92979636Y-117597819D02*
X92884398Y-117645438D01*
X92884398Y-117645438D02*
X92836779Y-117693057D01*
X92836779Y-117693057D02*
X92789160Y-117788295D01*
X92789160Y-117788295D02*
X92789160Y-117931152D01*
X92789160Y-117931152D02*
X92836779Y-118026390D01*
X92836779Y-118026390D02*
X92884398Y-118074009D01*
X92884398Y-118074009D02*
X92979636Y-118121628D01*
X92979636Y-118121628D02*
X93360588Y-118121628D01*
X92360588Y-118597819D02*
X92360588Y-117597819D01*
X92360588Y-117597819D02*
X92122493Y-117597819D01*
X92122493Y-117597819D02*
X91979636Y-117645438D01*
X91979636Y-117645438D02*
X91884398Y-117740676D01*
X91884398Y-117740676D02*
X91836779Y-117835914D01*
X91836779Y-117835914D02*
X91789160Y-118026390D01*
X91789160Y-118026390D02*
X91789160Y-118169247D01*
X91789160Y-118169247D02*
X91836779Y-118359723D01*
X91836779Y-118359723D02*
X91884398Y-118454961D01*
X91884398Y-118454961D02*
X91979636Y-118550200D01*
X91979636Y-118550200D02*
X92122493Y-118597819D01*
X92122493Y-118597819D02*
X92360588Y-118597819D01*
X161119819Y-108607142D02*
X161119819Y-108130952D01*
X161119819Y-108130952D02*
X160119819Y-108130952D01*
X160119819Y-109130952D02*
X160119819Y-109321428D01*
X160119819Y-109321428D02*
X160167438Y-109416666D01*
X160167438Y-109416666D02*
X160262676Y-109511904D01*
X160262676Y-109511904D02*
X160453152Y-109559523D01*
X160453152Y-109559523D02*
X160786485Y-109559523D01*
X160786485Y-109559523D02*
X160976961Y-109511904D01*
X160976961Y-109511904D02*
X161072200Y-109416666D01*
X161072200Y-109416666D02*
X161119819Y-109321428D01*
X161119819Y-109321428D02*
X161119819Y-109130952D01*
X161119819Y-109130952D02*
X161072200Y-109035714D01*
X161072200Y-109035714D02*
X160976961Y-108940476D01*
X160976961Y-108940476D02*
X160786485Y-108892857D01*
X160786485Y-108892857D02*
X160453152Y-108892857D01*
X160453152Y-108892857D02*
X160262676Y-108940476D01*
X160262676Y-108940476D02*
X160167438Y-109035714D01*
X160167438Y-109035714D02*
X160119819Y-109130952D01*
X160834104Y-109940476D02*
X160834104Y-110416666D01*
X161119819Y-109845238D02*
X160119819Y-110178571D01*
X160119819Y-110178571D02*
X161119819Y-110511904D01*
X161119819Y-110845238D02*
X160119819Y-110845238D01*
X160119819Y-110845238D02*
X160119819Y-111083333D01*
X160119819Y-111083333D02*
X160167438Y-111226190D01*
X160167438Y-111226190D02*
X160262676Y-111321428D01*
X160262676Y-111321428D02*
X160357914Y-111369047D01*
X160357914Y-111369047D02*
X160548390Y-111416666D01*
X160548390Y-111416666D02*
X160691247Y-111416666D01*
X160691247Y-111416666D02*
X160881723Y-111369047D01*
X160881723Y-111369047D02*
X160976961Y-111321428D01*
X160976961Y-111321428D02*
X161072200Y-111226190D01*
X161072200Y-111226190D02*
X161119819Y-111083333D01*
X161119819Y-111083333D02*
X161119819Y-110845238D01*
X96551064Y-106346009D02*
X96217731Y-106346009D01*
X96074874Y-106869819D02*
X96551064Y-106869819D01*
X96551064Y-106869819D02*
X96551064Y-105869819D01*
X96551064Y-105869819D02*
X96074874Y-105869819D01*
X95646302Y-106488866D02*
X94884398Y-106488866D01*
X93693922Y-105822200D02*
X94551064Y-107107914D01*
X93027255Y-106346009D02*
X92884398Y-106393628D01*
X92884398Y-106393628D02*
X92836779Y-106441247D01*
X92836779Y-106441247D02*
X92789160Y-106536485D01*
X92789160Y-106536485D02*
X92789160Y-106679342D01*
X92789160Y-106679342D02*
X92836779Y-106774580D01*
X92836779Y-106774580D02*
X92884398Y-106822200D01*
X92884398Y-106822200D02*
X92979636Y-106869819D01*
X92979636Y-106869819D02*
X93360588Y-106869819D01*
X93360588Y-106869819D02*
X93360588Y-105869819D01*
X93360588Y-105869819D02*
X93027255Y-105869819D01*
X93027255Y-105869819D02*
X92932017Y-105917438D01*
X92932017Y-105917438D02*
X92884398Y-105965057D01*
X92884398Y-105965057D02*
X92836779Y-106060295D01*
X92836779Y-106060295D02*
X92836779Y-106155533D01*
X92836779Y-106155533D02*
X92884398Y-106250771D01*
X92884398Y-106250771D02*
X92932017Y-106298390D01*
X92932017Y-106298390D02*
X93027255Y-106346009D01*
X93027255Y-106346009D02*
X93360588Y-106346009D01*
X92360588Y-106869819D02*
X92360588Y-105869819D01*
X91789160Y-106869819D02*
X92217731Y-106298390D01*
X91789160Y-105869819D02*
X92360588Y-106441247D01*
X96551064Y-103596009D02*
X96217731Y-103596009D01*
X96074874Y-104119819D02*
X96551064Y-104119819D01*
X96551064Y-104119819D02*
X96551064Y-103119819D01*
X96551064Y-103119819D02*
X96074874Y-103119819D01*
X95646302Y-103738866D02*
X94884398Y-103738866D01*
X95265350Y-104119819D02*
X95265350Y-103357914D01*
X93693922Y-103072200D02*
X94551064Y-104357914D01*
X92789160Y-104119819D02*
X93122493Y-103643628D01*
X93360588Y-104119819D02*
X93360588Y-103119819D01*
X93360588Y-103119819D02*
X92979636Y-103119819D01*
X92979636Y-103119819D02*
X92884398Y-103167438D01*
X92884398Y-103167438D02*
X92836779Y-103215057D01*
X92836779Y-103215057D02*
X92789160Y-103310295D01*
X92789160Y-103310295D02*
X92789160Y-103453152D01*
X92789160Y-103453152D02*
X92836779Y-103548390D01*
X92836779Y-103548390D02*
X92884398Y-103596009D01*
X92884398Y-103596009D02*
X92979636Y-103643628D01*
X92979636Y-103643628D02*
X93360588Y-103643628D01*
X92360588Y-104119819D02*
X92360588Y-103119819D01*
X92360588Y-103119819D02*
X92122493Y-103119819D01*
X92122493Y-103119819D02*
X91979636Y-103167438D01*
X91979636Y-103167438D02*
X91884398Y-103262676D01*
X91884398Y-103262676D02*
X91836779Y-103357914D01*
X91836779Y-103357914D02*
X91789160Y-103548390D01*
X91789160Y-103548390D02*
X91789160Y-103691247D01*
X91789160Y-103691247D02*
X91836779Y-103881723D01*
X91836779Y-103881723D02*
X91884398Y-103976961D01*
X91884398Y-103976961D02*
X91979636Y-104072200D01*
X91979636Y-104072200D02*
X92122493Y-104119819D01*
X92122493Y-104119819D02*
X92360588Y-104119819D01*
X119913220Y-127988866D02*
X119151316Y-127988866D01*
X119532268Y-128369819D02*
X119532268Y-127607914D01*
X118198935Y-127369819D02*
X118675125Y-127369819D01*
X118675125Y-127369819D02*
X118722744Y-127846009D01*
X118722744Y-127846009D02*
X118675125Y-127798390D01*
X118675125Y-127798390D02*
X118579887Y-127750771D01*
X118579887Y-127750771D02*
X118341792Y-127750771D01*
X118341792Y-127750771D02*
X118246554Y-127798390D01*
X118246554Y-127798390D02*
X118198935Y-127846009D01*
X118198935Y-127846009D02*
X118151316Y-127941247D01*
X118151316Y-127941247D02*
X118151316Y-128179342D01*
X118151316Y-128179342D02*
X118198935Y-128274580D01*
X118198935Y-128274580D02*
X118246554Y-128322200D01*
X118246554Y-128322200D02*
X118341792Y-128369819D01*
X118341792Y-128369819D02*
X118579887Y-128369819D01*
X118579887Y-128369819D02*
X118675125Y-128322200D01*
X118675125Y-128322200D02*
X118722744Y-128274580D01*
X117865601Y-127369819D02*
X117532268Y-128369819D01*
X117532268Y-128369819D02*
X117198935Y-127369819D01*
X116103696Y-127988866D02*
X115341792Y-127988866D01*
X113675125Y-127369819D02*
X113865601Y-127369819D01*
X113865601Y-127369819D02*
X113960839Y-127417438D01*
X113960839Y-127417438D02*
X114008458Y-127465057D01*
X114008458Y-127465057D02*
X114103696Y-127607914D01*
X114103696Y-127607914D02*
X114151315Y-127798390D01*
X114151315Y-127798390D02*
X114151315Y-128179342D01*
X114151315Y-128179342D02*
X114103696Y-128274580D01*
X114103696Y-128274580D02*
X114056077Y-128322200D01*
X114056077Y-128322200D02*
X113960839Y-128369819D01*
X113960839Y-128369819D02*
X113770363Y-128369819D01*
X113770363Y-128369819D02*
X113675125Y-128322200D01*
X113675125Y-128322200D02*
X113627506Y-128274580D01*
X113627506Y-128274580D02*
X113579887Y-128179342D01*
X113579887Y-128179342D02*
X113579887Y-127941247D01*
X113579887Y-127941247D02*
X113627506Y-127846009D01*
X113627506Y-127846009D02*
X113675125Y-127798390D01*
X113675125Y-127798390D02*
X113770363Y-127750771D01*
X113770363Y-127750771D02*
X113960839Y-127750771D01*
X113960839Y-127750771D02*
X114056077Y-127798390D01*
X114056077Y-127798390D02*
X114103696Y-127846009D01*
X114103696Y-127846009D02*
X114151315Y-127941247D01*
X112960839Y-127369819D02*
X112865601Y-127369819D01*
X112865601Y-127369819D02*
X112770363Y-127417438D01*
X112770363Y-127417438D02*
X112722744Y-127465057D01*
X112722744Y-127465057D02*
X112675125Y-127560295D01*
X112675125Y-127560295D02*
X112627506Y-127750771D01*
X112627506Y-127750771D02*
X112627506Y-127988866D01*
X112627506Y-127988866D02*
X112675125Y-128179342D01*
X112675125Y-128179342D02*
X112722744Y-128274580D01*
X112722744Y-128274580D02*
X112770363Y-128322200D01*
X112770363Y-128322200D02*
X112865601Y-128369819D01*
X112865601Y-128369819D02*
X112960839Y-128369819D01*
X112960839Y-128369819D02*
X113056077Y-128322200D01*
X113056077Y-128322200D02*
X113103696Y-128274580D01*
X113103696Y-128274580D02*
X113151315Y-128179342D01*
X113151315Y-128179342D02*
X113198934Y-127988866D01*
X113198934Y-127988866D02*
X113198934Y-127750771D01*
X113198934Y-127750771D02*
X113151315Y-127560295D01*
X113151315Y-127560295D02*
X113103696Y-127465057D01*
X113103696Y-127465057D02*
X113056077Y-127417438D01*
X113056077Y-127417438D02*
X112960839Y-127369819D01*
X112341791Y-127369819D02*
X112008458Y-128369819D01*
X112008458Y-128369819D02*
X111675125Y-127369819D01*
X141524580Y-89408207D02*
X141572200Y-89360588D01*
X141572200Y-89360588D02*
X141619819Y-89217731D01*
X141619819Y-89217731D02*
X141619819Y-89122493D01*
X141619819Y-89122493D02*
X141572200Y-88979636D01*
X141572200Y-88979636D02*
X141476961Y-88884398D01*
X141476961Y-88884398D02*
X141381723Y-88836779D01*
X141381723Y-88836779D02*
X141191247Y-88789160D01*
X141191247Y-88789160D02*
X141048390Y-88789160D01*
X141048390Y-88789160D02*
X140857914Y-88836779D01*
X140857914Y-88836779D02*
X140762676Y-88884398D01*
X140762676Y-88884398D02*
X140667438Y-88979636D01*
X140667438Y-88979636D02*
X140619819Y-89122493D01*
X140619819Y-89122493D02*
X140619819Y-89217731D01*
X140619819Y-89217731D02*
X140667438Y-89360588D01*
X140667438Y-89360588D02*
X140715057Y-89408207D01*
X141619819Y-89836779D02*
X140619819Y-89836779D01*
X141619819Y-90312969D02*
X140619819Y-90312969D01*
X140619819Y-90312969D02*
X140619819Y-90693921D01*
X140619819Y-90693921D02*
X140667438Y-90789159D01*
X140667438Y-90789159D02*
X140715057Y-90836778D01*
X140715057Y-90836778D02*
X140810295Y-90884397D01*
X140810295Y-90884397D02*
X140953152Y-90884397D01*
X140953152Y-90884397D02*
X141048390Y-90836778D01*
X141048390Y-90836778D02*
X141096009Y-90789159D01*
X141096009Y-90789159D02*
X141143628Y-90693921D01*
X141143628Y-90693921D02*
X141143628Y-90312969D01*
X140619819Y-91503445D02*
X140619819Y-91693921D01*
X140619819Y-91693921D02*
X140667438Y-91789159D01*
X140667438Y-91789159D02*
X140762676Y-91884397D01*
X140762676Y-91884397D02*
X140953152Y-91932016D01*
X140953152Y-91932016D02*
X141286485Y-91932016D01*
X141286485Y-91932016D02*
X141476961Y-91884397D01*
X141476961Y-91884397D02*
X141572200Y-91789159D01*
X141572200Y-91789159D02*
X141619819Y-91693921D01*
X141619819Y-91693921D02*
X141619819Y-91503445D01*
X141619819Y-91503445D02*
X141572200Y-91408207D01*
X141572200Y-91408207D02*
X141476961Y-91312969D01*
X141476961Y-91312969D02*
X141286485Y-91265350D01*
X141286485Y-91265350D02*
X140953152Y-91265350D01*
X140953152Y-91265350D02*
X140762676Y-91312969D01*
X140762676Y-91312969D02*
X140667438Y-91408207D01*
X140667438Y-91408207D02*
X140619819Y-91503445D01*
X157417438Y-124610588D02*
X157369819Y-124515350D01*
X157369819Y-124515350D02*
X157369819Y-124372493D01*
X157369819Y-124372493D02*
X157417438Y-124229636D01*
X157417438Y-124229636D02*
X157512676Y-124134398D01*
X157512676Y-124134398D02*
X157607914Y-124086779D01*
X157607914Y-124086779D02*
X157798390Y-124039160D01*
X157798390Y-124039160D02*
X157941247Y-124039160D01*
X157941247Y-124039160D02*
X158131723Y-124086779D01*
X158131723Y-124086779D02*
X158226961Y-124134398D01*
X158226961Y-124134398D02*
X158322200Y-124229636D01*
X158322200Y-124229636D02*
X158369819Y-124372493D01*
X158369819Y-124372493D02*
X158369819Y-124467731D01*
X158369819Y-124467731D02*
X158322200Y-124610588D01*
X158322200Y-124610588D02*
X158274580Y-124658207D01*
X158274580Y-124658207D02*
X157941247Y-124658207D01*
X157941247Y-124658207D02*
X157941247Y-124467731D01*
X158369819Y-125086779D02*
X157369819Y-125086779D01*
X157369819Y-125086779D02*
X158369819Y-125658207D01*
X158369819Y-125658207D02*
X157369819Y-125658207D01*
X158369819Y-126134398D02*
X157369819Y-126134398D01*
X157369819Y-126134398D02*
X157369819Y-126372493D01*
X157369819Y-126372493D02*
X157417438Y-126515350D01*
X157417438Y-126515350D02*
X157512676Y-126610588D01*
X157512676Y-126610588D02*
X157607914Y-126658207D01*
X157607914Y-126658207D02*
X157798390Y-126705826D01*
X157798390Y-126705826D02*
X157941247Y-126705826D01*
X157941247Y-126705826D02*
X158131723Y-126658207D01*
X158131723Y-126658207D02*
X158226961Y-126610588D01*
X158226961Y-126610588D02*
X158322200Y-126515350D01*
X158322200Y-126515350D02*
X158369819Y-126372493D01*
X158369819Y-126372493D02*
X158369819Y-126134398D01*
G36*
X113481077Y-100544819D02*
G01*
X113192830Y-100544819D01*
X113124314Y-100510561D01*
X113093907Y-100480153D01*
X113059649Y-100411637D01*
X113059649Y-100304190D01*
X113093907Y-100235674D01*
X113120401Y-100209180D01*
X113234914Y-100171009D01*
X113481077Y-100171009D01*
X113481077Y-100544819D01*
G37*
G36*
X113481077Y-100021009D02*
G01*
X113240449Y-100021009D01*
X113171933Y-99986751D01*
X113141526Y-99956344D01*
X113107268Y-99887828D01*
X113107268Y-99828000D01*
X113141526Y-99759484D01*
X113171933Y-99729077D01*
X113240449Y-99694819D01*
X113481077Y-99694819D01*
X113481077Y-100021009D01*
G37*
G36*
X114356782Y-100259104D02*
G01*
X114088706Y-100259104D01*
X114222744Y-99856989D01*
X114356782Y-100259104D01*
G37*
G36*
X114741599Y-100805930D02*
G01*
X109941395Y-100805930D01*
X109941395Y-99619819D01*
X110052506Y-99619819D01*
X110052506Y-100619819D01*
X110052876Y-100623582D01*
X110052689Y-100625058D01*
X110053210Y-100626968D01*
X110053947Y-100634451D01*
X110057764Y-100643666D01*
X110060389Y-100653290D01*
X110063316Y-100657070D01*
X110065146Y-100661487D01*
X110072196Y-100668537D01*
X110078306Y-100676427D01*
X110082459Y-100678800D01*
X110085838Y-100682179D01*
X110095050Y-100685995D01*
X110103715Y-100690946D01*
X110108458Y-100691548D01*
X110112874Y-100693378D01*
X110122848Y-100693378D01*
X110132745Y-100694636D01*
X110137357Y-100693378D01*
X110142138Y-100693378D01*
X110151353Y-100689560D01*
X110160977Y-100686936D01*
X110164757Y-100684008D01*
X110169174Y-100682179D01*
X110176224Y-100675128D01*
X110184114Y-100669019D01*
X110188466Y-100662886D01*
X110189866Y-100661487D01*
X110190435Y-100660112D01*
X110192624Y-100657029D01*
X110623934Y-99902235D01*
X110623934Y-100619819D01*
X110625375Y-100634451D01*
X110636574Y-100661487D01*
X110657266Y-100682179D01*
X110684302Y-100693378D01*
X110713566Y-100693378D01*
X110740602Y-100682179D01*
X110761294Y-100661487D01*
X110772493Y-100634451D01*
X110773934Y-100619819D01*
X110773934Y-99619819D01*
X110773563Y-99616055D01*
X110773751Y-99614580D01*
X110773229Y-99612669D01*
X110772493Y-99605187D01*
X111053947Y-99605187D01*
X111053947Y-99634451D01*
X111065146Y-99661487D01*
X111085838Y-99682179D01*
X111112874Y-99693378D01*
X111127506Y-99694819D01*
X111528696Y-99694819D01*
X111528696Y-100021009D01*
X111270363Y-100021009D01*
X111255731Y-100022450D01*
X111228695Y-100033649D01*
X111208003Y-100054341D01*
X111196804Y-100081377D01*
X111196804Y-100110641D01*
X111208003Y-100137677D01*
X111228695Y-100158369D01*
X111255731Y-100169568D01*
X111270363Y-100171009D01*
X111528696Y-100171009D01*
X111528696Y-100544819D01*
X111127506Y-100544819D01*
X111112874Y-100546260D01*
X111085838Y-100557459D01*
X111065146Y-100578151D01*
X111053947Y-100605187D01*
X111053947Y-100634451D01*
X111065146Y-100661487D01*
X111085838Y-100682179D01*
X111112874Y-100693378D01*
X111127506Y-100694819D01*
X111603696Y-100694819D01*
X111618328Y-100693378D01*
X111645364Y-100682179D01*
X111666056Y-100661487D01*
X111677255Y-100634451D01*
X111678696Y-100619819D01*
X111678696Y-100271853D01*
X111911090Y-100271853D01*
X111911090Y-100301117D01*
X111922289Y-100328153D01*
X111942981Y-100348845D01*
X111970017Y-100360044D01*
X111984649Y-100361485D01*
X112052506Y-100361485D01*
X112052506Y-100619819D01*
X112053947Y-100634451D01*
X112065146Y-100661487D01*
X112085838Y-100682179D01*
X112112874Y-100693378D01*
X112142138Y-100693378D01*
X112169174Y-100682179D01*
X112189866Y-100661487D01*
X112201065Y-100634451D01*
X112202506Y-100619819D01*
X112202506Y-100361485D01*
X112603696Y-100361485D01*
X112611101Y-100360755D01*
X112613076Y-100360896D01*
X112614501Y-100360420D01*
X112618328Y-100360044D01*
X112629437Y-100355442D01*
X112640838Y-100351642D01*
X112642873Y-100349876D01*
X112645364Y-100348845D01*
X112653866Y-100340342D01*
X112662946Y-100332468D01*
X112664150Y-100330058D01*
X112666056Y-100328153D01*
X112670658Y-100317041D01*
X112676032Y-100306294D01*
X112676222Y-100303608D01*
X112677255Y-100301117D01*
X112677255Y-100289089D01*
X112677440Y-100286485D01*
X112909649Y-100286485D01*
X112909649Y-100429342D01*
X112911090Y-100443974D01*
X112912121Y-100446463D01*
X112912312Y-100449151D01*
X112917567Y-100462883D01*
X112965186Y-100558121D01*
X112969149Y-100564417D01*
X112969907Y-100566247D01*
X112971596Y-100568305D01*
X112973018Y-100570564D01*
X112974516Y-100571863D01*
X112979234Y-100577612D01*
X113026853Y-100625232D01*
X113032602Y-100629950D01*
X113033903Y-100631450D01*
X113036162Y-100632872D01*
X113038219Y-100634560D01*
X113040046Y-100635317D01*
X113046346Y-100639282D01*
X113141584Y-100686901D01*
X113155315Y-100692156D01*
X113158004Y-100692347D01*
X113160493Y-100693378D01*
X113175125Y-100694819D01*
X113556077Y-100694819D01*
X113570709Y-100693378D01*
X113597745Y-100682179D01*
X113618437Y-100661487D01*
X113629636Y-100634451D01*
X113631077Y-100619819D01*
X113631077Y-100610439D01*
X113815000Y-100610439D01*
X113817075Y-100639629D01*
X113830161Y-100665802D01*
X113852268Y-100684976D01*
X113880031Y-100694230D01*
X113909221Y-100692155D01*
X113935394Y-100679069D01*
X113954568Y-100656962D01*
X113960562Y-100643536D01*
X114038706Y-100409104D01*
X114406782Y-100409104D01*
X114484926Y-100643536D01*
X114490920Y-100656961D01*
X114510094Y-100679068D01*
X114536267Y-100692155D01*
X114565457Y-100694230D01*
X114593219Y-100684976D01*
X114615327Y-100665802D01*
X114628413Y-100639628D01*
X114630488Y-100610438D01*
X114627228Y-100596102D01*
X114293895Y-99596102D01*
X114287901Y-99582676D01*
X114284389Y-99578627D01*
X114281994Y-99573836D01*
X114274890Y-99567674D01*
X114268727Y-99560569D01*
X114263933Y-99558172D01*
X114259886Y-99554662D01*
X114250964Y-99551688D01*
X114242554Y-99547483D01*
X114237209Y-99547103D01*
X114232124Y-99545408D01*
X114222744Y-99546074D01*
X114213364Y-99545408D01*
X114208278Y-99547103D01*
X114202934Y-99547483D01*
X114194526Y-99551687D01*
X114185601Y-99554662D01*
X114181550Y-99558175D01*
X114176761Y-99560570D01*
X114170602Y-99567670D01*
X114163494Y-99573836D01*
X114161097Y-99578629D01*
X114157587Y-99582677D01*
X114151593Y-99596102D01*
X113818260Y-100596102D01*
X113815000Y-100610439D01*
X113631077Y-100610439D01*
X113631077Y-99619819D01*
X113629636Y-99605187D01*
X113618437Y-99578151D01*
X113597745Y-99557459D01*
X113570709Y-99546260D01*
X113556077Y-99544819D01*
X113222744Y-99544819D01*
X113208112Y-99546260D01*
X113205623Y-99547290D01*
X113202934Y-99547482D01*
X113189203Y-99552737D01*
X113093965Y-99600356D01*
X113087665Y-99604320D01*
X113085838Y-99605078D01*
X113083781Y-99606766D01*
X113081522Y-99608188D01*
X113080222Y-99609686D01*
X113074473Y-99614405D01*
X113026854Y-99662024D01*
X113022135Y-99667773D01*
X113020637Y-99669073D01*
X113019215Y-99671332D01*
X113017527Y-99673389D01*
X113016769Y-99675216D01*
X113012805Y-99681516D01*
X112965186Y-99776754D01*
X112959931Y-99790486D01*
X112959740Y-99793173D01*
X112958709Y-99795663D01*
X112957268Y-99810295D01*
X112957268Y-99905533D01*
X112958709Y-99920165D01*
X112959740Y-99922654D01*
X112959931Y-99925342D01*
X112965186Y-99939074D01*
X113012805Y-100034312D01*
X113016769Y-100040611D01*
X113017527Y-100042439D01*
X113019215Y-100044495D01*
X113020637Y-100046755D01*
X113022135Y-100048054D01*
X113026854Y-100053804D01*
X113048811Y-100075761D01*
X113042744Y-100078471D01*
X113040707Y-100080237D01*
X113038219Y-100081268D01*
X113026854Y-100090595D01*
X112979235Y-100138214D01*
X112974516Y-100143963D01*
X112973018Y-100145263D01*
X112971596Y-100147522D01*
X112969908Y-100149579D01*
X112969150Y-100151406D01*
X112965186Y-100157706D01*
X112917567Y-100252944D01*
X112912312Y-100266676D01*
X112912121Y-100269363D01*
X112911090Y-100271853D01*
X112909649Y-100286485D01*
X112677440Y-100286485D01*
X112678107Y-100277104D01*
X112677255Y-100273357D01*
X112677255Y-100271853D01*
X112676496Y-100270022D01*
X112674847Y-100262767D01*
X112436752Y-99548483D01*
X112430758Y-99535057D01*
X112411584Y-99512950D01*
X112385411Y-99499864D01*
X112356221Y-99497789D01*
X112328458Y-99507043D01*
X112306351Y-99526217D01*
X112293265Y-99552390D01*
X112291190Y-99581580D01*
X112294450Y-99595917D01*
X112499639Y-100211485D01*
X112202506Y-100211485D01*
X112202506Y-99953152D01*
X112201065Y-99938520D01*
X112189866Y-99911484D01*
X112169174Y-99890792D01*
X112142138Y-99879593D01*
X112112874Y-99879593D01*
X112085838Y-99890792D01*
X112065146Y-99911484D01*
X112053947Y-99938520D01*
X112052506Y-99953152D01*
X112052506Y-100211485D01*
X111984649Y-100211485D01*
X111970017Y-100212926D01*
X111942981Y-100224125D01*
X111922289Y-100244817D01*
X111911090Y-100271853D01*
X111678696Y-100271853D01*
X111678696Y-99619819D01*
X111677255Y-99605187D01*
X111666056Y-99578151D01*
X111645364Y-99557459D01*
X111618328Y-99546260D01*
X111603696Y-99544819D01*
X111127506Y-99544819D01*
X111112874Y-99546260D01*
X111085838Y-99557459D01*
X111065146Y-99578151D01*
X111053947Y-99605187D01*
X110772493Y-99605187D01*
X110768675Y-99595971D01*
X110766051Y-99586348D01*
X110763123Y-99582567D01*
X110761294Y-99578151D01*
X110754243Y-99571100D01*
X110748134Y-99563211D01*
X110743980Y-99560837D01*
X110740602Y-99557459D01*
X110731389Y-99553642D01*
X110722725Y-99548692D01*
X110717981Y-99548089D01*
X110713566Y-99546260D01*
X110703592Y-99546260D01*
X110693695Y-99545002D01*
X110689083Y-99546260D01*
X110684302Y-99546260D01*
X110675085Y-99550077D01*
X110665464Y-99552702D01*
X110661684Y-99555628D01*
X110657266Y-99557459D01*
X110650214Y-99564510D01*
X110642326Y-99570619D01*
X110637971Y-99576753D01*
X110636574Y-99578151D01*
X110636005Y-99579523D01*
X110633816Y-99582608D01*
X110202506Y-100337402D01*
X110202506Y-99619819D01*
X110201065Y-99605187D01*
X110189866Y-99578151D01*
X110169174Y-99557459D01*
X110142138Y-99546260D01*
X110112874Y-99546260D01*
X110085838Y-99557459D01*
X110065146Y-99578151D01*
X110053947Y-99605187D01*
X110052506Y-99619819D01*
X109941395Y-99619819D01*
X109941395Y-99386678D01*
X114741599Y-99386678D01*
X114741599Y-100805930D01*
G37*
X92008458Y-85869819D02*
X91389411Y-85869819D01*
X91389411Y-85869819D02*
X91722744Y-86250771D01*
X91722744Y-86250771D02*
X91579887Y-86250771D01*
X91579887Y-86250771D02*
X91484649Y-86298390D01*
X91484649Y-86298390D02*
X91437030Y-86346009D01*
X91437030Y-86346009D02*
X91389411Y-86441247D01*
X91389411Y-86441247D02*
X91389411Y-86679342D01*
X91389411Y-86679342D02*
X91437030Y-86774580D01*
X91437030Y-86774580D02*
X91484649Y-86822200D01*
X91484649Y-86822200D02*
X91579887Y-86869819D01*
X91579887Y-86869819D02*
X91865601Y-86869819D01*
X91865601Y-86869819D02*
X91960839Y-86822200D01*
X91960839Y-86822200D02*
X92008458Y-86774580D01*
X90960839Y-86774580D02*
X90913220Y-86822200D01*
X90913220Y-86822200D02*
X90960839Y-86869819D01*
X90960839Y-86869819D02*
X91008458Y-86822200D01*
X91008458Y-86822200D02*
X90960839Y-86774580D01*
X90960839Y-86774580D02*
X90960839Y-86869819D01*
X90579887Y-85869819D02*
X89960840Y-85869819D01*
X89960840Y-85869819D02*
X90294173Y-86250771D01*
X90294173Y-86250771D02*
X90151316Y-86250771D01*
X90151316Y-86250771D02*
X90056078Y-86298390D01*
X90056078Y-86298390D02*
X90008459Y-86346009D01*
X90008459Y-86346009D02*
X89960840Y-86441247D01*
X89960840Y-86441247D02*
X89960840Y-86679342D01*
X89960840Y-86679342D02*
X90008459Y-86774580D01*
X90008459Y-86774580D02*
X90056078Y-86822200D01*
X90056078Y-86822200D02*
X90151316Y-86869819D01*
X90151316Y-86869819D02*
X90437030Y-86869819D01*
X90437030Y-86869819D02*
X90532268Y-86822200D01*
X90532268Y-86822200D02*
X90579887Y-86774580D01*
X89675125Y-85869819D02*
X89341792Y-86869819D01*
X89341792Y-86869819D02*
X89008459Y-85869819D01*
X119363095Y-118227931D02*
X119363095Y-118942216D01*
X119363095Y-118942216D02*
X119410714Y-119085073D01*
X119410714Y-119085073D02*
X119505952Y-119180312D01*
X119505952Y-119180312D02*
X119648809Y-119227931D01*
X119648809Y-119227931D02*
X119744047Y-119227931D01*
X118363095Y-119227931D02*
X118934523Y-119227931D01*
X118648809Y-119227931D02*
X118648809Y-118227931D01*
X118648809Y-118227931D02*
X118744047Y-118370788D01*
X118744047Y-118370788D02*
X118839285Y-118466026D01*
X118839285Y-118466026D02*
X118934523Y-118513645D01*
X117744047Y-118227931D02*
X117648809Y-118227931D01*
X117648809Y-118227931D02*
X117553571Y-118275550D01*
X117553571Y-118275550D02*
X117505952Y-118323169D01*
X117505952Y-118323169D02*
X117458333Y-118418407D01*
X117458333Y-118418407D02*
X117410714Y-118608883D01*
X117410714Y-118608883D02*
X117410714Y-118846978D01*
X117410714Y-118846978D02*
X117458333Y-119037454D01*
X117458333Y-119037454D02*
X117505952Y-119132692D01*
X117505952Y-119132692D02*
X117553571Y-119180312D01*
X117553571Y-119180312D02*
X117648809Y-119227931D01*
X117648809Y-119227931D02*
X117744047Y-119227931D01*
X117744047Y-119227931D02*
X117839285Y-119180312D01*
X117839285Y-119180312D02*
X117886904Y-119132692D01*
X117886904Y-119132692D02*
X117934523Y-119037454D01*
X117934523Y-119037454D02*
X117982142Y-118846978D01*
X117982142Y-118846978D02*
X117982142Y-118608883D01*
X117982142Y-118608883D02*
X117934523Y-118418407D01*
X117934523Y-118418407D02*
X117886904Y-118323169D01*
X117886904Y-118323169D02*
X117839285Y-118275550D01*
X117839285Y-118275550D02*
X117744047Y-118227931D01*
X117077380Y-118227931D02*
X116458333Y-118227931D01*
X116458333Y-118227931D02*
X116791666Y-118608883D01*
X116791666Y-118608883D02*
X116648809Y-118608883D01*
X116648809Y-118608883D02*
X116553571Y-118656502D01*
X116553571Y-118656502D02*
X116505952Y-118704121D01*
X116505952Y-118704121D02*
X116458333Y-118799359D01*
X116458333Y-118799359D02*
X116458333Y-119037454D01*
X116458333Y-119037454D02*
X116505952Y-119132692D01*
X116505952Y-119132692D02*
X116553571Y-119180312D01*
X116553571Y-119180312D02*
X116648809Y-119227931D01*
X116648809Y-119227931D02*
X116934523Y-119227931D01*
X116934523Y-119227931D02*
X117029761Y-119180312D01*
X117029761Y-119180312D02*
X117077380Y-119132692D01*
X115315476Y-118180312D02*
X116172618Y-119466026D01*
X114458333Y-119227931D02*
X115029761Y-119227931D01*
X114744047Y-119227931D02*
X114744047Y-118227931D01*
X114744047Y-118227931D02*
X114839285Y-118370788D01*
X114839285Y-118370788D02*
X114934523Y-118466026D01*
X114934523Y-118466026D02*
X115029761Y-118513645D01*
X113839285Y-118227931D02*
X113744047Y-118227931D01*
X113744047Y-118227931D02*
X113648809Y-118275550D01*
X113648809Y-118275550D02*
X113601190Y-118323169D01*
X113601190Y-118323169D02*
X113553571Y-118418407D01*
X113553571Y-118418407D02*
X113505952Y-118608883D01*
X113505952Y-118608883D02*
X113505952Y-118846978D01*
X113505952Y-118846978D02*
X113553571Y-119037454D01*
X113553571Y-119037454D02*
X113601190Y-119132692D01*
X113601190Y-119132692D02*
X113648809Y-119180312D01*
X113648809Y-119180312D02*
X113744047Y-119227931D01*
X113744047Y-119227931D02*
X113839285Y-119227931D01*
X113839285Y-119227931D02*
X113934523Y-119180312D01*
X113934523Y-119180312D02*
X113982142Y-119132692D01*
X113982142Y-119132692D02*
X114029761Y-119037454D01*
X114029761Y-119037454D02*
X114077380Y-118846978D01*
X114077380Y-118846978D02*
X114077380Y-118608883D01*
X114077380Y-118608883D02*
X114029761Y-118418407D01*
X114029761Y-118418407D02*
X113982142Y-118323169D01*
X113982142Y-118323169D02*
X113934523Y-118275550D01*
X113934523Y-118275550D02*
X113839285Y-118227931D01*
X112648809Y-118561264D02*
X112648809Y-119227931D01*
X112886904Y-118180312D02*
X113124999Y-118894597D01*
X113124999Y-118894597D02*
X112505952Y-118894597D01*
X120125000Y-120790256D02*
X119982143Y-120837875D01*
X119982143Y-120837875D02*
X119744048Y-120837875D01*
X119744048Y-120837875D02*
X119648810Y-120790256D01*
X119648810Y-120790256D02*
X119601191Y-120742636D01*
X119601191Y-120742636D02*
X119553572Y-120647398D01*
X119553572Y-120647398D02*
X119553572Y-120552160D01*
X119553572Y-120552160D02*
X119601191Y-120456922D01*
X119601191Y-120456922D02*
X119648810Y-120409303D01*
X119648810Y-120409303D02*
X119744048Y-120361684D01*
X119744048Y-120361684D02*
X119934524Y-120314065D01*
X119934524Y-120314065D02*
X120029762Y-120266446D01*
X120029762Y-120266446D02*
X120077381Y-120218827D01*
X120077381Y-120218827D02*
X120125000Y-120123589D01*
X120125000Y-120123589D02*
X120125000Y-120028351D01*
X120125000Y-120028351D02*
X120077381Y-119933113D01*
X120077381Y-119933113D02*
X120029762Y-119885494D01*
X120029762Y-119885494D02*
X119934524Y-119837875D01*
X119934524Y-119837875D02*
X119696429Y-119837875D01*
X119696429Y-119837875D02*
X119553572Y-119885494D01*
X118744048Y-120790256D02*
X118839286Y-120837875D01*
X118839286Y-120837875D02*
X119029762Y-120837875D01*
X119029762Y-120837875D02*
X119125000Y-120790256D01*
X119125000Y-120790256D02*
X119172619Y-120695017D01*
X119172619Y-120695017D02*
X119172619Y-120314065D01*
X119172619Y-120314065D02*
X119125000Y-120218827D01*
X119125000Y-120218827D02*
X119029762Y-120171208D01*
X119029762Y-120171208D02*
X118839286Y-120171208D01*
X118839286Y-120171208D02*
X118744048Y-120218827D01*
X118744048Y-120218827D02*
X118696429Y-120314065D01*
X118696429Y-120314065D02*
X118696429Y-120409303D01*
X118696429Y-120409303D02*
X119172619Y-120504541D01*
X118267857Y-120171208D02*
X118267857Y-120837875D01*
X118267857Y-120266446D02*
X118220238Y-120218827D01*
X118220238Y-120218827D02*
X118125000Y-120171208D01*
X118125000Y-120171208D02*
X117982143Y-120171208D01*
X117982143Y-120171208D02*
X117886905Y-120218827D01*
X117886905Y-120218827D02*
X117839286Y-120314065D01*
X117839286Y-120314065D02*
X117839286Y-120837875D01*
X117410714Y-120790256D02*
X117315476Y-120837875D01*
X117315476Y-120837875D02*
X117125000Y-120837875D01*
X117125000Y-120837875D02*
X117029762Y-120790256D01*
X117029762Y-120790256D02*
X116982143Y-120695017D01*
X116982143Y-120695017D02*
X116982143Y-120647398D01*
X116982143Y-120647398D02*
X117029762Y-120552160D01*
X117029762Y-120552160D02*
X117125000Y-120504541D01*
X117125000Y-120504541D02*
X117267857Y-120504541D01*
X117267857Y-120504541D02*
X117363095Y-120456922D01*
X117363095Y-120456922D02*
X117410714Y-120361684D01*
X117410714Y-120361684D02*
X117410714Y-120314065D01*
X117410714Y-120314065D02*
X117363095Y-120218827D01*
X117363095Y-120218827D02*
X117267857Y-120171208D01*
X117267857Y-120171208D02*
X117125000Y-120171208D01*
X117125000Y-120171208D02*
X117029762Y-120218827D01*
X116172619Y-120790256D02*
X116267857Y-120837875D01*
X116267857Y-120837875D02*
X116458333Y-120837875D01*
X116458333Y-120837875D02*
X116553571Y-120790256D01*
X116553571Y-120790256D02*
X116601190Y-120695017D01*
X116601190Y-120695017D02*
X116601190Y-120314065D01*
X116601190Y-120314065D02*
X116553571Y-120218827D01*
X116553571Y-120218827D02*
X116458333Y-120171208D01*
X116458333Y-120171208D02*
X116267857Y-120171208D01*
X116267857Y-120171208D02*
X116172619Y-120218827D01*
X116172619Y-120218827D02*
X116125000Y-120314065D01*
X116125000Y-120314065D02*
X116125000Y-120409303D01*
X116125000Y-120409303D02*
X116601190Y-120504541D01*
X114744047Y-119837875D02*
X114553571Y-119837875D01*
X114553571Y-119837875D02*
X114458333Y-119885494D01*
X114458333Y-119885494D02*
X114363095Y-119980732D01*
X114363095Y-119980732D02*
X114315476Y-120171208D01*
X114315476Y-120171208D02*
X114315476Y-120504541D01*
X114315476Y-120504541D02*
X114363095Y-120695017D01*
X114363095Y-120695017D02*
X114458333Y-120790256D01*
X114458333Y-120790256D02*
X114553571Y-120837875D01*
X114553571Y-120837875D02*
X114744047Y-120837875D01*
X114744047Y-120837875D02*
X114839285Y-120790256D01*
X114839285Y-120790256D02*
X114934523Y-120695017D01*
X114934523Y-120695017D02*
X114982142Y-120504541D01*
X114982142Y-120504541D02*
X114982142Y-120171208D01*
X114982142Y-120171208D02*
X114934523Y-119980732D01*
X114934523Y-119980732D02*
X114839285Y-119885494D01*
X114839285Y-119885494D02*
X114744047Y-119837875D01*
X113886904Y-120171208D02*
X113886904Y-120837875D01*
X113886904Y-120266446D02*
X113839285Y-120218827D01*
X113839285Y-120218827D02*
X113744047Y-120171208D01*
X113744047Y-120171208D02*
X113601190Y-120171208D01*
X113601190Y-120171208D02*
X113505952Y-120218827D01*
X113505952Y-120218827D02*
X113458333Y-120314065D01*
X113458333Y-120314065D02*
X113458333Y-120837875D01*
X112839285Y-120837875D02*
X112934523Y-120790256D01*
X112934523Y-120790256D02*
X112982142Y-120695017D01*
X112982142Y-120695017D02*
X112982142Y-119837875D01*
X112553570Y-120171208D02*
X112315475Y-120837875D01*
X112077380Y-120171208D02*
X112315475Y-120837875D01*
X112315475Y-120837875D02*
X112410713Y-121075970D01*
X112410713Y-121075970D02*
X112458332Y-121123589D01*
X112458332Y-121123589D02*
X112553570Y-121171208D01*
X121053571Y-121447819D02*
X121053571Y-122257342D01*
X121053571Y-122257342D02*
X121005952Y-122352580D01*
X121005952Y-122352580D02*
X120958333Y-122400200D01*
X120958333Y-122400200D02*
X120863095Y-122447819D01*
X120863095Y-122447819D02*
X120672619Y-122447819D01*
X120672619Y-122447819D02*
X120577381Y-122400200D01*
X120577381Y-122400200D02*
X120529762Y-122352580D01*
X120529762Y-122352580D02*
X120482143Y-122257342D01*
X120482143Y-122257342D02*
X120482143Y-121447819D01*
X119577381Y-121781152D02*
X119577381Y-122447819D01*
X119815476Y-121400200D02*
X120053571Y-122114485D01*
X120053571Y-122114485D02*
X119434524Y-122114485D01*
X118863095Y-121447819D02*
X118767857Y-121447819D01*
X118767857Y-121447819D02*
X118672619Y-121495438D01*
X118672619Y-121495438D02*
X118625000Y-121543057D01*
X118625000Y-121543057D02*
X118577381Y-121638295D01*
X118577381Y-121638295D02*
X118529762Y-121828771D01*
X118529762Y-121828771D02*
X118529762Y-122066866D01*
X118529762Y-122066866D02*
X118577381Y-122257342D01*
X118577381Y-122257342D02*
X118625000Y-122352580D01*
X118625000Y-122352580D02*
X118672619Y-122400200D01*
X118672619Y-122400200D02*
X118767857Y-122447819D01*
X118767857Y-122447819D02*
X118863095Y-122447819D01*
X118863095Y-122447819D02*
X118958333Y-122400200D01*
X118958333Y-122400200D02*
X119005952Y-122352580D01*
X119005952Y-122352580D02*
X119053571Y-122257342D01*
X119053571Y-122257342D02*
X119101190Y-122066866D01*
X119101190Y-122066866D02*
X119101190Y-121828771D01*
X119101190Y-121828771D02*
X119053571Y-121638295D01*
X119053571Y-121638295D02*
X119005952Y-121543057D01*
X119005952Y-121543057D02*
X118958333Y-121495438D01*
X118958333Y-121495438D02*
X118863095Y-121447819D01*
X117577381Y-122447819D02*
X118148809Y-122447819D01*
X117863095Y-122447819D02*
X117863095Y-121447819D01*
X117863095Y-121447819D02*
X117958333Y-121590676D01*
X117958333Y-121590676D02*
X118053571Y-121685914D01*
X118053571Y-121685914D02*
X118148809Y-121733533D01*
X116386904Y-122066866D02*
X115625000Y-122066866D01*
X114196428Y-121447819D02*
X114101190Y-121447819D01*
X114101190Y-121447819D02*
X114005952Y-121495438D01*
X114005952Y-121495438D02*
X113958333Y-121543057D01*
X113958333Y-121543057D02*
X113910714Y-121638295D01*
X113910714Y-121638295D02*
X113863095Y-121828771D01*
X113863095Y-121828771D02*
X113863095Y-122066866D01*
X113863095Y-122066866D02*
X113910714Y-122257342D01*
X113910714Y-122257342D02*
X113958333Y-122352580D01*
X113958333Y-122352580D02*
X114005952Y-122400200D01*
X114005952Y-122400200D02*
X114101190Y-122447819D01*
X114101190Y-122447819D02*
X114196428Y-122447819D01*
X114196428Y-122447819D02*
X114291666Y-122400200D01*
X114291666Y-122400200D02*
X114339285Y-122352580D01*
X114339285Y-122352580D02*
X114386904Y-122257342D01*
X114386904Y-122257342D02*
X114434523Y-122066866D01*
X114434523Y-122066866D02*
X114434523Y-121828771D01*
X114434523Y-121828771D02*
X114386904Y-121638295D01*
X114386904Y-121638295D02*
X114339285Y-121543057D01*
X114339285Y-121543057D02*
X114291666Y-121495438D01*
X114291666Y-121495438D02*
X114196428Y-121447819D01*
X113529761Y-122447819D02*
X113005952Y-121781152D01*
X113529761Y-121781152D02*
X113005952Y-122447819D01*
X112196428Y-121781152D02*
X112196428Y-122447819D01*
X112434523Y-121400200D02*
X112672618Y-122114485D01*
X112672618Y-122114485D02*
X112053571Y-122114485D01*
X111767856Y-121447819D02*
X111101190Y-121447819D01*
X111101190Y-121447819D02*
X111529761Y-122447819D01*
X147917438Y-107110588D02*
X147869819Y-107015350D01*
X147869819Y-107015350D02*
X147869819Y-106872493D01*
X147869819Y-106872493D02*
X147917438Y-106729636D01*
X147917438Y-106729636D02*
X148012676Y-106634398D01*
X148012676Y-106634398D02*
X148107914Y-106586779D01*
X148107914Y-106586779D02*
X148298390Y-106539160D01*
X148298390Y-106539160D02*
X148441247Y-106539160D01*
X148441247Y-106539160D02*
X148631723Y-106586779D01*
X148631723Y-106586779D02*
X148726961Y-106634398D01*
X148726961Y-106634398D02*
X148822200Y-106729636D01*
X148822200Y-106729636D02*
X148869819Y-106872493D01*
X148869819Y-106872493D02*
X148869819Y-106967731D01*
X148869819Y-106967731D02*
X148822200Y-107110588D01*
X148822200Y-107110588D02*
X148774580Y-107158207D01*
X148774580Y-107158207D02*
X148441247Y-107158207D01*
X148441247Y-107158207D02*
X148441247Y-106967731D01*
X148869819Y-107586779D02*
X147869819Y-107586779D01*
X147869819Y-107586779D02*
X148869819Y-108158207D01*
X148869819Y-108158207D02*
X147869819Y-108158207D01*
X148869819Y-108634398D02*
X147869819Y-108634398D01*
X147869819Y-108634398D02*
X147869819Y-108872493D01*
X147869819Y-108872493D02*
X147917438Y-109015350D01*
X147917438Y-109015350D02*
X148012676Y-109110588D01*
X148012676Y-109110588D02*
X148107914Y-109158207D01*
X148107914Y-109158207D02*
X148298390Y-109205826D01*
X148298390Y-109205826D02*
X148441247Y-109205826D01*
X148441247Y-109205826D02*
X148631723Y-109158207D01*
X148631723Y-109158207D02*
X148726961Y-109110588D01*
X148726961Y-109110588D02*
X148822200Y-109015350D01*
X148822200Y-109015350D02*
X148869819Y-108872493D01*
X148869819Y-108872493D02*
X148869819Y-108634398D01*
X107389411Y-127417438D02*
X107484649Y-127369819D01*
X107484649Y-127369819D02*
X107627506Y-127369819D01*
X107627506Y-127369819D02*
X107770363Y-127417438D01*
X107770363Y-127417438D02*
X107865601Y-127512676D01*
X107865601Y-127512676D02*
X107913220Y-127607914D01*
X107913220Y-127607914D02*
X107960839Y-127798390D01*
X107960839Y-127798390D02*
X107960839Y-127941247D01*
X107960839Y-127941247D02*
X107913220Y-128131723D01*
X107913220Y-128131723D02*
X107865601Y-128226961D01*
X107865601Y-128226961D02*
X107770363Y-128322200D01*
X107770363Y-128322200D02*
X107627506Y-128369819D01*
X107627506Y-128369819D02*
X107532268Y-128369819D01*
X107532268Y-128369819D02*
X107389411Y-128322200D01*
X107389411Y-128322200D02*
X107341792Y-128274580D01*
X107341792Y-128274580D02*
X107341792Y-127941247D01*
X107341792Y-127941247D02*
X107532268Y-127941247D01*
X106913220Y-128369819D02*
X106913220Y-127369819D01*
X106913220Y-127369819D02*
X106341792Y-128369819D01*
X106341792Y-128369819D02*
X106341792Y-127369819D01*
X105865601Y-128369819D02*
X105865601Y-127369819D01*
X105865601Y-127369819D02*
X105627506Y-127369819D01*
X105627506Y-127369819D02*
X105484649Y-127417438D01*
X105484649Y-127417438D02*
X105389411Y-127512676D01*
X105389411Y-127512676D02*
X105341792Y-127607914D01*
X105341792Y-127607914D02*
X105294173Y-127798390D01*
X105294173Y-127798390D02*
X105294173Y-127941247D01*
X105294173Y-127941247D02*
X105341792Y-128131723D01*
X105341792Y-128131723D02*
X105389411Y-128226961D01*
X105389411Y-128226961D02*
X105484649Y-128322200D01*
X105484649Y-128322200D02*
X105627506Y-128369819D01*
X105627506Y-128369819D02*
X105865601Y-128369819D01*
X124163220Y-104734121D02*
X123829887Y-104734121D01*
X123687030Y-105257931D02*
X124163220Y-105257931D01*
X124163220Y-105257931D02*
X124163220Y-104257931D01*
X124163220Y-104257931D02*
X123687030Y-104257931D01*
X123306077Y-105210312D02*
X123163220Y-105257931D01*
X123163220Y-105257931D02*
X122925125Y-105257931D01*
X122925125Y-105257931D02*
X122829887Y-105210312D01*
X122829887Y-105210312D02*
X122782268Y-105162692D01*
X122782268Y-105162692D02*
X122734649Y-105067454D01*
X122734649Y-105067454D02*
X122734649Y-104972216D01*
X122734649Y-104972216D02*
X122782268Y-104876978D01*
X122782268Y-104876978D02*
X122829887Y-104829359D01*
X122829887Y-104829359D02*
X122925125Y-104781740D01*
X122925125Y-104781740D02*
X123115601Y-104734121D01*
X123115601Y-104734121D02*
X123210839Y-104686502D01*
X123210839Y-104686502D02*
X123258458Y-104638883D01*
X123258458Y-104638883D02*
X123306077Y-104543645D01*
X123306077Y-104543645D02*
X123306077Y-104448407D01*
X123306077Y-104448407D02*
X123258458Y-104353169D01*
X123258458Y-104353169D02*
X123210839Y-104305550D01*
X123210839Y-104305550D02*
X123115601Y-104257931D01*
X123115601Y-104257931D02*
X122877506Y-104257931D01*
X122877506Y-104257931D02*
X122734649Y-104305550D01*
X122306077Y-105257931D02*
X122306077Y-104257931D01*
X122306077Y-104257931D02*
X121925125Y-104257931D01*
X121925125Y-104257931D02*
X121829887Y-104305550D01*
X121829887Y-104305550D02*
X121782268Y-104353169D01*
X121782268Y-104353169D02*
X121734649Y-104448407D01*
X121734649Y-104448407D02*
X121734649Y-104591264D01*
X121734649Y-104591264D02*
X121782268Y-104686502D01*
X121782268Y-104686502D02*
X121829887Y-104734121D01*
X121829887Y-104734121D02*
X121925125Y-104781740D01*
X121925125Y-104781740D02*
X122306077Y-104781740D01*
X121401315Y-104257931D02*
X120782268Y-104257931D01*
X120782268Y-104257931D02*
X121115601Y-104638883D01*
X121115601Y-104638883D02*
X120972744Y-104638883D01*
X120972744Y-104638883D02*
X120877506Y-104686502D01*
X120877506Y-104686502D02*
X120829887Y-104734121D01*
X120829887Y-104734121D02*
X120782268Y-104829359D01*
X120782268Y-104829359D02*
X120782268Y-105067454D01*
X120782268Y-105067454D02*
X120829887Y-105162692D01*
X120829887Y-105162692D02*
X120877506Y-105210312D01*
X120877506Y-105210312D02*
X120972744Y-105257931D01*
X120972744Y-105257931D02*
X121258458Y-105257931D01*
X121258458Y-105257931D02*
X121353696Y-105210312D01*
X121353696Y-105210312D02*
X121401315Y-105162692D01*
X120401315Y-104353169D02*
X120353696Y-104305550D01*
X120353696Y-104305550D02*
X120258458Y-104257931D01*
X120258458Y-104257931D02*
X120020363Y-104257931D01*
X120020363Y-104257931D02*
X119925125Y-104305550D01*
X119925125Y-104305550D02*
X119877506Y-104353169D01*
X119877506Y-104353169D02*
X119829887Y-104448407D01*
X119829887Y-104448407D02*
X119829887Y-104543645D01*
X119829887Y-104543645D02*
X119877506Y-104686502D01*
X119877506Y-104686502D02*
X120448934Y-105257931D01*
X120448934Y-105257931D02*
X119829887Y-105257931D01*
X119401315Y-104876978D02*
X118639411Y-104876978D01*
X117591792Y-105162692D02*
X117639411Y-105210312D01*
X117639411Y-105210312D02*
X117782268Y-105257931D01*
X117782268Y-105257931D02*
X117877506Y-105257931D01*
X117877506Y-105257931D02*
X118020363Y-105210312D01*
X118020363Y-105210312D02*
X118115601Y-105115073D01*
X118115601Y-105115073D02*
X118163220Y-105019835D01*
X118163220Y-105019835D02*
X118210839Y-104829359D01*
X118210839Y-104829359D02*
X118210839Y-104686502D01*
X118210839Y-104686502D02*
X118163220Y-104496026D01*
X118163220Y-104496026D02*
X118115601Y-104400788D01*
X118115601Y-104400788D02*
X118020363Y-104305550D01*
X118020363Y-104305550D02*
X117877506Y-104257931D01*
X117877506Y-104257931D02*
X117782268Y-104257931D01*
X117782268Y-104257931D02*
X117639411Y-104305550D01*
X117639411Y-104305550D02*
X117591792Y-104353169D01*
X117258458Y-104257931D02*
X116639411Y-104257931D01*
X116639411Y-104257931D02*
X116972744Y-104638883D01*
X116972744Y-104638883D02*
X116829887Y-104638883D01*
X116829887Y-104638883D02*
X116734649Y-104686502D01*
X116734649Y-104686502D02*
X116687030Y-104734121D01*
X116687030Y-104734121D02*
X116639411Y-104829359D01*
X116639411Y-104829359D02*
X116639411Y-105067454D01*
X116639411Y-105067454D02*
X116687030Y-105162692D01*
X116687030Y-105162692D02*
X116734649Y-105210312D01*
X116734649Y-105210312D02*
X116829887Y-105257931D01*
X116829887Y-105257931D02*
X117115601Y-105257931D01*
X117115601Y-105257931D02*
X117210839Y-105210312D01*
X117210839Y-105210312D02*
X117258458Y-105162692D01*
X115877506Y-104734121D02*
X116210839Y-104734121D01*
X116210839Y-105257931D02*
X116210839Y-104257931D01*
X116210839Y-104257931D02*
X115734649Y-104257931D01*
X115353696Y-105257931D02*
X115353696Y-104257931D01*
X115353696Y-104734121D02*
X114782268Y-104734121D01*
X114782268Y-105257931D02*
X114782268Y-104257931D01*
X113877506Y-104591264D02*
X113877506Y-105257931D01*
X114115601Y-104210312D02*
X114353696Y-104924597D01*
X114353696Y-104924597D02*
X113734649Y-104924597D01*
X112639410Y-105210312D02*
X112544172Y-105257931D01*
X112544172Y-105257931D02*
X112353696Y-105257931D01*
X112353696Y-105257931D02*
X112258458Y-105210312D01*
X112258458Y-105210312D02*
X112210839Y-105115073D01*
X112210839Y-105115073D02*
X112210839Y-105067454D01*
X112210839Y-105067454D02*
X112258458Y-104972216D01*
X112258458Y-104972216D02*
X112353696Y-104924597D01*
X112353696Y-104924597D02*
X112496553Y-104924597D01*
X112496553Y-104924597D02*
X112591791Y-104876978D01*
X112591791Y-104876978D02*
X112639410Y-104781740D01*
X112639410Y-104781740D02*
X112639410Y-104734121D01*
X112639410Y-104734121D02*
X112591791Y-104638883D01*
X112591791Y-104638883D02*
X112496553Y-104591264D01*
X112496553Y-104591264D02*
X112353696Y-104591264D01*
X112353696Y-104591264D02*
X112258458Y-104638883D01*
X111401315Y-105210312D02*
X111496553Y-105257931D01*
X111496553Y-105257931D02*
X111687029Y-105257931D01*
X111687029Y-105257931D02*
X111782267Y-105210312D01*
X111782267Y-105210312D02*
X111829886Y-105115073D01*
X111829886Y-105115073D02*
X111829886Y-104734121D01*
X111829886Y-104734121D02*
X111782267Y-104638883D01*
X111782267Y-104638883D02*
X111687029Y-104591264D01*
X111687029Y-104591264D02*
X111496553Y-104591264D01*
X111496553Y-104591264D02*
X111401315Y-104638883D01*
X111401315Y-104638883D02*
X111353696Y-104734121D01*
X111353696Y-104734121D02*
X111353696Y-104829359D01*
X111353696Y-104829359D02*
X111829886Y-104924597D01*
X110925124Y-104591264D02*
X110925124Y-105257931D01*
X110925124Y-104686502D02*
X110877505Y-104638883D01*
X110877505Y-104638883D02*
X110782267Y-104591264D01*
X110782267Y-104591264D02*
X110639410Y-104591264D01*
X110639410Y-104591264D02*
X110544172Y-104638883D01*
X110544172Y-104638883D02*
X110496553Y-104734121D01*
X110496553Y-104734121D02*
X110496553Y-105257931D01*
X110067981Y-105210312D02*
X109972743Y-105257931D01*
X109972743Y-105257931D02*
X109782267Y-105257931D01*
X109782267Y-105257931D02*
X109687029Y-105210312D01*
X109687029Y-105210312D02*
X109639410Y-105115073D01*
X109639410Y-105115073D02*
X109639410Y-105067454D01*
X109639410Y-105067454D02*
X109687029Y-104972216D01*
X109687029Y-104972216D02*
X109782267Y-104924597D01*
X109782267Y-104924597D02*
X109925124Y-104924597D01*
X109925124Y-104924597D02*
X110020362Y-104876978D01*
X110020362Y-104876978D02*
X110067981Y-104781740D01*
X110067981Y-104781740D02*
X110067981Y-104734121D01*
X110067981Y-104734121D02*
X110020362Y-104638883D01*
X110020362Y-104638883D02*
X109925124Y-104591264D01*
X109925124Y-104591264D02*
X109782267Y-104591264D01*
X109782267Y-104591264D02*
X109687029Y-104638883D01*
X109067981Y-105257931D02*
X109163219Y-105210312D01*
X109163219Y-105210312D02*
X109210838Y-105162692D01*
X109210838Y-105162692D02*
X109258457Y-105067454D01*
X109258457Y-105067454D02*
X109258457Y-104781740D01*
X109258457Y-104781740D02*
X109210838Y-104686502D01*
X109210838Y-104686502D02*
X109163219Y-104638883D01*
X109163219Y-104638883D02*
X109067981Y-104591264D01*
X109067981Y-104591264D02*
X108925124Y-104591264D01*
X108925124Y-104591264D02*
X108829886Y-104638883D01*
X108829886Y-104638883D02*
X108782267Y-104686502D01*
X108782267Y-104686502D02*
X108734648Y-104781740D01*
X108734648Y-104781740D02*
X108734648Y-105067454D01*
X108734648Y-105067454D02*
X108782267Y-105162692D01*
X108782267Y-105162692D02*
X108829886Y-105210312D01*
X108829886Y-105210312D02*
X108925124Y-105257931D01*
X108925124Y-105257931D02*
X109067981Y-105257931D01*
X108306076Y-105257931D02*
X108306076Y-104591264D01*
X108306076Y-104781740D02*
X108258457Y-104686502D01*
X108258457Y-104686502D02*
X108210838Y-104638883D01*
X108210838Y-104638883D02*
X108115600Y-104591264D01*
X108115600Y-104591264D02*
X108020362Y-104591264D01*
X106925123Y-105257931D02*
X106925123Y-104257931D01*
X106925123Y-104638883D02*
X106829885Y-104591264D01*
X106829885Y-104591264D02*
X106639409Y-104591264D01*
X106639409Y-104591264D02*
X106544171Y-104638883D01*
X106544171Y-104638883D02*
X106496552Y-104686502D01*
X106496552Y-104686502D02*
X106448933Y-104781740D01*
X106448933Y-104781740D02*
X106448933Y-105067454D01*
X106448933Y-105067454D02*
X106496552Y-105162692D01*
X106496552Y-105162692D02*
X106544171Y-105210312D01*
X106544171Y-105210312D02*
X106639409Y-105257931D01*
X106639409Y-105257931D02*
X106829885Y-105257931D01*
X106829885Y-105257931D02*
X106925123Y-105210312D01*
X105877504Y-105257931D02*
X105972742Y-105210312D01*
X105972742Y-105210312D02*
X106020361Y-105162692D01*
X106020361Y-105162692D02*
X106067980Y-105067454D01*
X106067980Y-105067454D02*
X106067980Y-104781740D01*
X106067980Y-104781740D02*
X106020361Y-104686502D01*
X106020361Y-104686502D02*
X105972742Y-104638883D01*
X105972742Y-104638883D02*
X105877504Y-104591264D01*
X105877504Y-104591264D02*
X105734647Y-104591264D01*
X105734647Y-104591264D02*
X105639409Y-104638883D01*
X105639409Y-104638883D02*
X105591790Y-104686502D01*
X105591790Y-104686502D02*
X105544171Y-104781740D01*
X105544171Y-104781740D02*
X105544171Y-105067454D01*
X105544171Y-105067454D02*
X105591790Y-105162692D01*
X105591790Y-105162692D02*
X105639409Y-105210312D01*
X105639409Y-105210312D02*
X105734647Y-105257931D01*
X105734647Y-105257931D02*
X105877504Y-105257931D01*
X104687028Y-105257931D02*
X104687028Y-104734121D01*
X104687028Y-104734121D02*
X104734647Y-104638883D01*
X104734647Y-104638883D02*
X104829885Y-104591264D01*
X104829885Y-104591264D02*
X105020361Y-104591264D01*
X105020361Y-104591264D02*
X105115599Y-104638883D01*
X104687028Y-105210312D02*
X104782266Y-105257931D01*
X104782266Y-105257931D02*
X105020361Y-105257931D01*
X105020361Y-105257931D02*
X105115599Y-105210312D01*
X105115599Y-105210312D02*
X105163218Y-105115073D01*
X105163218Y-105115073D02*
X105163218Y-105019835D01*
X105163218Y-105019835D02*
X105115599Y-104924597D01*
X105115599Y-104924597D02*
X105020361Y-104876978D01*
X105020361Y-104876978D02*
X104782266Y-104876978D01*
X104782266Y-104876978D02*
X104687028Y-104829359D01*
X104210837Y-105257931D02*
X104210837Y-104591264D01*
X104210837Y-104781740D02*
X104163218Y-104686502D01*
X104163218Y-104686502D02*
X104115599Y-104638883D01*
X104115599Y-104638883D02*
X104020361Y-104591264D01*
X104020361Y-104591264D02*
X103925123Y-104591264D01*
X103163218Y-105257931D02*
X103163218Y-104257931D01*
X103163218Y-105210312D02*
X103258456Y-105257931D01*
X103258456Y-105257931D02*
X103448932Y-105257931D01*
X103448932Y-105257931D02*
X103544170Y-105210312D01*
X103544170Y-105210312D02*
X103591789Y-105162692D01*
X103591789Y-105162692D02*
X103639408Y-105067454D01*
X103639408Y-105067454D02*
X103639408Y-104781740D01*
X103639408Y-104781740D02*
X103591789Y-104686502D01*
X103591789Y-104686502D02*
X103544170Y-104638883D01*
X103544170Y-104638883D02*
X103448932Y-104591264D01*
X103448932Y-104591264D02*
X103258456Y-104591264D01*
X103258456Y-104591264D02*
X103163218Y-104638883D01*
X124258458Y-107811152D02*
X124020363Y-108477819D01*
X124020363Y-108477819D02*
X123782268Y-107811152D01*
X123210839Y-107477819D02*
X123115601Y-107477819D01*
X123115601Y-107477819D02*
X123020363Y-107525438D01*
X123020363Y-107525438D02*
X122972744Y-107573057D01*
X122972744Y-107573057D02*
X122925125Y-107668295D01*
X122925125Y-107668295D02*
X122877506Y-107858771D01*
X122877506Y-107858771D02*
X122877506Y-108096866D01*
X122877506Y-108096866D02*
X122925125Y-108287342D01*
X122925125Y-108287342D02*
X122972744Y-108382580D01*
X122972744Y-108382580D02*
X123020363Y-108430200D01*
X123020363Y-108430200D02*
X123115601Y-108477819D01*
X123115601Y-108477819D02*
X123210839Y-108477819D01*
X123210839Y-108477819D02*
X123306077Y-108430200D01*
X123306077Y-108430200D02*
X123353696Y-108382580D01*
X123353696Y-108382580D02*
X123401315Y-108287342D01*
X123401315Y-108287342D02*
X123448934Y-108096866D01*
X123448934Y-108096866D02*
X123448934Y-107858771D01*
X123448934Y-107858771D02*
X123401315Y-107668295D01*
X123401315Y-107668295D02*
X123353696Y-107573057D01*
X123353696Y-107573057D02*
X123306077Y-107525438D01*
X123306077Y-107525438D02*
X123210839Y-107477819D01*
X122448934Y-108382580D02*
X122401315Y-108430200D01*
X122401315Y-108430200D02*
X122448934Y-108477819D01*
X122448934Y-108477819D02*
X122496553Y-108430200D01*
X122496553Y-108430200D02*
X122448934Y-108382580D01*
X122448934Y-108382580D02*
X122448934Y-108477819D01*
X121544173Y-107811152D02*
X121544173Y-108477819D01*
X121782268Y-107430200D02*
X122020363Y-108144485D01*
X122020363Y-108144485D02*
X121401316Y-108144485D01*
X120258458Y-108477819D02*
X120258458Y-107477819D01*
X120258458Y-107477819D02*
X119877506Y-107477819D01*
X119877506Y-107477819D02*
X119782268Y-107525438D01*
X119782268Y-107525438D02*
X119734649Y-107573057D01*
X119734649Y-107573057D02*
X119687030Y-107668295D01*
X119687030Y-107668295D02*
X119687030Y-107811152D01*
X119687030Y-107811152D02*
X119734649Y-107906390D01*
X119734649Y-107906390D02*
X119782268Y-107954009D01*
X119782268Y-107954009D02*
X119877506Y-108001628D01*
X119877506Y-108001628D02*
X120258458Y-108001628D01*
X119258458Y-108477819D02*
X119258458Y-107811152D01*
X119258458Y-108001628D02*
X119210839Y-107906390D01*
X119210839Y-107906390D02*
X119163220Y-107858771D01*
X119163220Y-107858771D02*
X119067982Y-107811152D01*
X119067982Y-107811152D02*
X118972744Y-107811152D01*
X118496553Y-108477819D02*
X118591791Y-108430200D01*
X118591791Y-108430200D02*
X118639410Y-108382580D01*
X118639410Y-108382580D02*
X118687029Y-108287342D01*
X118687029Y-108287342D02*
X118687029Y-108001628D01*
X118687029Y-108001628D02*
X118639410Y-107906390D01*
X118639410Y-107906390D02*
X118591791Y-107858771D01*
X118591791Y-107858771D02*
X118496553Y-107811152D01*
X118496553Y-107811152D02*
X118353696Y-107811152D01*
X118353696Y-107811152D02*
X118258458Y-107858771D01*
X118258458Y-107858771D02*
X118210839Y-107906390D01*
X118210839Y-107906390D02*
X118163220Y-108001628D01*
X118163220Y-108001628D02*
X118163220Y-108287342D01*
X118163220Y-108287342D02*
X118210839Y-108382580D01*
X118210839Y-108382580D02*
X118258458Y-108430200D01*
X118258458Y-108430200D02*
X118353696Y-108477819D01*
X118353696Y-108477819D02*
X118496553Y-108477819D01*
X117877505Y-107811152D02*
X117496553Y-107811152D01*
X117734648Y-107477819D02*
X117734648Y-108334961D01*
X117734648Y-108334961D02*
X117687029Y-108430200D01*
X117687029Y-108430200D02*
X117591791Y-108477819D01*
X117591791Y-108477819D02*
X117496553Y-108477819D01*
X117020362Y-108477819D02*
X117115600Y-108430200D01*
X117115600Y-108430200D02*
X117163219Y-108382580D01*
X117163219Y-108382580D02*
X117210838Y-108287342D01*
X117210838Y-108287342D02*
X117210838Y-108001628D01*
X117210838Y-108001628D02*
X117163219Y-107906390D01*
X117163219Y-107906390D02*
X117115600Y-107858771D01*
X117115600Y-107858771D02*
X117020362Y-107811152D01*
X117020362Y-107811152D02*
X116877505Y-107811152D01*
X116877505Y-107811152D02*
X116782267Y-107858771D01*
X116782267Y-107858771D02*
X116734648Y-107906390D01*
X116734648Y-107906390D02*
X116687029Y-108001628D01*
X116687029Y-108001628D02*
X116687029Y-108287342D01*
X116687029Y-108287342D02*
X116734648Y-108382580D01*
X116734648Y-108382580D02*
X116782267Y-108430200D01*
X116782267Y-108430200D02*
X116877505Y-108477819D01*
X116877505Y-108477819D02*
X117020362Y-108477819D01*
X116401314Y-107811152D02*
X116020362Y-107811152D01*
X116258457Y-107477819D02*
X116258457Y-108334961D01*
X116258457Y-108334961D02*
X116210838Y-108430200D01*
X116210838Y-108430200D02*
X116115600Y-108477819D01*
X116115600Y-108477819D02*
X116020362Y-108477819D01*
X115782266Y-107811152D02*
X115544171Y-108477819D01*
X115306076Y-107811152D02*
X115544171Y-108477819D01*
X115544171Y-108477819D02*
X115639409Y-108715914D01*
X115639409Y-108715914D02*
X115687028Y-108763533D01*
X115687028Y-108763533D02*
X115782266Y-108811152D01*
X114925123Y-107811152D02*
X114925123Y-108811152D01*
X114925123Y-107858771D02*
X114829885Y-107811152D01*
X114829885Y-107811152D02*
X114639409Y-107811152D01*
X114639409Y-107811152D02*
X114544171Y-107858771D01*
X114544171Y-107858771D02*
X114496552Y-107906390D01*
X114496552Y-107906390D02*
X114448933Y-108001628D01*
X114448933Y-108001628D02*
X114448933Y-108287342D01*
X114448933Y-108287342D02*
X114496552Y-108382580D01*
X114496552Y-108382580D02*
X114544171Y-108430200D01*
X114544171Y-108430200D02*
X114639409Y-108477819D01*
X114639409Y-108477819D02*
X114829885Y-108477819D01*
X114829885Y-108477819D02*
X114925123Y-108430200D01*
X113639409Y-108430200D02*
X113734647Y-108477819D01*
X113734647Y-108477819D02*
X113925123Y-108477819D01*
X113925123Y-108477819D02*
X114020361Y-108430200D01*
X114020361Y-108430200D02*
X114067980Y-108334961D01*
X114067980Y-108334961D02*
X114067980Y-107954009D01*
X114067980Y-107954009D02*
X114020361Y-107858771D01*
X114020361Y-107858771D02*
X113925123Y-107811152D01*
X113925123Y-107811152D02*
X113734647Y-107811152D01*
X113734647Y-107811152D02*
X113639409Y-107858771D01*
X113639409Y-107858771D02*
X113591790Y-107954009D01*
X113591790Y-107954009D02*
X113591790Y-108049247D01*
X113591790Y-108049247D02*
X114067980Y-108144485D01*
X112401313Y-108096866D02*
X111639409Y-108096866D01*
X110448932Y-107573057D02*
X110401313Y-107525438D01*
X110401313Y-107525438D02*
X110306075Y-107477819D01*
X110306075Y-107477819D02*
X110067980Y-107477819D01*
X110067980Y-107477819D02*
X109972742Y-107525438D01*
X109972742Y-107525438D02*
X109925123Y-107573057D01*
X109925123Y-107573057D02*
X109877504Y-107668295D01*
X109877504Y-107668295D02*
X109877504Y-107763533D01*
X109877504Y-107763533D02*
X109925123Y-107906390D01*
X109925123Y-107906390D02*
X110496551Y-108477819D01*
X110496551Y-108477819D02*
X109877504Y-108477819D01*
X109258456Y-107477819D02*
X109163218Y-107477819D01*
X109163218Y-107477819D02*
X109067980Y-107525438D01*
X109067980Y-107525438D02*
X109020361Y-107573057D01*
X109020361Y-107573057D02*
X108972742Y-107668295D01*
X108972742Y-107668295D02*
X108925123Y-107858771D01*
X108925123Y-107858771D02*
X108925123Y-108096866D01*
X108925123Y-108096866D02*
X108972742Y-108287342D01*
X108972742Y-108287342D02*
X109020361Y-108382580D01*
X109020361Y-108382580D02*
X109067980Y-108430200D01*
X109067980Y-108430200D02*
X109163218Y-108477819D01*
X109163218Y-108477819D02*
X109258456Y-108477819D01*
X109258456Y-108477819D02*
X109353694Y-108430200D01*
X109353694Y-108430200D02*
X109401313Y-108382580D01*
X109401313Y-108382580D02*
X109448932Y-108287342D01*
X109448932Y-108287342D02*
X109496551Y-108096866D01*
X109496551Y-108096866D02*
X109496551Y-107858771D01*
X109496551Y-107858771D02*
X109448932Y-107668295D01*
X109448932Y-107668295D02*
X109401313Y-107573057D01*
X109401313Y-107573057D02*
X109353694Y-107525438D01*
X109353694Y-107525438D02*
X109258456Y-107477819D01*
X108544170Y-107573057D02*
X108496551Y-107525438D01*
X108496551Y-107525438D02*
X108401313Y-107477819D01*
X108401313Y-107477819D02*
X108163218Y-107477819D01*
X108163218Y-107477819D02*
X108067980Y-107525438D01*
X108067980Y-107525438D02*
X108020361Y-107573057D01*
X108020361Y-107573057D02*
X107972742Y-107668295D01*
X107972742Y-107668295D02*
X107972742Y-107763533D01*
X107972742Y-107763533D02*
X108020361Y-107906390D01*
X108020361Y-107906390D02*
X108591789Y-108477819D01*
X108591789Y-108477819D02*
X107972742Y-108477819D01*
X107067980Y-107477819D02*
X107544170Y-107477819D01*
X107544170Y-107477819D02*
X107591789Y-107954009D01*
X107591789Y-107954009D02*
X107544170Y-107906390D01*
X107544170Y-107906390D02*
X107448932Y-107858771D01*
X107448932Y-107858771D02*
X107210837Y-107858771D01*
X107210837Y-107858771D02*
X107115599Y-107906390D01*
X107115599Y-107906390D02*
X107067980Y-107954009D01*
X107067980Y-107954009D02*
X107020361Y-108049247D01*
X107020361Y-108049247D02*
X107020361Y-108287342D01*
X107020361Y-108287342D02*
X107067980Y-108382580D01*
X107067980Y-108382580D02*
X107115599Y-108430200D01*
X107115599Y-108430200D02*
X107210837Y-108477819D01*
X107210837Y-108477819D02*
X107448932Y-108477819D01*
X107448932Y-108477819D02*
X107544170Y-108430200D01*
X107544170Y-108430200D02*
X107591789Y-108382580D01*
X106591789Y-108096866D02*
X105829885Y-108096866D01*
X105067980Y-107477819D02*
X105067980Y-108192104D01*
X105067980Y-108192104D02*
X105115599Y-108334961D01*
X105115599Y-108334961D02*
X105210837Y-108430200D01*
X105210837Y-108430200D02*
X105353694Y-108477819D01*
X105353694Y-108477819D02*
X105448932Y-108477819D01*
X104163218Y-108477819D02*
X104163218Y-107954009D01*
X104163218Y-107954009D02*
X104210837Y-107858771D01*
X104210837Y-107858771D02*
X104306075Y-107811152D01*
X104306075Y-107811152D02*
X104496551Y-107811152D01*
X104496551Y-107811152D02*
X104591789Y-107858771D01*
X104163218Y-108430200D02*
X104258456Y-108477819D01*
X104258456Y-108477819D02*
X104496551Y-108477819D01*
X104496551Y-108477819D02*
X104591789Y-108430200D01*
X104591789Y-108430200D02*
X104639408Y-108334961D01*
X104639408Y-108334961D02*
X104639408Y-108239723D01*
X104639408Y-108239723D02*
X104591789Y-108144485D01*
X104591789Y-108144485D02*
X104496551Y-108096866D01*
X104496551Y-108096866D02*
X104258456Y-108096866D01*
X104258456Y-108096866D02*
X104163218Y-108049247D01*
X103687027Y-107811152D02*
X103687027Y-108477819D01*
X103687027Y-107906390D02*
X103639408Y-107858771D01*
X103639408Y-107858771D02*
X103544170Y-107811152D01*
X103544170Y-107811152D02*
X103401313Y-107811152D01*
X103401313Y-107811152D02*
X103306075Y-107858771D01*
X103306075Y-107858771D02*
X103258456Y-107954009D01*
X103258456Y-107954009D02*
X103258456Y-108477819D01*
X102782265Y-108096866D02*
X102020361Y-108096866D01*
X101020361Y-108477819D02*
X101591789Y-108477819D01*
X101306075Y-108477819D02*
X101306075Y-107477819D01*
X101306075Y-107477819D02*
X101401313Y-107620676D01*
X101401313Y-107620676D02*
X101496551Y-107715914D01*
X101496551Y-107715914D02*
X101591789Y-107763533D01*
X100067980Y-108477819D02*
X100639408Y-108477819D01*
X100353694Y-108477819D02*
X100353694Y-107477819D01*
X100353694Y-107477819D02*
X100448932Y-107620676D01*
X100448932Y-107620676D02*
X100544170Y-107715914D01*
X100544170Y-107715914D02*
X100639408Y-107763533D01*
X96693921Y-112072200D02*
X96551064Y-112119819D01*
X96551064Y-112119819D02*
X96312969Y-112119819D01*
X96312969Y-112119819D02*
X96217731Y-112072200D01*
X96217731Y-112072200D02*
X96170112Y-112024580D01*
X96170112Y-112024580D02*
X96122493Y-111929342D01*
X96122493Y-111929342D02*
X96122493Y-111834104D01*
X96122493Y-111834104D02*
X96170112Y-111738866D01*
X96170112Y-111738866D02*
X96217731Y-111691247D01*
X96217731Y-111691247D02*
X96312969Y-111643628D01*
X96312969Y-111643628D02*
X96503445Y-111596009D01*
X96503445Y-111596009D02*
X96598683Y-111548390D01*
X96598683Y-111548390D02*
X96646302Y-111500771D01*
X96646302Y-111500771D02*
X96693921Y-111405533D01*
X96693921Y-111405533D02*
X96693921Y-111310295D01*
X96693921Y-111310295D02*
X96646302Y-111215057D01*
X96646302Y-111215057D02*
X96598683Y-111167438D01*
X96598683Y-111167438D02*
X96503445Y-111119819D01*
X96503445Y-111119819D02*
X96265350Y-111119819D01*
X96265350Y-111119819D02*
X96122493Y-111167438D01*
X95693921Y-111738866D02*
X94932017Y-111738866D01*
X95312969Y-112119819D02*
X95312969Y-111357914D01*
X93741541Y-111072200D02*
X94598683Y-112357914D01*
X92884398Y-111167438D02*
X92979636Y-111119819D01*
X92979636Y-111119819D02*
X93122493Y-111119819D01*
X93122493Y-111119819D02*
X93265350Y-111167438D01*
X93265350Y-111167438D02*
X93360588Y-111262676D01*
X93360588Y-111262676D02*
X93408207Y-111357914D01*
X93408207Y-111357914D02*
X93455826Y-111548390D01*
X93455826Y-111548390D02*
X93455826Y-111691247D01*
X93455826Y-111691247D02*
X93408207Y-111881723D01*
X93408207Y-111881723D02*
X93360588Y-111976961D01*
X93360588Y-111976961D02*
X93265350Y-112072200D01*
X93265350Y-112072200D02*
X93122493Y-112119819D01*
X93122493Y-112119819D02*
X93027255Y-112119819D01*
X93027255Y-112119819D02*
X92884398Y-112072200D01*
X92884398Y-112072200D02*
X92836779Y-112024580D01*
X92836779Y-112024580D02*
X92836779Y-111691247D01*
X92836779Y-111691247D02*
X93027255Y-111691247D01*
X92408207Y-112119819D02*
X92408207Y-111119819D01*
X92408207Y-111119819D02*
X91836779Y-112119819D01*
X91836779Y-112119819D02*
X91836779Y-111119819D01*
X145908207Y-92475419D02*
X145860588Y-92427800D01*
X145860588Y-92427800D02*
X145717731Y-92380180D01*
X145717731Y-92380180D02*
X145622493Y-92380180D01*
X145622493Y-92380180D02*
X145479636Y-92427800D01*
X145479636Y-92427800D02*
X145384398Y-92523038D01*
X145384398Y-92523038D02*
X145336779Y-92618276D01*
X145336779Y-92618276D02*
X145289160Y-92808752D01*
X145289160Y-92808752D02*
X145289160Y-92951609D01*
X145289160Y-92951609D02*
X145336779Y-93142085D01*
X145336779Y-93142085D02*
X145384398Y-93237323D01*
X145384398Y-93237323D02*
X145479636Y-93332561D01*
X145479636Y-93332561D02*
X145622493Y-93380180D01*
X145622493Y-93380180D02*
X145717731Y-93380180D01*
X145717731Y-93380180D02*
X145860588Y-93332561D01*
X145860588Y-93332561D02*
X145908207Y-93284942D01*
X146289160Y-92427800D02*
X146432017Y-92380180D01*
X146432017Y-92380180D02*
X146670112Y-92380180D01*
X146670112Y-92380180D02*
X146765350Y-92427800D01*
X146765350Y-92427800D02*
X146812969Y-92475419D01*
X146812969Y-92475419D02*
X146860588Y-92570657D01*
X146860588Y-92570657D02*
X146860588Y-92665895D01*
X146860588Y-92665895D02*
X146812969Y-92761133D01*
X146812969Y-92761133D02*
X146765350Y-92808752D01*
X146765350Y-92808752D02*
X146670112Y-92856371D01*
X146670112Y-92856371D02*
X146479636Y-92903990D01*
X146479636Y-92903990D02*
X146384398Y-92951609D01*
X146384398Y-92951609D02*
X146336779Y-92999228D01*
X146336779Y-92999228D02*
X146289160Y-93094466D01*
X146289160Y-93094466D02*
X146289160Y-93189704D01*
X146289160Y-93189704D02*
X146336779Y-93284942D01*
X146336779Y-93284942D02*
X146384398Y-93332561D01*
X146384398Y-93332561D02*
X146479636Y-93380180D01*
X146479636Y-93380180D02*
X146717731Y-93380180D01*
X146717731Y-93380180D02*
X146860588Y-93332561D01*
X147812969Y-92380180D02*
X147241541Y-92380180D01*
X147527255Y-92380180D02*
X147527255Y-93380180D01*
X147527255Y-93380180D02*
X147432017Y-93237323D01*
X147432017Y-93237323D02*
X147336779Y-93142085D01*
X147336779Y-93142085D02*
X147241541Y-93094466D01*
X149527255Y-93332561D02*
X149432017Y-93380180D01*
X149432017Y-93380180D02*
X149289160Y-93380180D01*
X149289160Y-93380180D02*
X149146303Y-93332561D01*
X149146303Y-93332561D02*
X149051065Y-93237323D01*
X149051065Y-93237323D02*
X149003446Y-93142085D01*
X149003446Y-93142085D02*
X148955827Y-92951609D01*
X148955827Y-92951609D02*
X148955827Y-92808752D01*
X148955827Y-92808752D02*
X149003446Y-92618276D01*
X149003446Y-92618276D02*
X149051065Y-92523038D01*
X149051065Y-92523038D02*
X149146303Y-92427800D01*
X149146303Y-92427800D02*
X149289160Y-92380180D01*
X149289160Y-92380180D02*
X149384398Y-92380180D01*
X149384398Y-92380180D02*
X149527255Y-92427800D01*
X149527255Y-92427800D02*
X149574874Y-92475419D01*
X149574874Y-92475419D02*
X149574874Y-92808752D01*
X149574874Y-92808752D02*
X149384398Y-92808752D01*
X150003446Y-92380180D02*
X150003446Y-93380180D01*
X150003446Y-93380180D02*
X150384398Y-93380180D01*
X150384398Y-93380180D02*
X150479636Y-93332561D01*
X150479636Y-93332561D02*
X150527255Y-93284942D01*
X150527255Y-93284942D02*
X150574874Y-93189704D01*
X150574874Y-93189704D02*
X150574874Y-93046847D01*
X150574874Y-93046847D02*
X150527255Y-92951609D01*
X150527255Y-92951609D02*
X150479636Y-92903990D01*
X150479636Y-92903990D02*
X150384398Y-92856371D01*
X150384398Y-92856371D02*
X150003446Y-92856371D01*
X151003446Y-92380180D02*
X151003446Y-93380180D01*
X151670112Y-93380180D02*
X151860588Y-93380180D01*
X151860588Y-93380180D02*
X151955826Y-93332561D01*
X151955826Y-93332561D02*
X152051064Y-93237323D01*
X152051064Y-93237323D02*
X152098683Y-93046847D01*
X152098683Y-93046847D02*
X152098683Y-92713514D01*
X152098683Y-92713514D02*
X152051064Y-92523038D01*
X152051064Y-92523038D02*
X151955826Y-92427800D01*
X151955826Y-92427800D02*
X151860588Y-92380180D01*
X151860588Y-92380180D02*
X151670112Y-92380180D01*
X151670112Y-92380180D02*
X151574874Y-92427800D01*
X151574874Y-92427800D02*
X151479636Y-92523038D01*
X151479636Y-92523038D02*
X151432017Y-92713514D01*
X151432017Y-92713514D02*
X151432017Y-93046847D01*
X151432017Y-93046847D02*
X151479636Y-93237323D01*
X151479636Y-93237323D02*
X151574874Y-93332561D01*
X151574874Y-93332561D02*
X151670112Y-93380180D01*
X153051064Y-92380180D02*
X152479636Y-92380180D01*
X152765350Y-92380180D02*
X152765350Y-93380180D01*
X152765350Y-93380180D02*
X152670112Y-93237323D01*
X152670112Y-93237323D02*
X152574874Y-93142085D01*
X152574874Y-93142085D02*
X152479636Y-93094466D01*
X153908207Y-93046847D02*
X153908207Y-92380180D01*
X153670112Y-93427800D02*
X153432017Y-92713514D01*
X153432017Y-92713514D02*
X154051064Y-92713514D01*
X96693921Y-126550200D02*
X96551064Y-126597819D01*
X96551064Y-126597819D02*
X96312969Y-126597819D01*
X96312969Y-126597819D02*
X96217731Y-126550200D01*
X96217731Y-126550200D02*
X96170112Y-126502580D01*
X96170112Y-126502580D02*
X96122493Y-126407342D01*
X96122493Y-126407342D02*
X96122493Y-126312104D01*
X96122493Y-126312104D02*
X96170112Y-126216866D01*
X96170112Y-126216866D02*
X96217731Y-126169247D01*
X96217731Y-126169247D02*
X96312969Y-126121628D01*
X96312969Y-126121628D02*
X96503445Y-126074009D01*
X96503445Y-126074009D02*
X96598683Y-126026390D01*
X96598683Y-126026390D02*
X96646302Y-125978771D01*
X96646302Y-125978771D02*
X96693921Y-125883533D01*
X96693921Y-125883533D02*
X96693921Y-125788295D01*
X96693921Y-125788295D02*
X96646302Y-125693057D01*
X96646302Y-125693057D02*
X96598683Y-125645438D01*
X96598683Y-125645438D02*
X96503445Y-125597819D01*
X96503445Y-125597819D02*
X96265350Y-125597819D01*
X96265350Y-125597819D02*
X96122493Y-125645438D01*
X95693921Y-126216866D02*
X94932017Y-126216866D01*
X95312969Y-126597819D02*
X95312969Y-125835914D01*
X93741541Y-125550200D02*
X94598683Y-126835914D01*
X92884398Y-125645438D02*
X92979636Y-125597819D01*
X92979636Y-125597819D02*
X93122493Y-125597819D01*
X93122493Y-125597819D02*
X93265350Y-125645438D01*
X93265350Y-125645438D02*
X93360588Y-125740676D01*
X93360588Y-125740676D02*
X93408207Y-125835914D01*
X93408207Y-125835914D02*
X93455826Y-126026390D01*
X93455826Y-126026390D02*
X93455826Y-126169247D01*
X93455826Y-126169247D02*
X93408207Y-126359723D01*
X93408207Y-126359723D02*
X93360588Y-126454961D01*
X93360588Y-126454961D02*
X93265350Y-126550200D01*
X93265350Y-126550200D02*
X93122493Y-126597819D01*
X93122493Y-126597819D02*
X93027255Y-126597819D01*
X93027255Y-126597819D02*
X92884398Y-126550200D01*
X92884398Y-126550200D02*
X92836779Y-126502580D01*
X92836779Y-126502580D02*
X92836779Y-126169247D01*
X92836779Y-126169247D02*
X93027255Y-126169247D01*
X92408207Y-126597819D02*
X92408207Y-125597819D01*
X92408207Y-125597819D02*
X91836779Y-126597819D01*
X91836779Y-126597819D02*
X91836779Y-125597819D01*
X96551064Y-124050200D02*
X96408207Y-124097819D01*
X96408207Y-124097819D02*
X96170112Y-124097819D01*
X96170112Y-124097819D02*
X96074874Y-124050200D01*
X96074874Y-124050200D02*
X96027255Y-124002580D01*
X96027255Y-124002580D02*
X95979636Y-123907342D01*
X95979636Y-123907342D02*
X95979636Y-123812104D01*
X95979636Y-123812104D02*
X96027255Y-123716866D01*
X96027255Y-123716866D02*
X96074874Y-123669247D01*
X96074874Y-123669247D02*
X96170112Y-123621628D01*
X96170112Y-123621628D02*
X96360588Y-123574009D01*
X96360588Y-123574009D02*
X96455826Y-123526390D01*
X96455826Y-123526390D02*
X96503445Y-123478771D01*
X96503445Y-123478771D02*
X96551064Y-123383533D01*
X96551064Y-123383533D02*
X96551064Y-123288295D01*
X96551064Y-123288295D02*
X96503445Y-123193057D01*
X96503445Y-123193057D02*
X96455826Y-123145438D01*
X96455826Y-123145438D02*
X96360588Y-123097819D01*
X96360588Y-123097819D02*
X96122493Y-123097819D01*
X96122493Y-123097819D02*
X95979636Y-123145438D01*
X95551064Y-123716866D02*
X94789160Y-123716866D01*
X93598684Y-123050200D02*
X94455826Y-124335914D01*
X93360588Y-123097819D02*
X93122493Y-124097819D01*
X93122493Y-124097819D02*
X92932017Y-123383533D01*
X92932017Y-123383533D02*
X92741541Y-124097819D01*
X92741541Y-124097819D02*
X92503446Y-123097819D01*
X92265350Y-123097819D02*
X91693922Y-123097819D01*
X91979636Y-124097819D02*
X91979636Y-123097819D01*
X136572200Y-88789160D02*
X136619819Y-88932017D01*
X136619819Y-88932017D02*
X136619819Y-89170112D01*
X136619819Y-89170112D02*
X136572200Y-89265350D01*
X136572200Y-89265350D02*
X136524580Y-89312969D01*
X136524580Y-89312969D02*
X136429342Y-89360588D01*
X136429342Y-89360588D02*
X136334104Y-89360588D01*
X136334104Y-89360588D02*
X136238866Y-89312969D01*
X136238866Y-89312969D02*
X136191247Y-89265350D01*
X136191247Y-89265350D02*
X136143628Y-89170112D01*
X136143628Y-89170112D02*
X136096009Y-88979636D01*
X136096009Y-88979636D02*
X136048390Y-88884398D01*
X136048390Y-88884398D02*
X136000771Y-88836779D01*
X136000771Y-88836779D02*
X135905533Y-88789160D01*
X135905533Y-88789160D02*
X135810295Y-88789160D01*
X135810295Y-88789160D02*
X135715057Y-88836779D01*
X135715057Y-88836779D02*
X135667438Y-88884398D01*
X135667438Y-88884398D02*
X135619819Y-88979636D01*
X135619819Y-88979636D02*
X135619819Y-89217731D01*
X135619819Y-89217731D02*
X135667438Y-89360588D01*
X136524580Y-90360588D02*
X136572200Y-90312969D01*
X136572200Y-90312969D02*
X136619819Y-90170112D01*
X136619819Y-90170112D02*
X136619819Y-90074874D01*
X136619819Y-90074874D02*
X136572200Y-89932017D01*
X136572200Y-89932017D02*
X136476961Y-89836779D01*
X136476961Y-89836779D02*
X136381723Y-89789160D01*
X136381723Y-89789160D02*
X136191247Y-89741541D01*
X136191247Y-89741541D02*
X136048390Y-89741541D01*
X136048390Y-89741541D02*
X135857914Y-89789160D01*
X135857914Y-89789160D02*
X135762676Y-89836779D01*
X135762676Y-89836779D02*
X135667438Y-89932017D01*
X135667438Y-89932017D02*
X135619819Y-90074874D01*
X135619819Y-90074874D02*
X135619819Y-90170112D01*
X135619819Y-90170112D02*
X135667438Y-90312969D01*
X135667438Y-90312969D02*
X135715057Y-90360588D01*
X136619819Y-90789160D02*
X135619819Y-90789160D01*
X136619819Y-91360588D02*
X136048390Y-90932017D01*
X135619819Y-91360588D02*
X136191247Y-90789160D01*
X97880180Y-119187030D02*
X97880180Y-119663220D01*
X97880180Y-119663220D02*
X98880180Y-119663220D01*
X97880180Y-118710839D02*
X97927800Y-118806077D01*
X97927800Y-118806077D02*
X97975419Y-118853696D01*
X97975419Y-118853696D02*
X98070657Y-118901315D01*
X98070657Y-118901315D02*
X98356371Y-118901315D01*
X98356371Y-118901315D02*
X98451609Y-118853696D01*
X98451609Y-118853696D02*
X98499228Y-118806077D01*
X98499228Y-118806077D02*
X98546847Y-118710839D01*
X98546847Y-118710839D02*
X98546847Y-118567982D01*
X98546847Y-118567982D02*
X98499228Y-118472744D01*
X98499228Y-118472744D02*
X98451609Y-118425125D01*
X98451609Y-118425125D02*
X98356371Y-118377506D01*
X98356371Y-118377506D02*
X98070657Y-118377506D01*
X98070657Y-118377506D02*
X97975419Y-118425125D01*
X97975419Y-118425125D02*
X97927800Y-118472744D01*
X97927800Y-118472744D02*
X97880180Y-118567982D01*
X97880180Y-118567982D02*
X97880180Y-118710839D01*
X97880180Y-117520363D02*
X98403990Y-117520363D01*
X98403990Y-117520363D02*
X98499228Y-117567982D01*
X98499228Y-117567982D02*
X98546847Y-117663220D01*
X98546847Y-117663220D02*
X98546847Y-117853696D01*
X98546847Y-117853696D02*
X98499228Y-117948934D01*
X97927800Y-117520363D02*
X97880180Y-117615601D01*
X97880180Y-117615601D02*
X97880180Y-117853696D01*
X97880180Y-117853696D02*
X97927800Y-117948934D01*
X97927800Y-117948934D02*
X98023038Y-117996553D01*
X98023038Y-117996553D02*
X98118276Y-117996553D01*
X98118276Y-117996553D02*
X98213514Y-117948934D01*
X98213514Y-117948934D02*
X98261133Y-117853696D01*
X98261133Y-117853696D02*
X98261133Y-117615601D01*
X98261133Y-117615601D02*
X98308752Y-117520363D01*
X97880180Y-116615601D02*
X98880180Y-116615601D01*
X97927800Y-116615601D02*
X97880180Y-116710839D01*
X97880180Y-116710839D02*
X97880180Y-116901315D01*
X97880180Y-116901315D02*
X97927800Y-116996553D01*
X97927800Y-116996553D02*
X97975419Y-117044172D01*
X97975419Y-117044172D02*
X98070657Y-117091791D01*
X98070657Y-117091791D02*
X98356371Y-117091791D01*
X98356371Y-117091791D02*
X98451609Y-117044172D01*
X98451609Y-117044172D02*
X98499228Y-116996553D01*
X98499228Y-116996553D02*
X98546847Y-116901315D01*
X98546847Y-116901315D02*
X98546847Y-116710839D01*
X98546847Y-116710839D02*
X98499228Y-116615601D01*
X97975419Y-114806077D02*
X97927800Y-114853696D01*
X97927800Y-114853696D02*
X97880180Y-114996553D01*
X97880180Y-114996553D02*
X97880180Y-115091791D01*
X97880180Y-115091791D02*
X97927800Y-115234648D01*
X97927800Y-115234648D02*
X98023038Y-115329886D01*
X98023038Y-115329886D02*
X98118276Y-115377505D01*
X98118276Y-115377505D02*
X98308752Y-115425124D01*
X98308752Y-115425124D02*
X98451609Y-115425124D01*
X98451609Y-115425124D02*
X98642085Y-115377505D01*
X98642085Y-115377505D02*
X98737323Y-115329886D01*
X98737323Y-115329886D02*
X98832561Y-115234648D01*
X98832561Y-115234648D02*
X98880180Y-115091791D01*
X98880180Y-115091791D02*
X98880180Y-114996553D01*
X98880180Y-114996553D02*
X98832561Y-114853696D01*
X98832561Y-114853696D02*
X98784942Y-114806077D01*
X97927800Y-113996553D02*
X97880180Y-114091791D01*
X97880180Y-114091791D02*
X97880180Y-114282267D01*
X97880180Y-114282267D02*
X97927800Y-114377505D01*
X97927800Y-114377505D02*
X98023038Y-114425124D01*
X98023038Y-114425124D02*
X98403990Y-114425124D01*
X98403990Y-114425124D02*
X98499228Y-114377505D01*
X98499228Y-114377505D02*
X98546847Y-114282267D01*
X98546847Y-114282267D02*
X98546847Y-114091791D01*
X98546847Y-114091791D02*
X98499228Y-113996553D01*
X98499228Y-113996553D02*
X98403990Y-113948934D01*
X98403990Y-113948934D02*
X98308752Y-113948934D01*
X98308752Y-113948934D02*
X98213514Y-114425124D01*
X97880180Y-113377505D02*
X97927800Y-113472743D01*
X97927800Y-113472743D02*
X98023038Y-113520362D01*
X98023038Y-113520362D02*
X98880180Y-113520362D01*
X97880180Y-112853695D02*
X97927800Y-112948933D01*
X97927800Y-112948933D02*
X98023038Y-112996552D01*
X98023038Y-112996552D02*
X98880180Y-112996552D01*
X123535713Y-131072200D02*
X123392856Y-131119819D01*
X123392856Y-131119819D02*
X123154761Y-131119819D01*
X123154761Y-131119819D02*
X123059523Y-131072200D01*
X123059523Y-131072200D02*
X123011904Y-131024580D01*
X123011904Y-131024580D02*
X122964285Y-130929342D01*
X122964285Y-130929342D02*
X122964285Y-130834104D01*
X122964285Y-130834104D02*
X123011904Y-130738866D01*
X123011904Y-130738866D02*
X123059523Y-130691247D01*
X123059523Y-130691247D02*
X123154761Y-130643628D01*
X123154761Y-130643628D02*
X123345237Y-130596009D01*
X123345237Y-130596009D02*
X123440475Y-130548390D01*
X123440475Y-130548390D02*
X123488094Y-130500771D01*
X123488094Y-130500771D02*
X123535713Y-130405533D01*
X123535713Y-130405533D02*
X123535713Y-130310295D01*
X123535713Y-130310295D02*
X123488094Y-130215057D01*
X123488094Y-130215057D02*
X123440475Y-130167438D01*
X123440475Y-130167438D02*
X123345237Y-130119819D01*
X123345237Y-130119819D02*
X123107142Y-130119819D01*
X123107142Y-130119819D02*
X122964285Y-130167438D01*
X121964285Y-131119819D02*
X122297618Y-130643628D01*
X122535713Y-131119819D02*
X122535713Y-130119819D01*
X122535713Y-130119819D02*
X122154761Y-130119819D01*
X122154761Y-130119819D02*
X122059523Y-130167438D01*
X122059523Y-130167438D02*
X122011904Y-130215057D01*
X122011904Y-130215057D02*
X121964285Y-130310295D01*
X121964285Y-130310295D02*
X121964285Y-130453152D01*
X121964285Y-130453152D02*
X122011904Y-130548390D01*
X122011904Y-130548390D02*
X122059523Y-130596009D01*
X122059523Y-130596009D02*
X122154761Y-130643628D01*
X122154761Y-130643628D02*
X122535713Y-130643628D01*
X120964285Y-131024580D02*
X121011904Y-131072200D01*
X121011904Y-131072200D02*
X121154761Y-131119819D01*
X121154761Y-131119819D02*
X121249999Y-131119819D01*
X121249999Y-131119819D02*
X121392856Y-131072200D01*
X121392856Y-131072200D02*
X121488094Y-130976961D01*
X121488094Y-130976961D02*
X121535713Y-130881723D01*
X121535713Y-130881723D02*
X121583332Y-130691247D01*
X121583332Y-130691247D02*
X121583332Y-130548390D01*
X121583332Y-130548390D02*
X121535713Y-130357914D01*
X121535713Y-130357914D02*
X121488094Y-130262676D01*
X121488094Y-130262676D02*
X121392856Y-130167438D01*
X121392856Y-130167438D02*
X121249999Y-130119819D01*
X121249999Y-130119819D02*
X121154761Y-130119819D01*
X121154761Y-130119819D02*
X121011904Y-130167438D01*
X121011904Y-130167438D02*
X120964285Y-130215057D01*
X95960839Y-91572200D02*
X95817982Y-91619819D01*
X95817982Y-91619819D02*
X95579887Y-91619819D01*
X95579887Y-91619819D02*
X95484649Y-91572200D01*
X95484649Y-91572200D02*
X95437030Y-91524580D01*
X95437030Y-91524580D02*
X95389411Y-91429342D01*
X95389411Y-91429342D02*
X95389411Y-91334104D01*
X95389411Y-91334104D02*
X95437030Y-91238866D01*
X95437030Y-91238866D02*
X95484649Y-91191247D01*
X95484649Y-91191247D02*
X95579887Y-91143628D01*
X95579887Y-91143628D02*
X95770363Y-91096009D01*
X95770363Y-91096009D02*
X95865601Y-91048390D01*
X95865601Y-91048390D02*
X95913220Y-91000771D01*
X95913220Y-91000771D02*
X95960839Y-90905533D01*
X95960839Y-90905533D02*
X95960839Y-90810295D01*
X95960839Y-90810295D02*
X95913220Y-90715057D01*
X95913220Y-90715057D02*
X95865601Y-90667438D01*
X95865601Y-90667438D02*
X95770363Y-90619819D01*
X95770363Y-90619819D02*
X95532268Y-90619819D01*
X95532268Y-90619819D02*
X95389411Y-90667438D01*
X94389411Y-91524580D02*
X94437030Y-91572200D01*
X94437030Y-91572200D02*
X94579887Y-91619819D01*
X94579887Y-91619819D02*
X94675125Y-91619819D01*
X94675125Y-91619819D02*
X94817982Y-91572200D01*
X94817982Y-91572200D02*
X94913220Y-91476961D01*
X94913220Y-91476961D02*
X94960839Y-91381723D01*
X94960839Y-91381723D02*
X95008458Y-91191247D01*
X95008458Y-91191247D02*
X95008458Y-91048390D01*
X95008458Y-91048390D02*
X94960839Y-90857914D01*
X94960839Y-90857914D02*
X94913220Y-90762676D01*
X94913220Y-90762676D02*
X94817982Y-90667438D01*
X94817982Y-90667438D02*
X94675125Y-90619819D01*
X94675125Y-90619819D02*
X94579887Y-90619819D01*
X94579887Y-90619819D02*
X94437030Y-90667438D01*
X94437030Y-90667438D02*
X94389411Y-90715057D01*
X93484649Y-91619819D02*
X93960839Y-91619819D01*
X93960839Y-91619819D02*
X93960839Y-90619819D01*
X92389410Y-91238866D02*
X91627506Y-91238866D01*
X89865601Y-90667438D02*
X89960839Y-90619819D01*
X89960839Y-90619819D02*
X90103696Y-90619819D01*
X90103696Y-90619819D02*
X90246553Y-90667438D01*
X90246553Y-90667438D02*
X90341791Y-90762676D01*
X90341791Y-90762676D02*
X90389410Y-90857914D01*
X90389410Y-90857914D02*
X90437029Y-91048390D01*
X90437029Y-91048390D02*
X90437029Y-91191247D01*
X90437029Y-91191247D02*
X90389410Y-91381723D01*
X90389410Y-91381723D02*
X90341791Y-91476961D01*
X90341791Y-91476961D02*
X90246553Y-91572200D01*
X90246553Y-91572200D02*
X90103696Y-91619819D01*
X90103696Y-91619819D02*
X90008458Y-91619819D01*
X90008458Y-91619819D02*
X89865601Y-91572200D01*
X89865601Y-91572200D02*
X89817982Y-91524580D01*
X89817982Y-91524580D02*
X89817982Y-91191247D01*
X89817982Y-91191247D02*
X90008458Y-91191247D01*
X88913220Y-90619819D02*
X89389410Y-90619819D01*
X89389410Y-90619819D02*
X89437029Y-91096009D01*
X89437029Y-91096009D02*
X89389410Y-91048390D01*
X89389410Y-91048390D02*
X89294172Y-91000771D01*
X89294172Y-91000771D02*
X89056077Y-91000771D01*
X89056077Y-91000771D02*
X88960839Y-91048390D01*
X88960839Y-91048390D02*
X88913220Y-91096009D01*
X88913220Y-91096009D02*
X88865601Y-91191247D01*
X88865601Y-91191247D02*
X88865601Y-91429342D01*
X88865601Y-91429342D02*
X88913220Y-91524580D01*
X88913220Y-91524580D02*
X88960839Y-91572200D01*
X88960839Y-91572200D02*
X89056077Y-91619819D01*
X89056077Y-91619819D02*
X89294172Y-91619819D01*
X89294172Y-91619819D02*
X89389410Y-91572200D01*
X89389410Y-91572200D02*
X89437029Y-91524580D01*
X139024580Y-89408207D02*
X139072200Y-89360588D01*
X139072200Y-89360588D02*
X139119819Y-89217731D01*
X139119819Y-89217731D02*
X139119819Y-89122493D01*
X139119819Y-89122493D02*
X139072200Y-88979636D01*
X139072200Y-88979636D02*
X138976961Y-88884398D01*
X138976961Y-88884398D02*
X138881723Y-88836779D01*
X138881723Y-88836779D02*
X138691247Y-88789160D01*
X138691247Y-88789160D02*
X138548390Y-88789160D01*
X138548390Y-88789160D02*
X138357914Y-88836779D01*
X138357914Y-88836779D02*
X138262676Y-88884398D01*
X138262676Y-88884398D02*
X138167438Y-88979636D01*
X138167438Y-88979636D02*
X138119819Y-89122493D01*
X138119819Y-89122493D02*
X138119819Y-89217731D01*
X138119819Y-89217731D02*
X138167438Y-89360588D01*
X138167438Y-89360588D02*
X138215057Y-89408207D01*
X138119819Y-90027255D02*
X138119819Y-90217731D01*
X138119819Y-90217731D02*
X138167438Y-90312969D01*
X138167438Y-90312969D02*
X138262676Y-90408207D01*
X138262676Y-90408207D02*
X138453152Y-90455826D01*
X138453152Y-90455826D02*
X138786485Y-90455826D01*
X138786485Y-90455826D02*
X138976961Y-90408207D01*
X138976961Y-90408207D02*
X139072200Y-90312969D01*
X139072200Y-90312969D02*
X139119819Y-90217731D01*
X139119819Y-90217731D02*
X139119819Y-90027255D01*
X139119819Y-90027255D02*
X139072200Y-89932017D01*
X139072200Y-89932017D02*
X138976961Y-89836779D01*
X138976961Y-89836779D02*
X138786485Y-89789160D01*
X138786485Y-89789160D02*
X138453152Y-89789160D01*
X138453152Y-89789160D02*
X138262676Y-89836779D01*
X138262676Y-89836779D02*
X138167438Y-89932017D01*
X138167438Y-89932017D02*
X138119819Y-90027255D01*
X139119819Y-90884398D02*
X138119819Y-90884398D01*
X138119819Y-90884398D02*
X138119819Y-91265350D01*
X138119819Y-91265350D02*
X138167438Y-91360588D01*
X138167438Y-91360588D02*
X138215057Y-91408207D01*
X138215057Y-91408207D02*
X138310295Y-91455826D01*
X138310295Y-91455826D02*
X138453152Y-91455826D01*
X138453152Y-91455826D02*
X138548390Y-91408207D01*
X138548390Y-91408207D02*
X138596009Y-91360588D01*
X138596009Y-91360588D02*
X138643628Y-91265350D01*
X138643628Y-91265350D02*
X138643628Y-90884398D01*
X139119819Y-91884398D02*
X138119819Y-91884398D01*
X111142857Y-131119819D02*
X111619047Y-131119819D01*
X111619047Y-131119819D02*
X111619047Y-130119819D01*
X110619047Y-130119819D02*
X110428571Y-130119819D01*
X110428571Y-130119819D02*
X110333333Y-130167438D01*
X110333333Y-130167438D02*
X110238095Y-130262676D01*
X110238095Y-130262676D02*
X110190476Y-130453152D01*
X110190476Y-130453152D02*
X110190476Y-130786485D01*
X110190476Y-130786485D02*
X110238095Y-130976961D01*
X110238095Y-130976961D02*
X110333333Y-131072200D01*
X110333333Y-131072200D02*
X110428571Y-131119819D01*
X110428571Y-131119819D02*
X110619047Y-131119819D01*
X110619047Y-131119819D02*
X110714285Y-131072200D01*
X110714285Y-131072200D02*
X110809523Y-130976961D01*
X110809523Y-130976961D02*
X110857142Y-130786485D01*
X110857142Y-130786485D02*
X110857142Y-130453152D01*
X110857142Y-130453152D02*
X110809523Y-130262676D01*
X110809523Y-130262676D02*
X110714285Y-130167438D01*
X110714285Y-130167438D02*
X110619047Y-130119819D01*
X109809523Y-130834104D02*
X109333333Y-130834104D01*
X109904761Y-131119819D02*
X109571428Y-130119819D01*
X109571428Y-130119819D02*
X109238095Y-131119819D01*
X108904761Y-131119819D02*
X108904761Y-130119819D01*
X108904761Y-130119819D02*
X108666666Y-130119819D01*
X108666666Y-130119819D02*
X108523809Y-130167438D01*
X108523809Y-130167438D02*
X108428571Y-130262676D01*
X108428571Y-130262676D02*
X108380952Y-130357914D01*
X108380952Y-130357914D02*
X108333333Y-130548390D01*
X108333333Y-130548390D02*
X108333333Y-130691247D01*
X108333333Y-130691247D02*
X108380952Y-130881723D01*
X108380952Y-130881723D02*
X108428571Y-130976961D01*
X108428571Y-130976961D02*
X108523809Y-131072200D01*
X108523809Y-131072200D02*
X108666666Y-131119819D01*
X108666666Y-131119819D02*
X108904761Y-131119819D01*
X130417438Y-89360588D02*
X130369819Y-89265350D01*
X130369819Y-89265350D02*
X130369819Y-89122493D01*
X130369819Y-89122493D02*
X130417438Y-88979636D01*
X130417438Y-88979636D02*
X130512676Y-88884398D01*
X130512676Y-88884398D02*
X130607914Y-88836779D01*
X130607914Y-88836779D02*
X130798390Y-88789160D01*
X130798390Y-88789160D02*
X130941247Y-88789160D01*
X130941247Y-88789160D02*
X131131723Y-88836779D01*
X131131723Y-88836779D02*
X131226961Y-88884398D01*
X131226961Y-88884398D02*
X131322200Y-88979636D01*
X131322200Y-88979636D02*
X131369819Y-89122493D01*
X131369819Y-89122493D02*
X131369819Y-89217731D01*
X131369819Y-89217731D02*
X131322200Y-89360588D01*
X131322200Y-89360588D02*
X131274580Y-89408207D01*
X131274580Y-89408207D02*
X130941247Y-89408207D01*
X130941247Y-89408207D02*
X130941247Y-89217731D01*
X131369819Y-89836779D02*
X130369819Y-89836779D01*
X130369819Y-89836779D02*
X131369819Y-90408207D01*
X131369819Y-90408207D02*
X130369819Y-90408207D01*
X131369819Y-90884398D02*
X130369819Y-90884398D01*
X130369819Y-90884398D02*
X130369819Y-91122493D01*
X130369819Y-91122493D02*
X130417438Y-91265350D01*
X130417438Y-91265350D02*
X130512676Y-91360588D01*
X130512676Y-91360588D02*
X130607914Y-91408207D01*
X130607914Y-91408207D02*
X130798390Y-91455826D01*
X130798390Y-91455826D02*
X130941247Y-91455826D01*
X130941247Y-91455826D02*
X131131723Y-91408207D01*
X131131723Y-91408207D02*
X131226961Y-91360588D01*
X131226961Y-91360588D02*
X131322200Y-91265350D01*
X131322200Y-91265350D02*
X131369819Y-91122493D01*
X131369819Y-91122493D02*
X131369819Y-90884398D01*
X144163220Y-96626121D02*
X143829887Y-96626121D01*
X143687030Y-97149931D02*
X144163220Y-97149931D01*
X144163220Y-97149931D02*
X144163220Y-96149931D01*
X144163220Y-96149931D02*
X143687030Y-96149931D01*
X143353696Y-96149931D02*
X142687030Y-97149931D01*
X142687030Y-96149931D02*
X143353696Y-97149931D01*
X142448934Y-96149931D02*
X141877506Y-96149931D01*
X142163220Y-97149931D02*
X142163220Y-96149931D01*
X141020363Y-97149931D02*
X141591791Y-97149931D01*
X141306077Y-97149931D02*
X141306077Y-96149931D01*
X141306077Y-96149931D02*
X141401315Y-96292788D01*
X141401315Y-96292788D02*
X141496553Y-96388026D01*
X141496553Y-96388026D02*
X141591791Y-96435645D01*
X143639411Y-97807494D02*
X143734649Y-97759875D01*
X143734649Y-97759875D02*
X143877506Y-97759875D01*
X143877506Y-97759875D02*
X144020363Y-97807494D01*
X144020363Y-97807494D02*
X144115601Y-97902732D01*
X144115601Y-97902732D02*
X144163220Y-97997970D01*
X144163220Y-97997970D02*
X144210839Y-98188446D01*
X144210839Y-98188446D02*
X144210839Y-98331303D01*
X144210839Y-98331303D02*
X144163220Y-98521779D01*
X144163220Y-98521779D02*
X144115601Y-98617017D01*
X144115601Y-98617017D02*
X144020363Y-98712256D01*
X144020363Y-98712256D02*
X143877506Y-98759875D01*
X143877506Y-98759875D02*
X143782268Y-98759875D01*
X143782268Y-98759875D02*
X143639411Y-98712256D01*
X143639411Y-98712256D02*
X143591792Y-98664636D01*
X143591792Y-98664636D02*
X143591792Y-98331303D01*
X143591792Y-98331303D02*
X143782268Y-98331303D01*
X143163220Y-98759875D02*
X143163220Y-97759875D01*
X143163220Y-97759875D02*
X142782268Y-97759875D01*
X142782268Y-97759875D02*
X142687030Y-97807494D01*
X142687030Y-97807494D02*
X142639411Y-97855113D01*
X142639411Y-97855113D02*
X142591792Y-97950351D01*
X142591792Y-97950351D02*
X142591792Y-98093208D01*
X142591792Y-98093208D02*
X142639411Y-98188446D01*
X142639411Y-98188446D02*
X142687030Y-98236065D01*
X142687030Y-98236065D02*
X142782268Y-98283684D01*
X142782268Y-98283684D02*
X143163220Y-98283684D01*
X142163220Y-98759875D02*
X142163220Y-97759875D01*
X141496554Y-97759875D02*
X141306078Y-97759875D01*
X141306078Y-97759875D02*
X141210840Y-97807494D01*
X141210840Y-97807494D02*
X141115602Y-97902732D01*
X141115602Y-97902732D02*
X141067983Y-98093208D01*
X141067983Y-98093208D02*
X141067983Y-98426541D01*
X141067983Y-98426541D02*
X141115602Y-98617017D01*
X141115602Y-98617017D02*
X141210840Y-98712256D01*
X141210840Y-98712256D02*
X141306078Y-98759875D01*
X141306078Y-98759875D02*
X141496554Y-98759875D01*
X141496554Y-98759875D02*
X141591792Y-98712256D01*
X141591792Y-98712256D02*
X141687030Y-98617017D01*
X141687030Y-98617017D02*
X141734649Y-98426541D01*
X141734649Y-98426541D02*
X141734649Y-98093208D01*
X141734649Y-98093208D02*
X141687030Y-97902732D01*
X141687030Y-97902732D02*
X141591792Y-97807494D01*
X141591792Y-97807494D02*
X141496554Y-97759875D01*
X140448935Y-97759875D02*
X140353697Y-97759875D01*
X140353697Y-97759875D02*
X140258459Y-97807494D01*
X140258459Y-97807494D02*
X140210840Y-97855113D01*
X140210840Y-97855113D02*
X140163221Y-97950351D01*
X140163221Y-97950351D02*
X140115602Y-98140827D01*
X140115602Y-98140827D02*
X140115602Y-98378922D01*
X140115602Y-98378922D02*
X140163221Y-98569398D01*
X140163221Y-98569398D02*
X140210840Y-98664636D01*
X140210840Y-98664636D02*
X140258459Y-98712256D01*
X140258459Y-98712256D02*
X140353697Y-98759875D01*
X140353697Y-98759875D02*
X140448935Y-98759875D01*
X140448935Y-98759875D02*
X140544173Y-98712256D01*
X140544173Y-98712256D02*
X140591792Y-98664636D01*
X140591792Y-98664636D02*
X140639411Y-98569398D01*
X140639411Y-98569398D02*
X140687030Y-98378922D01*
X140687030Y-98378922D02*
X140687030Y-98140827D01*
X140687030Y-98140827D02*
X140639411Y-97950351D01*
X140639411Y-97950351D02*
X140591792Y-97855113D01*
X140591792Y-97855113D02*
X140544173Y-97807494D01*
X140544173Y-97807494D02*
X140448935Y-97759875D01*
X139782268Y-97759875D02*
X139163221Y-97759875D01*
X139163221Y-97759875D02*
X139496554Y-98140827D01*
X139496554Y-98140827D02*
X139353697Y-98140827D01*
X139353697Y-98140827D02*
X139258459Y-98188446D01*
X139258459Y-98188446D02*
X139210840Y-98236065D01*
X139210840Y-98236065D02*
X139163221Y-98331303D01*
X139163221Y-98331303D02*
X139163221Y-98569398D01*
X139163221Y-98569398D02*
X139210840Y-98664636D01*
X139210840Y-98664636D02*
X139258459Y-98712256D01*
X139258459Y-98712256D02*
X139353697Y-98759875D01*
X139353697Y-98759875D02*
X139639411Y-98759875D01*
X139639411Y-98759875D02*
X139734649Y-98712256D01*
X139734649Y-98712256D02*
X139782268Y-98664636D01*
X141925124Y-100084104D02*
X141448934Y-100084104D01*
X142020362Y-100369819D02*
X141687029Y-99369819D01*
X141687029Y-99369819D02*
X141353696Y-100369819D01*
X141020362Y-100369819D02*
X141020362Y-99369819D01*
X141020362Y-99369819D02*
X140782267Y-99369819D01*
X140782267Y-99369819D02*
X140639410Y-99417438D01*
X140639410Y-99417438D02*
X140544172Y-99512676D01*
X140544172Y-99512676D02*
X140496553Y-99607914D01*
X140496553Y-99607914D02*
X140448934Y-99798390D01*
X140448934Y-99798390D02*
X140448934Y-99941247D01*
X140448934Y-99941247D02*
X140496553Y-100131723D01*
X140496553Y-100131723D02*
X140544172Y-100226961D01*
X140544172Y-100226961D02*
X140639410Y-100322200D01*
X140639410Y-100322200D02*
X140782267Y-100369819D01*
X140782267Y-100369819D02*
X141020362Y-100369819D01*
X139448934Y-100274580D02*
X139496553Y-100322200D01*
X139496553Y-100322200D02*
X139639410Y-100369819D01*
X139639410Y-100369819D02*
X139734648Y-100369819D01*
X139734648Y-100369819D02*
X139877505Y-100322200D01*
X139877505Y-100322200D02*
X139972743Y-100226961D01*
X139972743Y-100226961D02*
X140020362Y-100131723D01*
X140020362Y-100131723D02*
X140067981Y-99941247D01*
X140067981Y-99941247D02*
X140067981Y-99798390D01*
X140067981Y-99798390D02*
X140020362Y-99607914D01*
X140020362Y-99607914D02*
X139972743Y-99512676D01*
X139972743Y-99512676D02*
X139877505Y-99417438D01*
X139877505Y-99417438D02*
X139734648Y-99369819D01*
X139734648Y-99369819D02*
X139639410Y-99369819D01*
X139639410Y-99369819D02*
X139496553Y-99417438D01*
X139496553Y-99417438D02*
X139448934Y-99465057D01*
X132869819Y-88741541D02*
X132869819Y-89360588D01*
X132869819Y-89360588D02*
X133250771Y-89027255D01*
X133250771Y-89027255D02*
X133250771Y-89170112D01*
X133250771Y-89170112D02*
X133298390Y-89265350D01*
X133298390Y-89265350D02*
X133346009Y-89312969D01*
X133346009Y-89312969D02*
X133441247Y-89360588D01*
X133441247Y-89360588D02*
X133679342Y-89360588D01*
X133679342Y-89360588D02*
X133774580Y-89312969D01*
X133774580Y-89312969D02*
X133822200Y-89265350D01*
X133822200Y-89265350D02*
X133869819Y-89170112D01*
X133869819Y-89170112D02*
X133869819Y-88884398D01*
X133869819Y-88884398D02*
X133822200Y-88789160D01*
X133822200Y-88789160D02*
X133774580Y-88741541D01*
X133774580Y-89789160D02*
X133822200Y-89836779D01*
X133822200Y-89836779D02*
X133869819Y-89789160D01*
X133869819Y-89789160D02*
X133822200Y-89741541D01*
X133822200Y-89741541D02*
X133774580Y-89789160D01*
X133774580Y-89789160D02*
X133869819Y-89789160D01*
X132869819Y-90170112D02*
X132869819Y-90789159D01*
X132869819Y-90789159D02*
X133250771Y-90455826D01*
X133250771Y-90455826D02*
X133250771Y-90598683D01*
X133250771Y-90598683D02*
X133298390Y-90693921D01*
X133298390Y-90693921D02*
X133346009Y-90741540D01*
X133346009Y-90741540D02*
X133441247Y-90789159D01*
X133441247Y-90789159D02*
X133679342Y-90789159D01*
X133679342Y-90789159D02*
X133774580Y-90741540D01*
X133774580Y-90741540D02*
X133822200Y-90693921D01*
X133822200Y-90693921D02*
X133869819Y-90598683D01*
X133869819Y-90598683D02*
X133869819Y-90312969D01*
X133869819Y-90312969D02*
X133822200Y-90217731D01*
X133822200Y-90217731D02*
X133774580Y-90170112D01*
X132869819Y-91074874D02*
X133869819Y-91408207D01*
X133869819Y-91408207D02*
X132869819Y-91741540D01*
X157988866Y-112086779D02*
X157988866Y-112848684D01*
X158369819Y-112467731D02*
X157607914Y-112467731D01*
X157369819Y-113801064D02*
X157369819Y-113324874D01*
X157369819Y-113324874D02*
X157846009Y-113277255D01*
X157846009Y-113277255D02*
X157798390Y-113324874D01*
X157798390Y-113324874D02*
X157750771Y-113420112D01*
X157750771Y-113420112D02*
X157750771Y-113658207D01*
X157750771Y-113658207D02*
X157798390Y-113753445D01*
X157798390Y-113753445D02*
X157846009Y-113801064D01*
X157846009Y-113801064D02*
X157941247Y-113848683D01*
X157941247Y-113848683D02*
X158179342Y-113848683D01*
X158179342Y-113848683D02*
X158274580Y-113801064D01*
X158274580Y-113801064D02*
X158322200Y-113753445D01*
X158322200Y-113753445D02*
X158369819Y-113658207D01*
X158369819Y-113658207D02*
X158369819Y-113420112D01*
X158369819Y-113420112D02*
X158322200Y-113324874D01*
X158322200Y-113324874D02*
X158274580Y-113277255D01*
X157369819Y-114134398D02*
X158369819Y-114467731D01*
X158369819Y-114467731D02*
X157369819Y-114801064D01*
X157988866Y-115896303D02*
X157988866Y-116658208D01*
X157369819Y-118324874D02*
X157369819Y-118134398D01*
X157369819Y-118134398D02*
X157417438Y-118039160D01*
X157417438Y-118039160D02*
X157465057Y-117991541D01*
X157465057Y-117991541D02*
X157607914Y-117896303D01*
X157607914Y-117896303D02*
X157798390Y-117848684D01*
X157798390Y-117848684D02*
X158179342Y-117848684D01*
X158179342Y-117848684D02*
X158274580Y-117896303D01*
X158274580Y-117896303D02*
X158322200Y-117943922D01*
X158322200Y-117943922D02*
X158369819Y-118039160D01*
X158369819Y-118039160D02*
X158369819Y-118229636D01*
X158369819Y-118229636D02*
X158322200Y-118324874D01*
X158322200Y-118324874D02*
X158274580Y-118372493D01*
X158274580Y-118372493D02*
X158179342Y-118420112D01*
X158179342Y-118420112D02*
X157941247Y-118420112D01*
X157941247Y-118420112D02*
X157846009Y-118372493D01*
X157846009Y-118372493D02*
X157798390Y-118324874D01*
X157798390Y-118324874D02*
X157750771Y-118229636D01*
X157750771Y-118229636D02*
X157750771Y-118039160D01*
X157750771Y-118039160D02*
X157798390Y-117943922D01*
X157798390Y-117943922D02*
X157846009Y-117896303D01*
X157846009Y-117896303D02*
X157941247Y-117848684D01*
X157369819Y-119039160D02*
X157369819Y-119134398D01*
X157369819Y-119134398D02*
X157417438Y-119229636D01*
X157417438Y-119229636D02*
X157465057Y-119277255D01*
X157465057Y-119277255D02*
X157560295Y-119324874D01*
X157560295Y-119324874D02*
X157750771Y-119372493D01*
X157750771Y-119372493D02*
X157988866Y-119372493D01*
X157988866Y-119372493D02*
X158179342Y-119324874D01*
X158179342Y-119324874D02*
X158274580Y-119277255D01*
X158274580Y-119277255D02*
X158322200Y-119229636D01*
X158322200Y-119229636D02*
X158369819Y-119134398D01*
X158369819Y-119134398D02*
X158369819Y-119039160D01*
X158369819Y-119039160D02*
X158322200Y-118943922D01*
X158322200Y-118943922D02*
X158274580Y-118896303D01*
X158274580Y-118896303D02*
X158179342Y-118848684D01*
X158179342Y-118848684D02*
X157988866Y-118801065D01*
X157988866Y-118801065D02*
X157750771Y-118801065D01*
X157750771Y-118801065D02*
X157560295Y-118848684D01*
X157560295Y-118848684D02*
X157465057Y-118896303D01*
X157465057Y-118896303D02*
X157417438Y-118943922D01*
X157417438Y-118943922D02*
X157369819Y-119039160D01*
X157369819Y-119658208D02*
X158369819Y-119991541D01*
X158369819Y-119991541D02*
X157369819Y-120324874D01*
X96551064Y-109572200D02*
X96408207Y-109619819D01*
X96408207Y-109619819D02*
X96170112Y-109619819D01*
X96170112Y-109619819D02*
X96074874Y-109572200D01*
X96074874Y-109572200D02*
X96027255Y-109524580D01*
X96027255Y-109524580D02*
X95979636Y-109429342D01*
X95979636Y-109429342D02*
X95979636Y-109334104D01*
X95979636Y-109334104D02*
X96027255Y-109238866D01*
X96027255Y-109238866D02*
X96074874Y-109191247D01*
X96074874Y-109191247D02*
X96170112Y-109143628D01*
X96170112Y-109143628D02*
X96360588Y-109096009D01*
X96360588Y-109096009D02*
X96455826Y-109048390D01*
X96455826Y-109048390D02*
X96503445Y-109000771D01*
X96503445Y-109000771D02*
X96551064Y-108905533D01*
X96551064Y-108905533D02*
X96551064Y-108810295D01*
X96551064Y-108810295D02*
X96503445Y-108715057D01*
X96503445Y-108715057D02*
X96455826Y-108667438D01*
X96455826Y-108667438D02*
X96360588Y-108619819D01*
X96360588Y-108619819D02*
X96122493Y-108619819D01*
X96122493Y-108619819D02*
X95979636Y-108667438D01*
X95551064Y-109238866D02*
X94789160Y-109238866D01*
X93598684Y-108572200D02*
X94455826Y-109857914D01*
X93360588Y-108619819D02*
X93122493Y-109619819D01*
X93122493Y-109619819D02*
X92932017Y-108905533D01*
X92932017Y-108905533D02*
X92741541Y-109619819D01*
X92741541Y-109619819D02*
X92503446Y-108619819D01*
X92265350Y-108619819D02*
X91693922Y-108619819D01*
X91979636Y-109619819D02*
X91979636Y-108619819D01*
D11*
%TO.C,G\u002A\u002A\u002A*%
X117245077Y-94886625D02*
X117151277Y-95452590D01*
X116909697Y-95951144D01*
X116528188Y-96366403D01*
X116014596Y-96682483D01*
X116002904Y-96687746D01*
X115875819Y-96739233D01*
X115738018Y-96779005D01*
X115566842Y-96808584D01*
X115339631Y-96829491D01*
X115033727Y-96843245D01*
X114626469Y-96851369D01*
X114095200Y-96855383D01*
X113417261Y-96856807D01*
X111200925Y-96858667D01*
X110676765Y-97493667D01*
X111377181Y-97518707D01*
X112077596Y-97543746D01*
X110299596Y-98716410D01*
X109895875Y-98981492D01*
X109448521Y-99272182D01*
X109065371Y-99517785D01*
X108765619Y-99706125D01*
X108568462Y-99825026D01*
X108493094Y-99862312D01*
X108527317Y-99792435D01*
X108645857Y-99614629D01*
X108830060Y-99356555D01*
X109060880Y-99045609D01*
X109657168Y-98255667D01*
X109237549Y-98230076D01*
X109088540Y-98218100D01*
X108894059Y-98190286D01*
X108817930Y-98160395D01*
X108830164Y-98134854D01*
X108922140Y-97999903D01*
X109084553Y-97780443D01*
X109293904Y-97508653D01*
X109769879Y-96901000D01*
X109181865Y-96854313D01*
X109091897Y-96845686D01*
X108960137Y-96814409D01*
X109884804Y-96814409D01*
X109961472Y-96843901D01*
X110152686Y-96856201D01*
X110485831Y-96858667D01*
X111163976Y-96858667D01*
X111957611Y-95842667D01*
X112106438Y-95653172D01*
X112367281Y-95326420D01*
X112581728Y-95064781D01*
X112730775Y-94891248D01*
X112795421Y-94828817D01*
X112803542Y-94831699D01*
X112908953Y-94903743D01*
X113101324Y-95052757D01*
X113346068Y-95252150D01*
X113402512Y-95298824D01*
X113640171Y-95489209D01*
X113819153Y-95622883D01*
X113904315Y-95673334D01*
X113906159Y-95673095D01*
X113987973Y-95604841D01*
X114148923Y-95434998D01*
X114363604Y-95192244D01*
X114606614Y-94905262D01*
X114852551Y-94602732D01*
X115002838Y-94413566D01*
X113683757Y-93401442D01*
X112364676Y-92389319D01*
X111437970Y-92695478D01*
X111093925Y-92812702D01*
X110791469Y-92923201D01*
X110586626Y-93006778D01*
X110511263Y-93051200D01*
X110538749Y-93085369D01*
X110675963Y-93204656D01*
X110902350Y-93383769D01*
X111188596Y-93599000D01*
X111377843Y-93741048D01*
X111629362Y-93940437D01*
X111801878Y-94091109D01*
X111865930Y-94168304D01*
X111859465Y-94183337D01*
X111777996Y-94306127D01*
X111618329Y-94527758D01*
X111399785Y-94822798D01*
X111141690Y-95165817D01*
X110863366Y-95531383D01*
X110584138Y-95894065D01*
X110323328Y-96228433D01*
X110100261Y-96509055D01*
X109934259Y-96710500D01*
X109895298Y-96760370D01*
X109884804Y-96814409D01*
X108960137Y-96814409D01*
X108482594Y-96701050D01*
X107956574Y-96420759D01*
X107532210Y-96017510D01*
X107227875Y-95504000D01*
X107203101Y-95439635D01*
X107115530Y-95019536D01*
X107106366Y-94535057D01*
X107172443Y-94056937D01*
X107310595Y-93655916D01*
X107392145Y-93513658D01*
X107745961Y-93108715D01*
X108216308Y-92802902D01*
X108779187Y-92608976D01*
X109410596Y-92539694D01*
X109876263Y-92537777D01*
X110076378Y-92075476D01*
X110217268Y-91809710D01*
X110539286Y-91389859D01*
X110931271Y-91031609D01*
X111341876Y-90787229D01*
X111520909Y-90732286D01*
X111852298Y-90676258D01*
X112206572Y-90654234D01*
X112251632Y-90654456D01*
X112859586Y-90731201D01*
X113386228Y-90951199D01*
X113851763Y-91322660D01*
X113931628Y-91411937D01*
X114124052Y-91673464D01*
X114319216Y-91987294D01*
X114490991Y-92306516D01*
X114613249Y-92584222D01*
X114659863Y-92773500D01*
X114666767Y-92798732D01*
X114795640Y-92859221D01*
X115088104Y-92879334D01*
X115372369Y-92888384D01*
X115884530Y-92973013D01*
X116311365Y-93159737D01*
X116696794Y-93464535D01*
X116729643Y-93496757D01*
X116964262Y-93757973D01*
X117104056Y-94003111D01*
X117190490Y-94302560D01*
X117200865Y-94413566D01*
X117245077Y-94886625D01*
G36*
X117245077Y-94886625D02*
G01*
X117151277Y-95452590D01*
X116909697Y-95951144D01*
X116528188Y-96366403D01*
X116014596Y-96682483D01*
X116002904Y-96687746D01*
X115875819Y-96739233D01*
X115738018Y-96779005D01*
X115566842Y-96808584D01*
X115339631Y-96829491D01*
X115033727Y-96843245D01*
X114626469Y-96851369D01*
X114095200Y-96855383D01*
X113417261Y-96856807D01*
X111200925Y-96858667D01*
X110676765Y-97493667D01*
X111377181Y-97518707D01*
X112077596Y-97543746D01*
X110299596Y-98716410D01*
X109895875Y-98981492D01*
X109448521Y-99272182D01*
X109065371Y-99517785D01*
X108765619Y-99706125D01*
X108568462Y-99825026D01*
X108493094Y-99862312D01*
X108527317Y-99792435D01*
X108645857Y-99614629D01*
X108830060Y-99356555D01*
X109060880Y-99045609D01*
X109657168Y-98255667D01*
X109237549Y-98230076D01*
X109088540Y-98218100D01*
X108894059Y-98190286D01*
X108817930Y-98160395D01*
X108830164Y-98134854D01*
X108922140Y-97999903D01*
X109084553Y-97780443D01*
X109293904Y-97508653D01*
X109769879Y-96901000D01*
X109181865Y-96854313D01*
X109091897Y-96845686D01*
X108960137Y-96814409D01*
X109884804Y-96814409D01*
X109961472Y-96843901D01*
X110152686Y-96856201D01*
X110485831Y-96858667D01*
X111163976Y-96858667D01*
X111957611Y-95842667D01*
X112106438Y-95653172D01*
X112367281Y-95326420D01*
X112581728Y-95064781D01*
X112730775Y-94891248D01*
X112795421Y-94828817D01*
X112803542Y-94831699D01*
X112908953Y-94903743D01*
X113101324Y-95052757D01*
X113346068Y-95252150D01*
X113402512Y-95298824D01*
X113640171Y-95489209D01*
X113819153Y-95622883D01*
X113904315Y-95673334D01*
X113906159Y-95673095D01*
X113987973Y-95604841D01*
X114148923Y-95434998D01*
X114363604Y-95192244D01*
X114606614Y-94905262D01*
X114852551Y-94602732D01*
X115002838Y-94413566D01*
X113683757Y-93401442D01*
X112364676Y-92389319D01*
X111437970Y-92695478D01*
X111093925Y-92812702D01*
X110791469Y-92923201D01*
X110586626Y-93006778D01*
X110511263Y-93051200D01*
X110538749Y-93085369D01*
X110675963Y-93204656D01*
X110902350Y-93383769D01*
X111188596Y-93599000D01*
X111377843Y-93741048D01*
X111629362Y-93940437D01*
X111801878Y-94091109D01*
X111865930Y-94168304D01*
X111859465Y-94183337D01*
X111777996Y-94306127D01*
X111618329Y-94527758D01*
X111399785Y-94822798D01*
X111141690Y-95165817D01*
X110863366Y-95531383D01*
X110584138Y-95894065D01*
X110323328Y-96228433D01*
X110100261Y-96509055D01*
X109934259Y-96710500D01*
X109895298Y-96760370D01*
X109884804Y-96814409D01*
X108960137Y-96814409D01*
X108482594Y-96701050D01*
X107956574Y-96420759D01*
X107532210Y-96017510D01*
X107227875Y-95504000D01*
X107203101Y-95439635D01*
X107115530Y-95019536D01*
X107106366Y-94535057D01*
X107172443Y-94056937D01*
X107310595Y-93655916D01*
X107392145Y-93513658D01*
X107745961Y-93108715D01*
X108216308Y-92802902D01*
X108779187Y-92608976D01*
X109410596Y-92539694D01*
X109876263Y-92537777D01*
X110076378Y-92075476D01*
X110217268Y-91809710D01*
X110539286Y-91389859D01*
X110931271Y-91031609D01*
X111341876Y-90787229D01*
X111520909Y-90732286D01*
X111852298Y-90676258D01*
X112206572Y-90654234D01*
X112251632Y-90654456D01*
X112859586Y-90731201D01*
X113386228Y-90951199D01*
X113851763Y-91322660D01*
X113931628Y-91411937D01*
X114124052Y-91673464D01*
X114319216Y-91987294D01*
X114490991Y-92306516D01*
X114613249Y-92584222D01*
X114659863Y-92773500D01*
X114666767Y-92798732D01*
X114795640Y-92859221D01*
X115088104Y-92879334D01*
X115372369Y-92888384D01*
X115884530Y-92973013D01*
X116311365Y-93159737D01*
X116696794Y-93464535D01*
X116729643Y-93496757D01*
X116964262Y-93757973D01*
X117104056Y-94003111D01*
X117190490Y-94302560D01*
X117200865Y-94413566D01*
X117245077Y-94886625D01*
G37*
%TD*%
M02*
