%TF.GenerationSoftware,KiCad,Pcbnew,8.0.3-8.0.3-0~ubuntu22.04.1*%
%TF.CreationDate,2024-07-18T21:32:15-04:00*%
%TF.ProjectId,esp32_sensor_board,65737033-325f-4736-956e-736f725f626f,rev?*%
%TF.SameCoordinates,Original*%
%TF.FileFunction,Soldermask,Top*%
%TF.FilePolarity,Negative*%
%FSLAX46Y46*%
G04 Gerber Fmt 4.6, Leading zero omitted, Abs format (unit mm)*
G04 Created by KiCad (PCBNEW 8.0.3-8.0.3-0~ubuntu22.04.1) date 2024-07-18 21:32:15*
%MOMM*%
%LPD*%
G01*
G04 APERTURE LIST*
G04 Aperture macros list*
%AMRoundRect*
0 Rectangle with rounded corners*
0 $1 Rounding radius*
0 $2 $3 $4 $5 $6 $7 $8 $9 X,Y pos of 4 corners*
0 Add a 4 corners polygon primitive as box body*
4,1,4,$2,$3,$4,$5,$6,$7,$8,$9,$2,$3,0*
0 Add four circle primitives for the rounded corners*
1,1,$1+$1,$2,$3*
1,1,$1+$1,$4,$5*
1,1,$1+$1,$6,$7*
1,1,$1+$1,$8,$9*
0 Add four rect primitives between the rounded corners*
20,1,$1+$1,$2,$3,$4,$5,0*
20,1,$1+$1,$4,$5,$6,$7,0*
20,1,$1+$1,$6,$7,$8,$9,0*
20,1,$1+$1,$8,$9,$2,$3,0*%
%AMFreePoly0*
4,1,19,0.500000,-0.750000,0.000000,-0.750000,0.000000,-0.744911,-0.071157,-0.744911,-0.207708,-0.704816,-0.327430,-0.627875,-0.420627,-0.520320,-0.479746,-0.390866,-0.500000,-0.250000,-0.500000,0.250000,-0.479746,0.390866,-0.420627,0.520320,-0.327430,0.627875,-0.207708,0.704816,-0.071157,0.744911,0.000000,0.744911,0.000000,0.750000,0.500000,0.750000,0.500000,-0.750000,0.500000,-0.750000,
$1*%
%AMFreePoly1*
4,1,19,0.000000,0.744911,0.071157,0.744911,0.207708,0.704816,0.327430,0.627875,0.420627,0.520320,0.479746,0.390866,0.500000,0.250000,0.500000,-0.250000,0.479746,-0.390866,0.420627,-0.520320,0.327430,-0.627875,0.207708,-0.704816,0.071157,-0.744911,0.000000,-0.744911,0.000000,-0.750000,-0.500000,-0.750000,-0.500000,0.750000,0.000000,0.750000,0.000000,0.744911,0.000000,0.744911,
$1*%
G04 Aperture macros list end*
%ADD10C,0.010000*%
%ADD11RoundRect,0.225000X0.225000X0.375000X-0.225000X0.375000X-0.225000X-0.375000X0.225000X-0.375000X0*%
%ADD12RoundRect,0.050000X-0.100000X-0.237500X0.100000X-0.237500X0.100000X0.237500X-0.100000X0.237500X0*%
%ADD13RoundRect,0.200000X-0.200000X-0.275000X0.200000X-0.275000X0.200000X0.275000X-0.200000X0.275000X0*%
%ADD14RoundRect,0.200000X0.200000X0.275000X-0.200000X0.275000X-0.200000X-0.275000X0.200000X-0.275000X0*%
%ADD15RoundRect,0.200000X-0.275000X0.200000X-0.275000X-0.200000X0.275000X-0.200000X0.275000X0.200000X0*%
%ADD16RoundRect,0.200000X0.275000X-0.200000X0.275000X0.200000X-0.275000X0.200000X-0.275000X-0.200000X0*%
%ADD17FreePoly0,0.000000*%
%ADD18FreePoly1,0.000000*%
%ADD19RoundRect,0.225000X-0.250000X0.225000X-0.250000X-0.225000X0.250000X-0.225000X0.250000X0.225000X0*%
%ADD20RoundRect,0.249999X-0.790001X-1.550001X0.790001X-1.550001X0.790001X1.550001X-0.790001X1.550001X0*%
%ADD21O,2.080000X3.600000*%
%ADD22RoundRect,0.225000X0.250000X-0.225000X0.250000X0.225000X-0.250000X0.225000X-0.250000X-0.225000X0*%
%ADD23R,1.700000X1.700000*%
%ADD24O,1.700000X1.700000*%
%ADD25RoundRect,0.249999X1.550001X-0.790001X1.550001X0.790001X-1.550001X0.790001X-1.550001X-0.790001X0*%
%ADD26O,3.600000X2.080000*%
%ADD27RoundRect,0.250000X0.650000X-0.325000X0.650000X0.325000X-0.650000X0.325000X-0.650000X-0.325000X0*%
%ADD28RoundRect,0.062500X-0.375000X-0.062500X0.375000X-0.062500X0.375000X0.062500X-0.375000X0.062500X0*%
%ADD29RoundRect,0.062500X-0.062500X-0.375000X0.062500X-0.375000X0.062500X0.375000X-0.062500X0.375000X0*%
%ADD30R,3.450000X3.450000*%
%ADD31RoundRect,0.250000X-0.362500X-1.425000X0.362500X-1.425000X0.362500X1.425000X-0.362500X1.425000X0*%
%ADD32RoundRect,0.250000X-0.475000X0.250000X-0.475000X-0.250000X0.475000X-0.250000X0.475000X0.250000X0*%
%ADD33RoundRect,0.225000X-0.225000X-0.250000X0.225000X-0.250000X0.225000X0.250000X-0.225000X0.250000X0*%
%ADD34RoundRect,0.097500X-0.272500X-0.097500X0.272500X-0.097500X0.272500X0.097500X-0.272500X0.097500X0*%
%ADD35RoundRect,0.062500X-0.237500X-0.062500X0.237500X-0.062500X0.237500X0.062500X-0.237500X0.062500X0*%
%ADD36RoundRect,0.062500X0.062500X-0.237500X0.062500X0.237500X-0.062500X0.237500X-0.062500X-0.237500X0*%
%ADD37RoundRect,0.097500X0.097500X0.885000X-0.097500X0.885000X-0.097500X-0.885000X0.097500X-0.885000X0*%
%ADD38RoundRect,0.225000X0.225000X0.250000X-0.225000X0.250000X-0.225000X-0.250000X0.225000X-0.250000X0*%
%ADD39RoundRect,0.250000X0.475000X-0.250000X0.475000X0.250000X-0.475000X0.250000X-0.475000X-0.250000X0*%
%ADD40R,1.000000X1.000000*%
%ADD41R,2.200000X1.050000*%
%ADD42RoundRect,0.147500X-0.147500X-0.172500X0.147500X-0.172500X0.147500X0.172500X-0.147500X0.172500X0*%
%ADD43C,5.600000*%
%ADD44RoundRect,0.150000X-0.825000X-0.150000X0.825000X-0.150000X0.825000X0.150000X-0.825000X0.150000X0*%
%ADD45C,0.750000*%
%ADD46R,1.200000X1.000000*%
%ADD47R,0.900000X0.800000*%
%ADD48RoundRect,0.250000X0.250000X0.475000X-0.250000X0.475000X-0.250000X-0.475000X0.250000X-0.475000X0*%
%ADD49C,1.640000*%
%ADD50RoundRect,0.185000X0.635000X-0.185000X0.635000X0.185000X-0.635000X0.185000X-0.635000X-0.185000X0*%
%ADD51R,3.700000X1.200000*%
%ADD52RoundRect,0.250000X-0.250000X-0.475000X0.250000X-0.475000X0.250000X0.475000X-0.250000X0.475000X0*%
%ADD53R,1.800000X1.000000*%
%ADD54RoundRect,0.250000X1.425000X-0.362500X1.425000X0.362500X-1.425000X0.362500X-1.425000X-0.362500X0*%
%ADD55O,4.000000X2.000000*%
%ADD56RoundRect,0.250000X-0.650000X0.325000X-0.650000X-0.325000X0.650000X-0.325000X0.650000X0.325000X0*%
%ADD57RoundRect,0.218750X0.218750X0.256250X-0.218750X0.256250X-0.218750X-0.256250X0.218750X-0.256250X0*%
%ADD58R,0.500000X0.300000*%
%ADD59RoundRect,0.150000X-0.150000X0.512500X-0.150000X-0.512500X0.150000X-0.512500X0.150000X0.512500X0*%
%ADD60RoundRect,0.243750X-0.243750X-0.456250X0.243750X-0.456250X0.243750X0.456250X-0.243750X0.456250X0*%
%ADD61RoundRect,0.075000X-0.075000X0.650000X-0.075000X-0.650000X0.075000X-0.650000X0.075000X0.650000X0*%
%ADD62RoundRect,0.075000X-0.650000X-0.075000X0.650000X-0.075000X0.650000X0.075000X-0.650000X0.075000X0*%
%ADD63RoundRect,0.102000X0.300000X0.550000X-0.300000X0.550000X-0.300000X-0.550000X0.300000X-0.550000X0*%
%ADD64RoundRect,0.102000X0.150000X0.550000X-0.150000X0.550000X-0.150000X-0.550000X0.150000X-0.550000X0*%
G04 APERTURE END LIST*
D10*
%TO.C,J301*%
X119531000Y-74601000D02*
X119563000Y-74603000D01*
X119594000Y-74607000D01*
X119625000Y-74613000D01*
X119655000Y-74620000D01*
X119685000Y-74629000D01*
X119715000Y-74640000D01*
X119744000Y-74652000D01*
X119772000Y-74665000D01*
X119800000Y-74680000D01*
X119827000Y-74697000D01*
X119853000Y-74715000D01*
X119878000Y-74734000D01*
X119901000Y-74754000D01*
X119924000Y-74776000D01*
X119946000Y-74799000D01*
X119966000Y-74822000D01*
X119985000Y-74847000D01*
X120003000Y-74873000D01*
X120020000Y-74900000D01*
X120035000Y-74928000D01*
X120048000Y-74956000D01*
X120060000Y-74985000D01*
X120071000Y-75015000D01*
X120080000Y-75045000D01*
X120087000Y-75075000D01*
X120093000Y-75106000D01*
X120097000Y-75137000D01*
X120099000Y-75169000D01*
X120100000Y-75200000D01*
X120100000Y-76000000D01*
X120099000Y-76031000D01*
X120097000Y-76063000D01*
X120093000Y-76094000D01*
X120087000Y-76125000D01*
X120080000Y-76155000D01*
X120071000Y-76185000D01*
X120060000Y-76215000D01*
X120048000Y-76244000D01*
X120035000Y-76272000D01*
X120020000Y-76300000D01*
X120003000Y-76327000D01*
X119985000Y-76353000D01*
X119966000Y-76378000D01*
X119946000Y-76401000D01*
X119924000Y-76424000D01*
X119901000Y-76446000D01*
X119878000Y-76466000D01*
X119853000Y-76485000D01*
X119827000Y-76503000D01*
X119800000Y-76520000D01*
X119772000Y-76535000D01*
X119744000Y-76548000D01*
X119715000Y-76560000D01*
X119685000Y-76571000D01*
X119655000Y-76580000D01*
X119625000Y-76587000D01*
X119594000Y-76593000D01*
X119563000Y-76597000D01*
X119531000Y-76599000D01*
X119500000Y-76600000D01*
X119469000Y-76599000D01*
X119437000Y-76597000D01*
X119406000Y-76593000D01*
X119375000Y-76587000D01*
X119345000Y-76580000D01*
X119315000Y-76571000D01*
X119285000Y-76560000D01*
X119256000Y-76548000D01*
X119228000Y-76535000D01*
X119200000Y-76520000D01*
X119173000Y-76503000D01*
X119147000Y-76485000D01*
X119122000Y-76466000D01*
X119099000Y-76446000D01*
X119076000Y-76424000D01*
X119054000Y-76401000D01*
X119034000Y-76378000D01*
X119015000Y-76353000D01*
X118997000Y-76327000D01*
X118980000Y-76300000D01*
X118965000Y-76272000D01*
X118952000Y-76244000D01*
X118940000Y-76215000D01*
X118929000Y-76185000D01*
X118920000Y-76155000D01*
X118913000Y-76125000D01*
X118907000Y-76094000D01*
X118903000Y-76063000D01*
X118901000Y-76031000D01*
X118900000Y-76000000D01*
X118900000Y-75200000D01*
X118901000Y-75169000D01*
X118903000Y-75137000D01*
X118907000Y-75106000D01*
X118913000Y-75075000D01*
X118920000Y-75045000D01*
X118929000Y-75015000D01*
X118940000Y-74985000D01*
X118952000Y-74956000D01*
X118965000Y-74928000D01*
X118980000Y-74900000D01*
X118997000Y-74873000D01*
X119015000Y-74847000D01*
X119034000Y-74822000D01*
X119054000Y-74799000D01*
X119076000Y-74776000D01*
X119099000Y-74754000D01*
X119122000Y-74734000D01*
X119147000Y-74715000D01*
X119173000Y-74697000D01*
X119200000Y-74680000D01*
X119228000Y-74665000D01*
X119256000Y-74652000D01*
X119285000Y-74640000D01*
X119315000Y-74629000D01*
X119345000Y-74620000D01*
X119375000Y-74613000D01*
X119406000Y-74607000D01*
X119437000Y-74603000D01*
X119469000Y-74601000D01*
X119500000Y-74600000D01*
X119531000Y-74601000D01*
G36*
X119531000Y-74601000D02*
G01*
X119563000Y-74603000D01*
X119594000Y-74607000D01*
X119625000Y-74613000D01*
X119655000Y-74620000D01*
X119685000Y-74629000D01*
X119715000Y-74640000D01*
X119744000Y-74652000D01*
X119772000Y-74665000D01*
X119800000Y-74680000D01*
X119827000Y-74697000D01*
X119853000Y-74715000D01*
X119878000Y-74734000D01*
X119901000Y-74754000D01*
X119924000Y-74776000D01*
X119946000Y-74799000D01*
X119966000Y-74822000D01*
X119985000Y-74847000D01*
X120003000Y-74873000D01*
X120020000Y-74900000D01*
X120035000Y-74928000D01*
X120048000Y-74956000D01*
X120060000Y-74985000D01*
X120071000Y-75015000D01*
X120080000Y-75045000D01*
X120087000Y-75075000D01*
X120093000Y-75106000D01*
X120097000Y-75137000D01*
X120099000Y-75169000D01*
X120100000Y-75200000D01*
X120100000Y-76000000D01*
X120099000Y-76031000D01*
X120097000Y-76063000D01*
X120093000Y-76094000D01*
X120087000Y-76125000D01*
X120080000Y-76155000D01*
X120071000Y-76185000D01*
X120060000Y-76215000D01*
X120048000Y-76244000D01*
X120035000Y-76272000D01*
X120020000Y-76300000D01*
X120003000Y-76327000D01*
X119985000Y-76353000D01*
X119966000Y-76378000D01*
X119946000Y-76401000D01*
X119924000Y-76424000D01*
X119901000Y-76446000D01*
X119878000Y-76466000D01*
X119853000Y-76485000D01*
X119827000Y-76503000D01*
X119800000Y-76520000D01*
X119772000Y-76535000D01*
X119744000Y-76548000D01*
X119715000Y-76560000D01*
X119685000Y-76571000D01*
X119655000Y-76580000D01*
X119625000Y-76587000D01*
X119594000Y-76593000D01*
X119563000Y-76597000D01*
X119531000Y-76599000D01*
X119500000Y-76600000D01*
X119469000Y-76599000D01*
X119437000Y-76597000D01*
X119406000Y-76593000D01*
X119375000Y-76587000D01*
X119345000Y-76580000D01*
X119315000Y-76571000D01*
X119285000Y-76560000D01*
X119256000Y-76548000D01*
X119228000Y-76535000D01*
X119200000Y-76520000D01*
X119173000Y-76503000D01*
X119147000Y-76485000D01*
X119122000Y-76466000D01*
X119099000Y-76446000D01*
X119076000Y-76424000D01*
X119054000Y-76401000D01*
X119034000Y-76378000D01*
X119015000Y-76353000D01*
X118997000Y-76327000D01*
X118980000Y-76300000D01*
X118965000Y-76272000D01*
X118952000Y-76244000D01*
X118940000Y-76215000D01*
X118929000Y-76185000D01*
X118920000Y-76155000D01*
X118913000Y-76125000D01*
X118907000Y-76094000D01*
X118903000Y-76063000D01*
X118901000Y-76031000D01*
X118900000Y-76000000D01*
X118900000Y-75200000D01*
X118901000Y-75169000D01*
X118903000Y-75137000D01*
X118907000Y-75106000D01*
X118913000Y-75075000D01*
X118920000Y-75045000D01*
X118929000Y-75015000D01*
X118940000Y-74985000D01*
X118952000Y-74956000D01*
X118965000Y-74928000D01*
X118980000Y-74900000D01*
X118997000Y-74873000D01*
X119015000Y-74847000D01*
X119034000Y-74822000D01*
X119054000Y-74799000D01*
X119076000Y-74776000D01*
X119099000Y-74754000D01*
X119122000Y-74734000D01*
X119147000Y-74715000D01*
X119173000Y-74697000D01*
X119200000Y-74680000D01*
X119228000Y-74665000D01*
X119256000Y-74652000D01*
X119285000Y-74640000D01*
X119315000Y-74629000D01*
X119345000Y-74620000D01*
X119375000Y-74613000D01*
X119406000Y-74607000D01*
X119437000Y-74603000D01*
X119469000Y-74601000D01*
X119500000Y-74600000D01*
X119531000Y-74601000D01*
G37*
X130771000Y-74601000D02*
X130803000Y-74603000D01*
X130834000Y-74607000D01*
X130865000Y-74613000D01*
X130895000Y-74620000D01*
X130925000Y-74629000D01*
X130955000Y-74640000D01*
X130984000Y-74652000D01*
X131012000Y-74665000D01*
X131040000Y-74680000D01*
X131067000Y-74697000D01*
X131093000Y-74715000D01*
X131118000Y-74734000D01*
X131141000Y-74754000D01*
X131164000Y-74776000D01*
X131186000Y-74799000D01*
X131206000Y-74822000D01*
X131225000Y-74847000D01*
X131243000Y-74873000D01*
X131260000Y-74900000D01*
X131275000Y-74928000D01*
X131288000Y-74956000D01*
X131300000Y-74985000D01*
X131311000Y-75015000D01*
X131320000Y-75045000D01*
X131327000Y-75075000D01*
X131333000Y-75106000D01*
X131337000Y-75137000D01*
X131339000Y-75169000D01*
X131340000Y-75200000D01*
X131340000Y-76000000D01*
X131339000Y-76031000D01*
X131337000Y-76063000D01*
X131333000Y-76094000D01*
X131327000Y-76125000D01*
X131320000Y-76155000D01*
X131311000Y-76185000D01*
X131300000Y-76215000D01*
X131288000Y-76244000D01*
X131275000Y-76272000D01*
X131260000Y-76300000D01*
X131243000Y-76327000D01*
X131225000Y-76353000D01*
X131206000Y-76378000D01*
X131186000Y-76401000D01*
X131164000Y-76424000D01*
X131141000Y-76446000D01*
X131118000Y-76466000D01*
X131093000Y-76485000D01*
X131067000Y-76503000D01*
X131040000Y-76520000D01*
X131012000Y-76535000D01*
X130984000Y-76548000D01*
X130955000Y-76560000D01*
X130925000Y-76571000D01*
X130895000Y-76580000D01*
X130865000Y-76587000D01*
X130834000Y-76593000D01*
X130803000Y-76597000D01*
X130771000Y-76599000D01*
X130740000Y-76600000D01*
X130709000Y-76599000D01*
X130677000Y-76597000D01*
X130646000Y-76593000D01*
X130615000Y-76587000D01*
X130585000Y-76580000D01*
X130555000Y-76571000D01*
X130525000Y-76560000D01*
X130496000Y-76548000D01*
X130468000Y-76535000D01*
X130440000Y-76520000D01*
X130413000Y-76503000D01*
X130387000Y-76485000D01*
X130362000Y-76466000D01*
X130339000Y-76446000D01*
X130316000Y-76424000D01*
X130294000Y-76401000D01*
X130274000Y-76378000D01*
X130255000Y-76353000D01*
X130237000Y-76327000D01*
X130220000Y-76300000D01*
X130205000Y-76272000D01*
X130192000Y-76244000D01*
X130180000Y-76215000D01*
X130169000Y-76185000D01*
X130160000Y-76155000D01*
X130153000Y-76125000D01*
X130147000Y-76094000D01*
X130143000Y-76063000D01*
X130141000Y-76031000D01*
X130140000Y-76000000D01*
X130140000Y-75200000D01*
X130141000Y-75169000D01*
X130143000Y-75137000D01*
X130147000Y-75106000D01*
X130153000Y-75075000D01*
X130160000Y-75045000D01*
X130169000Y-75015000D01*
X130180000Y-74985000D01*
X130192000Y-74956000D01*
X130205000Y-74928000D01*
X130220000Y-74900000D01*
X130237000Y-74873000D01*
X130255000Y-74847000D01*
X130274000Y-74822000D01*
X130294000Y-74799000D01*
X130316000Y-74776000D01*
X130339000Y-74754000D01*
X130362000Y-74734000D01*
X130387000Y-74715000D01*
X130413000Y-74697000D01*
X130440000Y-74680000D01*
X130468000Y-74665000D01*
X130496000Y-74652000D01*
X130525000Y-74640000D01*
X130555000Y-74629000D01*
X130585000Y-74620000D01*
X130615000Y-74613000D01*
X130646000Y-74607000D01*
X130677000Y-74603000D01*
X130709000Y-74601000D01*
X130740000Y-74600000D01*
X130771000Y-74601000D01*
G36*
X130771000Y-74601000D02*
G01*
X130803000Y-74603000D01*
X130834000Y-74607000D01*
X130865000Y-74613000D01*
X130895000Y-74620000D01*
X130925000Y-74629000D01*
X130955000Y-74640000D01*
X130984000Y-74652000D01*
X131012000Y-74665000D01*
X131040000Y-74680000D01*
X131067000Y-74697000D01*
X131093000Y-74715000D01*
X131118000Y-74734000D01*
X131141000Y-74754000D01*
X131164000Y-74776000D01*
X131186000Y-74799000D01*
X131206000Y-74822000D01*
X131225000Y-74847000D01*
X131243000Y-74873000D01*
X131260000Y-74900000D01*
X131275000Y-74928000D01*
X131288000Y-74956000D01*
X131300000Y-74985000D01*
X131311000Y-75015000D01*
X131320000Y-75045000D01*
X131327000Y-75075000D01*
X131333000Y-75106000D01*
X131337000Y-75137000D01*
X131339000Y-75169000D01*
X131340000Y-75200000D01*
X131340000Y-76000000D01*
X131339000Y-76031000D01*
X131337000Y-76063000D01*
X131333000Y-76094000D01*
X131327000Y-76125000D01*
X131320000Y-76155000D01*
X131311000Y-76185000D01*
X131300000Y-76215000D01*
X131288000Y-76244000D01*
X131275000Y-76272000D01*
X131260000Y-76300000D01*
X131243000Y-76327000D01*
X131225000Y-76353000D01*
X131206000Y-76378000D01*
X131186000Y-76401000D01*
X131164000Y-76424000D01*
X131141000Y-76446000D01*
X131118000Y-76466000D01*
X131093000Y-76485000D01*
X131067000Y-76503000D01*
X131040000Y-76520000D01*
X131012000Y-76535000D01*
X130984000Y-76548000D01*
X130955000Y-76560000D01*
X130925000Y-76571000D01*
X130895000Y-76580000D01*
X130865000Y-76587000D01*
X130834000Y-76593000D01*
X130803000Y-76597000D01*
X130771000Y-76599000D01*
X130740000Y-76600000D01*
X130709000Y-76599000D01*
X130677000Y-76597000D01*
X130646000Y-76593000D01*
X130615000Y-76587000D01*
X130585000Y-76580000D01*
X130555000Y-76571000D01*
X130525000Y-76560000D01*
X130496000Y-76548000D01*
X130468000Y-76535000D01*
X130440000Y-76520000D01*
X130413000Y-76503000D01*
X130387000Y-76485000D01*
X130362000Y-76466000D01*
X130339000Y-76446000D01*
X130316000Y-76424000D01*
X130294000Y-76401000D01*
X130274000Y-76378000D01*
X130255000Y-76353000D01*
X130237000Y-76327000D01*
X130220000Y-76300000D01*
X130205000Y-76272000D01*
X130192000Y-76244000D01*
X130180000Y-76215000D01*
X130169000Y-76185000D01*
X130160000Y-76155000D01*
X130153000Y-76125000D01*
X130147000Y-76094000D01*
X130143000Y-76063000D01*
X130141000Y-76031000D01*
X130140000Y-76000000D01*
X130140000Y-75200000D01*
X130141000Y-75169000D01*
X130143000Y-75137000D01*
X130147000Y-75106000D01*
X130153000Y-75075000D01*
X130160000Y-75045000D01*
X130169000Y-75015000D01*
X130180000Y-74985000D01*
X130192000Y-74956000D01*
X130205000Y-74928000D01*
X130220000Y-74900000D01*
X130237000Y-74873000D01*
X130255000Y-74847000D01*
X130274000Y-74822000D01*
X130294000Y-74799000D01*
X130316000Y-74776000D01*
X130339000Y-74754000D01*
X130362000Y-74734000D01*
X130387000Y-74715000D01*
X130413000Y-74697000D01*
X130440000Y-74680000D01*
X130468000Y-74665000D01*
X130496000Y-74652000D01*
X130525000Y-74640000D01*
X130555000Y-74629000D01*
X130585000Y-74620000D01*
X130615000Y-74613000D01*
X130646000Y-74607000D01*
X130677000Y-74603000D01*
X130709000Y-74601000D01*
X130740000Y-74600000D01*
X130771000Y-74601000D01*
G37*
X130771000Y-70401000D02*
X130803000Y-70403000D01*
X130834000Y-70407000D01*
X130865000Y-70413000D01*
X130895000Y-70420000D01*
X130925000Y-70429000D01*
X130955000Y-70440000D01*
X130984000Y-70452000D01*
X131012000Y-70465000D01*
X131040000Y-70480000D01*
X131067000Y-70497000D01*
X131093000Y-70515000D01*
X131118000Y-70534000D01*
X131141000Y-70554000D01*
X131164000Y-70576000D01*
X131186000Y-70599000D01*
X131206000Y-70622000D01*
X131225000Y-70647000D01*
X131243000Y-70673000D01*
X131260000Y-70700000D01*
X131275000Y-70728000D01*
X131288000Y-70756000D01*
X131300000Y-70785000D01*
X131311000Y-70815000D01*
X131320000Y-70845000D01*
X131327000Y-70875000D01*
X131333000Y-70906000D01*
X131337000Y-70937000D01*
X131339000Y-70969000D01*
X131340000Y-71000000D01*
X131340000Y-72200000D01*
X131339000Y-72231000D01*
X131337000Y-72263000D01*
X131333000Y-72294000D01*
X131327000Y-72325000D01*
X131320000Y-72355000D01*
X131311000Y-72385000D01*
X131300000Y-72415000D01*
X131288000Y-72444000D01*
X131275000Y-72472000D01*
X131260000Y-72500000D01*
X131243000Y-72527000D01*
X131225000Y-72553000D01*
X131206000Y-72578000D01*
X131186000Y-72601000D01*
X131164000Y-72624000D01*
X131141000Y-72646000D01*
X131118000Y-72666000D01*
X131093000Y-72685000D01*
X131067000Y-72703000D01*
X131040000Y-72720000D01*
X131012000Y-72735000D01*
X130984000Y-72748000D01*
X130955000Y-72760000D01*
X130925000Y-72771000D01*
X130895000Y-72780000D01*
X130865000Y-72787000D01*
X130834000Y-72793000D01*
X130803000Y-72797000D01*
X130771000Y-72799000D01*
X130740000Y-72800000D01*
X130709000Y-72799000D01*
X130677000Y-72797000D01*
X130646000Y-72793000D01*
X130615000Y-72787000D01*
X130585000Y-72780000D01*
X130555000Y-72771000D01*
X130525000Y-72760000D01*
X130496000Y-72748000D01*
X130468000Y-72735000D01*
X130440000Y-72720000D01*
X130413000Y-72703000D01*
X130387000Y-72685000D01*
X130362000Y-72666000D01*
X130339000Y-72646000D01*
X130316000Y-72624000D01*
X130294000Y-72601000D01*
X130274000Y-72578000D01*
X130255000Y-72553000D01*
X130237000Y-72527000D01*
X130220000Y-72500000D01*
X130205000Y-72472000D01*
X130192000Y-72444000D01*
X130180000Y-72415000D01*
X130169000Y-72385000D01*
X130160000Y-72355000D01*
X130153000Y-72325000D01*
X130147000Y-72294000D01*
X130143000Y-72263000D01*
X130141000Y-72231000D01*
X130140000Y-72200000D01*
X130140000Y-71000000D01*
X130141000Y-70969000D01*
X130143000Y-70937000D01*
X130147000Y-70906000D01*
X130153000Y-70875000D01*
X130160000Y-70845000D01*
X130169000Y-70815000D01*
X130180000Y-70785000D01*
X130192000Y-70756000D01*
X130205000Y-70728000D01*
X130220000Y-70700000D01*
X130237000Y-70673000D01*
X130255000Y-70647000D01*
X130274000Y-70622000D01*
X130294000Y-70599000D01*
X130316000Y-70576000D01*
X130339000Y-70554000D01*
X130362000Y-70534000D01*
X130387000Y-70515000D01*
X130413000Y-70497000D01*
X130440000Y-70480000D01*
X130468000Y-70465000D01*
X130496000Y-70452000D01*
X130525000Y-70440000D01*
X130555000Y-70429000D01*
X130585000Y-70420000D01*
X130615000Y-70413000D01*
X130646000Y-70407000D01*
X130677000Y-70403000D01*
X130709000Y-70401000D01*
X130740000Y-70400000D01*
X130771000Y-70401000D01*
G36*
X130771000Y-70401000D02*
G01*
X130803000Y-70403000D01*
X130834000Y-70407000D01*
X130865000Y-70413000D01*
X130895000Y-70420000D01*
X130925000Y-70429000D01*
X130955000Y-70440000D01*
X130984000Y-70452000D01*
X131012000Y-70465000D01*
X131040000Y-70480000D01*
X131067000Y-70497000D01*
X131093000Y-70515000D01*
X131118000Y-70534000D01*
X131141000Y-70554000D01*
X131164000Y-70576000D01*
X131186000Y-70599000D01*
X131206000Y-70622000D01*
X131225000Y-70647000D01*
X131243000Y-70673000D01*
X131260000Y-70700000D01*
X131275000Y-70728000D01*
X131288000Y-70756000D01*
X131300000Y-70785000D01*
X131311000Y-70815000D01*
X131320000Y-70845000D01*
X131327000Y-70875000D01*
X131333000Y-70906000D01*
X131337000Y-70937000D01*
X131339000Y-70969000D01*
X131340000Y-71000000D01*
X131340000Y-72200000D01*
X131339000Y-72231000D01*
X131337000Y-72263000D01*
X131333000Y-72294000D01*
X131327000Y-72325000D01*
X131320000Y-72355000D01*
X131311000Y-72385000D01*
X131300000Y-72415000D01*
X131288000Y-72444000D01*
X131275000Y-72472000D01*
X131260000Y-72500000D01*
X131243000Y-72527000D01*
X131225000Y-72553000D01*
X131206000Y-72578000D01*
X131186000Y-72601000D01*
X131164000Y-72624000D01*
X131141000Y-72646000D01*
X131118000Y-72666000D01*
X131093000Y-72685000D01*
X131067000Y-72703000D01*
X131040000Y-72720000D01*
X131012000Y-72735000D01*
X130984000Y-72748000D01*
X130955000Y-72760000D01*
X130925000Y-72771000D01*
X130895000Y-72780000D01*
X130865000Y-72787000D01*
X130834000Y-72793000D01*
X130803000Y-72797000D01*
X130771000Y-72799000D01*
X130740000Y-72800000D01*
X130709000Y-72799000D01*
X130677000Y-72797000D01*
X130646000Y-72793000D01*
X130615000Y-72787000D01*
X130585000Y-72780000D01*
X130555000Y-72771000D01*
X130525000Y-72760000D01*
X130496000Y-72748000D01*
X130468000Y-72735000D01*
X130440000Y-72720000D01*
X130413000Y-72703000D01*
X130387000Y-72685000D01*
X130362000Y-72666000D01*
X130339000Y-72646000D01*
X130316000Y-72624000D01*
X130294000Y-72601000D01*
X130274000Y-72578000D01*
X130255000Y-72553000D01*
X130237000Y-72527000D01*
X130220000Y-72500000D01*
X130205000Y-72472000D01*
X130192000Y-72444000D01*
X130180000Y-72415000D01*
X130169000Y-72385000D01*
X130160000Y-72355000D01*
X130153000Y-72325000D01*
X130147000Y-72294000D01*
X130143000Y-72263000D01*
X130141000Y-72231000D01*
X130140000Y-72200000D01*
X130140000Y-71000000D01*
X130141000Y-70969000D01*
X130143000Y-70937000D01*
X130147000Y-70906000D01*
X130153000Y-70875000D01*
X130160000Y-70845000D01*
X130169000Y-70815000D01*
X130180000Y-70785000D01*
X130192000Y-70756000D01*
X130205000Y-70728000D01*
X130220000Y-70700000D01*
X130237000Y-70673000D01*
X130255000Y-70647000D01*
X130274000Y-70622000D01*
X130294000Y-70599000D01*
X130316000Y-70576000D01*
X130339000Y-70554000D01*
X130362000Y-70534000D01*
X130387000Y-70515000D01*
X130413000Y-70497000D01*
X130440000Y-70480000D01*
X130468000Y-70465000D01*
X130496000Y-70452000D01*
X130525000Y-70440000D01*
X130555000Y-70429000D01*
X130585000Y-70420000D01*
X130615000Y-70413000D01*
X130646000Y-70407000D01*
X130677000Y-70403000D01*
X130709000Y-70401000D01*
X130740000Y-70400000D01*
X130771000Y-70401000D01*
G37*
X119531000Y-70401000D02*
X119563000Y-70403000D01*
X119594000Y-70407000D01*
X119625000Y-70413000D01*
X119655000Y-70420000D01*
X119685000Y-70429000D01*
X119715000Y-70440000D01*
X119744000Y-70452000D01*
X119772000Y-70465000D01*
X119800000Y-70480000D01*
X119827000Y-70497000D01*
X119853000Y-70515000D01*
X119878000Y-70534000D01*
X119901000Y-70554000D01*
X119924000Y-70576000D01*
X119946000Y-70599000D01*
X119966000Y-70622000D01*
X119985000Y-70647000D01*
X120003000Y-70673000D01*
X120020000Y-70700000D01*
X120035000Y-70728000D01*
X120048000Y-70756000D01*
X120060000Y-70785000D01*
X120071000Y-70815000D01*
X120080000Y-70845000D01*
X120087000Y-70875000D01*
X120093000Y-70906000D01*
X120097000Y-70937000D01*
X120099000Y-70969000D01*
X120100000Y-71000000D01*
X120100000Y-71600000D01*
X120100000Y-72200000D01*
X120099000Y-72231000D01*
X120097000Y-72263000D01*
X120093000Y-72294000D01*
X120087000Y-72325000D01*
X120080000Y-72355000D01*
X120071000Y-72385000D01*
X120060000Y-72415000D01*
X120048000Y-72444000D01*
X120035000Y-72472000D01*
X120020000Y-72500000D01*
X120003000Y-72527000D01*
X119985000Y-72553000D01*
X119966000Y-72578000D01*
X119946000Y-72601000D01*
X119924000Y-72624000D01*
X119901000Y-72646000D01*
X119878000Y-72666000D01*
X119853000Y-72685000D01*
X119827000Y-72703000D01*
X119800000Y-72720000D01*
X119772000Y-72735000D01*
X119744000Y-72748000D01*
X119715000Y-72760000D01*
X119685000Y-72771000D01*
X119655000Y-72780000D01*
X119625000Y-72787000D01*
X119594000Y-72793000D01*
X119563000Y-72797000D01*
X119531000Y-72799000D01*
X119500000Y-72800000D01*
X119469000Y-72799000D01*
X119437000Y-72797000D01*
X119406000Y-72793000D01*
X119375000Y-72787000D01*
X119345000Y-72780000D01*
X119315000Y-72771000D01*
X119285000Y-72760000D01*
X119256000Y-72748000D01*
X119228000Y-72735000D01*
X119200000Y-72720000D01*
X119173000Y-72703000D01*
X119147000Y-72685000D01*
X119122000Y-72666000D01*
X119099000Y-72646000D01*
X119076000Y-72624000D01*
X119054000Y-72601000D01*
X119034000Y-72578000D01*
X119015000Y-72553000D01*
X118997000Y-72527000D01*
X118980000Y-72500000D01*
X118965000Y-72472000D01*
X118952000Y-72444000D01*
X118940000Y-72415000D01*
X118929000Y-72385000D01*
X118920000Y-72355000D01*
X118913000Y-72325000D01*
X118907000Y-72294000D01*
X118903000Y-72263000D01*
X118901000Y-72231000D01*
X118900000Y-72200000D01*
X118900000Y-71600000D01*
X118900000Y-71000000D01*
X118901000Y-70969000D01*
X118903000Y-70937000D01*
X118907000Y-70906000D01*
X118913000Y-70875000D01*
X118920000Y-70845000D01*
X118929000Y-70815000D01*
X118940000Y-70785000D01*
X118952000Y-70756000D01*
X118965000Y-70728000D01*
X118980000Y-70700000D01*
X118997000Y-70673000D01*
X119015000Y-70647000D01*
X119034000Y-70622000D01*
X119054000Y-70599000D01*
X119076000Y-70576000D01*
X119099000Y-70554000D01*
X119122000Y-70534000D01*
X119147000Y-70515000D01*
X119173000Y-70497000D01*
X119200000Y-70480000D01*
X119228000Y-70465000D01*
X119256000Y-70452000D01*
X119285000Y-70440000D01*
X119315000Y-70429000D01*
X119345000Y-70420000D01*
X119375000Y-70413000D01*
X119406000Y-70407000D01*
X119437000Y-70403000D01*
X119469000Y-70401000D01*
X119500000Y-70400000D01*
X119531000Y-70401000D01*
G36*
X119531000Y-70401000D02*
G01*
X119563000Y-70403000D01*
X119594000Y-70407000D01*
X119625000Y-70413000D01*
X119655000Y-70420000D01*
X119685000Y-70429000D01*
X119715000Y-70440000D01*
X119744000Y-70452000D01*
X119772000Y-70465000D01*
X119800000Y-70480000D01*
X119827000Y-70497000D01*
X119853000Y-70515000D01*
X119878000Y-70534000D01*
X119901000Y-70554000D01*
X119924000Y-70576000D01*
X119946000Y-70599000D01*
X119966000Y-70622000D01*
X119985000Y-70647000D01*
X120003000Y-70673000D01*
X120020000Y-70700000D01*
X120035000Y-70728000D01*
X120048000Y-70756000D01*
X120060000Y-70785000D01*
X120071000Y-70815000D01*
X120080000Y-70845000D01*
X120087000Y-70875000D01*
X120093000Y-70906000D01*
X120097000Y-70937000D01*
X120099000Y-70969000D01*
X120100000Y-71000000D01*
X120100000Y-71600000D01*
X120100000Y-72200000D01*
X120099000Y-72231000D01*
X120097000Y-72263000D01*
X120093000Y-72294000D01*
X120087000Y-72325000D01*
X120080000Y-72355000D01*
X120071000Y-72385000D01*
X120060000Y-72415000D01*
X120048000Y-72444000D01*
X120035000Y-72472000D01*
X120020000Y-72500000D01*
X120003000Y-72527000D01*
X119985000Y-72553000D01*
X119966000Y-72578000D01*
X119946000Y-72601000D01*
X119924000Y-72624000D01*
X119901000Y-72646000D01*
X119878000Y-72666000D01*
X119853000Y-72685000D01*
X119827000Y-72703000D01*
X119800000Y-72720000D01*
X119772000Y-72735000D01*
X119744000Y-72748000D01*
X119715000Y-72760000D01*
X119685000Y-72771000D01*
X119655000Y-72780000D01*
X119625000Y-72787000D01*
X119594000Y-72793000D01*
X119563000Y-72797000D01*
X119531000Y-72799000D01*
X119500000Y-72800000D01*
X119469000Y-72799000D01*
X119437000Y-72797000D01*
X119406000Y-72793000D01*
X119375000Y-72787000D01*
X119345000Y-72780000D01*
X119315000Y-72771000D01*
X119285000Y-72760000D01*
X119256000Y-72748000D01*
X119228000Y-72735000D01*
X119200000Y-72720000D01*
X119173000Y-72703000D01*
X119147000Y-72685000D01*
X119122000Y-72666000D01*
X119099000Y-72646000D01*
X119076000Y-72624000D01*
X119054000Y-72601000D01*
X119034000Y-72578000D01*
X119015000Y-72553000D01*
X118997000Y-72527000D01*
X118980000Y-72500000D01*
X118965000Y-72472000D01*
X118952000Y-72444000D01*
X118940000Y-72415000D01*
X118929000Y-72385000D01*
X118920000Y-72355000D01*
X118913000Y-72325000D01*
X118907000Y-72294000D01*
X118903000Y-72263000D01*
X118901000Y-72231000D01*
X118900000Y-72200000D01*
X118900000Y-71600000D01*
X118900000Y-71000000D01*
X118901000Y-70969000D01*
X118903000Y-70937000D01*
X118907000Y-70906000D01*
X118913000Y-70875000D01*
X118920000Y-70845000D01*
X118929000Y-70815000D01*
X118940000Y-70785000D01*
X118952000Y-70756000D01*
X118965000Y-70728000D01*
X118980000Y-70700000D01*
X118997000Y-70673000D01*
X119015000Y-70647000D01*
X119034000Y-70622000D01*
X119054000Y-70599000D01*
X119076000Y-70576000D01*
X119099000Y-70554000D01*
X119122000Y-70534000D01*
X119147000Y-70515000D01*
X119173000Y-70497000D01*
X119200000Y-70480000D01*
X119228000Y-70465000D01*
X119256000Y-70452000D01*
X119285000Y-70440000D01*
X119315000Y-70429000D01*
X119345000Y-70420000D01*
X119375000Y-70413000D01*
X119406000Y-70407000D01*
X119437000Y-70403000D01*
X119469000Y-70401000D01*
X119500000Y-70400000D01*
X119531000Y-70401000D01*
G37*
%TD*%
D11*
%TO.C,D1*%
X148900000Y-73000000D03*
X145600000Y-73000000D03*
%TD*%
D12*
%TO.C,U303*%
X136500000Y-90275000D03*
X137000000Y-90275000D03*
X137500000Y-90275000D03*
X138000000Y-90275000D03*
X138500000Y-90275000D03*
X138500000Y-89500000D03*
X138000000Y-89500000D03*
X137500000Y-89500000D03*
X137000000Y-89500000D03*
X136500000Y-89500000D03*
%TD*%
D13*
%TO.C,R312*%
X121175000Y-79250000D03*
X122825000Y-79250000D03*
%TD*%
D14*
%TO.C,R311*%
X130075000Y-80000000D03*
X128425000Y-80000000D03*
%TD*%
D15*
%TO.C,R310*%
X136250000Y-80675000D03*
X136250000Y-82325000D03*
%TD*%
D16*
%TO.C,R309*%
X136250000Y-85325000D03*
X136250000Y-83675000D03*
%TD*%
D15*
%TO.C,R308*%
X138250000Y-80675000D03*
X138250000Y-82325000D03*
%TD*%
D16*
%TO.C,R307*%
X138250000Y-85325000D03*
X138250000Y-83675000D03*
%TD*%
D17*
%TO.C,JP201*%
X141350000Y-73000000D03*
D18*
X142650000Y-73000000D03*
%TD*%
D19*
%TO.C,C315*%
X134500000Y-83725000D03*
X134500000Y-85275000D03*
%TD*%
D20*
%TO.C,J103*%
X106960000Y-125150500D03*
D21*
X112040000Y-125150500D03*
%TD*%
D22*
%TO.C,C201*%
X128500000Y-117775000D03*
X128500000Y-116225000D03*
%TD*%
D23*
%TO.C,J502*%
X89900000Y-128630000D03*
D24*
X89900000Y-126090000D03*
X89900000Y-123550000D03*
X89900000Y-121010000D03*
X89900000Y-118470000D03*
%TD*%
D25*
%TO.C,J102*%
X154722500Y-111910000D03*
D26*
X154722500Y-106830000D03*
%TD*%
D14*
%TO.C,R303*%
X112825000Y-111000000D03*
X111175000Y-111000000D03*
%TD*%
D27*
%TO.C,C203*%
X126500000Y-117100000D03*
X126500000Y-114150000D03*
%TD*%
%TO.C,C204*%
X133500000Y-117475000D03*
X133500000Y-114525000D03*
%TD*%
D28*
%TO.C,U302*%
X116562500Y-92250000D03*
X116562500Y-92750000D03*
X116562500Y-93250000D03*
X116562500Y-93750000D03*
X116562500Y-94250000D03*
X116562500Y-94750000D03*
X116562500Y-95250000D03*
X116562500Y-95750000D03*
D29*
X117250000Y-96437500D03*
X117750000Y-96437500D03*
X118250000Y-96437500D03*
X118750000Y-96437500D03*
X119250000Y-96437500D03*
X119750000Y-96437500D03*
X120250000Y-96437500D03*
X120750000Y-96437500D03*
D28*
X121437500Y-95750000D03*
X121437500Y-95250000D03*
X121437500Y-94750000D03*
X121437500Y-94250000D03*
X121437500Y-93750000D03*
X121437500Y-93250000D03*
X121437500Y-92750000D03*
X121437500Y-92250000D03*
D29*
X120750000Y-91562500D03*
X120250000Y-91562500D03*
X119750000Y-91562500D03*
X119250000Y-91562500D03*
X118750000Y-91562500D03*
X118250000Y-91562500D03*
X117750000Y-91562500D03*
X117250000Y-91562500D03*
D30*
X119000000Y-94000000D03*
%TD*%
D14*
%TO.C,R203*%
X125225000Y-109400000D03*
X123575000Y-109400000D03*
%TD*%
%TO.C,R201*%
X134825000Y-119500000D03*
X133175000Y-119500000D03*
%TD*%
D31*
%TO.C,R402*%
X114075000Y-120500000D03*
X120000000Y-120500000D03*
%TD*%
D32*
%TO.C,C301*%
X120500000Y-99600000D03*
X120500000Y-101500000D03*
%TD*%
D33*
%TO.C,C304*%
X123225000Y-96000000D03*
X124775000Y-96000000D03*
%TD*%
D23*
%TO.C,J201*%
X127156000Y-103020000D03*
D24*
X129696000Y-103020000D03*
X132236000Y-103020000D03*
%TD*%
D15*
%TO.C,R301*%
X123500000Y-99175000D03*
X123500000Y-100825000D03*
%TD*%
D27*
%TO.C,C202*%
X136000000Y-117475000D03*
X136000000Y-114525000D03*
%TD*%
D32*
%TO.C,C208*%
X128000000Y-119500000D03*
X128000000Y-121400000D03*
%TD*%
D34*
%TO.C,U201*%
X129950000Y-114325000D03*
X129950000Y-114975000D03*
D35*
X129950000Y-115575000D03*
X129950000Y-116100000D03*
D36*
X130350000Y-116850000D03*
X130850000Y-116850000D03*
X131350000Y-116850000D03*
D35*
X131750000Y-116100000D03*
X131750000Y-115575000D03*
D34*
X131750000Y-114975000D03*
X131750000Y-114325000D03*
D37*
X130850000Y-114662000D03*
%TD*%
D23*
%TO.C,J501*%
X89900000Y-114130000D03*
D24*
X89900000Y-111590000D03*
X89900000Y-109050000D03*
X89900000Y-106510000D03*
X89900000Y-103970000D03*
%TD*%
D38*
%TO.C,C307*%
X112000000Y-93000000D03*
X110450000Y-93000000D03*
%TD*%
D39*
%TO.C,C601*%
X93500000Y-86000000D03*
X93500000Y-84100000D03*
%TD*%
D16*
%TO.C,R101*%
X118000000Y-106825000D03*
X118000000Y-105175000D03*
%TD*%
D38*
%TO.C,C309*%
X108950000Y-100000000D03*
X107400000Y-100000000D03*
%TD*%
D40*
%TO.C,J303*%
X107000000Y-90475000D03*
D41*
X105500000Y-91950000D03*
D40*
X104000000Y-90475000D03*
D41*
X105500000Y-89000000D03*
%TD*%
D42*
%TO.C,L301*%
X110240000Y-94500000D03*
X111210000Y-94500000D03*
%TD*%
D43*
%TO.C,H101*%
X90500000Y-98000000D03*
%TD*%
D19*
%TO.C,C312*%
X121000000Y-85225000D03*
X121000000Y-86775000D03*
%TD*%
D23*
%TO.C,J308*%
X130960000Y-93000000D03*
D24*
X133500000Y-93000000D03*
X136040000Y-93000000D03*
X138580000Y-93000000D03*
X141120000Y-93000000D03*
X143660000Y-93000000D03*
%TD*%
D44*
%TO.C,U501*%
X95050000Y-112110000D03*
X95050000Y-113380000D03*
X95050000Y-114650000D03*
X95050000Y-115920000D03*
X95050000Y-117190000D03*
X95050000Y-118460000D03*
X95050000Y-119730000D03*
X95050000Y-121000000D03*
X100000000Y-121000000D03*
X100000000Y-119730000D03*
X100000000Y-118460000D03*
X100000000Y-117190000D03*
X100000000Y-115920000D03*
X100000000Y-114650000D03*
X100000000Y-113380000D03*
X100000000Y-112110000D03*
%TD*%
D33*
%TO.C,C402*%
X143947500Y-113000000D03*
X145497500Y-113000000D03*
%TD*%
D45*
%TO.C,SW302*%
X109630000Y-73280000D03*
X109630000Y-70530000D03*
D46*
X112430000Y-72655000D03*
X106830000Y-72755000D03*
X112430000Y-71055000D03*
X106830000Y-71055000D03*
%TD*%
D47*
%TO.C,Y302*%
X117800000Y-86550000D03*
X119200000Y-86550000D03*
X119200000Y-85450000D03*
X117800000Y-85450000D03*
%TD*%
D25*
%TO.C,J101*%
X154722500Y-125250000D03*
D26*
X154722500Y-120170000D03*
%TD*%
D23*
%TO.C,J304*%
X116750000Y-74460000D03*
D24*
X116750000Y-77000000D03*
X116750000Y-79540000D03*
%TD*%
D48*
%TO.C,C504*%
X98425000Y-123055000D03*
X96525000Y-123055000D03*
%TD*%
D49*
%TO.C,J302*%
X143345000Y-78850000D03*
X143345000Y-88650000D03*
D50*
X140345000Y-80700000D03*
X140345000Y-81800000D03*
X140345000Y-82900000D03*
X140345000Y-84000000D03*
X140345000Y-85100000D03*
X140345000Y-86200000D03*
X140345000Y-87300000D03*
X140345000Y-88400000D03*
X140345000Y-79600000D03*
X140345000Y-78500000D03*
X148095000Y-76500000D03*
X148095000Y-91000000D03*
%TD*%
D51*
%TO.C,L201*%
X131000000Y-112350000D03*
X131000000Y-109550000D03*
%TD*%
D52*
%TO.C,C503*%
X96525000Y-108055000D03*
X98425000Y-108055000D03*
%TD*%
D19*
%TO.C,C302*%
X118500000Y-99475000D03*
X118500000Y-101025000D03*
%TD*%
D23*
%TO.C,J305*%
X148580000Y-104500000D03*
D24*
X146040000Y-104500000D03*
X143500000Y-104500000D03*
%TD*%
D14*
%TO.C,R306*%
X129325000Y-97500000D03*
X127675000Y-97500000D03*
%TD*%
D53*
%TO.C,Y301*%
X108675000Y-101750000D03*
X108675000Y-104250000D03*
%TD*%
D54*
%TO.C,R401*%
X150270000Y-118682500D03*
X150270000Y-112757500D03*
%TD*%
D43*
%TO.C,H103*%
X156500000Y-75000000D03*
%TD*%
D16*
%TO.C,R305*%
X118000000Y-89825000D03*
X118000000Y-88175000D03*
%TD*%
D48*
%TO.C,C308*%
X112950000Y-109000000D03*
X111050000Y-109000000D03*
%TD*%
D55*
%TO.C,SW301*%
X139250000Y-100250000D03*
X132750000Y-100250000D03*
X139250000Y-95750000D03*
X132750000Y-95750000D03*
%TD*%
D22*
%TO.C,C311*%
X116000000Y-86775000D03*
X116000000Y-85225000D03*
%TD*%
D38*
%TO.C,C310*%
X108950000Y-106000000D03*
X107400000Y-106000000D03*
%TD*%
D23*
%TO.C,J306*%
X148525000Y-100500000D03*
D24*
X145985000Y-100500000D03*
X143445000Y-100500000D03*
%TD*%
D19*
%TO.C,C314*%
X109000000Y-90725000D03*
X109000000Y-92275000D03*
%TD*%
D14*
%TO.C,R304*%
X112500000Y-101500000D03*
X110850000Y-101500000D03*
%TD*%
D38*
%TO.C,C306*%
X112000000Y-96000000D03*
X110450000Y-96000000D03*
%TD*%
D22*
%TO.C,C303*%
X116500000Y-90000000D03*
X116500000Y-88450000D03*
%TD*%
D14*
%TO.C,R302*%
X112825000Y-105500000D03*
X111175000Y-105500000D03*
%TD*%
D39*
%TO.C,C501*%
X103000000Y-113450000D03*
X103000000Y-111550000D03*
%TD*%
D48*
%TO.C,C207*%
X134950000Y-121500000D03*
X133050000Y-121500000D03*
%TD*%
D56*
%TO.C,C206*%
X134500000Y-109525000D03*
X134500000Y-112475000D03*
%TD*%
D52*
%TO.C,C502*%
X96525000Y-110055000D03*
X98425000Y-110055000D03*
%TD*%
D20*
%TO.C,J104*%
X120460000Y-125222500D03*
D21*
X125540000Y-125222500D03*
%TD*%
D19*
%TO.C,C401*%
X120004000Y-114035000D03*
X120004000Y-115585000D03*
%TD*%
D43*
%TO.C,H102*%
X156500000Y-98000000D03*
%TD*%
D32*
%TO.C,C505*%
X92975000Y-123105000D03*
X92975000Y-125005000D03*
%TD*%
D48*
%TO.C,C305*%
X111950000Y-98000000D03*
X110050000Y-98000000D03*
%TD*%
D57*
%TO.C,L302*%
X112287500Y-91000000D03*
X110712500Y-91000000D03*
%TD*%
D22*
%TO.C,C313*%
X114000000Y-91275000D03*
X114000000Y-89725000D03*
%TD*%
D58*
%TO.C,U601*%
X90100000Y-84700000D03*
X90100000Y-85500000D03*
X91500000Y-85500000D03*
X91500000Y-84700000D03*
%TD*%
D59*
%TO.C,U301*%
X126650000Y-79862500D03*
X125700000Y-79862500D03*
X124750000Y-79862500D03*
X124750000Y-82137500D03*
X125700000Y-82137500D03*
X126650000Y-82137500D03*
%TD*%
D60*
%TO.C,D301*%
X127562500Y-99500000D03*
X129437500Y-99500000D03*
%TD*%
D43*
%TO.C,H104*%
X90500000Y-75000000D03*
%TD*%
D32*
%TO.C,C506*%
X92975000Y-108105000D03*
X92975000Y-110005000D03*
%TD*%
D56*
%TO.C,C205*%
X127500000Y-109500000D03*
X127500000Y-112450000D03*
%TD*%
D14*
%TO.C,R202*%
X131650000Y-118000000D03*
X130000000Y-118000000D03*
%TD*%
D61*
%TO.C,U402*%
X118000000Y-112600000D03*
X117500000Y-112600000D03*
X117000000Y-112600000D03*
X116500000Y-112600000D03*
X116000000Y-112600000D03*
X116000000Y-117000000D03*
X116500000Y-117000000D03*
X117000000Y-117000000D03*
X117500000Y-117000000D03*
X118000000Y-117000000D03*
%TD*%
D62*
%TO.C,U401*%
X142522500Y-115000000D03*
X142522500Y-115500000D03*
X142522500Y-116000000D03*
X142522500Y-116500000D03*
X142522500Y-117000000D03*
X146922500Y-117000000D03*
X146922500Y-116500000D03*
X146922500Y-116000000D03*
X146922500Y-115500000D03*
X146922500Y-115000000D03*
%TD*%
D16*
%TO.C,R102*%
X116500000Y-106825000D03*
X116500000Y-105175000D03*
%TD*%
D23*
%TO.C,J307*%
X87500000Y-83700000D03*
D24*
X87500000Y-86240000D03*
X87500000Y-88780000D03*
X87500000Y-91320000D03*
%TD*%
D63*
%TO.C,J301*%
X128320000Y-76750000D03*
X127520000Y-76750000D03*
D64*
X126870000Y-76750000D03*
X126370000Y-76750000D03*
X125870000Y-76750000D03*
X125370000Y-76750000D03*
X124870000Y-76750000D03*
X124370000Y-76750000D03*
X123870000Y-76750000D03*
X123370000Y-76750000D03*
D63*
X122720000Y-76750000D03*
X121920000Y-76750000D03*
%TD*%
M02*
