%TF.GenerationSoftware,KiCad,Pcbnew,7.0.6-7.0.6~ubuntu22.04.1*%
%TF.CreationDate,2023-07-31T15:47:24-04:00*%
%TF.ProjectId,esp32_sensor_board,65737033-325f-4736-956e-736f725f626f,rev?*%
%TF.SameCoordinates,Original*%
%TF.FileFunction,Copper,L4,Bot*%
%TF.FilePolarity,Positive*%
%FSLAX46Y46*%
G04 Gerber Fmt 4.6, Leading zero omitted, Abs format (unit mm)*
G04 Created by KiCad (PCBNEW 7.0.6-7.0.6~ubuntu22.04.1) date 2023-07-31 15:47:24*
%MOMM*%
%LPD*%
G01*
G04 APERTURE LIST*
G04 Aperture macros list*
%AMRoundRect*
0 Rectangle with rounded corners*
0 $1 Rounding radius*
0 $2 $3 $4 $5 $6 $7 $8 $9 X,Y pos of 4 corners*
0 Add a 4 corners polygon primitive as box body*
4,1,4,$2,$3,$4,$5,$6,$7,$8,$9,$2,$3,0*
0 Add four circle primitives for the rounded corners*
1,1,$1+$1,$2,$3*
1,1,$1+$1,$4,$5*
1,1,$1+$1,$6,$7*
1,1,$1+$1,$8,$9*
0 Add four rect primitives between the rounded corners*
20,1,$1+$1,$2,$3,$4,$5,0*
20,1,$1+$1,$4,$5,$6,$7,0*
20,1,$1+$1,$6,$7,$8,$9,0*
20,1,$1+$1,$8,$9,$2,$3,0*%
G04 Aperture macros list end*
%TA.AperFunction,ComponentPad*%
%ADD10C,5.600000*%
%TD*%
%TA.AperFunction,ComponentPad*%
%ADD11R,1.700000X1.700000*%
%TD*%
%TA.AperFunction,ComponentPad*%
%ADD12O,1.700000X1.700000*%
%TD*%
%TA.AperFunction,ComponentPad*%
%ADD13RoundRect,0.249999X1.550001X-0.790001X1.550001X0.790001X-1.550001X0.790001X-1.550001X-0.790001X0*%
%TD*%
%TA.AperFunction,ComponentPad*%
%ADD14O,3.600000X2.080000*%
%TD*%
%TA.AperFunction,ComponentPad*%
%ADD15O,1.200000X1.900000*%
%TD*%
%TA.AperFunction,ComponentPad*%
%ADD16C,1.450000*%
%TD*%
%TA.AperFunction,ViaPad*%
%ADD17C,0.800000*%
%TD*%
%TA.AperFunction,Conductor*%
%ADD18C,0.250000*%
%TD*%
G04 APERTURE END LIST*
D10*
%TO.P,H104,1,1*%
%TO.N,GND*%
X90500000Y-75000000D03*
%TD*%
%TO.P,H103,1,1*%
%TO.N,GND*%
X156500000Y-75000000D03*
%TD*%
%TO.P,H102,1,1*%
%TO.N,GND*%
X156500000Y-98000000D03*
%TD*%
%TO.P,H101,1,1*%
%TO.N,GND*%
X90500000Y-98000000D03*
%TD*%
D11*
%TO.P,J502,1,Pin_1*%
%TO.N,GND*%
X89900000Y-128630000D03*
D12*
%TO.P,J502,2,Pin_2*%
%TO.N,/Load Cell Sensor/S2_P*%
X89900000Y-126090000D03*
%TO.P,J502,3,Pin_3*%
%TO.N,/Load Cell Sensor/S2_N*%
X89900000Y-123550000D03*
%TO.P,J502,4,Pin_4*%
%TO.N,GND*%
X89900000Y-121010000D03*
%TO.P,J502,5,Pin_5*%
%TO.N,/Load Cell Sensor/E_p*%
X89900000Y-118470000D03*
%TD*%
D13*
%TO.P,J102,1,Pin_1*%
%TO.N,/Vbus2_in*%
X154722500Y-111040000D03*
D14*
%TO.P,J102,2,Pin_2*%
%TO.N,/Vbus2_out*%
X154722500Y-105960000D03*
%TD*%
D11*
%TO.P,J501,1,Pin_1*%
%TO.N,GND*%
X89900000Y-114130000D03*
D12*
%TO.P,J501,2,Pin_2*%
%TO.N,/Load Cell Sensor/S1_P*%
X89900000Y-111590000D03*
%TO.P,J501,3,Pin_3*%
%TO.N,/Load Cell Sensor/S1_N*%
X89900000Y-109050000D03*
%TO.P,J501,4,Pin_4*%
%TO.N,GND*%
X89900000Y-106510000D03*
%TO.P,J501,5,Pin_5*%
%TO.N,/Load Cell Sensor/E_p*%
X89900000Y-103970000D03*
%TD*%
D13*
%TO.P,J101,1,Pin_1*%
%TO.N,/Vbus1_in*%
X154722500Y-125250000D03*
D14*
%TO.P,J101,2,Pin_2*%
%TO.N,VIN*%
X154722500Y-120170000D03*
%TD*%
D15*
%TO.P,J301,6,Shield*%
%TO.N,unconnected-(J301-Shield-Pad6)*%
X127700000Y-71602500D03*
D16*
X126700000Y-74302500D03*
X121700000Y-74302500D03*
D15*
X120700000Y-71602500D03*
%TD*%
D17*
%TO.N,GND*%
X102500000Y-90000000D03*
X105500000Y-93000000D03*
X105500000Y-88000000D03*
%TO.N,VIN*%
X126000000Y-118100000D03*
X137400000Y-118000000D03*
X125000000Y-118000000D03*
X150400000Y-121200000D03*
X127100000Y-118100000D03*
X149400000Y-121200000D03*
X133100000Y-116400000D03*
X137400000Y-116400000D03*
X136400000Y-116400000D03*
X152400000Y-121200000D03*
X134200000Y-116400000D03*
X152400000Y-120200000D03*
X135400000Y-116400000D03*
X125010260Y-116475000D03*
X152400000Y-119200000D03*
X151400000Y-121200000D03*
%TO.N,GND*%
X119000000Y-87500000D03*
X130750000Y-119250000D03*
X117750000Y-92750000D03*
X99500000Y-123000000D03*
X115000000Y-85000000D03*
X109000000Y-98000000D03*
X99945000Y-108055000D03*
X146500000Y-120500000D03*
X98500000Y-121000000D03*
X126000000Y-112750000D03*
X137000000Y-94500000D03*
X109250000Y-96000000D03*
X136250000Y-113000000D03*
X139000000Y-94500000D03*
X106917351Y-105392045D03*
X106000000Y-100000000D03*
X115500000Y-88500000D03*
X133000000Y-85000000D03*
X125000000Y-114000000D03*
X137500000Y-114000000D03*
X120500000Y-102000000D03*
X109500000Y-109000000D03*
X128000000Y-122750000D03*
X124250000Y-78000000D03*
X95000000Y-120500000D03*
X129250000Y-110750000D03*
X133000000Y-79500000D03*
X135250000Y-113500000D03*
X120250000Y-92750000D03*
X94750000Y-84750000D03*
X128250000Y-114000000D03*
X100000000Y-110000000D03*
X118500000Y-101250000D03*
X117750000Y-95250000D03*
X132500000Y-78500000D03*
X118000000Y-84500000D03*
X129250000Y-114000000D03*
X110000000Y-92000000D03*
X136250000Y-111000000D03*
X136250000Y-112000000D03*
X120250000Y-94000000D03*
X126000000Y-111750000D03*
X125000000Y-115000000D03*
X130500000Y-110750000D03*
X146500000Y-105500000D03*
X119000001Y-94000001D03*
X113500000Y-88500000D03*
X126000000Y-110750000D03*
X122481263Y-77481263D03*
X104500000Y-111500000D03*
X134250000Y-113500000D03*
X132250000Y-114000000D03*
X133000000Y-87500000D03*
X137250000Y-113000000D03*
X126000000Y-96000000D03*
X145200000Y-121200000D03*
X109438725Y-93966130D03*
X117750000Y-94000000D03*
X121000000Y-88000000D03*
X131500000Y-110750000D03*
X132500000Y-110750000D03*
X120250000Y-95250000D03*
X125000000Y-113000000D03*
%TO.N,+3.3V*%
X110000000Y-111000000D03*
X111000000Y-106500000D03*
X142500000Y-120500000D03*
X126250000Y-108000000D03*
X124000000Y-83000000D03*
X136250000Y-109750000D03*
X133250000Y-108000000D03*
X132250000Y-108000000D03*
X127250000Y-108000000D03*
X131250000Y-108000000D03*
X115500000Y-90000000D03*
X142500000Y-106000000D03*
X123750000Y-95250000D03*
X134250000Y-108000000D03*
X130250000Y-108000000D03*
X119000000Y-106750000D03*
X94750000Y-85750000D03*
X128250000Y-108000000D03*
X112000000Y-99500000D03*
X136000000Y-121500000D03*
X136250000Y-108750000D03*
X129250000Y-108000000D03*
X126000000Y-109750000D03*
X133000000Y-83000000D03*
X135250000Y-108000000D03*
X104500000Y-113500000D03*
X119750000Y-98250000D03*
X125250000Y-108000000D03*
%TO.N,/Microprocessor/SD_CS*%
X132000000Y-84500000D03*
X132500000Y-80500000D03*
%TO.N,/Microprocessor/SPI_CIPO*%
X128000000Y-85500000D03*
X131000000Y-88000000D03*
%TO.N,/Microprocessor/SD_DET*%
X132000000Y-77500000D03*
X131000000Y-86500000D03*
%TO.N,P_GOOD*%
X132074500Y-116800000D03*
X122800000Y-110600000D03*
%TO.N,/Vbus1_in*%
X148400000Y-124400000D03*
X152400000Y-124400000D03*
X152400000Y-125800000D03*
X149400000Y-124400000D03*
X151400000Y-124400000D03*
X150400000Y-124400000D03*
%TO.N,/Vbus2_in*%
X152400000Y-111400000D03*
X150400000Y-110400000D03*
X151400000Y-110400000D03*
X149400000Y-110400000D03*
X152400000Y-112400000D03*
X152400000Y-110400000D03*
%TO.N,/Vbus2_out*%
X152400000Y-107000000D03*
X152400000Y-106000000D03*
X151400000Y-107000000D03*
X150400000Y-107000000D03*
X149400000Y-107000000D03*
X152400000Y-105000000D03*
%TO.N,/Power Measurement/I2C_SCL*%
X140371019Y-109646325D03*
X106500000Y-115920000D03*
X140273198Y-107226802D03*
X106500000Y-110500000D03*
%TO.N,/Power Measurement/I2C_SDA*%
X119500000Y-108000000D03*
X115000000Y-106000000D03*
%TD*%
D18*
%TO.N,/Microprocessor/SD_CS*%
X132000000Y-84500000D02*
X132000000Y-81000000D01*
X132000000Y-81000000D02*
X132500000Y-80500000D01*
%TO.N,/Microprocessor/SPI_CIPO*%
X128000000Y-85500000D02*
X130500000Y-88000000D01*
X130500000Y-88000000D02*
X131000000Y-88000000D01*
%TO.N,/Microprocessor/SD_DET*%
X131000000Y-78500000D02*
X132000000Y-77500000D01*
X131000000Y-86500000D02*
X131000000Y-78500000D01*
%TO.N,P_GOOD*%
X127750000Y-115750000D02*
X128800000Y-116800000D01*
X122800000Y-114550000D02*
X124000000Y-115750000D01*
X128800000Y-116800000D02*
X132074500Y-116800000D01*
X122800000Y-110600000D02*
X122800000Y-114550000D01*
X124000000Y-115750000D02*
X127750000Y-115750000D01*
%TO.N,/Power Measurement/I2C_SCL*%
X106500000Y-110500000D02*
X106500000Y-115920000D01*
X140371019Y-107324623D02*
X140371019Y-109646325D01*
X140273198Y-107226802D02*
X140371019Y-107324623D01*
%TO.N,/Power Measurement/I2C_SDA*%
X115000000Y-106000000D02*
X117000000Y-108000000D01*
X117000000Y-108000000D02*
X119500000Y-108000000D01*
%TD*%
%TA.AperFunction,Conductor*%
%TO.N,/Vbus1_in*%
G36*
X148462580Y-124008603D02*
G01*
X148526475Y-124024351D01*
X148554422Y-124034949D01*
X148612699Y-124065536D01*
X148612701Y-124065537D01*
X148637298Y-124082515D01*
X148654972Y-124098172D01*
X148654973Y-124098173D01*
X148654976Y-124098175D01*
X148685048Y-124120945D01*
X148717005Y-124141482D01*
X148721263Y-124144157D01*
X148817461Y-124178323D01*
X148886723Y-124187507D01*
X148886722Y-124187507D01*
X148892063Y-124187804D01*
X148924027Y-124189585D01*
X149023424Y-124166318D01*
X149086657Y-124136597D01*
X149145024Y-124098175D01*
X149162701Y-124082513D01*
X149187289Y-124065541D01*
X149245582Y-124034946D01*
X149273512Y-124024353D01*
X149337424Y-124008601D01*
X149367092Y-124005000D01*
X149432906Y-124005000D01*
X149462580Y-124008603D01*
X149526475Y-124024351D01*
X149554422Y-124034949D01*
X149612699Y-124065536D01*
X149612701Y-124065537D01*
X149637298Y-124082515D01*
X149654972Y-124098172D01*
X149654973Y-124098173D01*
X149654976Y-124098175D01*
X149685048Y-124120945D01*
X149717005Y-124141482D01*
X149721263Y-124144157D01*
X149817461Y-124178323D01*
X149886723Y-124187507D01*
X149886722Y-124187507D01*
X149892063Y-124187804D01*
X149924027Y-124189585D01*
X150023424Y-124166318D01*
X150086657Y-124136597D01*
X150145024Y-124098175D01*
X150162701Y-124082513D01*
X150187289Y-124065541D01*
X150245582Y-124034946D01*
X150273512Y-124024353D01*
X150337424Y-124008601D01*
X150367092Y-124005000D01*
X150432906Y-124005000D01*
X150462580Y-124008603D01*
X150526475Y-124024351D01*
X150554422Y-124034949D01*
X150612699Y-124065536D01*
X150612701Y-124065537D01*
X150637298Y-124082515D01*
X150654972Y-124098172D01*
X150654973Y-124098173D01*
X150654976Y-124098175D01*
X150685048Y-124120945D01*
X150717005Y-124141482D01*
X150721263Y-124144157D01*
X150817461Y-124178323D01*
X150886723Y-124187507D01*
X150886722Y-124187507D01*
X150892063Y-124187804D01*
X150924027Y-124189585D01*
X151023424Y-124166318D01*
X151086657Y-124136597D01*
X151145024Y-124098175D01*
X151162701Y-124082513D01*
X151187289Y-124065541D01*
X151245582Y-124034946D01*
X151273512Y-124024353D01*
X151337424Y-124008601D01*
X151367092Y-124005000D01*
X151432906Y-124005000D01*
X151462580Y-124008603D01*
X151526475Y-124024351D01*
X151554422Y-124034949D01*
X151612699Y-124065536D01*
X151612701Y-124065537D01*
X151637298Y-124082515D01*
X151654972Y-124098172D01*
X151654973Y-124098173D01*
X151654976Y-124098175D01*
X151685048Y-124120945D01*
X151717005Y-124141482D01*
X151721263Y-124144157D01*
X151817461Y-124178323D01*
X151886723Y-124187507D01*
X151886722Y-124187507D01*
X151892063Y-124187804D01*
X151924027Y-124189585D01*
X152023424Y-124166318D01*
X152086657Y-124136597D01*
X152145024Y-124098175D01*
X152162701Y-124082513D01*
X152187289Y-124065541D01*
X152245582Y-124034946D01*
X152273512Y-124024353D01*
X152337424Y-124008601D01*
X152367092Y-124005000D01*
X152432906Y-124005000D01*
X152462580Y-124008603D01*
X152526471Y-124024350D01*
X152554422Y-124034950D01*
X152612705Y-124065539D01*
X152637307Y-124082521D01*
X152721845Y-124157416D01*
X152739750Y-124169594D01*
X152773548Y-124192582D01*
X152829416Y-124220933D01*
X152856911Y-124232836D01*
X152856912Y-124232836D01*
X152856914Y-124232837D01*
X152958022Y-124246884D01*
X152958023Y-124246883D01*
X152958024Y-124246884D01*
X153027715Y-124241900D01*
X153095996Y-124227046D01*
X153107326Y-124222819D01*
X153150662Y-124215000D01*
X156294335Y-124215000D01*
X156337667Y-124222818D01*
X156349001Y-124227045D01*
X156364527Y-124232836D01*
X156374416Y-124236524D01*
X156405389Y-124253435D01*
X156433251Y-124274292D01*
X156458205Y-124299246D01*
X156479058Y-124327102D01*
X156495972Y-124358078D01*
X156509681Y-124394832D01*
X156517500Y-124438167D01*
X156517500Y-126061831D01*
X156509681Y-126105166D01*
X156495972Y-126141920D01*
X156479057Y-126172897D01*
X156458205Y-126200751D01*
X156433251Y-126225705D01*
X156405397Y-126246557D01*
X156374420Y-126263472D01*
X156337666Y-126277181D01*
X156294331Y-126285000D01*
X153150670Y-126285000D01*
X153107335Y-126277181D01*
X153070578Y-126263471D01*
X153039606Y-126246559D01*
X152962306Y-126188693D01*
X152962303Y-126188691D01*
X152962300Y-126188689D01*
X152902874Y-126155921D01*
X152902863Y-126155916D01*
X152854548Y-126137441D01*
X152839437Y-126131663D01*
X152839434Y-126131662D01*
X152805601Y-126121448D01*
X152703529Y-126120253D01*
X152635020Y-126133978D01*
X152569162Y-126157314D01*
X152569161Y-126157314D01*
X152569158Y-126157316D01*
X152554422Y-126165049D01*
X152526479Y-126175646D01*
X152493205Y-126183847D01*
X152462581Y-126191396D01*
X152432906Y-126195000D01*
X152367099Y-126195000D01*
X152337422Y-126191396D01*
X152273517Y-126175644D01*
X152245568Y-126165044D01*
X152187296Y-126134460D01*
X152162695Y-126117480D01*
X152113437Y-126073841D01*
X152093619Y-126051471D01*
X152056228Y-125997303D01*
X152042336Y-125970833D01*
X152018998Y-125909298D01*
X152011844Y-125880276D01*
X152003912Y-125814939D01*
X152003912Y-125785054D01*
X152011844Y-125719723D01*
X152018997Y-125690701D01*
X152042338Y-125629158D01*
X152056223Y-125602701D01*
X152093615Y-125548529D01*
X152113433Y-125526161D01*
X152162698Y-125482516D01*
X152187296Y-125465536D01*
X152260389Y-125427176D01*
X152307065Y-125395335D01*
X152349918Y-125358204D01*
X152367202Y-125341688D01*
X152367202Y-125341687D01*
X152367204Y-125341686D01*
X152420557Y-125254657D01*
X152443893Y-125188797D01*
X152447145Y-125176778D01*
X152453653Y-125152738D01*
X152451485Y-125050676D01*
X152435510Y-124982657D01*
X152424226Y-124947044D01*
X152367224Y-124862357D01*
X152367222Y-124862354D01*
X152317013Y-124813774D01*
X152317010Y-124813771D01*
X152260393Y-124772826D01*
X152260389Y-124772823D01*
X152200689Y-124741490D01*
X152187297Y-124734461D01*
X152162699Y-124717483D01*
X152145025Y-124701825D01*
X152145024Y-124701825D01*
X152145021Y-124701822D01*
X152114950Y-124679053D01*
X152082995Y-124658517D01*
X152079991Y-124656630D01*
X152078732Y-124655838D01*
X151982535Y-124621675D01*
X151913271Y-124612492D01*
X151913272Y-124612492D01*
X151894620Y-124611453D01*
X151875971Y-124610414D01*
X151875970Y-124610414D01*
X151875965Y-124610414D01*
X151776575Y-124633680D01*
X151713346Y-124663399D01*
X151713336Y-124663404D01*
X151665725Y-124694747D01*
X151654981Y-124701821D01*
X151654979Y-124701822D01*
X151654968Y-124701829D01*
X151637296Y-124717485D01*
X151612698Y-124734463D01*
X151554424Y-124765047D01*
X151526477Y-124775646D01*
X151493621Y-124783744D01*
X151462581Y-124791396D01*
X151432905Y-124795000D01*
X151367099Y-124795000D01*
X151337422Y-124791396D01*
X151273517Y-124775644D01*
X151245568Y-124765044D01*
X151187298Y-124734461D01*
X151162700Y-124717483D01*
X151145021Y-124701822D01*
X151114942Y-124679047D01*
X151097503Y-124667841D01*
X151082991Y-124658515D01*
X151078728Y-124655837D01*
X151078726Y-124655836D01*
X151078722Y-124655834D01*
X150982534Y-124621675D01*
X150982526Y-124621673D01*
X150928509Y-124614512D01*
X150913266Y-124612492D01*
X150875967Y-124610415D01*
X150776570Y-124633682D01*
X150729433Y-124655839D01*
X150713339Y-124663404D01*
X150713333Y-124663407D01*
X150713327Y-124663411D01*
X150654980Y-124701821D01*
X150654980Y-124701822D01*
X150654974Y-124701826D01*
X150637304Y-124717480D01*
X150637302Y-124717482D01*
X150612702Y-124734461D01*
X150554424Y-124765047D01*
X150526477Y-124775646D01*
X150493621Y-124783744D01*
X150462581Y-124791396D01*
X150432905Y-124795000D01*
X150367099Y-124795000D01*
X150337422Y-124791396D01*
X150273517Y-124775644D01*
X150245568Y-124765044D01*
X150187298Y-124734461D01*
X150162699Y-124717483D01*
X150145025Y-124701825D01*
X150145024Y-124701825D01*
X150145021Y-124701822D01*
X150114950Y-124679053D01*
X150082995Y-124658517D01*
X150079991Y-124656630D01*
X150078732Y-124655838D01*
X149982535Y-124621675D01*
X149913271Y-124612492D01*
X149913272Y-124612492D01*
X149894620Y-124611453D01*
X149875971Y-124610414D01*
X149875970Y-124610414D01*
X149875965Y-124610414D01*
X149776575Y-124633680D01*
X149713346Y-124663399D01*
X149713336Y-124663404D01*
X149665725Y-124694747D01*
X149654981Y-124701821D01*
X149654979Y-124701822D01*
X149654968Y-124701829D01*
X149637296Y-124717485D01*
X149612698Y-124734463D01*
X149554424Y-124765047D01*
X149526477Y-124775646D01*
X149493621Y-124783744D01*
X149462581Y-124791396D01*
X149432905Y-124795000D01*
X149367099Y-124795000D01*
X149337422Y-124791396D01*
X149273517Y-124775644D01*
X149245568Y-124765044D01*
X149187298Y-124734461D01*
X149162699Y-124717483D01*
X149145025Y-124701825D01*
X149145024Y-124701825D01*
X149145021Y-124701822D01*
X149114950Y-124679053D01*
X149082995Y-124658517D01*
X149079991Y-124656630D01*
X149078732Y-124655838D01*
X148982535Y-124621675D01*
X148913271Y-124612492D01*
X148913272Y-124612492D01*
X148894620Y-124611453D01*
X148875971Y-124610414D01*
X148875970Y-124610414D01*
X148875965Y-124610414D01*
X148776575Y-124633680D01*
X148713346Y-124663399D01*
X148713336Y-124663404D01*
X148665725Y-124694747D01*
X148654981Y-124701821D01*
X148654979Y-124701822D01*
X148654968Y-124701829D01*
X148637296Y-124717485D01*
X148612698Y-124734463D01*
X148554424Y-124765047D01*
X148526477Y-124775646D01*
X148493621Y-124783744D01*
X148462581Y-124791396D01*
X148432905Y-124795000D01*
X148367099Y-124795000D01*
X148337422Y-124791396D01*
X148273517Y-124775644D01*
X148245568Y-124765044D01*
X148187296Y-124734460D01*
X148162695Y-124717480D01*
X148145029Y-124701829D01*
X148113437Y-124673841D01*
X148093619Y-124651471D01*
X148079649Y-124631233D01*
X148056227Y-124597301D01*
X148042336Y-124570833D01*
X148018998Y-124509298D01*
X148011844Y-124480276D01*
X148003912Y-124414939D01*
X148003912Y-124385058D01*
X148011845Y-124319717D01*
X148018997Y-124290701D01*
X148042338Y-124229158D01*
X148056223Y-124202701D01*
X148093615Y-124148529D01*
X148113433Y-124126161D01*
X148118450Y-124121717D01*
X148162697Y-124082517D01*
X148187298Y-124065536D01*
X148195708Y-124061121D01*
X148245576Y-124034949D01*
X148273520Y-124024351D01*
X148326061Y-124011402D01*
X148337419Y-124008603D01*
X148367092Y-124005000D01*
X148432906Y-124005000D01*
X148462580Y-124008603D01*
G37*
%TD.AperFunction*%
%TD*%
%TA.AperFunction,Conductor*%
%TO.N,/Vbus2_in*%
G36*
X149462580Y-110008603D02*
G01*
X149526475Y-110024351D01*
X149554422Y-110034949D01*
X149610323Y-110064289D01*
X149612701Y-110065537D01*
X149637298Y-110082515D01*
X149654972Y-110098172D01*
X149654973Y-110098173D01*
X149665714Y-110106306D01*
X149685048Y-110120945D01*
X149717005Y-110141482D01*
X149721263Y-110144157D01*
X149817461Y-110178323D01*
X149886723Y-110187507D01*
X149886722Y-110187507D01*
X149892063Y-110187804D01*
X149924027Y-110189585D01*
X150023424Y-110166318D01*
X150086657Y-110136597D01*
X150145024Y-110098175D01*
X150162701Y-110082513D01*
X150187289Y-110065541D01*
X150245582Y-110034946D01*
X150273512Y-110024353D01*
X150337424Y-110008601D01*
X150367092Y-110005000D01*
X150432906Y-110005000D01*
X150462580Y-110008603D01*
X150526475Y-110024351D01*
X150554422Y-110034949D01*
X150610323Y-110064289D01*
X150612701Y-110065537D01*
X150637298Y-110082515D01*
X150654972Y-110098172D01*
X150654973Y-110098173D01*
X150665714Y-110106306D01*
X150685048Y-110120945D01*
X150717005Y-110141482D01*
X150721263Y-110144157D01*
X150817461Y-110178323D01*
X150886723Y-110187507D01*
X150886722Y-110187507D01*
X150892063Y-110187804D01*
X150924027Y-110189585D01*
X151023424Y-110166318D01*
X151086657Y-110136597D01*
X151145024Y-110098175D01*
X151162701Y-110082513D01*
X151187289Y-110065541D01*
X151245582Y-110034946D01*
X151273512Y-110024353D01*
X151337424Y-110008601D01*
X151367092Y-110005000D01*
X151432906Y-110005000D01*
X151462580Y-110008603D01*
X151526475Y-110024351D01*
X151554422Y-110034949D01*
X151610323Y-110064289D01*
X151612701Y-110065537D01*
X151637298Y-110082515D01*
X151654972Y-110098172D01*
X151654973Y-110098173D01*
X151665714Y-110106306D01*
X151685048Y-110120945D01*
X151717005Y-110141482D01*
X151721263Y-110144157D01*
X151817461Y-110178323D01*
X151886723Y-110187507D01*
X151886722Y-110187507D01*
X151892063Y-110187804D01*
X151924027Y-110189585D01*
X152023424Y-110166318D01*
X152086657Y-110136597D01*
X152145024Y-110098175D01*
X152162701Y-110082513D01*
X152187289Y-110065541D01*
X152245582Y-110034946D01*
X152273512Y-110024353D01*
X152337424Y-110008601D01*
X152367092Y-110005000D01*
X152432906Y-110005000D01*
X152462580Y-110008603D01*
X152479682Y-110012818D01*
X152526478Y-110024352D01*
X152554422Y-110034949D01*
X152639833Y-110079776D01*
X152691088Y-110098175D01*
X152703713Y-110102707D01*
X152703720Y-110102709D01*
X152754619Y-110113342D01*
X152770181Y-110116594D01*
X152805200Y-110121313D01*
X152805200Y-110121312D01*
X152805201Y-110121313D01*
X152822029Y-110118811D01*
X152906176Y-110106307D01*
X152971641Y-110081892D01*
X153032974Y-110048403D01*
X153036137Y-110046035D01*
X153039599Y-110043444D01*
X153070581Y-110026526D01*
X153107335Y-110012818D01*
X153150667Y-110005000D01*
X156294335Y-110005000D01*
X156337667Y-110012818D01*
X156340458Y-110013859D01*
X156368589Y-110024351D01*
X156374416Y-110026524D01*
X156405389Y-110043435D01*
X156433251Y-110064292D01*
X156458205Y-110089246D01*
X156479058Y-110117102D01*
X156495972Y-110148078D01*
X156509681Y-110184832D01*
X156517500Y-110228167D01*
X156517500Y-111851831D01*
X156509681Y-111895166D01*
X156495972Y-111931920D01*
X156479057Y-111962897D01*
X156458205Y-111990751D01*
X156433251Y-112015705D01*
X156405397Y-112036557D01*
X156374420Y-112053472D01*
X156337666Y-112067181D01*
X156294331Y-112075000D01*
X153164708Y-112075000D01*
X153127111Y-112077896D01*
X153127112Y-112077896D01*
X153111324Y-112080343D01*
X153089567Y-112083716D01*
X153087923Y-112083988D01*
X153084601Y-112084538D01*
X153084594Y-112084540D01*
X152989936Y-112122758D01*
X152989935Y-112122758D01*
X152940517Y-112156075D01*
X152932006Y-112161814D01*
X152902711Y-112184990D01*
X152902709Y-112184991D01*
X152843738Y-112268319D01*
X152843736Y-112268323D01*
X152816118Y-112332490D01*
X152816115Y-112332498D01*
X152797906Y-112399955D01*
X152788152Y-112480282D01*
X152780998Y-112509304D01*
X152757663Y-112570834D01*
X152743771Y-112597303D01*
X152706386Y-112651464D01*
X152686563Y-112673839D01*
X152637305Y-112717478D01*
X152612703Y-112734460D01*
X152554423Y-112765047D01*
X152526476Y-112775646D01*
X152483279Y-112786294D01*
X152462581Y-112791396D01*
X152432905Y-112795000D01*
X152367099Y-112795000D01*
X152337422Y-112791396D01*
X152273517Y-112775644D01*
X152245568Y-112765044D01*
X152187298Y-112734461D01*
X152162698Y-112717482D01*
X152141014Y-112698272D01*
X152113434Y-112673839D01*
X152093616Y-112651468D01*
X152056228Y-112597303D01*
X152042338Y-112570839D01*
X152018998Y-112509299D01*
X152011844Y-112480276D01*
X152003912Y-112414939D01*
X152003912Y-112385054D01*
X152006506Y-112363690D01*
X152011844Y-112319719D01*
X152018996Y-112290702D01*
X152042338Y-112229158D01*
X152056227Y-112202695D01*
X152122577Y-112106575D01*
X152129180Y-112096301D01*
X152160364Y-112024932D01*
X152176379Y-111962897D01*
X152177828Y-111957286D01*
X152179373Y-111948624D01*
X152184388Y-111920501D01*
X152173270Y-111819024D01*
X152151387Y-111752670D01*
X152120281Y-111690099D01*
X152056227Y-111597301D01*
X152042336Y-111570834D01*
X152018999Y-111509302D01*
X152011844Y-111480273D01*
X152003913Y-111414942D01*
X152003913Y-111385059D01*
X152011846Y-111319719D01*
X152019000Y-111290696D01*
X152039291Y-111237195D01*
X152041909Y-111229539D01*
X152041910Y-111229537D01*
X152047867Y-111210043D01*
X152058215Y-111124805D01*
X152054376Y-111055041D01*
X152049492Y-111018008D01*
X152008173Y-110924660D01*
X151967227Y-110868045D01*
X151956364Y-110855209D01*
X151943090Y-110839522D01*
X151870091Y-110791397D01*
X151857861Y-110783334D01*
X151857859Y-110783333D01*
X151857856Y-110783331D01*
X151792807Y-110757845D01*
X151757094Y-110746904D01*
X151757089Y-110746903D01*
X151655012Y-110745711D01*
X151655011Y-110745711D01*
X151655006Y-110745711D01*
X151617080Y-110753311D01*
X151617067Y-110753314D01*
X151586507Y-110759438D01*
X151586505Y-110759438D01*
X151586503Y-110759439D01*
X151586502Y-110759439D01*
X151576297Y-110763055D01*
X151570425Y-110764814D01*
X151462579Y-110791397D01*
X151432903Y-110795000D01*
X151367099Y-110795000D01*
X151337422Y-110791396D01*
X151273517Y-110775644D01*
X151245568Y-110765044D01*
X151187298Y-110734461D01*
X151162699Y-110717483D01*
X151145025Y-110701825D01*
X151145024Y-110701825D01*
X151145021Y-110701822D01*
X151114950Y-110679053D01*
X151082995Y-110658517D01*
X151079991Y-110656630D01*
X151078732Y-110655838D01*
X150982535Y-110621675D01*
X150913271Y-110612492D01*
X150913272Y-110612492D01*
X150894621Y-110611453D01*
X150875971Y-110610414D01*
X150875970Y-110610414D01*
X150875965Y-110610414D01*
X150776575Y-110633680D01*
X150713346Y-110663399D01*
X150713336Y-110663404D01*
X150654974Y-110701824D01*
X150654968Y-110701829D01*
X150637296Y-110717485D01*
X150612698Y-110734463D01*
X150554424Y-110765047D01*
X150526477Y-110775646D01*
X150495301Y-110783331D01*
X150462581Y-110791396D01*
X150432905Y-110795000D01*
X150367099Y-110795000D01*
X150337422Y-110791396D01*
X150273517Y-110775644D01*
X150245568Y-110765044D01*
X150187298Y-110734461D01*
X150162699Y-110717483D01*
X150145025Y-110701825D01*
X150145024Y-110701825D01*
X150145021Y-110701822D01*
X150114950Y-110679053D01*
X150082995Y-110658517D01*
X150079991Y-110656630D01*
X150078732Y-110655838D01*
X149982535Y-110621675D01*
X149913271Y-110612492D01*
X149913272Y-110612492D01*
X149894621Y-110611453D01*
X149875971Y-110610414D01*
X149875970Y-110610414D01*
X149875965Y-110610414D01*
X149776575Y-110633680D01*
X149713346Y-110663399D01*
X149713336Y-110663404D01*
X149654974Y-110701824D01*
X149654968Y-110701829D01*
X149637296Y-110717485D01*
X149612698Y-110734463D01*
X149554424Y-110765047D01*
X149526477Y-110775646D01*
X149495301Y-110783331D01*
X149462581Y-110791396D01*
X149432905Y-110795000D01*
X149367099Y-110795000D01*
X149337422Y-110791396D01*
X149273517Y-110775644D01*
X149245568Y-110765044D01*
X149187298Y-110734461D01*
X149162698Y-110717482D01*
X149125934Y-110684913D01*
X149113434Y-110673839D01*
X149093616Y-110651468D01*
X149056228Y-110597304D01*
X149042338Y-110570839D01*
X149018998Y-110509299D01*
X149011844Y-110480276D01*
X149003912Y-110414939D01*
X149003912Y-110385058D01*
X149011845Y-110319717D01*
X149018997Y-110290701D01*
X149042338Y-110229158D01*
X149056223Y-110202701D01*
X149093615Y-110148529D01*
X149113433Y-110126161D01*
X149118082Y-110122043D01*
X149145026Y-110098172D01*
X149162697Y-110082517D01*
X149187298Y-110065536D01*
X149219942Y-110048403D01*
X149245576Y-110034949D01*
X149273520Y-110024351D01*
X149326061Y-110011402D01*
X149337419Y-110008603D01*
X149367092Y-110005000D01*
X149432906Y-110005000D01*
X149462580Y-110008603D01*
G37*
%TD.AperFunction*%
%TD*%
%TA.AperFunction,Conductor*%
%TO.N,/Vbus2_out*%
G36*
X152462580Y-104608603D02*
G01*
X152526471Y-104624350D01*
X152554422Y-104634950D01*
X152612705Y-104665539D01*
X152637307Y-104682521D01*
X152686556Y-104726152D01*
X152706377Y-104748525D01*
X152743771Y-104802697D01*
X152757665Y-104829169D01*
X152793780Y-104924398D01*
X152806111Y-104957683D01*
X152857298Y-105040385D01*
X152857301Y-105040389D01*
X152857303Y-105040392D01*
X152905116Y-105091341D01*
X152932677Y-105116556D01*
X153024358Y-105161455D01*
X153024362Y-105161456D01*
X153092129Y-105178468D01*
X153092130Y-105178468D01*
X153128949Y-105184780D01*
X153128949Y-105184779D01*
X153128950Y-105184780D01*
X153230350Y-105172983D01*
X153296556Y-105150656D01*
X153358918Y-105119131D01*
X153434145Y-105066456D01*
X153452849Y-105055657D01*
X153597329Y-104988286D01*
X153617627Y-104980897D01*
X153771608Y-104939637D01*
X153792888Y-104935885D01*
X153914619Y-104925235D01*
X153920022Y-104925000D01*
X155524977Y-104925000D01*
X155530380Y-104925235D01*
X155652102Y-104935884D01*
X155673382Y-104939636D01*
X155827365Y-104980895D01*
X155847662Y-104988283D01*
X155992144Y-105055655D01*
X156010857Y-105066459D01*
X156082399Y-105116553D01*
X156141441Y-105157894D01*
X156157999Y-105171788D01*
X156270712Y-105284501D01*
X156284606Y-105301059D01*
X156376036Y-105431636D01*
X156386843Y-105450354D01*
X156454209Y-105594820D01*
X156461602Y-105615131D01*
X156502860Y-105769108D01*
X156506613Y-105790394D01*
X156520507Y-105949191D01*
X156520507Y-105970807D01*
X156506613Y-106129602D01*
X156502860Y-106150887D01*
X156461602Y-106304865D01*
X156454209Y-106325176D01*
X156386843Y-106469644D01*
X156376036Y-106488364D01*
X156284607Y-106618938D01*
X156270713Y-106635495D01*
X156157995Y-106748213D01*
X156141437Y-106762107D01*
X156010859Y-106853538D01*
X155992141Y-106864345D01*
X155847678Y-106931709D01*
X155827367Y-106939102D01*
X155673390Y-106980360D01*
X155652105Y-106984113D01*
X155566391Y-106991613D01*
X155530377Y-106994764D01*
X155524976Y-106995000D01*
X153920024Y-106995000D01*
X153914622Y-106994764D01*
X153874043Y-106991213D01*
X153792893Y-106984113D01*
X153771608Y-106980360D01*
X153617631Y-106939102D01*
X153597320Y-106931709D01*
X153452861Y-106864346D01*
X153434145Y-106853541D01*
X153368648Y-106807681D01*
X153368646Y-106807680D01*
X153337336Y-106789585D01*
X153331791Y-106786380D01*
X153292979Y-106768239D01*
X153288451Y-106766233D01*
X153283925Y-106764228D01*
X153183623Y-106745202D01*
X153113768Y-106746739D01*
X153076599Y-106750399D01*
X152981935Y-106788619D01*
X152942680Y-106815085D01*
X152924006Y-106827674D01*
X152894704Y-106850857D01*
X152835738Y-106934181D01*
X152835735Y-106934186D01*
X152808118Y-106998355D01*
X152808114Y-106998368D01*
X152789906Y-107065826D01*
X152788150Y-107080288D01*
X152780997Y-107109305D01*
X152757663Y-107170833D01*
X152743771Y-107197303D01*
X152706386Y-107251464D01*
X152686563Y-107273839D01*
X152637305Y-107317478D01*
X152612703Y-107334460D01*
X152554423Y-107365047D01*
X152526476Y-107375646D01*
X152483279Y-107386294D01*
X152462581Y-107391396D01*
X152432905Y-107395000D01*
X152367099Y-107395000D01*
X152337422Y-107391396D01*
X152273517Y-107375644D01*
X152245568Y-107365044D01*
X152187298Y-107334461D01*
X152162699Y-107317483D01*
X152145025Y-107301825D01*
X152145024Y-107301825D01*
X152145021Y-107301822D01*
X152114950Y-107279053D01*
X152082995Y-107258517D01*
X152079991Y-107256630D01*
X152078732Y-107255838D01*
X151982535Y-107221675D01*
X151913271Y-107212492D01*
X151913272Y-107212492D01*
X151894621Y-107211453D01*
X151875971Y-107210414D01*
X151875970Y-107210414D01*
X151875965Y-107210414D01*
X151776575Y-107233680D01*
X151713346Y-107263399D01*
X151713336Y-107263404D01*
X151654974Y-107301824D01*
X151654968Y-107301829D01*
X151637296Y-107317485D01*
X151612698Y-107334463D01*
X151554424Y-107365047D01*
X151526477Y-107375646D01*
X151493621Y-107383744D01*
X151462581Y-107391396D01*
X151432905Y-107395000D01*
X151367099Y-107395000D01*
X151337422Y-107391396D01*
X151273517Y-107375644D01*
X151245568Y-107365044D01*
X151187298Y-107334461D01*
X151162699Y-107317483D01*
X151145025Y-107301825D01*
X151145024Y-107301825D01*
X151145021Y-107301822D01*
X151114950Y-107279053D01*
X151082995Y-107258517D01*
X151079991Y-107256630D01*
X151078732Y-107255838D01*
X150982535Y-107221675D01*
X150913271Y-107212492D01*
X150913272Y-107212492D01*
X150894621Y-107211453D01*
X150875971Y-107210414D01*
X150875970Y-107210414D01*
X150875965Y-107210414D01*
X150776575Y-107233680D01*
X150713346Y-107263399D01*
X150713336Y-107263404D01*
X150654974Y-107301824D01*
X150654968Y-107301829D01*
X150637296Y-107317485D01*
X150612698Y-107334463D01*
X150554424Y-107365047D01*
X150526477Y-107375646D01*
X150493621Y-107383744D01*
X150462581Y-107391396D01*
X150432905Y-107395000D01*
X150367099Y-107395000D01*
X150337422Y-107391396D01*
X150273517Y-107375644D01*
X150245568Y-107365044D01*
X150187298Y-107334461D01*
X150162699Y-107317483D01*
X150145025Y-107301825D01*
X150145024Y-107301825D01*
X150145021Y-107301822D01*
X150114950Y-107279053D01*
X150082995Y-107258517D01*
X150079991Y-107256630D01*
X150078732Y-107255838D01*
X149982535Y-107221675D01*
X149913271Y-107212492D01*
X149913272Y-107212492D01*
X149894621Y-107211453D01*
X149875971Y-107210414D01*
X149875970Y-107210414D01*
X149875965Y-107210414D01*
X149776575Y-107233680D01*
X149713346Y-107263399D01*
X149713336Y-107263404D01*
X149654974Y-107301824D01*
X149654968Y-107301829D01*
X149637296Y-107317485D01*
X149612698Y-107334463D01*
X149554424Y-107365047D01*
X149526477Y-107375646D01*
X149493621Y-107383744D01*
X149462581Y-107391396D01*
X149432905Y-107395000D01*
X149367099Y-107395000D01*
X149337422Y-107391396D01*
X149273517Y-107375644D01*
X149245568Y-107365044D01*
X149187298Y-107334461D01*
X149162698Y-107317482D01*
X149119677Y-107279370D01*
X149113434Y-107273839D01*
X149093616Y-107251468D01*
X149056228Y-107197303D01*
X149042338Y-107170839D01*
X149027448Y-107131578D01*
X149018997Y-107109297D01*
X149011844Y-107080276D01*
X149003912Y-107014939D01*
X149003912Y-106985054D01*
X149004027Y-106984113D01*
X149011844Y-106919719D01*
X149018997Y-106890701D01*
X149042338Y-106829158D01*
X149056223Y-106802701D01*
X149093615Y-106748529D01*
X149113433Y-106726161D01*
X149117285Y-106722749D01*
X149162697Y-106682517D01*
X149187298Y-106665536D01*
X149205395Y-106656038D01*
X149245576Y-106634949D01*
X149273520Y-106624351D01*
X149326061Y-106611402D01*
X149337419Y-106608603D01*
X149367092Y-106605000D01*
X149432906Y-106605000D01*
X149462580Y-106608603D01*
X149526475Y-106624351D01*
X149554422Y-106634949D01*
X149612699Y-106665536D01*
X149612701Y-106665537D01*
X149637298Y-106682515D01*
X149654972Y-106698172D01*
X149654973Y-106698173D01*
X149654976Y-106698175D01*
X149685048Y-106720945D01*
X149717005Y-106741482D01*
X149721263Y-106744157D01*
X149817461Y-106778323D01*
X149886723Y-106787507D01*
X149886722Y-106787507D01*
X149892063Y-106787804D01*
X149924027Y-106789585D01*
X150023424Y-106766318D01*
X150086657Y-106736597D01*
X150145024Y-106698175D01*
X150162701Y-106682513D01*
X150187289Y-106665541D01*
X150245582Y-106634946D01*
X150273512Y-106624353D01*
X150337424Y-106608601D01*
X150367092Y-106605000D01*
X150432906Y-106605000D01*
X150462580Y-106608603D01*
X150526475Y-106624351D01*
X150554422Y-106634949D01*
X150612699Y-106665536D01*
X150612701Y-106665537D01*
X150637298Y-106682515D01*
X150654972Y-106698172D01*
X150654973Y-106698173D01*
X150654976Y-106698175D01*
X150685048Y-106720945D01*
X150717005Y-106741482D01*
X150721263Y-106744157D01*
X150817461Y-106778323D01*
X150886723Y-106787507D01*
X150886722Y-106787507D01*
X150892063Y-106787804D01*
X150924027Y-106789585D01*
X151023424Y-106766318D01*
X151086657Y-106736597D01*
X151145024Y-106698175D01*
X151162701Y-106682513D01*
X151187289Y-106665541D01*
X151245582Y-106634946D01*
X151273512Y-106624353D01*
X151337424Y-106608601D01*
X151367092Y-106605000D01*
X151432904Y-106605000D01*
X151462578Y-106608603D01*
X151487684Y-106614790D01*
X151540138Y-106627719D01*
X151545358Y-106629252D01*
X151550151Y-106630891D01*
X151550162Y-106630896D01*
X151633505Y-106651436D01*
X151703223Y-106656038D01*
X151703229Y-106656037D01*
X151703230Y-106656038D01*
X151703231Y-106656038D01*
X151724572Y-106655819D01*
X151740584Y-106655655D01*
X151838233Y-106625890D01*
X151899371Y-106592068D01*
X151930589Y-106571550D01*
X151996645Y-106493718D01*
X152029792Y-106432212D01*
X152044961Y-106398074D01*
X152058453Y-106296885D01*
X152053086Y-106227222D01*
X152037857Y-106159024D01*
X152019000Y-106109301D01*
X152011846Y-106080279D01*
X152003912Y-106014937D01*
X152003912Y-105985057D01*
X152011844Y-105919717D01*
X152018996Y-105890702D01*
X152042338Y-105829158D01*
X152056227Y-105802695D01*
X152122577Y-105706575D01*
X152129180Y-105696301D01*
X152160364Y-105624932D01*
X152170583Y-105585344D01*
X152177828Y-105557286D01*
X152179159Y-105549820D01*
X152184388Y-105520501D01*
X152176703Y-105450354D01*
X152173271Y-105419031D01*
X152173270Y-105419028D01*
X152173270Y-105419024D01*
X152151387Y-105352670D01*
X152120281Y-105290099D01*
X152116417Y-105284501D01*
X152056227Y-105197301D01*
X152042336Y-105170834D01*
X152039788Y-105164116D01*
X152018998Y-105109298D01*
X152011844Y-105080275D01*
X152010167Y-105066461D01*
X152003912Y-105014939D01*
X152003912Y-104985054D01*
X152004077Y-104983703D01*
X152011844Y-104919719D01*
X152018997Y-104890701D01*
X152042338Y-104829158D01*
X152056223Y-104802701D01*
X152093615Y-104748529D01*
X152113433Y-104726161D01*
X152113444Y-104726152D01*
X152162697Y-104682517D01*
X152187298Y-104665536D01*
X152195708Y-104661121D01*
X152245576Y-104634949D01*
X152273520Y-104624351D01*
X152326061Y-104611402D01*
X152337419Y-104608603D01*
X152367092Y-104605000D01*
X152432906Y-104605000D01*
X152462580Y-104608603D01*
G37*
%TD.AperFunction*%
%TD*%
%TA.AperFunction,Conductor*%
%TO.N,VIN*%
G36*
X152462580Y-118808603D02*
G01*
X152526471Y-118824350D01*
X152554422Y-118834950D01*
X152612705Y-118865539D01*
X152637307Y-118882521D01*
X152686556Y-118926152D01*
X152706378Y-118948526D01*
X152743771Y-119002698D01*
X152757664Y-119029167D01*
X152798209Y-119136074D01*
X152799572Y-119140073D01*
X152803274Y-119152287D01*
X152806344Y-119161722D01*
X152806351Y-119161738D01*
X152859199Y-119249062D01*
X152859202Y-119249067D01*
X152907018Y-119300018D01*
X152934570Y-119325225D01*
X152934571Y-119325225D01*
X152934574Y-119325228D01*
X153026255Y-119370127D01*
X153026259Y-119370128D01*
X153094026Y-119387140D01*
X153094027Y-119387140D01*
X153130846Y-119393452D01*
X153130846Y-119393451D01*
X153130847Y-119393452D01*
X153232247Y-119381655D01*
X153298453Y-119359328D01*
X153360815Y-119327803D01*
X153434145Y-119276456D01*
X153452849Y-119265657D01*
X153597329Y-119198286D01*
X153617627Y-119190897D01*
X153771608Y-119149637D01*
X153792888Y-119145885D01*
X153914619Y-119135235D01*
X153920022Y-119135000D01*
X155524977Y-119135000D01*
X155530380Y-119135235D01*
X155652102Y-119145884D01*
X155673382Y-119149636D01*
X155827365Y-119190895D01*
X155847662Y-119198283D01*
X155992144Y-119265655D01*
X156010857Y-119276459D01*
X156129202Y-119359324D01*
X156141441Y-119367894D01*
X156157999Y-119381788D01*
X156270712Y-119494501D01*
X156284606Y-119511059D01*
X156376036Y-119641636D01*
X156386834Y-119660335D01*
X156388374Y-119663637D01*
X156400000Y-119716058D01*
X156400000Y-120623939D01*
X156388372Y-120676366D01*
X156386831Y-120679669D01*
X156376034Y-120698365D01*
X156284607Y-120828937D01*
X156270713Y-120845495D01*
X156157995Y-120958213D01*
X156141437Y-120972107D01*
X156010859Y-121063538D01*
X155992141Y-121074345D01*
X155847678Y-121141709D01*
X155827367Y-121149102D01*
X155673390Y-121190360D01*
X155652105Y-121194113D01*
X155566391Y-121201613D01*
X155530377Y-121204764D01*
X155524976Y-121205000D01*
X153920024Y-121205000D01*
X153914622Y-121204764D01*
X153874043Y-121201213D01*
X153792893Y-121194113D01*
X153771608Y-121190360D01*
X153617631Y-121149102D01*
X153597321Y-121141709D01*
X153452860Y-121074346D01*
X153434141Y-121063539D01*
X153367528Y-121016896D01*
X153367528Y-121016897D01*
X153367526Y-121016896D01*
X153342958Y-121002697D01*
X153330668Y-120995594D01*
X153330666Y-120995593D01*
X153291856Y-120977453D01*
X153282807Y-120973445D01*
X153282805Y-120973444D01*
X153282804Y-120973444D01*
X153193221Y-120956451D01*
X153182503Y-120954418D01*
X153112649Y-120955955D01*
X153075480Y-120959615D01*
X152980816Y-120997835D01*
X152931398Y-121031152D01*
X152922887Y-121036890D01*
X152893585Y-121060073D01*
X152834619Y-121143397D01*
X152834616Y-121143402D01*
X152806998Y-121207573D01*
X152806997Y-121207577D01*
X152788788Y-121275040D01*
X152788786Y-121275053D01*
X152788149Y-121280296D01*
X152780998Y-121309304D01*
X152757664Y-121370833D01*
X152743771Y-121397303D01*
X152706386Y-121451464D01*
X152686563Y-121473839D01*
X152637305Y-121517478D01*
X152612703Y-121534460D01*
X152554423Y-121565047D01*
X152526476Y-121575646D01*
X152483279Y-121586294D01*
X152462581Y-121591396D01*
X152432905Y-121595000D01*
X152367099Y-121595000D01*
X152337422Y-121591396D01*
X152273517Y-121575644D01*
X152245568Y-121565044D01*
X152187298Y-121534461D01*
X152162699Y-121517483D01*
X152145025Y-121501825D01*
X152145024Y-121501825D01*
X152145021Y-121501822D01*
X152114950Y-121479053D01*
X152082995Y-121458517D01*
X152079991Y-121456630D01*
X152078732Y-121455838D01*
X151982535Y-121421675D01*
X151913271Y-121412492D01*
X151913272Y-121412492D01*
X151894620Y-121411453D01*
X151875971Y-121410414D01*
X151875970Y-121410414D01*
X151875965Y-121410414D01*
X151776575Y-121433680D01*
X151713346Y-121463399D01*
X151713336Y-121463404D01*
X151665725Y-121494747D01*
X151654981Y-121501821D01*
X151654979Y-121501822D01*
X151654968Y-121501829D01*
X151637296Y-121517485D01*
X151612698Y-121534463D01*
X151554424Y-121565047D01*
X151526477Y-121575646D01*
X151493621Y-121583744D01*
X151462581Y-121591396D01*
X151432905Y-121595000D01*
X151367099Y-121595000D01*
X151337422Y-121591396D01*
X151273517Y-121575644D01*
X151245568Y-121565044D01*
X151187298Y-121534461D01*
X151162700Y-121517483D01*
X151145021Y-121501822D01*
X151114942Y-121479047D01*
X151097503Y-121467841D01*
X151082991Y-121458515D01*
X151078728Y-121455837D01*
X151078726Y-121455836D01*
X151078722Y-121455834D01*
X150982534Y-121421675D01*
X150982526Y-121421673D01*
X150928509Y-121414512D01*
X150913266Y-121412492D01*
X150875967Y-121410415D01*
X150776570Y-121433682D01*
X150729433Y-121455839D01*
X150713339Y-121463404D01*
X150713333Y-121463407D01*
X150713327Y-121463411D01*
X150654980Y-121501821D01*
X150654980Y-121501822D01*
X150654974Y-121501826D01*
X150637302Y-121517482D01*
X150612702Y-121534461D01*
X150554424Y-121565047D01*
X150526477Y-121575646D01*
X150493621Y-121583744D01*
X150462581Y-121591396D01*
X150432905Y-121595000D01*
X150367099Y-121595000D01*
X150337422Y-121591396D01*
X150273517Y-121575644D01*
X150245568Y-121565044D01*
X150187298Y-121534461D01*
X150162699Y-121517483D01*
X150145025Y-121501825D01*
X150145024Y-121501825D01*
X150145021Y-121501822D01*
X150114950Y-121479053D01*
X150082995Y-121458517D01*
X150079991Y-121456630D01*
X150078732Y-121455838D01*
X149982535Y-121421675D01*
X149913271Y-121412492D01*
X149913272Y-121412492D01*
X149894620Y-121411453D01*
X149875971Y-121410414D01*
X149875970Y-121410414D01*
X149875965Y-121410414D01*
X149776575Y-121433680D01*
X149713346Y-121463399D01*
X149713336Y-121463404D01*
X149665725Y-121494747D01*
X149654981Y-121501821D01*
X149654979Y-121501822D01*
X149654968Y-121501829D01*
X149637296Y-121517485D01*
X149612698Y-121534463D01*
X149554424Y-121565047D01*
X149526477Y-121575646D01*
X149493621Y-121583744D01*
X149462581Y-121591396D01*
X149432905Y-121595000D01*
X149367099Y-121595000D01*
X149337422Y-121591396D01*
X149273517Y-121575644D01*
X149245568Y-121565044D01*
X149187298Y-121534461D01*
X149162698Y-121517482D01*
X149125214Y-121484275D01*
X149113434Y-121473839D01*
X149093616Y-121451468D01*
X149056228Y-121397303D01*
X149042338Y-121370839D01*
X149018998Y-121309299D01*
X149011844Y-121280276D01*
X149003912Y-121214939D01*
X149003912Y-121185058D01*
X149011845Y-121119717D01*
X149018997Y-121090701D01*
X149042338Y-121029158D01*
X149056223Y-121002701D01*
X149093615Y-120948529D01*
X149113433Y-120926161D01*
X149162697Y-120882517D01*
X149187298Y-120865536D01*
X149205395Y-120856038D01*
X149245576Y-120834949D01*
X149273520Y-120824351D01*
X149326061Y-120811402D01*
X149337419Y-120808603D01*
X149367092Y-120805000D01*
X149432906Y-120805000D01*
X149462580Y-120808603D01*
X149526475Y-120824351D01*
X149554422Y-120834949D01*
X149612699Y-120865536D01*
X149612701Y-120865537D01*
X149637298Y-120882515D01*
X149654972Y-120898172D01*
X149654973Y-120898173D01*
X149654976Y-120898175D01*
X149685048Y-120920945D01*
X149717005Y-120941482D01*
X149721263Y-120944157D01*
X149817461Y-120978323D01*
X149886723Y-120987507D01*
X149886722Y-120987507D01*
X149892063Y-120987804D01*
X149924027Y-120989585D01*
X150023424Y-120966318D01*
X150086657Y-120936597D01*
X150145024Y-120898175D01*
X150162701Y-120882513D01*
X150187289Y-120865541D01*
X150245582Y-120834946D01*
X150273512Y-120824353D01*
X150337424Y-120808601D01*
X150367092Y-120805000D01*
X150432906Y-120805000D01*
X150462580Y-120808603D01*
X150526475Y-120824351D01*
X150554422Y-120834949D01*
X150612699Y-120865536D01*
X150612701Y-120865537D01*
X150637298Y-120882515D01*
X150654972Y-120898172D01*
X150654973Y-120898173D01*
X150654976Y-120898175D01*
X150685048Y-120920945D01*
X150717005Y-120941482D01*
X150721263Y-120944157D01*
X150817461Y-120978323D01*
X150886723Y-120987507D01*
X150886722Y-120987507D01*
X150892063Y-120987804D01*
X150924027Y-120989585D01*
X151023424Y-120966318D01*
X151086657Y-120936597D01*
X151145024Y-120898175D01*
X151162701Y-120882513D01*
X151187289Y-120865541D01*
X151245582Y-120834946D01*
X151273512Y-120824353D01*
X151337424Y-120808601D01*
X151367092Y-120805000D01*
X151432904Y-120805000D01*
X151462578Y-120808603D01*
X151487684Y-120814790D01*
X151540138Y-120827719D01*
X151545358Y-120829252D01*
X151550151Y-120830891D01*
X151550162Y-120830896D01*
X151633505Y-120851436D01*
X151703223Y-120856038D01*
X151703229Y-120856037D01*
X151703230Y-120856038D01*
X151703231Y-120856038D01*
X151724572Y-120855819D01*
X151740584Y-120855655D01*
X151838233Y-120825890D01*
X151899371Y-120792068D01*
X151930589Y-120771550D01*
X151996645Y-120693718D01*
X152029792Y-120632212D01*
X152044961Y-120598074D01*
X152058453Y-120496885D01*
X152053086Y-120427222D01*
X152037857Y-120359024D01*
X152019000Y-120309301D01*
X152011846Y-120280279D01*
X152003912Y-120214937D01*
X152003912Y-120185057D01*
X152011844Y-120119717D01*
X152018996Y-120090702D01*
X152042338Y-120029158D01*
X152056227Y-120002695D01*
X152122577Y-119906575D01*
X152129180Y-119896301D01*
X152160364Y-119824932D01*
X152170583Y-119785344D01*
X152177828Y-119757286D01*
X152178343Y-119754397D01*
X152184388Y-119720501D01*
X152173270Y-119619024D01*
X152151387Y-119552670D01*
X152120281Y-119490099D01*
X152076970Y-119427353D01*
X152056227Y-119397301D01*
X152042336Y-119370834D01*
X152018998Y-119309298D01*
X152011844Y-119280274D01*
X152010064Y-119265613D01*
X152003912Y-119214939D01*
X152003912Y-119185058D01*
X152011845Y-119119717D01*
X152018997Y-119090701D01*
X152042338Y-119029158D01*
X152056223Y-119002701D01*
X152093615Y-118948529D01*
X152113433Y-118926161D01*
X152113444Y-118926152D01*
X152162697Y-118882517D01*
X152187298Y-118865536D01*
X152195708Y-118861121D01*
X152245576Y-118834949D01*
X152273520Y-118824351D01*
X152326061Y-118811402D01*
X152337419Y-118808603D01*
X152367092Y-118805000D01*
X152432906Y-118805000D01*
X152462580Y-118808603D01*
G37*
%TD.AperFunction*%
%TA.AperFunction,Conductor*%
G36*
X125074425Y-117611522D02*
G01*
X125126477Y-117624353D01*
X125154424Y-117634952D01*
X125212703Y-117665538D01*
X125237301Y-117682516D01*
X125311414Y-117748174D01*
X125330944Y-117762971D01*
X125341370Y-117770870D01*
X125341369Y-117770869D01*
X125373203Y-117791353D01*
X125377355Y-117793966D01*
X125473516Y-117828234D01*
X125542769Y-117837492D01*
X125580067Y-117839611D01*
X125679490Y-117816451D01*
X125701627Y-117806074D01*
X125713559Y-117804238D01*
X125747567Y-117786388D01*
X125747568Y-117786389D01*
X125845582Y-117734946D01*
X125873512Y-117724353D01*
X125937424Y-117708601D01*
X125967092Y-117705000D01*
X126032906Y-117705000D01*
X126062580Y-117708603D01*
X126126471Y-117724350D01*
X126154422Y-117734950D01*
X126212705Y-117765539D01*
X126237302Y-117782517D01*
X126275606Y-117816451D01*
X126304978Y-117842473D01*
X126304977Y-117842472D01*
X126335041Y-117865237D01*
X126359404Y-117880894D01*
X126366999Y-117885775D01*
X126371262Y-117888453D01*
X126467459Y-117922619D01*
X126516857Y-117929169D01*
X126536720Y-117931803D01*
X126536719Y-117931803D01*
X126542328Y-117932115D01*
X126574025Y-117933881D01*
X126673422Y-117910614D01*
X126736655Y-117880893D01*
X126795022Y-117842471D01*
X126862693Y-117782518D01*
X126887294Y-117765538D01*
X126894790Y-117761603D01*
X126945576Y-117734949D01*
X126973520Y-117724351D01*
X127030363Y-117710342D01*
X127037419Y-117708603D01*
X127067092Y-117705000D01*
X127132906Y-117705000D01*
X127162580Y-117708603D01*
X127226471Y-117724350D01*
X127254422Y-117734950D01*
X127312705Y-117765539D01*
X127337307Y-117782521D01*
X127386556Y-117826152D01*
X127406377Y-117848525D01*
X127443771Y-117902697D01*
X127457665Y-117929169D01*
X127480999Y-117990697D01*
X127488152Y-118019716D01*
X127489352Y-118029591D01*
X127496086Y-118085053D01*
X127496086Y-118114948D01*
X127488152Y-118180281D01*
X127480998Y-118209302D01*
X127457663Y-118270833D01*
X127443772Y-118297302D01*
X127428723Y-118319105D01*
X127409854Y-118346439D01*
X127355573Y-118390430D01*
X127307805Y-118400000D01*
X126889991Y-118400000D01*
X126822952Y-118380315D01*
X126807767Y-118368818D01*
X126795029Y-118357533D01*
X126795028Y-118357532D01*
X126795026Y-118357531D01*
X126795025Y-118357530D01*
X126795024Y-118357529D01*
X126764954Y-118334760D01*
X126738066Y-118317480D01*
X126732998Y-118314223D01*
X126728740Y-118311548D01*
X126728737Y-118311547D01*
X126728736Y-118311546D01*
X126678698Y-118293774D01*
X126632541Y-118277380D01*
X126632533Y-118277379D01*
X126563278Y-118268196D01*
X126563279Y-118268196D01*
X126525970Y-118266118D01*
X126426573Y-118289385D01*
X126379428Y-118311546D01*
X126363340Y-118319108D01*
X126363336Y-118319110D01*
X126363331Y-118319113D01*
X126304973Y-118357530D01*
X126304969Y-118357533D01*
X126292234Y-118368816D01*
X126229001Y-118398537D01*
X126210008Y-118400000D01*
X125789991Y-118400000D01*
X125722952Y-118380315D01*
X125707764Y-118368815D01*
X125688579Y-118351819D01*
X125658347Y-118328945D01*
X125626232Y-118308341D01*
X125621812Y-118305571D01*
X125621811Y-118305570D01*
X125621810Y-118305570D01*
X125525560Y-118271550D01*
X125482225Y-118265870D01*
X125456293Y-118262472D01*
X125456287Y-118262471D01*
X125456282Y-118262471D01*
X125418978Y-118260449D01*
X125418977Y-118260449D01*
X125418975Y-118260449D01*
X125319621Y-118283864D01*
X125319611Y-118283868D01*
X125298618Y-118293774D01*
X125286659Y-118295645D01*
X125252430Y-118313610D01*
X125154426Y-118365046D01*
X125126479Y-118375645D01*
X125062579Y-118391396D01*
X125032902Y-118395000D01*
X124967099Y-118395000D01*
X124937422Y-118391396D01*
X124873517Y-118375644D01*
X124845568Y-118365044D01*
X124787296Y-118334460D01*
X124762695Y-118317480D01*
X124759019Y-118314223D01*
X124713437Y-118273841D01*
X124693619Y-118251471D01*
X124656228Y-118197303D01*
X124642336Y-118170833D01*
X124618998Y-118109298D01*
X124611844Y-118080276D01*
X124603912Y-118014939D01*
X124603912Y-117985058D01*
X124611845Y-117919717D01*
X124618997Y-117890701D01*
X124642338Y-117829158D01*
X124656223Y-117802701D01*
X124693615Y-117748529D01*
X124713432Y-117726162D01*
X124713433Y-117726161D01*
X124762700Y-117682513D01*
X124787293Y-117665538D01*
X124845573Y-117634950D01*
X124873518Y-117624352D01*
X124970330Y-117600491D01*
X125029674Y-117600491D01*
X125074425Y-117611522D01*
G37*
%TD.AperFunction*%
%TA.AperFunction,Conductor*%
G36*
X137462580Y-117608603D02*
G01*
X137526471Y-117624350D01*
X137554422Y-117634950D01*
X137612705Y-117665539D01*
X137637307Y-117682521D01*
X137686556Y-117726152D01*
X137706377Y-117748525D01*
X137743771Y-117802697D01*
X137757665Y-117829169D01*
X137780998Y-117890695D01*
X137788152Y-117919717D01*
X137796086Y-117985051D01*
X137796086Y-118014948D01*
X137788152Y-118080281D01*
X137780998Y-118109302D01*
X137757663Y-118170833D01*
X137743771Y-118197303D01*
X137706386Y-118251464D01*
X137686563Y-118273839D01*
X137637305Y-118317478D01*
X137612703Y-118334460D01*
X137554423Y-118365047D01*
X137526476Y-118375646D01*
X137483279Y-118386294D01*
X137462581Y-118391396D01*
X137432905Y-118395000D01*
X137367099Y-118395000D01*
X137337422Y-118391396D01*
X137273517Y-118375644D01*
X137245568Y-118365044D01*
X137187296Y-118334460D01*
X137162695Y-118317480D01*
X137159019Y-118314223D01*
X137113437Y-118273841D01*
X137093619Y-118251471D01*
X137056228Y-118197303D01*
X137042336Y-118170833D01*
X137018998Y-118109298D01*
X137011844Y-118080276D01*
X137003912Y-118014939D01*
X137003912Y-117985058D01*
X137011845Y-117919717D01*
X137018997Y-117890701D01*
X137042338Y-117829158D01*
X137056223Y-117802701D01*
X137093615Y-117748529D01*
X137113433Y-117726161D01*
X137113444Y-117726152D01*
X137162692Y-117682521D01*
X137162697Y-117682517D01*
X137187298Y-117665536D01*
X137195708Y-117661121D01*
X137245576Y-117634949D01*
X137273520Y-117624351D01*
X137326061Y-117611402D01*
X137337419Y-117608603D01*
X137367092Y-117605000D01*
X137432906Y-117605000D01*
X137462580Y-117608603D01*
G37*
%TD.AperFunction*%
%TA.AperFunction,Conductor*%
G36*
X125318860Y-116095185D02*
G01*
X125364615Y-116147989D01*
X125374732Y-116215888D01*
X125372496Y-116232665D01*
X125377863Y-116302329D01*
X125377863Y-116302333D01*
X125377864Y-116302334D01*
X125393091Y-116370530D01*
X125394064Y-116373777D01*
X125398376Y-116394415D01*
X125406346Y-116460051D01*
X125406346Y-116489946D01*
X125398412Y-116555280D01*
X125391258Y-116584302D01*
X125367923Y-116645833D01*
X125354031Y-116672303D01*
X125316646Y-116726464D01*
X125296824Y-116748839D01*
X125247565Y-116792479D01*
X125222962Y-116809461D01*
X125164685Y-116840047D01*
X125136738Y-116850646D01*
X125039934Y-116874506D01*
X124980583Y-116874506D01*
X124883777Y-116850644D01*
X124855828Y-116840044D01*
X124797558Y-116809461D01*
X124772958Y-116792482D01*
X124745862Y-116768478D01*
X124723694Y-116748839D01*
X124703876Y-116726468D01*
X124666488Y-116672303D01*
X124652598Y-116645839D01*
X124642458Y-116619104D01*
X124629257Y-116584297D01*
X124622104Y-116555275D01*
X124614173Y-116489942D01*
X124614173Y-116460056D01*
X124615987Y-116445113D01*
X124622105Y-116394720D01*
X124629272Y-116365662D01*
X124629819Y-116364223D01*
X124633902Y-116351368D01*
X124642384Y-116318515D01*
X124647679Y-116222207D01*
X124647678Y-116222205D01*
X124647679Y-116222203D01*
X124647679Y-116222202D01*
X124646952Y-116217143D01*
X124656897Y-116147985D01*
X124702654Y-116095182D01*
X124769690Y-116075500D01*
X125251821Y-116075500D01*
X125318860Y-116095185D01*
G37*
%TD.AperFunction*%
%TA.AperFunction,Conductor*%
G36*
X133162580Y-116008603D02*
G01*
X133226475Y-116024351D01*
X133254418Y-116034947D01*
X133312710Y-116065542D01*
X133337301Y-116082517D01*
X133404973Y-116142469D01*
X133412971Y-116148525D01*
X133435048Y-116165241D01*
X133467005Y-116185778D01*
X133471263Y-116188453D01*
X133567461Y-116222619D01*
X133636723Y-116231803D01*
X133636722Y-116231803D01*
X133642063Y-116232100D01*
X133674027Y-116233881D01*
X133773424Y-116210614D01*
X133836657Y-116180893D01*
X133895024Y-116142471D01*
X133962704Y-116082510D01*
X133987291Y-116065540D01*
X134045580Y-116034947D01*
X134073512Y-116024353D01*
X134137424Y-116008601D01*
X134167092Y-116005000D01*
X134232906Y-116005000D01*
X134262580Y-116008603D01*
X134326471Y-116024350D01*
X134354422Y-116034950D01*
X134412703Y-116065538D01*
X134437301Y-116082516D01*
X134486556Y-116126152D01*
X134488399Y-116127784D01*
X134504196Y-116144658D01*
X134508002Y-116149571D01*
X134530217Y-116175208D01*
X134547316Y-116188453D01*
X134606461Y-116234269D01*
X134606462Y-116234269D01*
X134606463Y-116234270D01*
X134669028Y-116265374D01*
X134703647Y-116279411D01*
X134703653Y-116279411D01*
X134707799Y-116280437D01*
X134711502Y-116282596D01*
X134711866Y-116282744D01*
X134711844Y-116282796D01*
X134768156Y-116315633D01*
X134799904Y-116377874D01*
X134792961Y-116447398D01*
X134749534Y-116502132D01*
X134700977Y-116522675D01*
X134688612Y-116525001D01*
X134597668Y-116571380D01*
X134597666Y-116571381D01*
X134543386Y-116615369D01*
X134543378Y-116615376D01*
X134503571Y-116658368D01*
X134499189Y-116662654D01*
X134437305Y-116717478D01*
X134412703Y-116734460D01*
X134354423Y-116765047D01*
X134326476Y-116775646D01*
X134283279Y-116786294D01*
X134262581Y-116791396D01*
X134232905Y-116795000D01*
X134167099Y-116795000D01*
X134137422Y-116791396D01*
X134073519Y-116775644D01*
X134045571Y-116765045D01*
X133987301Y-116734463D01*
X133962699Y-116717482D01*
X133911702Y-116672303D01*
X133895027Y-116657529D01*
X133864950Y-116634756D01*
X133864951Y-116634757D01*
X133832992Y-116614219D01*
X133828729Y-116611541D01*
X133828723Y-116611538D01*
X133732535Y-116577379D01*
X133732527Y-116577377D01*
X133663267Y-116568196D01*
X133625973Y-116566119D01*
X133625972Y-116566119D01*
X133526573Y-116589385D01*
X133463345Y-116619104D01*
X133463338Y-116619108D01*
X133404979Y-116657525D01*
X133337302Y-116717481D01*
X133312701Y-116734461D01*
X133254423Y-116765047D01*
X133226476Y-116775646D01*
X133183279Y-116786294D01*
X133162581Y-116791396D01*
X133132905Y-116795000D01*
X133067099Y-116795000D01*
X133037422Y-116791396D01*
X132972450Y-116775381D01*
X132955800Y-116769712D01*
X132955787Y-116769750D01*
X132953696Y-116768996D01*
X132952174Y-116768478D01*
X132951790Y-116768309D01*
X132888558Y-116745512D01*
X132888554Y-116745511D01*
X132851812Y-116737730D01*
X132822769Y-116731579D01*
X132788426Y-116726809D01*
X132779727Y-116726827D01*
X132779720Y-116723747D01*
X132725531Y-116715900D01*
X132672774Y-116670091D01*
X132662597Y-116650610D01*
X132659544Y-116643239D01*
X132659544Y-116643238D01*
X132608314Y-116519557D01*
X132606253Y-116514582D01*
X132598784Y-116445113D01*
X132630059Y-116382634D01*
X132639673Y-116373364D01*
X132663913Y-116352392D01*
X132706091Y-116296690D01*
X132739916Y-116235545D01*
X132742331Y-116229174D01*
X132756227Y-116202696D01*
X132771277Y-116180893D01*
X132793612Y-116148534D01*
X132813427Y-116126167D01*
X132862699Y-116082514D01*
X132887298Y-116065536D01*
X132895708Y-116061121D01*
X132945576Y-116034949D01*
X132973520Y-116024351D01*
X133026061Y-116011402D01*
X133037419Y-116008603D01*
X133067092Y-116005000D01*
X133132906Y-116005000D01*
X133162580Y-116008603D01*
G37*
%TD.AperFunction*%
%TA.AperFunction,Conductor*%
G36*
X135462580Y-116008603D02*
G01*
X135526475Y-116024351D01*
X135554422Y-116034949D01*
X135612697Y-116065535D01*
X135612701Y-116065537D01*
X135637298Y-116082515D01*
X135654972Y-116098172D01*
X135654973Y-116098173D01*
X135654976Y-116098175D01*
X135685048Y-116120945D01*
X135717005Y-116141482D01*
X135721263Y-116144157D01*
X135817461Y-116178323D01*
X135886723Y-116187507D01*
X135886722Y-116187507D01*
X135892063Y-116187804D01*
X135924027Y-116189585D01*
X136023424Y-116166318D01*
X136086657Y-116136597D01*
X136145024Y-116098175D01*
X136162701Y-116082513D01*
X136187289Y-116065541D01*
X136245582Y-116034946D01*
X136273512Y-116024353D01*
X136337424Y-116008601D01*
X136367092Y-116005000D01*
X136432906Y-116005000D01*
X136462580Y-116008603D01*
X136526475Y-116024351D01*
X136554422Y-116034949D01*
X136612697Y-116065535D01*
X136612701Y-116065537D01*
X136637298Y-116082515D01*
X136654972Y-116098172D01*
X136654973Y-116098173D01*
X136654976Y-116098175D01*
X136685048Y-116120945D01*
X136717005Y-116141482D01*
X136721263Y-116144157D01*
X136817461Y-116178323D01*
X136886723Y-116187507D01*
X136886722Y-116187507D01*
X136892063Y-116187804D01*
X136924027Y-116189585D01*
X137023424Y-116166318D01*
X137086657Y-116136597D01*
X137145024Y-116098175D01*
X137162701Y-116082513D01*
X137187289Y-116065541D01*
X137245582Y-116034946D01*
X137273512Y-116024353D01*
X137337424Y-116008601D01*
X137367092Y-116005000D01*
X137432906Y-116005000D01*
X137462580Y-116008603D01*
X137526471Y-116024350D01*
X137554422Y-116034950D01*
X137612705Y-116065539D01*
X137637307Y-116082521D01*
X137686556Y-116126152D01*
X137706377Y-116148525D01*
X137743771Y-116202697D01*
X137757665Y-116229169D01*
X137780998Y-116290695D01*
X137788152Y-116319717D01*
X137795445Y-116379777D01*
X137796086Y-116385051D01*
X137796086Y-116414948D01*
X137788152Y-116480281D01*
X137780998Y-116509302D01*
X137757663Y-116570833D01*
X137743771Y-116597303D01*
X137706386Y-116651464D01*
X137686563Y-116673839D01*
X137637305Y-116717478D01*
X137612703Y-116734460D01*
X137554423Y-116765047D01*
X137526476Y-116775646D01*
X137483279Y-116786294D01*
X137462581Y-116791396D01*
X137432905Y-116795000D01*
X137367099Y-116795000D01*
X137337422Y-116791396D01*
X137273517Y-116775644D01*
X137245568Y-116765044D01*
X137187298Y-116734461D01*
X137162699Y-116717483D01*
X137145025Y-116701825D01*
X137145024Y-116701825D01*
X137145021Y-116701822D01*
X137114950Y-116679053D01*
X137082995Y-116658517D01*
X137079991Y-116656630D01*
X137078732Y-116655838D01*
X136982535Y-116621675D01*
X136913271Y-116612492D01*
X136913272Y-116612492D01*
X136894620Y-116611453D01*
X136875971Y-116610414D01*
X136875970Y-116610414D01*
X136875965Y-116610414D01*
X136776575Y-116633680D01*
X136713346Y-116663399D01*
X136713336Y-116663404D01*
X136654974Y-116701824D01*
X136654968Y-116701829D01*
X136637296Y-116717485D01*
X136612698Y-116734463D01*
X136554424Y-116765047D01*
X136526477Y-116775646D01*
X136493621Y-116783744D01*
X136462581Y-116791396D01*
X136432905Y-116795000D01*
X136367099Y-116795000D01*
X136337422Y-116791396D01*
X136273517Y-116775644D01*
X136245568Y-116765044D01*
X136187298Y-116734461D01*
X136162699Y-116717483D01*
X136145025Y-116701825D01*
X136145024Y-116701825D01*
X136145021Y-116701822D01*
X136114950Y-116679053D01*
X136082995Y-116658517D01*
X136079991Y-116656630D01*
X136078732Y-116655838D01*
X135982535Y-116621675D01*
X135913271Y-116612492D01*
X135913272Y-116612492D01*
X135894620Y-116611453D01*
X135875971Y-116610414D01*
X135875970Y-116610414D01*
X135875965Y-116610414D01*
X135776575Y-116633680D01*
X135713346Y-116663399D01*
X135713336Y-116663404D01*
X135654974Y-116701824D01*
X135654968Y-116701829D01*
X135637296Y-116717485D01*
X135612698Y-116734463D01*
X135554424Y-116765047D01*
X135526477Y-116775646D01*
X135493621Y-116783744D01*
X135462581Y-116791396D01*
X135432905Y-116795000D01*
X135367099Y-116795000D01*
X135337422Y-116791396D01*
X135273517Y-116775644D01*
X135245568Y-116765044D01*
X135187298Y-116734461D01*
X135162698Y-116717482D01*
X135140026Y-116697397D01*
X135111602Y-116672215D01*
X135095804Y-116655340D01*
X135091999Y-116650428D01*
X135069780Y-116624787D01*
X135069775Y-116624783D01*
X134993535Y-116565727D01*
X134993533Y-116565726D01*
X134993532Y-116565725D01*
X134930967Y-116534622D01*
X134930965Y-116534621D01*
X134896340Y-116520582D01*
X134892192Y-116519557D01*
X134888502Y-116517404D01*
X134888125Y-116517252D01*
X134888146Y-116517197D01*
X134831838Y-116484356D01*
X134800096Y-116422112D01*
X134807045Y-116352589D01*
X134850478Y-116297859D01*
X134899030Y-116277321D01*
X134911386Y-116274997D01*
X134911387Y-116274996D01*
X134911389Y-116274996D01*
X134988750Y-116235545D01*
X135002328Y-116228621D01*
X135056612Y-116184632D01*
X135096430Y-116141626D01*
X135100785Y-116137364D01*
X135162697Y-116082515D01*
X135187291Y-116065539D01*
X135245575Y-116034949D01*
X135273525Y-116024350D01*
X135310567Y-116015221D01*
X135337419Y-116008603D01*
X135367092Y-116005000D01*
X135432906Y-116005000D01*
X135462580Y-116008603D01*
G37*
%TD.AperFunction*%
%TD*%
%TA.AperFunction,Conductor*%
%TO.N,GND*%
G36*
X159502019Y-70000633D02*
G01*
X159537198Y-70002938D01*
X159583708Y-70005986D01*
X159765459Y-70018985D01*
X159773100Y-70020015D01*
X159866738Y-70038641D01*
X159889420Y-70043153D01*
X159915023Y-70048722D01*
X160033666Y-70074531D01*
X160040383Y-70076395D01*
X160159437Y-70116809D01*
X160256671Y-70153076D01*
X160291741Y-70166157D01*
X160297499Y-70168643D01*
X160412952Y-70225578D01*
X160534906Y-70292170D01*
X160539634Y-70295032D01*
X160596571Y-70333076D01*
X160646649Y-70366537D01*
X160649358Y-70368454D01*
X160758652Y-70450271D01*
X160762345Y-70453265D01*
X160821941Y-70505529D01*
X160859502Y-70538469D01*
X160862448Y-70541228D01*
X160958769Y-70637549D01*
X160961526Y-70640492D01*
X161046729Y-70737648D01*
X161049732Y-70741353D01*
X161101564Y-70810592D01*
X161131543Y-70850639D01*
X161133461Y-70853349D01*
X161204962Y-70960357D01*
X161207828Y-70965091D01*
X161274421Y-71087047D01*
X161331355Y-71202499D01*
X161333841Y-71208257D01*
X161370212Y-71305768D01*
X161383196Y-71340578D01*
X161388289Y-71355581D01*
X161423597Y-71459596D01*
X161425472Y-71466352D01*
X161456846Y-71610579D01*
X161479980Y-71726880D01*
X161481015Y-71734560D01*
X161494017Y-71916350D01*
X161499367Y-71997966D01*
X161499500Y-72002023D01*
X161499500Y-129997975D01*
X161499367Y-130002032D01*
X161494017Y-130083648D01*
X161481015Y-130265438D01*
X161479980Y-130273118D01*
X161456846Y-130389420D01*
X161425472Y-130533646D01*
X161423597Y-130540401D01*
X161389297Y-130641448D01*
X161383208Y-130659388D01*
X161383195Y-130659425D01*
X161333841Y-130791741D01*
X161331355Y-130797499D01*
X161274421Y-130912952D01*
X161207828Y-131034907D01*
X161204961Y-131039641D01*
X161133461Y-131146649D01*
X161131543Y-131149359D01*
X161049744Y-131258631D01*
X161046723Y-131262357D01*
X160961529Y-131359502D01*
X160958755Y-131362464D01*
X160862464Y-131458755D01*
X160859502Y-131461529D01*
X160762357Y-131546723D01*
X160758631Y-131549744D01*
X160649359Y-131631543D01*
X160646649Y-131633461D01*
X160539641Y-131704961D01*
X160534907Y-131707828D01*
X160412952Y-131774421D01*
X160297499Y-131831355D01*
X160291741Y-131833841D01*
X160170956Y-131878893D01*
X160159418Y-131883197D01*
X160040401Y-131923597D01*
X160033646Y-131925472D01*
X159889420Y-131956846D01*
X159773118Y-131979980D01*
X159765438Y-131981015D01*
X159583648Y-131994017D01*
X159532582Y-131997364D01*
X159502025Y-131999367D01*
X159497976Y-131999500D01*
X87502024Y-131999500D01*
X87497974Y-131999367D01*
X87459954Y-131996875D01*
X87416350Y-131994017D01*
X87234560Y-131981015D01*
X87226880Y-131979980D01*
X87110579Y-131956846D01*
X86966352Y-131925472D01*
X86959596Y-131923597D01*
X86927881Y-131912831D01*
X86840578Y-131883196D01*
X86805768Y-131870212D01*
X86708257Y-131833841D01*
X86702499Y-131831355D01*
X86587047Y-131774421D01*
X86465091Y-131707828D01*
X86460357Y-131704962D01*
X86353349Y-131633461D01*
X86350639Y-131631543D01*
X86310592Y-131601564D01*
X86241353Y-131549732D01*
X86237648Y-131546729D01*
X86140492Y-131461526D01*
X86137549Y-131458769D01*
X86041228Y-131362448D01*
X86038469Y-131359502D01*
X86005450Y-131321851D01*
X85953265Y-131262345D01*
X85950271Y-131258652D01*
X85868454Y-131149358D01*
X85866537Y-131146649D01*
X85795036Y-131039641D01*
X85792170Y-131034906D01*
X85725578Y-130912952D01*
X85668643Y-130797499D01*
X85666157Y-130791741D01*
X85653076Y-130756671D01*
X85616805Y-130659425D01*
X85576395Y-130540383D01*
X85574531Y-130533666D01*
X85543153Y-130389420D01*
X85538641Y-130366738D01*
X85520015Y-130273100D01*
X85518985Y-130265459D01*
X85505986Y-130083708D01*
X85502938Y-130037198D01*
X85500633Y-130002019D01*
X85500500Y-129997964D01*
X85500500Y-129527844D01*
X88550000Y-129527844D01*
X88556401Y-129587372D01*
X88556403Y-129587379D01*
X88606645Y-129722086D01*
X88606649Y-129722093D01*
X88692809Y-129837187D01*
X88692812Y-129837190D01*
X88807906Y-129923350D01*
X88807913Y-129923354D01*
X88942620Y-129973596D01*
X88942627Y-129973598D01*
X89002155Y-129979999D01*
X89002172Y-129980000D01*
X89650000Y-129980000D01*
X89650000Y-129065501D01*
X89757685Y-129114680D01*
X89864237Y-129130000D01*
X89935763Y-129130000D01*
X90042315Y-129114680D01*
X90150000Y-129065501D01*
X90150000Y-129980000D01*
X90797828Y-129980000D01*
X90797844Y-129979999D01*
X90857372Y-129973598D01*
X90857379Y-129973596D01*
X90992086Y-129923354D01*
X90992093Y-129923350D01*
X91107187Y-129837190D01*
X91107190Y-129837187D01*
X91193350Y-129722093D01*
X91193354Y-129722086D01*
X91243596Y-129587379D01*
X91243598Y-129587372D01*
X91249999Y-129527844D01*
X91250000Y-129527827D01*
X91250000Y-128880000D01*
X90333686Y-128880000D01*
X90359493Y-128839844D01*
X90400000Y-128701889D01*
X90400000Y-128558111D01*
X90359493Y-128420156D01*
X90333686Y-128380000D01*
X91250000Y-128380000D01*
X91250000Y-127732172D01*
X91249999Y-127732155D01*
X91243598Y-127672627D01*
X91243596Y-127672620D01*
X91193354Y-127537913D01*
X91193350Y-127537906D01*
X91107190Y-127422812D01*
X91107187Y-127422809D01*
X90992093Y-127336649D01*
X90992086Y-127336645D01*
X90857379Y-127286403D01*
X90857372Y-127286401D01*
X90797844Y-127280000D01*
X90485391Y-127280000D01*
X90418352Y-127260315D01*
X90372597Y-127207511D01*
X90362653Y-127138353D01*
X90391678Y-127074797D01*
X90420114Y-127050573D01*
X90559987Y-126963967D01*
X90559986Y-126963967D01*
X90559989Y-126963966D01*
X90709342Y-126827813D01*
X90831134Y-126666534D01*
X90921217Y-126485622D01*
X90976525Y-126291237D01*
X90995172Y-126090000D01*
X90976525Y-125888763D01*
X90921217Y-125694378D01*
X90831134Y-125513466D01*
X90724418Y-125372151D01*
X90709340Y-125352184D01*
X90559989Y-125216034D01*
X90559987Y-125216032D01*
X90388163Y-125109643D01*
X90388157Y-125109640D01*
X90239632Y-125052101D01*
X90199708Y-125036635D01*
X90001050Y-124999500D01*
X89798950Y-124999500D01*
X89600292Y-125036635D01*
X89600289Y-125036635D01*
X89600289Y-125036636D01*
X89411842Y-125109640D01*
X89411836Y-125109643D01*
X89240012Y-125216032D01*
X89240010Y-125216034D01*
X89090659Y-125352184D01*
X88968866Y-125513465D01*
X88878787Y-125694367D01*
X88878782Y-125694380D01*
X88823474Y-125888763D01*
X88804828Y-126089999D01*
X88804828Y-126090000D01*
X88823474Y-126291236D01*
X88878782Y-126485619D01*
X88878787Y-126485632D01*
X88968866Y-126666534D01*
X89090659Y-126827815D01*
X89240010Y-126963965D01*
X89240012Y-126963967D01*
X89379886Y-127050573D01*
X89426522Y-127102601D01*
X89437626Y-127171582D01*
X89409673Y-127235617D01*
X89351538Y-127274373D01*
X89314609Y-127280000D01*
X89002155Y-127280000D01*
X88942627Y-127286401D01*
X88942620Y-127286403D01*
X88807913Y-127336645D01*
X88807906Y-127336649D01*
X88692812Y-127422809D01*
X88692809Y-127422812D01*
X88606649Y-127537906D01*
X88606645Y-127537913D01*
X88556403Y-127672620D01*
X88556401Y-127672627D01*
X88550000Y-127732155D01*
X88550000Y-128380000D01*
X89466314Y-128380000D01*
X89440507Y-128420156D01*
X89400000Y-128558111D01*
X89400000Y-128701889D01*
X89440507Y-128839844D01*
X89466314Y-128880000D01*
X88550000Y-128880000D01*
X88550000Y-129527844D01*
X85500500Y-129527844D01*
X85500500Y-121260000D01*
X88569364Y-121260000D01*
X88626567Y-121473486D01*
X88626570Y-121473492D01*
X88726399Y-121687578D01*
X88861894Y-121881082D01*
X89028917Y-122048105D01*
X89222421Y-122183600D01*
X89436507Y-122283429D01*
X89436518Y-122283434D01*
X89491946Y-122298285D01*
X89551607Y-122334649D01*
X89582137Y-122397495D01*
X89573843Y-122466871D01*
X89529358Y-122520750D01*
X89504649Y-122533686D01*
X89411848Y-122569637D01*
X89411836Y-122569643D01*
X89240012Y-122676032D01*
X89240010Y-122676034D01*
X89090659Y-122812184D01*
X88968866Y-122973465D01*
X88878787Y-123154367D01*
X88878782Y-123154380D01*
X88823474Y-123348763D01*
X88804828Y-123549999D01*
X88804828Y-123550000D01*
X88823474Y-123751236D01*
X88878782Y-123945619D01*
X88878787Y-123945632D01*
X88968866Y-124126534D01*
X89090659Y-124287815D01*
X89240010Y-124423965D01*
X89240012Y-124423967D01*
X89411836Y-124530356D01*
X89411842Y-124530359D01*
X89451764Y-124545824D01*
X89600292Y-124603365D01*
X89798950Y-124640500D01*
X89798953Y-124640500D01*
X90001047Y-124640500D01*
X90001050Y-124640500D01*
X90199708Y-124603365D01*
X90388160Y-124530358D01*
X90559989Y-124423966D01*
X90586278Y-124400000D01*
X147754796Y-124400000D01*
X147773543Y-124554406D01*
X147792111Y-124603365D01*
X147828700Y-124699841D01*
X147917058Y-124827849D01*
X147917060Y-124827851D01*
X147917062Y-124827853D01*
X148033480Y-124930991D01*
X148033482Y-124930992D01*
X148171208Y-125003276D01*
X148322229Y-125040500D01*
X148322230Y-125040500D01*
X148477770Y-125040500D01*
X148477771Y-125040500D01*
X148628792Y-125003276D01*
X148766518Y-124930992D01*
X148817773Y-124885583D01*
X148881005Y-124855862D01*
X148950269Y-124865045D01*
X148982224Y-124885581D01*
X149033482Y-124930992D01*
X149171208Y-125003276D01*
X149322229Y-125040500D01*
X149322230Y-125040500D01*
X149477770Y-125040500D01*
X149477771Y-125040500D01*
X149628792Y-125003276D01*
X149766518Y-124930992D01*
X149817773Y-124885583D01*
X149881005Y-124855862D01*
X149950269Y-124865045D01*
X149982224Y-124885581D01*
X150033482Y-124930992D01*
X150171208Y-125003276D01*
X150322229Y-125040500D01*
X150322230Y-125040500D01*
X150477770Y-125040500D01*
X150477771Y-125040500D01*
X150628792Y-125003276D01*
X150766518Y-124930992D01*
X150817772Y-124885584D01*
X150881003Y-124855863D01*
X150950267Y-124865045D01*
X150982226Y-124885583D01*
X151033482Y-124930992D01*
X151171208Y-125003276D01*
X151322229Y-125040500D01*
X151322230Y-125040500D01*
X151477770Y-125040500D01*
X151477771Y-125040500D01*
X151628792Y-125003276D01*
X151766518Y-124930992D01*
X151817773Y-124885583D01*
X151881005Y-124855862D01*
X151950269Y-124865045D01*
X151982224Y-124885581D01*
X152033482Y-124930992D01*
X152146300Y-124990203D01*
X152196513Y-125038788D01*
X152212488Y-125106807D01*
X152189153Y-125172665D01*
X152146300Y-125209796D01*
X152134420Y-125216032D01*
X152033480Y-125269008D01*
X151917062Y-125372146D01*
X151917056Y-125372153D01*
X151828701Y-125500156D01*
X151773543Y-125645593D01*
X151754796Y-125800000D01*
X151773543Y-125954406D01*
X151813252Y-126059109D01*
X151828700Y-126099841D01*
X151917058Y-126227849D01*
X151917060Y-126227851D01*
X151917062Y-126227853D01*
X152033480Y-126330991D01*
X152033482Y-126330992D01*
X152171208Y-126403276D01*
X152322229Y-126440500D01*
X152322230Y-126440500D01*
X152477770Y-126440500D01*
X152477771Y-126440500D01*
X152628792Y-126403276D01*
X152683248Y-126374695D01*
X152751752Y-126360970D01*
X152815182Y-126385225D01*
X152822094Y-126390399D01*
X152822097Y-126390403D01*
X152935011Y-126474929D01*
X153067164Y-126524219D01*
X153125584Y-126530500D01*
X153125594Y-126530500D01*
X156319406Y-126530500D01*
X156319416Y-126530500D01*
X156377836Y-126524219D01*
X156509989Y-126474929D01*
X156622903Y-126390403D01*
X156707429Y-126277489D01*
X156756719Y-126145336D01*
X156763000Y-126086916D01*
X156763000Y-124413084D01*
X156756719Y-124354664D01*
X156707429Y-124222511D01*
X156622903Y-124109597D01*
X156509989Y-124025071D01*
X156509988Y-124025070D01*
X156509986Y-124025069D01*
X156377839Y-123975782D01*
X156377838Y-123975781D01*
X156377836Y-123975781D01*
X156319416Y-123969500D01*
X153125584Y-123969500D01*
X153067164Y-123975781D01*
X153067162Y-123975781D01*
X153067158Y-123975782D01*
X153010203Y-123997025D01*
X152940512Y-124002009D01*
X152884644Y-123973658D01*
X152766519Y-123869008D01*
X152628790Y-123796723D01*
X152527169Y-123771675D01*
X152477771Y-123759500D01*
X152322229Y-123759500D01*
X152285005Y-123768674D01*
X152171209Y-123796723D01*
X152033483Y-123869007D01*
X151982227Y-123914416D01*
X151918994Y-123944137D01*
X151849730Y-123934953D01*
X151817773Y-123914416D01*
X151811090Y-123908495D01*
X151766518Y-123869008D01*
X151628792Y-123796724D01*
X151628791Y-123796723D01*
X151628790Y-123796723D01*
X151527169Y-123771675D01*
X151477771Y-123759500D01*
X151322229Y-123759500D01*
X151285006Y-123768674D01*
X151171209Y-123796723D01*
X151033483Y-123869007D01*
X150982227Y-123914416D01*
X150918994Y-123944137D01*
X150849730Y-123934953D01*
X150817773Y-123914416D01*
X150811090Y-123908495D01*
X150766518Y-123869008D01*
X150628792Y-123796724D01*
X150628791Y-123796723D01*
X150628790Y-123796723D01*
X150527169Y-123771675D01*
X150477771Y-123759500D01*
X150322229Y-123759500D01*
X150285005Y-123768674D01*
X150171209Y-123796723D01*
X150033483Y-123869007D01*
X149982227Y-123914416D01*
X149918994Y-123944137D01*
X149849730Y-123934953D01*
X149817773Y-123914416D01*
X149811090Y-123908495D01*
X149766518Y-123869008D01*
X149628792Y-123796724D01*
X149628791Y-123796723D01*
X149628790Y-123796723D01*
X149527169Y-123771675D01*
X149477771Y-123759500D01*
X149322229Y-123759500D01*
X149285006Y-123768674D01*
X149171209Y-123796723D01*
X149033483Y-123869007D01*
X148982227Y-123914416D01*
X148918994Y-123944137D01*
X148849730Y-123934953D01*
X148817773Y-123914416D01*
X148811090Y-123908495D01*
X148766518Y-123869008D01*
X148628792Y-123796724D01*
X148628791Y-123796723D01*
X148628790Y-123796723D01*
X148527169Y-123771675D01*
X148477771Y-123759500D01*
X148322229Y-123759500D01*
X148285005Y-123768674D01*
X148171209Y-123796723D01*
X148033480Y-123869008D01*
X147917062Y-123972146D01*
X147917056Y-123972153D01*
X147828701Y-124100156D01*
X147773543Y-124245593D01*
X147754796Y-124400000D01*
X90586278Y-124400000D01*
X90709342Y-124287813D01*
X90831134Y-124126534D01*
X90921217Y-123945622D01*
X90976525Y-123751237D01*
X90995172Y-123550000D01*
X90976525Y-123348763D01*
X90921217Y-123154378D01*
X90831134Y-122973466D01*
X90709342Y-122812187D01*
X90709340Y-122812184D01*
X90559989Y-122676034D01*
X90559987Y-122676032D01*
X90388163Y-122569643D01*
X90388151Y-122569638D01*
X90295350Y-122533686D01*
X90239949Y-122491113D01*
X90216359Y-122425346D01*
X90232070Y-122357266D01*
X90282095Y-122308487D01*
X90308054Y-122298285D01*
X90363478Y-122283435D01*
X90363492Y-122283429D01*
X90577578Y-122183600D01*
X90771082Y-122048105D01*
X90938105Y-121881082D01*
X91073600Y-121687578D01*
X91161069Y-121499999D01*
X135354796Y-121499999D01*
X135373543Y-121654406D01*
X135402589Y-121730992D01*
X135428700Y-121799841D01*
X135517058Y-121927849D01*
X135517060Y-121927851D01*
X135517062Y-121927853D01*
X135633480Y-122030991D01*
X135633482Y-122030992D01*
X135771208Y-122103276D01*
X135922229Y-122140500D01*
X135922230Y-122140500D01*
X136077770Y-122140500D01*
X136077771Y-122140500D01*
X136228792Y-122103276D01*
X136366518Y-122030992D01*
X136482942Y-121927849D01*
X136571300Y-121799841D01*
X136626456Y-121654407D01*
X136645204Y-121500000D01*
X136626456Y-121345593D01*
X136571300Y-121200159D01*
X136571190Y-121200000D01*
X148754796Y-121200000D01*
X148773543Y-121354406D01*
X148828701Y-121499843D01*
X148835712Y-121510000D01*
X148917058Y-121627849D01*
X148917060Y-121627851D01*
X148917062Y-121627853D01*
X149033480Y-121730991D01*
X149033482Y-121730992D01*
X149171208Y-121803276D01*
X149322229Y-121840500D01*
X149322230Y-121840500D01*
X149477770Y-121840500D01*
X149477771Y-121840500D01*
X149628792Y-121803276D01*
X149766518Y-121730992D01*
X149817773Y-121685583D01*
X149881005Y-121655862D01*
X149950269Y-121665045D01*
X149982224Y-121685581D01*
X150033482Y-121730992D01*
X150171208Y-121803276D01*
X150322229Y-121840500D01*
X150322230Y-121840500D01*
X150477770Y-121840500D01*
X150477771Y-121840500D01*
X150628792Y-121803276D01*
X150766518Y-121730992D01*
X150817772Y-121685584D01*
X150881003Y-121655863D01*
X150950267Y-121665045D01*
X150982226Y-121685583D01*
X151033482Y-121730992D01*
X151171208Y-121803276D01*
X151322229Y-121840500D01*
X151322230Y-121840500D01*
X151477770Y-121840500D01*
X151477771Y-121840500D01*
X151628792Y-121803276D01*
X151766518Y-121730992D01*
X151817773Y-121685583D01*
X151881005Y-121655862D01*
X151950269Y-121665045D01*
X151982224Y-121685581D01*
X152033482Y-121730992D01*
X152171208Y-121803276D01*
X152322229Y-121840500D01*
X152322230Y-121840500D01*
X152477770Y-121840500D01*
X152477771Y-121840500D01*
X152628792Y-121803276D01*
X152766518Y-121730992D01*
X152882942Y-121627849D01*
X152971300Y-121499841D01*
X153026456Y-121354407D01*
X153032499Y-121304629D01*
X153060119Y-121240453D01*
X153118053Y-121201396D01*
X153187905Y-121199860D01*
X153226717Y-121218000D01*
X153319805Y-121283181D01*
X153522870Y-121377872D01*
X153739294Y-121435863D01*
X153906596Y-121450500D01*
X155538404Y-121450500D01*
X155705706Y-121435863D01*
X155922130Y-121377872D01*
X156125195Y-121283181D01*
X156308733Y-121154667D01*
X156467167Y-120996233D01*
X156595681Y-120812696D01*
X156690372Y-120609630D01*
X156748363Y-120393206D01*
X156767891Y-120170000D01*
X156748363Y-119946794D01*
X156690372Y-119730370D01*
X156595681Y-119527305D01*
X156474617Y-119354407D01*
X156467165Y-119343764D01*
X156308735Y-119185334D01*
X156125195Y-119056819D01*
X156125193Y-119056818D01*
X156101121Y-119045593D01*
X155922130Y-118962128D01*
X155922127Y-118962127D01*
X155922125Y-118962126D01*
X155705708Y-118904137D01*
X155705701Y-118904136D01*
X155538404Y-118889500D01*
X153906596Y-118889500D01*
X153739298Y-118904136D01*
X153739291Y-118904137D01*
X153522874Y-118962126D01*
X153522868Y-118962129D01*
X153319806Y-119056818D01*
X153220003Y-119126700D01*
X153153797Y-119149027D01*
X153086030Y-119132015D01*
X153038217Y-119081067D01*
X153029572Y-119052549D01*
X153028251Y-119052875D01*
X153026456Y-119045595D01*
X153026456Y-119045593D01*
X152971300Y-118900159D01*
X152882942Y-118772151D01*
X152882939Y-118772148D01*
X152882937Y-118772146D01*
X152766519Y-118669008D01*
X152628790Y-118596723D01*
X152527169Y-118571675D01*
X152477771Y-118559500D01*
X152322229Y-118559500D01*
X152285006Y-118568674D01*
X152171209Y-118596723D01*
X152033480Y-118669008D01*
X151917062Y-118772146D01*
X151917056Y-118772153D01*
X151828701Y-118900156D01*
X151773543Y-119045593D01*
X151754796Y-119200000D01*
X151773543Y-119354406D01*
X151809934Y-119450359D01*
X151828475Y-119499249D01*
X151828701Y-119499843D01*
X151918239Y-119629560D01*
X151940122Y-119695914D01*
X151922657Y-119763566D01*
X151918239Y-119770440D01*
X151828701Y-119900156D01*
X151773543Y-120045593D01*
X151754796Y-120200000D01*
X151773544Y-120354407D01*
X151808311Y-120446080D01*
X151813678Y-120515743D01*
X151780531Y-120577249D01*
X151719393Y-120611071D01*
X151649675Y-120606469D01*
X151634752Y-120599852D01*
X151628792Y-120596724D01*
X151628789Y-120596723D01*
X151549780Y-120577249D01*
X151477771Y-120559500D01*
X151322229Y-120559500D01*
X151285006Y-120568674D01*
X151171209Y-120596723D01*
X151033483Y-120669007D01*
X150982227Y-120714416D01*
X150918994Y-120744137D01*
X150849730Y-120734953D01*
X150817773Y-120714416D01*
X150811090Y-120708495D01*
X150766518Y-120669008D01*
X150628792Y-120596724D01*
X150628791Y-120596723D01*
X150628790Y-120596723D01*
X150527169Y-120571675D01*
X150477771Y-120559500D01*
X150322229Y-120559500D01*
X150285005Y-120568674D01*
X150171209Y-120596723D01*
X150033483Y-120669007D01*
X149982227Y-120714416D01*
X149918994Y-120744137D01*
X149849730Y-120734953D01*
X149817773Y-120714416D01*
X149811090Y-120708495D01*
X149766518Y-120669008D01*
X149628792Y-120596724D01*
X149628791Y-120596723D01*
X149628790Y-120596723D01*
X149527169Y-120571675D01*
X149477771Y-120559500D01*
X149322229Y-120559500D01*
X149285006Y-120568674D01*
X149171209Y-120596723D01*
X149033480Y-120669008D01*
X148917062Y-120772146D01*
X148917056Y-120772153D01*
X148828701Y-120900156D01*
X148773543Y-121045593D01*
X148754796Y-121200000D01*
X136571190Y-121200000D01*
X136482942Y-121072151D01*
X136482939Y-121072148D01*
X136482937Y-121072146D01*
X136366519Y-120969008D01*
X136228790Y-120896723D01*
X136127169Y-120871675D01*
X136077771Y-120859500D01*
X135922229Y-120859500D01*
X135885006Y-120868674D01*
X135771209Y-120896723D01*
X135633480Y-120969008D01*
X135517062Y-121072146D01*
X135517056Y-121072153D01*
X135428701Y-121200156D01*
X135373543Y-121345593D01*
X135354796Y-121499999D01*
X91161069Y-121499999D01*
X91173429Y-121473492D01*
X91173432Y-121473486D01*
X91230636Y-121260000D01*
X90333686Y-121260000D01*
X90359493Y-121219844D01*
X90400000Y-121081889D01*
X90400000Y-120938111D01*
X90359493Y-120800156D01*
X90333686Y-120760000D01*
X91230636Y-120760000D01*
X91230635Y-120759999D01*
X91173432Y-120546513D01*
X91173429Y-120546507D01*
X91151742Y-120499999D01*
X141854796Y-120499999D01*
X141873543Y-120654406D01*
X141890835Y-120700000D01*
X141928700Y-120799841D01*
X142017058Y-120927849D01*
X142017060Y-120927851D01*
X142017062Y-120927853D01*
X142133480Y-121030991D01*
X142133482Y-121030992D01*
X142271208Y-121103276D01*
X142422229Y-121140500D01*
X142422230Y-121140500D01*
X142577770Y-121140500D01*
X142577771Y-121140500D01*
X142728792Y-121103276D01*
X142866518Y-121030992D01*
X142982942Y-120927849D01*
X143071300Y-120799841D01*
X143126456Y-120654407D01*
X143145204Y-120500000D01*
X143126456Y-120345593D01*
X143071300Y-120200159D01*
X142982942Y-120072151D01*
X142982939Y-120072148D01*
X142982937Y-120072146D01*
X142866519Y-119969008D01*
X142728790Y-119896723D01*
X142627169Y-119871675D01*
X142577771Y-119859500D01*
X142422229Y-119859500D01*
X142385005Y-119868674D01*
X142271209Y-119896723D01*
X142133480Y-119969008D01*
X142017062Y-120072146D01*
X142017056Y-120072153D01*
X141928701Y-120200156D01*
X141873543Y-120345593D01*
X141854796Y-120499999D01*
X91151742Y-120499999D01*
X91073600Y-120332422D01*
X91073599Y-120332420D01*
X90938113Y-120138926D01*
X90938108Y-120138920D01*
X90771082Y-119971894D01*
X90577578Y-119836399D01*
X90363492Y-119736570D01*
X90363483Y-119736566D01*
X90308052Y-119721714D01*
X90248391Y-119685349D01*
X90217862Y-119622502D01*
X90226157Y-119553127D01*
X90270642Y-119499249D01*
X90295346Y-119486314D01*
X90388160Y-119450358D01*
X90559989Y-119343966D01*
X90709342Y-119207813D01*
X90831134Y-119046534D01*
X90921217Y-118865622D01*
X90976525Y-118671237D01*
X90995172Y-118470000D01*
X90993044Y-118447040D01*
X90976525Y-118268763D01*
X90972440Y-118254406D01*
X90921217Y-118074378D01*
X90884181Y-118000000D01*
X124354796Y-118000000D01*
X124373543Y-118154406D01*
X124411469Y-118254406D01*
X124428700Y-118299841D01*
X124517058Y-118427849D01*
X124517060Y-118427851D01*
X124517062Y-118427853D01*
X124633480Y-118530991D01*
X124633482Y-118530992D01*
X124771208Y-118603276D01*
X124922229Y-118640500D01*
X124922230Y-118640500D01*
X125077770Y-118640500D01*
X125077771Y-118640500D01*
X125228792Y-118603276D01*
X125366518Y-118530992D01*
X125366521Y-118530989D01*
X125372690Y-118526732D01*
X125374538Y-118529410D01*
X125424382Y-118505890D01*
X125493660Y-118514969D01*
X125525782Y-118535578D01*
X125633482Y-118630992D01*
X125771208Y-118703276D01*
X125922229Y-118740500D01*
X125922230Y-118740500D01*
X126077770Y-118740500D01*
X126077771Y-118740500D01*
X126228792Y-118703276D01*
X126366518Y-118630992D01*
X126397803Y-118603276D01*
X126467773Y-118541288D01*
X126531006Y-118511566D01*
X126600269Y-118520750D01*
X126632227Y-118541288D01*
X126733480Y-118630991D01*
X126733482Y-118630992D01*
X126871208Y-118703276D01*
X127022229Y-118740500D01*
X127022230Y-118740500D01*
X127177770Y-118740500D01*
X127177771Y-118740500D01*
X127328792Y-118703276D01*
X127466518Y-118630992D01*
X127582942Y-118527849D01*
X127671300Y-118399841D01*
X127726456Y-118254407D01*
X127745204Y-118100000D01*
X127733062Y-118000000D01*
X136754796Y-118000000D01*
X136773543Y-118154406D01*
X136811469Y-118254406D01*
X136828700Y-118299841D01*
X136917058Y-118427849D01*
X136917060Y-118427851D01*
X136917062Y-118427853D01*
X137033480Y-118530991D01*
X137033482Y-118530992D01*
X137171208Y-118603276D01*
X137322229Y-118640500D01*
X137322230Y-118640500D01*
X137477770Y-118640500D01*
X137477771Y-118640500D01*
X137628792Y-118603276D01*
X137766518Y-118530992D01*
X137882942Y-118427849D01*
X137971300Y-118299841D01*
X138026456Y-118154407D01*
X138045204Y-118000000D01*
X138026456Y-117845593D01*
X137971300Y-117700159D01*
X137882942Y-117572151D01*
X137882939Y-117572148D01*
X137882937Y-117572146D01*
X137766519Y-117469008D01*
X137628790Y-117396723D01*
X137527169Y-117371675D01*
X137477771Y-117359500D01*
X137322229Y-117359500D01*
X137285005Y-117368674D01*
X137171209Y-117396723D01*
X137033480Y-117469008D01*
X136917062Y-117572146D01*
X136917056Y-117572153D01*
X136828701Y-117700156D01*
X136773543Y-117845593D01*
X136754796Y-118000000D01*
X127733062Y-118000000D01*
X127726456Y-117945593D01*
X127671300Y-117800159D01*
X127582942Y-117672151D01*
X127582939Y-117672148D01*
X127582937Y-117672146D01*
X127466519Y-117569008D01*
X127328790Y-117496723D01*
X127216346Y-117469008D01*
X127177771Y-117459500D01*
X127022229Y-117459500D01*
X126985005Y-117468674D01*
X126871209Y-117496723D01*
X126733480Y-117569008D01*
X126632225Y-117658712D01*
X126568992Y-117688433D01*
X126499729Y-117679249D01*
X126467772Y-117658711D01*
X126366519Y-117569008D01*
X126228790Y-117496723D01*
X126116346Y-117469008D01*
X126077771Y-117459500D01*
X125922229Y-117459500D01*
X125885005Y-117468674D01*
X125771209Y-117496723D01*
X125633479Y-117569009D01*
X125627310Y-117573268D01*
X125625490Y-117570632D01*
X125575299Y-117594157D01*
X125506046Y-117584899D01*
X125474211Y-117564415D01*
X125366519Y-117469008D01*
X125228790Y-117396723D01*
X125074917Y-117358796D01*
X125014537Y-117323639D01*
X125004329Y-117303659D01*
X124977222Y-117337870D01*
X124929187Y-117356390D01*
X124929512Y-117357705D01*
X124771209Y-117396723D01*
X124633480Y-117469008D01*
X124517062Y-117572146D01*
X124517056Y-117572153D01*
X124428701Y-117700156D01*
X124373543Y-117845593D01*
X124354796Y-118000000D01*
X90884181Y-118000000D01*
X90831134Y-117893466D01*
X90760670Y-117800156D01*
X90709340Y-117732184D01*
X90559989Y-117596034D01*
X90559987Y-117596032D01*
X90388163Y-117489643D01*
X90388157Y-117489640D01*
X90239632Y-117432101D01*
X90199708Y-117416635D01*
X90001050Y-117379500D01*
X89798950Y-117379500D01*
X89600292Y-117416635D01*
X89600289Y-117416635D01*
X89600289Y-117416636D01*
X89411842Y-117489640D01*
X89411836Y-117489643D01*
X89240012Y-117596032D01*
X89240010Y-117596034D01*
X89090659Y-117732184D01*
X88968866Y-117893465D01*
X88878787Y-118074367D01*
X88878782Y-118074380D01*
X88823474Y-118268763D01*
X88804828Y-118469999D01*
X88804828Y-118470000D01*
X88823474Y-118671236D01*
X88878782Y-118865619D01*
X88878787Y-118865632D01*
X88968866Y-119046534D01*
X89090659Y-119207815D01*
X89228792Y-119333739D01*
X89239789Y-119343764D01*
X89240010Y-119343965D01*
X89240012Y-119343967D01*
X89411836Y-119450356D01*
X89411842Y-119450359D01*
X89504648Y-119486312D01*
X89560049Y-119528885D01*
X89583640Y-119594652D01*
X89567929Y-119662732D01*
X89517905Y-119711511D01*
X89491948Y-119721714D01*
X89436513Y-119736567D01*
X89436507Y-119736570D01*
X89222422Y-119836399D01*
X89222420Y-119836400D01*
X89028926Y-119971886D01*
X89028920Y-119971891D01*
X88861891Y-120138920D01*
X88861886Y-120138926D01*
X88726400Y-120332420D01*
X88726399Y-120332422D01*
X88626570Y-120546507D01*
X88626567Y-120546513D01*
X88569364Y-120759999D01*
X88569364Y-120760000D01*
X89466314Y-120760000D01*
X89440507Y-120800156D01*
X89400000Y-120938111D01*
X89400000Y-121081889D01*
X89440507Y-121219844D01*
X89466314Y-121260000D01*
X88569364Y-121260000D01*
X85500500Y-121260000D01*
X85500500Y-115920000D01*
X105854796Y-115920000D01*
X105873543Y-116074406D01*
X105911754Y-116175159D01*
X105919932Y-116196723D01*
X105928701Y-116219843D01*
X105972621Y-116283471D01*
X106017058Y-116347849D01*
X106017060Y-116347851D01*
X106017062Y-116347853D01*
X106133480Y-116450991D01*
X106133482Y-116450992D01*
X106271208Y-116523276D01*
X106422229Y-116560500D01*
X106422230Y-116560500D01*
X106577770Y-116560500D01*
X106577771Y-116560500D01*
X106728792Y-116523276D01*
X106866518Y-116450992D01*
X106982942Y-116347849D01*
X107071300Y-116219841D01*
X107126456Y-116074407D01*
X107145204Y-115920000D01*
X107126456Y-115765593D01*
X107071300Y-115620159D01*
X106982942Y-115492151D01*
X106982941Y-115492150D01*
X106907271Y-115425112D01*
X106870145Y-115365922D01*
X106865499Y-115332297D01*
X106865499Y-111087702D01*
X106885184Y-111020663D01*
X106902891Y-111000000D01*
X109354796Y-111000000D01*
X109373543Y-111154406D01*
X109408126Y-111245592D01*
X109428700Y-111299841D01*
X109517058Y-111427849D01*
X109517060Y-111427851D01*
X109517062Y-111427853D01*
X109633480Y-111530991D01*
X109633482Y-111530992D01*
X109771208Y-111603276D01*
X109922229Y-111640500D01*
X109922230Y-111640500D01*
X110077770Y-111640500D01*
X110077771Y-111640500D01*
X110228792Y-111603276D01*
X110366518Y-111530992D01*
X110482942Y-111427849D01*
X110571300Y-111299841D01*
X110626456Y-111154407D01*
X110645204Y-111000000D01*
X110626456Y-110845593D01*
X110571300Y-110700159D01*
X110571080Y-110699841D01*
X110557443Y-110680084D01*
X110502165Y-110600000D01*
X122154796Y-110600000D01*
X122173543Y-110754406D01*
X122228701Y-110899843D01*
X122248035Y-110927853D01*
X122317058Y-111027849D01*
X122392728Y-111094887D01*
X122429854Y-111154075D01*
X122434500Y-111187701D01*
X122434500Y-114499234D01*
X122431861Y-114524682D01*
X122429762Y-114534687D01*
X122434023Y-114568868D01*
X122434500Y-114576544D01*
X122434500Y-114580286D01*
X122437305Y-114597101D01*
X122438241Y-114602708D01*
X122444851Y-114655734D01*
X122447037Y-114663077D01*
X122449522Y-114670316D01*
X122474953Y-114717309D01*
X122498426Y-114765322D01*
X122502882Y-114771562D01*
X122507579Y-114777597D01*
X122546895Y-114813791D01*
X123705654Y-115972549D01*
X123721779Y-115992405D01*
X123722753Y-115993895D01*
X123727375Y-116000969D01*
X123754562Y-116022130D01*
X123760323Y-116027218D01*
X123762968Y-116029863D01*
X123781465Y-116043069D01*
X123823636Y-116075893D01*
X123823638Y-116075893D01*
X123830367Y-116079535D01*
X123837252Y-116082901D01*
X123837253Y-116082901D01*
X123837254Y-116082902D01*
X123855969Y-116088473D01*
X123888460Y-116098147D01*
X123939005Y-116115499D01*
X123939007Y-116115499D01*
X123939009Y-116115500D01*
X123939011Y-116115500D01*
X123946577Y-116116762D01*
X123954164Y-116117707D01*
X123954165Y-116117708D01*
X123954165Y-116117707D01*
X123954166Y-116117708D01*
X123980857Y-116116604D01*
X124007549Y-116115500D01*
X124281940Y-116115500D01*
X124348979Y-116135185D01*
X124394734Y-116187989D01*
X124404678Y-116257147D01*
X124397882Y-116283471D01*
X124383804Y-116320591D01*
X124365056Y-116475000D01*
X124383803Y-116629406D01*
X124438961Y-116774843D01*
X124484825Y-116841288D01*
X124527318Y-116902849D01*
X124527320Y-116902851D01*
X124527322Y-116902853D01*
X124643740Y-117005991D01*
X124643742Y-117005992D01*
X124781468Y-117078276D01*
X124932489Y-117115500D01*
X124932490Y-117115500D01*
X124935342Y-117116203D01*
X124995722Y-117151360D01*
X125005929Y-117171339D01*
X125033037Y-117137128D01*
X125081072Y-117118613D01*
X125080748Y-117117295D01*
X125088030Y-117115500D01*
X125088031Y-117115500D01*
X125239052Y-117078276D01*
X125376778Y-117005992D01*
X125493202Y-116902849D01*
X125581560Y-116774841D01*
X125636716Y-116629407D01*
X125655464Y-116475000D01*
X125636716Y-116320593D01*
X125626157Y-116292750D01*
X125622638Y-116283471D01*
X125617271Y-116213807D01*
X125650419Y-116152301D01*
X125711557Y-116118480D01*
X125738580Y-116115500D01*
X127547243Y-116115500D01*
X127614282Y-116135185D01*
X127634924Y-116151819D01*
X128505654Y-117022549D01*
X128521779Y-117042405D01*
X128527372Y-117050965D01*
X128527375Y-117050969D01*
X128554562Y-117072130D01*
X128560323Y-117077218D01*
X128562968Y-117079863D01*
X128581465Y-117093069D01*
X128623636Y-117125893D01*
X128623638Y-117125893D01*
X128630367Y-117129535D01*
X128637252Y-117132901D01*
X128637253Y-117132901D01*
X128637254Y-117132902D01*
X128655969Y-117138473D01*
X128688460Y-117148147D01*
X128739005Y-117165499D01*
X128739007Y-117165499D01*
X128739009Y-117165500D01*
X128739011Y-117165500D01*
X128746577Y-117166762D01*
X128754164Y-117167707D01*
X128754165Y-117167708D01*
X128754165Y-117167707D01*
X128754166Y-117167708D01*
X128780857Y-117166604D01*
X128807549Y-117165500D01*
X131483441Y-117165500D01*
X131550480Y-117185185D01*
X131585489Y-117219058D01*
X131591556Y-117227847D01*
X131591558Y-117227849D01*
X131707980Y-117330991D01*
X131707982Y-117330992D01*
X131845708Y-117403276D01*
X131996729Y-117440500D01*
X131996730Y-117440500D01*
X132152270Y-117440500D01*
X132152271Y-117440500D01*
X132303292Y-117403276D01*
X132441018Y-117330992D01*
X132557442Y-117227849D01*
X132645800Y-117099841D01*
X132664128Y-117051511D01*
X132706305Y-116995810D01*
X132771902Y-116971752D01*
X132837693Y-116985686D01*
X132871208Y-117003276D01*
X133022229Y-117040500D01*
X133022230Y-117040500D01*
X133177770Y-117040500D01*
X133177771Y-117040500D01*
X133328792Y-117003276D01*
X133466518Y-116930992D01*
X133567774Y-116841286D01*
X133631004Y-116811567D01*
X133700268Y-116820749D01*
X133732227Y-116841287D01*
X133833482Y-116930992D01*
X133971208Y-117003276D01*
X134122229Y-117040500D01*
X134122230Y-117040500D01*
X134277770Y-117040500D01*
X134277771Y-117040500D01*
X134428792Y-117003276D01*
X134566518Y-116930992D01*
X134682942Y-116827849D01*
X134697950Y-116806105D01*
X134752233Y-116762116D01*
X134821681Y-116754456D01*
X134884246Y-116785559D01*
X134902049Y-116806104D01*
X134917058Y-116827849D01*
X134917060Y-116827851D01*
X134917062Y-116827853D01*
X135033480Y-116930991D01*
X135033482Y-116930992D01*
X135171208Y-117003276D01*
X135322229Y-117040500D01*
X135322230Y-117040500D01*
X135477770Y-117040500D01*
X135477771Y-117040500D01*
X135628792Y-117003276D01*
X135766518Y-116930992D01*
X135817773Y-116885583D01*
X135881005Y-116855862D01*
X135950269Y-116865045D01*
X135982224Y-116885581D01*
X136033482Y-116930992D01*
X136171208Y-117003276D01*
X136322229Y-117040500D01*
X136322230Y-117040500D01*
X136477770Y-117040500D01*
X136477771Y-117040500D01*
X136628792Y-117003276D01*
X136766518Y-116930992D01*
X136817773Y-116885583D01*
X136881005Y-116855862D01*
X136950269Y-116865045D01*
X136982224Y-116885581D01*
X137033482Y-116930992D01*
X137171208Y-117003276D01*
X137322229Y-117040500D01*
X137322230Y-117040500D01*
X137477770Y-117040500D01*
X137477771Y-117040500D01*
X137628792Y-117003276D01*
X137766518Y-116930992D01*
X137882942Y-116827849D01*
X137971300Y-116699841D01*
X138026456Y-116554407D01*
X138045204Y-116400000D01*
X138026456Y-116245593D01*
X137971300Y-116100159D01*
X137882942Y-115972151D01*
X137882939Y-115972148D01*
X137882937Y-115972146D01*
X137766519Y-115869008D01*
X137628790Y-115796723D01*
X137527169Y-115771675D01*
X137477771Y-115759500D01*
X137322229Y-115759500D01*
X137285005Y-115768674D01*
X137171209Y-115796723D01*
X137033483Y-115869007D01*
X136982227Y-115914416D01*
X136918994Y-115944137D01*
X136849730Y-115934953D01*
X136817773Y-115914416D01*
X136811090Y-115908495D01*
X136766518Y-115869008D01*
X136628792Y-115796724D01*
X136628791Y-115796723D01*
X136628790Y-115796723D01*
X136527169Y-115771675D01*
X136477771Y-115759500D01*
X136322229Y-115759500D01*
X136285005Y-115768674D01*
X136171209Y-115796723D01*
X136033483Y-115869007D01*
X135982227Y-115914416D01*
X135918994Y-115944137D01*
X135849730Y-115934953D01*
X135817773Y-115914416D01*
X135811090Y-115908495D01*
X135766518Y-115869008D01*
X135628792Y-115796724D01*
X135628791Y-115796723D01*
X135628790Y-115796723D01*
X135527169Y-115771675D01*
X135477771Y-115759500D01*
X135322229Y-115759500D01*
X135285006Y-115768674D01*
X135171209Y-115796723D01*
X135033480Y-115869008D01*
X134917062Y-115972146D01*
X134917057Y-115972151D01*
X134902049Y-115993895D01*
X134847765Y-116037884D01*
X134778317Y-116045542D01*
X134715752Y-116014438D01*
X134697951Y-115993895D01*
X134682942Y-115972151D01*
X134682937Y-115972146D01*
X134566519Y-115869008D01*
X134428790Y-115796723D01*
X134327169Y-115771675D01*
X134277771Y-115759500D01*
X134122229Y-115759500D01*
X134085005Y-115768674D01*
X133971209Y-115796723D01*
X133833483Y-115869007D01*
X133732227Y-115958712D01*
X133668994Y-115988433D01*
X133599730Y-115979249D01*
X133567773Y-115958712D01*
X133517773Y-115914416D01*
X133466518Y-115869008D01*
X133328792Y-115796724D01*
X133328791Y-115796723D01*
X133328790Y-115796723D01*
X133227169Y-115771675D01*
X133177771Y-115759500D01*
X133022229Y-115759500D01*
X132985006Y-115768674D01*
X132871209Y-115796723D01*
X132733480Y-115869008D01*
X132617062Y-115972146D01*
X132617056Y-115972153D01*
X132528700Y-116100157D01*
X132528699Y-116100160D01*
X132510370Y-116148489D01*
X132468192Y-116204191D01*
X132402594Y-116228247D01*
X132336803Y-116214312D01*
X132303292Y-116196724D01*
X132218539Y-116175834D01*
X132152271Y-116159500D01*
X131996729Y-116159500D01*
X131959505Y-116168674D01*
X131845709Y-116196723D01*
X131707980Y-116269008D01*
X131591558Y-116372150D01*
X131591556Y-116372152D01*
X131585489Y-116380942D01*
X131531206Y-116424931D01*
X131483441Y-116434500D01*
X129002758Y-116434500D01*
X128935719Y-116414815D01*
X128915077Y-116398181D01*
X128044345Y-115527450D01*
X128028218Y-115507591D01*
X128022627Y-115499034D01*
X128022622Y-115499028D01*
X127995439Y-115477870D01*
X127989675Y-115472780D01*
X127987029Y-115470134D01*
X127968535Y-115456930D01*
X127926365Y-115424107D01*
X127919644Y-115420470D01*
X127912742Y-115417096D01*
X127861539Y-115401852D01*
X127810988Y-115384499D01*
X127803448Y-115383240D01*
X127795833Y-115382291D01*
X127744416Y-115384418D01*
X127742451Y-115384500D01*
X124202757Y-115384500D01*
X124135718Y-115364815D01*
X124115076Y-115348181D01*
X123201819Y-114434924D01*
X123168334Y-114373601D01*
X123165500Y-114347243D01*
X123165500Y-111187701D01*
X123185185Y-111120662D01*
X123207269Y-111094889D01*
X123282942Y-111027849D01*
X123371300Y-110899841D01*
X123426456Y-110754407D01*
X123445204Y-110600000D01*
X123426456Y-110445593D01*
X123409165Y-110400000D01*
X148754796Y-110400000D01*
X148773543Y-110554406D01*
X148828701Y-110699843D01*
X148839876Y-110716032D01*
X148917058Y-110827849D01*
X148917060Y-110827851D01*
X148917062Y-110827853D01*
X149033480Y-110930991D01*
X149033482Y-110930992D01*
X149171208Y-111003276D01*
X149322229Y-111040500D01*
X149322230Y-111040500D01*
X149477770Y-111040500D01*
X149477771Y-111040500D01*
X149628792Y-111003276D01*
X149766518Y-110930992D01*
X149817773Y-110885583D01*
X149881005Y-110855862D01*
X149950269Y-110865045D01*
X149982224Y-110885581D01*
X150033482Y-110930992D01*
X150171208Y-111003276D01*
X150322229Y-111040500D01*
X150322230Y-111040500D01*
X150477770Y-111040500D01*
X150477771Y-111040500D01*
X150628792Y-111003276D01*
X150766518Y-110930992D01*
X150817773Y-110885583D01*
X150881005Y-110855862D01*
X150950269Y-110865045D01*
X150982224Y-110885581D01*
X151033482Y-110930992D01*
X151171208Y-111003276D01*
X151322229Y-111040500D01*
X151322230Y-111040500D01*
X151477770Y-111040500D01*
X151477771Y-111040500D01*
X151628792Y-111003276D01*
X151634741Y-111000153D01*
X151703246Y-110986426D01*
X151768301Y-111011915D01*
X151809247Y-111068530D01*
X151813086Y-111138294D01*
X151808311Y-111153919D01*
X151773544Y-111245592D01*
X151754796Y-111400000D01*
X151773543Y-111554406D01*
X151828701Y-111699843D01*
X151918239Y-111829560D01*
X151940122Y-111895914D01*
X151922657Y-111963566D01*
X151918239Y-111970440D01*
X151828701Y-112100156D01*
X151773543Y-112245593D01*
X151754796Y-112399999D01*
X151773543Y-112554406D01*
X151828701Y-112699843D01*
X151870442Y-112760315D01*
X151917058Y-112827849D01*
X151917060Y-112827851D01*
X151917062Y-112827853D01*
X152033480Y-112930991D01*
X152033482Y-112930992D01*
X152171208Y-113003276D01*
X152322229Y-113040500D01*
X152322230Y-113040500D01*
X152477770Y-113040500D01*
X152477771Y-113040500D01*
X152628792Y-113003276D01*
X152766518Y-112930992D01*
X152882942Y-112827849D01*
X152971300Y-112699841D01*
X153026456Y-112554407D01*
X153037437Y-112463966D01*
X153041616Y-112429553D01*
X153069238Y-112365376D01*
X153127172Y-112326319D01*
X153164712Y-112320500D01*
X156319406Y-112320500D01*
X156319416Y-112320500D01*
X156377836Y-112314219D01*
X156509989Y-112264929D01*
X156622903Y-112180403D01*
X156707429Y-112067489D01*
X156756719Y-111935336D01*
X156763000Y-111876916D01*
X156763000Y-110203084D01*
X156756719Y-110144664D01*
X156707429Y-110012511D01*
X156622903Y-109899597D01*
X156509989Y-109815071D01*
X156509988Y-109815070D01*
X156509986Y-109815069D01*
X156377839Y-109765782D01*
X156377838Y-109765781D01*
X156377836Y-109765781D01*
X156319416Y-109759500D01*
X153125584Y-109759500D01*
X153067164Y-109765781D01*
X153067161Y-109765781D01*
X153067160Y-109765782D01*
X152935013Y-109815069D01*
X152935012Y-109815070D01*
X152885854Y-109851868D01*
X152820389Y-109876283D01*
X152753921Y-109862396D01*
X152628790Y-109796723D01*
X152527169Y-109771675D01*
X152477771Y-109759500D01*
X152322229Y-109759500D01*
X152285005Y-109768674D01*
X152171209Y-109796723D01*
X152033483Y-109869007D01*
X151982227Y-109914416D01*
X151918994Y-109944137D01*
X151849730Y-109934953D01*
X151817773Y-109914416D01*
X151797803Y-109896724D01*
X151766518Y-109869008D01*
X151628792Y-109796724D01*
X151628791Y-109796723D01*
X151628790Y-109796723D01*
X151527169Y-109771675D01*
X151477771Y-109759500D01*
X151322229Y-109759500D01*
X151285006Y-109768674D01*
X151171209Y-109796723D01*
X151033483Y-109869007D01*
X150982227Y-109914416D01*
X150918994Y-109944137D01*
X150849730Y-109934953D01*
X150817773Y-109914416D01*
X150797803Y-109896724D01*
X150766518Y-109869008D01*
X150628792Y-109796724D01*
X150628791Y-109796723D01*
X150628790Y-109796723D01*
X150527169Y-109771675D01*
X150477771Y-109759500D01*
X150322229Y-109759500D01*
X150285005Y-109768674D01*
X150171209Y-109796723D01*
X150033483Y-109869007D01*
X149982227Y-109914416D01*
X149918994Y-109944137D01*
X149849730Y-109934953D01*
X149817773Y-109914416D01*
X149797803Y-109896724D01*
X149766518Y-109869008D01*
X149628792Y-109796724D01*
X149628791Y-109796723D01*
X149628790Y-109796723D01*
X149527169Y-109771675D01*
X149477771Y-109759500D01*
X149322229Y-109759500D01*
X149285005Y-109768674D01*
X149171209Y-109796723D01*
X149033480Y-109869008D01*
X148917062Y-109972146D01*
X148917056Y-109972153D01*
X148828701Y-110100156D01*
X148773543Y-110245593D01*
X148754796Y-110400000D01*
X123409165Y-110400000D01*
X123371300Y-110300159D01*
X123282942Y-110172151D01*
X123282939Y-110172148D01*
X123282937Y-110172146D01*
X123166519Y-110069008D01*
X123028790Y-109996723D01*
X122916346Y-109969008D01*
X122877771Y-109959500D01*
X122722229Y-109959500D01*
X122685005Y-109968674D01*
X122571209Y-109996723D01*
X122433480Y-110069008D01*
X122317062Y-110172146D01*
X122317056Y-110172153D01*
X122228701Y-110300156D01*
X122173543Y-110445593D01*
X122154796Y-110600000D01*
X110502165Y-110600000D01*
X110482942Y-110572151D01*
X110482939Y-110572148D01*
X110482937Y-110572146D01*
X110366519Y-110469008D01*
X110228790Y-110396723D01*
X110127169Y-110371675D01*
X110077771Y-110359500D01*
X109922229Y-110359500D01*
X109885005Y-110368674D01*
X109771209Y-110396723D01*
X109633480Y-110469008D01*
X109517062Y-110572146D01*
X109517056Y-110572153D01*
X109428701Y-110700156D01*
X109373543Y-110845593D01*
X109354796Y-111000000D01*
X106902891Y-111000000D01*
X106907272Y-110994887D01*
X106916822Y-110986426D01*
X106982942Y-110927849D01*
X107071300Y-110799841D01*
X107126456Y-110654407D01*
X107145204Y-110500000D01*
X107126456Y-110345593D01*
X107071300Y-110200159D01*
X106982942Y-110072151D01*
X106982939Y-110072148D01*
X106982937Y-110072146D01*
X106866519Y-109969008D01*
X106728790Y-109896723D01*
X106589520Y-109862396D01*
X106577771Y-109859500D01*
X106422229Y-109859500D01*
X106410480Y-109862396D01*
X106271209Y-109896723D01*
X106133480Y-109969008D01*
X106017062Y-110072146D01*
X106017056Y-110072153D01*
X105928701Y-110200156D01*
X105873543Y-110345593D01*
X105854796Y-110500000D01*
X105873543Y-110654406D01*
X105928701Y-110799843D01*
X105948035Y-110827853D01*
X106017058Y-110927849D01*
X106092728Y-110994887D01*
X106129854Y-111054075D01*
X106134500Y-111087701D01*
X106134500Y-115332298D01*
X106114815Y-115399337D01*
X106092728Y-115425113D01*
X106017058Y-115492150D01*
X106017056Y-115492153D01*
X105928701Y-115620156D01*
X105873543Y-115765593D01*
X105854796Y-115920000D01*
X85500500Y-115920000D01*
X85500500Y-115027844D01*
X88550000Y-115027844D01*
X88556401Y-115087372D01*
X88556403Y-115087379D01*
X88606645Y-115222086D01*
X88606649Y-115222093D01*
X88692809Y-115337187D01*
X88692812Y-115337190D01*
X88807906Y-115423350D01*
X88807913Y-115423354D01*
X88942620Y-115473596D01*
X88942627Y-115473598D01*
X89002155Y-115479999D01*
X89002172Y-115480000D01*
X89650000Y-115480000D01*
X89650000Y-114565501D01*
X89757685Y-114614680D01*
X89864237Y-114630000D01*
X89935763Y-114630000D01*
X90042315Y-114614680D01*
X90150000Y-114565501D01*
X90150000Y-115480000D01*
X90797828Y-115480000D01*
X90797844Y-115479999D01*
X90857372Y-115473598D01*
X90857379Y-115473596D01*
X90992086Y-115423354D01*
X90992093Y-115423350D01*
X91107187Y-115337190D01*
X91107190Y-115337187D01*
X91193350Y-115222093D01*
X91193354Y-115222086D01*
X91243596Y-115087379D01*
X91243598Y-115087372D01*
X91249999Y-115027844D01*
X91250000Y-115027827D01*
X91250000Y-114380000D01*
X90333686Y-114380000D01*
X90359493Y-114339844D01*
X90400000Y-114201889D01*
X90400000Y-114058111D01*
X90359493Y-113920156D01*
X90333686Y-113880000D01*
X91250000Y-113880000D01*
X91250000Y-113499999D01*
X103854796Y-113499999D01*
X103873543Y-113654406D01*
X103913252Y-113759109D01*
X103928700Y-113799841D01*
X104017058Y-113927849D01*
X104017060Y-113927851D01*
X104017062Y-113927853D01*
X104133480Y-114030991D01*
X104133482Y-114030992D01*
X104271208Y-114103276D01*
X104422229Y-114140500D01*
X104422230Y-114140500D01*
X104577770Y-114140500D01*
X104577771Y-114140500D01*
X104728792Y-114103276D01*
X104866518Y-114030992D01*
X104982942Y-113927849D01*
X105071300Y-113799841D01*
X105126456Y-113654407D01*
X105145204Y-113500000D01*
X105126456Y-113345593D01*
X105071300Y-113200159D01*
X104982942Y-113072151D01*
X104982939Y-113072148D01*
X104982937Y-113072146D01*
X104866519Y-112969008D01*
X104728790Y-112896723D01*
X104627169Y-112871675D01*
X104577771Y-112859500D01*
X104422229Y-112859500D01*
X104385006Y-112868674D01*
X104271209Y-112896723D01*
X104133480Y-112969008D01*
X104017062Y-113072146D01*
X104017056Y-113072153D01*
X103928701Y-113200156D01*
X103873543Y-113345593D01*
X103854796Y-113499999D01*
X91250000Y-113499999D01*
X91250000Y-113232172D01*
X91249999Y-113232155D01*
X91243598Y-113172627D01*
X91243596Y-113172620D01*
X91193354Y-113037913D01*
X91193350Y-113037906D01*
X91107190Y-112922812D01*
X91107187Y-112922809D01*
X90992093Y-112836649D01*
X90992086Y-112836645D01*
X90857379Y-112786403D01*
X90857372Y-112786401D01*
X90797844Y-112780000D01*
X90485391Y-112780000D01*
X90418352Y-112760315D01*
X90372597Y-112707511D01*
X90362653Y-112638353D01*
X90391678Y-112574797D01*
X90420114Y-112550573D01*
X90559987Y-112463967D01*
X90559986Y-112463967D01*
X90559989Y-112463966D01*
X90709342Y-112327813D01*
X90831134Y-112166534D01*
X90921217Y-111985622D01*
X90976525Y-111791237D01*
X90995172Y-111590000D01*
X90976525Y-111388763D01*
X90921217Y-111194378D01*
X90917892Y-111187701D01*
X90858552Y-111068530D01*
X90831134Y-111013466D01*
X90709342Y-110852187D01*
X90709340Y-110852184D01*
X90559989Y-110716034D01*
X90559987Y-110716032D01*
X90388163Y-110609643D01*
X90388157Y-110609640D01*
X90239632Y-110552101D01*
X90199708Y-110536635D01*
X90001050Y-110499500D01*
X89798950Y-110499500D01*
X89600292Y-110536635D01*
X89600289Y-110536635D01*
X89600289Y-110536636D01*
X89411842Y-110609640D01*
X89411836Y-110609643D01*
X89240012Y-110716032D01*
X89240010Y-110716034D01*
X89090659Y-110852184D01*
X88968866Y-111013465D01*
X88878787Y-111194367D01*
X88878782Y-111194380D01*
X88823474Y-111388763D01*
X88804828Y-111589999D01*
X88804828Y-111590000D01*
X88823474Y-111791236D01*
X88878782Y-111985619D01*
X88878787Y-111985632D01*
X88968866Y-112166534D01*
X89090659Y-112327815D01*
X89240010Y-112463965D01*
X89240012Y-112463967D01*
X89379886Y-112550573D01*
X89426522Y-112602601D01*
X89437626Y-112671582D01*
X89409673Y-112735617D01*
X89351538Y-112774373D01*
X89314609Y-112780000D01*
X89002155Y-112780000D01*
X88942627Y-112786401D01*
X88942620Y-112786403D01*
X88807913Y-112836645D01*
X88807906Y-112836649D01*
X88692812Y-112922809D01*
X88692809Y-112922812D01*
X88606649Y-113037906D01*
X88606645Y-113037913D01*
X88556403Y-113172620D01*
X88556401Y-113172627D01*
X88550000Y-113232155D01*
X88550000Y-113880000D01*
X89466314Y-113880000D01*
X89440507Y-113920156D01*
X89400000Y-114058111D01*
X89400000Y-114201889D01*
X89440507Y-114339844D01*
X89466314Y-114380000D01*
X88550000Y-114380000D01*
X88550000Y-115027844D01*
X85500500Y-115027844D01*
X85500500Y-106760000D01*
X88569364Y-106760000D01*
X88626567Y-106973486D01*
X88626570Y-106973492D01*
X88726399Y-107187578D01*
X88861894Y-107381082D01*
X89028917Y-107548105D01*
X89222421Y-107683600D01*
X89436507Y-107783429D01*
X89436518Y-107783434D01*
X89491946Y-107798285D01*
X89551607Y-107834649D01*
X89582137Y-107897495D01*
X89573843Y-107966871D01*
X89529358Y-108020750D01*
X89504649Y-108033686D01*
X89411848Y-108069637D01*
X89411836Y-108069643D01*
X89240012Y-108176032D01*
X89240010Y-108176034D01*
X89090659Y-108312184D01*
X88968866Y-108473465D01*
X88878787Y-108654367D01*
X88878782Y-108654380D01*
X88823474Y-108848763D01*
X88804828Y-109049999D01*
X88804828Y-109050000D01*
X88823474Y-109251236D01*
X88878782Y-109445619D01*
X88878787Y-109445632D01*
X88968866Y-109626534D01*
X89090659Y-109787815D01*
X89240010Y-109923965D01*
X89240012Y-109923967D01*
X89411836Y-110030356D01*
X89411842Y-110030359D01*
X89451764Y-110045824D01*
X89600292Y-110103365D01*
X89798950Y-110140500D01*
X89798953Y-110140500D01*
X90001047Y-110140500D01*
X90001050Y-110140500D01*
X90199708Y-110103365D01*
X90388160Y-110030358D01*
X90559989Y-109923966D01*
X90709342Y-109787813D01*
X90737897Y-109750000D01*
X125354796Y-109750000D01*
X125373543Y-109904406D01*
X125389381Y-109946166D01*
X125421311Y-110030359D01*
X125428701Y-110049843D01*
X125463430Y-110100156D01*
X125517058Y-110177849D01*
X125517060Y-110177851D01*
X125517062Y-110177853D01*
X125633480Y-110280991D01*
X125633482Y-110280992D01*
X125771208Y-110353276D01*
X125922229Y-110390500D01*
X125922230Y-110390500D01*
X126077770Y-110390500D01*
X126077771Y-110390500D01*
X126228792Y-110353276D01*
X126366518Y-110280992D01*
X126482942Y-110177849D01*
X126571300Y-110049841D01*
X126626456Y-109904407D01*
X126645204Y-109750000D01*
X126626456Y-109595593D01*
X126571300Y-109450159D01*
X126482942Y-109322151D01*
X126482939Y-109322148D01*
X126482937Y-109322146D01*
X126366519Y-109219008D01*
X126228790Y-109146723D01*
X126127169Y-109121675D01*
X126077771Y-109109500D01*
X125922229Y-109109500D01*
X125900735Y-109114798D01*
X125771209Y-109146723D01*
X125633480Y-109219008D01*
X125517062Y-109322146D01*
X125517056Y-109322153D01*
X125428701Y-109450156D01*
X125373543Y-109595593D01*
X125354796Y-109750000D01*
X90737897Y-109750000D01*
X90831134Y-109626534D01*
X90921217Y-109445622D01*
X90976525Y-109251237D01*
X90995172Y-109050000D01*
X90995157Y-109049843D01*
X90976525Y-108848763D01*
X90939286Y-108717883D01*
X90921217Y-108654378D01*
X90895771Y-108603276D01*
X90859778Y-108530991D01*
X90831134Y-108473466D01*
X90764467Y-108385185D01*
X90709340Y-108312184D01*
X90559989Y-108176034D01*
X90559987Y-108176032D01*
X90388163Y-108069643D01*
X90388151Y-108069638D01*
X90295350Y-108033686D01*
X90239949Y-107991113D01*
X90216359Y-107925346D01*
X90232070Y-107857266D01*
X90282095Y-107808487D01*
X90308054Y-107798285D01*
X90363478Y-107783435D01*
X90363492Y-107783429D01*
X90577578Y-107683600D01*
X90771082Y-107548105D01*
X90938105Y-107381082D01*
X91073600Y-107187578D01*
X91173429Y-106973492D01*
X91173432Y-106973486D01*
X91230636Y-106760000D01*
X90333686Y-106760000D01*
X90359493Y-106719844D01*
X90400000Y-106581889D01*
X90400000Y-106500000D01*
X110354796Y-106500000D01*
X110373543Y-106654406D01*
X110389246Y-106695810D01*
X110428361Y-106798948D01*
X110428701Y-106799843D01*
X110460280Y-106845593D01*
X110517058Y-106927849D01*
X110517060Y-106927851D01*
X110517062Y-106927853D01*
X110633480Y-107030991D01*
X110633482Y-107030992D01*
X110771208Y-107103276D01*
X110922229Y-107140500D01*
X110922230Y-107140500D01*
X111077770Y-107140500D01*
X111077771Y-107140500D01*
X111228792Y-107103276D01*
X111366518Y-107030992D01*
X111482942Y-106927849D01*
X111571300Y-106799841D01*
X111626456Y-106654407D01*
X111645204Y-106500000D01*
X111626456Y-106345593D01*
X111571300Y-106200159D01*
X111482942Y-106072151D01*
X111482939Y-106072148D01*
X111482937Y-106072146D01*
X111401502Y-106000000D01*
X114354796Y-106000000D01*
X114373543Y-106154406D01*
X114428701Y-106299843D01*
X114444101Y-106322153D01*
X114517058Y-106427849D01*
X114517060Y-106427851D01*
X114517062Y-106427853D01*
X114633480Y-106530991D01*
X114633482Y-106530992D01*
X114771208Y-106603276D01*
X114922229Y-106640500D01*
X114922230Y-106640500D01*
X115072243Y-106640500D01*
X115139282Y-106660185D01*
X115159924Y-106676819D01*
X116705654Y-108222549D01*
X116721779Y-108242405D01*
X116727372Y-108250965D01*
X116727375Y-108250969D01*
X116754562Y-108272130D01*
X116760323Y-108277218D01*
X116762968Y-108279863D01*
X116781465Y-108293069D01*
X116823636Y-108325893D01*
X116823638Y-108325893D01*
X116830367Y-108329535D01*
X116837252Y-108332901D01*
X116837253Y-108332901D01*
X116837254Y-108332902D01*
X116855969Y-108338473D01*
X116888460Y-108348147D01*
X116939005Y-108365499D01*
X116939007Y-108365499D01*
X116939009Y-108365500D01*
X116939011Y-108365500D01*
X116946577Y-108366762D01*
X116954164Y-108367707D01*
X116954165Y-108367708D01*
X116954165Y-108367707D01*
X116954166Y-108367708D01*
X116980857Y-108366604D01*
X117007549Y-108365500D01*
X118908941Y-108365500D01*
X118975980Y-108385185D01*
X119010989Y-108419058D01*
X119017056Y-108427847D01*
X119017058Y-108427849D01*
X119133480Y-108530991D01*
X119133482Y-108530992D01*
X119271208Y-108603276D01*
X119422229Y-108640500D01*
X119422230Y-108640500D01*
X119577770Y-108640500D01*
X119577771Y-108640500D01*
X119728792Y-108603276D01*
X119866518Y-108530992D01*
X119982942Y-108427849D01*
X120071300Y-108299841D01*
X120126456Y-108154407D01*
X120145204Y-108000000D01*
X124604796Y-108000000D01*
X124623543Y-108154406D01*
X124631745Y-108176032D01*
X124668189Y-108272127D01*
X124678701Y-108299843D01*
X124712043Y-108348147D01*
X124767058Y-108427849D01*
X124767060Y-108427851D01*
X124767062Y-108427853D01*
X124883480Y-108530991D01*
X124883482Y-108530992D01*
X125021208Y-108603276D01*
X125172229Y-108640500D01*
X125172230Y-108640500D01*
X125327770Y-108640500D01*
X125327771Y-108640500D01*
X125478792Y-108603276D01*
X125616518Y-108530992D01*
X125667773Y-108485583D01*
X125731005Y-108455862D01*
X125800269Y-108465045D01*
X125832224Y-108485581D01*
X125883482Y-108530992D01*
X126021208Y-108603276D01*
X126172229Y-108640500D01*
X126172230Y-108640500D01*
X126327770Y-108640500D01*
X126327771Y-108640500D01*
X126478792Y-108603276D01*
X126616518Y-108530992D01*
X126667773Y-108485583D01*
X126731005Y-108455862D01*
X126800269Y-108465045D01*
X126832224Y-108485581D01*
X126883482Y-108530992D01*
X127021208Y-108603276D01*
X127172229Y-108640500D01*
X127172230Y-108640500D01*
X127327770Y-108640500D01*
X127327771Y-108640500D01*
X127478792Y-108603276D01*
X127616518Y-108530992D01*
X127667772Y-108485584D01*
X127731003Y-108455863D01*
X127800267Y-108465045D01*
X127832226Y-108485583D01*
X127883482Y-108530992D01*
X128021208Y-108603276D01*
X128172229Y-108640500D01*
X128172230Y-108640500D01*
X128327770Y-108640500D01*
X128327771Y-108640500D01*
X128478792Y-108603276D01*
X128616518Y-108530992D01*
X128667773Y-108485583D01*
X128731005Y-108455862D01*
X128800269Y-108465045D01*
X128832224Y-108485581D01*
X128883482Y-108530992D01*
X129021208Y-108603276D01*
X129172229Y-108640500D01*
X129172230Y-108640500D01*
X129327770Y-108640500D01*
X129327771Y-108640500D01*
X129478792Y-108603276D01*
X129616518Y-108530992D01*
X129667773Y-108485583D01*
X129731005Y-108455862D01*
X129800269Y-108465045D01*
X129832224Y-108485581D01*
X129883482Y-108530992D01*
X130021208Y-108603276D01*
X130172229Y-108640500D01*
X130172230Y-108640500D01*
X130327770Y-108640500D01*
X130327771Y-108640500D01*
X130478792Y-108603276D01*
X130616518Y-108530992D01*
X130667773Y-108485583D01*
X130731005Y-108455862D01*
X130800269Y-108465045D01*
X130832224Y-108485581D01*
X130883482Y-108530992D01*
X131021208Y-108603276D01*
X131172229Y-108640500D01*
X131172230Y-108640500D01*
X131327770Y-108640500D01*
X131327771Y-108640500D01*
X131478792Y-108603276D01*
X131616518Y-108530992D01*
X131667773Y-108485583D01*
X131731005Y-108455862D01*
X131800269Y-108465045D01*
X131832224Y-108485581D01*
X131883482Y-108530992D01*
X132021208Y-108603276D01*
X132172229Y-108640500D01*
X132172230Y-108640500D01*
X132327770Y-108640500D01*
X132327771Y-108640500D01*
X132478792Y-108603276D01*
X132616518Y-108530992D01*
X132667773Y-108485583D01*
X132731005Y-108455862D01*
X132800269Y-108465045D01*
X132832224Y-108485581D01*
X132883482Y-108530992D01*
X133021208Y-108603276D01*
X133172229Y-108640500D01*
X133172230Y-108640500D01*
X133327770Y-108640500D01*
X133327771Y-108640500D01*
X133478792Y-108603276D01*
X133616518Y-108530992D01*
X133667773Y-108485583D01*
X133731005Y-108455862D01*
X133800269Y-108465045D01*
X133832224Y-108485581D01*
X133883482Y-108530992D01*
X134021208Y-108603276D01*
X134172229Y-108640500D01*
X134172230Y-108640500D01*
X134327770Y-108640500D01*
X134327771Y-108640500D01*
X134478792Y-108603276D01*
X134616518Y-108530992D01*
X134667773Y-108485583D01*
X134731005Y-108455862D01*
X134800269Y-108465045D01*
X134832224Y-108485581D01*
X134883482Y-108530992D01*
X135021208Y-108603276D01*
X135172229Y-108640500D01*
X135172230Y-108640500D01*
X135327770Y-108640500D01*
X135327771Y-108640500D01*
X135452623Y-108609726D01*
X135522424Y-108612795D01*
X135579487Y-108653114D01*
X135605692Y-108717883D01*
X135605395Y-108745061D01*
X135604796Y-108749996D01*
X135604796Y-108749999D01*
X135623543Y-108904406D01*
X135678701Y-109049843D01*
X135768239Y-109179560D01*
X135790122Y-109245914D01*
X135772657Y-109313566D01*
X135768239Y-109320440D01*
X135678701Y-109450156D01*
X135623543Y-109595593D01*
X135604796Y-109750000D01*
X135623543Y-109904406D01*
X135639381Y-109946166D01*
X135671311Y-110030359D01*
X135678701Y-110049843D01*
X135713430Y-110100156D01*
X135767058Y-110177849D01*
X135767060Y-110177851D01*
X135767062Y-110177853D01*
X135883480Y-110280991D01*
X135883482Y-110280992D01*
X136021208Y-110353276D01*
X136172229Y-110390500D01*
X136172230Y-110390500D01*
X136327770Y-110390500D01*
X136327771Y-110390500D01*
X136478792Y-110353276D01*
X136616518Y-110280992D01*
X136732942Y-110177849D01*
X136821300Y-110049841D01*
X136876456Y-109904407D01*
X136895204Y-109750000D01*
X136876456Y-109595593D01*
X136821300Y-109450159D01*
X136821298Y-109450156D01*
X136821298Y-109450155D01*
X136749738Y-109346484D01*
X136732942Y-109322151D01*
X136732940Y-109322149D01*
X136731761Y-109320441D01*
X136709877Y-109254086D01*
X136727342Y-109186435D01*
X136731761Y-109179559D01*
X136732940Y-109177850D01*
X136732942Y-109177849D01*
X136821300Y-109049841D01*
X136876456Y-108904407D01*
X136895204Y-108750000D01*
X136876456Y-108595593D01*
X136821300Y-108450159D01*
X136732942Y-108322151D01*
X136732939Y-108322148D01*
X136732937Y-108322146D01*
X136616519Y-108219008D01*
X136478790Y-108146723D01*
X136377169Y-108121675D01*
X136327771Y-108109500D01*
X136172229Y-108109500D01*
X136172228Y-108109500D01*
X136047376Y-108140273D01*
X135977574Y-108137204D01*
X135920512Y-108096884D01*
X135894306Y-108032115D01*
X135894604Y-108004933D01*
X135895204Y-108000000D01*
X135876456Y-107845593D01*
X135821300Y-107700159D01*
X135732942Y-107572151D01*
X135732939Y-107572148D01*
X135732937Y-107572146D01*
X135616519Y-107469008D01*
X135478790Y-107396723D01*
X135377169Y-107371675D01*
X135327771Y-107359500D01*
X135172229Y-107359500D01*
X135135005Y-107368674D01*
X135021209Y-107396723D01*
X134883483Y-107469007D01*
X134832227Y-107514416D01*
X134768994Y-107544137D01*
X134699730Y-107534953D01*
X134667773Y-107514416D01*
X134635228Y-107485584D01*
X134616518Y-107469008D01*
X134478792Y-107396724D01*
X134478791Y-107396723D01*
X134478790Y-107396723D01*
X134377169Y-107371675D01*
X134327771Y-107359500D01*
X134172229Y-107359500D01*
X134135006Y-107368674D01*
X134021209Y-107396723D01*
X133883480Y-107469008D01*
X133832225Y-107514416D01*
X133768991Y-107544137D01*
X133699728Y-107534953D01*
X133667773Y-107514416D01*
X133616518Y-107469008D01*
X133478792Y-107396724D01*
X133478791Y-107396723D01*
X133478790Y-107396723D01*
X133377169Y-107371675D01*
X133327771Y-107359500D01*
X133172229Y-107359500D01*
X133135005Y-107368674D01*
X133021209Y-107396723D01*
X132883480Y-107469008D01*
X132832225Y-107514416D01*
X132768991Y-107544137D01*
X132699728Y-107534953D01*
X132667773Y-107514416D01*
X132616518Y-107469008D01*
X132478792Y-107396724D01*
X132478791Y-107396723D01*
X132478790Y-107396723D01*
X132377169Y-107371675D01*
X132327771Y-107359500D01*
X132172229Y-107359500D01*
X132135005Y-107368674D01*
X132021209Y-107396723D01*
X131883480Y-107469008D01*
X131832225Y-107514416D01*
X131768991Y-107544137D01*
X131699728Y-107534953D01*
X131667773Y-107514416D01*
X131616518Y-107469008D01*
X131478792Y-107396724D01*
X131478791Y-107396723D01*
X131478790Y-107396723D01*
X131377169Y-107371675D01*
X131327771Y-107359500D01*
X131172229Y-107359500D01*
X131135006Y-107368674D01*
X131021209Y-107396723D01*
X130883480Y-107469008D01*
X130832225Y-107514416D01*
X130768991Y-107544137D01*
X130699728Y-107534953D01*
X130667773Y-107514416D01*
X130616518Y-107469008D01*
X130478792Y-107396724D01*
X130478791Y-107396723D01*
X130478790Y-107396723D01*
X130377169Y-107371675D01*
X130327771Y-107359500D01*
X130172229Y-107359500D01*
X130135005Y-107368674D01*
X130021209Y-107396723D01*
X129883480Y-107469008D01*
X129832225Y-107514416D01*
X129768991Y-107544137D01*
X129699728Y-107534953D01*
X129667773Y-107514416D01*
X129616518Y-107469008D01*
X129478792Y-107396724D01*
X129478791Y-107396723D01*
X129478790Y-107396723D01*
X129377169Y-107371675D01*
X129327771Y-107359500D01*
X129172229Y-107359500D01*
X129135005Y-107368674D01*
X129021209Y-107396723D01*
X128883480Y-107469008D01*
X128832225Y-107514416D01*
X128768991Y-107544137D01*
X128699728Y-107534953D01*
X128667773Y-107514416D01*
X128616518Y-107469008D01*
X128478792Y-107396724D01*
X128478791Y-107396723D01*
X128478790Y-107396723D01*
X128377169Y-107371675D01*
X128327771Y-107359500D01*
X128172229Y-107359500D01*
X128135005Y-107368674D01*
X128021209Y-107396723D01*
X127883480Y-107469008D01*
X127832225Y-107514416D01*
X127768991Y-107544137D01*
X127699728Y-107534953D01*
X127667773Y-107514416D01*
X127616518Y-107469008D01*
X127478792Y-107396724D01*
X127478791Y-107396723D01*
X127478790Y-107396723D01*
X127377169Y-107371675D01*
X127327771Y-107359500D01*
X127172229Y-107359500D01*
X127135005Y-107368674D01*
X127021209Y-107396723D01*
X126883480Y-107469008D01*
X126832225Y-107514416D01*
X126768991Y-107544137D01*
X126699728Y-107534953D01*
X126667773Y-107514416D01*
X126616518Y-107469008D01*
X126478792Y-107396724D01*
X126478791Y-107396723D01*
X126478790Y-107396723D01*
X126377169Y-107371675D01*
X126327771Y-107359500D01*
X126172229Y-107359500D01*
X126135006Y-107368674D01*
X126021209Y-107396723D01*
X125883480Y-107469008D01*
X125832225Y-107514416D01*
X125768991Y-107544137D01*
X125699728Y-107534953D01*
X125667773Y-107514416D01*
X125616518Y-107469008D01*
X125478792Y-107396724D01*
X125478791Y-107396723D01*
X125478790Y-107396723D01*
X125377169Y-107371675D01*
X125327771Y-107359500D01*
X125172229Y-107359500D01*
X125135005Y-107368674D01*
X125021209Y-107396723D01*
X124883480Y-107469008D01*
X124767062Y-107572146D01*
X124767056Y-107572153D01*
X124678701Y-107700156D01*
X124623543Y-107845593D01*
X124604796Y-108000000D01*
X120145204Y-108000000D01*
X120126456Y-107845593D01*
X120071300Y-107700159D01*
X119982942Y-107572151D01*
X119982939Y-107572148D01*
X119982937Y-107572146D01*
X119866519Y-107469008D01*
X119728790Y-107396723D01*
X119570488Y-107357705D01*
X119570816Y-107356371D01*
X119514029Y-107331928D01*
X119474975Y-107273992D01*
X119473941Y-107226802D01*
X139627994Y-107226802D01*
X139646741Y-107381208D01*
X139701899Y-107526645D01*
X139751277Y-107598181D01*
X139790256Y-107654651D01*
X139790258Y-107654653D01*
X139790260Y-107654655D01*
X139906678Y-107757793D01*
X139939144Y-107774832D01*
X139989357Y-107823416D01*
X140005519Y-107884629D01*
X140005519Y-109058623D01*
X139985834Y-109125662D01*
X139963747Y-109151438D01*
X139888077Y-109218475D01*
X139888075Y-109218478D01*
X139799720Y-109346481D01*
X139744562Y-109491918D01*
X139725815Y-109646325D01*
X139744562Y-109800731D01*
X139750001Y-109815071D01*
X139798949Y-109944137D01*
X139799720Y-109946168D01*
X139871281Y-110049841D01*
X139888077Y-110074174D01*
X139888079Y-110074176D01*
X139888081Y-110074178D01*
X140004499Y-110177316D01*
X140004501Y-110177317D01*
X140142227Y-110249601D01*
X140293248Y-110286825D01*
X140293249Y-110286825D01*
X140448789Y-110286825D01*
X140448790Y-110286825D01*
X140599811Y-110249601D01*
X140737537Y-110177317D01*
X140853961Y-110074174D01*
X140942319Y-109946166D01*
X140997475Y-109800732D01*
X141016223Y-109646325D01*
X140997475Y-109491918D01*
X140942319Y-109346484D01*
X140853961Y-109218476D01*
X140778291Y-109151438D01*
X140741165Y-109092248D01*
X140736519Y-109058623D01*
X140736519Y-107721717D01*
X140756204Y-107654678D01*
X140758469Y-107651277D01*
X140791602Y-107603276D01*
X140844498Y-107526643D01*
X140899654Y-107381209D01*
X140918402Y-107226802D01*
X140899654Y-107072395D01*
X140872198Y-106999999D01*
X148754796Y-106999999D01*
X148773543Y-107154406D01*
X148786124Y-107187578D01*
X148821551Y-107280992D01*
X148828701Y-107299843D01*
X148891004Y-107390103D01*
X148917058Y-107427849D01*
X148917060Y-107427851D01*
X148917062Y-107427853D01*
X149033480Y-107530991D01*
X149033482Y-107530992D01*
X149171208Y-107603276D01*
X149322229Y-107640500D01*
X149322230Y-107640500D01*
X149477770Y-107640500D01*
X149477771Y-107640500D01*
X149628792Y-107603276D01*
X149766518Y-107530992D01*
X149817773Y-107485583D01*
X149881005Y-107455862D01*
X149950269Y-107465045D01*
X149982224Y-107485581D01*
X150033482Y-107530992D01*
X150171208Y-107603276D01*
X150322229Y-107640500D01*
X150322230Y-107640500D01*
X150477770Y-107640500D01*
X150477771Y-107640500D01*
X150628792Y-107603276D01*
X150766518Y-107530992D01*
X150817773Y-107485583D01*
X150881005Y-107455862D01*
X150950269Y-107465045D01*
X150982224Y-107485581D01*
X151033482Y-107530992D01*
X151171208Y-107603276D01*
X151322229Y-107640500D01*
X151322230Y-107640500D01*
X151477770Y-107640500D01*
X151477771Y-107640500D01*
X151628792Y-107603276D01*
X151766518Y-107530992D01*
X151817773Y-107485583D01*
X151881005Y-107455862D01*
X151950269Y-107465045D01*
X151982224Y-107485581D01*
X152033482Y-107530992D01*
X152171208Y-107603276D01*
X152322229Y-107640500D01*
X152322230Y-107640500D01*
X152477770Y-107640500D01*
X152477771Y-107640500D01*
X152628792Y-107603276D01*
X152766518Y-107530992D01*
X152882942Y-107427849D01*
X152971300Y-107299841D01*
X153026456Y-107154407D01*
X153033618Y-107095413D01*
X153061238Y-107031237D01*
X153119172Y-106992180D01*
X153189025Y-106990644D01*
X153227837Y-107008785D01*
X153259902Y-107031237D01*
X153319805Y-107073181D01*
X153522870Y-107167872D01*
X153739294Y-107225863D01*
X153906596Y-107240500D01*
X155538404Y-107240500D01*
X155705706Y-107225863D01*
X155922130Y-107167872D01*
X156125195Y-107073181D01*
X156308733Y-106944667D01*
X156467167Y-106786233D01*
X156595681Y-106602696D01*
X156690372Y-106399630D01*
X156748363Y-106183206D01*
X156767891Y-105960000D01*
X156748363Y-105736794D01*
X156690372Y-105520370D01*
X156595681Y-105317305D01*
X156467167Y-105133767D01*
X156467165Y-105133764D01*
X156308735Y-104975334D01*
X156125195Y-104846819D01*
X156125193Y-104846818D01*
X156102429Y-104836203D01*
X155922130Y-104752128D01*
X155922127Y-104752127D01*
X155922125Y-104752126D01*
X155705708Y-104694137D01*
X155705701Y-104694136D01*
X155538404Y-104679500D01*
X153906596Y-104679500D01*
X153739298Y-104694136D01*
X153739291Y-104694137D01*
X153522874Y-104752126D01*
X153522868Y-104752129D01*
X153319806Y-104846818D01*
X153218106Y-104918028D01*
X153151900Y-104940355D01*
X153084133Y-104923343D01*
X153036320Y-104872394D01*
X153026585Y-104846117D01*
X153026456Y-104845598D01*
X153026456Y-104845593D01*
X152971300Y-104700159D01*
X152882942Y-104572151D01*
X152882939Y-104572148D01*
X152882937Y-104572146D01*
X152766519Y-104469008D01*
X152628790Y-104396723D01*
X152502596Y-104365619D01*
X152477771Y-104359500D01*
X152322229Y-104359500D01*
X152297404Y-104365619D01*
X152171209Y-104396723D01*
X152033480Y-104469008D01*
X151917062Y-104572146D01*
X151917056Y-104572153D01*
X151828701Y-104700156D01*
X151773543Y-104845593D01*
X151754796Y-105000000D01*
X151773543Y-105154406D01*
X151828701Y-105299843D01*
X151918239Y-105429560D01*
X151940122Y-105495914D01*
X151922657Y-105563566D01*
X151918239Y-105570440D01*
X151828701Y-105700156D01*
X151773543Y-105845593D01*
X151758559Y-105969008D01*
X151754796Y-106000000D01*
X151766426Y-106095785D01*
X151773544Y-106154407D01*
X151808311Y-106246080D01*
X151813678Y-106315743D01*
X151780531Y-106377249D01*
X151719393Y-106411071D01*
X151649675Y-106406469D01*
X151634752Y-106399852D01*
X151628792Y-106396724D01*
X151628789Y-106396723D01*
X151549780Y-106377249D01*
X151477771Y-106359500D01*
X151322229Y-106359500D01*
X151285006Y-106368674D01*
X151171209Y-106396723D01*
X151033483Y-106469007D01*
X150982227Y-106514416D01*
X150918994Y-106544137D01*
X150849730Y-106534953D01*
X150817773Y-106514416D01*
X150811090Y-106508495D01*
X150766518Y-106469008D01*
X150628792Y-106396724D01*
X150628791Y-106396723D01*
X150628790Y-106396723D01*
X150527169Y-106371675D01*
X150477771Y-106359500D01*
X150322229Y-106359500D01*
X150285006Y-106368674D01*
X150171209Y-106396723D01*
X150033483Y-106469007D01*
X149982227Y-106514416D01*
X149918994Y-106544137D01*
X149849730Y-106534953D01*
X149817773Y-106514416D01*
X149811090Y-106508495D01*
X149766518Y-106469008D01*
X149628792Y-106396724D01*
X149628791Y-106396723D01*
X149628790Y-106396723D01*
X149527169Y-106371675D01*
X149477771Y-106359500D01*
X149322229Y-106359500D01*
X149285006Y-106368674D01*
X149171209Y-106396723D01*
X149033480Y-106469008D01*
X148917062Y-106572146D01*
X148917056Y-106572153D01*
X148828701Y-106700156D01*
X148773543Y-106845593D01*
X148754796Y-106999999D01*
X140872198Y-106999999D01*
X140844498Y-106926961D01*
X140756140Y-106798953D01*
X140756137Y-106798950D01*
X140756135Y-106798948D01*
X140639717Y-106695810D01*
X140501988Y-106623525D01*
X140388663Y-106595593D01*
X140350969Y-106586302D01*
X140195427Y-106586302D01*
X140158203Y-106595476D01*
X140044407Y-106623525D01*
X139906678Y-106695810D01*
X139790260Y-106798948D01*
X139790254Y-106798955D01*
X139701899Y-106926958D01*
X139646741Y-107072395D01*
X139627994Y-107226802D01*
X119473941Y-107226802D01*
X119473444Y-107204139D01*
X119491107Y-107166019D01*
X119571300Y-107049841D01*
X119626456Y-106904407D01*
X119645204Y-106750000D01*
X119626456Y-106595593D01*
X119571300Y-106450159D01*
X119482942Y-106322151D01*
X119482939Y-106322148D01*
X119482937Y-106322146D01*
X119366519Y-106219008D01*
X119228790Y-106146723D01*
X119127169Y-106121675D01*
X119077771Y-106109500D01*
X118922229Y-106109500D01*
X118885005Y-106118674D01*
X118771209Y-106146723D01*
X118633480Y-106219008D01*
X118517062Y-106322146D01*
X118517056Y-106322153D01*
X118428701Y-106450156D01*
X118373543Y-106595593D01*
X118354796Y-106750000D01*
X118373543Y-106904406D01*
X118406249Y-106990644D01*
X118421644Y-107031237D01*
X118428701Y-107049843D01*
X118460158Y-107095416D01*
X118517058Y-107177849D01*
X118517060Y-107177851D01*
X118517062Y-107177853D01*
X118633480Y-107280991D01*
X118633482Y-107280992D01*
X118771208Y-107353276D01*
X118920619Y-107390103D01*
X118980999Y-107425260D01*
X119012787Y-107487479D01*
X119005891Y-107557008D01*
X118962499Y-107611770D01*
X118896389Y-107634380D01*
X118890943Y-107634500D01*
X117202757Y-107634500D01*
X117135718Y-107614815D01*
X117115076Y-107598181D01*
X115674003Y-106157108D01*
X115640518Y-106095785D01*
X115638588Y-106054484D01*
X115645204Y-106000000D01*
X141854796Y-106000000D01*
X141873543Y-106154406D01*
X141928701Y-106299843D01*
X141944101Y-106322153D01*
X142017058Y-106427849D01*
X142017060Y-106427851D01*
X142017062Y-106427853D01*
X142133480Y-106530991D01*
X142133482Y-106530992D01*
X142271208Y-106603276D01*
X142422229Y-106640500D01*
X142422230Y-106640500D01*
X142577770Y-106640500D01*
X142577771Y-106640500D01*
X142728792Y-106603276D01*
X142866518Y-106530992D01*
X142982942Y-106427849D01*
X143071300Y-106299841D01*
X143126456Y-106154407D01*
X143145204Y-106000000D01*
X143126456Y-105845593D01*
X143071300Y-105700159D01*
X142982942Y-105572151D01*
X142982939Y-105572148D01*
X142982937Y-105572146D01*
X142866519Y-105469008D01*
X142728790Y-105396723D01*
X142627169Y-105371675D01*
X142577771Y-105359500D01*
X142422229Y-105359500D01*
X142385005Y-105368674D01*
X142271209Y-105396723D01*
X142133480Y-105469008D01*
X142017062Y-105572146D01*
X142017056Y-105572153D01*
X141928701Y-105700156D01*
X141873543Y-105845593D01*
X141854796Y-106000000D01*
X115645204Y-106000000D01*
X115626456Y-105845593D01*
X115571300Y-105700159D01*
X115482942Y-105572151D01*
X115482939Y-105572148D01*
X115482937Y-105572146D01*
X115366519Y-105469008D01*
X115228790Y-105396723D01*
X115127169Y-105371675D01*
X115077771Y-105359500D01*
X114922229Y-105359500D01*
X114885006Y-105368674D01*
X114771209Y-105396723D01*
X114633480Y-105469008D01*
X114517062Y-105572146D01*
X114517056Y-105572153D01*
X114428701Y-105700156D01*
X114373543Y-105845593D01*
X114354796Y-106000000D01*
X111401502Y-106000000D01*
X111366519Y-105969008D01*
X111228790Y-105896723D01*
X111127169Y-105871675D01*
X111077771Y-105859500D01*
X110922229Y-105859500D01*
X110885006Y-105868674D01*
X110771209Y-105896723D01*
X110633480Y-105969008D01*
X110517062Y-106072146D01*
X110517056Y-106072153D01*
X110428701Y-106200156D01*
X110373543Y-106345593D01*
X110354796Y-106500000D01*
X90400000Y-106500000D01*
X90400000Y-106438111D01*
X90359493Y-106300156D01*
X90333686Y-106260000D01*
X91230636Y-106260000D01*
X91230635Y-106259999D01*
X91173432Y-106046513D01*
X91173429Y-106046507D01*
X91073600Y-105832422D01*
X91073599Y-105832420D01*
X90938113Y-105638926D01*
X90938108Y-105638920D01*
X90771082Y-105471894D01*
X90577578Y-105336399D01*
X90363492Y-105236570D01*
X90363483Y-105236566D01*
X90308052Y-105221714D01*
X90248391Y-105185349D01*
X90217862Y-105122502D01*
X90226157Y-105053127D01*
X90270642Y-104999249D01*
X90295346Y-104986314D01*
X90388160Y-104950358D01*
X90559989Y-104843966D01*
X90709342Y-104707813D01*
X90831134Y-104546534D01*
X90921217Y-104365622D01*
X90976525Y-104171237D01*
X90995172Y-103970000D01*
X90976525Y-103768763D01*
X90921217Y-103574378D01*
X90831134Y-103393466D01*
X90709342Y-103232187D01*
X90709340Y-103232184D01*
X90559989Y-103096034D01*
X90559987Y-103096032D01*
X90388163Y-102989643D01*
X90388157Y-102989640D01*
X90239632Y-102932101D01*
X90199708Y-102916635D01*
X90001050Y-102879500D01*
X89798950Y-102879500D01*
X89600292Y-102916635D01*
X89600289Y-102916635D01*
X89600289Y-102916636D01*
X89411842Y-102989640D01*
X89411836Y-102989643D01*
X89240012Y-103096032D01*
X89240010Y-103096034D01*
X89090659Y-103232184D01*
X88968866Y-103393465D01*
X88878787Y-103574367D01*
X88878782Y-103574380D01*
X88823474Y-103768763D01*
X88804828Y-103969999D01*
X88804828Y-103970000D01*
X88823474Y-104171236D01*
X88878782Y-104365619D01*
X88878787Y-104365632D01*
X88968866Y-104546534D01*
X89090659Y-104707815D01*
X89240010Y-104843965D01*
X89240012Y-104843967D01*
X89411836Y-104950356D01*
X89411842Y-104950359D01*
X89504648Y-104986312D01*
X89560049Y-105028885D01*
X89583640Y-105094652D01*
X89567929Y-105162732D01*
X89517905Y-105211511D01*
X89491948Y-105221714D01*
X89436513Y-105236567D01*
X89436507Y-105236570D01*
X89222422Y-105336399D01*
X89222420Y-105336400D01*
X89028926Y-105471886D01*
X89028920Y-105471891D01*
X88861891Y-105638920D01*
X88861886Y-105638926D01*
X88726400Y-105832420D01*
X88726399Y-105832422D01*
X88626570Y-106046507D01*
X88626567Y-106046513D01*
X88569364Y-106259999D01*
X88569364Y-106260000D01*
X89466314Y-106260000D01*
X89440507Y-106300156D01*
X89400000Y-106438111D01*
X89400000Y-106581889D01*
X89440507Y-106719844D01*
X89466314Y-106760000D01*
X88569364Y-106760000D01*
X85500500Y-106760000D01*
X85500500Y-98000002D01*
X87195153Y-98000002D01*
X87214526Y-98357314D01*
X87214527Y-98357331D01*
X87272415Y-98710431D01*
X87272421Y-98710457D01*
X87368147Y-99055232D01*
X87368149Y-99055239D01*
X87500597Y-99387659D01*
X87500606Y-99387677D01*
X87668218Y-99703827D01*
X87869033Y-100000007D01*
X87996441Y-100150003D01*
X87996442Y-100150004D01*
X89202266Y-98944180D01*
X89365130Y-99134870D01*
X89555818Y-99297732D01*
X88347255Y-100506295D01*
X88347256Y-100506296D01*
X88360485Y-100518828D01*
X88360486Y-100518829D01*
X88645367Y-100735388D01*
X88645370Y-100735390D01*
X88951990Y-100919876D01*
X89276739Y-101070122D01*
X89276744Y-101070123D01*
X89615855Y-101184383D01*
X89965339Y-101261311D01*
X90321075Y-101299999D01*
X90321085Y-101300000D01*
X90678915Y-101300000D01*
X90678924Y-101299999D01*
X91034660Y-101261311D01*
X91384144Y-101184383D01*
X91723255Y-101070123D01*
X91723260Y-101070122D01*
X92048009Y-100919876D01*
X92354629Y-100735390D01*
X92354632Y-100735388D01*
X92639504Y-100518836D01*
X92652742Y-100506294D01*
X91444180Y-99297733D01*
X91634870Y-99134870D01*
X91797733Y-98944180D01*
X93003556Y-100150003D01*
X93130964Y-100000008D01*
X93130975Y-99999994D01*
X93331781Y-99703827D01*
X93439844Y-99499999D01*
X111354796Y-99499999D01*
X111373543Y-99654406D01*
X111413252Y-99759109D01*
X111428700Y-99799841D01*
X111517058Y-99927849D01*
X111517060Y-99927851D01*
X111517062Y-99927853D01*
X111633480Y-100030991D01*
X111633482Y-100030992D01*
X111771208Y-100103276D01*
X111922229Y-100140500D01*
X111922230Y-100140500D01*
X112077770Y-100140500D01*
X112077771Y-100140500D01*
X112228792Y-100103276D01*
X112366518Y-100030992D01*
X112482942Y-99927849D01*
X112571300Y-99799841D01*
X112626456Y-99654407D01*
X112645204Y-99500000D01*
X112626456Y-99345593D01*
X112571300Y-99200159D01*
X112482942Y-99072151D01*
X112482939Y-99072148D01*
X112482937Y-99072146D01*
X112366519Y-98969008D01*
X112228790Y-98896723D01*
X112127169Y-98871675D01*
X112077771Y-98859500D01*
X111922229Y-98859500D01*
X111885006Y-98868674D01*
X111771209Y-98896723D01*
X111633480Y-98969008D01*
X111517062Y-99072146D01*
X111517056Y-99072153D01*
X111428701Y-99200156D01*
X111373543Y-99345593D01*
X111354796Y-99499999D01*
X93439844Y-99499999D01*
X93499393Y-99387677D01*
X93499402Y-99387659D01*
X93631850Y-99055239D01*
X93631852Y-99055232D01*
X93727578Y-98710457D01*
X93727584Y-98710431D01*
X93785472Y-98357331D01*
X93785473Y-98357314D01*
X93791292Y-98249999D01*
X119104796Y-98249999D01*
X119123543Y-98404406D01*
X119158264Y-98495956D01*
X119178700Y-98549841D01*
X119267058Y-98677849D01*
X119267060Y-98677851D01*
X119267062Y-98677853D01*
X119383480Y-98780991D01*
X119383482Y-98780992D01*
X119521208Y-98853276D01*
X119672229Y-98890500D01*
X119672230Y-98890500D01*
X119827770Y-98890500D01*
X119827771Y-98890500D01*
X119978792Y-98853276D01*
X120116518Y-98780992D01*
X120232942Y-98677849D01*
X120321300Y-98549841D01*
X120376456Y-98404407D01*
X120395204Y-98250000D01*
X120376456Y-98095593D01*
X120340203Y-98000002D01*
X153195153Y-98000002D01*
X153214526Y-98357314D01*
X153214527Y-98357331D01*
X153272415Y-98710431D01*
X153272421Y-98710457D01*
X153368147Y-99055232D01*
X153368149Y-99055239D01*
X153500597Y-99387659D01*
X153500606Y-99387677D01*
X153668218Y-99703827D01*
X153869033Y-100000007D01*
X153996441Y-100150003D01*
X153996442Y-100150004D01*
X155202266Y-98944180D01*
X155365130Y-99134870D01*
X155555818Y-99297732D01*
X154347255Y-100506295D01*
X154347256Y-100506296D01*
X154360485Y-100518828D01*
X154360486Y-100518829D01*
X154645367Y-100735388D01*
X154645370Y-100735390D01*
X154951990Y-100919876D01*
X155276739Y-101070122D01*
X155276744Y-101070123D01*
X155615855Y-101184383D01*
X155965339Y-101261311D01*
X156321075Y-101299999D01*
X156321085Y-101300000D01*
X156678915Y-101300000D01*
X156678924Y-101299999D01*
X157034660Y-101261311D01*
X157384144Y-101184383D01*
X157723255Y-101070123D01*
X157723260Y-101070122D01*
X158048009Y-100919876D01*
X158354629Y-100735390D01*
X158354632Y-100735388D01*
X158639504Y-100518836D01*
X158652742Y-100506294D01*
X157444180Y-99297733D01*
X157634870Y-99134870D01*
X157797733Y-98944180D01*
X159003556Y-100150003D01*
X159130964Y-100000008D01*
X159130975Y-99999994D01*
X159331781Y-99703827D01*
X159499393Y-99387677D01*
X159499402Y-99387659D01*
X159631850Y-99055239D01*
X159631852Y-99055232D01*
X159727578Y-98710457D01*
X159727584Y-98710431D01*
X159785472Y-98357331D01*
X159785473Y-98357314D01*
X159804846Y-98000002D01*
X159804846Y-97999997D01*
X159785473Y-97642685D01*
X159785472Y-97642668D01*
X159727584Y-97289568D01*
X159727578Y-97289542D01*
X159631852Y-96944767D01*
X159631850Y-96944760D01*
X159499402Y-96612340D01*
X159499393Y-96612322D01*
X159331781Y-96296172D01*
X159130966Y-95999992D01*
X159003557Y-95849995D01*
X159003556Y-95849994D01*
X157797732Y-97055818D01*
X157634870Y-96865130D01*
X157444180Y-96702266D01*
X158652743Y-95493703D01*
X158652742Y-95493702D01*
X158639514Y-95481171D01*
X158639513Y-95481170D01*
X158354632Y-95264611D01*
X158354629Y-95264609D01*
X158048009Y-95080123D01*
X157723260Y-94929877D01*
X157723255Y-94929876D01*
X157384144Y-94815616D01*
X157034660Y-94738688D01*
X156678924Y-94700000D01*
X156321075Y-94700000D01*
X155965339Y-94738688D01*
X155615855Y-94815616D01*
X155276744Y-94929876D01*
X155276739Y-94929877D01*
X154951990Y-95080123D01*
X154645370Y-95264609D01*
X154645367Y-95264611D01*
X154360491Y-95481166D01*
X154347256Y-95493703D01*
X154347255Y-95493703D01*
X155555819Y-96702266D01*
X155365130Y-96865130D01*
X155202266Y-97055818D01*
X153996442Y-95849994D01*
X153996441Y-95849995D01*
X153869040Y-95999983D01*
X153869033Y-95999993D01*
X153668218Y-96296172D01*
X153500606Y-96612322D01*
X153500597Y-96612340D01*
X153368149Y-96944760D01*
X153368147Y-96944767D01*
X153272421Y-97289542D01*
X153272415Y-97289568D01*
X153214527Y-97642668D01*
X153214526Y-97642685D01*
X153195153Y-97999997D01*
X153195153Y-98000002D01*
X120340203Y-98000002D01*
X120321300Y-97950159D01*
X120232942Y-97822151D01*
X120232939Y-97822148D01*
X120232937Y-97822146D01*
X120116519Y-97719008D01*
X119978790Y-97646723D01*
X119877169Y-97621675D01*
X119827771Y-97609500D01*
X119672229Y-97609500D01*
X119635006Y-97618674D01*
X119521209Y-97646723D01*
X119383480Y-97719008D01*
X119267062Y-97822146D01*
X119267056Y-97822153D01*
X119178701Y-97950156D01*
X119123543Y-98095593D01*
X119104796Y-98249999D01*
X93791292Y-98249999D01*
X93804847Y-98000002D01*
X93804847Y-97999997D01*
X93785473Y-97642685D01*
X93785472Y-97642668D01*
X93727584Y-97289568D01*
X93727578Y-97289542D01*
X93631852Y-96944767D01*
X93631850Y-96944760D01*
X93499402Y-96612340D01*
X93499393Y-96612322D01*
X93331781Y-96296172D01*
X93130966Y-95999992D01*
X93003557Y-95849995D01*
X93003556Y-95849994D01*
X91797732Y-97055818D01*
X91634870Y-96865130D01*
X91444180Y-96702266D01*
X92652743Y-95493703D01*
X92652742Y-95493702D01*
X92639514Y-95481171D01*
X92639513Y-95481170D01*
X92354632Y-95264611D01*
X92354629Y-95264609D01*
X92330347Y-95249999D01*
X123104796Y-95249999D01*
X123123543Y-95404406D01*
X123152655Y-95481166D01*
X123178700Y-95549841D01*
X123267058Y-95677849D01*
X123267060Y-95677851D01*
X123267062Y-95677853D01*
X123383480Y-95780991D01*
X123383482Y-95780992D01*
X123521208Y-95853276D01*
X123672229Y-95890500D01*
X123672230Y-95890500D01*
X123827770Y-95890500D01*
X123827771Y-95890500D01*
X123978792Y-95853276D01*
X124116518Y-95780992D01*
X124232942Y-95677849D01*
X124321300Y-95549841D01*
X124376456Y-95404407D01*
X124395204Y-95250000D01*
X124376456Y-95095593D01*
X124321300Y-94950159D01*
X124232942Y-94822151D01*
X124232939Y-94822148D01*
X124232937Y-94822146D01*
X124116519Y-94719008D01*
X123978790Y-94646723D01*
X123877169Y-94621675D01*
X123827771Y-94609500D01*
X123672229Y-94609500D01*
X123635006Y-94618674D01*
X123521209Y-94646723D01*
X123383480Y-94719008D01*
X123267062Y-94822146D01*
X123267056Y-94822153D01*
X123178701Y-94950156D01*
X123123543Y-95095593D01*
X123104796Y-95249999D01*
X92330347Y-95249999D01*
X92048009Y-95080123D01*
X91723260Y-94929877D01*
X91723255Y-94929876D01*
X91384144Y-94815616D01*
X91034660Y-94738688D01*
X90678924Y-94700000D01*
X90321075Y-94700000D01*
X89965339Y-94738688D01*
X89615855Y-94815616D01*
X89276744Y-94929876D01*
X89276739Y-94929877D01*
X88951990Y-95080123D01*
X88645370Y-95264609D01*
X88645367Y-95264611D01*
X88360491Y-95481166D01*
X88347256Y-95493703D01*
X88347255Y-95493703D01*
X89555819Y-96702266D01*
X89365130Y-96865130D01*
X89202266Y-97055818D01*
X87996442Y-95849994D01*
X87996441Y-95849995D01*
X87869040Y-95999983D01*
X87869033Y-95999993D01*
X87668218Y-96296172D01*
X87500606Y-96612322D01*
X87500597Y-96612340D01*
X87368149Y-96944760D01*
X87368147Y-96944767D01*
X87272421Y-97289542D01*
X87272415Y-97289568D01*
X87214527Y-97642668D01*
X87214526Y-97642685D01*
X87195153Y-97999997D01*
X87195153Y-98000002D01*
X85500500Y-98000002D01*
X85500500Y-90000000D01*
X114854796Y-90000000D01*
X114873543Y-90154406D01*
X114913252Y-90259109D01*
X114928700Y-90299841D01*
X115017058Y-90427849D01*
X115017060Y-90427851D01*
X115017062Y-90427853D01*
X115133480Y-90530991D01*
X115133482Y-90530992D01*
X115271208Y-90603276D01*
X115422229Y-90640500D01*
X115422230Y-90640500D01*
X115577770Y-90640500D01*
X115577771Y-90640500D01*
X115728792Y-90603276D01*
X115866518Y-90530992D01*
X115982942Y-90427849D01*
X116071300Y-90299841D01*
X116126456Y-90154407D01*
X116145204Y-90000000D01*
X116126456Y-89845593D01*
X116071300Y-89700159D01*
X115982942Y-89572151D01*
X115982939Y-89572148D01*
X115982937Y-89572146D01*
X115866519Y-89469008D01*
X115728790Y-89396723D01*
X115627169Y-89371675D01*
X115577771Y-89359500D01*
X115422229Y-89359500D01*
X115385005Y-89368674D01*
X115271209Y-89396723D01*
X115133480Y-89469008D01*
X115017062Y-89572146D01*
X115017056Y-89572153D01*
X114928701Y-89700156D01*
X114873543Y-89845593D01*
X114854796Y-90000000D01*
X85500500Y-90000000D01*
X85500500Y-85750000D01*
X94104796Y-85750000D01*
X94123543Y-85904406D01*
X94139289Y-85945924D01*
X94171551Y-86030992D01*
X94178701Y-86049843D01*
X94194101Y-86072153D01*
X94267058Y-86177849D01*
X94267060Y-86177851D01*
X94267062Y-86177853D01*
X94383480Y-86280991D01*
X94383482Y-86280992D01*
X94521208Y-86353276D01*
X94672229Y-86390500D01*
X94672230Y-86390500D01*
X94827770Y-86390500D01*
X94827771Y-86390500D01*
X94978792Y-86353276D01*
X95116518Y-86280992D01*
X95232942Y-86177849D01*
X95321300Y-86049841D01*
X95376456Y-85904407D01*
X95395204Y-85750000D01*
X95376456Y-85595593D01*
X95340202Y-85499999D01*
X127354796Y-85499999D01*
X127373543Y-85654406D01*
X127374568Y-85657108D01*
X127428700Y-85799841D01*
X127517058Y-85927849D01*
X127517060Y-85927851D01*
X127517062Y-85927853D01*
X127633480Y-86030991D01*
X127633482Y-86030992D01*
X127771208Y-86103276D01*
X127922229Y-86140500D01*
X127922230Y-86140500D01*
X128072243Y-86140500D01*
X128139282Y-86160185D01*
X128159924Y-86176819D01*
X130205654Y-88222549D01*
X130221779Y-88242405D01*
X130227372Y-88250965D01*
X130227375Y-88250969D01*
X130254562Y-88272130D01*
X130260323Y-88277218D01*
X130262968Y-88279863D01*
X130281465Y-88293069D01*
X130323636Y-88325893D01*
X130323638Y-88325893D01*
X130330367Y-88329535D01*
X130337252Y-88332901D01*
X130337253Y-88332901D01*
X130337254Y-88332902D01*
X130355969Y-88338473D01*
X130388460Y-88348147D01*
X130446293Y-88368001D01*
X130503308Y-88408387D01*
X130508078Y-88414841D01*
X130517054Y-88427845D01*
X130517058Y-88427850D01*
X130633480Y-88530991D01*
X130633482Y-88530992D01*
X130771208Y-88603276D01*
X130922229Y-88640500D01*
X130922230Y-88640500D01*
X131077770Y-88640500D01*
X131077771Y-88640500D01*
X131228792Y-88603276D01*
X131366518Y-88530992D01*
X131482942Y-88427849D01*
X131571300Y-88299841D01*
X131626456Y-88154407D01*
X131645204Y-88000000D01*
X131626456Y-87845593D01*
X131571300Y-87700159D01*
X131482942Y-87572151D01*
X131482939Y-87572148D01*
X131482937Y-87572146D01*
X131366519Y-87469008D01*
X131332085Y-87450936D01*
X136495631Y-87450936D01*
X136526442Y-87652063D01*
X136526445Y-87652075D01*
X136597111Y-87842881D01*
X136597115Y-87842888D01*
X136704745Y-88015567D01*
X136704747Y-88015569D01*
X136704748Y-88015571D01*
X136844941Y-88163053D01*
X136943489Y-88231644D01*
X137011949Y-88279294D01*
X137011950Y-88279294D01*
X137011951Y-88279295D01*
X137198942Y-88359540D01*
X137398259Y-88400500D01*
X137550743Y-88400500D01*
X137702439Y-88385074D01*
X137896579Y-88324162D01*
X137896580Y-88324161D01*
X137896588Y-88324159D01*
X138074502Y-88225409D01*
X138228895Y-88092866D01*
X138353448Y-87931958D01*
X138443060Y-87749271D01*
X138494063Y-87552285D01*
X138504369Y-87349064D01*
X138473556Y-87147929D01*
X138402886Y-86957113D01*
X138295252Y-86784429D01*
X138155059Y-86636947D01*
X138056587Y-86568409D01*
X137988050Y-86520705D01*
X137801056Y-86440459D01*
X137601741Y-86399500D01*
X137449258Y-86399500D01*
X137449257Y-86399500D01*
X137297560Y-86414925D01*
X137103420Y-86475837D01*
X137103405Y-86475844D01*
X136925500Y-86574589D01*
X136925495Y-86574592D01*
X136771106Y-86707132D01*
X136771104Y-86707134D01*
X136646554Y-86868037D01*
X136646553Y-86868040D01*
X136556940Y-87050728D01*
X136505937Y-87247714D01*
X136495631Y-87450936D01*
X131332085Y-87450936D01*
X131300765Y-87434498D01*
X131228792Y-87396724D01*
X131228789Y-87396723D01*
X131121981Y-87370397D01*
X131061600Y-87335240D01*
X131029812Y-87273021D01*
X131036708Y-87203492D01*
X131080100Y-87148730D01*
X131121981Y-87129603D01*
X131228792Y-87103276D01*
X131366518Y-87030992D01*
X131482942Y-86927849D01*
X131571300Y-86799841D01*
X131626456Y-86654407D01*
X131645204Y-86500000D01*
X131626456Y-86345593D01*
X131571300Y-86200159D01*
X131482942Y-86072151D01*
X131482939Y-86072148D01*
X131482937Y-86072146D01*
X131407272Y-86005113D01*
X131370145Y-85945924D01*
X131365499Y-85912304D01*
X131365499Y-85069094D01*
X131385184Y-85002057D01*
X131437988Y-84956302D01*
X131507146Y-84946358D01*
X131570702Y-84975383D01*
X131571659Y-84976221D01*
X131633482Y-85030992D01*
X131771208Y-85103276D01*
X131922229Y-85140500D01*
X131922230Y-85140500D01*
X132077770Y-85140500D01*
X132077771Y-85140500D01*
X132228792Y-85103276D01*
X132366518Y-85030992D01*
X132482942Y-84927849D01*
X132571300Y-84799841D01*
X132626456Y-84654407D01*
X132645204Y-84500000D01*
X132626456Y-84345593D01*
X132571300Y-84200159D01*
X132482942Y-84072151D01*
X132428271Y-84023717D01*
X132407272Y-84005113D01*
X132370146Y-83945923D01*
X132365500Y-83912298D01*
X132365500Y-83569097D01*
X132385185Y-83502058D01*
X132437989Y-83456303D01*
X132507147Y-83446359D01*
X132570703Y-83475384D01*
X132571727Y-83476282D01*
X132633480Y-83530991D01*
X132633482Y-83530992D01*
X132771208Y-83603276D01*
X132922229Y-83640500D01*
X132922230Y-83640500D01*
X133077770Y-83640500D01*
X133077771Y-83640500D01*
X133228792Y-83603276D01*
X133366518Y-83530992D01*
X133482942Y-83427849D01*
X133571300Y-83299841D01*
X133626456Y-83154407D01*
X133645204Y-83000000D01*
X133626456Y-82845593D01*
X133571300Y-82700159D01*
X133482942Y-82572151D01*
X133482939Y-82572148D01*
X133482937Y-82572146D01*
X133366519Y-82469008D01*
X133228790Y-82396723D01*
X133127169Y-82371675D01*
X133077771Y-82359500D01*
X132922229Y-82359500D01*
X132885006Y-82368674D01*
X132771209Y-82396723D01*
X132633483Y-82469007D01*
X132571727Y-82523718D01*
X132508493Y-82553439D01*
X132439230Y-82544255D01*
X132385927Y-82499083D01*
X132365507Y-82432263D01*
X132365500Y-82430902D01*
X132365500Y-81264500D01*
X132385185Y-81197461D01*
X132437989Y-81151706D01*
X132489500Y-81140500D01*
X132577770Y-81140500D01*
X132577771Y-81140500D01*
X132728792Y-81103276D01*
X132866518Y-81030992D01*
X132982942Y-80927849D01*
X133071300Y-80799841D01*
X133126456Y-80654407D01*
X133145204Y-80500000D01*
X133126456Y-80345593D01*
X133071300Y-80200159D01*
X132982942Y-80072151D01*
X132982939Y-80072148D01*
X132982937Y-80072146D01*
X132866519Y-79969008D01*
X132728790Y-79896723D01*
X132627169Y-79871675D01*
X132577771Y-79859500D01*
X132422229Y-79859500D01*
X132385005Y-79868674D01*
X132271209Y-79896723D01*
X132133480Y-79969008D01*
X132017062Y-80072146D01*
X132017056Y-80072153D01*
X131928701Y-80200156D01*
X131873543Y-80345593D01*
X131854796Y-80499999D01*
X131854796Y-80500002D01*
X131861410Y-80554483D01*
X131849948Y-80623406D01*
X131825995Y-80657108D01*
X131777447Y-80705656D01*
X131757595Y-80721779D01*
X131749033Y-80727373D01*
X131749029Y-80727376D01*
X131727874Y-80754555D01*
X131722797Y-80760305D01*
X131720145Y-80762957D01*
X131720136Y-80762968D01*
X131706930Y-80781465D01*
X131674104Y-80823639D01*
X131670478Y-80830337D01*
X131667098Y-80837252D01*
X131651853Y-80888459D01*
X131634498Y-80939012D01*
X131633241Y-80946548D01*
X131632291Y-80954166D01*
X131634500Y-81007547D01*
X131634499Y-83912298D01*
X131614814Y-83979337D01*
X131592728Y-84005112D01*
X131571728Y-84023717D01*
X131508495Y-84053439D01*
X131439232Y-84044257D01*
X131385927Y-83999086D01*
X131365507Y-83932267D01*
X131365499Y-83930903D01*
X131365499Y-82359500D01*
X131365499Y-78702752D01*
X131385184Y-78635717D01*
X131401813Y-78615080D01*
X131840075Y-78176818D01*
X131901398Y-78143334D01*
X131927756Y-78140500D01*
X132077770Y-78140500D01*
X132077771Y-78140500D01*
X132228792Y-78103276D01*
X132366518Y-78030992D01*
X132482942Y-77927849D01*
X132571300Y-77799841D01*
X132626456Y-77654407D01*
X132626877Y-77650936D01*
X136495631Y-77650936D01*
X136526442Y-77852063D01*
X136526445Y-77852075D01*
X136597111Y-78042881D01*
X136597113Y-78042884D01*
X136597114Y-78042887D01*
X136643005Y-78116513D01*
X136704745Y-78215567D01*
X136704747Y-78215569D01*
X136704748Y-78215571D01*
X136844941Y-78363053D01*
X136954075Y-78439012D01*
X137011949Y-78479294D01*
X137011950Y-78479294D01*
X137011951Y-78479295D01*
X137198942Y-78559540D01*
X137398259Y-78600500D01*
X137550743Y-78600500D01*
X137702439Y-78585074D01*
X137896579Y-78524162D01*
X137896580Y-78524161D01*
X137896588Y-78524159D01*
X138074502Y-78425409D01*
X138228895Y-78292866D01*
X138353448Y-78131958D01*
X138443060Y-77949271D01*
X138494063Y-77752285D01*
X138504369Y-77549064D01*
X138473556Y-77347929D01*
X138402886Y-77157113D01*
X138295252Y-76984429D01*
X138155059Y-76836947D01*
X138056587Y-76768409D01*
X137988050Y-76720705D01*
X137801056Y-76640459D01*
X137601741Y-76599500D01*
X137449258Y-76599500D01*
X137449257Y-76599500D01*
X137297560Y-76614925D01*
X137103420Y-76675837D01*
X137103405Y-76675844D01*
X136925500Y-76774589D01*
X136925495Y-76774592D01*
X136771106Y-76907132D01*
X136771104Y-76907134D01*
X136646554Y-77068037D01*
X136646553Y-77068040D01*
X136556940Y-77250728D01*
X136505937Y-77447714D01*
X136495631Y-77650936D01*
X132626877Y-77650936D01*
X132645204Y-77500000D01*
X132626456Y-77345593D01*
X132571300Y-77200159D01*
X132482942Y-77072151D01*
X132482939Y-77072148D01*
X132482937Y-77072146D01*
X132366519Y-76969008D01*
X132228790Y-76896723D01*
X132127169Y-76871675D01*
X132077771Y-76859500D01*
X131922229Y-76859500D01*
X131885006Y-76868674D01*
X131771209Y-76896723D01*
X131633480Y-76969008D01*
X131517062Y-77072146D01*
X131517056Y-77072153D01*
X131428701Y-77200156D01*
X131373543Y-77345593D01*
X131354796Y-77499999D01*
X131354796Y-77500002D01*
X131361410Y-77554483D01*
X131349948Y-77623406D01*
X131325995Y-77657108D01*
X130777447Y-78205656D01*
X130757595Y-78221779D01*
X130749033Y-78227373D01*
X130749029Y-78227376D01*
X130727874Y-78254555D01*
X130722797Y-78260305D01*
X130720145Y-78262957D01*
X130720136Y-78262968D01*
X130706930Y-78281465D01*
X130674104Y-78323639D01*
X130670478Y-78330337D01*
X130667098Y-78337252D01*
X130651853Y-78388459D01*
X130634498Y-78439012D01*
X130633241Y-78446548D01*
X130632291Y-78454166D01*
X130634500Y-78507547D01*
X130634500Y-85912298D01*
X130614815Y-85979337D01*
X130592728Y-86005113D01*
X130517058Y-86072150D01*
X130517056Y-86072153D01*
X130428701Y-86200156D01*
X130373543Y-86345593D01*
X130354796Y-86499999D01*
X130373543Y-86654406D01*
X130428701Y-86799843D01*
X130475776Y-86868042D01*
X130517058Y-86927849D01*
X130517060Y-86927851D01*
X130517062Y-86927853D01*
X130633480Y-87030991D01*
X130633482Y-87030992D01*
X130771208Y-87103276D01*
X130878019Y-87129603D01*
X130938399Y-87164760D01*
X130970187Y-87226979D01*
X130963291Y-87296508D01*
X130919899Y-87351270D01*
X130878019Y-87370397D01*
X130771209Y-87396723D01*
X130633477Y-87469010D01*
X130631206Y-87470578D01*
X130629282Y-87471212D01*
X130626840Y-87472494D01*
X130626626Y-87472087D01*
X130564849Y-87492453D01*
X130497200Y-87474981D01*
X130473096Y-87456201D01*
X128674003Y-85657108D01*
X128640518Y-85595785D01*
X128638588Y-85554484D01*
X128645204Y-85500000D01*
X128626456Y-85345593D01*
X128571300Y-85200159D01*
X128482942Y-85072151D01*
X128482939Y-85072148D01*
X128482937Y-85072146D01*
X128366519Y-84969008D01*
X128228790Y-84896723D01*
X128127169Y-84871675D01*
X128077771Y-84859500D01*
X127922229Y-84859500D01*
X127885005Y-84868674D01*
X127771209Y-84896723D01*
X127633480Y-84969008D01*
X127517062Y-85072146D01*
X127517056Y-85072153D01*
X127428701Y-85200156D01*
X127373543Y-85345593D01*
X127354796Y-85499999D01*
X95340202Y-85499999D01*
X95321300Y-85450159D01*
X95232942Y-85322151D01*
X95232939Y-85322148D01*
X95232937Y-85322146D01*
X95116519Y-85219008D01*
X94978790Y-85146723D01*
X94877169Y-85121675D01*
X94827771Y-85109500D01*
X94672229Y-85109500D01*
X94635005Y-85118674D01*
X94521209Y-85146723D01*
X94383480Y-85219008D01*
X94267062Y-85322146D01*
X94267056Y-85322153D01*
X94178701Y-85450156D01*
X94123543Y-85595593D01*
X94104796Y-85750000D01*
X85500500Y-85750000D01*
X85500500Y-83000000D01*
X123354796Y-83000000D01*
X123373543Y-83154406D01*
X123413252Y-83259109D01*
X123428700Y-83299841D01*
X123517058Y-83427849D01*
X123517060Y-83427851D01*
X123517062Y-83427853D01*
X123633480Y-83530991D01*
X123633482Y-83530992D01*
X123771208Y-83603276D01*
X123922229Y-83640500D01*
X123922230Y-83640500D01*
X124077770Y-83640500D01*
X124077771Y-83640500D01*
X124228792Y-83603276D01*
X124366518Y-83530992D01*
X124482942Y-83427849D01*
X124571300Y-83299841D01*
X124626456Y-83154407D01*
X124645204Y-83000000D01*
X124626456Y-82845593D01*
X124571300Y-82700159D01*
X124482942Y-82572151D01*
X124482939Y-82572148D01*
X124482937Y-82572146D01*
X124366519Y-82469008D01*
X124228790Y-82396723D01*
X124127169Y-82371675D01*
X124077771Y-82359500D01*
X123922229Y-82359500D01*
X123885006Y-82368674D01*
X123771209Y-82396723D01*
X123633480Y-82469008D01*
X123517062Y-82572146D01*
X123517056Y-82572153D01*
X123428701Y-82700156D01*
X123373543Y-82845593D01*
X123354796Y-83000000D01*
X85500500Y-83000000D01*
X85500500Y-75000002D01*
X87195153Y-75000002D01*
X87214526Y-75357314D01*
X87214527Y-75357331D01*
X87272415Y-75710431D01*
X87272421Y-75710457D01*
X87368147Y-76055232D01*
X87368149Y-76055239D01*
X87500597Y-76387659D01*
X87500606Y-76387677D01*
X87668218Y-76703827D01*
X87869033Y-77000007D01*
X87996441Y-77150003D01*
X87996442Y-77150004D01*
X89202266Y-75944180D01*
X89365130Y-76134870D01*
X89555818Y-76297732D01*
X88347255Y-77506295D01*
X88347256Y-77506296D01*
X88360485Y-77518828D01*
X88360486Y-77518829D01*
X88645367Y-77735388D01*
X88645370Y-77735390D01*
X88951990Y-77919876D01*
X89276739Y-78070122D01*
X89276744Y-78070123D01*
X89615855Y-78184383D01*
X89965339Y-78261311D01*
X90321075Y-78299999D01*
X90321085Y-78300000D01*
X90678915Y-78300000D01*
X90678924Y-78299999D01*
X91034660Y-78261311D01*
X91384144Y-78184383D01*
X91723255Y-78070123D01*
X91723260Y-78070122D01*
X92048009Y-77919876D01*
X92354629Y-77735390D01*
X92354632Y-77735388D01*
X92639504Y-77518836D01*
X92652742Y-77506294D01*
X91444180Y-76297733D01*
X91634870Y-76134870D01*
X91797733Y-75944180D01*
X93003556Y-77150003D01*
X93130964Y-77000008D01*
X93130975Y-76999994D01*
X93331781Y-76703827D01*
X93499393Y-76387677D01*
X93499402Y-76387659D01*
X93631850Y-76055239D01*
X93631852Y-76055232D01*
X93727578Y-75710457D01*
X93727584Y-75710431D01*
X93785472Y-75357331D01*
X93785473Y-75357314D01*
X93804847Y-75000002D01*
X93804847Y-74999997D01*
X93785473Y-74642685D01*
X93785472Y-74642668D01*
X93729704Y-74302500D01*
X120729828Y-74302500D01*
X120748469Y-74491769D01*
X120748470Y-74491771D01*
X120803678Y-74673769D01*
X120843853Y-74748931D01*
X120893332Y-74841500D01*
X121013984Y-74988515D01*
X121116291Y-75072476D01*
X121161001Y-75109169D01*
X121328731Y-75198822D01*
X121510729Y-75254030D01*
X121510728Y-75254030D01*
X121527698Y-75255701D01*
X121700000Y-75272672D01*
X121889271Y-75254030D01*
X122071269Y-75198822D01*
X122238999Y-75109169D01*
X122386015Y-74988515D01*
X122506669Y-74841499D01*
X122596322Y-74673769D01*
X122651530Y-74491771D01*
X122670172Y-74302500D01*
X122670172Y-74302499D01*
X125729828Y-74302499D01*
X125748469Y-74491769D01*
X125748470Y-74491771D01*
X125803678Y-74673769D01*
X125843853Y-74748931D01*
X125893332Y-74841500D01*
X126013984Y-74988515D01*
X126116291Y-75072476D01*
X126161001Y-75109169D01*
X126328731Y-75198822D01*
X126510729Y-75254030D01*
X126510728Y-75254030D01*
X126527698Y-75255701D01*
X126700000Y-75272672D01*
X126889271Y-75254030D01*
X127071269Y-75198822D01*
X127238999Y-75109169D01*
X127372018Y-75000002D01*
X153195153Y-75000002D01*
X153214526Y-75357314D01*
X153214527Y-75357331D01*
X153272415Y-75710431D01*
X153272421Y-75710457D01*
X153368147Y-76055232D01*
X153368149Y-76055239D01*
X153500597Y-76387659D01*
X153500606Y-76387677D01*
X153668218Y-76703827D01*
X153869033Y-77000007D01*
X153996441Y-77150003D01*
X153996442Y-77150004D01*
X155202266Y-75944180D01*
X155365130Y-76134870D01*
X155555818Y-76297732D01*
X154347255Y-77506295D01*
X154347256Y-77506296D01*
X154360485Y-77518828D01*
X154360486Y-77518829D01*
X154645367Y-77735388D01*
X154645370Y-77735390D01*
X154951990Y-77919876D01*
X155276739Y-78070122D01*
X155276744Y-78070123D01*
X155615855Y-78184383D01*
X155965339Y-78261311D01*
X156321075Y-78299999D01*
X156321085Y-78300000D01*
X156678915Y-78300000D01*
X156678924Y-78299999D01*
X157034660Y-78261311D01*
X157384144Y-78184383D01*
X157723255Y-78070123D01*
X157723260Y-78070122D01*
X158048009Y-77919876D01*
X158354629Y-77735390D01*
X158354632Y-77735388D01*
X158639504Y-77518836D01*
X158652742Y-77506294D01*
X157444180Y-76297733D01*
X157634870Y-76134870D01*
X157797733Y-75944180D01*
X159003556Y-77150003D01*
X159130964Y-77000008D01*
X159130975Y-76999994D01*
X159331781Y-76703827D01*
X159499393Y-76387677D01*
X159499402Y-76387659D01*
X159631850Y-76055239D01*
X159631852Y-76055232D01*
X159727578Y-75710457D01*
X159727584Y-75710431D01*
X159785472Y-75357331D01*
X159785473Y-75357314D01*
X159804846Y-75000002D01*
X159804846Y-74999997D01*
X159785473Y-74642685D01*
X159785472Y-74642668D01*
X159727584Y-74289568D01*
X159727578Y-74289542D01*
X159631852Y-73944767D01*
X159631850Y-73944760D01*
X159499402Y-73612340D01*
X159499393Y-73612322D01*
X159331781Y-73296172D01*
X159130966Y-72999992D01*
X159003557Y-72849995D01*
X159003556Y-72849994D01*
X157797732Y-74055818D01*
X157634870Y-73865130D01*
X157444180Y-73702266D01*
X158652743Y-72493703D01*
X158652742Y-72493702D01*
X158639514Y-72481171D01*
X158639513Y-72481170D01*
X158354632Y-72264611D01*
X158354629Y-72264609D01*
X158048009Y-72080123D01*
X157723260Y-71929877D01*
X157723255Y-71929876D01*
X157384144Y-71815616D01*
X157034660Y-71738688D01*
X156678924Y-71700000D01*
X156321075Y-71700000D01*
X155965339Y-71738688D01*
X155615855Y-71815616D01*
X155276744Y-71929876D01*
X155276739Y-71929877D01*
X154951990Y-72080123D01*
X154645370Y-72264609D01*
X154645367Y-72264611D01*
X154360491Y-72481166D01*
X154347256Y-72493703D01*
X154347255Y-72493703D01*
X155555819Y-73702266D01*
X155365130Y-73865130D01*
X155202266Y-74055818D01*
X153996442Y-72849994D01*
X153996441Y-72849995D01*
X153869040Y-72999983D01*
X153869033Y-72999993D01*
X153668218Y-73296172D01*
X153500606Y-73612322D01*
X153500597Y-73612340D01*
X153368149Y-73944760D01*
X153368147Y-73944767D01*
X153272421Y-74289542D01*
X153272415Y-74289568D01*
X153214527Y-74642668D01*
X153214526Y-74642685D01*
X153195153Y-74999997D01*
X153195153Y-75000002D01*
X127372018Y-75000002D01*
X127386015Y-74988515D01*
X127506669Y-74841499D01*
X127596322Y-74673769D01*
X127651530Y-74491771D01*
X127670172Y-74302500D01*
X127651530Y-74113229D01*
X127596322Y-73931231D01*
X127506669Y-73763501D01*
X127455843Y-73701570D01*
X127386015Y-73616484D01*
X127239000Y-73495832D01*
X127238999Y-73495831D01*
X127071269Y-73406178D01*
X126889271Y-73350970D01*
X126889269Y-73350969D01*
X126889271Y-73350969D01*
X126700000Y-73332328D01*
X126510730Y-73350969D01*
X126328731Y-73406178D01*
X126160999Y-73495832D01*
X126013984Y-73616484D01*
X125893332Y-73763499D01*
X125803678Y-73931231D01*
X125748469Y-74113230D01*
X125729828Y-74302499D01*
X122670172Y-74302499D01*
X122651530Y-74113229D01*
X122596322Y-73931231D01*
X122506669Y-73763501D01*
X122455843Y-73701570D01*
X122386015Y-73616484D01*
X122239000Y-73495832D01*
X122238999Y-73495831D01*
X122071269Y-73406178D01*
X121889271Y-73350970D01*
X121889269Y-73350969D01*
X121889271Y-73350969D01*
X121700000Y-73332328D01*
X121510730Y-73350969D01*
X121328731Y-73406178D01*
X121160999Y-73495832D01*
X121013984Y-73616484D01*
X120893332Y-73763499D01*
X120803678Y-73931231D01*
X120748469Y-74113230D01*
X120729828Y-74302500D01*
X93729704Y-74302500D01*
X93727584Y-74289568D01*
X93727578Y-74289542D01*
X93631852Y-73944767D01*
X93631850Y-73944760D01*
X93499402Y-73612340D01*
X93499393Y-73612322D01*
X93331781Y-73296172D01*
X93130966Y-72999992D01*
X93003557Y-72849995D01*
X93003556Y-72849994D01*
X91797732Y-74055818D01*
X91634870Y-73865130D01*
X91444180Y-73702266D01*
X92652743Y-72493703D01*
X92652742Y-72493702D01*
X92639514Y-72481171D01*
X92639513Y-72481170D01*
X92354632Y-72264611D01*
X92354629Y-72264609D01*
X92048009Y-72080123D01*
X91870656Y-71998070D01*
X119859500Y-71998070D01*
X119874310Y-72134248D01*
X119932685Y-72307498D01*
X120026938Y-72464148D01*
X120152663Y-72596874D01*
X120303981Y-72699471D01*
X120389740Y-72733640D01*
X120473811Y-72767137D01*
X120473813Y-72767137D01*
X120473817Y-72767139D01*
X120654228Y-72796716D01*
X120836780Y-72786818D01*
X120975148Y-72748400D01*
X121012933Y-72737910D01*
X121012933Y-72737909D01*
X121012936Y-72737909D01*
X121174459Y-72652275D01*
X121313797Y-72533920D01*
X121424435Y-72388378D01*
X121501199Y-72222455D01*
X121540500Y-72043910D01*
X121540500Y-71998070D01*
X126859500Y-71998070D01*
X126874310Y-72134248D01*
X126932685Y-72307498D01*
X127026938Y-72464148D01*
X127152663Y-72596874D01*
X127303981Y-72699471D01*
X127389740Y-72733640D01*
X127473811Y-72767137D01*
X127473813Y-72767137D01*
X127473817Y-72767139D01*
X127654228Y-72796716D01*
X127836780Y-72786818D01*
X127975148Y-72748400D01*
X128012933Y-72737910D01*
X128012933Y-72737909D01*
X128012936Y-72737909D01*
X128174459Y-72652275D01*
X128313797Y-72533920D01*
X128424435Y-72388378D01*
X128501199Y-72222455D01*
X128540500Y-72043910D01*
X128540500Y-71206930D01*
X128525690Y-71070752D01*
X128467315Y-70897502D01*
X128373062Y-70740852D01*
X128247337Y-70608126D01*
X128096019Y-70505529D01*
X128096017Y-70505528D01*
X127926188Y-70437862D01*
X127926184Y-70437861D01*
X127890100Y-70431945D01*
X127745772Y-70408284D01*
X127745768Y-70408284D01*
X127563221Y-70418181D01*
X127563214Y-70418183D01*
X127387066Y-70467089D01*
X127387060Y-70467092D01*
X127225542Y-70552723D01*
X127086203Y-70671079D01*
X126975564Y-70816622D01*
X126975563Y-70816624D01*
X126898802Y-70982540D01*
X126898799Y-70982548D01*
X126859500Y-71161089D01*
X126859500Y-71161090D01*
X126859500Y-71998070D01*
X121540500Y-71998070D01*
X121540500Y-71206930D01*
X121525690Y-71070752D01*
X121467315Y-70897502D01*
X121373062Y-70740852D01*
X121247337Y-70608126D01*
X121096019Y-70505529D01*
X121096017Y-70505528D01*
X120926188Y-70437862D01*
X120926184Y-70437861D01*
X120890100Y-70431945D01*
X120745772Y-70408284D01*
X120745768Y-70408284D01*
X120563221Y-70418181D01*
X120563214Y-70418183D01*
X120387066Y-70467089D01*
X120387060Y-70467092D01*
X120225542Y-70552723D01*
X120086203Y-70671079D01*
X119975564Y-70816622D01*
X119975563Y-70816624D01*
X119898802Y-70982540D01*
X119898799Y-70982548D01*
X119859500Y-71161089D01*
X119859500Y-71161090D01*
X119859500Y-71998070D01*
X91870656Y-71998070D01*
X91723260Y-71929877D01*
X91723255Y-71929876D01*
X91384144Y-71815616D01*
X91034660Y-71738688D01*
X90678924Y-71700000D01*
X90321075Y-71700000D01*
X89965339Y-71738688D01*
X89615855Y-71815616D01*
X89276744Y-71929876D01*
X89276739Y-71929877D01*
X88951990Y-72080123D01*
X88645370Y-72264609D01*
X88645367Y-72264611D01*
X88360491Y-72481166D01*
X88347256Y-72493703D01*
X88347255Y-72493703D01*
X89555819Y-73702266D01*
X89365130Y-73865130D01*
X89202266Y-74055818D01*
X87996442Y-72849994D01*
X87996441Y-72849995D01*
X87869040Y-72999983D01*
X87869033Y-72999993D01*
X87668218Y-73296172D01*
X87500606Y-73612322D01*
X87500597Y-73612340D01*
X87368149Y-73944760D01*
X87368147Y-73944767D01*
X87272421Y-74289542D01*
X87272415Y-74289568D01*
X87214527Y-74642668D01*
X87214526Y-74642685D01*
X87195153Y-74999997D01*
X87195153Y-75000002D01*
X85500500Y-75000002D01*
X85500500Y-72002035D01*
X85500633Y-71997980D01*
X85502393Y-71971103D01*
X85505989Y-71916244D01*
X85518986Y-71734536D01*
X85520014Y-71726903D01*
X85543153Y-71610579D01*
X85544118Y-71606141D01*
X85574533Y-71466323D01*
X85576392Y-71459625D01*
X85616815Y-71340543D01*
X85666159Y-71208251D01*
X85668633Y-71202520D01*
X85725583Y-71087036D01*
X85792179Y-70965076D01*
X85795019Y-70960384D01*
X85866563Y-70853311D01*
X85868428Y-70850676D01*
X85950291Y-70741321D01*
X85953244Y-70737678D01*
X86038503Y-70640459D01*
X86041198Y-70637581D01*
X86137581Y-70541198D01*
X86140459Y-70538503D01*
X86237678Y-70453244D01*
X86241321Y-70450291D01*
X86350676Y-70368428D01*
X86353311Y-70366563D01*
X86460384Y-70295019D01*
X86465076Y-70292179D01*
X86587036Y-70225583D01*
X86702520Y-70168633D01*
X86708251Y-70166159D01*
X86840543Y-70116815D01*
X86959625Y-70076392D01*
X86966323Y-70074533D01*
X87110548Y-70043158D01*
X87226903Y-70020014D01*
X87234536Y-70018986D01*
X87416244Y-70005989D01*
X87469211Y-70002517D01*
X87497981Y-70000633D01*
X87502036Y-70000500D01*
X159497964Y-70000500D01*
X159502019Y-70000633D01*
G37*
%TD.AperFunction*%
%TD*%
M02*
