%TF.GenerationSoftware,KiCad,Pcbnew,7.0.8-7.0.8~ubuntu22.04.1*%
%TF.CreationDate,2023-10-29T22:01:30-04:00*%
%TF.ProjectId,esp32_sensor_board,65737033-325f-4736-956e-736f725f626f,rev?*%
%TF.SameCoordinates,Original*%
%TF.FileFunction,Paste,Top*%
%TF.FilePolarity,Positive*%
%FSLAX46Y46*%
G04 Gerber Fmt 4.6, Leading zero omitted, Abs format (unit mm)*
G04 Created by KiCad (PCBNEW 7.0.8-7.0.8~ubuntu22.04.1) date 2023-10-29 22:01:30*
%MOMM*%
%LPD*%
G01*
G04 APERTURE LIST*
G04 Aperture macros list*
%AMRoundRect*
0 Rectangle with rounded corners*
0 $1 Rounding radius*
0 $2 $3 $4 $5 $6 $7 $8 $9 X,Y pos of 4 corners*
0 Add a 4 corners polygon primitive as box body*
4,1,4,$2,$3,$4,$5,$6,$7,$8,$9,$2,$3,0*
0 Add four circle primitives for the rounded corners*
1,1,$1+$1,$2,$3*
1,1,$1+$1,$4,$5*
1,1,$1+$1,$6,$7*
1,1,$1+$1,$8,$9*
0 Add four rect primitives between the rounded corners*
20,1,$1+$1,$2,$3,$4,$5,0*
20,1,$1+$1,$4,$5,$6,$7,0*
20,1,$1+$1,$6,$7,$8,$9,0*
20,1,$1+$1,$8,$9,$2,$3,0*%
G04 Aperture macros list end*
%ADD10RoundRect,0.225000X0.250000X-0.225000X0.250000X0.225000X-0.250000X0.225000X-0.250000X-0.225000X0*%
%ADD11RoundRect,0.200000X0.200000X0.275000X-0.200000X0.275000X-0.200000X-0.275000X0.200000X-0.275000X0*%
%ADD12RoundRect,0.250000X0.650000X-0.325000X0.650000X0.325000X-0.650000X0.325000X-0.650000X-0.325000X0*%
%ADD13RoundRect,0.232500X-0.232500X-0.232500X0.232500X-0.232500X0.232500X0.232500X-0.232500X0.232500X0*%
%ADD14RoundRect,0.062500X-0.375000X-0.062500X0.375000X-0.062500X0.375000X0.062500X-0.375000X0.062500X0*%
%ADD15RoundRect,0.062500X-0.062500X-0.375000X0.062500X-0.375000X0.062500X0.375000X-0.062500X0.375000X0*%
%ADD16RoundRect,0.250000X-0.362500X-1.425000X0.362500X-1.425000X0.362500X1.425000X-0.362500X1.425000X0*%
%ADD17RoundRect,0.250000X-0.475000X0.250000X-0.475000X-0.250000X0.475000X-0.250000X0.475000X0.250000X0*%
%ADD18RoundRect,0.225000X-0.225000X-0.250000X0.225000X-0.250000X0.225000X0.250000X-0.225000X0.250000X0*%
%ADD19RoundRect,0.200000X-0.275000X0.200000X-0.275000X-0.200000X0.275000X-0.200000X0.275000X0.200000X0*%
%ADD20RoundRect,0.062500X-0.237500X-0.062500X0.237500X-0.062500X0.237500X0.062500X-0.237500X0.062500X0*%
%ADD21RoundRect,0.062500X0.062500X-0.237500X0.062500X0.237500X-0.062500X0.237500X-0.062500X-0.237500X0*%
%ADD22RoundRect,0.062500X0.062500X0.850000X-0.062500X0.850000X-0.062500X-0.850000X0.062500X-0.850000X0*%
%ADD23RoundRect,0.225000X0.225000X0.250000X-0.225000X0.250000X-0.225000X-0.250000X0.225000X-0.250000X0*%
%ADD24RoundRect,0.250000X0.475000X-0.250000X0.475000X0.250000X-0.475000X0.250000X-0.475000X-0.250000X0*%
%ADD25RoundRect,0.200000X0.275000X-0.200000X0.275000X0.200000X-0.275000X0.200000X-0.275000X-0.200000X0*%
%ADD26R,1.000000X1.000000*%
%ADD27R,2.200000X1.050000*%
%ADD28RoundRect,0.147500X-0.147500X-0.172500X0.147500X-0.172500X0.147500X0.172500X-0.147500X0.172500X0*%
%ADD29RoundRect,0.225000X-0.250000X0.225000X-0.250000X-0.225000X0.250000X-0.225000X0.250000X0.225000X0*%
%ADD30RoundRect,0.150000X-0.825000X-0.150000X0.825000X-0.150000X0.825000X0.150000X-0.825000X0.150000X0*%
%ADD31R,1.200000X1.000000*%
%ADD32R,0.900000X0.800000*%
%ADD33RoundRect,0.250000X0.250000X0.475000X-0.250000X0.475000X-0.250000X-0.475000X0.250000X-0.475000X0*%
%ADD34RoundRect,0.150000X0.600000X-0.150000X0.600000X0.150000X-0.600000X0.150000X-0.600000X-0.150000X0*%
%ADD35R,3.700000X1.200000*%
%ADD36RoundRect,0.250000X-0.250000X-0.475000X0.250000X-0.475000X0.250000X0.475000X-0.250000X0.475000X0*%
%ADD37R,1.800000X1.000000*%
%ADD38RoundRect,0.250000X1.425000X-0.362500X1.425000X0.362500X-1.425000X0.362500X-1.425000X-0.362500X0*%
%ADD39O,4.000000X2.000000*%
%ADD40RoundRect,0.250000X-0.650000X0.325000X-0.650000X-0.325000X0.650000X-0.325000X0.650000X0.325000X0*%
%ADD41R,0.400000X1.350000*%
%ADD42R,1.500000X1.900000*%
%ADD43RoundRect,0.218750X0.218750X0.256250X-0.218750X0.256250X-0.218750X-0.256250X0.218750X-0.256250X0*%
%ADD44R,0.500000X0.300000*%
%ADD45RoundRect,0.150000X-0.150000X0.512500X-0.150000X-0.512500X0.150000X-0.512500X0.150000X0.512500X0*%
%ADD46RoundRect,0.243750X-0.243750X-0.456250X0.243750X-0.456250X0.243750X0.456250X-0.243750X0.456250X0*%
%ADD47RoundRect,0.075000X-0.075000X0.650000X-0.075000X-0.650000X0.075000X-0.650000X0.075000X0.650000X0*%
%ADD48RoundRect,0.075000X-0.650000X-0.075000X0.650000X-0.075000X0.650000X0.075000X-0.650000X0.075000X0*%
G04 APERTURE END LIST*
D10*
%TO.C,C201*%
X128500000Y-117775000D03*
X128500000Y-116225000D03*
%TD*%
D11*
%TO.C,R303*%
X112825000Y-111000000D03*
X111175000Y-111000000D03*
%TD*%
D12*
%TO.C,C203*%
X126500000Y-117100000D03*
X126500000Y-114150000D03*
%TD*%
%TO.C,C204*%
X133500000Y-117475000D03*
X133500000Y-114525000D03*
%TD*%
D13*
%TO.C,U302*%
X117850000Y-92850000D03*
X117850000Y-94000000D03*
X117850000Y-95150000D03*
X119000000Y-92850000D03*
X119000000Y-94000000D03*
X119000000Y-95150000D03*
X120150000Y-92850000D03*
X120150000Y-94000000D03*
X120150000Y-95150000D03*
D14*
X116562500Y-92250000D03*
X116562500Y-92750000D03*
X116562500Y-93250000D03*
X116562500Y-93750000D03*
X116562500Y-94250000D03*
X116562500Y-94750000D03*
X116562500Y-95250000D03*
X116562500Y-95750000D03*
D15*
X117250000Y-96437500D03*
X117750000Y-96437500D03*
X118250000Y-96437500D03*
X118750000Y-96437500D03*
X119250000Y-96437500D03*
X119750000Y-96437500D03*
X120250000Y-96437500D03*
X120750000Y-96437500D03*
D14*
X121437500Y-95750000D03*
X121437500Y-95250000D03*
X121437500Y-94750000D03*
X121437500Y-94250000D03*
X121437500Y-93750000D03*
X121437500Y-93250000D03*
X121437500Y-92750000D03*
X121437500Y-92250000D03*
D15*
X120750000Y-91562500D03*
X120250000Y-91562500D03*
X119750000Y-91562500D03*
X119250000Y-91562500D03*
X118750000Y-91562500D03*
X118250000Y-91562500D03*
X117750000Y-91562500D03*
X117250000Y-91562500D03*
%TD*%
D11*
%TO.C,R203*%
X125225000Y-109400000D03*
X123575000Y-109400000D03*
%TD*%
%TO.C,R201*%
X134825000Y-119500000D03*
X133175000Y-119500000D03*
%TD*%
D16*
%TO.C,R402*%
X114075000Y-120500000D03*
X120000000Y-120500000D03*
%TD*%
D17*
%TO.C,C301*%
X120500000Y-99050000D03*
X120500000Y-100950000D03*
%TD*%
D18*
%TO.C,C304*%
X123225000Y-96000000D03*
X124775000Y-96000000D03*
%TD*%
D19*
%TO.C,R301*%
X123500000Y-99175000D03*
X123500000Y-100825000D03*
%TD*%
D12*
%TO.C,C202*%
X136000000Y-117475000D03*
X136000000Y-114525000D03*
%TD*%
D17*
%TO.C,C208*%
X128000000Y-119500000D03*
X128000000Y-121400000D03*
%TD*%
D20*
%TO.C,U201*%
X129950000Y-114325000D03*
X129950000Y-114975000D03*
X129950000Y-115575000D03*
X129950000Y-116100000D03*
D21*
X130350000Y-116850000D03*
X130850000Y-116850000D03*
X131350000Y-116850000D03*
D20*
X131750000Y-116100000D03*
X131750000Y-115575000D03*
X131750000Y-114975000D03*
X131750000Y-114325000D03*
D22*
X130850000Y-114662000D03*
%TD*%
D23*
%TO.C,C307*%
X112000000Y-93000000D03*
X110450000Y-93000000D03*
%TD*%
D24*
%TO.C,C601*%
X93500000Y-86000000D03*
X93500000Y-84100000D03*
%TD*%
D25*
%TO.C,R101*%
X118000000Y-106825000D03*
X118000000Y-105175000D03*
%TD*%
D23*
%TO.C,C309*%
X108950000Y-100000000D03*
X107400000Y-100000000D03*
%TD*%
D26*
%TO.C,J303*%
X107000000Y-90475000D03*
D27*
X105500000Y-91950000D03*
D26*
X104000000Y-90475000D03*
D27*
X105500000Y-89000000D03*
%TD*%
D28*
%TO.C,L301*%
X110240000Y-94500000D03*
X111210000Y-94500000D03*
%TD*%
D29*
%TO.C,C312*%
X121000000Y-85225000D03*
X121000000Y-86775000D03*
%TD*%
D30*
%TO.C,U501*%
X95050000Y-112110000D03*
X95050000Y-113380000D03*
X95050000Y-114650000D03*
X95050000Y-115920000D03*
X95050000Y-117190000D03*
X95050000Y-118460000D03*
X95050000Y-119730000D03*
X95050000Y-121000000D03*
X100000000Y-121000000D03*
X100000000Y-119730000D03*
X100000000Y-118460000D03*
X100000000Y-117190000D03*
X100000000Y-115920000D03*
X100000000Y-114650000D03*
X100000000Y-113380000D03*
X100000000Y-112110000D03*
%TD*%
D18*
%TO.C,C402*%
X143947500Y-113000000D03*
X145497500Y-113000000D03*
%TD*%
D31*
%TO.C,SW302*%
X112430000Y-72655000D03*
X106830000Y-72755000D03*
X112430000Y-71055000D03*
X106830000Y-71055000D03*
%TD*%
D32*
%TO.C,Y302*%
X117800000Y-86550000D03*
X119200000Y-86550000D03*
X119200000Y-85450000D03*
X117800000Y-85450000D03*
%TD*%
D33*
%TO.C,C504*%
X98425000Y-123055000D03*
X96525000Y-123055000D03*
%TD*%
D34*
%TO.C,J302*%
X134500000Y-79450000D03*
X134500000Y-80550000D03*
X134500000Y-81650000D03*
X134500000Y-82750000D03*
X134500000Y-83850000D03*
X134500000Y-84950000D03*
X134500000Y-86050000D03*
X134500000Y-87150000D03*
X134500000Y-78350000D03*
X134500000Y-77250000D03*
X142250000Y-75250000D03*
X142250000Y-89750000D03*
%TD*%
D35*
%TO.C,L201*%
X131000000Y-112350000D03*
X131000000Y-109550000D03*
%TD*%
D36*
%TO.C,C503*%
X96525000Y-108055000D03*
X98425000Y-108055000D03*
%TD*%
D29*
%TO.C,C302*%
X118500000Y-98725000D03*
X118500000Y-100275000D03*
%TD*%
D11*
%TO.C,R306*%
X129325000Y-97500000D03*
X127675000Y-97500000D03*
%TD*%
D37*
%TO.C,Y301*%
X108675000Y-101750000D03*
X108675000Y-104250000D03*
%TD*%
D38*
%TO.C,R401*%
X150270000Y-118682500D03*
X150270000Y-112757500D03*
%TD*%
D25*
%TO.C,R305*%
X118000000Y-89825000D03*
X118000000Y-88175000D03*
%TD*%
D33*
%TO.C,C308*%
X112950000Y-109000000D03*
X111050000Y-109000000D03*
%TD*%
D39*
%TO.C,SW301*%
X139250000Y-100250000D03*
X132750000Y-100250000D03*
X139250000Y-95750000D03*
X132750000Y-95750000D03*
%TD*%
D10*
%TO.C,C311*%
X116000000Y-86775000D03*
X116000000Y-85225000D03*
%TD*%
D23*
%TO.C,C310*%
X108950000Y-106000000D03*
X107400000Y-106000000D03*
%TD*%
D29*
%TO.C,C314*%
X109000000Y-90725000D03*
X109000000Y-92275000D03*
%TD*%
D11*
%TO.C,R304*%
X112500000Y-101500000D03*
X110850000Y-101500000D03*
%TD*%
D23*
%TO.C,C306*%
X112000000Y-96000000D03*
X110450000Y-96000000D03*
%TD*%
D10*
%TO.C,C303*%
X116500000Y-90000000D03*
X116500000Y-88450000D03*
%TD*%
D11*
%TO.C,R302*%
X112825000Y-105500000D03*
X111175000Y-105500000D03*
%TD*%
D24*
%TO.C,C501*%
X103000000Y-113450000D03*
X103000000Y-111550000D03*
%TD*%
D33*
%TO.C,C207*%
X134950000Y-121500000D03*
X133050000Y-121500000D03*
%TD*%
D40*
%TO.C,C206*%
X134500000Y-109525000D03*
X134500000Y-112475000D03*
%TD*%
D36*
%TO.C,C502*%
X96525000Y-110055000D03*
X98425000Y-110055000D03*
%TD*%
D29*
%TO.C,C401*%
X120004000Y-114035000D03*
X120004000Y-115585000D03*
%TD*%
D17*
%TO.C,C505*%
X92975000Y-123105000D03*
X92975000Y-125005000D03*
%TD*%
D33*
%TO.C,C305*%
X111950000Y-98000000D03*
X110050000Y-98000000D03*
%TD*%
D41*
%TO.C,J301*%
X125500000Y-74302500D03*
X124850000Y-74302500D03*
X124200000Y-74302500D03*
X123550000Y-74302500D03*
X122900000Y-74302500D03*
D42*
X125200000Y-71602500D03*
X123200000Y-71602500D03*
%TD*%
D43*
%TO.C,L302*%
X112287500Y-91000000D03*
X110712500Y-91000000D03*
%TD*%
D10*
%TO.C,C313*%
X114000000Y-91275000D03*
X114000000Y-89725000D03*
%TD*%
D44*
%TO.C,U601*%
X90100000Y-84700000D03*
X90100000Y-85500000D03*
X91500000Y-85500000D03*
X91500000Y-84700000D03*
%TD*%
D45*
%TO.C,U301*%
X125000000Y-79225000D03*
X124050000Y-79225000D03*
X123100000Y-79225000D03*
X123100000Y-81500000D03*
X124050000Y-81500000D03*
X125000000Y-81500000D03*
%TD*%
D46*
%TO.C,D301*%
X127562500Y-99500000D03*
X129437500Y-99500000D03*
%TD*%
D17*
%TO.C,C506*%
X92975000Y-108105000D03*
X92975000Y-110005000D03*
%TD*%
D40*
%TO.C,C205*%
X127500000Y-109500000D03*
X127500000Y-112450000D03*
%TD*%
D11*
%TO.C,R202*%
X131650000Y-118000000D03*
X130000000Y-118000000D03*
%TD*%
D47*
%TO.C,U402*%
X118000000Y-112600000D03*
X117500000Y-112600000D03*
X117000000Y-112600000D03*
X116500000Y-112600000D03*
X116000000Y-112600000D03*
X116000000Y-117000000D03*
X116500000Y-117000000D03*
X117000000Y-117000000D03*
X117500000Y-117000000D03*
X118000000Y-117000000D03*
%TD*%
D48*
%TO.C,U401*%
X142522500Y-115000000D03*
X142522500Y-115500000D03*
X142522500Y-116000000D03*
X142522500Y-116500000D03*
X142522500Y-117000000D03*
X146922500Y-117000000D03*
X146922500Y-116500000D03*
X146922500Y-116000000D03*
X146922500Y-115500000D03*
X146922500Y-115000000D03*
%TD*%
D25*
%TO.C,R102*%
X116500000Y-106825000D03*
X116500000Y-105175000D03*
%TD*%
M02*
