%TF.GenerationSoftware,KiCad,Pcbnew,7.0.8-7.0.8~ubuntu22.04.1*%
%TF.CreationDate,2023-11-01T09:21:20-04:00*%
%TF.ProjectId,esp32_sensor_board,65737033-325f-4736-956e-736f725f626f,rev?*%
%TF.SameCoordinates,Original*%
%TF.FileFunction,Copper,L2,Inr*%
%TF.FilePolarity,Positive*%
%FSLAX46Y46*%
G04 Gerber Fmt 4.6, Leading zero omitted, Abs format (unit mm)*
G04 Created by KiCad (PCBNEW 7.0.8-7.0.8~ubuntu22.04.1) date 2023-11-01 09:21:20*
%MOMM*%
%LPD*%
G01*
G04 APERTURE LIST*
G04 Aperture macros list*
%AMRoundRect*
0 Rectangle with rounded corners*
0 $1 Rounding radius*
0 $2 $3 $4 $5 $6 $7 $8 $9 X,Y pos of 4 corners*
0 Add a 4 corners polygon primitive as box body*
4,1,4,$2,$3,$4,$5,$6,$7,$8,$9,$2,$3,0*
0 Add four circle primitives for the rounded corners*
1,1,$1+$1,$2,$3*
1,1,$1+$1,$4,$5*
1,1,$1+$1,$6,$7*
1,1,$1+$1,$8,$9*
0 Add four rect primitives between the rounded corners*
20,1,$1+$1,$2,$3,$4,$5,0*
20,1,$1+$1,$4,$5,$6,$7,0*
20,1,$1+$1,$6,$7,$8,$9,0*
20,1,$1+$1,$8,$9,$2,$3,0*%
G04 Aperture macros list end*
%TA.AperFunction,ComponentPad*%
%ADD10RoundRect,0.249999X-0.790001X-1.550001X0.790001X-1.550001X0.790001X1.550001X-0.790001X1.550001X0*%
%TD*%
%TA.AperFunction,ComponentPad*%
%ADD11O,2.080000X3.600000*%
%TD*%
%TA.AperFunction,ComponentPad*%
%ADD12R,1.700000X1.700000*%
%TD*%
%TA.AperFunction,ComponentPad*%
%ADD13O,1.700000X1.700000*%
%TD*%
%TA.AperFunction,ComponentPad*%
%ADD14RoundRect,0.249999X1.550001X-0.790001X1.550001X0.790001X-1.550001X0.790001X-1.550001X-0.790001X0*%
%TD*%
%TA.AperFunction,ComponentPad*%
%ADD15O,3.600000X2.080000*%
%TD*%
%TA.AperFunction,ComponentPad*%
%ADD16C,5.600000*%
%TD*%
%TA.AperFunction,ComponentPad*%
%ADD17O,1.200000X1.900000*%
%TD*%
%TA.AperFunction,ComponentPad*%
%ADD18C,1.450000*%
%TD*%
%TA.AperFunction,ViaPad*%
%ADD19C,0.800000*%
%TD*%
G04 APERTURE END LIST*
D10*
%TO.N,GND*%
%TO.C,J103*%
X106960000Y-125150500D03*
D11*
%TO.N,/Vbus2_in*%
X112040000Y-125150500D03*
%TD*%
D12*
%TO.N,GND*%
%TO.C,J502*%
X89900000Y-128630000D03*
D13*
%TO.N,/Load Cell Sensor/S2_P*%
X89900000Y-126090000D03*
%TO.N,/Load Cell Sensor/S2_N*%
X89900000Y-123550000D03*
%TO.N,GND*%
X89900000Y-121010000D03*
%TO.N,/Load Cell Sensor/E_p*%
X89900000Y-118470000D03*
%TD*%
D14*
%TO.N,VIN*%
%TO.C,J102*%
X154722500Y-111910000D03*
D15*
%TO.N,GND*%
X154722500Y-106830000D03*
%TD*%
D12*
%TO.N,GND*%
%TO.C,J201*%
X127156000Y-103020000D03*
D13*
%TO.N,+3.3V*%
X129696000Y-103020000D03*
%TO.N,P_GOOD*%
X132236000Y-103020000D03*
%TD*%
D12*
%TO.N,GND*%
%TO.C,J501*%
X89900000Y-114130000D03*
D13*
%TO.N,/Load Cell Sensor/S1_P*%
X89900000Y-111590000D03*
%TO.N,/Load Cell Sensor/S1_N*%
X89900000Y-109050000D03*
%TO.N,GND*%
X89900000Y-106510000D03*
%TO.N,/Load Cell Sensor/E_p*%
X89900000Y-103970000D03*
%TD*%
D16*
%TO.N,GND*%
%TO.C,H101*%
X90500000Y-98000000D03*
%TD*%
D12*
%TO.N,GND*%
%TO.C,J308*%
X130960000Y-92860000D03*
D13*
%TO.N,+3.3V*%
X133500000Y-92860000D03*
%TO.N,/Microprocessor/SPI_SCK*%
X136040000Y-92860000D03*
%TO.N,/Microprocessor/SPI_COPI*%
X138580000Y-92860000D03*
%TO.N,/Microprocessor/SPI_CIPO*%
X141120000Y-92860000D03*
%TO.N,/Microprocessor/SPI_CS1*%
X143660000Y-92860000D03*
%TD*%
D14*
%TO.N,GND*%
%TO.C,J101*%
X154722500Y-125250000D03*
D15*
%TO.N,/Vbus1_in*%
X154722500Y-120170000D03*
%TD*%
D12*
%TO.N,GND*%
%TO.C,J304*%
X117000000Y-74475000D03*
D13*
%TO.N,/Microprocessor/UART_RX*%
X117000000Y-77015000D03*
%TO.N,/Microprocessor/UART_TX*%
X117000000Y-79555000D03*
%TD*%
D12*
%TO.N,GND*%
%TO.C,J305*%
X143460000Y-106000000D03*
D13*
%TO.N,VIN*%
X146000000Y-106000000D03*
%TO.N,/Microprocessor/EXT_1*%
X148540000Y-106000000D03*
%TD*%
D16*
%TO.N,GND*%
%TO.C,H103*%
X156500000Y-75000000D03*
%TD*%
D12*
%TO.N,GND*%
%TO.C,J306*%
X143500000Y-100500000D03*
D13*
%TO.N,VIN*%
X146040000Y-100500000D03*
%TO.N,/Microprocessor/EXT_2*%
X148580000Y-100500000D03*
%TD*%
D10*
%TO.N,/Vbus2_out*%
%TO.C,J104*%
X120460000Y-125222500D03*
D11*
%TO.N,GND*%
X125540000Y-125222500D03*
%TD*%
D16*
%TO.N,GND*%
%TO.C,H102*%
X156500000Y-98000000D03*
%TD*%
D17*
%TO.N,unconnected-(J301-Shield-Pad6)*%
%TO.C,J301*%
X127700000Y-71602500D03*
D18*
X126700000Y-74302500D03*
X121700000Y-74302500D03*
D17*
X120700000Y-71602500D03*
%TD*%
D16*
%TO.N,GND*%
%TO.C,H104*%
X90500000Y-75000000D03*
%TD*%
D12*
%TO.N,GND*%
%TO.C,J307*%
X139880000Y-126000000D03*
D13*
%TO.N,+3.3V*%
X142420000Y-126000000D03*
%TO.N,/Power Measurement/I2C_SDA*%
X144960000Y-126000000D03*
%TO.N,/Power Measurement/I2C_SCL*%
X147500000Y-126000000D03*
%TD*%
D19*
%TO.N,VIN*%
X126000000Y-118100000D03*
X152400000Y-112500000D03*
X137400000Y-118000000D03*
X152400000Y-111500000D03*
X125000000Y-118000000D03*
X127100000Y-118100000D03*
X151400000Y-110500000D03*
X133100000Y-116400000D03*
X137400000Y-116400000D03*
X136400000Y-116400000D03*
X134200000Y-116400000D03*
X150500000Y-110500000D03*
X135400000Y-116400000D03*
X125010260Y-116475000D03*
X152400000Y-110500000D03*
X149500000Y-110500000D03*
%TO.N,GND*%
X119000000Y-87500000D03*
X130750000Y-119250000D03*
X117750000Y-92750000D03*
X99500000Y-123000000D03*
X115000000Y-85000000D03*
X109000000Y-98000000D03*
X99945000Y-108055000D03*
X98500000Y-121000000D03*
X121004000Y-115310000D03*
X126000000Y-112750000D03*
X145892543Y-94663685D03*
X105500000Y-93000000D03*
X135000000Y-97500000D03*
X109250000Y-96000000D03*
X136250000Y-113000000D03*
X137000000Y-97500000D03*
X106917351Y-105392045D03*
X106000000Y-100000000D03*
X115500000Y-88500000D03*
X133000000Y-85000000D03*
X125000000Y-114000000D03*
X137500000Y-114000000D03*
X109500000Y-109000000D03*
X129500000Y-121500000D03*
X124250000Y-78000000D03*
X95000000Y-120500000D03*
X129250000Y-110750000D03*
X119000000Y-102500000D03*
X133000000Y-79500000D03*
X135250000Y-113500000D03*
X120000000Y-102500000D03*
X120250000Y-92750000D03*
X94750000Y-84750000D03*
X107090000Y-72540000D03*
X126419149Y-99080851D03*
X128250000Y-114000000D03*
X100000000Y-110000000D03*
X110500000Y-93000000D03*
X117750000Y-95250000D03*
X132500000Y-78500000D03*
X118000000Y-84500000D03*
X129250000Y-114000000D03*
X110000000Y-92000000D03*
X136250000Y-111000000D03*
X136250000Y-112000000D03*
X120250000Y-94000000D03*
X126000000Y-111750000D03*
X125000000Y-115000000D03*
X130500000Y-110750000D03*
X146500000Y-112830000D03*
X119000001Y-94000001D03*
X113500000Y-88500000D03*
X126000000Y-110750000D03*
X122481263Y-77481263D03*
X104500000Y-111500000D03*
X134250000Y-113500000D03*
X132250000Y-114000000D03*
X133000000Y-87500000D03*
X137250000Y-113000000D03*
X105500000Y-88000000D03*
X126012653Y-95837347D03*
X117750000Y-94000000D03*
X102500000Y-90000000D03*
X120919149Y-87919149D03*
X131500000Y-110750000D03*
X132500000Y-110750000D03*
X120250000Y-95250000D03*
X125000000Y-113000000D03*
%TO.N,+3.3V*%
X110000000Y-111000000D03*
X111000000Y-106500000D03*
X126250000Y-108000000D03*
X124000000Y-83000000D03*
X136250000Y-109750000D03*
X133250000Y-108000000D03*
X132250000Y-108000000D03*
X127250000Y-108000000D03*
X127410000Y-82065000D03*
X131250000Y-108000000D03*
X127410000Y-80160000D03*
X115500000Y-90000000D03*
X142500000Y-113330000D03*
X123775619Y-95271945D03*
X134250000Y-108000000D03*
X121004000Y-114310000D03*
X130250000Y-108000000D03*
X131220000Y-76350000D03*
X119000000Y-106750000D03*
X94750000Y-85750000D03*
X128250000Y-108000000D03*
X112000000Y-99500000D03*
X136000000Y-121500000D03*
X136250000Y-108750000D03*
X129250000Y-108000000D03*
X126000000Y-109750000D03*
X122000000Y-100000000D03*
X135250000Y-108000000D03*
X104500000Y-113500000D03*
X125284595Y-108034595D03*
%TO.N,/Microprocessor/CHIP_EN*%
X112170000Y-71270000D03*
X115345000Y-96670000D03*
%TO.N,/Microprocessor/SD_CS*%
X132000000Y-84500000D03*
X132500000Y-80500000D03*
%TO.N,/Microprocessor/SPI_CIPO*%
X128000000Y-85500000D03*
X131000000Y-88000000D03*
%TO.N,/Microprocessor/SD_DET*%
X132000000Y-77500000D03*
X131000000Y-86500000D03*
%TO.N,P_GOOD*%
X132074500Y-116800000D03*
X122800000Y-110600000D03*
%TO.N,/Microprocessor/EXT_1*%
X116500000Y-96500000D03*
%TO.N,/Microprocessor/EXT_2*%
X121500000Y-96500000D03*
%TO.N,/Microprocessor/SPI_CS1*%
X122500000Y-94500000D03*
%TO.N,/Load Cell Sensor/DRDY_NAU*%
X113500000Y-114500000D03*
X121000000Y-98500000D03*
%TO.N,/Power Measurement/I2C_SCL*%
X140500000Y-109500000D03*
X118000000Y-111000000D03*
X106500000Y-115920000D03*
X116000000Y-110642462D03*
X140273198Y-107226802D03*
X106500000Y-110500000D03*
%TO.N,/Power Measurement/I2C_SDA*%
X119500000Y-108000000D03*
X115000000Y-106000000D03*
%TO.N,/Microprocessor/STATUS_LED*%
X124944857Y-97675000D03*
X119529736Y-98500841D03*
%TO.N,Net-(J302-VDD)*%
X135030000Y-75715000D03*
X135732000Y-82500000D03*
%TD*%
%TA.AperFunction,Conductor*%
%TO.N,GND*%
G36*
X107790801Y-70020185D02*
G01*
X107836556Y-70072989D01*
X107846500Y-70142147D01*
X107830669Y-70184964D01*
X107830997Y-70185118D01*
X107829205Y-70188924D01*
X107828461Y-70190939D01*
X107827674Y-70192177D01*
X107760387Y-70335171D01*
X107760385Y-70335174D01*
X107744551Y-70418183D01*
X107730773Y-70490412D01*
X107730773Y-70490414D01*
X107730773Y-70490415D01*
X107740696Y-70648137D01*
X107740696Y-70648140D01*
X107770222Y-70739008D01*
X107789533Y-70798441D01*
X107874214Y-70931877D01*
X107989418Y-71040062D01*
X107989420Y-71040063D01*
X107989422Y-71040065D01*
X108126809Y-71115593D01*
X108127908Y-71116197D01*
X108280981Y-71155500D01*
X108280984Y-71155500D01*
X108399348Y-71155500D01*
X108399350Y-71155500D01*
X108399355Y-71155499D01*
X108399359Y-71155499D01*
X108412088Y-71153890D01*
X108516792Y-71140664D01*
X108663732Y-71082486D01*
X108663739Y-71082481D01*
X108791583Y-70989597D01*
X108791584Y-70989596D01*
X108791583Y-70989596D01*
X108791587Y-70989594D01*
X108892324Y-70867823D01*
X108959614Y-70724826D01*
X108989227Y-70569588D01*
X108979304Y-70411862D01*
X108930467Y-70261559D01*
X108907630Y-70225573D01*
X108885653Y-70190943D01*
X108866351Y-70123792D01*
X108886418Y-70056866D01*
X108939482Y-70011413D01*
X108990349Y-70000500D01*
X159497964Y-70000500D01*
X159502019Y-70000633D01*
X159537198Y-70002938D01*
X159583708Y-70005986D01*
X159765459Y-70018985D01*
X159773100Y-70020015D01*
X159866738Y-70038641D01*
X159889420Y-70043153D01*
X159915023Y-70048722D01*
X160033666Y-70074531D01*
X160040383Y-70076395D01*
X160159437Y-70116809D01*
X160256671Y-70153076D01*
X160291741Y-70166157D01*
X160297499Y-70168643D01*
X160412952Y-70225578D01*
X160534906Y-70292170D01*
X160539634Y-70295032D01*
X160599711Y-70335174D01*
X160646649Y-70366537D01*
X160649358Y-70368454D01*
X160758652Y-70450271D01*
X160762345Y-70453265D01*
X160821941Y-70505529D01*
X160859502Y-70538469D01*
X160862448Y-70541228D01*
X160958769Y-70637549D01*
X160961526Y-70640492D01*
X161046729Y-70737648D01*
X161049732Y-70741353D01*
X161101564Y-70810592D01*
X161131543Y-70850639D01*
X161133461Y-70853349D01*
X161204962Y-70960357D01*
X161207828Y-70965091D01*
X161274421Y-71087047D01*
X161331355Y-71202499D01*
X161333841Y-71208257D01*
X161370212Y-71305768D01*
X161383196Y-71340578D01*
X161388289Y-71355581D01*
X161423597Y-71459596D01*
X161425472Y-71466352D01*
X161456846Y-71610579D01*
X161479980Y-71726880D01*
X161481015Y-71734560D01*
X161494017Y-71916350D01*
X161499367Y-71997966D01*
X161499500Y-72002023D01*
X161499500Y-129997975D01*
X161499367Y-130002032D01*
X161494017Y-130083648D01*
X161481015Y-130265438D01*
X161479980Y-130273118D01*
X161456846Y-130389420D01*
X161425472Y-130533646D01*
X161423597Y-130540401D01*
X161389297Y-130641448D01*
X161383208Y-130659388D01*
X161383195Y-130659425D01*
X161333841Y-130791741D01*
X161331355Y-130797499D01*
X161274421Y-130912952D01*
X161207828Y-131034907D01*
X161204961Y-131039641D01*
X161133461Y-131146649D01*
X161131543Y-131149359D01*
X161049744Y-131258631D01*
X161046723Y-131262357D01*
X160961529Y-131359502D01*
X160958755Y-131362464D01*
X160862464Y-131458755D01*
X160859502Y-131461529D01*
X160762357Y-131546723D01*
X160758631Y-131549744D01*
X160649359Y-131631543D01*
X160646649Y-131633461D01*
X160539641Y-131704961D01*
X160534907Y-131707828D01*
X160412952Y-131774421D01*
X160297499Y-131831355D01*
X160291741Y-131833841D01*
X160170956Y-131878893D01*
X160159418Y-131883197D01*
X160040401Y-131923597D01*
X160033646Y-131925472D01*
X159889420Y-131956846D01*
X159773118Y-131979980D01*
X159765438Y-131981015D01*
X159583648Y-131994017D01*
X159532582Y-131997364D01*
X159502025Y-131999367D01*
X159497976Y-131999500D01*
X87502024Y-131999500D01*
X87497974Y-131999367D01*
X87459954Y-131996875D01*
X87416350Y-131994017D01*
X87234560Y-131981015D01*
X87226880Y-131979980D01*
X87110579Y-131956846D01*
X86966352Y-131925472D01*
X86959596Y-131923597D01*
X86927881Y-131912831D01*
X86840578Y-131883196D01*
X86805768Y-131870212D01*
X86708257Y-131833841D01*
X86702499Y-131831355D01*
X86587047Y-131774421D01*
X86465091Y-131707828D01*
X86460357Y-131704962D01*
X86353349Y-131633461D01*
X86350639Y-131631543D01*
X86310592Y-131601564D01*
X86241353Y-131549732D01*
X86237648Y-131546729D01*
X86140492Y-131461526D01*
X86137549Y-131458769D01*
X86041228Y-131362448D01*
X86038469Y-131359502D01*
X86005450Y-131321851D01*
X85953265Y-131262345D01*
X85950271Y-131258652D01*
X85868454Y-131149358D01*
X85866537Y-131146649D01*
X85795036Y-131039641D01*
X85792170Y-131034906D01*
X85725578Y-130912952D01*
X85668643Y-130797499D01*
X85666157Y-130791741D01*
X85653076Y-130756671D01*
X85616805Y-130659425D01*
X85576395Y-130540383D01*
X85574531Y-130533666D01*
X85543153Y-130389420D01*
X85538641Y-130366738D01*
X85520015Y-130273100D01*
X85518985Y-130265459D01*
X85505986Y-130083708D01*
X85502938Y-130037198D01*
X85500633Y-130002019D01*
X85500500Y-129997964D01*
X85500500Y-129527844D01*
X88550000Y-129527844D01*
X88556401Y-129587372D01*
X88556403Y-129587379D01*
X88606645Y-129722086D01*
X88606649Y-129722093D01*
X88692809Y-129837187D01*
X88692812Y-129837190D01*
X88807906Y-129923350D01*
X88807913Y-129923354D01*
X88942620Y-129973596D01*
X88942627Y-129973598D01*
X89002155Y-129979999D01*
X89002172Y-129980000D01*
X89650000Y-129980000D01*
X89650000Y-129065501D01*
X89757685Y-129114680D01*
X89864237Y-129130000D01*
X89935763Y-129130000D01*
X90042315Y-129114680D01*
X90150000Y-129065501D01*
X90150000Y-129980000D01*
X90797828Y-129980000D01*
X90797844Y-129979999D01*
X90857372Y-129973598D01*
X90857379Y-129973596D01*
X90992086Y-129923354D01*
X90992093Y-129923350D01*
X91107187Y-129837190D01*
X91107190Y-129837187D01*
X91193350Y-129722093D01*
X91193354Y-129722086D01*
X91243596Y-129587379D01*
X91243598Y-129587372D01*
X91249999Y-129527844D01*
X91250000Y-129527827D01*
X91250000Y-128880000D01*
X90333686Y-128880000D01*
X90359493Y-128839844D01*
X90400000Y-128701889D01*
X90400000Y-128558111D01*
X90359493Y-128420156D01*
X90333686Y-128380000D01*
X91250000Y-128380000D01*
X91250000Y-127732172D01*
X91249999Y-127732155D01*
X91243598Y-127672627D01*
X91243596Y-127672620D01*
X91193354Y-127537913D01*
X91193350Y-127537906D01*
X91107190Y-127422812D01*
X91107187Y-127422809D01*
X90992093Y-127336649D01*
X90992086Y-127336645D01*
X90857379Y-127286403D01*
X90857372Y-127286401D01*
X90797844Y-127280000D01*
X90485391Y-127280000D01*
X90418352Y-127260315D01*
X90372597Y-127207511D01*
X90362653Y-127138353D01*
X90391678Y-127074797D01*
X90420114Y-127050573D01*
X90463551Y-127023678D01*
X90559989Y-126963966D01*
X90709342Y-126827813D01*
X90831134Y-126666534D01*
X90921217Y-126485622D01*
X90976525Y-126291237D01*
X90995172Y-126090000D01*
X90995169Y-126089973D01*
X90976525Y-125888763D01*
X90965638Y-125850500D01*
X90921217Y-125694378D01*
X90913214Y-125678306D01*
X90849856Y-125551066D01*
X90831134Y-125513466D01*
X90709342Y-125352187D01*
X90709340Y-125352184D01*
X90559989Y-125216034D01*
X90559987Y-125216032D01*
X90388163Y-125109643D01*
X90388157Y-125109640D01*
X90215157Y-125042620D01*
X90199708Y-125036635D01*
X90001050Y-124999500D01*
X89798950Y-124999500D01*
X89600292Y-125036635D01*
X89600289Y-125036635D01*
X89600289Y-125036636D01*
X89411842Y-125109640D01*
X89411836Y-125109643D01*
X89240012Y-125216032D01*
X89240010Y-125216034D01*
X89090659Y-125352184D01*
X88968866Y-125513465D01*
X88878787Y-125694367D01*
X88878782Y-125694380D01*
X88823474Y-125888763D01*
X88804828Y-126089999D01*
X88804828Y-126090000D01*
X88823474Y-126291236D01*
X88878782Y-126485619D01*
X88878787Y-126485632D01*
X88968866Y-126666534D01*
X89090659Y-126827815D01*
X89240010Y-126963965D01*
X89240012Y-126963967D01*
X89379886Y-127050573D01*
X89426522Y-127102601D01*
X89437626Y-127171582D01*
X89409673Y-127235617D01*
X89351538Y-127274373D01*
X89314609Y-127280000D01*
X89002155Y-127280000D01*
X88942627Y-127286401D01*
X88942620Y-127286403D01*
X88807913Y-127336645D01*
X88807906Y-127336649D01*
X88692812Y-127422809D01*
X88692809Y-127422812D01*
X88606649Y-127537906D01*
X88606645Y-127537913D01*
X88556403Y-127672620D01*
X88556401Y-127672627D01*
X88550000Y-127732155D01*
X88550000Y-128380000D01*
X89466314Y-128380000D01*
X89440507Y-128420156D01*
X89400000Y-128558111D01*
X89400000Y-128701889D01*
X89440507Y-128839844D01*
X89466314Y-128880000D01*
X88550000Y-128880000D01*
X88550000Y-129527844D01*
X85500500Y-129527844D01*
X85500500Y-124900500D01*
X105420000Y-124900500D01*
X106300671Y-124900500D01*
X106260000Y-125065505D01*
X106260000Y-125235495D01*
X106300671Y-125400500D01*
X105420001Y-125400500D01*
X105420001Y-126750486D01*
X105430494Y-126853196D01*
X105430494Y-126853198D01*
X105485640Y-127019619D01*
X105485645Y-127019630D01*
X105577680Y-127168840D01*
X105577683Y-127168844D01*
X105701655Y-127292816D01*
X105701659Y-127292819D01*
X105850869Y-127384854D01*
X105850880Y-127384859D01*
X106017302Y-127440005D01*
X106120019Y-127450499D01*
X106709999Y-127450499D01*
X106710000Y-127450498D01*
X106710000Y-125804337D01*
X106791249Y-125835151D01*
X106917660Y-125850500D01*
X107002340Y-125850500D01*
X107128751Y-125835151D01*
X107210000Y-125804337D01*
X107210000Y-127450499D01*
X107799972Y-127450499D01*
X107799986Y-127450498D01*
X107902696Y-127440005D01*
X107902698Y-127440005D01*
X108069119Y-127384859D01*
X108069130Y-127384854D01*
X108218340Y-127292819D01*
X108218344Y-127292816D01*
X108342316Y-127168844D01*
X108342319Y-127168840D01*
X108434354Y-127019630D01*
X108434359Y-127019619D01*
X108489505Y-126853197D01*
X108499999Y-126750486D01*
X108500000Y-126750473D01*
X108500000Y-125966404D01*
X110759500Y-125966404D01*
X110774136Y-126133701D01*
X110774137Y-126133708D01*
X110832126Y-126350125D01*
X110832127Y-126350127D01*
X110832128Y-126350130D01*
X110853346Y-126395632D01*
X110926818Y-126553193D01*
X110926819Y-126553195D01*
X111055331Y-126736731D01*
X111055332Y-126736732D01*
X111055333Y-126736733D01*
X111213767Y-126895167D01*
X111213770Y-126895169D01*
X111213771Y-126895170D01*
X111397299Y-127023678D01*
X111397301Y-127023679D01*
X111397304Y-127023681D01*
X111600370Y-127118372D01*
X111816794Y-127176363D01*
X111976226Y-127190311D01*
X112039998Y-127195891D01*
X112040000Y-127195891D01*
X112040002Y-127195891D01*
X112095801Y-127191009D01*
X112263206Y-127176363D01*
X112479630Y-127118372D01*
X112682695Y-127023681D01*
X112866233Y-126895167D01*
X112941984Y-126819416D01*
X119179500Y-126819416D01*
X119185781Y-126877836D01*
X119185781Y-126877838D01*
X119185782Y-126877839D01*
X119235069Y-127009986D01*
X119235070Y-127009988D01*
X119235071Y-127009989D01*
X119319597Y-127122903D01*
X119391012Y-127176363D01*
X119432511Y-127207429D01*
X119432513Y-127207430D01*
X119476562Y-127223859D01*
X119564664Y-127256719D01*
X119623084Y-127263000D01*
X119623094Y-127263000D01*
X121296906Y-127263000D01*
X121296916Y-127263000D01*
X121355336Y-127256719D01*
X121487489Y-127207429D01*
X121600403Y-127122903D01*
X121684929Y-127009989D01*
X121734219Y-126877836D01*
X121740500Y-126819416D01*
X121740500Y-126044562D01*
X124000000Y-126044562D01*
X124014996Y-126230336D01*
X124074503Y-126471758D01*
X124171959Y-126700496D01*
X124171959Y-126700497D01*
X124304854Y-126910655D01*
X124469731Y-127096763D01*
X124662336Y-127254019D01*
X124662343Y-127254024D01*
X124877664Y-127378339D01*
X125110153Y-127466510D01*
X125290000Y-127503225D01*
X125290000Y-125876337D01*
X125371249Y-125907151D01*
X125497660Y-125922500D01*
X125582340Y-125922500D01*
X125708751Y-125907151D01*
X125790000Y-125876337D01*
X125790000Y-127503454D01*
X125849034Y-127496287D01*
X125849041Y-127496285D01*
X126087862Y-127427110D01*
X126087865Y-127427109D01*
X126312505Y-127320517D01*
X126517139Y-127179267D01*
X126517142Y-127179264D01*
X126696450Y-127007038D01*
X126696454Y-127007034D01*
X126778505Y-126897844D01*
X138530000Y-126897844D01*
X138536401Y-126957372D01*
X138536403Y-126957379D01*
X138586645Y-127092086D01*
X138586649Y-127092093D01*
X138672809Y-127207187D01*
X138672812Y-127207190D01*
X138787906Y-127293350D01*
X138787913Y-127293354D01*
X138922620Y-127343596D01*
X138922627Y-127343598D01*
X138982155Y-127349999D01*
X138982172Y-127350000D01*
X139630000Y-127350000D01*
X139630000Y-126435501D01*
X139737685Y-126484680D01*
X139844237Y-126500000D01*
X139915763Y-126500000D01*
X140022315Y-126484680D01*
X140130000Y-126435501D01*
X140130000Y-127350000D01*
X140777828Y-127350000D01*
X140777844Y-127349999D01*
X140837372Y-127343598D01*
X140837379Y-127343596D01*
X140972086Y-127293354D01*
X140972093Y-127293350D01*
X141087187Y-127207190D01*
X141087190Y-127207187D01*
X141173350Y-127092093D01*
X141173354Y-127092086D01*
X141223596Y-126957379D01*
X141223598Y-126957372D01*
X141229999Y-126897844D01*
X141230000Y-126897827D01*
X141230000Y-126583876D01*
X141249685Y-126516837D01*
X141302489Y-126471082D01*
X141371647Y-126461138D01*
X141435203Y-126490163D01*
X141465000Y-126528605D01*
X141488865Y-126576532D01*
X141488866Y-126576534D01*
X141530991Y-126632316D01*
X141610659Y-126737815D01*
X141760010Y-126873965D01*
X141760012Y-126873967D01*
X141931836Y-126980356D01*
X141931842Y-126980359D01*
X141971764Y-126995824D01*
X142120292Y-127053365D01*
X142318950Y-127090500D01*
X142318953Y-127090500D01*
X142521047Y-127090500D01*
X142521050Y-127090500D01*
X142719708Y-127053365D01*
X142908160Y-126980358D01*
X143079989Y-126873966D01*
X143229342Y-126737813D01*
X143351134Y-126576534D01*
X143441217Y-126395622D01*
X143496525Y-126201237D01*
X143515172Y-126000000D01*
X143864828Y-126000000D01*
X143883474Y-126201236D01*
X143938782Y-126395619D01*
X143938787Y-126395632D01*
X144028866Y-126576534D01*
X144150659Y-126737815D01*
X144300010Y-126873965D01*
X144300012Y-126873967D01*
X144471836Y-126980356D01*
X144471842Y-126980359D01*
X144511764Y-126995824D01*
X144660292Y-127053365D01*
X144858950Y-127090500D01*
X144858953Y-127090500D01*
X145061047Y-127090500D01*
X145061050Y-127090500D01*
X145259708Y-127053365D01*
X145448160Y-126980358D01*
X145619989Y-126873966D01*
X145769342Y-126737813D01*
X145891134Y-126576534D01*
X145981217Y-126395622D01*
X146036525Y-126201237D01*
X146055172Y-126000000D01*
X146404828Y-126000000D01*
X146423474Y-126201236D01*
X146478782Y-126395619D01*
X146478787Y-126395632D01*
X146568866Y-126576534D01*
X146690659Y-126737815D01*
X146840010Y-126873965D01*
X146840012Y-126873967D01*
X147011836Y-126980356D01*
X147011842Y-126980359D01*
X147051764Y-126995824D01*
X147200292Y-127053365D01*
X147398950Y-127090500D01*
X147398953Y-127090500D01*
X147601047Y-127090500D01*
X147601050Y-127090500D01*
X147799708Y-127053365D01*
X147988160Y-126980358D01*
X148159989Y-126873966D01*
X148309342Y-126737813D01*
X148431134Y-126576534D01*
X148521217Y-126395622D01*
X148576525Y-126201237D01*
X148595172Y-126000000D01*
X148576525Y-125798763D01*
X148521217Y-125604378D01*
X148506612Y-125575048D01*
X148455550Y-125472500D01*
X148431134Y-125423466D01*
X148309342Y-125262187D01*
X148309340Y-125262184D01*
X148159989Y-125126034D01*
X148159987Y-125126032D01*
X147988163Y-125019643D01*
X147988157Y-125019640D01*
X147937460Y-125000000D01*
X152422500Y-125000000D01*
X154063171Y-125000000D01*
X154022500Y-125165005D01*
X154022500Y-125334995D01*
X154063171Y-125500000D01*
X152422501Y-125500000D01*
X152422501Y-126089986D01*
X152432994Y-126192696D01*
X152432994Y-126192698D01*
X152488140Y-126359119D01*
X152488145Y-126359130D01*
X152580180Y-126508340D01*
X152580183Y-126508344D01*
X152704155Y-126632316D01*
X152704159Y-126632319D01*
X152853369Y-126724354D01*
X152853380Y-126724359D01*
X153019802Y-126779505D01*
X153122520Y-126789999D01*
X154472499Y-126789999D01*
X154472500Y-126789998D01*
X154472500Y-125903837D01*
X154553749Y-125934651D01*
X154680160Y-125950000D01*
X154764840Y-125950000D01*
X154891251Y-125934651D01*
X154972500Y-125903837D01*
X154972500Y-126789999D01*
X156322472Y-126789999D01*
X156322486Y-126789998D01*
X156425196Y-126779505D01*
X156425198Y-126779505D01*
X156591619Y-126724359D01*
X156591630Y-126724354D01*
X156740840Y-126632319D01*
X156740844Y-126632316D01*
X156864816Y-126508344D01*
X156864819Y-126508340D01*
X156956854Y-126359130D01*
X156956859Y-126359119D01*
X157012005Y-126192697D01*
X157022499Y-126089986D01*
X157022500Y-126089973D01*
X157022500Y-125500000D01*
X155381829Y-125500000D01*
X155422500Y-125334995D01*
X155422500Y-125165005D01*
X155381829Y-125000000D01*
X157022499Y-125000000D01*
X157022499Y-124410028D01*
X157022498Y-124410013D01*
X157012005Y-124307303D01*
X157012005Y-124307301D01*
X156956859Y-124140880D01*
X156956854Y-124140869D01*
X156864819Y-123991659D01*
X156864816Y-123991655D01*
X156740844Y-123867683D01*
X156740840Y-123867680D01*
X156591630Y-123775645D01*
X156591619Y-123775640D01*
X156425197Y-123720494D01*
X156322486Y-123710000D01*
X154972500Y-123710000D01*
X154972500Y-124596162D01*
X154891251Y-124565349D01*
X154764840Y-124550000D01*
X154680160Y-124550000D01*
X154553749Y-124565349D01*
X154472500Y-124596162D01*
X154472500Y-123710000D01*
X153122528Y-123710000D01*
X153122512Y-123710001D01*
X153019803Y-123720494D01*
X153019801Y-123720494D01*
X152853380Y-123775640D01*
X152853369Y-123775645D01*
X152704159Y-123867680D01*
X152704155Y-123867683D01*
X152580183Y-123991655D01*
X152580180Y-123991659D01*
X152488145Y-124140869D01*
X152488140Y-124140880D01*
X152432994Y-124307302D01*
X152422500Y-124410013D01*
X152422500Y-125000000D01*
X147937460Y-125000000D01*
X147839632Y-124962101D01*
X147799708Y-124946635D01*
X147601050Y-124909500D01*
X147398950Y-124909500D01*
X147200292Y-124946635D01*
X147200289Y-124946635D01*
X147200289Y-124946636D01*
X147011842Y-125019640D01*
X147011836Y-125019643D01*
X146840012Y-125126032D01*
X146840010Y-125126034D01*
X146690659Y-125262184D01*
X146568866Y-125423465D01*
X146478787Y-125604367D01*
X146478782Y-125604380D01*
X146423474Y-125798763D01*
X146404828Y-125999999D01*
X146404828Y-126000000D01*
X146055172Y-126000000D01*
X146036525Y-125798763D01*
X145981217Y-125604378D01*
X145966612Y-125575048D01*
X145915550Y-125472500D01*
X145891134Y-125423466D01*
X145769342Y-125262187D01*
X145769340Y-125262184D01*
X145619989Y-125126034D01*
X145619987Y-125126032D01*
X145448163Y-125019643D01*
X145448157Y-125019640D01*
X145299632Y-124962101D01*
X145259708Y-124946635D01*
X145061050Y-124909500D01*
X144858950Y-124909500D01*
X144660292Y-124946635D01*
X144660289Y-124946635D01*
X144660289Y-124946636D01*
X144471842Y-125019640D01*
X144471836Y-125019643D01*
X144300012Y-125126032D01*
X144300010Y-125126034D01*
X144150659Y-125262184D01*
X144028866Y-125423465D01*
X143938787Y-125604367D01*
X143938782Y-125604380D01*
X143883474Y-125798763D01*
X143864828Y-125999999D01*
X143864828Y-126000000D01*
X143515172Y-126000000D01*
X143496525Y-125798763D01*
X143441217Y-125604378D01*
X143426612Y-125575048D01*
X143375550Y-125472500D01*
X143351134Y-125423466D01*
X143229342Y-125262187D01*
X143229340Y-125262184D01*
X143079989Y-125126034D01*
X143079987Y-125126032D01*
X142908163Y-125019643D01*
X142908157Y-125019640D01*
X142759632Y-124962101D01*
X142719708Y-124946635D01*
X142521050Y-124909500D01*
X142318950Y-124909500D01*
X142120292Y-124946635D01*
X142120289Y-124946635D01*
X142120289Y-124946636D01*
X141931842Y-125019640D01*
X141931836Y-125019643D01*
X141760012Y-125126032D01*
X141760010Y-125126034D01*
X141610659Y-125262184D01*
X141488866Y-125423465D01*
X141465000Y-125471395D01*
X141417497Y-125522632D01*
X141349834Y-125540053D01*
X141283494Y-125518127D01*
X141239539Y-125463816D01*
X141230000Y-125416123D01*
X141230000Y-125102172D01*
X141229999Y-125102155D01*
X141223598Y-125042627D01*
X141223596Y-125042620D01*
X141173354Y-124907913D01*
X141173350Y-124907906D01*
X141087190Y-124792812D01*
X141087187Y-124792809D01*
X140972093Y-124706649D01*
X140972086Y-124706645D01*
X140837379Y-124656403D01*
X140837372Y-124656401D01*
X140777844Y-124650000D01*
X140130000Y-124650000D01*
X140130000Y-125564498D01*
X140022315Y-125515320D01*
X139915763Y-125500000D01*
X139844237Y-125500000D01*
X139737685Y-125515320D01*
X139630000Y-125564498D01*
X139630000Y-124650000D01*
X138982155Y-124650000D01*
X138922627Y-124656401D01*
X138922620Y-124656403D01*
X138787913Y-124706645D01*
X138787906Y-124706649D01*
X138672812Y-124792809D01*
X138672809Y-124792812D01*
X138586649Y-124907906D01*
X138586645Y-124907913D01*
X138536403Y-125042620D01*
X138536401Y-125042627D01*
X138530000Y-125102155D01*
X138530000Y-125750000D01*
X139446314Y-125750000D01*
X139420507Y-125790156D01*
X139380000Y-125928111D01*
X139380000Y-126071889D01*
X139420507Y-126209844D01*
X139446314Y-126250000D01*
X138530000Y-126250000D01*
X138530000Y-126897844D01*
X126778505Y-126897844D01*
X126845823Y-126808260D01*
X126845823Y-126808259D01*
X126961379Y-126588087D01*
X127040115Y-126352245D01*
X127040115Y-126352244D01*
X127080000Y-126106824D01*
X127080000Y-125472500D01*
X126199329Y-125472500D01*
X126240000Y-125307495D01*
X126240000Y-125137505D01*
X126199329Y-124972500D01*
X127080000Y-124972500D01*
X127080000Y-124400438D01*
X127065003Y-124214663D01*
X127005496Y-123973241D01*
X126908040Y-123744503D01*
X126908040Y-123744502D01*
X126775145Y-123534344D01*
X126610268Y-123348236D01*
X126417663Y-123190980D01*
X126417656Y-123190975D01*
X126202335Y-123066660D01*
X125969858Y-122978493D01*
X125969846Y-122978489D01*
X125790000Y-122941773D01*
X125790000Y-124568662D01*
X125708751Y-124537849D01*
X125582340Y-124522500D01*
X125497660Y-124522500D01*
X125371249Y-124537849D01*
X125290000Y-124568662D01*
X125290000Y-122941544D01*
X125230957Y-122948714D01*
X125230951Y-122948715D01*
X124992137Y-123017889D01*
X124992134Y-123017890D01*
X124767494Y-123124482D01*
X124562860Y-123265732D01*
X124562857Y-123265735D01*
X124383549Y-123437961D01*
X124383545Y-123437965D01*
X124234176Y-123636739D01*
X124234176Y-123636740D01*
X124118620Y-123856912D01*
X124039884Y-124092754D01*
X124039884Y-124092755D01*
X124000000Y-124338175D01*
X124000000Y-124972500D01*
X124880671Y-124972500D01*
X124840000Y-125137505D01*
X124840000Y-125307495D01*
X124880671Y-125472500D01*
X124000000Y-125472500D01*
X124000000Y-126044562D01*
X121740500Y-126044562D01*
X121740500Y-123625584D01*
X121734219Y-123567164D01*
X121689700Y-123447802D01*
X121684930Y-123435013D01*
X121684929Y-123435011D01*
X121663087Y-123405834D01*
X121600403Y-123322097D01*
X121487489Y-123237571D01*
X121487488Y-123237570D01*
X121487486Y-123237569D01*
X121355339Y-123188282D01*
X121355338Y-123188281D01*
X121355336Y-123188281D01*
X121296916Y-123182000D01*
X119623084Y-123182000D01*
X119564664Y-123188281D01*
X119564661Y-123188281D01*
X119564660Y-123188282D01*
X119432513Y-123237569D01*
X119432511Y-123237570D01*
X119319597Y-123322097D01*
X119235070Y-123435011D01*
X119235069Y-123435013D01*
X119186861Y-123564268D01*
X119185781Y-123567164D01*
X119179500Y-123625584D01*
X119179500Y-126819416D01*
X112941984Y-126819416D01*
X113024667Y-126736733D01*
X113153181Y-126553195D01*
X113247872Y-126350130D01*
X113305863Y-126133706D01*
X113320500Y-125966404D01*
X113320500Y-124334596D01*
X113305863Y-124167294D01*
X113247872Y-123950870D01*
X113153181Y-123747805D01*
X113067601Y-123625584D01*
X113024668Y-123564268D01*
X112994744Y-123534344D01*
X112866233Y-123405833D01*
X112866229Y-123405830D01*
X112866228Y-123405829D01*
X112682700Y-123277321D01*
X112682696Y-123277319D01*
X112657854Y-123265735D01*
X112479630Y-123182628D01*
X112479627Y-123182627D01*
X112479625Y-123182626D01*
X112263208Y-123124637D01*
X112263200Y-123124636D01*
X112040002Y-123105109D01*
X112039998Y-123105109D01*
X111816799Y-123124636D01*
X111816791Y-123124637D01*
X111600374Y-123182626D01*
X111600368Y-123182629D01*
X111397306Y-123277318D01*
X111397304Y-123277319D01*
X111213764Y-123405834D01*
X111055334Y-123564264D01*
X110926819Y-123747804D01*
X110926818Y-123747806D01*
X110832129Y-123950868D01*
X110832126Y-123950874D01*
X110774137Y-124167291D01*
X110774136Y-124167298D01*
X110759500Y-124334596D01*
X110759500Y-125966404D01*
X108500000Y-125966404D01*
X108500000Y-125400500D01*
X107619329Y-125400500D01*
X107660000Y-125235495D01*
X107660000Y-125065505D01*
X107619329Y-124900500D01*
X108499999Y-124900500D01*
X108499999Y-123550528D01*
X108499998Y-123550513D01*
X108489505Y-123447803D01*
X108489505Y-123447801D01*
X108434359Y-123281380D01*
X108434354Y-123281369D01*
X108342319Y-123132159D01*
X108342316Y-123132155D01*
X108218344Y-123008183D01*
X108218340Y-123008180D01*
X108069130Y-122916145D01*
X108069119Y-122916140D01*
X107902697Y-122860994D01*
X107799986Y-122850500D01*
X107210000Y-122850500D01*
X107210000Y-124496662D01*
X107128751Y-124465849D01*
X107002340Y-124450500D01*
X106917660Y-124450500D01*
X106791249Y-124465849D01*
X106710000Y-124496662D01*
X106710000Y-122850500D01*
X106120028Y-122850500D01*
X106120012Y-122850501D01*
X106017303Y-122860994D01*
X106017301Y-122860994D01*
X105850880Y-122916140D01*
X105850869Y-122916145D01*
X105701659Y-123008180D01*
X105701655Y-123008183D01*
X105577683Y-123132155D01*
X105577680Y-123132159D01*
X105485645Y-123281369D01*
X105485640Y-123281380D01*
X105430494Y-123447802D01*
X105420000Y-123550513D01*
X105420000Y-124900500D01*
X85500500Y-124900500D01*
X85500500Y-121260000D01*
X88569364Y-121260000D01*
X88626567Y-121473486D01*
X88626570Y-121473492D01*
X88726399Y-121687578D01*
X88861894Y-121881082D01*
X89028917Y-122048105D01*
X89222421Y-122183600D01*
X89436507Y-122283429D01*
X89436518Y-122283434D01*
X89491946Y-122298285D01*
X89551607Y-122334649D01*
X89582137Y-122397495D01*
X89573843Y-122466871D01*
X89529358Y-122520750D01*
X89504649Y-122533686D01*
X89411848Y-122569637D01*
X89411836Y-122569643D01*
X89240012Y-122676032D01*
X89240010Y-122676034D01*
X89090659Y-122812184D01*
X88968866Y-122973465D01*
X88878787Y-123154367D01*
X88878782Y-123154380D01*
X88823474Y-123348763D01*
X88804828Y-123549999D01*
X88804828Y-123550000D01*
X88823474Y-123751236D01*
X88878782Y-123945619D01*
X88878787Y-123945632D01*
X88968866Y-124126534D01*
X89090659Y-124287815D01*
X89240010Y-124423965D01*
X89240012Y-124423967D01*
X89411836Y-124530356D01*
X89411842Y-124530359D01*
X89431176Y-124537849D01*
X89600292Y-124603365D01*
X89798950Y-124640500D01*
X89798953Y-124640500D01*
X90001047Y-124640500D01*
X90001050Y-124640500D01*
X90199708Y-124603365D01*
X90388160Y-124530358D01*
X90559989Y-124423966D01*
X90709342Y-124287813D01*
X90831134Y-124126534D01*
X90921217Y-123945622D01*
X90976525Y-123751237D01*
X90995172Y-123550000D01*
X90976525Y-123348763D01*
X90921217Y-123154378D01*
X90910153Y-123132159D01*
X90833635Y-122978489D01*
X90831134Y-122973466D01*
X90709342Y-122812187D01*
X90709340Y-122812184D01*
X90559989Y-122676034D01*
X90559987Y-122676032D01*
X90388163Y-122569643D01*
X90388151Y-122569638D01*
X90295350Y-122533686D01*
X90239949Y-122491113D01*
X90216359Y-122425346D01*
X90232070Y-122357266D01*
X90282095Y-122308487D01*
X90308054Y-122298285D01*
X90363478Y-122283435D01*
X90363492Y-122283429D01*
X90577578Y-122183600D01*
X90771082Y-122048105D01*
X90938105Y-121881082D01*
X91073600Y-121687578D01*
X91161068Y-121500000D01*
X135354796Y-121500000D01*
X135373543Y-121654406D01*
X135386124Y-121687578D01*
X135428700Y-121799841D01*
X135517058Y-121927849D01*
X135517060Y-121927851D01*
X135517062Y-121927853D01*
X135633480Y-122030991D01*
X135633482Y-122030992D01*
X135771208Y-122103276D01*
X135922229Y-122140500D01*
X135922230Y-122140500D01*
X136077770Y-122140500D01*
X136077771Y-122140500D01*
X136228792Y-122103276D01*
X136366518Y-122030992D01*
X136482942Y-121927849D01*
X136571300Y-121799841D01*
X136626456Y-121654407D01*
X136645204Y-121500000D01*
X136626456Y-121345593D01*
X136571300Y-121200159D01*
X136482942Y-121072151D01*
X136482939Y-121072148D01*
X136482937Y-121072146D01*
X136366519Y-120969008D01*
X136228790Y-120896723D01*
X136127169Y-120871675D01*
X136077771Y-120859500D01*
X135922229Y-120859500D01*
X135885006Y-120868674D01*
X135771209Y-120896723D01*
X135633480Y-120969008D01*
X135517062Y-121072146D01*
X135517056Y-121072153D01*
X135428701Y-121200156D01*
X135373543Y-121345593D01*
X135354796Y-121500000D01*
X91161068Y-121500000D01*
X91173429Y-121473492D01*
X91173432Y-121473486D01*
X91230636Y-121260000D01*
X90333686Y-121260000D01*
X90359493Y-121219844D01*
X90400000Y-121081889D01*
X90400000Y-120938111D01*
X90359493Y-120800156D01*
X90333686Y-120760000D01*
X91230636Y-120760000D01*
X91230635Y-120759999D01*
X91173432Y-120546513D01*
X91173429Y-120546507D01*
X91073600Y-120332422D01*
X91073599Y-120332420D01*
X90959872Y-120170001D01*
X152677109Y-120170001D01*
X152696636Y-120393200D01*
X152696637Y-120393208D01*
X152754626Y-120609625D01*
X152754627Y-120609627D01*
X152754628Y-120609630D01*
X152787070Y-120679202D01*
X152849318Y-120812693D01*
X152849319Y-120812695D01*
X152977834Y-120996235D01*
X153136264Y-121154665D01*
X153136267Y-121154667D01*
X153319805Y-121283181D01*
X153522870Y-121377872D01*
X153739294Y-121435863D01*
X153906596Y-121450500D01*
X155538404Y-121450500D01*
X155705706Y-121435863D01*
X155922130Y-121377872D01*
X156125195Y-121283181D01*
X156308733Y-121154667D01*
X156467167Y-120996233D01*
X156595681Y-120812696D01*
X156690372Y-120609630D01*
X156748363Y-120393206D01*
X156767891Y-120170000D01*
X156748363Y-119946794D01*
X156690372Y-119730370D01*
X156595681Y-119527305D01*
X156467167Y-119343767D01*
X156467165Y-119343764D01*
X156308735Y-119185334D01*
X156125195Y-119056819D01*
X156125193Y-119056818D01*
X156102429Y-119046203D01*
X155922130Y-118962128D01*
X155922127Y-118962127D01*
X155922125Y-118962126D01*
X155705708Y-118904137D01*
X155705701Y-118904136D01*
X155538404Y-118889500D01*
X153906596Y-118889500D01*
X153739298Y-118904136D01*
X153739291Y-118904137D01*
X153522874Y-118962126D01*
X153522868Y-118962129D01*
X153319806Y-119056818D01*
X153319804Y-119056819D01*
X153136268Y-119185331D01*
X152977829Y-119343771D01*
X152849321Y-119527299D01*
X152849319Y-119527303D01*
X152754629Y-119730368D01*
X152754626Y-119730374D01*
X152696637Y-119946791D01*
X152696636Y-119946799D01*
X152677109Y-120169998D01*
X152677109Y-120170001D01*
X90959872Y-120170001D01*
X90938113Y-120138926D01*
X90938108Y-120138920D01*
X90771082Y-119971894D01*
X90577578Y-119836399D01*
X90363492Y-119736570D01*
X90363483Y-119736566D01*
X90308052Y-119721714D01*
X90248391Y-119685349D01*
X90217862Y-119622502D01*
X90226157Y-119553127D01*
X90270642Y-119499249D01*
X90295346Y-119486314D01*
X90388160Y-119450358D01*
X90559989Y-119343966D01*
X90709342Y-119207813D01*
X90831134Y-119046534D01*
X90921217Y-118865622D01*
X90976525Y-118671237D01*
X90995172Y-118470000D01*
X90993044Y-118447040D01*
X90976525Y-118268763D01*
X90972440Y-118254406D01*
X90921217Y-118074378D01*
X90884181Y-118000000D01*
X124354796Y-118000000D01*
X124373543Y-118154406D01*
X124411469Y-118254406D01*
X124428700Y-118299841D01*
X124517058Y-118427849D01*
X124517060Y-118427851D01*
X124517062Y-118427853D01*
X124633480Y-118530991D01*
X124633482Y-118530992D01*
X124771208Y-118603276D01*
X124922229Y-118640500D01*
X124922230Y-118640500D01*
X125077770Y-118640500D01*
X125077771Y-118640500D01*
X125228792Y-118603276D01*
X125366518Y-118530992D01*
X125366521Y-118530989D01*
X125372690Y-118526732D01*
X125374538Y-118529410D01*
X125424382Y-118505890D01*
X125493660Y-118514969D01*
X125525782Y-118535578D01*
X125633482Y-118630992D01*
X125771208Y-118703276D01*
X125922229Y-118740500D01*
X125922230Y-118740500D01*
X126077770Y-118740500D01*
X126077771Y-118740500D01*
X126228792Y-118703276D01*
X126366518Y-118630992D01*
X126467773Y-118541288D01*
X126531006Y-118511566D01*
X126600269Y-118520750D01*
X126632227Y-118541288D01*
X126733480Y-118630991D01*
X126733482Y-118630992D01*
X126871208Y-118703276D01*
X127022229Y-118740500D01*
X127022230Y-118740500D01*
X127177770Y-118740500D01*
X127177771Y-118740500D01*
X127328792Y-118703276D01*
X127466518Y-118630992D01*
X127582942Y-118527849D01*
X127671300Y-118399841D01*
X127726456Y-118254407D01*
X127745204Y-118100000D01*
X127733062Y-118000000D01*
X136754796Y-118000000D01*
X136773543Y-118154406D01*
X136811469Y-118254406D01*
X136828700Y-118299841D01*
X136917058Y-118427849D01*
X136917060Y-118427851D01*
X136917062Y-118427853D01*
X137033480Y-118530991D01*
X137033482Y-118530992D01*
X137171208Y-118603276D01*
X137322229Y-118640500D01*
X137322230Y-118640500D01*
X137477770Y-118640500D01*
X137477771Y-118640500D01*
X137628792Y-118603276D01*
X137766518Y-118530992D01*
X137882942Y-118427849D01*
X137971300Y-118299841D01*
X138026456Y-118154407D01*
X138045204Y-118000000D01*
X138026456Y-117845593D01*
X137971300Y-117700159D01*
X137882942Y-117572151D01*
X137882939Y-117572148D01*
X137882937Y-117572146D01*
X137766519Y-117469008D01*
X137628790Y-117396723D01*
X137527169Y-117371675D01*
X137477771Y-117359500D01*
X137322229Y-117359500D01*
X137285006Y-117368674D01*
X137171209Y-117396723D01*
X137033480Y-117469008D01*
X136917062Y-117572146D01*
X136917056Y-117572153D01*
X136828701Y-117700156D01*
X136773543Y-117845593D01*
X136754796Y-118000000D01*
X127733062Y-118000000D01*
X127726456Y-117945593D01*
X127671300Y-117800159D01*
X127582942Y-117672151D01*
X127582939Y-117672148D01*
X127582937Y-117672146D01*
X127466519Y-117569008D01*
X127328790Y-117496723D01*
X127216346Y-117469008D01*
X127177771Y-117459500D01*
X127022229Y-117459500D01*
X126985006Y-117468674D01*
X126871209Y-117496723D01*
X126733483Y-117569007D01*
X126632227Y-117658712D01*
X126568994Y-117688433D01*
X126499730Y-117679249D01*
X126467773Y-117658712D01*
X126433504Y-117628353D01*
X126366518Y-117569008D01*
X126228792Y-117496724D01*
X126228791Y-117496723D01*
X126228790Y-117496723D01*
X126116346Y-117469008D01*
X126077771Y-117459500D01*
X125922229Y-117459500D01*
X125885006Y-117468674D01*
X125771209Y-117496723D01*
X125633479Y-117569009D01*
X125627310Y-117573268D01*
X125625490Y-117570632D01*
X125575299Y-117594157D01*
X125506046Y-117584899D01*
X125474211Y-117564415D01*
X125366519Y-117469008D01*
X125228790Y-117396723D01*
X125074917Y-117358796D01*
X125014537Y-117323639D01*
X125004329Y-117303659D01*
X124977222Y-117337870D01*
X124929187Y-117356390D01*
X124929512Y-117357705D01*
X124771209Y-117396723D01*
X124633480Y-117469008D01*
X124517062Y-117572146D01*
X124517056Y-117572153D01*
X124428701Y-117700156D01*
X124373543Y-117845593D01*
X124354796Y-118000000D01*
X90884181Y-118000000D01*
X90831134Y-117893466D01*
X90760670Y-117800156D01*
X90709340Y-117732184D01*
X90559989Y-117596034D01*
X90559987Y-117596032D01*
X90388163Y-117489643D01*
X90388157Y-117489640D01*
X90239632Y-117432101D01*
X90199708Y-117416635D01*
X90001050Y-117379500D01*
X89798950Y-117379500D01*
X89600292Y-117416635D01*
X89600289Y-117416635D01*
X89600289Y-117416636D01*
X89411842Y-117489640D01*
X89411836Y-117489643D01*
X89240012Y-117596032D01*
X89240010Y-117596034D01*
X89090659Y-117732184D01*
X88968866Y-117893465D01*
X88878787Y-118074367D01*
X88878782Y-118074380D01*
X88823474Y-118268763D01*
X88804828Y-118469999D01*
X88804828Y-118470000D01*
X88823474Y-118671236D01*
X88878782Y-118865619D01*
X88878787Y-118865632D01*
X88968866Y-119046534D01*
X89090659Y-119207815D01*
X89228792Y-119333739D01*
X89239789Y-119343764D01*
X89240010Y-119343965D01*
X89240012Y-119343967D01*
X89411836Y-119450356D01*
X89411842Y-119450359D01*
X89504648Y-119486312D01*
X89560049Y-119528885D01*
X89583640Y-119594652D01*
X89567929Y-119662732D01*
X89517905Y-119711511D01*
X89491948Y-119721714D01*
X89436513Y-119736567D01*
X89436507Y-119736570D01*
X89222422Y-119836399D01*
X89222420Y-119836400D01*
X89028926Y-119971886D01*
X89028920Y-119971891D01*
X88861891Y-120138920D01*
X88861886Y-120138926D01*
X88726400Y-120332420D01*
X88726399Y-120332422D01*
X88626570Y-120546507D01*
X88626567Y-120546513D01*
X88569364Y-120759999D01*
X88569364Y-120760000D01*
X89466314Y-120760000D01*
X89440507Y-120800156D01*
X89400000Y-120938111D01*
X89400000Y-121081889D01*
X89440507Y-121219844D01*
X89466314Y-121260000D01*
X88569364Y-121260000D01*
X85500500Y-121260000D01*
X85500500Y-115920000D01*
X105854796Y-115920000D01*
X105873543Y-116074406D01*
X105911753Y-116175156D01*
X105919932Y-116196723D01*
X105928701Y-116219843D01*
X105979026Y-116292750D01*
X106017058Y-116347849D01*
X106017060Y-116347851D01*
X106017062Y-116347853D01*
X106133480Y-116450991D01*
X106133482Y-116450992D01*
X106271208Y-116523276D01*
X106422229Y-116560500D01*
X106422230Y-116560500D01*
X106577770Y-116560500D01*
X106577771Y-116560500D01*
X106728792Y-116523276D01*
X106820774Y-116475000D01*
X124365056Y-116475000D01*
X124383803Y-116629406D01*
X124438961Y-116774843D01*
X124470649Y-116820750D01*
X124527318Y-116902849D01*
X124527320Y-116902851D01*
X124527322Y-116902853D01*
X124643740Y-117005991D01*
X124643742Y-117005992D01*
X124781468Y-117078276D01*
X124932489Y-117115500D01*
X124932490Y-117115500D01*
X124935342Y-117116203D01*
X124995722Y-117151360D01*
X125005929Y-117171339D01*
X125033037Y-117137128D01*
X125081072Y-117118613D01*
X125080748Y-117117295D01*
X125088030Y-117115500D01*
X125088031Y-117115500D01*
X125239052Y-117078276D01*
X125376778Y-117005992D01*
X125493202Y-116902849D01*
X125564194Y-116800000D01*
X131429296Y-116800000D01*
X131448043Y-116954406D01*
X131480695Y-117040500D01*
X131495021Y-117078276D01*
X131503201Y-117099843D01*
X131516157Y-117118613D01*
X131591558Y-117227849D01*
X131591560Y-117227851D01*
X131591562Y-117227853D01*
X131707980Y-117330991D01*
X131707982Y-117330992D01*
X131845708Y-117403276D01*
X131996729Y-117440500D01*
X131996730Y-117440500D01*
X132152270Y-117440500D01*
X132152271Y-117440500D01*
X132303292Y-117403276D01*
X132441018Y-117330992D01*
X132557442Y-117227849D01*
X132645800Y-117099841D01*
X132664128Y-117051511D01*
X132706305Y-116995810D01*
X132771902Y-116971752D01*
X132837693Y-116985686D01*
X132871208Y-117003276D01*
X133022229Y-117040500D01*
X133022230Y-117040500D01*
X133177770Y-117040500D01*
X133177771Y-117040500D01*
X133328792Y-117003276D01*
X133466518Y-116930992D01*
X133567773Y-116841288D01*
X133631006Y-116811566D01*
X133700269Y-116820750D01*
X133732227Y-116841288D01*
X133833480Y-116930991D01*
X133833482Y-116930992D01*
X133971208Y-117003276D01*
X134122229Y-117040500D01*
X134122230Y-117040500D01*
X134277770Y-117040500D01*
X134277771Y-117040500D01*
X134428792Y-117003276D01*
X134566518Y-116930992D01*
X134682942Y-116827849D01*
X134697950Y-116806105D01*
X134752233Y-116762116D01*
X134821681Y-116754456D01*
X134884246Y-116785559D01*
X134902049Y-116806104D01*
X134917058Y-116827849D01*
X134917060Y-116827851D01*
X134917062Y-116827853D01*
X135033480Y-116930991D01*
X135033482Y-116930992D01*
X135171208Y-117003276D01*
X135322229Y-117040500D01*
X135322230Y-117040500D01*
X135477770Y-117040500D01*
X135477771Y-117040500D01*
X135628792Y-117003276D01*
X135766518Y-116930992D01*
X135817773Y-116885583D01*
X135881005Y-116855862D01*
X135950269Y-116865045D01*
X135982224Y-116885581D01*
X136033482Y-116930992D01*
X136171208Y-117003276D01*
X136322229Y-117040500D01*
X136322230Y-117040500D01*
X136477770Y-117040500D01*
X136477771Y-117040500D01*
X136628792Y-117003276D01*
X136766518Y-116930992D01*
X136817773Y-116885583D01*
X136881005Y-116855862D01*
X136950269Y-116865045D01*
X136982224Y-116885581D01*
X137033482Y-116930992D01*
X137171208Y-117003276D01*
X137322229Y-117040500D01*
X137322230Y-117040500D01*
X137477770Y-117040500D01*
X137477771Y-117040500D01*
X137628792Y-117003276D01*
X137766518Y-116930992D01*
X137882942Y-116827849D01*
X137971300Y-116699841D01*
X138026456Y-116554407D01*
X138045204Y-116400000D01*
X138026456Y-116245593D01*
X137971300Y-116100159D01*
X137882942Y-115972151D01*
X137882939Y-115972148D01*
X137882937Y-115972146D01*
X137766519Y-115869008D01*
X137628790Y-115796723D01*
X137527169Y-115771675D01*
X137477771Y-115759500D01*
X137322229Y-115759500D01*
X137285006Y-115768674D01*
X137171209Y-115796723D01*
X137033483Y-115869007D01*
X136982227Y-115914416D01*
X136918994Y-115944137D01*
X136849730Y-115934953D01*
X136817773Y-115914416D01*
X136811090Y-115908495D01*
X136766518Y-115869008D01*
X136628792Y-115796724D01*
X136628791Y-115796723D01*
X136628790Y-115796723D01*
X136527169Y-115771675D01*
X136477771Y-115759500D01*
X136322229Y-115759500D01*
X136285006Y-115768674D01*
X136171209Y-115796723D01*
X136033483Y-115869007D01*
X135982227Y-115914416D01*
X135918994Y-115944137D01*
X135849730Y-115934953D01*
X135817773Y-115914416D01*
X135811090Y-115908495D01*
X135766518Y-115869008D01*
X135628792Y-115796724D01*
X135628791Y-115796723D01*
X135628790Y-115796723D01*
X135527169Y-115771675D01*
X135477771Y-115759500D01*
X135322229Y-115759500D01*
X135285006Y-115768674D01*
X135171209Y-115796723D01*
X135033480Y-115869008D01*
X134917062Y-115972146D01*
X134917057Y-115972151D01*
X134902049Y-115993895D01*
X134847765Y-116037884D01*
X134778317Y-116045542D01*
X134715752Y-116014438D01*
X134697951Y-115993895D01*
X134682942Y-115972151D01*
X134682937Y-115972146D01*
X134566519Y-115869008D01*
X134428790Y-115796723D01*
X134327169Y-115771675D01*
X134277771Y-115759500D01*
X134122229Y-115759500D01*
X134085006Y-115768674D01*
X133971209Y-115796723D01*
X133833483Y-115869007D01*
X133732227Y-115958712D01*
X133668994Y-115988433D01*
X133599730Y-115979249D01*
X133567773Y-115958712D01*
X133517773Y-115914416D01*
X133466518Y-115869008D01*
X133328792Y-115796724D01*
X133328791Y-115796723D01*
X133328790Y-115796723D01*
X133227169Y-115771675D01*
X133177771Y-115759500D01*
X133022229Y-115759500D01*
X132985006Y-115768674D01*
X132871209Y-115796723D01*
X132733480Y-115869008D01*
X132617062Y-115972146D01*
X132617056Y-115972153D01*
X132528700Y-116100157D01*
X132528699Y-116100160D01*
X132510370Y-116148489D01*
X132468192Y-116204191D01*
X132402594Y-116228247D01*
X132336803Y-116214312D01*
X132303292Y-116196724D01*
X132218539Y-116175834D01*
X132152271Y-116159500D01*
X131996729Y-116159500D01*
X131959506Y-116168674D01*
X131845709Y-116196723D01*
X131707980Y-116269008D01*
X131591562Y-116372146D01*
X131591556Y-116372153D01*
X131503201Y-116500156D01*
X131448043Y-116645593D01*
X131429296Y-116800000D01*
X125564194Y-116800000D01*
X125581560Y-116774841D01*
X125636716Y-116629407D01*
X125655464Y-116475000D01*
X125636716Y-116320593D01*
X125581560Y-116175159D01*
X125493202Y-116047151D01*
X125493199Y-116047148D01*
X125493197Y-116047146D01*
X125376779Y-115944008D01*
X125239050Y-115871723D01*
X125137429Y-115846675D01*
X125088031Y-115834500D01*
X124932489Y-115834500D01*
X124895266Y-115843674D01*
X124781469Y-115871723D01*
X124643740Y-115944008D01*
X124527322Y-116047146D01*
X124527316Y-116047153D01*
X124438961Y-116175156D01*
X124383803Y-116320593D01*
X124365056Y-116475000D01*
X106820774Y-116475000D01*
X106866518Y-116450992D01*
X106982942Y-116347849D01*
X107071300Y-116219841D01*
X107126456Y-116074407D01*
X107145204Y-115920000D01*
X107126456Y-115765593D01*
X107071300Y-115620159D01*
X106982942Y-115492151D01*
X106982939Y-115492148D01*
X106982937Y-115492146D01*
X106866519Y-115389008D01*
X106728790Y-115316723D01*
X106627169Y-115291675D01*
X106577771Y-115279500D01*
X106422229Y-115279500D01*
X106385006Y-115288674D01*
X106271209Y-115316723D01*
X106133480Y-115389008D01*
X106017062Y-115492146D01*
X106017056Y-115492153D01*
X105928701Y-115620156D01*
X105873543Y-115765593D01*
X105854796Y-115920000D01*
X85500500Y-115920000D01*
X85500500Y-115027844D01*
X88550000Y-115027844D01*
X88556401Y-115087372D01*
X88556403Y-115087379D01*
X88606645Y-115222086D01*
X88606649Y-115222093D01*
X88692809Y-115337187D01*
X88692812Y-115337190D01*
X88807906Y-115423350D01*
X88807913Y-115423354D01*
X88942620Y-115473596D01*
X88942627Y-115473598D01*
X89002155Y-115479999D01*
X89002172Y-115480000D01*
X89650000Y-115480000D01*
X89650000Y-114565501D01*
X89757685Y-114614680D01*
X89864237Y-114630000D01*
X89935763Y-114630000D01*
X90042315Y-114614680D01*
X90150000Y-114565501D01*
X90150000Y-115480000D01*
X90797828Y-115480000D01*
X90797844Y-115479999D01*
X90857372Y-115473598D01*
X90857379Y-115473596D01*
X90992086Y-115423354D01*
X90992093Y-115423350D01*
X91107187Y-115337190D01*
X91107190Y-115337187D01*
X91193350Y-115222093D01*
X91193354Y-115222086D01*
X91243596Y-115087379D01*
X91243598Y-115087372D01*
X91249999Y-115027844D01*
X91250000Y-115027827D01*
X91250000Y-114500000D01*
X112854796Y-114500000D01*
X112873543Y-114654406D01*
X112928701Y-114799843D01*
X113003201Y-114907774D01*
X113017058Y-114927849D01*
X113017060Y-114927851D01*
X113017062Y-114927853D01*
X113133480Y-115030991D01*
X113133482Y-115030992D01*
X113271208Y-115103276D01*
X113422229Y-115140500D01*
X113422230Y-115140500D01*
X113577770Y-115140500D01*
X113577771Y-115140500D01*
X113728792Y-115103276D01*
X113866518Y-115030992D01*
X113982942Y-114927849D01*
X114071300Y-114799841D01*
X114126456Y-114654407D01*
X114145204Y-114500000D01*
X114126456Y-114345593D01*
X114112957Y-114310000D01*
X120358796Y-114310000D01*
X120377543Y-114464406D01*
X120411883Y-114554952D01*
X120432700Y-114609841D01*
X120521058Y-114737849D01*
X120521060Y-114737851D01*
X120521062Y-114737853D01*
X120637480Y-114840991D01*
X120637482Y-114840992D01*
X120775208Y-114913276D01*
X120926229Y-114950500D01*
X120926230Y-114950500D01*
X121081770Y-114950500D01*
X121081771Y-114950500D01*
X121232792Y-114913276D01*
X121370518Y-114840992D01*
X121486942Y-114737849D01*
X121575300Y-114609841D01*
X121630456Y-114464407D01*
X121649204Y-114310000D01*
X121630456Y-114155593D01*
X121575300Y-114010159D01*
X121486942Y-113882151D01*
X121486939Y-113882148D01*
X121486937Y-113882146D01*
X121370519Y-113779008D01*
X121232790Y-113706723D01*
X121131169Y-113681675D01*
X121081771Y-113669500D01*
X120926229Y-113669500D01*
X120889006Y-113678674D01*
X120775209Y-113706723D01*
X120637480Y-113779008D01*
X120521062Y-113882146D01*
X120521056Y-113882153D01*
X120432701Y-114010156D01*
X120377543Y-114155593D01*
X120358796Y-114310000D01*
X114112957Y-114310000D01*
X114071300Y-114200159D01*
X113982942Y-114072151D01*
X113982939Y-114072148D01*
X113982937Y-114072146D01*
X113866519Y-113969008D01*
X113728790Y-113896723D01*
X113627169Y-113871675D01*
X113577771Y-113859500D01*
X113422229Y-113859500D01*
X113385006Y-113868674D01*
X113271209Y-113896723D01*
X113133480Y-113969008D01*
X113017062Y-114072146D01*
X113017056Y-114072153D01*
X112928701Y-114200156D01*
X112873543Y-114345593D01*
X112854796Y-114500000D01*
X91250000Y-114500000D01*
X91250000Y-114380000D01*
X90333686Y-114380000D01*
X90359493Y-114339844D01*
X90400000Y-114201889D01*
X90400000Y-114058111D01*
X90359493Y-113920156D01*
X90333686Y-113880000D01*
X91250000Y-113880000D01*
X91250000Y-113500000D01*
X103854796Y-113500000D01*
X103873543Y-113654406D01*
X103893385Y-113706723D01*
X103928700Y-113799841D01*
X104017058Y-113927849D01*
X104017060Y-113927851D01*
X104017062Y-113927853D01*
X104133480Y-114030991D01*
X104133482Y-114030992D01*
X104271208Y-114103276D01*
X104422229Y-114140500D01*
X104422230Y-114140500D01*
X104577770Y-114140500D01*
X104577771Y-114140500D01*
X104728792Y-114103276D01*
X104866518Y-114030992D01*
X104982942Y-113927849D01*
X105071300Y-113799841D01*
X105126456Y-113654407D01*
X105145204Y-113500000D01*
X105126456Y-113345593D01*
X105120542Y-113330000D01*
X141854796Y-113330000D01*
X141873543Y-113484406D01*
X141928701Y-113629843D01*
X141956075Y-113669500D01*
X142017058Y-113757849D01*
X142017060Y-113757851D01*
X142017062Y-113757853D01*
X142133480Y-113860991D01*
X142133482Y-113860992D01*
X142271208Y-113933276D01*
X142422229Y-113970500D01*
X142422230Y-113970500D01*
X142577770Y-113970500D01*
X142577771Y-113970500D01*
X142728792Y-113933276D01*
X142866518Y-113860992D01*
X142982942Y-113757849D01*
X143071300Y-113629841D01*
X143126456Y-113484407D01*
X143145204Y-113330000D01*
X143126456Y-113175593D01*
X143071300Y-113030159D01*
X142982942Y-112902151D01*
X142982939Y-112902148D01*
X142982937Y-112902146D01*
X142866519Y-112799008D01*
X142728790Y-112726723D01*
X142627169Y-112701675D01*
X142577771Y-112689500D01*
X142422229Y-112689500D01*
X142385006Y-112698674D01*
X142271209Y-112726723D01*
X142133480Y-112799008D01*
X142017062Y-112902146D01*
X142017056Y-112902153D01*
X141928701Y-113030156D01*
X141873543Y-113175593D01*
X141854796Y-113330000D01*
X105120542Y-113330000D01*
X105071300Y-113200159D01*
X104982942Y-113072151D01*
X104982939Y-113072148D01*
X104982937Y-113072146D01*
X104866519Y-112969008D01*
X104728790Y-112896723D01*
X104627169Y-112871675D01*
X104577771Y-112859500D01*
X104422229Y-112859500D01*
X104385006Y-112868674D01*
X104271209Y-112896723D01*
X104133480Y-112969008D01*
X104017062Y-113072146D01*
X104017056Y-113072153D01*
X103928701Y-113200156D01*
X103873543Y-113345593D01*
X103854796Y-113500000D01*
X91250000Y-113500000D01*
X91250000Y-113232172D01*
X91249999Y-113232155D01*
X91243598Y-113172627D01*
X91243596Y-113172620D01*
X91193354Y-113037913D01*
X91193350Y-113037906D01*
X91107190Y-112922812D01*
X91107187Y-112922809D01*
X90992093Y-112836649D01*
X90992086Y-112836645D01*
X90857379Y-112786403D01*
X90857372Y-112786401D01*
X90797844Y-112780000D01*
X90485391Y-112780000D01*
X90418352Y-112760315D01*
X90372597Y-112707511D01*
X90362653Y-112638353D01*
X90391678Y-112574797D01*
X90420114Y-112550573D01*
X90559987Y-112463967D01*
X90559986Y-112463967D01*
X90559989Y-112463966D01*
X90709342Y-112327813D01*
X90831134Y-112166534D01*
X90921217Y-111985622D01*
X90976525Y-111791237D01*
X90995172Y-111590000D01*
X90976525Y-111388763D01*
X90921217Y-111194378D01*
X90910798Y-111173454D01*
X90874299Y-111100154D01*
X90831134Y-111013466D01*
X90709342Y-110852187D01*
X90709340Y-110852184D01*
X90559989Y-110716034D01*
X90559987Y-110716032D01*
X90388163Y-110609643D01*
X90388157Y-110609640D01*
X90239632Y-110552101D01*
X90199708Y-110536635D01*
X90003725Y-110500000D01*
X105854796Y-110500000D01*
X105873543Y-110654406D01*
X105885173Y-110685070D01*
X105928700Y-110799841D01*
X106017058Y-110927849D01*
X106017060Y-110927851D01*
X106017062Y-110927853D01*
X106133480Y-111030991D01*
X106133482Y-111030992D01*
X106271208Y-111103276D01*
X106422229Y-111140500D01*
X106422230Y-111140500D01*
X106577770Y-111140500D01*
X106577771Y-111140500D01*
X106728792Y-111103276D01*
X106866518Y-111030992D01*
X106901501Y-111000000D01*
X109354796Y-111000000D01*
X109373543Y-111154406D01*
X109405358Y-111238294D01*
X109428700Y-111299841D01*
X109517058Y-111427849D01*
X109517060Y-111427851D01*
X109517062Y-111427853D01*
X109633480Y-111530991D01*
X109633482Y-111530992D01*
X109771208Y-111603276D01*
X109922229Y-111640500D01*
X109922230Y-111640500D01*
X110077770Y-111640500D01*
X110077771Y-111640500D01*
X110228792Y-111603276D01*
X110366518Y-111530992D01*
X110482942Y-111427849D01*
X110571300Y-111299841D01*
X110626456Y-111154407D01*
X110645204Y-111000000D01*
X110626456Y-110845593D01*
X110571300Y-110700159D01*
X110531474Y-110642462D01*
X115354796Y-110642462D01*
X115373543Y-110796868D01*
X115428701Y-110942305D01*
X115478645Y-111014660D01*
X115517058Y-111070311D01*
X115517060Y-111070313D01*
X115517062Y-111070315D01*
X115633480Y-111173453D01*
X115633482Y-111173454D01*
X115771208Y-111245738D01*
X115922229Y-111282962D01*
X115922230Y-111282962D01*
X116077770Y-111282962D01*
X116077771Y-111282962D01*
X116228792Y-111245738D01*
X116366518Y-111173454D01*
X116482942Y-111070311D01*
X116531474Y-111000000D01*
X117354796Y-111000000D01*
X117373543Y-111154406D01*
X117405358Y-111238294D01*
X117428700Y-111299841D01*
X117517058Y-111427849D01*
X117517060Y-111427851D01*
X117517062Y-111427853D01*
X117633480Y-111530991D01*
X117633482Y-111530992D01*
X117771208Y-111603276D01*
X117922229Y-111640500D01*
X117922230Y-111640500D01*
X118077770Y-111640500D01*
X118077771Y-111640500D01*
X118228792Y-111603276D01*
X118366518Y-111530992D01*
X118482942Y-111427849D01*
X118571300Y-111299841D01*
X118626456Y-111154407D01*
X118645204Y-111000000D01*
X118626456Y-110845593D01*
X118571300Y-110700159D01*
X118502165Y-110600000D01*
X122154796Y-110600000D01*
X122173543Y-110754406D01*
X122228701Y-110899843D01*
X122258011Y-110942305D01*
X122317058Y-111027849D01*
X122317060Y-111027851D01*
X122317062Y-111027853D01*
X122433480Y-111130991D01*
X122433482Y-111130992D01*
X122571208Y-111203276D01*
X122722229Y-111240500D01*
X122722230Y-111240500D01*
X122877770Y-111240500D01*
X122877771Y-111240500D01*
X123028792Y-111203276D01*
X123166518Y-111130992D01*
X123282942Y-111027849D01*
X123371300Y-110899841D01*
X123426456Y-110754407D01*
X123445204Y-110600000D01*
X123433062Y-110500000D01*
X148854796Y-110500000D01*
X148873543Y-110654406D01*
X148885173Y-110685070D01*
X148928700Y-110799841D01*
X149017058Y-110927849D01*
X149017060Y-110927851D01*
X149017062Y-110927853D01*
X149133480Y-111030991D01*
X149133482Y-111030992D01*
X149271208Y-111103276D01*
X149422229Y-111140500D01*
X149422230Y-111140500D01*
X149577770Y-111140500D01*
X149577771Y-111140500D01*
X149728792Y-111103276D01*
X149866518Y-111030992D01*
X149917773Y-110985583D01*
X149981005Y-110955862D01*
X150050269Y-110965045D01*
X150082224Y-110985581D01*
X150133482Y-111030992D01*
X150271208Y-111103276D01*
X150422229Y-111140500D01*
X150422230Y-111140500D01*
X150577770Y-111140500D01*
X150577771Y-111140500D01*
X150728792Y-111103276D01*
X150866518Y-111030992D01*
X150867769Y-111029883D01*
X150868882Y-111029359D01*
X150872690Y-111026732D01*
X150873126Y-111027364D01*
X150931000Y-111000159D01*
X151000264Y-111009339D01*
X151032229Y-111029882D01*
X151033482Y-111030992D01*
X151171208Y-111103276D01*
X151322229Y-111140500D01*
X151322230Y-111140500D01*
X151477770Y-111140500D01*
X151477771Y-111140500D01*
X151628792Y-111103276D01*
X151634741Y-111100153D01*
X151703246Y-111086426D01*
X151768301Y-111111915D01*
X151809247Y-111168530D01*
X151813086Y-111238294D01*
X151808311Y-111253919D01*
X151773544Y-111345592D01*
X151754796Y-111500000D01*
X151773543Y-111654406D01*
X151828701Y-111799843D01*
X151918239Y-111929560D01*
X151940122Y-111995914D01*
X151922657Y-112063566D01*
X151918239Y-112070440D01*
X151828701Y-112200156D01*
X151773543Y-112345593D01*
X151754796Y-112500000D01*
X151773543Y-112654406D01*
X151800970Y-112726723D01*
X151828700Y-112799841D01*
X151917058Y-112927849D01*
X151917060Y-112927851D01*
X151917062Y-112927853D01*
X152033480Y-113030991D01*
X152033482Y-113030992D01*
X152171208Y-113103276D01*
X152322229Y-113140500D01*
X152322230Y-113140500D01*
X152477770Y-113140500D01*
X152477771Y-113140500D01*
X152628792Y-113103276D01*
X152714656Y-113058210D01*
X152783165Y-113044485D01*
X152846592Y-113068740D01*
X152935010Y-113134929D01*
X152935013Y-113134930D01*
X152979062Y-113151359D01*
X153067164Y-113184219D01*
X153125584Y-113190500D01*
X153125594Y-113190500D01*
X156319406Y-113190500D01*
X156319416Y-113190500D01*
X156377836Y-113184219D01*
X156509989Y-113134929D01*
X156622903Y-113050403D01*
X156707429Y-112937489D01*
X156756719Y-112805336D01*
X156763000Y-112746916D01*
X156763000Y-111073084D01*
X156756719Y-111014664D01*
X156715122Y-110903136D01*
X156707430Y-110882513D01*
X156707429Y-110882511D01*
X156684729Y-110852187D01*
X156622903Y-110769597D01*
X156509989Y-110685071D01*
X156509988Y-110685070D01*
X156509986Y-110685069D01*
X156377839Y-110635782D01*
X156377838Y-110635781D01*
X156377836Y-110635781D01*
X156319416Y-110629500D01*
X153169204Y-110629500D01*
X153102165Y-110609815D01*
X153056410Y-110557011D01*
X153045204Y-110505500D01*
X153045204Y-110500000D01*
X153026456Y-110345593D01*
X153001956Y-110280992D01*
X152971300Y-110200159D01*
X152882942Y-110072151D01*
X152882939Y-110072148D01*
X152882937Y-110072146D01*
X152766519Y-109969008D01*
X152628790Y-109896723D01*
X152527169Y-109871675D01*
X152477771Y-109859500D01*
X152322229Y-109859500D01*
X152285006Y-109868674D01*
X152171209Y-109896723D01*
X152033483Y-109969007D01*
X151982227Y-110014416D01*
X151918994Y-110044137D01*
X151849730Y-110034953D01*
X151817773Y-110014416D01*
X151797803Y-109996724D01*
X151766518Y-109969008D01*
X151628792Y-109896724D01*
X151628791Y-109896723D01*
X151628790Y-109896723D01*
X151527169Y-109871675D01*
X151477771Y-109859500D01*
X151322229Y-109859500D01*
X151285006Y-109868674D01*
X151171209Y-109896723D01*
X151033480Y-109969008D01*
X151032224Y-109970122D01*
X151031107Y-109970646D01*
X151027310Y-109973268D01*
X151026874Y-109972636D01*
X150968990Y-109999841D01*
X150899727Y-109990656D01*
X150867776Y-109970122D01*
X150866519Y-109969008D01*
X150728790Y-109896723D01*
X150627169Y-109871675D01*
X150577771Y-109859500D01*
X150422229Y-109859500D01*
X150385006Y-109868674D01*
X150271209Y-109896723D01*
X150133483Y-109969007D01*
X150082227Y-110014416D01*
X150018994Y-110044137D01*
X149949730Y-110034953D01*
X149917773Y-110014416D01*
X149897803Y-109996724D01*
X149866518Y-109969008D01*
X149728792Y-109896724D01*
X149728791Y-109896723D01*
X149728790Y-109896723D01*
X149627169Y-109871675D01*
X149577771Y-109859500D01*
X149422229Y-109859500D01*
X149385006Y-109868674D01*
X149271209Y-109896723D01*
X149133480Y-109969008D01*
X149017062Y-110072146D01*
X149017056Y-110072153D01*
X148928701Y-110200156D01*
X148873543Y-110345593D01*
X148854796Y-110500000D01*
X123433062Y-110500000D01*
X123426456Y-110445593D01*
X123371300Y-110300159D01*
X123282942Y-110172151D01*
X123282939Y-110172148D01*
X123282937Y-110172146D01*
X123166519Y-110069008D01*
X123028790Y-109996723D01*
X122916342Y-109969007D01*
X122877771Y-109959500D01*
X122722229Y-109959500D01*
X122685006Y-109968674D01*
X122571209Y-109996723D01*
X122433480Y-110069008D01*
X122317062Y-110172146D01*
X122317056Y-110172153D01*
X122228701Y-110300156D01*
X122173543Y-110445593D01*
X122154796Y-110600000D01*
X118502165Y-110600000D01*
X118482942Y-110572151D01*
X118482939Y-110572148D01*
X118482937Y-110572146D01*
X118366519Y-110469008D01*
X118228790Y-110396723D01*
X118127169Y-110371675D01*
X118077771Y-110359500D01*
X117922229Y-110359500D01*
X117885006Y-110368674D01*
X117771209Y-110396723D01*
X117633480Y-110469008D01*
X117517062Y-110572146D01*
X117517056Y-110572153D01*
X117428701Y-110700156D01*
X117373543Y-110845593D01*
X117354796Y-111000000D01*
X116531474Y-111000000D01*
X116571300Y-110942303D01*
X116626456Y-110796869D01*
X116645204Y-110642462D01*
X116626456Y-110488055D01*
X116571300Y-110342621D01*
X116482942Y-110214613D01*
X116482939Y-110214610D01*
X116482937Y-110214608D01*
X116366519Y-110111470D01*
X116228790Y-110039185D01*
X116127169Y-110014137D01*
X116077771Y-110001962D01*
X115922229Y-110001962D01*
X115885006Y-110011136D01*
X115771209Y-110039185D01*
X115633480Y-110111470D01*
X115517062Y-110214608D01*
X115517056Y-110214615D01*
X115428701Y-110342618D01*
X115373543Y-110488055D01*
X115354796Y-110642462D01*
X110531474Y-110642462D01*
X110482942Y-110572151D01*
X110482939Y-110572148D01*
X110482937Y-110572146D01*
X110366519Y-110469008D01*
X110228790Y-110396723D01*
X110127169Y-110371675D01*
X110077771Y-110359500D01*
X109922229Y-110359500D01*
X109885006Y-110368674D01*
X109771209Y-110396723D01*
X109633480Y-110469008D01*
X109517062Y-110572146D01*
X109517056Y-110572153D01*
X109428701Y-110700156D01*
X109373543Y-110845593D01*
X109354796Y-111000000D01*
X106901501Y-111000000D01*
X106982942Y-110927849D01*
X107071300Y-110799841D01*
X107126456Y-110654407D01*
X107145204Y-110500000D01*
X107126456Y-110345593D01*
X107071300Y-110200159D01*
X106982942Y-110072151D01*
X106982939Y-110072148D01*
X106982937Y-110072146D01*
X106866519Y-109969008D01*
X106728790Y-109896723D01*
X106627169Y-109871675D01*
X106577771Y-109859500D01*
X106422229Y-109859500D01*
X106385006Y-109868674D01*
X106271209Y-109896723D01*
X106133480Y-109969008D01*
X106017062Y-110072146D01*
X106017056Y-110072153D01*
X105928701Y-110200156D01*
X105873543Y-110345593D01*
X105854796Y-110500000D01*
X90003725Y-110500000D01*
X90001050Y-110499500D01*
X89798950Y-110499500D01*
X89600292Y-110536635D01*
X89600289Y-110536635D01*
X89600289Y-110536636D01*
X89411842Y-110609640D01*
X89411836Y-110609643D01*
X89240012Y-110716032D01*
X89240010Y-110716034D01*
X89090659Y-110852184D01*
X88968866Y-111013465D01*
X88878787Y-111194367D01*
X88878782Y-111194380D01*
X88823474Y-111388763D01*
X88804828Y-111589999D01*
X88804828Y-111590000D01*
X88823474Y-111791236D01*
X88878782Y-111985619D01*
X88878787Y-111985632D01*
X88968866Y-112166534D01*
X89090659Y-112327815D01*
X89240010Y-112463965D01*
X89240012Y-112463967D01*
X89379886Y-112550573D01*
X89426522Y-112602601D01*
X89437626Y-112671582D01*
X89409673Y-112735617D01*
X89351538Y-112774373D01*
X89314609Y-112780000D01*
X89002155Y-112780000D01*
X88942627Y-112786401D01*
X88942620Y-112786403D01*
X88807913Y-112836645D01*
X88807906Y-112836649D01*
X88692812Y-112922809D01*
X88692809Y-112922812D01*
X88606649Y-113037906D01*
X88606645Y-113037913D01*
X88556403Y-113172620D01*
X88556401Y-113172627D01*
X88550000Y-113232155D01*
X88550000Y-113880000D01*
X89466314Y-113880000D01*
X89440507Y-113920156D01*
X89400000Y-114058111D01*
X89400000Y-114201889D01*
X89440507Y-114339844D01*
X89466314Y-114380000D01*
X88550000Y-114380000D01*
X88550000Y-115027844D01*
X85500500Y-115027844D01*
X85500500Y-106760000D01*
X88569364Y-106760000D01*
X88626567Y-106973486D01*
X88626570Y-106973492D01*
X88726399Y-107187578D01*
X88861894Y-107381082D01*
X89028917Y-107548105D01*
X89222421Y-107683600D01*
X89436507Y-107783429D01*
X89436518Y-107783434D01*
X89491946Y-107798285D01*
X89551607Y-107834649D01*
X89582137Y-107897495D01*
X89573843Y-107966871D01*
X89529358Y-108020750D01*
X89504649Y-108033686D01*
X89411848Y-108069637D01*
X89411836Y-108069643D01*
X89240012Y-108176032D01*
X89240010Y-108176034D01*
X89090659Y-108312184D01*
X88968866Y-108473465D01*
X88878787Y-108654367D01*
X88878782Y-108654380D01*
X88823474Y-108848763D01*
X88804828Y-109049999D01*
X88804828Y-109050000D01*
X88823474Y-109251236D01*
X88878782Y-109445619D01*
X88878787Y-109445632D01*
X88968866Y-109626534D01*
X89090659Y-109787815D01*
X89240010Y-109923965D01*
X89240012Y-109923967D01*
X89411836Y-110030356D01*
X89411842Y-110030359D01*
X89451764Y-110045824D01*
X89600292Y-110103365D01*
X89798950Y-110140500D01*
X89798953Y-110140500D01*
X90001047Y-110140500D01*
X90001050Y-110140500D01*
X90199708Y-110103365D01*
X90388160Y-110030358D01*
X90559989Y-109923966D01*
X90709342Y-109787813D01*
X90737897Y-109750000D01*
X125354796Y-109750000D01*
X125373543Y-109904406D01*
X125406254Y-109990656D01*
X125421551Y-110030992D01*
X125428701Y-110049843D01*
X125491278Y-110140500D01*
X125517058Y-110177849D01*
X125517060Y-110177851D01*
X125517062Y-110177853D01*
X125633480Y-110280991D01*
X125633482Y-110280992D01*
X125771208Y-110353276D01*
X125922229Y-110390500D01*
X125922230Y-110390500D01*
X126077770Y-110390500D01*
X126077771Y-110390500D01*
X126228792Y-110353276D01*
X126366518Y-110280992D01*
X126482942Y-110177849D01*
X126571300Y-110049841D01*
X126626456Y-109904407D01*
X126645204Y-109750000D01*
X126626456Y-109595593D01*
X126571300Y-109450159D01*
X126482942Y-109322151D01*
X126482939Y-109322148D01*
X126482937Y-109322146D01*
X126366519Y-109219008D01*
X126228790Y-109146723D01*
X126127169Y-109121675D01*
X126077771Y-109109500D01*
X125922229Y-109109500D01*
X125885006Y-109118674D01*
X125771209Y-109146723D01*
X125633480Y-109219008D01*
X125517062Y-109322146D01*
X125517056Y-109322153D01*
X125428701Y-109450156D01*
X125373543Y-109595593D01*
X125354796Y-109750000D01*
X90737897Y-109750000D01*
X90831134Y-109626534D01*
X90921217Y-109445622D01*
X90976525Y-109251237D01*
X90995172Y-109050000D01*
X90995157Y-109049843D01*
X90976525Y-108848763D01*
X90939286Y-108717883D01*
X90921217Y-108654378D01*
X90895771Y-108603276D01*
X90859778Y-108530991D01*
X90831134Y-108473466D01*
X90716868Y-108322153D01*
X90709340Y-108312184D01*
X90559989Y-108176034D01*
X90559987Y-108176032D01*
X90388163Y-108069643D01*
X90388151Y-108069638D01*
X90295350Y-108033686D01*
X90239949Y-107991113D01*
X90216359Y-107925346D01*
X90232070Y-107857266D01*
X90282095Y-107808487D01*
X90308054Y-107798285D01*
X90363478Y-107783435D01*
X90363492Y-107783429D01*
X90577578Y-107683600D01*
X90771082Y-107548105D01*
X90938105Y-107381082D01*
X91073600Y-107187578D01*
X91173429Y-106973492D01*
X91173432Y-106973486D01*
X91230636Y-106760000D01*
X90333686Y-106760000D01*
X90359493Y-106719844D01*
X90400000Y-106581889D01*
X90400000Y-106500000D01*
X110354796Y-106500000D01*
X110373543Y-106654406D01*
X110407903Y-106745005D01*
X110428361Y-106798948D01*
X110428701Y-106799843D01*
X110479864Y-106873965D01*
X110517058Y-106927849D01*
X110517060Y-106927851D01*
X110517062Y-106927853D01*
X110633480Y-107030991D01*
X110633482Y-107030992D01*
X110771208Y-107103276D01*
X110922229Y-107140500D01*
X110922230Y-107140500D01*
X111077770Y-107140500D01*
X111077771Y-107140500D01*
X111228792Y-107103276D01*
X111366518Y-107030992D01*
X111482942Y-106927849D01*
X111571300Y-106799841D01*
X111590202Y-106750000D01*
X118354796Y-106750000D01*
X118373543Y-106904406D01*
X118402348Y-106980356D01*
X118421551Y-107030992D01*
X118428701Y-107049843D01*
X118465584Y-107103276D01*
X118517058Y-107177849D01*
X118517060Y-107177851D01*
X118517062Y-107177853D01*
X118633480Y-107280991D01*
X118633482Y-107280992D01*
X118771208Y-107353276D01*
X118922229Y-107390500D01*
X118922230Y-107390500D01*
X118929512Y-107392295D01*
X118929182Y-107393631D01*
X118985958Y-107418062D01*
X119025019Y-107475993D01*
X119026559Y-107545845D01*
X119008891Y-107583982D01*
X118928701Y-107700156D01*
X118873543Y-107845593D01*
X118854796Y-108000000D01*
X118873543Y-108154406D01*
X118928701Y-108299843D01*
X119000000Y-108403136D01*
X119017058Y-108427849D01*
X119017060Y-108427851D01*
X119017062Y-108427853D01*
X119133480Y-108530991D01*
X119133482Y-108530992D01*
X119271208Y-108603276D01*
X119422229Y-108640500D01*
X119422230Y-108640500D01*
X119577770Y-108640500D01*
X119577771Y-108640500D01*
X119728792Y-108603276D01*
X119866518Y-108530992D01*
X119982942Y-108427849D01*
X120071300Y-108299841D01*
X120126456Y-108154407D01*
X120141003Y-108034595D01*
X124639391Y-108034595D01*
X124658138Y-108189001D01*
X124685471Y-108261070D01*
X124713295Y-108334436D01*
X124801653Y-108462444D01*
X124801655Y-108462446D01*
X124801657Y-108462448D01*
X124918075Y-108565586D01*
X124918077Y-108565587D01*
X125055803Y-108637871D01*
X125206824Y-108675095D01*
X125206825Y-108675095D01*
X125362365Y-108675095D01*
X125362366Y-108675095D01*
X125513387Y-108637871D01*
X125651113Y-108565587D01*
X125704595Y-108518205D01*
X125767827Y-108488484D01*
X125837091Y-108497667D01*
X125869047Y-108518204D01*
X125883482Y-108530992D01*
X126021208Y-108603276D01*
X126172229Y-108640500D01*
X126172230Y-108640500D01*
X126327770Y-108640500D01*
X126327771Y-108640500D01*
X126478792Y-108603276D01*
X126616518Y-108530992D01*
X126667773Y-108485583D01*
X126731005Y-108455862D01*
X126800269Y-108465045D01*
X126832224Y-108485581D01*
X126883482Y-108530992D01*
X127021208Y-108603276D01*
X127172229Y-108640500D01*
X127172230Y-108640500D01*
X127327770Y-108640500D01*
X127327771Y-108640500D01*
X127478792Y-108603276D01*
X127616518Y-108530992D01*
X127667773Y-108485583D01*
X127731005Y-108455862D01*
X127800269Y-108465045D01*
X127832224Y-108485581D01*
X127883482Y-108530992D01*
X128021208Y-108603276D01*
X128172229Y-108640500D01*
X128172230Y-108640500D01*
X128327770Y-108640500D01*
X128327771Y-108640500D01*
X128478792Y-108603276D01*
X128616518Y-108530992D01*
X128667773Y-108485583D01*
X128731005Y-108455862D01*
X128800269Y-108465045D01*
X128832224Y-108485581D01*
X128883482Y-108530992D01*
X129021208Y-108603276D01*
X129172229Y-108640500D01*
X129172230Y-108640500D01*
X129327770Y-108640500D01*
X129327771Y-108640500D01*
X129478792Y-108603276D01*
X129616518Y-108530992D01*
X129667773Y-108485583D01*
X129731005Y-108455862D01*
X129800269Y-108465045D01*
X129832224Y-108485581D01*
X129883482Y-108530992D01*
X130021208Y-108603276D01*
X130172229Y-108640500D01*
X130172230Y-108640500D01*
X130327770Y-108640500D01*
X130327771Y-108640500D01*
X130478792Y-108603276D01*
X130616518Y-108530992D01*
X130667773Y-108485583D01*
X130731005Y-108455862D01*
X130800269Y-108465045D01*
X130832224Y-108485581D01*
X130883482Y-108530992D01*
X131021208Y-108603276D01*
X131172229Y-108640500D01*
X131172230Y-108640500D01*
X131327770Y-108640500D01*
X131327771Y-108640500D01*
X131478792Y-108603276D01*
X131616518Y-108530992D01*
X131667773Y-108485583D01*
X131731005Y-108455862D01*
X131800269Y-108465045D01*
X131832224Y-108485581D01*
X131883482Y-108530992D01*
X132021208Y-108603276D01*
X132172229Y-108640500D01*
X132172230Y-108640500D01*
X132327770Y-108640500D01*
X132327771Y-108640500D01*
X132478792Y-108603276D01*
X132616518Y-108530992D01*
X132667773Y-108485583D01*
X132731005Y-108455862D01*
X132800269Y-108465045D01*
X132832224Y-108485581D01*
X132883482Y-108530992D01*
X133021208Y-108603276D01*
X133172229Y-108640500D01*
X133172230Y-108640500D01*
X133327770Y-108640500D01*
X133327771Y-108640500D01*
X133478792Y-108603276D01*
X133616518Y-108530992D01*
X133667773Y-108485583D01*
X133731005Y-108455862D01*
X133800269Y-108465045D01*
X133832224Y-108485581D01*
X133883482Y-108530992D01*
X134021208Y-108603276D01*
X134172229Y-108640500D01*
X134172230Y-108640500D01*
X134327770Y-108640500D01*
X134327771Y-108640500D01*
X134478792Y-108603276D01*
X134616518Y-108530992D01*
X134667773Y-108485583D01*
X134731005Y-108455862D01*
X134800269Y-108465045D01*
X134832224Y-108485581D01*
X134883482Y-108530992D01*
X135021208Y-108603276D01*
X135172229Y-108640500D01*
X135172230Y-108640500D01*
X135327770Y-108640500D01*
X135327771Y-108640500D01*
X135452623Y-108609726D01*
X135522424Y-108612795D01*
X135579487Y-108653114D01*
X135605692Y-108717883D01*
X135605395Y-108745061D01*
X135604796Y-108749996D01*
X135604796Y-108749999D01*
X135623543Y-108904406D01*
X135678701Y-109049843D01*
X135768239Y-109179560D01*
X135790122Y-109245914D01*
X135772657Y-109313566D01*
X135768239Y-109320440D01*
X135678701Y-109450156D01*
X135623543Y-109595593D01*
X135604796Y-109750000D01*
X135623543Y-109904406D01*
X135656254Y-109990656D01*
X135671551Y-110030992D01*
X135678701Y-110049843D01*
X135741278Y-110140500D01*
X135767058Y-110177849D01*
X135767060Y-110177851D01*
X135767062Y-110177853D01*
X135883480Y-110280991D01*
X135883482Y-110280992D01*
X136021208Y-110353276D01*
X136172229Y-110390500D01*
X136172230Y-110390500D01*
X136327770Y-110390500D01*
X136327771Y-110390500D01*
X136478792Y-110353276D01*
X136616518Y-110280992D01*
X136732942Y-110177849D01*
X136821300Y-110049841D01*
X136876456Y-109904407D01*
X136895204Y-109750000D01*
X136876456Y-109595593D01*
X136840202Y-109500000D01*
X139854796Y-109500000D01*
X139873543Y-109654406D01*
X139909798Y-109750000D01*
X139928700Y-109799841D01*
X140017058Y-109927849D01*
X140017060Y-109927851D01*
X140017062Y-109927853D01*
X140133480Y-110030991D01*
X140133482Y-110030992D01*
X140271208Y-110103276D01*
X140422229Y-110140500D01*
X140422230Y-110140500D01*
X140577770Y-110140500D01*
X140577771Y-110140500D01*
X140728792Y-110103276D01*
X140866518Y-110030992D01*
X140982942Y-109927849D01*
X141071300Y-109799841D01*
X141126456Y-109654407D01*
X141145204Y-109500000D01*
X141126456Y-109345593D01*
X141071300Y-109200159D01*
X140982942Y-109072151D01*
X140982939Y-109072148D01*
X140982937Y-109072146D01*
X140866519Y-108969008D01*
X140728790Y-108896723D01*
X140627169Y-108871675D01*
X140577771Y-108859500D01*
X140422229Y-108859500D01*
X140385006Y-108868674D01*
X140271209Y-108896723D01*
X140133480Y-108969008D01*
X140017062Y-109072146D01*
X140017056Y-109072153D01*
X139928701Y-109200156D01*
X139873543Y-109345593D01*
X139854796Y-109500000D01*
X136840202Y-109500000D01*
X136821300Y-109450159D01*
X136821298Y-109450156D01*
X136821298Y-109450155D01*
X136732943Y-109322153D01*
X136732942Y-109322151D01*
X136732940Y-109322149D01*
X136731761Y-109320441D01*
X136709877Y-109254086D01*
X136727342Y-109186435D01*
X136731761Y-109179559D01*
X136732940Y-109177850D01*
X136732942Y-109177849D01*
X136821300Y-109049841D01*
X136876456Y-108904407D01*
X136895204Y-108750000D01*
X136876456Y-108595593D01*
X136821300Y-108450159D01*
X136732942Y-108322151D01*
X136732939Y-108322148D01*
X136732937Y-108322146D01*
X136616519Y-108219008D01*
X136478790Y-108146723D01*
X136377169Y-108121675D01*
X136327771Y-108109500D01*
X136172229Y-108109500D01*
X136172228Y-108109500D01*
X136047376Y-108140273D01*
X135977574Y-108137204D01*
X135920512Y-108096884D01*
X135894306Y-108032115D01*
X135894604Y-108004933D01*
X135895204Y-108000000D01*
X135876456Y-107845593D01*
X135821300Y-107700159D01*
X135732942Y-107572151D01*
X135732939Y-107572148D01*
X135732937Y-107572146D01*
X135616519Y-107469008D01*
X135478790Y-107396723D01*
X135377169Y-107371675D01*
X135327771Y-107359500D01*
X135172229Y-107359500D01*
X135135006Y-107368674D01*
X135021209Y-107396723D01*
X134883483Y-107469007D01*
X134832227Y-107514416D01*
X134768994Y-107544137D01*
X134699730Y-107534953D01*
X134667773Y-107514416D01*
X134661090Y-107508495D01*
X134616518Y-107469008D01*
X134478792Y-107396724D01*
X134478791Y-107396723D01*
X134478790Y-107396723D01*
X134377169Y-107371675D01*
X134327771Y-107359500D01*
X134172229Y-107359500D01*
X134135006Y-107368674D01*
X134021209Y-107396723D01*
X133883483Y-107469007D01*
X133832227Y-107514416D01*
X133768994Y-107544137D01*
X133699730Y-107534953D01*
X133667773Y-107514416D01*
X133661090Y-107508495D01*
X133616518Y-107469008D01*
X133478792Y-107396724D01*
X133478791Y-107396723D01*
X133478790Y-107396723D01*
X133377169Y-107371675D01*
X133327771Y-107359500D01*
X133172229Y-107359500D01*
X133135006Y-107368674D01*
X133021209Y-107396723D01*
X132883483Y-107469007D01*
X132832227Y-107514416D01*
X132768994Y-107544137D01*
X132699730Y-107534953D01*
X132667773Y-107514416D01*
X132661090Y-107508495D01*
X132616518Y-107469008D01*
X132478792Y-107396724D01*
X132478791Y-107396723D01*
X132478790Y-107396723D01*
X132377169Y-107371675D01*
X132327771Y-107359500D01*
X132172229Y-107359500D01*
X132135006Y-107368674D01*
X132021209Y-107396723D01*
X131883483Y-107469007D01*
X131832227Y-107514416D01*
X131768994Y-107544137D01*
X131699730Y-107534953D01*
X131667773Y-107514416D01*
X131661090Y-107508495D01*
X131616518Y-107469008D01*
X131478792Y-107396724D01*
X131478791Y-107396723D01*
X131478790Y-107396723D01*
X131377169Y-107371675D01*
X131327771Y-107359500D01*
X131172229Y-107359500D01*
X131135006Y-107368674D01*
X131021209Y-107396723D01*
X130883483Y-107469007D01*
X130832227Y-107514416D01*
X130768994Y-107544137D01*
X130699730Y-107534953D01*
X130667773Y-107514416D01*
X130661090Y-107508495D01*
X130616518Y-107469008D01*
X130478792Y-107396724D01*
X130478791Y-107396723D01*
X130478790Y-107396723D01*
X130377169Y-107371675D01*
X130327771Y-107359500D01*
X130172229Y-107359500D01*
X130135006Y-107368674D01*
X130021209Y-107396723D01*
X129883483Y-107469007D01*
X129832227Y-107514416D01*
X129768994Y-107544137D01*
X129699730Y-107534953D01*
X129667773Y-107514416D01*
X129661090Y-107508495D01*
X129616518Y-107469008D01*
X129478792Y-107396724D01*
X129478791Y-107396723D01*
X129478790Y-107396723D01*
X129377169Y-107371675D01*
X129327771Y-107359500D01*
X129172229Y-107359500D01*
X129135006Y-107368674D01*
X129021209Y-107396723D01*
X128883483Y-107469007D01*
X128832227Y-107514416D01*
X128768994Y-107544137D01*
X128699730Y-107534953D01*
X128667773Y-107514416D01*
X128661090Y-107508495D01*
X128616518Y-107469008D01*
X128478792Y-107396724D01*
X128478791Y-107396723D01*
X128478790Y-107396723D01*
X128377169Y-107371675D01*
X128327771Y-107359500D01*
X128172229Y-107359500D01*
X128135006Y-107368674D01*
X128021209Y-107396723D01*
X127883483Y-107469007D01*
X127832227Y-107514416D01*
X127768994Y-107544137D01*
X127699730Y-107534953D01*
X127667773Y-107514416D01*
X127661090Y-107508495D01*
X127616518Y-107469008D01*
X127478792Y-107396724D01*
X127478791Y-107396723D01*
X127478790Y-107396723D01*
X127377169Y-107371675D01*
X127327771Y-107359500D01*
X127172229Y-107359500D01*
X127135006Y-107368674D01*
X127021209Y-107396723D01*
X126883483Y-107469007D01*
X126832227Y-107514416D01*
X126768994Y-107544137D01*
X126699730Y-107534953D01*
X126667773Y-107514416D01*
X126661090Y-107508495D01*
X126616518Y-107469008D01*
X126478792Y-107396724D01*
X126478791Y-107396723D01*
X126478790Y-107396723D01*
X126377169Y-107371675D01*
X126327771Y-107359500D01*
X126172229Y-107359500D01*
X126135006Y-107368674D01*
X126021209Y-107396723D01*
X125883480Y-107469008D01*
X125829998Y-107516389D01*
X125766765Y-107546110D01*
X125697501Y-107536926D01*
X125665545Y-107516389D01*
X125663318Y-107514416D01*
X125651113Y-107503603D01*
X125513387Y-107431319D01*
X125513386Y-107431318D01*
X125513385Y-107431318D01*
X125411764Y-107406270D01*
X125362366Y-107394095D01*
X125206824Y-107394095D01*
X125169601Y-107403269D01*
X125055804Y-107431318D01*
X124918075Y-107503603D01*
X124801657Y-107606741D01*
X124801651Y-107606748D01*
X124713296Y-107734751D01*
X124658138Y-107880188D01*
X124639391Y-108034595D01*
X120141003Y-108034595D01*
X120145204Y-108000000D01*
X120126456Y-107845593D01*
X120071300Y-107700159D01*
X119982942Y-107572151D01*
X119982939Y-107572148D01*
X119982937Y-107572146D01*
X119866519Y-107469008D01*
X119728790Y-107396723D01*
X119570488Y-107357705D01*
X119570816Y-107356371D01*
X119514029Y-107331928D01*
X119474975Y-107273992D01*
X119473941Y-107226802D01*
X139627994Y-107226802D01*
X139646741Y-107381208D01*
X139701899Y-107526645D01*
X139754262Y-107602505D01*
X139790256Y-107654651D01*
X139790258Y-107654653D01*
X139790260Y-107654655D01*
X139906678Y-107757793D01*
X139906680Y-107757794D01*
X140044406Y-107830078D01*
X140195427Y-107867302D01*
X140195428Y-107867302D01*
X140350968Y-107867302D01*
X140350969Y-107867302D01*
X140501990Y-107830078D01*
X140639716Y-107757794D01*
X140756140Y-107654651D01*
X140844498Y-107526643D01*
X140899654Y-107381209D01*
X140918402Y-107226802D01*
X140899654Y-107072395D01*
X140844498Y-106926961D01*
X140824400Y-106897844D01*
X142110000Y-106897844D01*
X142116401Y-106957372D01*
X142116403Y-106957379D01*
X142166645Y-107092086D01*
X142166649Y-107092093D01*
X142252809Y-107207187D01*
X142252812Y-107207190D01*
X142367906Y-107293350D01*
X142367913Y-107293354D01*
X142502620Y-107343596D01*
X142502627Y-107343598D01*
X142562155Y-107349999D01*
X142562172Y-107350000D01*
X143210000Y-107350000D01*
X143210000Y-106435501D01*
X143317685Y-106484680D01*
X143424237Y-106500000D01*
X143495763Y-106500000D01*
X143602315Y-106484680D01*
X143710000Y-106435501D01*
X143710000Y-107350000D01*
X144357828Y-107350000D01*
X144357844Y-107349999D01*
X144417372Y-107343598D01*
X144417379Y-107343596D01*
X144552086Y-107293354D01*
X144552093Y-107293350D01*
X144667187Y-107207190D01*
X144667190Y-107207187D01*
X144753350Y-107092093D01*
X144753354Y-107092086D01*
X144803596Y-106957379D01*
X144803598Y-106957372D01*
X144809999Y-106897844D01*
X144810000Y-106897827D01*
X144810000Y-106583876D01*
X144829685Y-106516837D01*
X144882489Y-106471082D01*
X144951647Y-106461138D01*
X145015203Y-106490163D01*
X145045000Y-106528605D01*
X145068866Y-106576534D01*
X145083259Y-106595593D01*
X145190659Y-106737815D01*
X145340010Y-106873965D01*
X145340012Y-106873967D01*
X145511836Y-106980356D01*
X145511842Y-106980359D01*
X145548809Y-106994680D01*
X145700292Y-107053365D01*
X145898950Y-107090500D01*
X145898953Y-107090500D01*
X146101047Y-107090500D01*
X146101050Y-107090500D01*
X146299708Y-107053365D01*
X146488160Y-106980358D01*
X146659989Y-106873966D01*
X146786905Y-106758266D01*
X146809340Y-106737815D01*
X146809342Y-106737813D01*
X146931134Y-106576534D01*
X147021217Y-106395622D01*
X147076525Y-106201237D01*
X147095172Y-106000000D01*
X147444828Y-106000000D01*
X147463474Y-106201236D01*
X147518782Y-106395619D01*
X147518787Y-106395632D01*
X147608866Y-106576534D01*
X147730659Y-106737815D01*
X147880010Y-106873965D01*
X147880012Y-106873967D01*
X148051836Y-106980356D01*
X148051842Y-106980359D01*
X148088809Y-106994680D01*
X148240292Y-107053365D01*
X148438950Y-107090500D01*
X148438953Y-107090500D01*
X148641047Y-107090500D01*
X148641050Y-107090500D01*
X148697221Y-107080000D01*
X152441545Y-107080000D01*
X152448712Y-107139034D01*
X152448714Y-107139041D01*
X152517889Y-107377862D01*
X152517890Y-107377865D01*
X152624482Y-107602505D01*
X152765732Y-107807139D01*
X152765735Y-107807142D01*
X152937961Y-107986450D01*
X152937965Y-107986454D01*
X153136740Y-108135823D01*
X153356912Y-108251379D01*
X153592754Y-108330115D01*
X153838175Y-108370000D01*
X154472500Y-108370000D01*
X154472500Y-107483837D01*
X154553749Y-107514651D01*
X154680160Y-107530000D01*
X154764840Y-107530000D01*
X154891251Y-107514651D01*
X154972500Y-107483837D01*
X154972500Y-108370000D01*
X155544562Y-108370000D01*
X155730336Y-108355003D01*
X155971758Y-108295496D01*
X156200496Y-108198040D01*
X156200497Y-108198040D01*
X156410655Y-108065145D01*
X156596763Y-107900268D01*
X156754019Y-107707663D01*
X156754024Y-107707656D01*
X156878339Y-107492335D01*
X156966510Y-107259846D01*
X157003226Y-107080000D01*
X155381829Y-107080000D01*
X155422500Y-106914995D01*
X155422500Y-106745005D01*
X155381829Y-106580000D01*
X157003455Y-106580000D01*
X156996287Y-106520965D01*
X156996285Y-106520958D01*
X156927110Y-106282137D01*
X156927109Y-106282134D01*
X156820517Y-106057494D01*
X156679267Y-105852860D01*
X156679264Y-105852857D01*
X156507038Y-105673549D01*
X156507034Y-105673545D01*
X156308259Y-105524176D01*
X156088087Y-105408620D01*
X155852245Y-105329884D01*
X155606825Y-105290000D01*
X154972500Y-105290000D01*
X154972500Y-106176162D01*
X154891251Y-106145349D01*
X154764840Y-106130000D01*
X154680160Y-106130000D01*
X154553749Y-106145349D01*
X154472500Y-106176162D01*
X154472500Y-105290000D01*
X153900438Y-105290000D01*
X153714663Y-105304996D01*
X153473241Y-105364503D01*
X153244503Y-105461959D01*
X153244502Y-105461959D01*
X153034344Y-105594854D01*
X152848236Y-105759731D01*
X152690980Y-105952336D01*
X152690975Y-105952343D01*
X152566660Y-106167664D01*
X152478489Y-106400153D01*
X152441773Y-106580000D01*
X154063171Y-106580000D01*
X154022500Y-106745005D01*
X154022500Y-106914995D01*
X154063171Y-107080000D01*
X152441545Y-107080000D01*
X148697221Y-107080000D01*
X148839708Y-107053365D01*
X149028160Y-106980358D01*
X149199989Y-106873966D01*
X149326905Y-106758266D01*
X149349340Y-106737815D01*
X149349342Y-106737813D01*
X149471134Y-106576534D01*
X149561217Y-106395622D01*
X149616525Y-106201237D01*
X149635172Y-106000000D01*
X149616525Y-105798763D01*
X149561217Y-105604378D01*
X149546612Y-105575048D01*
X149495248Y-105471894D01*
X149471134Y-105423466D01*
X149381670Y-105304996D01*
X149349340Y-105262184D01*
X149199989Y-105126034D01*
X149199987Y-105126032D01*
X149028163Y-105019643D01*
X149028157Y-105019640D01*
X148879632Y-104962101D01*
X148839708Y-104946635D01*
X148641050Y-104909500D01*
X148438950Y-104909500D01*
X148240292Y-104946635D01*
X148240289Y-104946635D01*
X148240289Y-104946636D01*
X148051842Y-105019640D01*
X148051836Y-105019643D01*
X147880012Y-105126032D01*
X147880010Y-105126034D01*
X147730659Y-105262184D01*
X147608866Y-105423465D01*
X147518787Y-105604367D01*
X147518782Y-105604380D01*
X147463474Y-105798763D01*
X147444828Y-105999999D01*
X147444828Y-106000000D01*
X147095172Y-106000000D01*
X147076525Y-105798763D01*
X147021217Y-105604378D01*
X147006612Y-105575048D01*
X146955248Y-105471894D01*
X146931134Y-105423466D01*
X146841670Y-105304996D01*
X146809340Y-105262184D01*
X146659989Y-105126034D01*
X146659987Y-105126032D01*
X146488163Y-105019643D01*
X146488157Y-105019640D01*
X146339632Y-104962101D01*
X146299708Y-104946635D01*
X146101050Y-104909500D01*
X145898950Y-104909500D01*
X145700292Y-104946635D01*
X145700289Y-104946635D01*
X145700289Y-104946636D01*
X145511842Y-105019640D01*
X145511836Y-105019643D01*
X145340012Y-105126032D01*
X145340010Y-105126034D01*
X145190659Y-105262184D01*
X145068866Y-105423465D01*
X145045000Y-105471395D01*
X144997497Y-105522632D01*
X144929834Y-105540053D01*
X144863494Y-105518127D01*
X144819539Y-105463816D01*
X144810000Y-105416123D01*
X144810000Y-105102172D01*
X144809999Y-105102155D01*
X144803598Y-105042627D01*
X144803596Y-105042620D01*
X144753354Y-104907913D01*
X144753350Y-104907906D01*
X144667190Y-104792812D01*
X144667187Y-104792809D01*
X144552093Y-104706649D01*
X144552086Y-104706645D01*
X144417379Y-104656403D01*
X144417372Y-104656401D01*
X144357844Y-104650000D01*
X143710000Y-104650000D01*
X143710000Y-105564498D01*
X143602315Y-105515320D01*
X143495763Y-105500000D01*
X143424237Y-105500000D01*
X143317685Y-105515320D01*
X143210000Y-105564498D01*
X143210000Y-104650000D01*
X142562155Y-104650000D01*
X142502627Y-104656401D01*
X142502620Y-104656403D01*
X142367913Y-104706645D01*
X142367906Y-104706649D01*
X142252812Y-104792809D01*
X142252809Y-104792812D01*
X142166649Y-104907906D01*
X142166645Y-104907913D01*
X142116403Y-105042620D01*
X142116401Y-105042627D01*
X142110000Y-105102155D01*
X142110000Y-105750000D01*
X143026314Y-105750000D01*
X143000507Y-105790156D01*
X142960000Y-105928111D01*
X142960000Y-106071889D01*
X143000507Y-106209844D01*
X143026314Y-106250000D01*
X142110000Y-106250000D01*
X142110000Y-106897844D01*
X140824400Y-106897844D01*
X140756140Y-106798953D01*
X140756137Y-106798950D01*
X140756135Y-106798948D01*
X140639717Y-106695810D01*
X140501988Y-106623525D01*
X140388663Y-106595593D01*
X140350969Y-106586302D01*
X140195427Y-106586302D01*
X140158204Y-106595476D01*
X140044407Y-106623525D01*
X139906678Y-106695810D01*
X139790260Y-106798948D01*
X139790254Y-106798955D01*
X139701899Y-106926958D01*
X139646741Y-107072395D01*
X139627994Y-107226802D01*
X119473941Y-107226802D01*
X119473444Y-107204139D01*
X119491107Y-107166019D01*
X119571300Y-107049841D01*
X119626456Y-106904407D01*
X119645204Y-106750000D01*
X119626456Y-106595593D01*
X119571300Y-106450159D01*
X119482942Y-106322151D01*
X119482939Y-106322148D01*
X119482937Y-106322146D01*
X119366519Y-106219008D01*
X119228790Y-106146723D01*
X119127169Y-106121675D01*
X119077771Y-106109500D01*
X118922229Y-106109500D01*
X118885006Y-106118674D01*
X118771209Y-106146723D01*
X118633480Y-106219008D01*
X118517062Y-106322146D01*
X118517056Y-106322153D01*
X118428701Y-106450156D01*
X118373543Y-106595593D01*
X118354796Y-106750000D01*
X111590202Y-106750000D01*
X111626456Y-106654407D01*
X111645204Y-106500000D01*
X111626456Y-106345593D01*
X111571300Y-106200159D01*
X111482942Y-106072151D01*
X111482939Y-106072148D01*
X111482937Y-106072146D01*
X111401502Y-106000000D01*
X114354796Y-106000000D01*
X114373543Y-106154406D01*
X114428701Y-106299843D01*
X114444101Y-106322153D01*
X114517058Y-106427849D01*
X114517060Y-106427851D01*
X114517062Y-106427853D01*
X114633480Y-106530991D01*
X114633482Y-106530992D01*
X114771208Y-106603276D01*
X114922229Y-106640500D01*
X114922230Y-106640500D01*
X115077770Y-106640500D01*
X115077771Y-106640500D01*
X115228792Y-106603276D01*
X115366518Y-106530992D01*
X115482942Y-106427849D01*
X115571300Y-106299841D01*
X115626456Y-106154407D01*
X115645204Y-106000000D01*
X115626456Y-105845593D01*
X115571300Y-105700159D01*
X115482942Y-105572151D01*
X115482939Y-105572148D01*
X115482937Y-105572146D01*
X115366519Y-105469008D01*
X115228790Y-105396723D01*
X115127169Y-105371675D01*
X115077771Y-105359500D01*
X114922229Y-105359500D01*
X114885006Y-105368674D01*
X114771209Y-105396723D01*
X114633480Y-105469008D01*
X114517062Y-105572146D01*
X114517056Y-105572153D01*
X114428701Y-105700156D01*
X114373543Y-105845593D01*
X114354796Y-106000000D01*
X111401502Y-106000000D01*
X111366519Y-105969008D01*
X111228790Y-105896723D01*
X111127169Y-105871675D01*
X111077771Y-105859500D01*
X110922229Y-105859500D01*
X110885006Y-105868674D01*
X110771209Y-105896723D01*
X110633480Y-105969008D01*
X110517062Y-106072146D01*
X110517056Y-106072153D01*
X110428701Y-106200156D01*
X110373543Y-106345593D01*
X110354796Y-106500000D01*
X90400000Y-106500000D01*
X90400000Y-106438111D01*
X90359493Y-106300156D01*
X90333686Y-106260000D01*
X91230636Y-106260000D01*
X91230635Y-106259999D01*
X91173432Y-106046513D01*
X91173429Y-106046507D01*
X91073600Y-105832422D01*
X91073599Y-105832420D01*
X90938113Y-105638926D01*
X90938108Y-105638920D01*
X90771082Y-105471894D01*
X90577578Y-105336399D01*
X90363492Y-105236570D01*
X90363483Y-105236566D01*
X90308052Y-105221714D01*
X90248391Y-105185349D01*
X90217862Y-105122502D01*
X90226157Y-105053127D01*
X90270642Y-104999249D01*
X90295346Y-104986314D01*
X90388160Y-104950358D01*
X90559989Y-104843966D01*
X90709342Y-104707813D01*
X90831134Y-104546534D01*
X90921217Y-104365622D01*
X90976525Y-104171237D01*
X90995172Y-103970000D01*
X90990339Y-103917844D01*
X125806000Y-103917844D01*
X125812401Y-103977372D01*
X125812403Y-103977379D01*
X125862645Y-104112086D01*
X125862649Y-104112093D01*
X125948809Y-104227187D01*
X125948812Y-104227190D01*
X126063906Y-104313350D01*
X126063913Y-104313354D01*
X126198620Y-104363596D01*
X126198627Y-104363598D01*
X126258155Y-104369999D01*
X126258172Y-104370000D01*
X126906000Y-104370000D01*
X126906000Y-103455501D01*
X127013685Y-103504680D01*
X127120237Y-103520000D01*
X127191763Y-103520000D01*
X127298315Y-103504680D01*
X127406000Y-103455501D01*
X127406000Y-104370000D01*
X128053828Y-104370000D01*
X128053844Y-104369999D01*
X128113372Y-104363598D01*
X128113379Y-104363596D01*
X128248086Y-104313354D01*
X128248093Y-104313350D01*
X128363187Y-104227190D01*
X128363190Y-104227187D01*
X128449350Y-104112093D01*
X128449354Y-104112086D01*
X128499596Y-103977379D01*
X128499598Y-103977372D01*
X128505999Y-103917844D01*
X128506000Y-103917827D01*
X128506000Y-103603876D01*
X128525685Y-103536837D01*
X128578489Y-103491082D01*
X128647647Y-103481138D01*
X128711203Y-103510163D01*
X128741000Y-103548605D01*
X128764866Y-103596534D01*
X128825762Y-103677173D01*
X128886659Y-103757815D01*
X129036010Y-103893965D01*
X129036012Y-103893967D01*
X129207836Y-104000356D01*
X129207842Y-104000359D01*
X129247764Y-104015824D01*
X129396292Y-104073365D01*
X129594950Y-104110500D01*
X129594953Y-104110500D01*
X129797047Y-104110500D01*
X129797050Y-104110500D01*
X129995708Y-104073365D01*
X130184160Y-104000358D01*
X130355989Y-103893966D01*
X130505342Y-103757813D01*
X130627134Y-103596534D01*
X130717217Y-103415622D01*
X130772525Y-103221237D01*
X130791172Y-103020000D01*
X131140828Y-103020000D01*
X131159474Y-103221236D01*
X131214782Y-103415619D01*
X131214787Y-103415632D01*
X131304866Y-103596534D01*
X131426659Y-103757815D01*
X131576010Y-103893965D01*
X131576012Y-103893967D01*
X131747836Y-104000356D01*
X131747842Y-104000359D01*
X131787764Y-104015824D01*
X131936292Y-104073365D01*
X132134950Y-104110500D01*
X132134953Y-104110500D01*
X132337047Y-104110500D01*
X132337050Y-104110500D01*
X132535708Y-104073365D01*
X132724160Y-104000358D01*
X132895989Y-103893966D01*
X133045342Y-103757813D01*
X133167134Y-103596534D01*
X133257217Y-103415622D01*
X133312525Y-103221237D01*
X133331172Y-103020000D01*
X133312525Y-102818763D01*
X133257217Y-102624378D01*
X133242612Y-102595048D01*
X133205243Y-102520000D01*
X133167134Y-102443466D01*
X133045342Y-102282187D01*
X133045340Y-102282184D01*
X132895989Y-102146034D01*
X132895987Y-102146032D01*
X132724163Y-102039643D01*
X132724157Y-102039640D01*
X132575632Y-101982101D01*
X132535708Y-101966635D01*
X132337050Y-101929500D01*
X132134950Y-101929500D01*
X131936292Y-101966635D01*
X131936289Y-101966635D01*
X131936289Y-101966636D01*
X131747842Y-102039640D01*
X131747836Y-102039643D01*
X131576012Y-102146032D01*
X131576010Y-102146034D01*
X131426659Y-102282184D01*
X131304866Y-102443465D01*
X131214787Y-102624367D01*
X131214782Y-102624380D01*
X131159474Y-102818763D01*
X131140828Y-103019999D01*
X131140828Y-103020000D01*
X130791172Y-103020000D01*
X130772525Y-102818763D01*
X130717217Y-102624378D01*
X130702612Y-102595048D01*
X130665243Y-102520000D01*
X130627134Y-102443466D01*
X130505342Y-102282187D01*
X130505340Y-102282184D01*
X130355989Y-102146034D01*
X130355987Y-102146032D01*
X130184163Y-102039643D01*
X130184157Y-102039640D01*
X130035632Y-101982101D01*
X129995708Y-101966635D01*
X129797050Y-101929500D01*
X129594950Y-101929500D01*
X129396292Y-101966635D01*
X129396289Y-101966635D01*
X129396289Y-101966636D01*
X129207842Y-102039640D01*
X129207836Y-102039643D01*
X129036012Y-102146032D01*
X129036010Y-102146034D01*
X128886659Y-102282184D01*
X128764866Y-102443465D01*
X128741000Y-102491395D01*
X128693497Y-102542632D01*
X128625834Y-102560053D01*
X128559494Y-102538127D01*
X128515539Y-102483816D01*
X128506000Y-102436123D01*
X128506000Y-102122172D01*
X128505999Y-102122155D01*
X128499598Y-102062627D01*
X128499596Y-102062620D01*
X128449354Y-101927913D01*
X128449350Y-101927906D01*
X128363190Y-101812812D01*
X128363187Y-101812809D01*
X128248093Y-101726649D01*
X128248086Y-101726645D01*
X128113379Y-101676403D01*
X128113372Y-101676401D01*
X128053844Y-101670000D01*
X127406000Y-101670000D01*
X127406000Y-102584498D01*
X127298315Y-102535320D01*
X127191763Y-102520000D01*
X127120237Y-102520000D01*
X127013685Y-102535320D01*
X126906000Y-102584498D01*
X126906000Y-101670000D01*
X126258155Y-101670000D01*
X126198627Y-101676401D01*
X126198620Y-101676403D01*
X126063913Y-101726645D01*
X126063906Y-101726649D01*
X125948812Y-101812809D01*
X125948809Y-101812812D01*
X125862649Y-101927906D01*
X125862645Y-101927913D01*
X125812403Y-102062620D01*
X125812401Y-102062627D01*
X125806000Y-102122155D01*
X125806000Y-102770000D01*
X126722314Y-102770000D01*
X126696507Y-102810156D01*
X126656000Y-102948111D01*
X126656000Y-103091889D01*
X126696507Y-103229844D01*
X126722314Y-103270000D01*
X125806000Y-103270000D01*
X125806000Y-103917844D01*
X90990339Y-103917844D01*
X90988126Y-103893965D01*
X90976525Y-103768763D01*
X90927520Y-103596532D01*
X90921217Y-103574378D01*
X90831134Y-103393466D01*
X90709342Y-103232187D01*
X90709340Y-103232184D01*
X90559989Y-103096034D01*
X90559987Y-103096032D01*
X90388163Y-102989643D01*
X90388157Y-102989640D01*
X90239632Y-102932101D01*
X90199708Y-102916635D01*
X90001050Y-102879500D01*
X89798950Y-102879500D01*
X89600292Y-102916635D01*
X89600289Y-102916635D01*
X89600289Y-102916636D01*
X89411842Y-102989640D01*
X89411836Y-102989643D01*
X89240012Y-103096032D01*
X89240010Y-103096034D01*
X89090659Y-103232184D01*
X88968866Y-103393465D01*
X88878787Y-103574367D01*
X88878782Y-103574380D01*
X88823474Y-103768763D01*
X88804828Y-103969999D01*
X88804828Y-103970000D01*
X88823474Y-104171236D01*
X88878782Y-104365619D01*
X88878787Y-104365632D01*
X88968866Y-104546534D01*
X89090659Y-104707815D01*
X89240010Y-104843965D01*
X89240012Y-104843967D01*
X89411836Y-104950356D01*
X89411842Y-104950359D01*
X89504648Y-104986312D01*
X89560049Y-105028885D01*
X89583640Y-105094652D01*
X89567929Y-105162732D01*
X89517905Y-105211511D01*
X89491948Y-105221714D01*
X89436513Y-105236567D01*
X89436507Y-105236570D01*
X89222422Y-105336399D01*
X89222420Y-105336400D01*
X89028926Y-105471886D01*
X89028920Y-105471891D01*
X88861891Y-105638920D01*
X88861886Y-105638926D01*
X88726400Y-105832420D01*
X88726399Y-105832422D01*
X88626570Y-106046507D01*
X88626567Y-106046513D01*
X88569364Y-106259999D01*
X88569364Y-106260000D01*
X89466314Y-106260000D01*
X89440507Y-106300156D01*
X89400000Y-106438111D01*
X89400000Y-106581889D01*
X89440507Y-106719844D01*
X89466314Y-106760000D01*
X88569364Y-106760000D01*
X85500500Y-106760000D01*
X85500500Y-101397844D01*
X142150000Y-101397844D01*
X142156401Y-101457372D01*
X142156403Y-101457379D01*
X142206645Y-101592086D01*
X142206649Y-101592093D01*
X142292809Y-101707187D01*
X142292812Y-101707190D01*
X142407906Y-101793350D01*
X142407913Y-101793354D01*
X142542620Y-101843596D01*
X142542627Y-101843598D01*
X142602155Y-101849999D01*
X142602172Y-101850000D01*
X143250000Y-101850000D01*
X143250000Y-100935501D01*
X143357685Y-100984680D01*
X143464237Y-101000000D01*
X143535763Y-101000000D01*
X143642315Y-100984680D01*
X143750000Y-100935501D01*
X143750000Y-101850000D01*
X144397828Y-101850000D01*
X144397844Y-101849999D01*
X144457372Y-101843598D01*
X144457379Y-101843596D01*
X144592086Y-101793354D01*
X144592093Y-101793350D01*
X144707187Y-101707190D01*
X144707190Y-101707187D01*
X144793350Y-101592093D01*
X144793354Y-101592086D01*
X144843596Y-101457379D01*
X144843598Y-101457372D01*
X144849999Y-101397844D01*
X144850000Y-101397827D01*
X144850000Y-101083876D01*
X144869685Y-101016837D01*
X144922489Y-100971082D01*
X144991647Y-100961138D01*
X145055203Y-100990163D01*
X145085000Y-101028605D01*
X145108866Y-101076534D01*
X145169762Y-101157173D01*
X145230659Y-101237815D01*
X145380010Y-101373965D01*
X145380012Y-101373967D01*
X145551836Y-101480356D01*
X145551842Y-101480359D01*
X145591764Y-101495824D01*
X145740292Y-101553365D01*
X145938950Y-101590500D01*
X145938953Y-101590500D01*
X146141047Y-101590500D01*
X146141050Y-101590500D01*
X146339708Y-101553365D01*
X146528160Y-101480358D01*
X146699989Y-101373966D01*
X146849342Y-101237813D01*
X146971134Y-101076534D01*
X147061217Y-100895622D01*
X147116525Y-100701237D01*
X147135172Y-100500000D01*
X147484828Y-100500000D01*
X147503474Y-100701236D01*
X147558782Y-100895619D01*
X147558787Y-100895632D01*
X147648866Y-101076534D01*
X147770659Y-101237815D01*
X147920010Y-101373965D01*
X147920012Y-101373967D01*
X148091836Y-101480356D01*
X148091842Y-101480359D01*
X148131764Y-101495824D01*
X148280292Y-101553365D01*
X148478950Y-101590500D01*
X148478953Y-101590500D01*
X148681047Y-101590500D01*
X148681050Y-101590500D01*
X148879708Y-101553365D01*
X149068160Y-101480358D01*
X149239989Y-101373966D01*
X149389342Y-101237813D01*
X149511134Y-101076534D01*
X149601217Y-100895622D01*
X149656525Y-100701237D01*
X149675172Y-100500000D01*
X149656525Y-100298763D01*
X149601217Y-100104378D01*
X149600668Y-100103276D01*
X149549240Y-99999994D01*
X149511134Y-99923466D01*
X149452327Y-99845593D01*
X149389340Y-99762184D01*
X149239989Y-99626034D01*
X149239987Y-99626032D01*
X149068163Y-99519643D01*
X149068157Y-99519640D01*
X148919632Y-99462101D01*
X148879708Y-99446635D01*
X148681050Y-99409500D01*
X148478950Y-99409500D01*
X148280292Y-99446635D01*
X148280289Y-99446635D01*
X148280289Y-99446636D01*
X148091842Y-99519640D01*
X148091836Y-99519643D01*
X147920012Y-99626032D01*
X147920010Y-99626034D01*
X147770659Y-99762184D01*
X147648866Y-99923465D01*
X147558787Y-100104367D01*
X147558782Y-100104380D01*
X147503474Y-100298763D01*
X147484828Y-100499999D01*
X147484828Y-100500000D01*
X147135172Y-100500000D01*
X147116525Y-100298763D01*
X147061217Y-100104378D01*
X147060668Y-100103276D01*
X147009240Y-99999994D01*
X146971134Y-99923466D01*
X146912327Y-99845593D01*
X146849340Y-99762184D01*
X146699989Y-99626034D01*
X146699987Y-99626032D01*
X146528163Y-99519643D01*
X146528157Y-99519640D01*
X146379632Y-99462101D01*
X146339708Y-99446635D01*
X146141050Y-99409500D01*
X145938950Y-99409500D01*
X145740292Y-99446635D01*
X145740289Y-99446635D01*
X145740289Y-99446636D01*
X145551842Y-99519640D01*
X145551836Y-99519643D01*
X145380012Y-99626032D01*
X145380010Y-99626034D01*
X145230659Y-99762184D01*
X145108866Y-99923465D01*
X145085000Y-99971395D01*
X145037497Y-100022632D01*
X144969834Y-100040053D01*
X144903494Y-100018127D01*
X144859539Y-99963816D01*
X144850000Y-99916123D01*
X144850000Y-99602172D01*
X144849999Y-99602155D01*
X144843598Y-99542627D01*
X144843596Y-99542620D01*
X144793354Y-99407913D01*
X144793350Y-99407906D01*
X144707190Y-99292812D01*
X144707187Y-99292809D01*
X144592093Y-99206649D01*
X144592086Y-99206645D01*
X144457379Y-99156403D01*
X144457372Y-99156401D01*
X144397844Y-99150000D01*
X143750000Y-99150000D01*
X143750000Y-100064498D01*
X143642315Y-100015320D01*
X143535763Y-100000000D01*
X143464237Y-100000000D01*
X143357685Y-100015320D01*
X143250000Y-100064498D01*
X143250000Y-99150000D01*
X142602155Y-99150000D01*
X142542627Y-99156401D01*
X142542620Y-99156403D01*
X142407913Y-99206645D01*
X142407906Y-99206649D01*
X142292812Y-99292809D01*
X142292809Y-99292812D01*
X142206649Y-99407906D01*
X142206645Y-99407913D01*
X142156403Y-99542620D01*
X142156401Y-99542627D01*
X142150000Y-99602155D01*
X142150000Y-100250000D01*
X143066314Y-100250000D01*
X143040507Y-100290156D01*
X143000000Y-100428111D01*
X143000000Y-100571889D01*
X143040507Y-100709844D01*
X143066314Y-100750000D01*
X142150000Y-100750000D01*
X142150000Y-101397844D01*
X85500500Y-101397844D01*
X85500500Y-98000002D01*
X87195153Y-98000002D01*
X87214526Y-98357314D01*
X87214527Y-98357331D01*
X87272415Y-98710431D01*
X87272421Y-98710457D01*
X87368147Y-99055232D01*
X87368149Y-99055239D01*
X87500597Y-99387659D01*
X87500606Y-99387677D01*
X87668218Y-99703827D01*
X87869033Y-100000007D01*
X87996441Y-100150003D01*
X87996442Y-100150004D01*
X89202266Y-98944180D01*
X89365130Y-99134870D01*
X89555818Y-99297732D01*
X88347255Y-100506295D01*
X88347256Y-100506296D01*
X88360485Y-100518828D01*
X88360486Y-100518829D01*
X88645367Y-100735388D01*
X88645370Y-100735390D01*
X88951990Y-100919876D01*
X89276739Y-101070122D01*
X89276744Y-101070123D01*
X89615855Y-101184383D01*
X89965339Y-101261311D01*
X90321075Y-101299999D01*
X90321085Y-101300000D01*
X90678915Y-101300000D01*
X90678924Y-101299999D01*
X91034660Y-101261311D01*
X91384144Y-101184383D01*
X91723255Y-101070123D01*
X91723260Y-101070122D01*
X92048009Y-100919876D01*
X92354629Y-100735390D01*
X92354632Y-100735388D01*
X92639504Y-100518836D01*
X92652742Y-100506294D01*
X91444180Y-99297733D01*
X91634870Y-99134870D01*
X91797733Y-98944180D01*
X93003556Y-100150003D01*
X93130964Y-100000008D01*
X93130975Y-99999994D01*
X93331781Y-99703827D01*
X93439843Y-99500000D01*
X111354796Y-99500000D01*
X111373543Y-99654406D01*
X111413252Y-99759109D01*
X111428700Y-99799841D01*
X111517058Y-99927849D01*
X111517060Y-99927851D01*
X111517062Y-99927853D01*
X111633480Y-100030991D01*
X111633482Y-100030992D01*
X111771208Y-100103276D01*
X111922229Y-100140500D01*
X111922230Y-100140500D01*
X112077770Y-100140500D01*
X112077771Y-100140500D01*
X112228792Y-100103276D01*
X112366518Y-100030992D01*
X112401501Y-100000000D01*
X121354796Y-100000000D01*
X121373543Y-100154406D01*
X121409798Y-100250000D01*
X121428700Y-100299841D01*
X121517058Y-100427849D01*
X121517060Y-100427851D01*
X121517062Y-100427853D01*
X121633480Y-100530991D01*
X121633482Y-100530992D01*
X121771208Y-100603276D01*
X121922229Y-100640500D01*
X121922230Y-100640500D01*
X122077770Y-100640500D01*
X122077771Y-100640500D01*
X122228792Y-100603276D01*
X122366518Y-100530992D01*
X122482942Y-100427849D01*
X122571300Y-100299841D01*
X122626456Y-100154407D01*
X122645204Y-100000000D01*
X122626456Y-99845593D01*
X122571300Y-99700159D01*
X122482942Y-99572151D01*
X122482939Y-99572148D01*
X122482937Y-99572146D01*
X122366519Y-99469008D01*
X122228790Y-99396723D01*
X122127169Y-99371675D01*
X122077771Y-99359500D01*
X121922229Y-99359500D01*
X121885006Y-99368674D01*
X121771209Y-99396723D01*
X121633480Y-99469008D01*
X121517062Y-99572146D01*
X121517056Y-99572153D01*
X121428701Y-99700156D01*
X121373543Y-99845593D01*
X121354796Y-100000000D01*
X112401501Y-100000000D01*
X112482942Y-99927849D01*
X112571300Y-99799841D01*
X112626456Y-99654407D01*
X112645204Y-99500000D01*
X112626456Y-99345593D01*
X112571300Y-99200159D01*
X112482942Y-99072151D01*
X112482939Y-99072148D01*
X112482937Y-99072146D01*
X112366519Y-98969008D01*
X112228790Y-98896723D01*
X112127169Y-98871675D01*
X112077771Y-98859500D01*
X111922229Y-98859500D01*
X111885006Y-98868674D01*
X111771209Y-98896723D01*
X111633480Y-98969008D01*
X111517062Y-99072146D01*
X111517056Y-99072153D01*
X111428701Y-99200156D01*
X111373543Y-99345593D01*
X111354796Y-99500000D01*
X93439843Y-99500000D01*
X93499393Y-99387677D01*
X93499402Y-99387659D01*
X93631850Y-99055239D01*
X93631852Y-99055232D01*
X93727578Y-98710457D01*
X93727584Y-98710431D01*
X93761945Y-98500841D01*
X118884532Y-98500841D01*
X118903279Y-98655247D01*
X118942988Y-98759950D01*
X118958436Y-98800682D01*
X119046794Y-98928690D01*
X119046796Y-98928692D01*
X119046798Y-98928694D01*
X119163216Y-99031832D01*
X119163218Y-99031833D01*
X119300944Y-99104117D01*
X119451965Y-99141341D01*
X119451966Y-99141341D01*
X119607506Y-99141341D01*
X119607507Y-99141341D01*
X119758528Y-99104117D01*
X119896254Y-99031833D01*
X120012678Y-98928690D01*
X120101036Y-98800682D01*
X120149086Y-98673984D01*
X120191263Y-98618283D01*
X120256860Y-98594226D01*
X120325051Y-98609453D01*
X120374184Y-98659129D01*
X120380969Y-98673985D01*
X120428701Y-98799843D01*
X120429281Y-98800683D01*
X120517058Y-98927849D01*
X120517060Y-98927851D01*
X120517062Y-98927853D01*
X120633480Y-99030991D01*
X120633482Y-99030992D01*
X120771208Y-99103276D01*
X120922229Y-99140500D01*
X120922230Y-99140500D01*
X121077770Y-99140500D01*
X121077771Y-99140500D01*
X121228792Y-99103276D01*
X121366518Y-99030992D01*
X121482942Y-98927849D01*
X121571300Y-98799841D01*
X121626456Y-98654407D01*
X121645204Y-98500000D01*
X121626456Y-98345593D01*
X121571300Y-98200159D01*
X121482942Y-98072151D01*
X121482939Y-98072148D01*
X121482937Y-98072146D01*
X121366519Y-97969008D01*
X121228790Y-97896723D01*
X121127169Y-97871675D01*
X121077771Y-97859500D01*
X120922229Y-97859500D01*
X120885006Y-97868674D01*
X120771209Y-97896723D01*
X120633480Y-97969008D01*
X120517062Y-98072146D01*
X120517056Y-98072153D01*
X120428701Y-98200156D01*
X120380650Y-98326855D01*
X120338471Y-98382557D01*
X120272874Y-98406614D01*
X120204683Y-98391387D01*
X120155551Y-98341710D01*
X120148767Y-98326857D01*
X120101036Y-98201000D01*
X120100455Y-98200159D01*
X120056857Y-98136996D01*
X120012678Y-98072992D01*
X120012675Y-98072989D01*
X120012673Y-98072987D01*
X119896255Y-97969849D01*
X119758526Y-97897564D01*
X119656905Y-97872516D01*
X119607507Y-97860341D01*
X119451965Y-97860341D01*
X119414742Y-97869515D01*
X119300945Y-97897564D01*
X119163216Y-97969849D01*
X119046798Y-98072987D01*
X119046792Y-98072994D01*
X118958437Y-98200997D01*
X118903279Y-98346434D01*
X118884532Y-98500841D01*
X93761945Y-98500841D01*
X93785472Y-98357331D01*
X93785473Y-98357314D01*
X93804847Y-98000002D01*
X93804847Y-97999997D01*
X93787225Y-97675000D01*
X124299653Y-97675000D01*
X124318400Y-97829406D01*
X124344250Y-97897565D01*
X124373557Y-97974841D01*
X124461915Y-98102849D01*
X124461917Y-98102851D01*
X124461919Y-98102853D01*
X124578337Y-98205991D01*
X124578339Y-98205992D01*
X124716065Y-98278276D01*
X124867086Y-98315500D01*
X124867087Y-98315500D01*
X125022627Y-98315500D01*
X125022628Y-98315500D01*
X125173649Y-98278276D01*
X125311375Y-98205992D01*
X125427799Y-98102849D01*
X125498790Y-98000002D01*
X153195153Y-98000002D01*
X153214526Y-98357314D01*
X153214527Y-98357331D01*
X153272415Y-98710431D01*
X153272421Y-98710457D01*
X153368147Y-99055232D01*
X153368149Y-99055239D01*
X153500597Y-99387659D01*
X153500606Y-99387677D01*
X153668218Y-99703827D01*
X153869033Y-100000007D01*
X153996441Y-100150003D01*
X153996442Y-100150004D01*
X155202266Y-98944180D01*
X155365130Y-99134870D01*
X155555818Y-99297732D01*
X154347255Y-100506295D01*
X154347256Y-100506296D01*
X154360485Y-100518828D01*
X154360486Y-100518829D01*
X154645367Y-100735388D01*
X154645370Y-100735390D01*
X154951990Y-100919876D01*
X155276739Y-101070122D01*
X155276744Y-101070123D01*
X155615855Y-101184383D01*
X155965339Y-101261311D01*
X156321075Y-101299999D01*
X156321085Y-101300000D01*
X156678915Y-101300000D01*
X156678924Y-101299999D01*
X157034660Y-101261311D01*
X157384144Y-101184383D01*
X157723255Y-101070123D01*
X157723260Y-101070122D01*
X158048009Y-100919876D01*
X158354629Y-100735390D01*
X158354632Y-100735388D01*
X158639504Y-100518836D01*
X158652742Y-100506294D01*
X157444180Y-99297733D01*
X157634870Y-99134870D01*
X157797733Y-98944180D01*
X159003556Y-100150003D01*
X159130964Y-100000008D01*
X159130975Y-99999994D01*
X159331781Y-99703827D01*
X159499393Y-99387677D01*
X159499402Y-99387659D01*
X159631850Y-99055239D01*
X159631852Y-99055232D01*
X159727578Y-98710457D01*
X159727584Y-98710431D01*
X159785472Y-98357331D01*
X159785473Y-98357314D01*
X159804847Y-98000002D01*
X159804847Y-97999997D01*
X159785473Y-97642685D01*
X159785472Y-97642668D01*
X159727584Y-97289568D01*
X159727578Y-97289542D01*
X159631852Y-96944767D01*
X159631850Y-96944760D01*
X159499402Y-96612340D01*
X159499393Y-96612322D01*
X159331781Y-96296172D01*
X159130966Y-95999992D01*
X159003557Y-95849995D01*
X159003556Y-95849994D01*
X157797732Y-97055818D01*
X157634870Y-96865130D01*
X157444180Y-96702266D01*
X158652743Y-95493703D01*
X158652742Y-95493702D01*
X158639514Y-95481171D01*
X158639513Y-95481170D01*
X158354632Y-95264611D01*
X158354629Y-95264609D01*
X158048009Y-95080123D01*
X157723260Y-94929877D01*
X157723255Y-94929876D01*
X157384144Y-94815616D01*
X157034660Y-94738688D01*
X156678924Y-94700000D01*
X156321075Y-94700000D01*
X155965339Y-94738688D01*
X155615855Y-94815616D01*
X155276744Y-94929876D01*
X155276739Y-94929877D01*
X154951990Y-95080123D01*
X154645370Y-95264609D01*
X154645367Y-95264611D01*
X154360491Y-95481166D01*
X154347256Y-95493703D01*
X154347255Y-95493703D01*
X155555819Y-96702266D01*
X155365130Y-96865130D01*
X155202266Y-97055818D01*
X153996442Y-95849994D01*
X153996441Y-95849995D01*
X153869040Y-95999983D01*
X153869033Y-95999993D01*
X153668218Y-96296172D01*
X153500606Y-96612322D01*
X153500597Y-96612340D01*
X153368149Y-96944760D01*
X153368147Y-96944767D01*
X153272421Y-97289542D01*
X153272415Y-97289568D01*
X153214527Y-97642668D01*
X153214526Y-97642685D01*
X153195153Y-97999997D01*
X153195153Y-98000002D01*
X125498790Y-98000002D01*
X125516157Y-97974841D01*
X125571313Y-97829407D01*
X125590061Y-97675000D01*
X125571313Y-97520593D01*
X125516157Y-97375159D01*
X125427799Y-97247151D01*
X125427796Y-97247148D01*
X125427794Y-97247146D01*
X125311376Y-97144008D01*
X125173647Y-97071723D01*
X125072026Y-97046675D01*
X125022628Y-97034500D01*
X124867086Y-97034500D01*
X124829863Y-97043674D01*
X124716066Y-97071723D01*
X124578337Y-97144008D01*
X124461919Y-97247146D01*
X124461913Y-97247153D01*
X124373558Y-97375156D01*
X124318400Y-97520593D01*
X124299653Y-97675000D01*
X93787225Y-97675000D01*
X93785473Y-97642685D01*
X93785472Y-97642668D01*
X93727584Y-97289568D01*
X93727578Y-97289542D01*
X93631852Y-96944767D01*
X93631850Y-96944760D01*
X93522376Y-96670000D01*
X114699796Y-96670000D01*
X114718543Y-96824406D01*
X114727692Y-96848529D01*
X114773700Y-96969841D01*
X114862058Y-97097849D01*
X114862060Y-97097851D01*
X114862062Y-97097853D01*
X114978480Y-97200991D01*
X114978482Y-97200992D01*
X115116208Y-97273276D01*
X115267229Y-97310500D01*
X115267230Y-97310500D01*
X115422770Y-97310500D01*
X115422771Y-97310500D01*
X115573792Y-97273276D01*
X115711518Y-97200992D01*
X115827942Y-97097849D01*
X115893011Y-97003579D01*
X115947291Y-96959592D01*
X116016740Y-96951932D01*
X116077286Y-96981207D01*
X116133480Y-97030991D01*
X116133482Y-97030992D01*
X116271208Y-97103276D01*
X116422229Y-97140500D01*
X116422230Y-97140500D01*
X116577770Y-97140500D01*
X116577771Y-97140500D01*
X116728792Y-97103276D01*
X116866518Y-97030992D01*
X116982942Y-96927849D01*
X117071300Y-96799841D01*
X117126456Y-96654407D01*
X117145204Y-96500000D01*
X120854796Y-96500000D01*
X120873543Y-96654406D01*
X120928701Y-96799843D01*
X120962307Y-96848529D01*
X121017058Y-96927849D01*
X121017060Y-96927851D01*
X121017062Y-96927853D01*
X121133480Y-97030991D01*
X121133482Y-97030992D01*
X121271208Y-97103276D01*
X121422229Y-97140500D01*
X121422230Y-97140500D01*
X121577770Y-97140500D01*
X121577771Y-97140500D01*
X121728792Y-97103276D01*
X121866518Y-97030992D01*
X121982942Y-96927849D01*
X122071300Y-96799841D01*
X122126456Y-96654407D01*
X122145204Y-96500000D01*
X122126456Y-96345593D01*
X122071300Y-96200159D01*
X121982942Y-96072151D01*
X121982939Y-96072148D01*
X121982937Y-96072146D01*
X121866519Y-95969008D01*
X121728790Y-95896723D01*
X121627169Y-95871675D01*
X121577771Y-95859500D01*
X121422229Y-95859500D01*
X121385006Y-95868674D01*
X121271209Y-95896723D01*
X121133480Y-95969008D01*
X121017062Y-96072146D01*
X121017056Y-96072153D01*
X120928701Y-96200156D01*
X120873543Y-96345593D01*
X120854796Y-96500000D01*
X117145204Y-96500000D01*
X117126456Y-96345593D01*
X117071300Y-96200159D01*
X116982942Y-96072151D01*
X116982939Y-96072148D01*
X116982937Y-96072146D01*
X116866519Y-95969008D01*
X116728790Y-95896723D01*
X116627169Y-95871675D01*
X116577771Y-95859500D01*
X116422229Y-95859500D01*
X116385006Y-95868674D01*
X116271209Y-95896723D01*
X116133480Y-95969008D01*
X116017062Y-96072146D01*
X116017059Y-96072149D01*
X115951990Y-96166418D01*
X115897706Y-96210408D01*
X115828258Y-96218067D01*
X115767713Y-96188792D01*
X115711519Y-96139008D01*
X115573790Y-96066723D01*
X115472169Y-96041675D01*
X115422771Y-96029500D01*
X115267229Y-96029500D01*
X115230006Y-96038674D01*
X115116209Y-96066723D01*
X114978480Y-96139008D01*
X114862062Y-96242146D01*
X114862056Y-96242153D01*
X114773701Y-96370156D01*
X114718543Y-96515593D01*
X114699796Y-96670000D01*
X93522376Y-96670000D01*
X93499402Y-96612340D01*
X93499393Y-96612322D01*
X93331781Y-96296172D01*
X93130966Y-95999992D01*
X93003557Y-95849995D01*
X93003556Y-95849994D01*
X91797732Y-97055818D01*
X91634870Y-96865130D01*
X91444180Y-96702266D01*
X92652743Y-95493703D01*
X92652742Y-95493702D01*
X92639514Y-95481171D01*
X92639513Y-95481170D01*
X92354632Y-95264611D01*
X92354629Y-95264609D01*
X92048009Y-95080123D01*
X91723260Y-94929877D01*
X91723255Y-94929876D01*
X91384144Y-94815616D01*
X91034660Y-94738688D01*
X90678924Y-94700000D01*
X90321075Y-94700000D01*
X89965339Y-94738688D01*
X89615855Y-94815616D01*
X89276744Y-94929876D01*
X89276739Y-94929877D01*
X88951990Y-95080123D01*
X88645370Y-95264609D01*
X88645367Y-95264611D01*
X88360491Y-95481166D01*
X88347256Y-95493703D01*
X88347255Y-95493703D01*
X89555819Y-96702266D01*
X89365130Y-96865130D01*
X89202266Y-97055818D01*
X87996442Y-95849994D01*
X87996441Y-95849995D01*
X87869040Y-95999983D01*
X87869033Y-95999993D01*
X87668218Y-96296172D01*
X87500606Y-96612322D01*
X87500597Y-96612340D01*
X87368149Y-96944760D01*
X87368147Y-96944767D01*
X87272421Y-97289542D01*
X87272415Y-97289568D01*
X87214527Y-97642668D01*
X87214526Y-97642685D01*
X87195153Y-97999997D01*
X87195153Y-98000002D01*
X85500500Y-98000002D01*
X85500500Y-94500000D01*
X121854796Y-94500000D01*
X121873543Y-94654406D01*
X121928701Y-94799843D01*
X121968817Y-94857960D01*
X122017058Y-94927849D01*
X122017060Y-94927851D01*
X122017062Y-94927853D01*
X122133480Y-95030991D01*
X122133482Y-95030992D01*
X122271208Y-95103276D01*
X122422229Y-95140500D01*
X122422230Y-95140500D01*
X122577770Y-95140500D01*
X122577771Y-95140500D01*
X122728792Y-95103276D01*
X122866518Y-95030992D01*
X122965044Y-94943704D01*
X123028275Y-94913984D01*
X123097539Y-94923167D01*
X123150842Y-94968339D01*
X123171263Y-95035158D01*
X123163212Y-95080491D01*
X123149163Y-95117534D01*
X123149163Y-95117536D01*
X123130415Y-95271945D01*
X123149162Y-95426351D01*
X123174706Y-95493703D01*
X123204319Y-95571786D01*
X123292677Y-95699794D01*
X123292679Y-95699796D01*
X123292681Y-95699798D01*
X123409099Y-95802936D01*
X123409101Y-95802937D01*
X123546827Y-95875221D01*
X123697848Y-95912445D01*
X123697849Y-95912445D01*
X123853389Y-95912445D01*
X123853390Y-95912445D01*
X124004411Y-95875221D01*
X124142137Y-95802937D01*
X124258561Y-95699794D01*
X124346919Y-95571786D01*
X124402075Y-95426352D01*
X124420823Y-95271945D01*
X124402075Y-95117538D01*
X124346919Y-94972104D01*
X124258561Y-94844096D01*
X124258558Y-94844093D01*
X124258556Y-94844091D01*
X124142138Y-94740953D01*
X124004409Y-94668668D01*
X123902788Y-94643620D01*
X123853390Y-94631445D01*
X123697848Y-94631445D01*
X123660625Y-94640619D01*
X123546828Y-94668668D01*
X123409102Y-94740952D01*
X123310575Y-94828239D01*
X123247342Y-94857960D01*
X123178078Y-94848776D01*
X123124775Y-94803604D01*
X123104355Y-94736784D01*
X123112407Y-94691450D01*
X123121047Y-94668669D01*
X123126456Y-94654407D01*
X123145204Y-94500000D01*
X123126456Y-94345593D01*
X123071300Y-94200159D01*
X122982942Y-94072151D01*
X122982939Y-94072148D01*
X122982937Y-94072146D01*
X122866519Y-93969008D01*
X122728790Y-93896723D01*
X122627169Y-93871675D01*
X122577771Y-93859500D01*
X122422229Y-93859500D01*
X122385006Y-93868674D01*
X122271209Y-93896723D01*
X122133480Y-93969008D01*
X122017062Y-94072146D01*
X122017056Y-94072153D01*
X121928701Y-94200156D01*
X121873543Y-94345593D01*
X121854796Y-94500000D01*
X85500500Y-94500000D01*
X85500500Y-93757844D01*
X129610000Y-93757844D01*
X129616401Y-93817372D01*
X129616403Y-93817379D01*
X129666645Y-93952086D01*
X129666649Y-93952093D01*
X129752809Y-94067187D01*
X129752812Y-94067190D01*
X129867906Y-94153350D01*
X129867913Y-94153354D01*
X130002620Y-94203596D01*
X130002627Y-94203598D01*
X130062155Y-94209999D01*
X130062172Y-94210000D01*
X130710000Y-94210000D01*
X130710000Y-93295501D01*
X130817685Y-93344680D01*
X130924237Y-93360000D01*
X130995763Y-93360000D01*
X131102315Y-93344680D01*
X131210000Y-93295501D01*
X131210000Y-94210000D01*
X131857828Y-94210000D01*
X131857844Y-94209999D01*
X131917372Y-94203598D01*
X131917379Y-94203596D01*
X132052086Y-94153354D01*
X132052093Y-94153350D01*
X132167187Y-94067190D01*
X132167190Y-94067187D01*
X132253350Y-93952093D01*
X132253354Y-93952086D01*
X132303596Y-93817379D01*
X132303598Y-93817372D01*
X132309999Y-93757844D01*
X132310000Y-93757827D01*
X132310000Y-93443876D01*
X132329685Y-93376837D01*
X132382489Y-93331082D01*
X132451647Y-93321138D01*
X132515203Y-93350163D01*
X132545000Y-93388605D01*
X132568866Y-93436534D01*
X132629762Y-93517173D01*
X132690659Y-93597815D01*
X132840010Y-93733965D01*
X132840012Y-93733967D01*
X133011836Y-93840356D01*
X133011842Y-93840359D01*
X133051764Y-93855824D01*
X133200292Y-93913365D01*
X133398950Y-93950500D01*
X133398953Y-93950500D01*
X133601047Y-93950500D01*
X133601050Y-93950500D01*
X133799708Y-93913365D01*
X133988160Y-93840358D01*
X134159989Y-93733966D01*
X134309342Y-93597813D01*
X134431134Y-93436534D01*
X134521217Y-93255622D01*
X134576525Y-93061237D01*
X134595172Y-92860000D01*
X134944828Y-92860000D01*
X134963474Y-93061236D01*
X135018782Y-93255619D01*
X135018787Y-93255632D01*
X135108866Y-93436534D01*
X135230659Y-93597815D01*
X135380010Y-93733965D01*
X135380012Y-93733967D01*
X135551836Y-93840356D01*
X135551842Y-93840359D01*
X135591764Y-93855824D01*
X135740292Y-93913365D01*
X135938950Y-93950500D01*
X135938953Y-93950500D01*
X136141047Y-93950500D01*
X136141050Y-93950500D01*
X136339708Y-93913365D01*
X136528160Y-93840358D01*
X136699989Y-93733966D01*
X136849342Y-93597813D01*
X136971134Y-93436534D01*
X137061217Y-93255622D01*
X137116525Y-93061237D01*
X137135172Y-92860000D01*
X137484828Y-92860000D01*
X137503474Y-93061236D01*
X137558782Y-93255619D01*
X137558787Y-93255632D01*
X137648866Y-93436534D01*
X137770659Y-93597815D01*
X137920010Y-93733965D01*
X137920012Y-93733967D01*
X138091836Y-93840356D01*
X138091842Y-93840359D01*
X138131764Y-93855824D01*
X138280292Y-93913365D01*
X138478950Y-93950500D01*
X138478953Y-93950500D01*
X138681047Y-93950500D01*
X138681050Y-93950500D01*
X138879708Y-93913365D01*
X139068160Y-93840358D01*
X139239989Y-93733966D01*
X139389342Y-93597813D01*
X139511134Y-93436534D01*
X139601217Y-93255622D01*
X139656525Y-93061237D01*
X139675172Y-92860000D01*
X140024828Y-92860000D01*
X140043474Y-93061236D01*
X140098782Y-93255619D01*
X140098787Y-93255632D01*
X140188866Y-93436534D01*
X140310659Y-93597815D01*
X140460010Y-93733965D01*
X140460012Y-93733967D01*
X140631836Y-93840356D01*
X140631842Y-93840359D01*
X140671764Y-93855824D01*
X140820292Y-93913365D01*
X141018950Y-93950500D01*
X141018953Y-93950500D01*
X141221047Y-93950500D01*
X141221050Y-93950500D01*
X141419708Y-93913365D01*
X141608160Y-93840358D01*
X141779989Y-93733966D01*
X141929342Y-93597813D01*
X142051134Y-93436534D01*
X142141217Y-93255622D01*
X142196525Y-93061237D01*
X142215172Y-92860000D01*
X142564828Y-92860000D01*
X142583474Y-93061236D01*
X142638782Y-93255619D01*
X142638787Y-93255632D01*
X142728866Y-93436534D01*
X142850659Y-93597815D01*
X143000010Y-93733965D01*
X143000012Y-93733967D01*
X143171836Y-93840356D01*
X143171842Y-93840359D01*
X143211764Y-93855824D01*
X143360292Y-93913365D01*
X143558950Y-93950500D01*
X143558953Y-93950500D01*
X143761047Y-93950500D01*
X143761050Y-93950500D01*
X143959708Y-93913365D01*
X144148160Y-93840358D01*
X144319989Y-93733966D01*
X144469342Y-93597813D01*
X144591134Y-93436534D01*
X144681217Y-93255622D01*
X144736525Y-93061237D01*
X144755172Y-92860000D01*
X144736525Y-92658763D01*
X144681217Y-92464378D01*
X144666612Y-92435048D01*
X144629243Y-92360000D01*
X144591134Y-92283466D01*
X144469342Y-92122187D01*
X144469340Y-92122184D01*
X144319989Y-91986034D01*
X144319987Y-91986032D01*
X144148163Y-91879643D01*
X144148157Y-91879640D01*
X143999632Y-91822101D01*
X143959708Y-91806635D01*
X143761050Y-91769500D01*
X143558950Y-91769500D01*
X143360292Y-91806635D01*
X143360289Y-91806635D01*
X143360289Y-91806636D01*
X143171842Y-91879640D01*
X143171836Y-91879643D01*
X143000012Y-91986032D01*
X143000010Y-91986034D01*
X142850659Y-92122184D01*
X142728866Y-92283465D01*
X142638787Y-92464367D01*
X142638782Y-92464380D01*
X142583474Y-92658763D01*
X142564828Y-92859999D01*
X142564828Y-92860000D01*
X142215172Y-92860000D01*
X142196525Y-92658763D01*
X142141217Y-92464378D01*
X142126612Y-92435048D01*
X142089243Y-92360000D01*
X142051134Y-92283466D01*
X141929342Y-92122187D01*
X141929340Y-92122184D01*
X141779989Y-91986034D01*
X141779987Y-91986032D01*
X141608163Y-91879643D01*
X141608157Y-91879640D01*
X141459632Y-91822101D01*
X141419708Y-91806635D01*
X141221050Y-91769500D01*
X141018950Y-91769500D01*
X140820292Y-91806635D01*
X140820289Y-91806635D01*
X140820289Y-91806636D01*
X140631842Y-91879640D01*
X140631836Y-91879643D01*
X140460012Y-91986032D01*
X140460010Y-91986034D01*
X140310659Y-92122184D01*
X140188866Y-92283465D01*
X140098787Y-92464367D01*
X140098782Y-92464380D01*
X140043474Y-92658763D01*
X140024828Y-92859999D01*
X140024828Y-92860000D01*
X139675172Y-92860000D01*
X139656525Y-92658763D01*
X139601217Y-92464378D01*
X139586612Y-92435048D01*
X139549243Y-92360000D01*
X139511134Y-92283466D01*
X139389342Y-92122187D01*
X139389340Y-92122184D01*
X139239989Y-91986034D01*
X139239987Y-91986032D01*
X139068163Y-91879643D01*
X139068157Y-91879640D01*
X138919632Y-91822101D01*
X138879708Y-91806635D01*
X138681050Y-91769500D01*
X138478950Y-91769500D01*
X138280292Y-91806635D01*
X138280289Y-91806635D01*
X138280289Y-91806636D01*
X138091842Y-91879640D01*
X138091836Y-91879643D01*
X137920012Y-91986032D01*
X137920010Y-91986034D01*
X137770659Y-92122184D01*
X137648866Y-92283465D01*
X137558787Y-92464367D01*
X137558782Y-92464380D01*
X137503474Y-92658763D01*
X137484828Y-92859999D01*
X137484828Y-92860000D01*
X137135172Y-92860000D01*
X137116525Y-92658763D01*
X137061217Y-92464378D01*
X137046612Y-92435048D01*
X137009243Y-92360000D01*
X136971134Y-92283466D01*
X136849342Y-92122187D01*
X136849340Y-92122184D01*
X136699989Y-91986034D01*
X136699987Y-91986032D01*
X136528163Y-91879643D01*
X136528157Y-91879640D01*
X136379632Y-91822101D01*
X136339708Y-91806635D01*
X136141050Y-91769500D01*
X135938950Y-91769500D01*
X135740292Y-91806635D01*
X135740289Y-91806635D01*
X135740289Y-91806636D01*
X135551842Y-91879640D01*
X135551836Y-91879643D01*
X135380012Y-91986032D01*
X135380010Y-91986034D01*
X135230659Y-92122184D01*
X135108866Y-92283465D01*
X135018787Y-92464367D01*
X135018782Y-92464380D01*
X134963474Y-92658763D01*
X134944828Y-92859999D01*
X134944828Y-92860000D01*
X134595172Y-92860000D01*
X134576525Y-92658763D01*
X134521217Y-92464378D01*
X134506612Y-92435048D01*
X134469243Y-92360000D01*
X134431134Y-92283466D01*
X134309342Y-92122187D01*
X134309340Y-92122184D01*
X134159989Y-91986034D01*
X134159987Y-91986032D01*
X133988163Y-91879643D01*
X133988157Y-91879640D01*
X133839632Y-91822101D01*
X133799708Y-91806635D01*
X133601050Y-91769500D01*
X133398950Y-91769500D01*
X133200292Y-91806635D01*
X133200289Y-91806635D01*
X133200289Y-91806636D01*
X133011842Y-91879640D01*
X133011836Y-91879643D01*
X132840012Y-91986032D01*
X132840010Y-91986034D01*
X132690659Y-92122184D01*
X132568866Y-92283465D01*
X132545000Y-92331395D01*
X132497497Y-92382632D01*
X132429834Y-92400053D01*
X132363494Y-92378127D01*
X132319539Y-92323816D01*
X132310000Y-92276123D01*
X132310000Y-91962172D01*
X132309999Y-91962155D01*
X132303598Y-91902627D01*
X132303596Y-91902620D01*
X132253354Y-91767913D01*
X132253350Y-91767906D01*
X132167190Y-91652812D01*
X132167187Y-91652809D01*
X132052093Y-91566649D01*
X132052086Y-91566645D01*
X131917379Y-91516403D01*
X131917372Y-91516401D01*
X131857844Y-91510000D01*
X131210000Y-91510000D01*
X131210000Y-92424498D01*
X131102315Y-92375320D01*
X130995763Y-92360000D01*
X130924237Y-92360000D01*
X130817685Y-92375320D01*
X130710000Y-92424498D01*
X130710000Y-91510000D01*
X130062155Y-91510000D01*
X130002627Y-91516401D01*
X130002620Y-91516403D01*
X129867913Y-91566645D01*
X129867906Y-91566649D01*
X129752812Y-91652809D01*
X129752809Y-91652812D01*
X129666649Y-91767906D01*
X129666645Y-91767913D01*
X129616403Y-91902620D01*
X129616401Y-91902627D01*
X129610000Y-91962155D01*
X129610000Y-92610000D01*
X130526314Y-92610000D01*
X130500507Y-92650156D01*
X130460000Y-92788111D01*
X130460000Y-92931889D01*
X130500507Y-93069844D01*
X130526314Y-93110000D01*
X129610000Y-93110000D01*
X129610000Y-93757844D01*
X85500500Y-93757844D01*
X85500500Y-90000000D01*
X114854796Y-90000000D01*
X114873543Y-90154406D01*
X114913252Y-90259109D01*
X114928700Y-90299841D01*
X115017058Y-90427849D01*
X115017060Y-90427851D01*
X115017062Y-90427853D01*
X115133480Y-90530991D01*
X115133482Y-90530992D01*
X115271208Y-90603276D01*
X115422229Y-90640500D01*
X115422230Y-90640500D01*
X115577770Y-90640500D01*
X115577771Y-90640500D01*
X115728792Y-90603276D01*
X115866518Y-90530992D01*
X115982942Y-90427849D01*
X116071300Y-90299841D01*
X116126456Y-90154407D01*
X116145204Y-90000000D01*
X116126456Y-89845593D01*
X116071300Y-89700159D01*
X115982942Y-89572151D01*
X115982939Y-89572148D01*
X115982937Y-89572146D01*
X115866519Y-89469008D01*
X115728790Y-89396723D01*
X115627169Y-89371675D01*
X115577771Y-89359500D01*
X115422229Y-89359500D01*
X115385006Y-89368674D01*
X115271209Y-89396723D01*
X115133480Y-89469008D01*
X115017062Y-89572146D01*
X115017056Y-89572153D01*
X114928701Y-89700156D01*
X114873543Y-89845593D01*
X114854796Y-90000000D01*
X85500500Y-90000000D01*
X85500500Y-88000000D01*
X130354796Y-88000000D01*
X130373543Y-88154406D01*
X130428701Y-88299843D01*
X130469907Y-88359540D01*
X130517058Y-88427849D01*
X130517060Y-88427851D01*
X130517062Y-88427853D01*
X130633480Y-88530991D01*
X130633482Y-88530992D01*
X130771208Y-88603276D01*
X130922229Y-88640500D01*
X130922230Y-88640500D01*
X131077770Y-88640500D01*
X131077771Y-88640500D01*
X131228792Y-88603276D01*
X131366518Y-88530992D01*
X131482942Y-88427849D01*
X131571300Y-88299841D01*
X131626456Y-88154407D01*
X131645204Y-88000000D01*
X131626456Y-87845593D01*
X131571300Y-87700159D01*
X131482942Y-87572151D01*
X131482939Y-87572148D01*
X131482937Y-87572146D01*
X131366519Y-87469008D01*
X131332085Y-87450936D01*
X136495631Y-87450936D01*
X136526442Y-87652063D01*
X136526445Y-87652075D01*
X136597111Y-87842881D01*
X136597115Y-87842888D01*
X136704745Y-88015567D01*
X136704747Y-88015569D01*
X136704748Y-88015571D01*
X136844941Y-88163053D01*
X136973344Y-88252424D01*
X137011949Y-88279294D01*
X137011950Y-88279294D01*
X137011951Y-88279295D01*
X137198942Y-88359540D01*
X137398259Y-88400500D01*
X137550743Y-88400500D01*
X137702439Y-88385074D01*
X137896579Y-88324162D01*
X137896580Y-88324161D01*
X137896588Y-88324159D01*
X138074502Y-88225409D01*
X138228895Y-88092866D01*
X138353448Y-87931958D01*
X138443060Y-87749271D01*
X138494063Y-87552285D01*
X138504369Y-87349064D01*
X138473556Y-87147929D01*
X138402886Y-86957113D01*
X138295252Y-86784429D01*
X138155059Y-86636947D01*
X138056587Y-86568409D01*
X137988050Y-86520705D01*
X137801056Y-86440459D01*
X137601741Y-86399500D01*
X137449258Y-86399500D01*
X137449257Y-86399500D01*
X137297560Y-86414925D01*
X137103420Y-86475837D01*
X137103405Y-86475844D01*
X136925500Y-86574589D01*
X136925495Y-86574592D01*
X136771106Y-86707132D01*
X136771104Y-86707134D01*
X136646554Y-86868037D01*
X136646553Y-86868040D01*
X136556940Y-87050728D01*
X136505937Y-87247714D01*
X136495631Y-87450936D01*
X131332085Y-87450936D01*
X131300765Y-87434498D01*
X131228792Y-87396724D01*
X131228789Y-87396723D01*
X131121981Y-87370397D01*
X131061600Y-87335240D01*
X131029812Y-87273021D01*
X131036708Y-87203492D01*
X131080100Y-87148730D01*
X131121981Y-87129603D01*
X131228792Y-87103276D01*
X131366518Y-87030992D01*
X131482942Y-86927849D01*
X131571300Y-86799841D01*
X131626456Y-86654407D01*
X131645204Y-86500000D01*
X131626456Y-86345593D01*
X131571300Y-86200159D01*
X131482942Y-86072151D01*
X131482939Y-86072148D01*
X131482937Y-86072146D01*
X131366519Y-85969008D01*
X131228790Y-85896723D01*
X131127169Y-85871675D01*
X131077771Y-85859500D01*
X130922229Y-85859500D01*
X130885006Y-85868674D01*
X130771209Y-85896723D01*
X130633480Y-85969008D01*
X130517062Y-86072146D01*
X130517056Y-86072153D01*
X130428701Y-86200156D01*
X130373543Y-86345593D01*
X130354796Y-86500000D01*
X130373543Y-86654406D01*
X130428701Y-86799843D01*
X130475776Y-86868042D01*
X130517058Y-86927849D01*
X130517060Y-86927851D01*
X130517062Y-86927853D01*
X130633480Y-87030991D01*
X130633482Y-87030992D01*
X130771208Y-87103276D01*
X130878019Y-87129603D01*
X130938399Y-87164760D01*
X130970187Y-87226979D01*
X130963291Y-87296508D01*
X130919899Y-87351270D01*
X130878019Y-87370397D01*
X130771209Y-87396723D01*
X130633480Y-87469008D01*
X130517062Y-87572146D01*
X130517056Y-87572153D01*
X130428701Y-87700156D01*
X130373543Y-87845593D01*
X130354796Y-88000000D01*
X85500500Y-88000000D01*
X85500500Y-85750000D01*
X94104796Y-85750000D01*
X94123543Y-85904406D01*
X94148044Y-85969008D01*
X94171551Y-86030992D01*
X94178701Y-86049843D01*
X94194101Y-86072153D01*
X94267058Y-86177849D01*
X94267060Y-86177851D01*
X94267062Y-86177853D01*
X94383480Y-86280991D01*
X94383482Y-86280992D01*
X94521208Y-86353276D01*
X94672229Y-86390500D01*
X94672230Y-86390500D01*
X94827770Y-86390500D01*
X94827771Y-86390500D01*
X94978792Y-86353276D01*
X95116518Y-86280992D01*
X95232942Y-86177849D01*
X95321300Y-86049841D01*
X95376456Y-85904407D01*
X95395204Y-85750000D01*
X95376456Y-85595593D01*
X95340202Y-85500000D01*
X127354796Y-85500000D01*
X127373543Y-85654406D01*
X127409798Y-85750000D01*
X127428700Y-85799841D01*
X127517058Y-85927849D01*
X127517060Y-85927851D01*
X127517062Y-85927853D01*
X127633480Y-86030991D01*
X127633482Y-86030992D01*
X127771208Y-86103276D01*
X127922229Y-86140500D01*
X127922230Y-86140500D01*
X128077770Y-86140500D01*
X128077771Y-86140500D01*
X128228792Y-86103276D01*
X128366518Y-86030992D01*
X128482942Y-85927849D01*
X128571300Y-85799841D01*
X128626456Y-85654407D01*
X128645204Y-85500000D01*
X128626456Y-85345593D01*
X128571300Y-85200159D01*
X128482942Y-85072151D01*
X128482939Y-85072148D01*
X128482937Y-85072146D01*
X128366519Y-84969008D01*
X128228790Y-84896723D01*
X128127169Y-84871675D01*
X128077771Y-84859500D01*
X127922229Y-84859500D01*
X127885006Y-84868674D01*
X127771209Y-84896723D01*
X127633480Y-84969008D01*
X127517062Y-85072146D01*
X127517056Y-85072153D01*
X127428701Y-85200156D01*
X127373543Y-85345593D01*
X127354796Y-85500000D01*
X95340202Y-85500000D01*
X95321300Y-85450159D01*
X95232942Y-85322151D01*
X95232939Y-85322148D01*
X95232937Y-85322146D01*
X95116519Y-85219008D01*
X94978790Y-85146723D01*
X94877169Y-85121675D01*
X94827771Y-85109500D01*
X94672229Y-85109500D01*
X94635006Y-85118674D01*
X94521209Y-85146723D01*
X94383480Y-85219008D01*
X94267062Y-85322146D01*
X94267056Y-85322153D01*
X94178701Y-85450156D01*
X94123543Y-85595593D01*
X94104796Y-85750000D01*
X85500500Y-85750000D01*
X85500500Y-84500000D01*
X131354796Y-84500000D01*
X131373543Y-84654406D01*
X131413252Y-84759109D01*
X131428700Y-84799841D01*
X131517058Y-84927849D01*
X131517060Y-84927851D01*
X131517062Y-84927853D01*
X131633480Y-85030991D01*
X131633482Y-85030992D01*
X131771208Y-85103276D01*
X131922229Y-85140500D01*
X131922230Y-85140500D01*
X132077770Y-85140500D01*
X132077771Y-85140500D01*
X132228792Y-85103276D01*
X132366518Y-85030992D01*
X132482942Y-84927849D01*
X132571300Y-84799841D01*
X132626456Y-84654407D01*
X132645204Y-84500000D01*
X132626456Y-84345593D01*
X132571300Y-84200159D01*
X132482942Y-84072151D01*
X132482939Y-84072148D01*
X132482937Y-84072146D01*
X132366519Y-83969008D01*
X132228790Y-83896723D01*
X132127169Y-83871675D01*
X132077771Y-83859500D01*
X131922229Y-83859500D01*
X131885006Y-83868674D01*
X131771209Y-83896723D01*
X131633480Y-83969008D01*
X131517062Y-84072146D01*
X131517056Y-84072153D01*
X131428701Y-84200156D01*
X131373543Y-84345593D01*
X131354796Y-84500000D01*
X85500500Y-84500000D01*
X85500500Y-83000000D01*
X123354796Y-83000000D01*
X123373543Y-83154406D01*
X123413252Y-83259109D01*
X123428700Y-83299841D01*
X123517058Y-83427849D01*
X123517060Y-83427851D01*
X123517062Y-83427853D01*
X123633480Y-83530991D01*
X123633482Y-83530992D01*
X123771208Y-83603276D01*
X123922229Y-83640500D01*
X123922230Y-83640500D01*
X124077770Y-83640500D01*
X124077771Y-83640500D01*
X124228792Y-83603276D01*
X124366518Y-83530992D01*
X124482942Y-83427849D01*
X124571300Y-83299841D01*
X124626456Y-83154407D01*
X124645204Y-83000000D01*
X124626456Y-82845593D01*
X124571300Y-82700159D01*
X124482942Y-82572151D01*
X124482939Y-82572148D01*
X124482937Y-82572146D01*
X124366519Y-82469008D01*
X124228790Y-82396723D01*
X124127169Y-82371675D01*
X124077771Y-82359500D01*
X123922229Y-82359500D01*
X123900552Y-82364843D01*
X123771209Y-82396723D01*
X123633480Y-82469008D01*
X123517062Y-82572146D01*
X123517056Y-82572153D01*
X123428701Y-82700156D01*
X123373543Y-82845593D01*
X123354796Y-83000000D01*
X85500500Y-83000000D01*
X85500500Y-82065000D01*
X126764796Y-82065000D01*
X126783543Y-82219406D01*
X126823252Y-82324109D01*
X126836674Y-82359500D01*
X126838701Y-82364843D01*
X126860707Y-82396724D01*
X126927058Y-82492849D01*
X126927060Y-82492851D01*
X126927062Y-82492853D01*
X127043480Y-82595991D01*
X127043482Y-82595992D01*
X127181208Y-82668276D01*
X127332229Y-82705500D01*
X127332230Y-82705500D01*
X127487770Y-82705500D01*
X127487771Y-82705500D01*
X127638792Y-82668276D01*
X127776518Y-82595992D01*
X127884870Y-82500000D01*
X135086796Y-82500000D01*
X135105543Y-82654406D01*
X135122894Y-82700156D01*
X135160700Y-82799841D01*
X135249058Y-82927849D01*
X135249060Y-82927851D01*
X135249062Y-82927853D01*
X135365480Y-83030991D01*
X135365482Y-83030992D01*
X135503208Y-83103276D01*
X135654229Y-83140500D01*
X135654230Y-83140500D01*
X135809770Y-83140500D01*
X135809771Y-83140500D01*
X135960792Y-83103276D01*
X136098518Y-83030992D01*
X136214942Y-82927849D01*
X136303300Y-82799841D01*
X136358456Y-82654407D01*
X136377204Y-82500000D01*
X136358456Y-82345593D01*
X136303300Y-82200159D01*
X136214942Y-82072151D01*
X136214939Y-82072148D01*
X136214937Y-82072146D01*
X136098519Y-81969008D01*
X135960790Y-81896723D01*
X135859169Y-81871675D01*
X135809771Y-81859500D01*
X135654229Y-81859500D01*
X135617006Y-81868674D01*
X135503209Y-81896723D01*
X135365480Y-81969008D01*
X135249062Y-82072146D01*
X135249056Y-82072153D01*
X135160701Y-82200156D01*
X135105543Y-82345593D01*
X135086796Y-82500000D01*
X127884870Y-82500000D01*
X127892942Y-82492849D01*
X127981300Y-82364841D01*
X128036456Y-82219407D01*
X128055204Y-82065000D01*
X128036456Y-81910593D01*
X127981300Y-81765159D01*
X127892942Y-81637151D01*
X127892939Y-81637148D01*
X127892937Y-81637146D01*
X127776519Y-81534008D01*
X127638790Y-81461723D01*
X127537169Y-81436675D01*
X127487771Y-81424500D01*
X127332229Y-81424500D01*
X127295006Y-81433674D01*
X127181209Y-81461723D01*
X127043480Y-81534008D01*
X126927062Y-81637146D01*
X126927056Y-81637153D01*
X126838701Y-81765156D01*
X126783543Y-81910593D01*
X126764796Y-82065000D01*
X85500500Y-82065000D01*
X85500500Y-79555000D01*
X115904828Y-79555000D01*
X115923474Y-79756236D01*
X115978782Y-79950619D01*
X115978787Y-79950632D01*
X116068866Y-80131534D01*
X116190659Y-80292815D01*
X116340010Y-80428965D01*
X116340012Y-80428967D01*
X116511836Y-80535356D01*
X116511842Y-80535359D01*
X116551764Y-80550824D01*
X116700292Y-80608365D01*
X116898950Y-80645500D01*
X116898953Y-80645500D01*
X117101047Y-80645500D01*
X117101050Y-80645500D01*
X117299708Y-80608365D01*
X117488160Y-80535358D01*
X117659989Y-80428966D01*
X117809342Y-80292813D01*
X117909638Y-80160000D01*
X126764796Y-80160000D01*
X126783543Y-80314406D01*
X126838701Y-80459843D01*
X126913201Y-80567774D01*
X126927058Y-80587849D01*
X126927060Y-80587851D01*
X126927062Y-80587853D01*
X127043480Y-80690991D01*
X127043482Y-80690992D01*
X127181208Y-80763276D01*
X127332229Y-80800500D01*
X127332230Y-80800500D01*
X127487770Y-80800500D01*
X127487771Y-80800500D01*
X127638792Y-80763276D01*
X127776518Y-80690992D01*
X127892942Y-80587849D01*
X127953580Y-80500000D01*
X131854796Y-80500000D01*
X131873543Y-80654406D01*
X131928701Y-80799843D01*
X132003201Y-80907774D01*
X132017058Y-80927849D01*
X132017060Y-80927851D01*
X132017062Y-80927853D01*
X132133480Y-81030991D01*
X132133482Y-81030992D01*
X132271208Y-81103276D01*
X132422229Y-81140500D01*
X132422230Y-81140500D01*
X132577770Y-81140500D01*
X132577771Y-81140500D01*
X132728792Y-81103276D01*
X132866518Y-81030992D01*
X132982942Y-80927849D01*
X133071300Y-80799841D01*
X133126456Y-80654407D01*
X133145204Y-80500000D01*
X133126456Y-80345593D01*
X133071300Y-80200159D01*
X132982942Y-80072151D01*
X132982939Y-80072148D01*
X132982937Y-80072146D01*
X132866519Y-79969008D01*
X132728790Y-79896723D01*
X132627169Y-79871675D01*
X132577771Y-79859500D01*
X132422229Y-79859500D01*
X132385006Y-79868674D01*
X132271209Y-79896723D01*
X132133480Y-79969008D01*
X132017062Y-80072146D01*
X132017056Y-80072153D01*
X131928701Y-80200156D01*
X131873543Y-80345593D01*
X131854796Y-80500000D01*
X127953580Y-80500000D01*
X127981300Y-80459841D01*
X128036456Y-80314407D01*
X128055204Y-80160000D01*
X128036456Y-80005593D01*
X127981300Y-79860159D01*
X127892942Y-79732151D01*
X127892939Y-79732148D01*
X127892937Y-79732146D01*
X127776519Y-79629008D01*
X127638790Y-79556723D01*
X127537169Y-79531675D01*
X127487771Y-79519500D01*
X127332229Y-79519500D01*
X127295006Y-79528674D01*
X127181209Y-79556723D01*
X127043480Y-79629008D01*
X126927062Y-79732146D01*
X126927056Y-79732153D01*
X126838701Y-79860156D01*
X126783543Y-80005593D01*
X126764796Y-80160000D01*
X117909638Y-80160000D01*
X117931134Y-80131534D01*
X118021217Y-79950622D01*
X118076525Y-79756237D01*
X118095172Y-79555000D01*
X118076525Y-79353763D01*
X118021217Y-79159378D01*
X117931134Y-78978466D01*
X117809342Y-78817187D01*
X117809340Y-78817184D01*
X117659989Y-78681034D01*
X117659987Y-78681032D01*
X117488163Y-78574643D01*
X117488157Y-78574640D01*
X117339632Y-78517101D01*
X117299708Y-78501635D01*
X117101050Y-78464500D01*
X116898950Y-78464500D01*
X116700292Y-78501635D01*
X116700289Y-78501635D01*
X116700289Y-78501636D01*
X116511842Y-78574640D01*
X116511836Y-78574643D01*
X116340012Y-78681032D01*
X116340010Y-78681034D01*
X116190659Y-78817184D01*
X116068866Y-78978465D01*
X115978787Y-79159367D01*
X115978782Y-79159380D01*
X115923474Y-79353763D01*
X115904828Y-79554999D01*
X115904828Y-79555000D01*
X85500500Y-79555000D01*
X85500500Y-75000002D01*
X87195153Y-75000002D01*
X87214526Y-75357314D01*
X87214527Y-75357331D01*
X87272415Y-75710431D01*
X87272421Y-75710457D01*
X87368147Y-76055232D01*
X87368149Y-76055239D01*
X87500597Y-76387659D01*
X87500606Y-76387677D01*
X87668218Y-76703827D01*
X87869033Y-77000007D01*
X87996441Y-77150003D01*
X87996442Y-77150004D01*
X89202266Y-75944180D01*
X89365130Y-76134870D01*
X89555818Y-76297732D01*
X88347255Y-77506295D01*
X88347256Y-77506296D01*
X88360485Y-77518828D01*
X88360486Y-77518829D01*
X88645367Y-77735388D01*
X88645370Y-77735390D01*
X88951990Y-77919876D01*
X89276739Y-78070122D01*
X89276744Y-78070123D01*
X89615855Y-78184383D01*
X89965339Y-78261311D01*
X90321075Y-78299999D01*
X90321085Y-78300000D01*
X90678915Y-78300000D01*
X90678924Y-78299999D01*
X91034660Y-78261311D01*
X91384144Y-78184383D01*
X91723255Y-78070123D01*
X91723260Y-78070122D01*
X92048009Y-77919876D01*
X92354629Y-77735390D01*
X92354632Y-77735388D01*
X92639504Y-77518836D01*
X92652742Y-77506294D01*
X91444180Y-76297733D01*
X91634870Y-76134870D01*
X91797733Y-75944180D01*
X93003556Y-77150003D01*
X93130964Y-77000008D01*
X93130975Y-76999994D01*
X93331781Y-76703827D01*
X93499393Y-76387677D01*
X93499402Y-76387659D01*
X93631850Y-76055239D01*
X93631852Y-76055232D01*
X93727578Y-75710457D01*
X93727584Y-75710431D01*
X93782929Y-75372844D01*
X115650000Y-75372844D01*
X115656401Y-75432372D01*
X115656403Y-75432379D01*
X115706645Y-75567086D01*
X115706649Y-75567093D01*
X115792809Y-75682187D01*
X115792812Y-75682190D01*
X115907906Y-75768350D01*
X115907913Y-75768354D01*
X116042620Y-75818596D01*
X116042627Y-75818598D01*
X116102155Y-75824999D01*
X116102172Y-75825000D01*
X116414609Y-75825000D01*
X116481648Y-75844685D01*
X116527403Y-75897489D01*
X116537347Y-75966647D01*
X116508322Y-76030203D01*
X116479886Y-76054427D01*
X116340012Y-76141032D01*
X116340010Y-76141034D01*
X116190659Y-76277184D01*
X116068866Y-76438465D01*
X115978787Y-76619367D01*
X115978782Y-76619380D01*
X115923474Y-76813763D01*
X115904828Y-77014999D01*
X115904828Y-77015000D01*
X115923474Y-77216236D01*
X115978782Y-77410619D01*
X115978787Y-77410632D01*
X116068866Y-77591534D01*
X116190659Y-77752815D01*
X116340010Y-77888965D01*
X116340012Y-77888967D01*
X116511836Y-77995356D01*
X116511842Y-77995359D01*
X116551764Y-78010824D01*
X116700292Y-78068365D01*
X116898950Y-78105500D01*
X116898953Y-78105500D01*
X117101047Y-78105500D01*
X117101050Y-78105500D01*
X117299708Y-78068365D01*
X117488160Y-77995358D01*
X117659989Y-77888966D01*
X117809342Y-77752813D01*
X117931134Y-77591534D01*
X118021217Y-77410622D01*
X118076525Y-77216237D01*
X118095172Y-77015000D01*
X118082754Y-76880991D01*
X118076525Y-76813763D01*
X118021217Y-76619378D01*
X118019000Y-76614926D01*
X117974918Y-76526396D01*
X117931134Y-76438466D01*
X117864328Y-76350000D01*
X130574796Y-76350000D01*
X130593543Y-76504406D01*
X130648701Y-76649843D01*
X130673871Y-76686307D01*
X130737058Y-76777849D01*
X130737060Y-76777851D01*
X130737062Y-76777853D01*
X130853480Y-76880991D01*
X130853482Y-76880992D01*
X130991208Y-76953276D01*
X131142229Y-76990500D01*
X131142230Y-76990500D01*
X131297769Y-76990500D01*
X131297771Y-76990500D01*
X131312465Y-76986878D01*
X131382265Y-76989945D01*
X131439328Y-77030262D01*
X131465536Y-77095030D01*
X131452567Y-77163686D01*
X131444193Y-77177713D01*
X131428700Y-77200159D01*
X131417971Y-77228447D01*
X131373543Y-77345593D01*
X131354796Y-77500000D01*
X131373543Y-77654406D01*
X131428701Y-77799843D01*
X131503201Y-77907774D01*
X131517058Y-77927849D01*
X131517060Y-77927851D01*
X131517062Y-77927853D01*
X131633480Y-78030991D01*
X131633482Y-78030992D01*
X131771208Y-78103276D01*
X131922229Y-78140500D01*
X131922230Y-78140500D01*
X132077770Y-78140500D01*
X132077771Y-78140500D01*
X132228792Y-78103276D01*
X132366518Y-78030992D01*
X132482942Y-77927849D01*
X132571300Y-77799841D01*
X132626456Y-77654407D01*
X132626877Y-77650936D01*
X136495631Y-77650936D01*
X136526442Y-77852063D01*
X136526445Y-77852075D01*
X136597111Y-78042881D01*
X136597113Y-78042884D01*
X136597114Y-78042887D01*
X136636141Y-78105500D01*
X136704745Y-78215567D01*
X136704747Y-78215569D01*
X136704748Y-78215571D01*
X136844941Y-78363053D01*
X136973344Y-78452424D01*
X137011949Y-78479294D01*
X137011950Y-78479294D01*
X137011951Y-78479295D01*
X137198942Y-78559540D01*
X137398259Y-78600500D01*
X137550743Y-78600500D01*
X137702439Y-78585074D01*
X137896579Y-78524162D01*
X137896580Y-78524161D01*
X137896588Y-78524159D01*
X138074502Y-78425409D01*
X138228895Y-78292866D01*
X138353448Y-78131958D01*
X138443060Y-77949271D01*
X138494063Y-77752285D01*
X138504369Y-77549064D01*
X138473556Y-77347929D01*
X138402886Y-77157113D01*
X138298690Y-76989945D01*
X138295254Y-76984432D01*
X138295250Y-76984427D01*
X138155061Y-76836949D01*
X138155060Y-76836948D01*
X138155059Y-76836947D01*
X138037268Y-76754962D01*
X137988050Y-76720705D01*
X137801056Y-76640459D01*
X137601741Y-76599500D01*
X137449258Y-76599500D01*
X137449257Y-76599500D01*
X137297560Y-76614925D01*
X137103420Y-76675837D01*
X137103405Y-76675844D01*
X136925500Y-76774589D01*
X136925495Y-76774592D01*
X136771106Y-76907132D01*
X136771104Y-76907134D01*
X136646554Y-77068037D01*
X136646553Y-77068040D01*
X136556940Y-77250728D01*
X136505937Y-77447714D01*
X136495631Y-77650936D01*
X132626877Y-77650936D01*
X132645204Y-77500000D01*
X132626456Y-77345593D01*
X132571300Y-77200159D01*
X132482942Y-77072151D01*
X132482939Y-77072148D01*
X132482937Y-77072146D01*
X132366519Y-76969008D01*
X132228790Y-76896723D01*
X132127169Y-76871675D01*
X132077771Y-76859500D01*
X131922229Y-76859500D01*
X131922224Y-76859500D01*
X131907530Y-76863122D01*
X131837728Y-76860052D01*
X131780667Y-76819732D01*
X131754462Y-76754962D01*
X131767435Y-76686307D01*
X131775802Y-76672292D01*
X131791300Y-76649841D01*
X131846456Y-76504407D01*
X131865204Y-76350000D01*
X131846456Y-76195593D01*
X131791300Y-76050159D01*
X131702942Y-75922151D01*
X131702939Y-75922148D01*
X131702937Y-75922146D01*
X131586519Y-75819008D01*
X131448790Y-75746723D01*
X131347169Y-75721675D01*
X131320086Y-75715000D01*
X134384796Y-75715000D01*
X134403543Y-75869406D01*
X134440422Y-75966647D01*
X134453981Y-76002399D01*
X134458701Y-76014843D01*
X134483076Y-76050156D01*
X134547058Y-76142849D01*
X134547060Y-76142851D01*
X134547062Y-76142853D01*
X134663480Y-76245991D01*
X134663482Y-76245992D01*
X134801208Y-76318276D01*
X134952229Y-76355500D01*
X134952230Y-76355500D01*
X135107770Y-76355500D01*
X135107771Y-76355500D01*
X135258792Y-76318276D01*
X135396518Y-76245992D01*
X135512942Y-76142849D01*
X135601300Y-76014841D01*
X135656456Y-75869407D01*
X135675204Y-75715000D01*
X135656456Y-75560593D01*
X135601300Y-75415159D01*
X135512942Y-75287151D01*
X135512939Y-75287148D01*
X135512937Y-75287146D01*
X135396519Y-75184008D01*
X135258790Y-75111723D01*
X135157169Y-75086675D01*
X135107771Y-75074500D01*
X134952229Y-75074500D01*
X134915006Y-75083674D01*
X134801209Y-75111723D01*
X134663480Y-75184008D01*
X134547062Y-75287146D01*
X134547056Y-75287153D01*
X134458701Y-75415156D01*
X134403543Y-75560593D01*
X134384796Y-75715000D01*
X131320086Y-75715000D01*
X131297771Y-75709500D01*
X131142229Y-75709500D01*
X131119915Y-75715000D01*
X130991209Y-75746723D01*
X130853480Y-75819008D01*
X130737062Y-75922146D01*
X130737056Y-75922153D01*
X130648701Y-76050156D01*
X130593543Y-76195593D01*
X130574796Y-76350000D01*
X117864328Y-76350000D01*
X117809342Y-76277187D01*
X117809340Y-76277184D01*
X117659989Y-76141034D01*
X117659987Y-76141032D01*
X117520114Y-76054427D01*
X117473478Y-76002399D01*
X117462374Y-75933418D01*
X117490327Y-75869383D01*
X117548462Y-75830627D01*
X117585391Y-75825000D01*
X117897828Y-75825000D01*
X117897844Y-75824999D01*
X117957372Y-75818598D01*
X117957379Y-75818596D01*
X118092086Y-75768354D01*
X118092093Y-75768350D01*
X118207187Y-75682190D01*
X118207190Y-75682187D01*
X118293350Y-75567093D01*
X118293354Y-75567086D01*
X118343596Y-75432379D01*
X118343598Y-75432372D01*
X118349999Y-75372844D01*
X118350000Y-75372827D01*
X118350000Y-74725000D01*
X117433686Y-74725000D01*
X117459493Y-74684844D01*
X117500000Y-74546889D01*
X117500000Y-74403111D01*
X117470458Y-74302500D01*
X120729828Y-74302500D01*
X120748469Y-74491769D01*
X120748470Y-74491771D01*
X120803678Y-74673769D01*
X120843853Y-74748931D01*
X120893332Y-74841500D01*
X121013984Y-74988515D01*
X121116291Y-75072476D01*
X121161001Y-75109169D01*
X121328731Y-75198822D01*
X121510729Y-75254030D01*
X121510728Y-75254030D01*
X121527698Y-75255701D01*
X121700000Y-75272672D01*
X121889271Y-75254030D01*
X122071269Y-75198822D01*
X122238999Y-75109169D01*
X122386015Y-74988515D01*
X122506669Y-74841499D01*
X122596322Y-74673769D01*
X122651530Y-74491771D01*
X122670172Y-74302500D01*
X125729828Y-74302500D01*
X125748469Y-74491769D01*
X125748470Y-74491771D01*
X125803678Y-74673769D01*
X125843853Y-74748931D01*
X125893332Y-74841500D01*
X126013984Y-74988515D01*
X126116291Y-75072476D01*
X126161001Y-75109169D01*
X126328731Y-75198822D01*
X126510729Y-75254030D01*
X126510728Y-75254030D01*
X126527698Y-75255701D01*
X126700000Y-75272672D01*
X126889271Y-75254030D01*
X127071269Y-75198822D01*
X127238999Y-75109169D01*
X127372018Y-75000002D01*
X153195153Y-75000002D01*
X153214526Y-75357314D01*
X153214527Y-75357331D01*
X153272415Y-75710431D01*
X153272421Y-75710457D01*
X153368147Y-76055232D01*
X153368149Y-76055239D01*
X153500597Y-76387659D01*
X153500606Y-76387677D01*
X153668218Y-76703827D01*
X153869033Y-77000007D01*
X153996441Y-77150003D01*
X153996442Y-77150004D01*
X155202266Y-75944180D01*
X155365130Y-76134870D01*
X155555818Y-76297732D01*
X154347255Y-77506295D01*
X154347256Y-77506296D01*
X154360485Y-77518828D01*
X154360486Y-77518829D01*
X154645367Y-77735388D01*
X154645370Y-77735390D01*
X154951990Y-77919876D01*
X155276739Y-78070122D01*
X155276744Y-78070123D01*
X155615855Y-78184383D01*
X155965339Y-78261311D01*
X156321075Y-78299999D01*
X156321085Y-78300000D01*
X156678915Y-78300000D01*
X156678924Y-78299999D01*
X157034660Y-78261311D01*
X157384144Y-78184383D01*
X157723255Y-78070123D01*
X157723260Y-78070122D01*
X158048009Y-77919876D01*
X158354629Y-77735390D01*
X158354632Y-77735388D01*
X158639504Y-77518836D01*
X158652742Y-77506294D01*
X157444180Y-76297733D01*
X157634870Y-76134870D01*
X157797733Y-75944180D01*
X159003556Y-77150003D01*
X159130964Y-77000008D01*
X159130975Y-76999994D01*
X159331781Y-76703827D01*
X159499393Y-76387677D01*
X159499402Y-76387659D01*
X159631850Y-76055239D01*
X159631852Y-76055232D01*
X159727578Y-75710457D01*
X159727584Y-75710431D01*
X159785472Y-75357331D01*
X159785473Y-75357314D01*
X159804847Y-75000002D01*
X159804847Y-74999997D01*
X159785473Y-74642685D01*
X159785472Y-74642668D01*
X159727584Y-74289568D01*
X159727578Y-74289542D01*
X159631852Y-73944767D01*
X159631850Y-73944760D01*
X159499402Y-73612340D01*
X159499393Y-73612322D01*
X159331781Y-73296172D01*
X159130966Y-72999992D01*
X159003557Y-72849995D01*
X159003556Y-72849994D01*
X157797732Y-74055818D01*
X157634870Y-73865130D01*
X157444180Y-73702266D01*
X158652743Y-72493703D01*
X158652742Y-72493702D01*
X158639514Y-72481171D01*
X158639513Y-72481170D01*
X158354632Y-72264611D01*
X158354629Y-72264609D01*
X158048009Y-72080123D01*
X157723260Y-71929877D01*
X157723255Y-71929876D01*
X157384144Y-71815616D01*
X157034660Y-71738688D01*
X156678924Y-71700000D01*
X156321075Y-71700000D01*
X155965339Y-71738688D01*
X155615855Y-71815616D01*
X155276744Y-71929876D01*
X155276739Y-71929877D01*
X154951990Y-72080123D01*
X154645370Y-72264609D01*
X154645367Y-72264611D01*
X154360491Y-72481166D01*
X154347256Y-72493703D01*
X154347255Y-72493703D01*
X155555819Y-73702266D01*
X155365130Y-73865130D01*
X155202266Y-74055818D01*
X153996442Y-72849994D01*
X153996441Y-72849995D01*
X153869040Y-72999983D01*
X153869033Y-72999993D01*
X153668218Y-73296172D01*
X153500606Y-73612322D01*
X153500597Y-73612340D01*
X153368149Y-73944760D01*
X153368147Y-73944767D01*
X153272421Y-74289542D01*
X153272415Y-74289568D01*
X153214527Y-74642668D01*
X153214526Y-74642685D01*
X153195153Y-74999997D01*
X153195153Y-75000002D01*
X127372018Y-75000002D01*
X127386015Y-74988515D01*
X127506669Y-74841499D01*
X127596322Y-74673769D01*
X127651530Y-74491771D01*
X127670172Y-74302500D01*
X127651530Y-74113229D01*
X127596322Y-73931231D01*
X127506669Y-73763501D01*
X127455843Y-73701570D01*
X127386015Y-73616484D01*
X127239000Y-73495832D01*
X127238999Y-73495831D01*
X127071269Y-73406178D01*
X126889271Y-73350970D01*
X126889269Y-73350969D01*
X126889271Y-73350969D01*
X126700000Y-73332328D01*
X126510730Y-73350969D01*
X126328731Y-73406178D01*
X126160999Y-73495832D01*
X126013984Y-73616484D01*
X125893332Y-73763499D01*
X125803678Y-73931231D01*
X125748469Y-74113230D01*
X125729828Y-74302500D01*
X122670172Y-74302500D01*
X122651530Y-74113229D01*
X122596322Y-73931231D01*
X122506669Y-73763501D01*
X122455843Y-73701570D01*
X122386015Y-73616484D01*
X122239000Y-73495832D01*
X122238999Y-73495831D01*
X122071269Y-73406178D01*
X121889271Y-73350970D01*
X121889269Y-73350969D01*
X121889271Y-73350969D01*
X121700000Y-73332328D01*
X121510730Y-73350969D01*
X121328731Y-73406178D01*
X121160999Y-73495832D01*
X121013984Y-73616484D01*
X120893332Y-73763499D01*
X120803678Y-73931231D01*
X120748469Y-74113230D01*
X120729828Y-74302500D01*
X117470458Y-74302500D01*
X117459493Y-74265156D01*
X117433686Y-74225000D01*
X118350000Y-74225000D01*
X118350000Y-73577172D01*
X118349999Y-73577155D01*
X118343598Y-73517627D01*
X118343596Y-73517620D01*
X118293354Y-73382913D01*
X118293350Y-73382906D01*
X118207190Y-73267812D01*
X118207187Y-73267809D01*
X118092093Y-73181649D01*
X118092086Y-73181645D01*
X117957379Y-73131403D01*
X117957372Y-73131401D01*
X117897844Y-73125000D01*
X117250000Y-73125000D01*
X117250000Y-74039498D01*
X117142315Y-73990320D01*
X117035763Y-73975000D01*
X116964237Y-73975000D01*
X116857685Y-73990320D01*
X116750000Y-74039498D01*
X116750000Y-73125000D01*
X116102155Y-73125000D01*
X116042627Y-73131401D01*
X116042620Y-73131403D01*
X115907913Y-73181645D01*
X115907906Y-73181649D01*
X115792812Y-73267809D01*
X115792809Y-73267812D01*
X115706649Y-73382906D01*
X115706645Y-73382913D01*
X115656403Y-73517620D01*
X115656401Y-73517627D01*
X115650000Y-73577155D01*
X115650000Y-74225000D01*
X116566314Y-74225000D01*
X116540507Y-74265156D01*
X116500000Y-74403111D01*
X116500000Y-74546889D01*
X116540507Y-74684844D01*
X116566314Y-74725000D01*
X115650000Y-74725000D01*
X115650000Y-75372844D01*
X93782929Y-75372844D01*
X93785472Y-75357331D01*
X93785473Y-75357314D01*
X93804847Y-75000002D01*
X93804847Y-74999997D01*
X93785473Y-74642685D01*
X93785472Y-74642668D01*
X93727584Y-74289568D01*
X93727578Y-74289542D01*
X93631852Y-73944767D01*
X93631850Y-73944760D01*
X93499402Y-73612340D01*
X93499393Y-73612322D01*
X93331781Y-73296172D01*
X93293977Y-73240415D01*
X107730773Y-73240415D01*
X107740696Y-73398137D01*
X107740696Y-73398140D01*
X107779521Y-73517627D01*
X107789533Y-73548441D01*
X107874214Y-73681877D01*
X107989418Y-73790062D01*
X107989420Y-73790063D01*
X107989422Y-73790065D01*
X108066578Y-73832481D01*
X108127908Y-73866197D01*
X108280981Y-73905500D01*
X108280984Y-73905500D01*
X108399348Y-73905500D01*
X108399350Y-73905500D01*
X108399355Y-73905499D01*
X108399359Y-73905499D01*
X108412088Y-73903890D01*
X108516792Y-73890664D01*
X108663732Y-73832486D01*
X108791587Y-73739594D01*
X108892324Y-73617823D01*
X108959614Y-73474826D01*
X108989227Y-73319588D01*
X108979304Y-73161862D01*
X108930467Y-73011559D01*
X108845786Y-72878123D01*
X108730582Y-72769938D01*
X108730579Y-72769936D01*
X108730577Y-72769934D01*
X108592095Y-72693804D01*
X108592087Y-72693801D01*
X108439021Y-72654500D01*
X108439019Y-72654500D01*
X108320650Y-72654500D01*
X108320640Y-72654500D01*
X108203208Y-72669336D01*
X108203206Y-72669336D01*
X108056269Y-72727513D01*
X108056260Y-72727518D01*
X107928416Y-72820402D01*
X107928415Y-72820403D01*
X107827674Y-72942178D01*
X107760387Y-73085171D01*
X107760385Y-73085174D01*
X107745757Y-73161862D01*
X107730773Y-73240412D01*
X107730773Y-73240414D01*
X107730773Y-73240415D01*
X93293977Y-73240415D01*
X93130966Y-72999992D01*
X93003557Y-72849995D01*
X93003556Y-72849994D01*
X91797732Y-74055818D01*
X91634870Y-73865130D01*
X91444180Y-73702266D01*
X92652743Y-72493703D01*
X92652742Y-72493702D01*
X92639514Y-72481171D01*
X92639513Y-72481170D01*
X92354632Y-72264611D01*
X92354629Y-72264609D01*
X92048009Y-72080123D01*
X91870656Y-71998070D01*
X119859500Y-71998070D01*
X119874310Y-72134248D01*
X119932685Y-72307498D01*
X120026938Y-72464148D01*
X120152663Y-72596874D01*
X120303981Y-72699471D01*
X120374362Y-72727513D01*
X120473811Y-72767137D01*
X120473813Y-72767137D01*
X120473817Y-72767139D01*
X120654228Y-72796716D01*
X120836780Y-72786818D01*
X120975148Y-72748400D01*
X121012933Y-72737910D01*
X121012933Y-72737909D01*
X121012936Y-72737909D01*
X121174459Y-72652275D01*
X121313797Y-72533920D01*
X121424435Y-72388378D01*
X121501199Y-72222455D01*
X121540500Y-72043910D01*
X121540500Y-71998070D01*
X126859500Y-71998070D01*
X126874310Y-72134248D01*
X126932685Y-72307498D01*
X127026938Y-72464148D01*
X127152663Y-72596874D01*
X127303981Y-72699471D01*
X127374362Y-72727513D01*
X127473811Y-72767137D01*
X127473813Y-72767137D01*
X127473817Y-72767139D01*
X127654228Y-72796716D01*
X127836780Y-72786818D01*
X127975148Y-72748400D01*
X128012933Y-72737910D01*
X128012933Y-72737909D01*
X128012936Y-72737909D01*
X128174459Y-72652275D01*
X128313797Y-72533920D01*
X128424435Y-72388378D01*
X128501199Y-72222455D01*
X128540500Y-72043910D01*
X128540500Y-71206930D01*
X128525690Y-71070752D01*
X128467315Y-70897502D01*
X128373062Y-70740852D01*
X128247337Y-70608126D01*
X128096019Y-70505529D01*
X128096017Y-70505528D01*
X127926188Y-70437862D01*
X127926184Y-70437861D01*
X127890100Y-70431945D01*
X127745772Y-70408284D01*
X127745768Y-70408284D01*
X127563221Y-70418181D01*
X127563214Y-70418183D01*
X127387066Y-70467089D01*
X127387060Y-70467092D01*
X127225542Y-70552723D01*
X127086203Y-70671079D01*
X126975564Y-70816622D01*
X126975563Y-70816624D01*
X126898802Y-70982540D01*
X126898799Y-70982548D01*
X126860730Y-71155500D01*
X126859500Y-71161090D01*
X126859500Y-71998070D01*
X121540500Y-71998070D01*
X121540500Y-71206930D01*
X121525690Y-71070752D01*
X121467315Y-70897502D01*
X121373062Y-70740852D01*
X121247337Y-70608126D01*
X121096019Y-70505529D01*
X121096017Y-70505528D01*
X120926188Y-70437862D01*
X120926184Y-70437861D01*
X120890100Y-70431945D01*
X120745772Y-70408284D01*
X120745768Y-70408284D01*
X120563221Y-70418181D01*
X120563214Y-70418183D01*
X120387066Y-70467089D01*
X120387060Y-70467092D01*
X120225542Y-70552723D01*
X120086203Y-70671079D01*
X119975564Y-70816622D01*
X119975563Y-70816624D01*
X119898802Y-70982540D01*
X119898799Y-70982548D01*
X119860730Y-71155500D01*
X119859500Y-71161090D01*
X119859500Y-71998070D01*
X91870656Y-71998070D01*
X91723260Y-71929877D01*
X91723255Y-71929876D01*
X91384144Y-71815616D01*
X91034660Y-71738688D01*
X90678924Y-71700000D01*
X90321075Y-71700000D01*
X89965339Y-71738688D01*
X89615855Y-71815616D01*
X89276744Y-71929876D01*
X89276739Y-71929877D01*
X88951990Y-72080123D01*
X88645370Y-72264609D01*
X88645367Y-72264611D01*
X88360491Y-72481166D01*
X88347256Y-72493703D01*
X88347255Y-72493703D01*
X89555819Y-73702266D01*
X89365130Y-73865130D01*
X89202266Y-74055818D01*
X87996442Y-72849994D01*
X87996441Y-72849995D01*
X87869040Y-72999983D01*
X87869033Y-72999993D01*
X87668218Y-73296172D01*
X87500606Y-73612322D01*
X87500597Y-73612340D01*
X87368149Y-73944760D01*
X87368147Y-73944767D01*
X87272421Y-74289542D01*
X87272415Y-74289568D01*
X87214527Y-74642668D01*
X87214526Y-74642685D01*
X87195153Y-74999997D01*
X87195153Y-75000002D01*
X85500500Y-75000002D01*
X85500500Y-72002035D01*
X85500633Y-71997980D01*
X85502393Y-71971103D01*
X85505989Y-71916244D01*
X85518986Y-71734536D01*
X85520014Y-71726903D01*
X85543153Y-71610579D01*
X85544118Y-71606141D01*
X85574533Y-71466323D01*
X85576392Y-71459625D01*
X85616815Y-71340543D01*
X85643127Y-71270000D01*
X111524796Y-71270000D01*
X111543543Y-71424406D01*
X111598701Y-71569843D01*
X111673201Y-71677774D01*
X111687058Y-71697849D01*
X111687060Y-71697851D01*
X111687062Y-71697853D01*
X111803480Y-71800991D01*
X111803482Y-71800992D01*
X111941208Y-71873276D01*
X112092229Y-71910500D01*
X112092230Y-71910500D01*
X112247770Y-71910500D01*
X112247771Y-71910500D01*
X112398792Y-71873276D01*
X112536518Y-71800992D01*
X112652942Y-71697849D01*
X112741300Y-71569841D01*
X112796456Y-71424407D01*
X112815204Y-71270000D01*
X112796456Y-71115593D01*
X112741300Y-70970159D01*
X112652942Y-70842151D01*
X112652939Y-70842148D01*
X112652937Y-70842146D01*
X112536519Y-70739008D01*
X112398790Y-70666723D01*
X112280426Y-70637549D01*
X112247771Y-70629500D01*
X112092229Y-70629500D01*
X112059574Y-70637549D01*
X111941209Y-70666723D01*
X111803480Y-70739008D01*
X111687062Y-70842146D01*
X111687056Y-70842153D01*
X111598701Y-70970156D01*
X111543543Y-71115593D01*
X111524796Y-71270000D01*
X85643127Y-71270000D01*
X85666159Y-71208251D01*
X85668633Y-71202520D01*
X85725583Y-71087036D01*
X85792179Y-70965076D01*
X85795019Y-70960384D01*
X85866563Y-70853311D01*
X85868428Y-70850676D01*
X85950291Y-70741321D01*
X85953244Y-70737678D01*
X86038503Y-70640459D01*
X86041198Y-70637581D01*
X86137581Y-70541198D01*
X86140459Y-70538503D01*
X86237678Y-70453244D01*
X86241321Y-70450291D01*
X86350676Y-70368428D01*
X86353311Y-70366563D01*
X86460384Y-70295019D01*
X86465076Y-70292179D01*
X86587036Y-70225583D01*
X86702520Y-70168633D01*
X86708251Y-70166159D01*
X86840543Y-70116815D01*
X86959625Y-70076392D01*
X86966323Y-70074533D01*
X87110579Y-70043153D01*
X87116728Y-70041929D01*
X87226903Y-70020014D01*
X87234536Y-70018986D01*
X87416244Y-70005989D01*
X87469211Y-70002517D01*
X87497981Y-70000633D01*
X87502036Y-70000500D01*
X107723762Y-70000500D01*
X107790801Y-70020185D01*
G37*
%TD.AperFunction*%
%TD*%
M02*
