%TF.GenerationSoftware,KiCad,Pcbnew,7.0.6-7.0.6~ubuntu22.04.1*%
%TF.CreationDate,2023-07-31T15:47:24-04:00*%
%TF.ProjectId,esp32_sensor_board,65737033-325f-4736-956e-736f725f626f,rev?*%
%TF.SameCoordinates,Original*%
%TF.FileFunction,Copper,L1,Top*%
%TF.FilePolarity,Positive*%
%FSLAX46Y46*%
G04 Gerber Fmt 4.6, Leading zero omitted, Abs format (unit mm)*
G04 Created by KiCad (PCBNEW 7.0.6-7.0.6~ubuntu22.04.1) date 2023-07-31 15:47:24*
%MOMM*%
%LPD*%
G01*
G04 APERTURE LIST*
G04 Aperture macros list*
%AMRoundRect*
0 Rectangle with rounded corners*
0 $1 Rounding radius*
0 $2 $3 $4 $5 $6 $7 $8 $9 X,Y pos of 4 corners*
0 Add a 4 corners polygon primitive as box body*
4,1,4,$2,$3,$4,$5,$6,$7,$8,$9,$2,$3,0*
0 Add four circle primitives for the rounded corners*
1,1,$1+$1,$2,$3*
1,1,$1+$1,$4,$5*
1,1,$1+$1,$6,$7*
1,1,$1+$1,$8,$9*
0 Add four rect primitives between the rounded corners*
20,1,$1+$1,$2,$3,$4,$5,0*
20,1,$1+$1,$4,$5,$6,$7,0*
20,1,$1+$1,$6,$7,$8,$9,0*
20,1,$1+$1,$8,$9,$2,$3,0*%
%AMFreePoly0*
4,1,19,0.500000,-0.750000,0.000000,-0.750000,0.000000,-0.744911,-0.071157,-0.744911,-0.207708,-0.704816,-0.327430,-0.627875,-0.420627,-0.520320,-0.479746,-0.390866,-0.500000,-0.250000,-0.500000,0.250000,-0.479746,0.390866,-0.420627,0.520320,-0.327430,0.627875,-0.207708,0.704816,-0.071157,0.744911,0.000000,0.744911,0.000000,0.750000,0.500000,0.750000,0.500000,-0.750000,0.500000,-0.750000,
$1*%
%AMFreePoly1*
4,1,19,0.000000,0.744911,0.071157,0.744911,0.207708,0.704816,0.327430,0.627875,0.420627,0.520320,0.479746,0.390866,0.500000,0.250000,0.500000,-0.250000,0.479746,-0.390866,0.420627,-0.520320,0.327430,-0.627875,0.207708,-0.704816,0.071157,-0.744911,0.000000,-0.744911,0.000000,-0.750000,-0.500000,-0.750000,-0.500000,0.750000,0.000000,0.750000,0.000000,0.744911,0.000000,0.744911,
$1*%
G04 Aperture macros list end*
%TA.AperFunction,SMDPad,CuDef*%
%ADD10R,1.000000X1.000000*%
%TD*%
%TA.AperFunction,SMDPad,CuDef*%
%ADD11R,2.200000X1.050000*%
%TD*%
%TA.AperFunction,ComponentPad*%
%ADD12C,5.600000*%
%TD*%
%TA.AperFunction,SMDPad,CuDef*%
%ADD13O,4.000000X2.000000*%
%TD*%
%TA.AperFunction,SMDPad,CuDef*%
%ADD14RoundRect,0.225000X0.250000X-0.225000X0.250000X0.225000X-0.250000X0.225000X-0.250000X-0.225000X0*%
%TD*%
%TA.AperFunction,ComponentPad*%
%ADD15R,1.700000X1.700000*%
%TD*%
%TA.AperFunction,ComponentPad*%
%ADD16O,1.700000X1.700000*%
%TD*%
%TA.AperFunction,ComponentPad*%
%ADD17RoundRect,0.249999X1.550001X-0.790001X1.550001X0.790001X-1.550001X0.790001X-1.550001X-0.790001X0*%
%TD*%
%TA.AperFunction,ComponentPad*%
%ADD18O,3.600000X2.080000*%
%TD*%
%TA.AperFunction,SMDPad,CuDef*%
%ADD19RoundRect,0.200000X0.200000X0.275000X-0.200000X0.275000X-0.200000X-0.275000X0.200000X-0.275000X0*%
%TD*%
%TA.AperFunction,SMDPad,CuDef*%
%ADD20RoundRect,0.250000X0.650000X-0.325000X0.650000X0.325000X-0.650000X0.325000X-0.650000X-0.325000X0*%
%TD*%
%TA.AperFunction,SMDPad,CuDef*%
%ADD21RoundRect,0.062500X-0.375000X-0.062500X0.375000X-0.062500X0.375000X0.062500X-0.375000X0.062500X0*%
%TD*%
%TA.AperFunction,SMDPad,CuDef*%
%ADD22RoundRect,0.062500X-0.062500X-0.375000X0.062500X-0.375000X0.062500X0.375000X-0.062500X0.375000X0*%
%TD*%
%TA.AperFunction,SMDPad,CuDef*%
%ADD23R,3.450000X3.450000*%
%TD*%
%TA.AperFunction,SMDPad,CuDef*%
%ADD24RoundRect,0.250000X1.425000X-0.362500X1.425000X0.362500X-1.425000X0.362500X-1.425000X-0.362500X0*%
%TD*%
%TA.AperFunction,SMDPad,CuDef*%
%ADD25RoundRect,0.250000X-0.475000X0.250000X-0.475000X-0.250000X0.475000X-0.250000X0.475000X0.250000X0*%
%TD*%
%TA.AperFunction,SMDPad,CuDef*%
%ADD26RoundRect,0.225000X-0.225000X-0.250000X0.225000X-0.250000X0.225000X0.250000X-0.225000X0.250000X0*%
%TD*%
%TA.AperFunction,SMDPad,CuDef*%
%ADD27RoundRect,0.200000X-0.275000X0.200000X-0.275000X-0.200000X0.275000X-0.200000X0.275000X0.200000X0*%
%TD*%
%TA.AperFunction,SMDPad,CuDef*%
%ADD28RoundRect,0.062500X-0.237500X-0.062500X0.237500X-0.062500X0.237500X0.062500X-0.237500X0.062500X0*%
%TD*%
%TA.AperFunction,SMDPad,CuDef*%
%ADD29RoundRect,0.062500X0.062500X-0.237500X0.062500X0.237500X-0.062500X0.237500X-0.062500X-0.237500X0*%
%TD*%
%TA.AperFunction,SMDPad,CuDef*%
%ADD30RoundRect,0.062500X0.062500X0.850000X-0.062500X0.850000X-0.062500X-0.850000X0.062500X-0.850000X0*%
%TD*%
%TA.AperFunction,SMDPad,CuDef*%
%ADD31RoundRect,0.225000X0.225000X0.250000X-0.225000X0.250000X-0.225000X-0.250000X0.225000X-0.250000X0*%
%TD*%
%TA.AperFunction,SMDPad,CuDef*%
%ADD32RoundRect,0.250000X0.475000X-0.250000X0.475000X0.250000X-0.475000X0.250000X-0.475000X-0.250000X0*%
%TD*%
%TA.AperFunction,SMDPad,CuDef*%
%ADD33RoundRect,0.200000X0.275000X-0.200000X0.275000X0.200000X-0.275000X0.200000X-0.275000X-0.200000X0*%
%TD*%
%TA.AperFunction,SMDPad,CuDef*%
%ADD34RoundRect,0.147500X-0.147500X-0.172500X0.147500X-0.172500X0.147500X0.172500X-0.147500X0.172500X0*%
%TD*%
%TA.AperFunction,SMDPad,CuDef*%
%ADD35RoundRect,0.225000X-0.250000X0.225000X-0.250000X-0.225000X0.250000X-0.225000X0.250000X0.225000X0*%
%TD*%
%TA.AperFunction,SMDPad,CuDef*%
%ADD36RoundRect,0.150000X-0.825000X-0.150000X0.825000X-0.150000X0.825000X0.150000X-0.825000X0.150000X0*%
%TD*%
%TA.AperFunction,SMDPad,CuDef*%
%ADD37R,0.900000X0.800000*%
%TD*%
%TA.AperFunction,SMDPad,CuDef*%
%ADD38RoundRect,0.250000X0.250000X0.475000X-0.250000X0.475000X-0.250000X-0.475000X0.250000X-0.475000X0*%
%TD*%
%TA.AperFunction,SMDPad,CuDef*%
%ADD39RoundRect,0.150000X0.600000X-0.150000X0.600000X0.150000X-0.600000X0.150000X-0.600000X-0.150000X0*%
%TD*%
%TA.AperFunction,SMDPad,CuDef*%
%ADD40R,3.700000X1.200000*%
%TD*%
%TA.AperFunction,SMDPad,CuDef*%
%ADD41RoundRect,0.250000X-0.250000X-0.475000X0.250000X-0.475000X0.250000X0.475000X-0.250000X0.475000X0*%
%TD*%
%TA.AperFunction,SMDPad,CuDef*%
%ADD42R,1.800000X1.000000*%
%TD*%
%TA.AperFunction,SMDPad,CuDef*%
%ADD43RoundRect,0.250000X-0.650000X0.325000X-0.650000X-0.325000X0.650000X-0.325000X0.650000X0.325000X0*%
%TD*%
%TA.AperFunction,SMDPad,CuDef*%
%ADD44FreePoly0,0.000000*%
%TD*%
%TA.AperFunction,SMDPad,CuDef*%
%ADD45FreePoly1,0.000000*%
%TD*%
%TA.AperFunction,SMDPad,CuDef*%
%ADD46R,0.400000X1.350000*%
%TD*%
%TA.AperFunction,ComponentPad*%
%ADD47O,1.200000X1.900000*%
%TD*%
%TA.AperFunction,SMDPad,CuDef*%
%ADD48R,1.200000X1.900000*%
%TD*%
%TA.AperFunction,ComponentPad*%
%ADD49C,1.450000*%
%TD*%
%TA.AperFunction,SMDPad,CuDef*%
%ADD50R,1.500000X1.900000*%
%TD*%
%TA.AperFunction,SMDPad,CuDef*%
%ADD51RoundRect,0.218750X0.218750X0.256250X-0.218750X0.256250X-0.218750X-0.256250X0.218750X-0.256250X0*%
%TD*%
%TA.AperFunction,SMDPad,CuDef*%
%ADD52R,0.500000X0.300000*%
%TD*%
%TA.AperFunction,SMDPad,CuDef*%
%ADD53RoundRect,0.150000X-0.150000X0.512500X-0.150000X-0.512500X0.150000X-0.512500X0.150000X0.512500X0*%
%TD*%
%TA.AperFunction,SMDPad,CuDef*%
%ADD54RoundRect,0.075000X-0.650000X-0.075000X0.650000X-0.075000X0.650000X0.075000X-0.650000X0.075000X0*%
%TD*%
%TA.AperFunction,ViaPad*%
%ADD55C,0.800000*%
%TD*%
%TA.AperFunction,Conductor*%
%ADD56C,0.250000*%
%TD*%
%TA.AperFunction,Conductor*%
%ADD57C,0.349250*%
%TD*%
%TA.AperFunction,Conductor*%
%ADD58C,0.500000*%
%TD*%
%TA.AperFunction,Conductor*%
%ADD59C,0.200000*%
%TD*%
%TA.AperFunction,Conductor*%
%ADD60C,0.120000*%
%TD*%
%TA.AperFunction,Conductor*%
%ADD61C,0.267208*%
%TD*%
G04 APERTURE END LIST*
D10*
%TO.P,J303,1,In*%
%TO.N,/Microprocessor/RF_ANT*%
X107000000Y-90475000D03*
D11*
%TO.P,J303,2,Ext*%
%TO.N,GND*%
X105500000Y-89000000D03*
D10*
X104000000Y-90475000D03*
D11*
X105500000Y-91950000D03*
%TD*%
D12*
%TO.P,H104,1,1*%
%TO.N,GND*%
X90500000Y-75000000D03*
%TD*%
%TO.P,H103,1,1*%
%TO.N,GND*%
X156500000Y-75000000D03*
%TD*%
%TO.P,H102,1,1*%
%TO.N,GND*%
X156500000Y-98000000D03*
%TD*%
%TO.P,H101,1,1*%
%TO.N,GND*%
X90500000Y-98000000D03*
%TD*%
D13*
%TO.P,SW301,1,A*%
%TO.N,/Microprocessor/GPIO09_BOOT*%
X141250000Y-97250000D03*
X134750000Y-97250000D03*
%TO.P,SW301,2,B*%
%TO.N,GND*%
X141250000Y-92750000D03*
X134750000Y-92750000D03*
%TD*%
D14*
%TO.P,C201,1*%
%TO.N,Net-(U201-BOOT)*%
X128500000Y-117775000D03*
%TO.P,C201,2*%
%TO.N,/Power/SW*%
X128500000Y-116225000D03*
%TD*%
D15*
%TO.P,J502,1,Pin_1*%
%TO.N,GND*%
X89900000Y-128630000D03*
D16*
%TO.P,J502,2,Pin_2*%
%TO.N,/Load Cell Sensor/S2_P*%
X89900000Y-126090000D03*
%TO.P,J502,3,Pin_3*%
%TO.N,/Load Cell Sensor/S2_N*%
X89900000Y-123550000D03*
%TO.P,J502,4,Pin_4*%
%TO.N,GND*%
X89900000Y-121010000D03*
%TO.P,J502,5,Pin_5*%
%TO.N,/Load Cell Sensor/E_p*%
X89900000Y-118470000D03*
%TD*%
D17*
%TO.P,J102,1,Pin_1*%
%TO.N,/Vbus2_in*%
X154722500Y-111040000D03*
D18*
%TO.P,J102,2,Pin_2*%
%TO.N,/Vbus2_out*%
X154722500Y-105960000D03*
%TD*%
D19*
%TO.P,R303,1*%
%TO.N,/Microprocessor/CHIP_EN*%
X112825000Y-111000000D03*
%TO.P,R303,2*%
%TO.N,+3.3V*%
X111175000Y-111000000D03*
%TD*%
D20*
%TO.P,C203,1*%
%TO.N,VIN*%
X126500000Y-117100000D03*
%TO.P,C203,2*%
%TO.N,GND*%
X126500000Y-114150000D03*
%TD*%
%TO.P,C204,1*%
%TO.N,VIN*%
X133500000Y-117475000D03*
%TO.P,C204,2*%
%TO.N,GND*%
X133500000Y-114525000D03*
%TD*%
D21*
%TO.P,U302,1,LNA_IN*%
%TO.N,/Microprocessor/RF*%
X116562500Y-92250000D03*
%TO.P,U302,2,VDD3P3*%
%TO.N,/Microprocessor/VDD33A*%
X116562500Y-92750000D03*
%TO.P,U302,3,VDD3P3*%
X116562500Y-93250000D03*
%TO.P,U302,4,XTAL_32K_P/ADC1_CH0*%
%TO.N,/Microprocessor/XTAL_32K_P*%
X116562500Y-93750000D03*
%TO.P,U302,5,XTAL_32K_N/ADC1_CH1*%
%TO.N,/Microprocessor/XTAL_32K_N*%
X116562500Y-94250000D03*
%TO.P,U302,6,GPIO2/ADC1_CH2*%
%TO.N,/Microprocessor/GPIO02_BOOT*%
X116562500Y-94750000D03*
%TO.P,U302,7,CHIP_EN*%
%TO.N,/Microprocessor/CHIP_EN*%
X116562500Y-95250000D03*
%TO.P,U302,8,GPIO3/ADC1_CH3*%
%TO.N,unconnected-(U302-GPIO3{slash}ADC1_CH3-Pad8)*%
X116562500Y-95750000D03*
D22*
%TO.P,U302,9,MTMS/GPIO4/ADC1_CH4*%
%TO.N,/Power Measurement/I2C_SDA*%
X117250000Y-96437500D03*
%TO.P,U302,10,MTDI/GPIO5/ADC2_CH0*%
%TO.N,/Power Measurement/I2C_SCL*%
X117750000Y-96437500D03*
%TO.P,U302,11,VDD3P3_RTC*%
%TO.N,+3.3V*%
X118250000Y-96437500D03*
%TO.P,U302,12,MTCK/GPIO6*%
%TO.N,unconnected-(U302-MTCK{slash}GPIO6-Pad12)*%
X118750000Y-96437500D03*
%TO.P,U302,13,MTDO/GPIO7*%
%TO.N,unconnected-(U302-MTDO{slash}GPIO7-Pad13)*%
X119250000Y-96437500D03*
%TO.P,U302,14,GPIO8*%
%TO.N,/Microprocessor/GPIO08_BOOT*%
X119750000Y-96437500D03*
%TO.P,U302,15,GPIO9/BOOT*%
%TO.N,/Microprocessor/GPIO09_BOOT*%
X120250000Y-96437500D03*
%TO.P,U302,16,GPIO10*%
%TO.N,unconnected-(U302-GPIO10-Pad16)*%
X120750000Y-96437500D03*
D21*
%TO.P,U302,17,VDD3P3_CPU*%
%TO.N,+3.3V*%
X121437500Y-95750000D03*
%TO.P,U302,18,VDD_SPI/GPIO11*%
%TO.N,/Microprocessor/SD_DET*%
X121437500Y-95250000D03*
%TO.P,U302,19,SPIHD/GPIO12*%
%TO.N,unconnected-(U302-SPIHD{slash}GPIO12-Pad19)*%
X121437500Y-94750000D03*
%TO.P,U302,20,SPIWP/GPIO13*%
%TO.N,unconnected-(U302-SPIWP{slash}GPIO13-Pad20)*%
X121437500Y-94250000D03*
%TO.P,U302,21,SPICS0/GPIO14*%
%TO.N,/Microprocessor/SD_CS*%
X121437500Y-93750000D03*
%TO.P,U302,22,SPICLK/GPIO15*%
%TO.N,/Microprocessor/SPI_SCK*%
X121437500Y-93250000D03*
%TO.P,U302,23,SPID/GPIO16*%
%TO.N,/Microprocessor/SPI_COPI*%
X121437500Y-92750000D03*
%TO.P,U302,24,SPIQ/GPIO17*%
%TO.N,/Microprocessor/SPI_CIPO*%
X121437500Y-92250000D03*
D22*
%TO.P,U302,25,GPIO18/USB_D-*%
%TO.N,/Microprocessor/USB_N*%
X120750000Y-91562500D03*
%TO.P,U302,26,GPIO19/USB_D+*%
%TO.N,/Microprocessor/USB_P*%
X120250000Y-91562500D03*
%TO.P,U302,27,U0RXD/GPIO20*%
%TO.N,unconnected-(U302-U0RXD{slash}GPIO20-Pad27)*%
X119750000Y-91562500D03*
%TO.P,U302,28,U0TXD/GPIO21*%
%TO.N,unconnected-(U302-U0TXD{slash}GPIO21-Pad28)*%
X119250000Y-91562500D03*
%TO.P,U302,29,XTAL_N*%
%TO.N,/Microprocessor/XTAL_N*%
X118750000Y-91562500D03*
%TO.P,U302,30,XTAL_P*%
%TO.N,/Microprocessor/XTAL_P*%
X118250000Y-91562500D03*
%TO.P,U302,31,VDDA*%
%TO.N,+3.3V*%
X117750000Y-91562500D03*
%TO.P,U302,32,VDDA*%
X117250000Y-91562500D03*
D23*
%TO.P,U302,33,GND*%
%TO.N,GND*%
X119000000Y-94000000D03*
%TD*%
D19*
%TO.P,R203,1*%
%TO.N,+3.3V*%
X125225000Y-109400000D03*
%TO.P,R203,2*%
%TO.N,P_GOOD*%
X123575000Y-109400000D03*
%TD*%
%TO.P,R201,1*%
%TO.N,+3.3V*%
X134825000Y-119500000D03*
%TO.P,R201,2*%
%TO.N,/Power/FB*%
X133175000Y-119500000D03*
%TD*%
D24*
%TO.P,R402,1*%
%TO.N,/Vbus2_in*%
X150000000Y-111632500D03*
%TO.P,R402,2*%
%TO.N,/Vbus2_out*%
X150000000Y-105707500D03*
%TD*%
D25*
%TO.P,C301,1*%
%TO.N,+3.3V*%
X120500000Y-99050000D03*
%TO.P,C301,2*%
%TO.N,GND*%
X120500000Y-100950000D03*
%TD*%
D26*
%TO.P,C304,1*%
%TO.N,+3.3V*%
X123225000Y-96000000D03*
%TO.P,C304,2*%
%TO.N,GND*%
X124775000Y-96000000D03*
%TD*%
D27*
%TO.P,R301,1*%
%TO.N,/Microprocessor/GPIO08_BOOT*%
X123500000Y-99175000D03*
%TO.P,R301,2*%
%TO.N,+3.3V*%
X123500000Y-100825000D03*
%TD*%
D20*
%TO.P,C202,1*%
%TO.N,VIN*%
X136000000Y-117475000D03*
%TO.P,C202,2*%
%TO.N,GND*%
X136000000Y-114525000D03*
%TD*%
D25*
%TO.P,C208,1*%
%TO.N,/Power/VCC*%
X128000000Y-119500000D03*
%TO.P,C208,2*%
%TO.N,GND*%
X128000000Y-121400000D03*
%TD*%
D28*
%TO.P,U201,1,PGND*%
%TO.N,GND*%
X129950000Y-114325000D03*
%TO.P,U201,2,VIN*%
%TO.N,VIN*%
X129950000Y-114975000D03*
%TO.P,U201,3,SW*%
%TO.N,/Power/SW*%
X129950000Y-115575000D03*
%TO.P,U201,4,BOOT*%
%TO.N,Net-(U201-BOOT)*%
X129950000Y-116100000D03*
D29*
%TO.P,U201,5,VCC*%
%TO.N,/Power/VCC*%
X130350000Y-116850000D03*
%TO.P,U201,6,AGND*%
%TO.N,GND*%
X130850000Y-116850000D03*
%TO.P,U201,7,FB*%
%TO.N,/Power/FB*%
X131350000Y-116850000D03*
D28*
%TO.P,U201,8,PG*%
%TO.N,P_GOOD*%
X131750000Y-116100000D03*
%TO.P,U201,9,EN*%
%TO.N,VIN*%
X131750000Y-115575000D03*
%TO.P,U201,10,VIN*%
X131750000Y-114975000D03*
%TO.P,U201,11,PGND*%
%TO.N,GND*%
X131750000Y-114325000D03*
D30*
%TO.P,U201,12,SW*%
%TO.N,/Power/SW*%
X130850000Y-114662000D03*
%TD*%
D15*
%TO.P,J501,1,Pin_1*%
%TO.N,GND*%
X89900000Y-114130000D03*
D16*
%TO.P,J501,2,Pin_2*%
%TO.N,/Load Cell Sensor/S1_P*%
X89900000Y-111590000D03*
%TO.P,J501,3,Pin_3*%
%TO.N,/Load Cell Sensor/S1_N*%
X89900000Y-109050000D03*
%TO.P,J501,4,Pin_4*%
%TO.N,GND*%
X89900000Y-106510000D03*
%TO.P,J501,5,Pin_5*%
%TO.N,/Load Cell Sensor/E_p*%
X89900000Y-103970000D03*
%TD*%
D31*
%TO.P,C307,1*%
%TO.N,/Microprocessor/VDD33A*%
X112000000Y-93000000D03*
%TO.P,C307,2*%
%TO.N,GND*%
X110450000Y-93000000D03*
%TD*%
D32*
%TO.P,C601,1*%
%TO.N,+3.3V*%
X93500000Y-86000000D03*
%TO.P,C601,2*%
%TO.N,GND*%
X93500000Y-84100000D03*
%TD*%
D33*
%TO.P,R101,1*%
%TO.N,+3.3V*%
X118000000Y-106825000D03*
%TO.P,R101,2*%
%TO.N,/Power Measurement/I2C_SCL*%
X118000000Y-105175000D03*
%TD*%
D31*
%TO.P,C309,1*%
%TO.N,Net-(C309-Pad1)*%
X108950000Y-100000000D03*
%TO.P,C309,2*%
%TO.N,GND*%
X107400000Y-100000000D03*
%TD*%
D34*
%TO.P,L301,1*%
%TO.N,+3.3V*%
X110240000Y-94500000D03*
%TO.P,L301,2*%
%TO.N,/Microprocessor/VDD33A*%
X111210000Y-94500000D03*
%TD*%
D35*
%TO.P,C312,1*%
%TO.N,/Microprocessor/XTAL_N*%
X121000000Y-85225000D03*
%TO.P,C312,2*%
%TO.N,GND*%
X121000000Y-86775000D03*
%TD*%
D36*
%TO.P,U501,1,REFP*%
%TO.N,/Load Cell Sensor/E_p*%
X95050000Y-112110000D03*
%TO.P,U501,2,VIN1N*%
%TO.N,/Load Cell Sensor/S1_N*%
X95050000Y-113380000D03*
%TO.P,U501,3,VIN1P*%
%TO.N,/Load Cell Sensor/S1_P*%
X95050000Y-114650000D03*
%TO.P,U501,4,VIN2N*%
%TO.N,/Load Cell Sensor/S2_N*%
X95050000Y-115920000D03*
%TO.P,U501,5,VIN2P*%
%TO.N,/Load Cell Sensor/S2_P*%
X95050000Y-117190000D03*
%TO.P,U501,6,VBG*%
%TO.N,Net-(U501-VBG)*%
X95050000Y-118460000D03*
%TO.P,U501,7,REFN*%
%TO.N,GND*%
X95050000Y-119730000D03*
%TO.P,U501,8,AGND*%
X95050000Y-121000000D03*
%TO.P,U501,9,GND*%
X100000000Y-121000000D03*
%TO.P,U501,10,XIN*%
%TO.N,unconnected-(U501-XIN-Pad10)*%
X100000000Y-119730000D03*
%TO.P,U501,11,XOUT*%
%TO.N,unconnected-(U501-XOUT-Pad11)*%
X100000000Y-118460000D03*
%TO.P,U501,12,DRDY*%
%TO.N,/Load Cell Sensor/DRDY_NAU*%
X100000000Y-117190000D03*
%TO.P,U501,13,SCK*%
%TO.N,/Power Measurement/I2C_SCL*%
X100000000Y-115920000D03*
%TO.P,U501,14,SDA*%
%TO.N,/Power Measurement/I2C_SDA*%
X100000000Y-114650000D03*
%TO.P,U501,15,Vdd*%
%TO.N,+3.3V*%
X100000000Y-113380000D03*
%TO.P,U501,16,VddA*%
%TO.N,/Load Cell Sensor/E_p*%
X100000000Y-112110000D03*
%TD*%
D26*
%TO.P,C402,1*%
%TO.N,+3.3V*%
X143947500Y-105670000D03*
%TO.P,C402,2*%
%TO.N,GND*%
X145497500Y-105670000D03*
%TD*%
D37*
%TO.P,Y302,1,1*%
%TO.N,Net-(C311-Pad1)*%
X117800000Y-86550000D03*
%TO.P,Y302,2,2*%
%TO.N,GND*%
X119200000Y-86550000D03*
%TO.P,Y302,3,3*%
%TO.N,/Microprocessor/XTAL_N*%
X119200000Y-85450000D03*
%TO.P,Y302,4,4*%
%TO.N,GND*%
X117800000Y-85450000D03*
%TD*%
D17*
%TO.P,J101,1,Pin_1*%
%TO.N,/Vbus1_in*%
X154722500Y-125250000D03*
D18*
%TO.P,J101,2,Pin_2*%
%TO.N,VIN*%
X154722500Y-120170000D03*
%TD*%
D38*
%TO.P,C504,1*%
%TO.N,GND*%
X98425000Y-123055000D03*
%TO.P,C504,2*%
%TO.N,Net-(U501-VBG)*%
X96525000Y-123055000D03*
%TD*%
D39*
%TO.P,J302,1,DAT2*%
%TO.N,GND*%
X134500000Y-79450000D03*
%TO.P,J302,2,DAT3/CD*%
%TO.N,/Microprocessor/SD_CS*%
X134500000Y-80550000D03*
%TO.P,J302,3,CMD*%
%TO.N,/Microprocessor/SPI_COPI*%
X134500000Y-81650000D03*
%TO.P,J302,4,VDD*%
%TO.N,+3.3V*%
X134500000Y-82750000D03*
%TO.P,J302,5,CLK*%
%TO.N,/Microprocessor/SPI_SCK*%
X134500000Y-83850000D03*
%TO.P,J302,6,VSS*%
%TO.N,GND*%
X134500000Y-84950000D03*
%TO.P,J302,7,DAT0*%
%TO.N,/Microprocessor/SPI_CIPO*%
X134500000Y-86050000D03*
%TO.P,J302,8,DAT1*%
%TO.N,GND*%
X134500000Y-87150000D03*
%TO.P,J302,9,DET_B*%
X134500000Y-78350000D03*
%TO.P,J302,10,DET_A*%
%TO.N,/Microprocessor/SD_DET*%
X134500000Y-77250000D03*
%TO.P,J302,11,SHIELD*%
%TO.N,unconnected-(J302-SHIELD-Pad11)*%
X142250000Y-75250000D03*
X142250000Y-89750000D03*
%TD*%
D40*
%TO.P,L201,1*%
%TO.N,/Power/SW*%
X131000000Y-112350000D03*
%TO.P,L201,2*%
%TO.N,+3.3V*%
X131000000Y-109550000D03*
%TD*%
D41*
%TO.P,C503,1*%
%TO.N,/Load Cell Sensor/E_p*%
X96525000Y-108055000D03*
%TO.P,C503,2*%
%TO.N,GND*%
X98425000Y-108055000D03*
%TD*%
D35*
%TO.P,C302,1*%
%TO.N,+3.3V*%
X118500000Y-98725000D03*
%TO.P,C302,2*%
%TO.N,GND*%
X118500000Y-100275000D03*
%TD*%
D42*
%TO.P,Y301,1,1*%
%TO.N,Net-(C309-Pad1)*%
X108675000Y-101750000D03*
%TO.P,Y301,2,2*%
%TO.N,/Microprocessor/XTAL_32K_N*%
X108675000Y-104250000D03*
%TD*%
D24*
%TO.P,R401,1*%
%TO.N,/Vbus1_in*%
X150000000Y-125632500D03*
%TO.P,R401,2*%
%TO.N,VIN*%
X150000000Y-119707500D03*
%TD*%
D33*
%TO.P,R305,1*%
%TO.N,/Microprocessor/XTAL_P*%
X118000000Y-89825000D03*
%TO.P,R305,2*%
%TO.N,Net-(C311-Pad1)*%
X118000000Y-88175000D03*
%TD*%
D38*
%TO.P,C308,1*%
%TO.N,/Microprocessor/CHIP_EN*%
X112950000Y-109000000D03*
%TO.P,C308,2*%
%TO.N,GND*%
X111050000Y-109000000D03*
%TD*%
D14*
%TO.P,C311,1*%
%TO.N,Net-(C311-Pad1)*%
X116000000Y-86775000D03*
%TO.P,C311,2*%
%TO.N,GND*%
X116000000Y-85225000D03*
%TD*%
D31*
%TO.P,C310,1*%
%TO.N,/Microprocessor/XTAL_32K_N*%
X108950000Y-106000000D03*
%TO.P,C310,2*%
%TO.N,GND*%
X107400000Y-106000000D03*
%TD*%
D35*
%TO.P,C314,1*%
%TO.N,/Microprocessor/RF_ANT*%
X109000000Y-90725000D03*
%TO.P,C314,2*%
%TO.N,GND*%
X109000000Y-92275000D03*
%TD*%
D19*
%TO.P,R304,1*%
%TO.N,/Microprocessor/XTAL_32K_P*%
X112500000Y-101500000D03*
%TO.P,R304,2*%
%TO.N,Net-(C309-Pad1)*%
X110850000Y-101500000D03*
%TD*%
D31*
%TO.P,C306,1*%
%TO.N,+3.3V*%
X112000000Y-96000000D03*
%TO.P,C306,2*%
%TO.N,GND*%
X110450000Y-96000000D03*
%TD*%
D14*
%TO.P,C303,1*%
%TO.N,+3.3V*%
X116500000Y-90000000D03*
%TO.P,C303,2*%
%TO.N,GND*%
X116500000Y-88450000D03*
%TD*%
D19*
%TO.P,R302,1*%
%TO.N,/Microprocessor/GPIO02_BOOT*%
X112825000Y-105500000D03*
%TO.P,R302,2*%
%TO.N,+3.3V*%
X111175000Y-105500000D03*
%TD*%
D32*
%TO.P,C501,1*%
%TO.N,+3.3V*%
X103000000Y-113450000D03*
%TO.P,C501,2*%
%TO.N,GND*%
X103000000Y-111550000D03*
%TD*%
D38*
%TO.P,C207,1*%
%TO.N,+3.3V*%
X134950000Y-121500000D03*
%TO.P,C207,2*%
%TO.N,/Power/FB*%
X133050000Y-121500000D03*
%TD*%
D43*
%TO.P,C206,1*%
%TO.N,+3.3V*%
X134500000Y-109525000D03*
%TO.P,C206,2*%
%TO.N,GND*%
X134500000Y-112475000D03*
%TD*%
D41*
%TO.P,C502,1*%
%TO.N,/Load Cell Sensor/E_p*%
X96525000Y-110055000D03*
%TO.P,C502,2*%
%TO.N,GND*%
X98425000Y-110055000D03*
%TD*%
D26*
%TO.P,C401,1*%
%TO.N,+3.3V*%
X143947500Y-120170000D03*
%TO.P,C401,2*%
%TO.N,GND*%
X145497500Y-120170000D03*
%TD*%
D44*
%TO.P,JP201,1,A*%
%TO.N,+5V*%
X132950000Y-73250000D03*
D45*
%TO.P,JP201,2,B*%
%TO.N,VIN*%
X134250000Y-73250000D03*
%TD*%
D25*
%TO.P,C505,1*%
%TO.N,/Load Cell Sensor/S2_N*%
X92975000Y-123105000D03*
%TO.P,C505,2*%
%TO.N,/Load Cell Sensor/S2_P*%
X92975000Y-125005000D03*
%TD*%
D38*
%TO.P,C305,1*%
%TO.N,+3.3V*%
X111950000Y-98000000D03*
%TO.P,C305,2*%
%TO.N,GND*%
X110050000Y-98000000D03*
%TD*%
D46*
%TO.P,J301,1,VBUS*%
%TO.N,+5V*%
X125500000Y-74302500D03*
%TO.P,J301,2,D-*%
%TO.N,/Microprocessor/USB_N*%
X124850000Y-74302500D03*
%TO.P,J301,3,D+*%
%TO.N,/Microprocessor/USB_P*%
X124200000Y-74302500D03*
%TO.P,J301,4,ID*%
%TO.N,unconnected-(J301-ID-Pad4)*%
X123550000Y-74302500D03*
%TO.P,J301,5,GND*%
%TO.N,GND*%
X122900000Y-74302500D03*
D47*
%TO.P,J301,6,Shield*%
%TO.N,unconnected-(J301-Shield-Pad6)*%
X127700000Y-71602500D03*
D48*
X127100000Y-71602500D03*
D49*
X126700000Y-74302500D03*
D50*
X125200000Y-71602500D03*
X123200000Y-71602500D03*
D49*
X121700000Y-74302500D03*
D48*
X121300000Y-71602500D03*
D47*
X120700000Y-71602500D03*
%TD*%
D51*
%TO.P,L302,1*%
%TO.N,/Microprocessor/RF*%
X112287500Y-91000000D03*
%TO.P,L302,2*%
%TO.N,/Microprocessor/RF_ANT*%
X110712500Y-91000000D03*
%TD*%
D14*
%TO.P,C313,1*%
%TO.N,/Microprocessor/RF*%
X114000000Y-91275000D03*
%TO.P,C313,2*%
%TO.N,GND*%
X114000000Y-89725000D03*
%TD*%
D52*
%TO.P,U601,1,SDA*%
%TO.N,/Power Measurement/I2C_SDA*%
X90100000Y-84700000D03*
%TO.P,U601,2,SCL*%
%TO.N,/Power Measurement/I2C_SCL*%
X90100000Y-85500000D03*
%TO.P,U601,3,VDD*%
%TO.N,+3.3V*%
X91500000Y-85500000D03*
%TO.P,U601,4,VSS*%
%TO.N,GND*%
X91500000Y-84700000D03*
%TD*%
D53*
%TO.P,U301,1,IO1*%
%TO.N,/Microprocessor/USB_N*%
X125000000Y-79225000D03*
%TO.P,U301,2,GND*%
%TO.N,GND*%
X124050000Y-79225000D03*
%TO.P,U301,3*%
%TO.N,N/C*%
X123100000Y-79225000D03*
%TO.P,U301,4,IO2*%
%TO.N,/Microprocessor/USB_P*%
X123100000Y-81500000D03*
%TO.P,U301,5,VCC*%
%TO.N,+3.3V*%
X124050000Y-81500000D03*
%TO.P,U301,6*%
%TO.N,N/C*%
X125000000Y-81500000D03*
%TD*%
D25*
%TO.P,C506,1*%
%TO.N,/Load Cell Sensor/S1_N*%
X92975000Y-108105000D03*
%TO.P,C506,2*%
%TO.N,/Load Cell Sensor/S1_P*%
X92975000Y-110005000D03*
%TD*%
D43*
%TO.P,C205,1*%
%TO.N,+3.3V*%
X127500000Y-109500000D03*
%TO.P,C205,2*%
%TO.N,GND*%
X127500000Y-112450000D03*
%TD*%
D19*
%TO.P,R202,1*%
%TO.N,/Power/FB*%
X131650000Y-118000000D03*
%TO.P,R202,2*%
%TO.N,GND*%
X130000000Y-118000000D03*
%TD*%
D54*
%TO.P,U401,1,A1*%
%TO.N,+3.3V*%
X142522500Y-122170000D03*
%TO.P,U401,2,A0*%
%TO.N,/Power Measurement/I2C_SDA*%
X142522500Y-122670000D03*
%TO.P,U401,3,~{Alert}*%
%TO.N,unconnected-(U401-~{Alert}-Pad3)*%
X142522500Y-123170000D03*
%TO.P,U401,4,SDA*%
%TO.N,/Power Measurement/I2C_SDA*%
X142522500Y-123670000D03*
%TO.P,U401,5,SCL*%
%TO.N,/Power Measurement/I2C_SCL*%
X142522500Y-124170000D03*
%TO.P,U401,6,VS*%
%TO.N,+3.3V*%
X146922500Y-124170000D03*
%TO.P,U401,7,GND*%
%TO.N,GND*%
X146922500Y-123670000D03*
%TO.P,U401,8,Vbus*%
%TO.N,/Vbus1_in*%
X146922500Y-123170000D03*
%TO.P,U401,9,Vin-*%
%TO.N,VIN*%
X146922500Y-122670000D03*
%TO.P,U401,10,Vin+*%
%TO.N,/Vbus1_in*%
X146922500Y-122170000D03*
%TD*%
%TO.P,U402,1,A1*%
%TO.N,+3.3V*%
X142522500Y-107670000D03*
%TO.P,U402,2,A0*%
%TO.N,/Power Measurement/I2C_SCL*%
X142522500Y-108170000D03*
%TO.P,U402,3,~{Alert}*%
%TO.N,unconnected-(U402-~{Alert}-Pad3)*%
X142522500Y-108670000D03*
%TO.P,U402,4,SDA*%
%TO.N,/Power Measurement/I2C_SDA*%
X142522500Y-109170000D03*
%TO.P,U402,5,SCL*%
%TO.N,/Power Measurement/I2C_SCL*%
X142522500Y-109670000D03*
%TO.P,U402,6,VS*%
%TO.N,+3.3V*%
X146922500Y-109670000D03*
%TO.P,U402,7,GND*%
%TO.N,GND*%
X146922500Y-109170000D03*
%TO.P,U402,8,Vbus*%
%TO.N,/Vbus2_in*%
X146922500Y-108670000D03*
%TO.P,U402,9,Vin-*%
%TO.N,/Vbus2_out*%
X146922500Y-108170000D03*
%TO.P,U402,10,Vin+*%
%TO.N,/Vbus2_in*%
X146922500Y-107670000D03*
%TD*%
D33*
%TO.P,R102,1*%
%TO.N,+3.3V*%
X116500000Y-106825000D03*
%TO.P,R102,2*%
%TO.N,/Power Measurement/I2C_SDA*%
X116500000Y-105175000D03*
%TD*%
D55*
%TO.N,GND*%
X102500000Y-90000000D03*
X105500000Y-93000000D03*
X105500000Y-88000000D03*
%TO.N,VIN*%
X126000000Y-118100000D03*
X137400000Y-118000000D03*
X125000000Y-118000000D03*
X150400000Y-121200000D03*
X127100000Y-118100000D03*
X149400000Y-121200000D03*
X133100000Y-116400000D03*
X137400000Y-116400000D03*
X136400000Y-116400000D03*
X152400000Y-121200000D03*
X134200000Y-116400000D03*
X152400000Y-120200000D03*
X135400000Y-116400000D03*
X125010260Y-116475000D03*
X152400000Y-119200000D03*
X151400000Y-121200000D03*
%TO.N,GND*%
X119000000Y-87500000D03*
X130750000Y-119250000D03*
X117750000Y-92750000D03*
X99500000Y-123000000D03*
X115000000Y-85000000D03*
X109000000Y-98000000D03*
X99945000Y-108055000D03*
X146500000Y-120500000D03*
X98500000Y-121000000D03*
X126000000Y-112750000D03*
X137000000Y-94500000D03*
X109250000Y-96000000D03*
X136250000Y-113000000D03*
X139000000Y-94500000D03*
X106917351Y-105392045D03*
X106000000Y-100000000D03*
X115500000Y-88500000D03*
X133000000Y-85000000D03*
X125000000Y-114000000D03*
X137500000Y-114000000D03*
X120500000Y-102000000D03*
X109500000Y-109000000D03*
X128000000Y-122750000D03*
X124250000Y-78000000D03*
X95000000Y-120500000D03*
X129250000Y-110750000D03*
X133000000Y-79500000D03*
X135250000Y-113500000D03*
X120250000Y-92750000D03*
X94750000Y-84750000D03*
X128250000Y-114000000D03*
X100000000Y-110000000D03*
X118500000Y-101250000D03*
X117750000Y-95250000D03*
X132500000Y-78500000D03*
X118000000Y-84500000D03*
X129250000Y-114000000D03*
X110000000Y-92000000D03*
X136250000Y-111000000D03*
X136250000Y-112000000D03*
X120250000Y-94000000D03*
X126000000Y-111750000D03*
X125000000Y-115000000D03*
X130500000Y-110750000D03*
X146500000Y-105500000D03*
X119000001Y-94000001D03*
X113500000Y-88500000D03*
X126000000Y-110750000D03*
X122481263Y-77481263D03*
X104500000Y-111500000D03*
X134250000Y-113500000D03*
X132250000Y-114000000D03*
X133000000Y-87500000D03*
X137250000Y-113000000D03*
X126000000Y-96000000D03*
X145200000Y-121200000D03*
X109438725Y-93966130D03*
X117750000Y-94000000D03*
X121000000Y-88000000D03*
X131500000Y-110750000D03*
X132500000Y-110750000D03*
X120250000Y-95250000D03*
X125000000Y-113000000D03*
%TO.N,+3.3V*%
X110000000Y-111000000D03*
X111000000Y-106500000D03*
X142500000Y-120500000D03*
X126250000Y-108000000D03*
X124000000Y-83000000D03*
X136250000Y-109750000D03*
X133250000Y-108000000D03*
X132250000Y-108000000D03*
X127250000Y-108000000D03*
X131250000Y-108000000D03*
X115500000Y-90000000D03*
X142500000Y-106000000D03*
X123750000Y-95250000D03*
X134250000Y-108000000D03*
X130250000Y-108000000D03*
X119000000Y-106750000D03*
X94750000Y-85750000D03*
X128250000Y-108000000D03*
X112000000Y-99500000D03*
X136000000Y-121500000D03*
X136250000Y-108750000D03*
X129250000Y-108000000D03*
X126000000Y-109750000D03*
X133000000Y-83000000D03*
X135250000Y-108000000D03*
X104500000Y-113500000D03*
X119750000Y-98250000D03*
X125250000Y-108000000D03*
%TO.N,/Microprocessor/SD_CS*%
X132000000Y-84500000D03*
X132500000Y-80500000D03*
%TO.N,/Microprocessor/SPI_CIPO*%
X128000000Y-85500000D03*
X131000000Y-88000000D03*
%TO.N,/Microprocessor/SD_DET*%
X132000000Y-77500000D03*
X131000000Y-86500000D03*
%TO.N,P_GOOD*%
X132074500Y-116800000D03*
X122800000Y-110600000D03*
%TO.N,/Vbus1_in*%
X148400000Y-124400000D03*
X152400000Y-124400000D03*
X152400000Y-125800000D03*
X149400000Y-124400000D03*
X151400000Y-124400000D03*
X150400000Y-124400000D03*
%TO.N,/Vbus2_in*%
X152400000Y-111400000D03*
X150400000Y-110400000D03*
X151400000Y-110400000D03*
X149400000Y-110400000D03*
X152400000Y-112400000D03*
X152400000Y-110400000D03*
%TO.N,/Vbus2_out*%
X152400000Y-107000000D03*
X152400000Y-106000000D03*
X151400000Y-107000000D03*
X150400000Y-107000000D03*
X149400000Y-107000000D03*
X152400000Y-105000000D03*
%TO.N,/Power Measurement/I2C_SCL*%
X140371019Y-109646325D03*
X106500000Y-115920000D03*
X140273198Y-107226802D03*
X106500000Y-110500000D03*
%TO.N,/Power Measurement/I2C_SDA*%
X119500000Y-108000000D03*
X115000000Y-106000000D03*
%TD*%
D56*
%TO.N,+3.3V*%
X121437500Y-95750000D02*
X122975000Y-95750000D01*
X122975000Y-95750000D02*
X123225000Y-96000000D01*
%TO.N,VIN*%
X134250000Y-73250000D02*
X145750000Y-73250000D01*
X145750000Y-73250000D02*
X149500000Y-77000000D01*
X149500000Y-77000000D02*
X149500000Y-97000000D01*
X149500000Y-97000000D02*
X159500000Y-107000000D01*
X159500000Y-107000000D02*
X159500000Y-115392500D01*
X159500000Y-115392500D02*
X154722500Y-120170000D01*
%TO.N,GND*%
X104000000Y-90475000D02*
X102975000Y-90475000D01*
X102975000Y-90475000D02*
X102500000Y-90000000D01*
X105500000Y-91950000D02*
X105500000Y-93000000D01*
X105500000Y-89000000D02*
X105500000Y-88000000D01*
D57*
%TO.N,/Microprocessor/RF_ANT*%
X109000000Y-90725000D02*
X107250000Y-90725000D01*
X107250000Y-90725000D02*
X107000000Y-90475000D01*
D56*
%TO.N,/Power Measurement/I2C_SCL*%
X106500000Y-109363604D02*
X106500000Y-110500000D01*
%TO.N,/Power Measurement/I2C_SDA*%
X105313604Y-112463604D02*
X105313604Y-105813604D01*
X105313604Y-105813604D02*
X89475000Y-89975000D01*
%TO.N,/Power Measurement/I2C_SCL*%
X89925000Y-86225000D02*
X105763604Y-102063604D01*
%TO.N,/Power Measurement/I2C_SDA*%
X89475000Y-89975000D02*
X89475000Y-85225000D01*
X89475000Y-85225000D02*
X90000000Y-84700000D01*
%TO.N,/Power Measurement/I2C_SCL*%
X89925000Y-85575000D02*
X89925000Y-86225000D01*
X90100000Y-85500000D02*
X90000000Y-85500000D01*
%TO.N,/Power Measurement/I2C_SDA*%
X107500000Y-114650000D02*
X105313604Y-112463604D01*
%TO.N,/Power Measurement/I2C_SCL*%
X90000000Y-85500000D02*
X89925000Y-85575000D01*
X105763604Y-108627208D02*
X106500000Y-109363604D01*
X105763604Y-102063604D02*
X105763604Y-108627208D01*
%TO.N,/Power Measurement/I2C_SDA*%
X90000000Y-84700000D02*
X90100000Y-84700000D01*
%TO.N,Net-(U201-BOOT)*%
X128500000Y-117775000D02*
X128500000Y-117550000D01*
X128500000Y-117550000D02*
X129950000Y-116100000D01*
D58*
%TO.N,VIN*%
X127838173Y-114975000D02*
X129950000Y-114975000D01*
D56*
X150222500Y-120160685D02*
X150222500Y-119707500D01*
D58*
X126500000Y-116313173D02*
X127838173Y-114975000D01*
D56*
X146922500Y-122670000D02*
X147713185Y-122670000D01*
D58*
X126500000Y-116313173D02*
X126500000Y-117100000D01*
D56*
X147713185Y-122670000D02*
X150222500Y-120160685D01*
%TO.N,GND*%
X145497500Y-120170000D02*
X146170000Y-120170000D01*
X145422500Y-105745000D02*
X145497500Y-105670000D01*
X115225000Y-85225000D02*
X115000000Y-85000000D01*
X134500000Y-78350000D02*
X132650000Y-78350000D01*
X117800000Y-84700000D02*
X118000000Y-84500000D01*
X104450000Y-111550000D02*
X104500000Y-111500000D01*
X95050000Y-120550000D02*
X95000000Y-120500000D01*
X117800000Y-85450000D02*
X117800000Y-84700000D01*
X130000000Y-119400000D02*
X130000000Y-118000000D01*
X128000000Y-121400000D02*
X130000000Y-119400000D01*
X140750000Y-92750000D02*
X139000000Y-94500000D01*
X95050000Y-119730000D02*
X95050000Y-120450000D01*
X122900000Y-77062526D02*
X122481263Y-77481263D01*
X145497500Y-105670000D02*
X146330000Y-105670000D01*
X98425000Y-108055000D02*
X99945000Y-108055000D01*
X119000000Y-94000000D02*
X117750000Y-94000000D01*
X145200000Y-122874581D02*
X145995419Y-123670000D01*
X145995419Y-123670000D02*
X146922500Y-123670000D01*
X119200000Y-87300000D02*
X119000000Y-87500000D01*
X114000000Y-89000000D02*
X113500000Y-88500000D01*
X145200000Y-121200000D02*
X145200000Y-122874581D01*
X134500000Y-84950000D02*
X133050000Y-84950000D01*
X133050000Y-84950000D02*
X133000000Y-85000000D01*
X133350000Y-87150000D02*
X133000000Y-87500000D01*
X115550000Y-88450000D02*
X115500000Y-88500000D01*
X122900000Y-74302500D02*
X122900000Y-77062526D01*
X99945000Y-110055000D02*
X100000000Y-110000000D01*
X119200000Y-86550000D02*
X119200000Y-87300000D01*
X120500000Y-100950000D02*
X120500000Y-102000000D01*
X100000000Y-121000000D02*
X98500000Y-121000000D01*
X135250000Y-92750000D02*
X137000000Y-94500000D01*
X134750000Y-92750000D02*
X135250000Y-92750000D01*
X110450000Y-93000000D02*
X110404855Y-93000000D01*
X109000000Y-92275000D02*
X109725000Y-92275000D01*
X124050000Y-78200000D02*
X124250000Y-78000000D01*
X103000000Y-111550000D02*
X104450000Y-111550000D01*
X91500000Y-84700000D02*
X92900000Y-84700000D01*
X124775000Y-96000000D02*
X126000000Y-96000000D01*
X94100000Y-84100000D02*
X94750000Y-84750000D01*
X145422500Y-108597081D02*
X145422500Y-105745000D01*
X130000000Y-118000000D02*
X130000000Y-118500000D01*
X109725000Y-92275000D02*
X110000000Y-92000000D01*
X119000000Y-94000000D02*
X117750000Y-95250000D01*
X95050000Y-121000000D02*
X95050000Y-120550000D01*
X110050000Y-98000000D02*
X109000000Y-98000000D01*
X95050000Y-120450000D02*
X95000000Y-120500000D01*
X116000000Y-85225000D02*
X115225000Y-85225000D01*
X114000000Y-89725000D02*
X114000000Y-89000000D01*
X93500000Y-84100000D02*
X94100000Y-84100000D01*
X92900000Y-84700000D02*
X93500000Y-84100000D01*
X146330000Y-105670000D02*
X146500000Y-105500000D01*
X131750000Y-114325000D02*
X131775000Y-114325000D01*
X134500000Y-79450000D02*
X133050000Y-79450000D01*
X116500000Y-88450000D02*
X115550000Y-88450000D01*
X99445000Y-123055000D02*
X99500000Y-123000000D01*
X110404855Y-93000000D02*
X109438725Y-93966130D01*
X146170000Y-120170000D02*
X146500000Y-120500000D01*
X111050000Y-109000000D02*
X109500000Y-109000000D01*
X134500000Y-87150000D02*
X133350000Y-87150000D01*
X141250000Y-92750000D02*
X140750000Y-92750000D01*
X98425000Y-123055000D02*
X99445000Y-123055000D01*
X133050000Y-79450000D02*
X133000000Y-79500000D01*
X118500000Y-100275000D02*
X118500000Y-101250000D01*
X132650000Y-78350000D02*
X132500000Y-78500000D01*
X110450000Y-96000000D02*
X109250000Y-96000000D01*
X121000000Y-86775000D02*
X121000000Y-88000000D01*
X106917351Y-105517351D02*
X106917351Y-105392045D01*
X107400000Y-106000000D02*
X106917351Y-105517351D01*
X145497500Y-120170000D02*
X145497500Y-120902500D01*
X146922500Y-109170000D02*
X145995419Y-109170000D01*
X107400000Y-100000000D02*
X106000000Y-100000000D01*
X145497500Y-120902500D02*
X145200000Y-121200000D01*
X124050000Y-79225000D02*
X124050000Y-78200000D01*
X145995419Y-109170000D02*
X145422500Y-108597081D01*
X98425000Y-110055000D02*
X99945000Y-110055000D01*
X130000000Y-118500000D02*
X130750000Y-119250000D01*
X128000000Y-121400000D02*
X128000000Y-122750000D01*
%TO.N,+3.3V*%
X116500000Y-90812500D02*
X117250000Y-91562500D01*
X144420000Y-109670000D02*
X146922500Y-109670000D01*
X118925000Y-106825000D02*
X119000000Y-106750000D01*
X134950000Y-121500000D02*
X134950000Y-119625000D01*
X123225000Y-96000000D02*
X123225000Y-95775000D01*
X144570000Y-124170000D02*
X144200000Y-123800000D01*
X142522500Y-121595000D02*
X143947500Y-120170000D01*
X111950000Y-98000000D02*
X111950000Y-96050000D01*
X124050000Y-81500000D02*
X124050000Y-82950000D01*
X111950000Y-98000000D02*
X111950000Y-99450000D01*
X116500000Y-90000000D02*
X116500000Y-90312500D01*
X116500000Y-90000000D02*
X116500000Y-90812500D01*
X111175000Y-106325000D02*
X111000000Y-106500000D01*
X142830000Y-105670000D02*
X142500000Y-106000000D01*
X120500000Y-99000000D02*
X119750000Y-98250000D01*
X142522500Y-107670000D02*
X142522500Y-107095000D01*
X118000000Y-106825000D02*
X118925000Y-106825000D01*
X93500000Y-86000000D02*
X93000000Y-85500000D01*
X111721784Y-96000000D02*
X110240000Y-94518216D01*
X142522500Y-122170000D02*
X142522500Y-121595000D01*
X93000000Y-85500000D02*
X91500000Y-85500000D01*
X143947500Y-105670000D02*
X142830000Y-105670000D01*
X112000000Y-96000000D02*
X111721784Y-96000000D01*
X111950000Y-96050000D02*
X112000000Y-96000000D01*
X118250000Y-98475000D02*
X118250000Y-96437500D01*
X100070000Y-113450000D02*
X100000000Y-113380000D01*
X124050000Y-82950000D02*
X124000000Y-83000000D01*
X111950000Y-99450000D02*
X112000000Y-99500000D01*
X144200000Y-120422500D02*
X143947500Y-120170000D01*
X94500000Y-86000000D02*
X94750000Y-85750000D01*
X146922500Y-124170000D02*
X144570000Y-124170000D01*
X93500000Y-86000000D02*
X94500000Y-86000000D01*
X104450000Y-113450000D02*
X104500000Y-113500000D01*
X144250000Y-105972500D02*
X144250000Y-109500000D01*
X133250000Y-82750000D02*
X133000000Y-83000000D01*
X103000000Y-113450000D02*
X104450000Y-113450000D01*
X110240000Y-94518216D02*
X110240000Y-94500000D01*
X116500000Y-106825000D02*
X118000000Y-106825000D01*
X103000000Y-113450000D02*
X100070000Y-113450000D01*
X111175000Y-111000000D02*
X110000000Y-111000000D01*
X143947500Y-120170000D02*
X142830000Y-120170000D01*
X120500000Y-99050000D02*
X119500000Y-99050000D01*
X116500000Y-90312500D02*
X117750000Y-91562500D01*
X144250000Y-109500000D02*
X144420000Y-109670000D01*
X142830000Y-120170000D02*
X142500000Y-120500000D01*
X143947500Y-105670000D02*
X144250000Y-105972500D01*
X122275000Y-100825000D02*
X120500000Y-99050000D01*
X123500000Y-100825000D02*
X122275000Y-100825000D01*
X118500000Y-98725000D02*
X118250000Y-98475000D01*
X134500000Y-82750000D02*
X133250000Y-82750000D01*
X120500000Y-99050000D02*
X120500000Y-99000000D01*
X119500000Y-99050000D02*
X118825000Y-99050000D01*
X134950000Y-119625000D02*
X134825000Y-119500000D01*
X118825000Y-99050000D02*
X118500000Y-98725000D01*
X142522500Y-107095000D02*
X143947500Y-105670000D01*
X116500000Y-90000000D02*
X115500000Y-90000000D01*
X134950000Y-121500000D02*
X136000000Y-121500000D01*
X111175000Y-105500000D02*
X111175000Y-106325000D01*
X123225000Y-95775000D02*
X123750000Y-95250000D01*
X144200000Y-123800000D02*
X144200000Y-120422500D01*
%TO.N,/Microprocessor/VDD33A*%
X111210000Y-93790000D02*
X112000000Y-93000000D01*
X116312500Y-93000000D02*
X116562500Y-92750000D01*
X111210000Y-94500000D02*
X111210000Y-93790000D01*
X116312500Y-93000000D02*
X116562500Y-93250000D01*
X112000000Y-93000000D02*
X116312500Y-93000000D01*
%TO.N,/Microprocessor/CHIP_EN*%
X112825000Y-109125000D02*
X112950000Y-109000000D01*
X115800000Y-103742462D02*
X115800000Y-95526992D01*
X112950000Y-109000000D02*
X112950000Y-106592462D01*
X116076992Y-95250000D02*
X116562500Y-95250000D01*
X112950000Y-106592462D02*
X115800000Y-103742462D01*
X112825000Y-111000000D02*
X112825000Y-109125000D01*
X115800000Y-95526992D02*
X116076992Y-95250000D01*
%TO.N,Net-(C309-Pad1)*%
X110850000Y-101500000D02*
X108925000Y-101500000D01*
X108675000Y-100275000D02*
X108950000Y-100000000D01*
X108925000Y-101500000D02*
X108675000Y-101750000D01*
X108675000Y-101750000D02*
X108675000Y-100275000D01*
D59*
%TO.N,/Microprocessor/XTAL_32K_N*%
X113575000Y-101607107D02*
X110932107Y-104250000D01*
X108675000Y-105725000D02*
X108950000Y-106000000D01*
X116562500Y-94250000D02*
X115839556Y-94250000D01*
X108675000Y-104250000D02*
X108675000Y-105725000D01*
X113575000Y-96514556D02*
X113575000Y-101607107D01*
X115839556Y-94250000D02*
X113575000Y-96514556D01*
X110932107Y-104250000D02*
X108675000Y-104250000D01*
D56*
%TO.N,Net-(C311-Pad1)*%
X118000000Y-88175000D02*
X118000000Y-86750000D01*
X117800000Y-86550000D02*
X116225000Y-86550000D01*
X116225000Y-86550000D02*
X116000000Y-86775000D01*
X118000000Y-86750000D02*
X117800000Y-86550000D01*
D59*
%TO.N,/Microprocessor/XTAL_N*%
X119950000Y-87539950D02*
X119950000Y-85550000D01*
X120775000Y-85450000D02*
X121000000Y-85225000D01*
X119850000Y-85450000D02*
X119200000Y-85450000D01*
X118775000Y-88714950D02*
X119950000Y-87539950D01*
X118775000Y-91537500D02*
X118775000Y-88714950D01*
X119950000Y-85550000D02*
X119850000Y-85450000D01*
X118750000Y-91562500D02*
X118775000Y-91537500D01*
X119200000Y-85450000D02*
X120775000Y-85450000D01*
D57*
%TO.N,/Microprocessor/RF*%
X112562500Y-91275000D02*
X112287500Y-91000000D01*
X116562500Y-92250000D02*
X114975000Y-92250000D01*
X114000000Y-91275000D02*
X112562500Y-91275000D01*
X114975000Y-92250000D02*
X114000000Y-91275000D01*
D56*
%TO.N,/Load Cell Sensor/E_p*%
X96525000Y-108055000D02*
X92440000Y-103970000D01*
X88725000Y-105145000D02*
X88725000Y-117295000D01*
X95050000Y-112110000D02*
X95050000Y-111530000D01*
X89900000Y-103970000D02*
X88725000Y-105145000D01*
X92440000Y-103970000D02*
X89900000Y-103970000D01*
X96525000Y-110055000D02*
X96525000Y-108055000D01*
X88725000Y-117295000D02*
X89900000Y-118470000D01*
X98580000Y-112110000D02*
X96525000Y-110055000D01*
X95050000Y-111530000D02*
X96525000Y-110055000D01*
X100000000Y-112110000D02*
X98580000Y-112110000D01*
%TO.N,Net-(U501-VBG)*%
X96525000Y-119558249D02*
X95426751Y-118460000D01*
X96525000Y-123055000D02*
X96525000Y-119558249D01*
X95426751Y-118460000D02*
X95050000Y-118460000D01*
D59*
%TO.N,/Load Cell Sensor/S2_N*%
X92530000Y-123550000D02*
X92975000Y-123105000D01*
X94708604Y-115920000D02*
X95050000Y-115920000D01*
X89900000Y-123550000D02*
X92530000Y-123550000D01*
X92975000Y-117653604D02*
X94708604Y-115920000D01*
X92975000Y-123105000D02*
X92975000Y-117653604D01*
%TO.N,/Load Cell Sensor/S2_P*%
X89900000Y-126090000D02*
X91890000Y-126090000D01*
X91890000Y-126090000D02*
X92975000Y-125005000D01*
X93775000Y-118123604D02*
X93775000Y-122355000D01*
X94000000Y-122580000D02*
X94000000Y-123980000D01*
X95050000Y-117190000D02*
X94708604Y-117190000D01*
X94708604Y-117190000D02*
X93775000Y-118123604D01*
X94000000Y-123980000D02*
X92975000Y-125005000D01*
X93775000Y-122355000D02*
X94000000Y-122580000D01*
%TO.N,/Load Cell Sensor/S1_N*%
X95050000Y-113380000D02*
X94708604Y-113380000D01*
X89900000Y-109050000D02*
X92030000Y-109050000D01*
X92030000Y-109050000D02*
X92975000Y-108105000D01*
X93775000Y-110755000D02*
X94000000Y-110530000D01*
X94000000Y-109130000D02*
X92975000Y-108105000D01*
X94708604Y-113380000D02*
X93775000Y-112446396D01*
X94000000Y-110530000D02*
X94000000Y-109130000D01*
X93775000Y-112446396D02*
X93775000Y-110755000D01*
%TO.N,/Load Cell Sensor/S1_P*%
X89900000Y-111590000D02*
X91390000Y-111590000D01*
X92960000Y-114650000D02*
X95050000Y-114650000D01*
X89900000Y-111590000D02*
X92960000Y-114650000D01*
X91390000Y-111590000D02*
X92975000Y-110005000D01*
D56*
%TO.N,+5V*%
X130700000Y-75500000D02*
X132950000Y-73250000D01*
X126222500Y-75500000D02*
X130700000Y-75500000D01*
X125500000Y-74302500D02*
X125500000Y-74777500D01*
X125500000Y-74777500D02*
X126222500Y-75500000D01*
%TO.N,/Microprocessor/SD_CS*%
X132500000Y-80500000D02*
X134450000Y-80500000D01*
X121437500Y-93750000D02*
X122724695Y-93750000D01*
X122724695Y-93750000D02*
X131974695Y-84500000D01*
X131974695Y-84500000D02*
X132000000Y-84500000D01*
X134450000Y-80500000D02*
X134500000Y-80550000D01*
%TO.N,/Microprocessor/SPI_COPI*%
X122023008Y-92750000D02*
X133123008Y-81650000D01*
X133123008Y-81650000D02*
X134500000Y-81650000D01*
X121437500Y-92750000D02*
X122023008Y-92750000D01*
%TO.N,/Microprocessor/SPI_SCK*%
X134425000Y-83775000D02*
X134500000Y-83850000D01*
X121437500Y-93250000D02*
X122224695Y-93250000D01*
X131699695Y-83775000D02*
X134425000Y-83775000D01*
X122224695Y-93250000D02*
X131699695Y-83775000D01*
%TO.N,/Microprocessor/SPI_CIPO*%
X131000000Y-88000000D02*
X132950000Y-86050000D01*
X128000000Y-85687500D02*
X128000000Y-85500000D01*
X132950000Y-86050000D02*
X134500000Y-86050000D01*
X121437500Y-92250000D02*
X128000000Y-85687500D01*
%TO.N,/Microprocessor/SD_DET*%
X122250000Y-95250000D02*
X131000000Y-86500000D01*
X132000000Y-77500000D02*
X134250000Y-77500000D01*
X134250000Y-77500000D02*
X134500000Y-77250000D01*
X121437500Y-95250000D02*
X122250000Y-95250000D01*
%TO.N,P_GOOD*%
X122800000Y-110600000D02*
X122800000Y-110175000D01*
X132074500Y-116424500D02*
X132074500Y-116800000D01*
X122800000Y-110175000D02*
X123575000Y-109400000D01*
X131750000Y-116100000D02*
X132074500Y-116424500D01*
%TO.N,/Microprocessor/GPIO08_BOOT*%
X121975000Y-97650000D02*
X120175305Y-97650000D01*
X119750000Y-97224695D02*
X119750000Y-96437500D01*
X123500000Y-99175000D02*
X121975000Y-97650000D01*
X120175305Y-97650000D02*
X119750000Y-97224695D01*
%TO.N,/Microprocessor/GPIO02_BOOT*%
X115926992Y-94800000D02*
X115890596Y-94800000D01*
X115350000Y-102975000D02*
X112825000Y-105500000D01*
X115350000Y-95340596D02*
X115350000Y-102975000D01*
X115976992Y-94750000D02*
X115926992Y-94800000D01*
X115890596Y-94800000D02*
X115350000Y-95340596D01*
X116562500Y-94750000D02*
X115976992Y-94750000D01*
D59*
%TO.N,/Microprocessor/XTAL_32K_P*%
X113000000Y-101000000D02*
X113000000Y-95000000D01*
X113000000Y-95000000D02*
X114250000Y-93750000D01*
X112500000Y-101500000D02*
X113000000Y-101000000D01*
X114250000Y-93750000D02*
X116562500Y-93750000D01*
%TO.N,/Microprocessor/XTAL_P*%
X118250000Y-90075000D02*
X118250000Y-91562500D01*
X118000000Y-89825000D02*
X118250000Y-90075000D01*
D56*
%TO.N,/Microprocessor/GPIO09_BOOT*%
X134700000Y-97200000D02*
X134750000Y-97250000D01*
X120526992Y-97200000D02*
X134700000Y-97200000D01*
X134750000Y-97250000D02*
X141250000Y-97250000D01*
X120250000Y-96437500D02*
X120250000Y-96923008D01*
X120250000Y-96923008D02*
X120526992Y-97200000D01*
%TO.N,/Power/FB*%
X131650000Y-118000000D02*
X131675000Y-118000000D01*
X133175000Y-119500000D02*
X133175000Y-121375000D01*
X131350000Y-116850000D02*
X131350000Y-117700000D01*
X133175000Y-121375000D02*
X133050000Y-121500000D01*
X131350000Y-117700000D02*
X131650000Y-118000000D01*
X131675000Y-118000000D02*
X133175000Y-119500000D01*
D60*
%TO.N,/Power/VCC*%
X129900000Y-116850000D02*
X130350000Y-116850000D01*
X129340000Y-118160000D02*
X129340000Y-117410000D01*
X129340000Y-117410000D02*
X129900000Y-116850000D01*
X128000000Y-119500000D02*
X129340000Y-118160000D01*
D56*
%TO.N,/Vbus1_in*%
X146922500Y-123170000D02*
X147713185Y-123170000D01*
X147713185Y-123170000D02*
X148400000Y-123856815D01*
X150222500Y-124422500D02*
X150200000Y-124400000D01*
X145872500Y-122910685D02*
X145872500Y-122327500D01*
X150175685Y-125632500D02*
X150222500Y-125632500D01*
X148400000Y-123856815D02*
X148400000Y-124400000D01*
X146131815Y-123170000D02*
X145872500Y-122910685D01*
X145872500Y-122327500D02*
X146030000Y-122170000D01*
X146922500Y-123170000D02*
X146131815Y-123170000D01*
X146030000Y-122170000D02*
X146922500Y-122170000D01*
%TO.N,/Vbus2_in*%
X145872500Y-107897500D02*
X145872500Y-108410685D01*
X146922500Y-107670000D02*
X146100000Y-107670000D01*
X150222500Y-111179315D02*
X150222500Y-111632500D01*
X147713185Y-108670000D02*
X150222500Y-111179315D01*
X146922500Y-108670000D02*
X147713185Y-108670000D01*
X146100000Y-107670000D02*
X145872500Y-107897500D01*
X146131815Y-108670000D02*
X146922500Y-108670000D01*
X145872500Y-108410685D02*
X146131815Y-108670000D01*
%TO.N,/Vbus2_out*%
X147760000Y-108170000D02*
X150222500Y-105707500D01*
X150222500Y-106977500D02*
X150200000Y-107000000D01*
X146922500Y-108170000D02*
X147760000Y-108170000D01*
%TO.N,/Power Measurement/I2C_SCL*%
X118000000Y-105175000D02*
X138221396Y-105175000D01*
X100000000Y-115920000D02*
X110122462Y-115920000D01*
X142522500Y-124170000D02*
X141595419Y-124170000D01*
X142522500Y-109670000D02*
X143313185Y-109670000D01*
X141216396Y-108170000D02*
X142522500Y-108170000D01*
X116100000Y-105900000D02*
X117275000Y-105900000D01*
X140273198Y-107226802D02*
X141216396Y-108170000D01*
X143313185Y-108170000D02*
X142522500Y-108170000D01*
X143572500Y-109410685D02*
X143572500Y-108429315D01*
X138221396Y-105175000D02*
X140273198Y-107226802D01*
X117700000Y-104875000D02*
X118000000Y-105175000D01*
X140371019Y-122945600D02*
X140371019Y-109646325D01*
X115700000Y-110342462D02*
X115700000Y-106300000D01*
X110122462Y-115920000D02*
X115700000Y-110342462D01*
X117700000Y-96487500D02*
X117700000Y-104875000D01*
X117275000Y-105900000D02*
X118000000Y-105175000D01*
X141595419Y-124170000D02*
X140371019Y-122945600D01*
X143572500Y-108429315D02*
X143313185Y-108170000D01*
X143313185Y-109670000D02*
X143572500Y-109410685D01*
X115700000Y-106300000D02*
X116100000Y-105900000D01*
X117750000Y-96437500D02*
X117700000Y-96487500D01*
%TO.N,/Power Measurement/I2C_SDA*%
X121500000Y-106000000D02*
X137750000Y-106000000D01*
X115000000Y-106000000D02*
X115000000Y-110000000D01*
X141580000Y-109170000D02*
X142522500Y-109170000D01*
X142522500Y-123670000D02*
X141731815Y-123670000D01*
X143572500Y-122822500D02*
X143420000Y-122670000D01*
X141731815Y-123670000D02*
X141472500Y-123410685D01*
X140920000Y-109170000D02*
X142522500Y-109170000D01*
X107500000Y-114650000D02*
X100000000Y-114650000D01*
X142522500Y-123670000D02*
X143313185Y-123670000D01*
X116188604Y-105175000D02*
X115000000Y-106000000D01*
X143420000Y-122670000D02*
X142522500Y-122670000D01*
X119500000Y-108000000D02*
X121500000Y-106000000D01*
X143313185Y-123670000D02*
X143572500Y-123410685D01*
X143572500Y-123410685D02*
X143572500Y-122822500D01*
X110756066Y-114650000D02*
X107500000Y-114650000D01*
X115000000Y-110000000D02*
X110756066Y-114650000D01*
X116500000Y-105175000D02*
X116500000Y-97187500D01*
X137750000Y-106000000D02*
X140920000Y-109170000D01*
X116500000Y-97187500D02*
X117250000Y-96437500D01*
X141472500Y-123410685D02*
X141472500Y-109277500D01*
X116500000Y-105175000D02*
X116188604Y-105175000D01*
X141472500Y-109277500D02*
X141580000Y-109170000D01*
D61*
%TO.N,/Microprocessor/USB_N*%
X125000000Y-77712527D02*
X124850000Y-77562527D01*
X125000000Y-79225000D02*
X125000000Y-77712527D01*
X120750000Y-91562500D02*
X126100812Y-86211688D01*
X126100812Y-86211688D02*
X126100812Y-80325812D01*
X124850000Y-77562527D02*
X124850000Y-74302500D01*
X126100812Y-80325812D02*
X125000000Y-79225000D01*
%TO.N,/Microprocessor/USB_P*%
X125633604Y-85681220D02*
X120250000Y-91064824D01*
X122466396Y-80866396D02*
X122466396Y-78512185D01*
X122771104Y-78228896D02*
X124200000Y-76800000D01*
X124200000Y-76800000D02*
X124200000Y-74302500D01*
X122466396Y-78512185D02*
X122749685Y-78228896D01*
X123100000Y-81500000D02*
X122466396Y-80866396D01*
X122749685Y-78228896D02*
X122771104Y-78228896D01*
X123100000Y-81103581D02*
X123699685Y-80503896D01*
X125633604Y-80787185D02*
X125633604Y-85681220D01*
X125350315Y-80503896D02*
X125633604Y-80787185D01*
X120250000Y-91064824D02*
X120250000Y-91562500D01*
X123100000Y-81500000D02*
X123100000Y-81103581D01*
X123699685Y-80503896D02*
X125350315Y-80503896D01*
D57*
%TO.N,/Microprocessor/RF_ANT*%
X109275000Y-91000000D02*
X109000000Y-90725000D01*
X110712500Y-91000000D02*
X109275000Y-91000000D01*
%TD*%
%TA.AperFunction,Conductor*%
%TO.N,GND*%
G36*
X135806554Y-110513467D02*
G01*
X135826166Y-110523439D01*
X135826168Y-110523439D01*
X135826169Y-110523440D01*
X135893198Y-110543122D01*
X135893205Y-110543124D01*
X135979277Y-110555500D01*
X135979280Y-110555500D01*
X136875990Y-110555500D01*
X136876000Y-110555500D01*
X136940941Y-110548518D01*
X136963132Y-110543690D01*
X137032821Y-110548671D01*
X137077174Y-110577174D01*
X137963681Y-111463681D01*
X137997166Y-111525004D01*
X138000000Y-111551362D01*
X138000000Y-114970500D01*
X137980315Y-115037539D01*
X137927511Y-115083294D01*
X137876000Y-115094500D01*
X132645862Y-115094500D01*
X132578823Y-115074815D01*
X132558181Y-115058181D01*
X132541819Y-115041819D01*
X132508334Y-114980496D01*
X132505500Y-114954138D01*
X132505500Y-114824010D01*
X132505500Y-114824000D01*
X132500355Y-114776145D01*
X132500000Y-114769513D01*
X132500000Y-114500000D01*
X132400493Y-114500000D01*
X132337129Y-114481394D01*
X132337093Y-114481467D01*
X132336704Y-114481269D01*
X132333454Y-114480315D01*
X132329195Y-114477451D01*
X132229109Y-114426560D01*
X132162078Y-114406877D01*
X132162072Y-114406876D01*
X132076000Y-114394500D01*
X131624000Y-114394500D01*
X131556961Y-114374815D01*
X131511206Y-114322011D01*
X131500000Y-114270500D01*
X131500000Y-113679500D01*
X131519685Y-113612461D01*
X131572489Y-113566706D01*
X131624000Y-113555500D01*
X132706818Y-113555500D01*
X132706820Y-113555500D01*
X132723162Y-113554624D01*
X132757655Y-113550915D01*
X132764660Y-113550080D01*
X132871407Y-113515297D01*
X132871643Y-113515167D01*
X132871799Y-113515128D01*
X132876665Y-113513028D01*
X132876998Y-113513801D01*
X132931070Y-113500000D01*
X133250000Y-113500000D01*
X133250000Y-113177560D01*
X133263469Y-113121356D01*
X133273439Y-113101749D01*
X133293124Y-113034710D01*
X133305500Y-112948638D01*
X133305500Y-111624000D01*
X133298518Y-111559059D01*
X133287312Y-111507549D01*
X133287313Y-111507550D01*
X133276355Y-111469345D01*
X133276354Y-111469344D01*
X133276354Y-111469342D01*
X133266962Y-111453283D01*
X133250000Y-111390684D01*
X133250000Y-111250000D01*
X133104922Y-111250000D01*
X133048722Y-111236532D01*
X133029111Y-111226561D01*
X133029110Y-111226560D01*
X133029107Y-111226559D01*
X132962078Y-111206877D01*
X132962072Y-111206876D01*
X132876000Y-111194500D01*
X129124000Y-111194500D01*
X129123991Y-111194500D01*
X129123990Y-111194501D01*
X129059064Y-111201481D01*
X129059052Y-111201483D01*
X129022682Y-111209395D01*
X129007549Y-111212687D01*
X129007550Y-111212687D01*
X128969345Y-111223644D01*
X128969337Y-111223648D01*
X128953282Y-111233038D01*
X128890682Y-111250000D01*
X128750000Y-111250000D01*
X128750000Y-111395077D01*
X128736533Y-111451276D01*
X128726561Y-111470889D01*
X128726560Y-111470891D01*
X128726560Y-111470892D01*
X128706877Y-111537921D01*
X128706875Y-111537928D01*
X128706876Y-111537928D01*
X128694500Y-111624000D01*
X128694500Y-112956820D01*
X128695376Y-112973162D01*
X128695377Y-112973171D01*
X128699085Y-113007653D01*
X128699920Y-113014661D01*
X128699920Y-113014662D01*
X128734700Y-113121402D01*
X128734703Y-113121407D01*
X128734827Y-113121635D01*
X128734865Y-113121785D01*
X128736972Y-113126665D01*
X128736196Y-113126999D01*
X128750000Y-113181068D01*
X128750000Y-113500000D01*
X129072440Y-113500000D01*
X129128639Y-113513467D01*
X129148251Y-113523439D01*
X129215290Y-113543124D01*
X129301362Y-113555500D01*
X130070500Y-113555500D01*
X130137539Y-113575185D01*
X130183294Y-113627989D01*
X130194500Y-113679500D01*
X130194500Y-114308286D01*
X130174815Y-114375325D01*
X130122011Y-114421080D01*
X130052853Y-114431024D01*
X130037050Y-114427689D01*
X130025668Y-114424500D01*
X130025665Y-114424500D01*
X127847570Y-114424500D01*
X127781347Y-114422238D01*
X127781346Y-114422238D01*
X127781344Y-114422238D01*
X127738343Y-114432717D01*
X127732103Y-114433902D01*
X127688252Y-114439930D01*
X127671789Y-114447081D01*
X127651748Y-114453820D01*
X127634323Y-114458066D01*
X127634318Y-114458068D01*
X127595740Y-114479758D01*
X127590054Y-114482582D01*
X127549452Y-114500220D01*
X127535530Y-114511546D01*
X127518056Y-114523438D01*
X127502419Y-114532230D01*
X127502412Y-114532235D01*
X127471112Y-114563535D01*
X127466398Y-114567789D01*
X127432064Y-114595722D01*
X127421714Y-114610385D01*
X127408093Y-114626554D01*
X126670967Y-115363681D01*
X126609644Y-115397166D01*
X126583286Y-115400000D01*
X123624000Y-115400000D01*
X123556961Y-115380315D01*
X123511206Y-115327511D01*
X123500000Y-115276000D01*
X123500000Y-111051362D01*
X123519685Y-110984323D01*
X123536319Y-110963681D01*
X123963681Y-110536319D01*
X124025004Y-110502834D01*
X124051362Y-110500000D01*
X135750355Y-110500000D01*
X135806554Y-110513467D01*
G37*
%TD.AperFunction*%
%TD*%
%TA.AperFunction,Conductor*%
%TO.N,VIN*%
G36*
X127543039Y-116019685D02*
G01*
X127588794Y-116072489D01*
X127600000Y-116124000D01*
X127600000Y-118276000D01*
X127580315Y-118343039D01*
X127527511Y-118388794D01*
X127476000Y-118400000D01*
X124524000Y-118400000D01*
X124456961Y-118380315D01*
X124411206Y-118327511D01*
X124400000Y-118276000D01*
X124400000Y-116124000D01*
X124419685Y-116056961D01*
X124472489Y-116011206D01*
X124524000Y-116000000D01*
X127476000Y-116000000D01*
X127543039Y-116019685D01*
G37*
%TD.AperFunction*%
%TD*%
%TA.AperFunction,Conductor*%
%TO.N,VIN*%
G36*
X137943039Y-115419685D02*
G01*
X137988794Y-115472489D01*
X138000000Y-115524000D01*
X138000000Y-118276000D01*
X137980315Y-118343039D01*
X137927511Y-118388794D01*
X137876000Y-118400000D01*
X132586689Y-118400000D01*
X132519650Y-118380315D01*
X132499007Y-118363681D01*
X132436318Y-118300991D01*
X132402834Y-118239667D01*
X132400000Y-118213310D01*
X132400000Y-117368298D01*
X132419685Y-117301259D01*
X132448510Y-117269925D01*
X132502782Y-117228282D01*
X132599036Y-117102841D01*
X132659544Y-116956762D01*
X132680182Y-116800000D01*
X132659544Y-116643238D01*
X132599036Y-116497159D01*
X132502782Y-116371718D01*
X132502780Y-116371716D01*
X132502779Y-116371715D01*
X132448512Y-116330074D01*
X132407310Y-116273646D01*
X132400000Y-116231699D01*
X132400000Y-115800000D01*
X132200000Y-115800000D01*
X132200000Y-115400000D01*
X137876000Y-115400000D01*
X137943039Y-115419685D01*
G37*
%TD.AperFunction*%
%TD*%
%TA.AperFunction,Conductor*%
%TO.N,/Vbus2_out*%
G36*
X156255351Y-104219685D02*
G01*
X156275993Y-104236319D01*
X156763681Y-104724007D01*
X156797166Y-104785330D01*
X156800000Y-104811688D01*
X156800000Y-107476000D01*
X156780315Y-107543039D01*
X156727511Y-107588794D01*
X156676000Y-107600000D01*
X149051362Y-107600000D01*
X148984323Y-107580315D01*
X148963681Y-107563681D01*
X148036319Y-106636319D01*
X148002834Y-106574996D01*
X148000000Y-106548638D01*
X148000000Y-104324000D01*
X148019685Y-104256961D01*
X148072489Y-104211206D01*
X148124000Y-104200000D01*
X156188312Y-104200000D01*
X156255351Y-104219685D01*
G37*
%TD.AperFunction*%
%TD*%
%TA.AperFunction,Conductor*%
%TO.N,/Power/SW*%
G36*
X132943039Y-111519685D02*
G01*
X132988794Y-111572489D01*
X133000000Y-111624000D01*
X133000000Y-112948638D01*
X132980315Y-113015677D01*
X132963681Y-113036319D01*
X132786319Y-113213681D01*
X132724996Y-113247166D01*
X132698638Y-113250000D01*
X131499999Y-113250000D01*
X131000001Y-113499998D01*
X131000000Y-113500000D01*
X131000000Y-115676000D01*
X130980315Y-115743039D01*
X130927511Y-115788794D01*
X130876000Y-115800000D01*
X130339504Y-115800000D01*
X130292049Y-115790560D01*
X130290114Y-115789758D01*
X130213404Y-115774500D01*
X130213401Y-115774500D01*
X129966924Y-115774500D01*
X129961525Y-115774264D01*
X129950491Y-115773299D01*
X129921193Y-115770735D01*
X129915910Y-115771197D01*
X129890822Y-115774500D01*
X129686601Y-115774500D01*
X129609881Y-115789760D01*
X129607952Y-115790560D01*
X129560497Y-115800000D01*
X129400000Y-115800000D01*
X129250000Y-115899999D01*
X129250000Y-116288311D01*
X129230315Y-116355350D01*
X129213681Y-116375992D01*
X128862163Y-116727511D01*
X128825993Y-116763681D01*
X128764670Y-116797166D01*
X128738312Y-116800000D01*
X127929500Y-116800000D01*
X127862461Y-116780315D01*
X127816706Y-116727511D01*
X127805500Y-116676000D01*
X127805500Y-116124008D01*
X127805499Y-116123992D01*
X127800803Y-116080316D01*
X127796535Y-116060701D01*
X127789598Y-116028807D01*
X127787110Y-116018629D01*
X127787110Y-116018627D01*
X127787106Y-116018619D01*
X127764567Y-115976320D01*
X127750000Y-115918008D01*
X127750000Y-115751638D01*
X127769685Y-115684599D01*
X127786319Y-115663957D01*
X127988458Y-115461819D01*
X128049781Y-115428334D01*
X128076139Y-115425500D01*
X129983762Y-115425500D01*
X130084287Y-115410348D01*
X130084288Y-115410347D01*
X130093166Y-115407609D01*
X130093663Y-115409223D01*
X130134077Y-115400000D01*
X130351154Y-115400000D01*
X130351155Y-115400000D01*
X130500000Y-115200000D01*
X130500000Y-113500000D01*
X130250000Y-113250000D01*
X129301362Y-113250000D01*
X129234323Y-113230315D01*
X129213681Y-113213681D01*
X129036319Y-113036319D01*
X129002834Y-112974996D01*
X129000000Y-112948638D01*
X129000000Y-111624000D01*
X129019685Y-111556961D01*
X129072489Y-111511206D01*
X129124000Y-111500000D01*
X132876000Y-111500000D01*
X132943039Y-111519685D01*
G37*
%TD.AperFunction*%
%TD*%
%TA.AperFunction,Conductor*%
%TO.N,VIN*%
G36*
X156343039Y-118019685D02*
G01*
X156388794Y-118072489D01*
X156400000Y-118124000D01*
X156400000Y-121876000D01*
X156380315Y-121943039D01*
X156327511Y-121988794D01*
X156276000Y-122000000D01*
X149051362Y-122000000D01*
X148984323Y-121980315D01*
X148963681Y-121963681D01*
X148036319Y-121036319D01*
X148002834Y-120974996D01*
X148000000Y-120948638D01*
X148000000Y-118124000D01*
X148019685Y-118056961D01*
X148072489Y-118011206D01*
X148124000Y-118000000D01*
X156276000Y-118000000D01*
X156343039Y-118019685D01*
G37*
%TD.AperFunction*%
%TD*%
%TA.AperFunction,Conductor*%
%TO.N,/Vbus2_in*%
G36*
X156743039Y-109619685D02*
G01*
X156788794Y-109672489D01*
X156800000Y-109724000D01*
X156800000Y-112676000D01*
X156780315Y-112743039D01*
X156727511Y-112788794D01*
X156676000Y-112800000D01*
X148451362Y-112800000D01*
X148384323Y-112780315D01*
X148363681Y-112763681D01*
X148036319Y-112436319D01*
X148002834Y-112374996D01*
X148000000Y-112348638D01*
X148000000Y-110651362D01*
X148019685Y-110584323D01*
X148036319Y-110563681D01*
X148963681Y-109636319D01*
X149025004Y-109602834D01*
X149051362Y-109600000D01*
X156676000Y-109600000D01*
X156743039Y-109619685D01*
G37*
%TD.AperFunction*%
%TD*%
%TA.AperFunction,Conductor*%
%TO.N,GND*%
G36*
X130931726Y-116419685D02*
G01*
X130977481Y-116472489D01*
X130987861Y-116538292D01*
X130984500Y-116567256D01*
X130984500Y-117649234D01*
X130981861Y-117674682D01*
X130979762Y-117684687D01*
X130984023Y-117718868D01*
X130984500Y-117726544D01*
X130984500Y-117730286D01*
X130986068Y-117739681D01*
X130988241Y-117752708D01*
X130994869Y-117805877D01*
X131000000Y-117841095D01*
X131000000Y-117948638D01*
X130980315Y-118015677D01*
X130963681Y-118036319D01*
X130336319Y-118663681D01*
X130274996Y-118697166D01*
X130248638Y-118700000D01*
X129751362Y-118700000D01*
X129684323Y-118680315D01*
X129663681Y-118663681D01*
X129550594Y-118550594D01*
X129517109Y-118489271D01*
X129522093Y-118419579D01*
X129546632Y-118379382D01*
X129548730Y-118377079D01*
X129556462Y-118368597D01*
X129558366Y-118366603D01*
X129572174Y-118352797D01*
X129573684Y-118350592D01*
X129579023Y-118343851D01*
X129593413Y-118328066D01*
X129599916Y-118320933D01*
X129602416Y-118314478D01*
X129615749Y-118289182D01*
X129619656Y-118283481D01*
X129626757Y-118253285D01*
X129629292Y-118245101D01*
X129640500Y-118216173D01*
X129640500Y-118209248D01*
X129643795Y-118180855D01*
X129645378Y-118174123D01*
X129645379Y-118174119D01*
X129641095Y-118143408D01*
X129640500Y-118134833D01*
X129640500Y-117585833D01*
X129660185Y-117518794D01*
X129676819Y-117498152D01*
X129838652Y-117336319D01*
X129899975Y-117302834D01*
X129926333Y-117300000D01*
X130020130Y-117300000D01*
X130087169Y-117319685D01*
X130107811Y-117336319D01*
X130113297Y-117341805D01*
X130216926Y-117387561D01*
X130242258Y-117390500D01*
X130242259Y-117390500D01*
X130457741Y-117390500D01*
X130457742Y-117390500D01*
X130483074Y-117387561D01*
X130586703Y-117341805D01*
X130666805Y-117261703D01*
X130712561Y-117158074D01*
X130715500Y-117132742D01*
X130715500Y-116567258D01*
X130712561Y-116541926D01*
X130712560Y-116541924D01*
X130712139Y-116538292D01*
X130723966Y-116469431D01*
X130771144Y-116417895D01*
X130835313Y-116400000D01*
X130864687Y-116400000D01*
X130931726Y-116419685D01*
G37*
%TD.AperFunction*%
%TD*%
%TA.AperFunction,Conductor*%
%TO.N,/Vbus1_in*%
G36*
X156743039Y-123819685D02*
G01*
X156788794Y-123872489D01*
X156800000Y-123924000D01*
X156800000Y-126476000D01*
X156780315Y-126543039D01*
X156727511Y-126588794D01*
X156676000Y-126600000D01*
X148124000Y-126600000D01*
X148056961Y-126580315D01*
X148011206Y-126527511D01*
X148000000Y-126476000D01*
X148000000Y-123924000D01*
X148019685Y-123856961D01*
X148072489Y-123811206D01*
X148124000Y-123800000D01*
X156676000Y-123800000D01*
X156743039Y-123819685D01*
G37*
%TD.AperFunction*%
%TD*%
%TA.AperFunction,Conductor*%
%TO.N,VIN*%
G36*
X132143039Y-114719685D02*
G01*
X132188794Y-114772489D01*
X132200000Y-114824000D01*
X132200000Y-115800000D01*
X132139504Y-115800000D01*
X132092049Y-115790560D01*
X132090114Y-115789758D01*
X132013404Y-115774500D01*
X132013401Y-115774500D01*
X131809180Y-115774500D01*
X131784105Y-115771199D01*
X131778807Y-115770735D01*
X131745085Y-115773685D01*
X131738475Y-115774264D01*
X131733074Y-115774500D01*
X131486601Y-115774500D01*
X131420105Y-115787726D01*
X131409883Y-115789760D01*
X131409882Y-115789760D01*
X131398190Y-115792086D01*
X131328598Y-115785857D01*
X131273421Y-115742994D01*
X131250178Y-115677104D01*
X131250000Y-115670468D01*
X131250000Y-114824000D01*
X131269685Y-114756961D01*
X131322489Y-114711206D01*
X131374000Y-114700000D01*
X132076000Y-114700000D01*
X132143039Y-114719685D01*
G37*
%TD.AperFunction*%
%TD*%
%TA.AperFunction,Conductor*%
%TO.N,+3.3V*%
G36*
X136943039Y-107519685D02*
G01*
X136988794Y-107572489D01*
X137000000Y-107624000D01*
X137000000Y-110126000D01*
X136980315Y-110193039D01*
X136927511Y-110238794D01*
X136876000Y-110250000D01*
X135979277Y-110250000D01*
X135912238Y-110230315D01*
X135866483Y-110177511D01*
X135856539Y-110108353D01*
X135861571Y-110086996D01*
X135889505Y-110002697D01*
X135889506Y-110002690D01*
X135899999Y-109899986D01*
X135900000Y-109899973D01*
X135900000Y-109775000D01*
X133380590Y-109775000D01*
X133339996Y-109797166D01*
X133313638Y-109800000D01*
X128711362Y-109800000D01*
X128644323Y-109780315D01*
X128623681Y-109763681D01*
X128610000Y-109750000D01*
X126184000Y-109750000D01*
X126116961Y-109730315D01*
X126071206Y-109677511D01*
X126066672Y-109656672D01*
X126060000Y-109650000D01*
X125099000Y-109650000D01*
X125031961Y-109630315D01*
X124986206Y-109577511D01*
X124975000Y-109526000D01*
X124974999Y-108425000D01*
X125475000Y-108425000D01*
X125475000Y-109150000D01*
X126041000Y-109150000D01*
X126108039Y-109169685D01*
X126153794Y-109222489D01*
X126158327Y-109243327D01*
X126165000Y-109250000D01*
X127250000Y-109250000D01*
X127250000Y-108425000D01*
X127750000Y-108425000D01*
X127750000Y-109250000D01*
X128838638Y-109250000D01*
X128905677Y-109269685D01*
X128926319Y-109286319D01*
X128940000Y-109300000D01*
X130750000Y-109300000D01*
X130750000Y-108450000D01*
X131250000Y-108450000D01*
X131250000Y-109300000D01*
X133069410Y-109300000D01*
X133110004Y-109277834D01*
X133136362Y-109275000D01*
X134250000Y-109275000D01*
X134250000Y-108450000D01*
X134750000Y-108450000D01*
X134750000Y-109275000D01*
X135899999Y-109275000D01*
X135899999Y-109150028D01*
X135899998Y-109150013D01*
X135889505Y-109047302D01*
X135834358Y-108880880D01*
X135834356Y-108880875D01*
X135742315Y-108731654D01*
X135618345Y-108607684D01*
X135469124Y-108515643D01*
X135469119Y-108515641D01*
X135302697Y-108460494D01*
X135302690Y-108460493D01*
X135199986Y-108450000D01*
X134750000Y-108450000D01*
X134250000Y-108450000D01*
X133800028Y-108450000D01*
X133800012Y-108450001D01*
X133697302Y-108460494D01*
X133530880Y-108515641D01*
X133530875Y-108515643D01*
X133381649Y-108607687D01*
X133378926Y-108609841D01*
X133376706Y-108610736D01*
X133375509Y-108611475D01*
X133375382Y-108611270D01*
X133314130Y-108635980D01*
X133245489Y-108622938D01*
X133215175Y-108597359D01*
X133213456Y-108599079D01*
X133207186Y-108592809D01*
X133092088Y-108506647D01*
X133092086Y-108506645D01*
X132957379Y-108456403D01*
X132957372Y-108456401D01*
X132897844Y-108450000D01*
X131250000Y-108450000D01*
X130750000Y-108450000D01*
X129102155Y-108450000D01*
X129042627Y-108456401D01*
X129042620Y-108456403D01*
X128907913Y-108506645D01*
X128907906Y-108506649D01*
X128785712Y-108598125D01*
X128783625Y-108595337D01*
X128736919Y-108620802D01*
X128667231Y-108615771D01*
X128622960Y-108587299D01*
X128618345Y-108582684D01*
X128469124Y-108490643D01*
X128469119Y-108490641D01*
X128302697Y-108435494D01*
X128302690Y-108435493D01*
X128199986Y-108425000D01*
X127750000Y-108425000D01*
X127250000Y-108425000D01*
X126800028Y-108425000D01*
X126800012Y-108425001D01*
X126697302Y-108435494D01*
X126530880Y-108490641D01*
X126530875Y-108490643D01*
X126381654Y-108582684D01*
X126257680Y-108706658D01*
X126229130Y-108752945D01*
X126177182Y-108799668D01*
X126108219Y-108810889D01*
X126044137Y-108783045D01*
X126017476Y-108751996D01*
X125980072Y-108690122D01*
X125859877Y-108569927D01*
X125714395Y-108481980D01*
X125714396Y-108481980D01*
X125552105Y-108431409D01*
X125552106Y-108431409D01*
X125481572Y-108425000D01*
X125475000Y-108425000D01*
X124974999Y-108425000D01*
X124974999Y-108424999D01*
X124968436Y-108425000D01*
X124968417Y-108425001D01*
X124897897Y-108431408D01*
X124897892Y-108431409D01*
X124735601Y-108481981D01*
X124735599Y-108481982D01*
X124688149Y-108510667D01*
X124620594Y-108528503D01*
X124554121Y-108506985D01*
X124509833Y-108452944D01*
X124500000Y-108404550D01*
X124500000Y-107624000D01*
X124519685Y-107556961D01*
X124572489Y-107511206D01*
X124624000Y-107500000D01*
X136876000Y-107500000D01*
X136943039Y-107519685D01*
G37*
%TD.AperFunction*%
%TD*%
%TA.AperFunction,Conductor*%
%TO.N,/Vbus1_in*%
G36*
X156743039Y-123819685D02*
G01*
X156788794Y-123872489D01*
X156800000Y-123924000D01*
X156800000Y-126476000D01*
X156780315Y-126543039D01*
X156727511Y-126588794D01*
X156676000Y-126600000D01*
X148124000Y-126600000D01*
X148056961Y-126580315D01*
X148011206Y-126527511D01*
X148000000Y-126476000D01*
X148000000Y-123924000D01*
X148019685Y-123856961D01*
X148072489Y-123811206D01*
X148124000Y-123800000D01*
X156676000Y-123800000D01*
X156743039Y-123819685D01*
G37*
%TD.AperFunction*%
%TD*%
%TA.AperFunction,Conductor*%
%TO.N,/Vbus2_in*%
G36*
X156743039Y-109619685D02*
G01*
X156788794Y-109672489D01*
X156800000Y-109724000D01*
X156800000Y-112676000D01*
X156780315Y-112743039D01*
X156727511Y-112788794D01*
X156676000Y-112800000D01*
X148451362Y-112800000D01*
X148384323Y-112780315D01*
X148363681Y-112763681D01*
X148036319Y-112436319D01*
X148002834Y-112374996D01*
X148000000Y-112348638D01*
X148000000Y-110651362D01*
X148019685Y-110584323D01*
X148036319Y-110563681D01*
X148963681Y-109636319D01*
X149025004Y-109602834D01*
X149051362Y-109600000D01*
X156676000Y-109600000D01*
X156743039Y-109619685D01*
G37*
%TD.AperFunction*%
%TD*%
M02*
