M48
; DRILL file {KiCad 7.0.8-7.0.8~ubuntu22.04.1} date Sun 29 Oct 2023 10:01:32 PM EDT
; FORMAT={-:-/ absolute / inch / decimal}
; #@! TF.CreationDate,2023-10-29T22:01:32-04:00
; #@! TF.GenerationSoftware,Kicad,Pcbnew,7.0.8-7.0.8~ubuntu22.04.1
; #@! TF.FileFunction,Plated,1,4,PTH
FMAT,2
INCH
; #@! TA.AperFunction,Plated,PTH,ViaDrill
T1C0.0157
; #@! TA.AperFunction,Plated,PTH,ComponentDrill
T2C0.0236
; #@! TA.AperFunction,Plated,PTH,ComponentDrill
T3C0.0335
; #@! TA.AperFunction,Plated,PTH,ComponentDrill
T4C0.0394
; #@! TA.AperFunction,Plated,PTH,ComponentDrill
T5C0.0551
; #@! TA.AperFunction,Plated,PTH,ComponentDrill
T6C0.1260
%
G90
G05
T1
X3.5965Y-3.4508
X3.7303Y-3.3366
X3.7303Y-3.376
X3.7402Y-4.7441
X3.878Y-4.7638
X3.9173Y-4.8425
X3.9348Y-4.2541
X3.937Y-4.3307
X4.0354Y-3.5433
X4.1142Y-4.3898
X4.1142Y-4.4685
X4.1535Y-3.4646
X4.1535Y-3.6614
X4.1732Y-3.937
X4.1929Y-4.3504
X4.1929Y-4.5638
X4.2093Y-4.1493
X4.2913Y-3.8583
X4.3012Y-3.7795
X4.3086Y-3.6995
X4.311Y-4.2913
X4.3307Y-3.622
X4.3307Y-4.3701
X4.3661Y-2.8309
X4.3701Y-4.1929
X4.4094Y-3.9173
X4.4629Y-3.4851
X4.5276Y-3.3465
X4.5276Y-4.1732
X4.5472Y-3.4843
X4.5531Y-3.5433
X4.5591Y-3.8309
X4.5866Y-3.7992
X4.6358Y-3.6516
X4.6358Y-3.7008
X4.6358Y-3.75
X4.6457Y-3.3268
X4.6654Y-3.9862
X4.685Y-3.4449
X4.685Y-3.8386
X4.685Y-4.2028
X4.685Y-3.7008
X4.7047Y-4.252
X4.7146Y-3.8681
X4.7343Y-3.6516
X4.7343Y-3.7008
X4.7343Y-3.75
X4.7441Y-4.0157
X4.7606Y-3.4614
X4.7639Y-4.5004
X4.7639Y-4.5398
X4.7835Y-3.7992
X4.8221Y-3.0504
X4.8228Y-3.7205
X4.8346Y-4.3543
X4.8731Y-3.7509
X4.8819Y-3.2677
X4.8917Y-3.0709
X4.9191Y-3.8455
X4.9213Y-4.4488
X4.9213Y-4.4882
X4.9213Y-4.5276
X4.9213Y-4.6457
X4.9217Y-4.5856
X4.9325Y-4.2533
X4.9606Y-4.3209
X4.9606Y-4.3602
X4.9606Y-4.3996
X4.9606Y-4.439
X4.9606Y-4.6496
X4.9611Y-3.7731
X4.9705Y-4.252
X4.9771Y-3.9008
X5.0039Y-4.6496
X5.0098Y-4.252
X5.0394Y-3.3661
X5.0492Y-4.252
X5.0492Y-4.4882
X5.0886Y-4.252
X5.0886Y-4.3602
X5.0886Y-4.4882
X5.0984Y-4.7835
X5.128Y-4.252
X5.1378Y-4.3602
X5.1476Y-4.6949
X5.1575Y-3.4055
X5.1575Y-3.4646
X5.1673Y-4.252
X5.1772Y-4.3602
X5.1969Y-3.0512
X5.1969Y-3.3268
X5.1998Y-4.5984
X5.2067Y-4.252
X5.2067Y-4.4882
X5.2165Y-3.0906
X5.2165Y-3.1693
X5.2165Y-4.3602
X5.2362Y-3.1299
X5.2362Y-3.2677
X5.2362Y-3.3465
X5.2362Y-3.4449
X5.2402Y-4.5827
X5.2461Y-4.252
X5.2835Y-4.5827
X5.2854Y-4.252
X5.2854Y-4.4685
X5.315Y-3.8386
X5.3248Y-4.252
X5.3248Y-4.4685
X5.3307Y-4.5827
X5.3543Y-4.7835
X5.3642Y-4.2815
X5.3642Y-4.3209
X5.3642Y-4.3701
X5.3642Y-4.4094
X5.3642Y-4.4488
X5.3701Y-4.5827
X5.3937Y-3.8386
X5.4035Y-4.4488
X5.4094Y-4.5827
X5.4094Y-4.6457
X5.4134Y-4.4882
X5.5226Y-4.2215
X5.5315Y-4.311
X5.6102Y-4.4618
X5.7677Y-4.4421
X5.8858Y-4.3504
X5.9252Y-4.3504
X5.9606Y-4.3504
X6.0Y-4.3504
X6.0Y-4.3898
X6.0Y-4.4291
T3
X4.7913Y-2.9253
X4.9882Y-2.9253
T4
X3.4449Y-3.2953
X3.4449Y-3.3953
X3.4449Y-3.4953
X3.4449Y-3.5953
X3.5394Y-4.0933
X3.5394Y-4.1933
X3.5394Y-4.2933
X3.5394Y-4.3933
X3.5394Y-4.4933
X3.5394Y-4.6642
X3.5394Y-4.7642
X3.5394Y-4.8642
X3.5394Y-4.9642
X3.5394Y-5.0642
X4.6063Y-2.9321
X4.6063Y-3.0321
X4.6063Y-3.1321
X5.0061Y-4.0559
X5.1061Y-4.0559
X5.1559Y-3.6614
X5.2061Y-4.0559
X5.2559Y-3.6614
X5.3559Y-3.6614
X5.4559Y-3.6614
X5.5559Y-3.6614
X5.6474Y-3.9567
X5.6496Y-4.1142
X5.6559Y-3.6614
X5.7474Y-3.9567
X5.7496Y-4.1142
X5.8474Y-3.9567
X5.8496Y-4.1142
T5
X4.211Y-4.9272
X4.411Y-4.9272
X4.7425Y-4.93
X4.9425Y-4.93
X6.0914Y-4.2059
X6.0914Y-4.4059
X6.0914Y-4.7311
X6.0914Y-4.9311
T6
X3.563Y-2.9528
X3.563Y-3.8583
X6.1614Y-2.9528
X6.1614Y-3.8583
T2
G00X4.752Y-2.8328
M15
G01X4.752Y-2.8052
M16
G05
G00X5.0276Y-2.8052
M15
G01X5.0276Y-2.8328
M16
G05
T0
M30
