%TF.GenerationSoftware,KiCad,Pcbnew,7.0.6-7.0.6~ubuntu22.04.1*%
%TF.CreationDate,2023-07-31T15:47:24-04:00*%
%TF.ProjectId,esp32_sensor_board,65737033-325f-4736-956e-736f725f626f,rev?*%
%TF.SameCoordinates,Original*%
%TF.FileFunction,Soldermask,Top*%
%TF.FilePolarity,Negative*%
%FSLAX46Y46*%
G04 Gerber Fmt 4.6, Leading zero omitted, Abs format (unit mm)*
G04 Created by KiCad (PCBNEW 7.0.6-7.0.6~ubuntu22.04.1) date 2023-07-31 15:47:24*
%MOMM*%
%LPD*%
G01*
G04 APERTURE LIST*
G04 Aperture macros list*
%AMRoundRect*
0 Rectangle with rounded corners*
0 $1 Rounding radius*
0 $2 $3 $4 $5 $6 $7 $8 $9 X,Y pos of 4 corners*
0 Add a 4 corners polygon primitive as box body*
4,1,4,$2,$3,$4,$5,$6,$7,$8,$9,$2,$3,0*
0 Add four circle primitives for the rounded corners*
1,1,$1+$1,$2,$3*
1,1,$1+$1,$4,$5*
1,1,$1+$1,$6,$7*
1,1,$1+$1,$8,$9*
0 Add four rect primitives between the rounded corners*
20,1,$1+$1,$2,$3,$4,$5,0*
20,1,$1+$1,$4,$5,$6,$7,0*
20,1,$1+$1,$6,$7,$8,$9,0*
20,1,$1+$1,$8,$9,$2,$3,0*%
%AMFreePoly0*
4,1,19,0.500000,-0.750000,0.000000,-0.750000,0.000000,-0.744911,-0.071157,-0.744911,-0.207708,-0.704816,-0.327430,-0.627875,-0.420627,-0.520320,-0.479746,-0.390866,-0.500000,-0.250000,-0.500000,0.250000,-0.479746,0.390866,-0.420627,0.520320,-0.327430,0.627875,-0.207708,0.704816,-0.071157,0.744911,0.000000,0.744911,0.000000,0.750000,0.500000,0.750000,0.500000,-0.750000,0.500000,-0.750000,
$1*%
%AMFreePoly1*
4,1,19,0.000000,0.744911,0.071157,0.744911,0.207708,0.704816,0.327430,0.627875,0.420627,0.520320,0.479746,0.390866,0.500000,0.250000,0.500000,-0.250000,0.479746,-0.390866,0.420627,-0.520320,0.327430,-0.627875,0.207708,-0.704816,0.071157,-0.744911,0.000000,-0.744911,0.000000,-0.750000,-0.500000,-0.750000,-0.500000,0.750000,0.000000,0.750000,0.000000,0.744911,0.000000,0.744911,
$1*%
G04 Aperture macros list end*
%ADD10R,1.000000X1.000000*%
%ADD11R,2.200000X1.050000*%
%ADD12C,5.600000*%
%ADD13O,4.000000X2.000000*%
%ADD14RoundRect,0.225000X0.250000X-0.225000X0.250000X0.225000X-0.250000X0.225000X-0.250000X-0.225000X0*%
%ADD15R,1.700000X1.700000*%
%ADD16O,1.700000X1.700000*%
%ADD17RoundRect,0.249999X1.550001X-0.790001X1.550001X0.790001X-1.550001X0.790001X-1.550001X-0.790001X0*%
%ADD18O,3.600000X2.080000*%
%ADD19RoundRect,0.200000X0.200000X0.275000X-0.200000X0.275000X-0.200000X-0.275000X0.200000X-0.275000X0*%
%ADD20RoundRect,0.250000X0.650000X-0.325000X0.650000X0.325000X-0.650000X0.325000X-0.650000X-0.325000X0*%
%ADD21RoundRect,0.062500X-0.375000X-0.062500X0.375000X-0.062500X0.375000X0.062500X-0.375000X0.062500X0*%
%ADD22RoundRect,0.062500X-0.062500X-0.375000X0.062500X-0.375000X0.062500X0.375000X-0.062500X0.375000X0*%
%ADD23R,3.450000X3.450000*%
%ADD24RoundRect,0.250000X1.425000X-0.362500X1.425000X0.362500X-1.425000X0.362500X-1.425000X-0.362500X0*%
%ADD25RoundRect,0.250000X-0.475000X0.250000X-0.475000X-0.250000X0.475000X-0.250000X0.475000X0.250000X0*%
%ADD26RoundRect,0.225000X-0.225000X-0.250000X0.225000X-0.250000X0.225000X0.250000X-0.225000X0.250000X0*%
%ADD27RoundRect,0.200000X-0.275000X0.200000X-0.275000X-0.200000X0.275000X-0.200000X0.275000X0.200000X0*%
%ADD28RoundRect,0.132500X-0.237500X-0.062500X0.237500X-0.062500X0.237500X0.062500X-0.237500X0.062500X0*%
%ADD29RoundRect,0.062500X-0.237500X-0.062500X0.237500X-0.062500X0.237500X0.062500X-0.237500X0.062500X0*%
%ADD30RoundRect,0.062500X0.062500X-0.237500X0.062500X0.237500X-0.062500X0.237500X-0.062500X-0.237500X0*%
%ADD31RoundRect,0.132500X0.062500X0.850000X-0.062500X0.850000X-0.062500X-0.850000X0.062500X-0.850000X0*%
%ADD32RoundRect,0.225000X0.225000X0.250000X-0.225000X0.250000X-0.225000X-0.250000X0.225000X-0.250000X0*%
%ADD33RoundRect,0.250000X0.475000X-0.250000X0.475000X0.250000X-0.475000X0.250000X-0.475000X-0.250000X0*%
%ADD34RoundRect,0.200000X0.275000X-0.200000X0.275000X0.200000X-0.275000X0.200000X-0.275000X-0.200000X0*%
%ADD35RoundRect,0.147500X-0.147500X-0.172500X0.147500X-0.172500X0.147500X0.172500X-0.147500X0.172500X0*%
%ADD36RoundRect,0.225000X-0.250000X0.225000X-0.250000X-0.225000X0.250000X-0.225000X0.250000X0.225000X0*%
%ADD37RoundRect,0.150000X-0.825000X-0.150000X0.825000X-0.150000X0.825000X0.150000X-0.825000X0.150000X0*%
%ADD38R,0.900000X0.800000*%
%ADD39RoundRect,0.250000X0.250000X0.475000X-0.250000X0.475000X-0.250000X-0.475000X0.250000X-0.475000X0*%
%ADD40C,1.640000*%
%ADD41RoundRect,0.220000X0.600000X-0.150000X0.600000X0.150000X-0.600000X0.150000X-0.600000X-0.150000X0*%
%ADD42R,3.700000X1.200000*%
%ADD43RoundRect,0.250000X-0.250000X-0.475000X0.250000X-0.475000X0.250000X0.475000X-0.250000X0.475000X0*%
%ADD44R,1.800000X1.000000*%
%ADD45RoundRect,0.250000X-0.650000X0.325000X-0.650000X-0.325000X0.650000X-0.325000X0.650000X0.325000X0*%
%ADD46FreePoly0,0.000000*%
%ADD47FreePoly1,0.000000*%
%ADD48R,0.400000X1.350000*%
%ADD49O,1.200000X1.900000*%
%ADD50R,1.200000X1.900000*%
%ADD51C,1.450000*%
%ADD52R,1.500000X1.900000*%
%ADD53RoundRect,0.218750X0.218750X0.256250X-0.218750X0.256250X-0.218750X-0.256250X0.218750X-0.256250X0*%
%ADD54R,0.500000X0.300000*%
%ADD55RoundRect,0.150000X-0.150000X0.512500X-0.150000X-0.512500X0.150000X-0.512500X0.150000X0.512500X0*%
%ADD56RoundRect,0.075000X-0.650000X-0.075000X0.650000X-0.075000X0.650000X0.075000X-0.650000X0.075000X0*%
G04 APERTURE END LIST*
D10*
%TO.C,J303*%
X107000000Y-90475000D03*
D11*
X105500000Y-89000000D03*
D10*
X104000000Y-90475000D03*
D11*
X105500000Y-91950000D03*
%TD*%
D12*
%TO.C,H104*%
X90500000Y-75000000D03*
%TD*%
%TO.C,H103*%
X156500000Y-75000000D03*
%TD*%
%TO.C,H102*%
X156500000Y-98000000D03*
%TD*%
%TO.C,H101*%
X90500000Y-98000000D03*
%TD*%
D13*
%TO.C,SW301*%
X141250000Y-97250000D03*
X134750000Y-97250000D03*
X141250000Y-92750000D03*
X134750000Y-92750000D03*
%TD*%
D14*
%TO.C,C201*%
X128500000Y-117775000D03*
X128500000Y-116225000D03*
%TD*%
D15*
%TO.C,J502*%
X89900000Y-128630000D03*
D16*
X89900000Y-126090000D03*
X89900000Y-123550000D03*
X89900000Y-121010000D03*
X89900000Y-118470000D03*
%TD*%
D17*
%TO.C,J102*%
X154722500Y-111040000D03*
D18*
X154722500Y-105960000D03*
%TD*%
D19*
%TO.C,R303*%
X112825000Y-111000000D03*
X111175000Y-111000000D03*
%TD*%
D20*
%TO.C,C203*%
X126500000Y-117100000D03*
X126500000Y-114150000D03*
%TD*%
%TO.C,C204*%
X133500000Y-117475000D03*
X133500000Y-114525000D03*
%TD*%
D21*
%TO.C,U302*%
X116562500Y-92250000D03*
X116562500Y-92750000D03*
X116562500Y-93250000D03*
X116562500Y-93750000D03*
X116562500Y-94250000D03*
X116562500Y-94750000D03*
X116562500Y-95250000D03*
X116562500Y-95750000D03*
D22*
X117250000Y-96437500D03*
X117750000Y-96437500D03*
X118250000Y-96437500D03*
X118750000Y-96437500D03*
X119250000Y-96437500D03*
X119750000Y-96437500D03*
X120250000Y-96437500D03*
X120750000Y-96437500D03*
D21*
X121437500Y-95750000D03*
X121437500Y-95250000D03*
X121437500Y-94750000D03*
X121437500Y-94250000D03*
X121437500Y-93750000D03*
X121437500Y-93250000D03*
X121437500Y-92750000D03*
X121437500Y-92250000D03*
D22*
X120750000Y-91562500D03*
X120250000Y-91562500D03*
X119750000Y-91562500D03*
X119250000Y-91562500D03*
X118750000Y-91562500D03*
X118250000Y-91562500D03*
X117750000Y-91562500D03*
X117250000Y-91562500D03*
D23*
X119000000Y-94000000D03*
%TD*%
D19*
%TO.C,R203*%
X125225000Y-109400000D03*
X123575000Y-109400000D03*
%TD*%
%TO.C,R201*%
X134825000Y-119500000D03*
X133175000Y-119500000D03*
%TD*%
D24*
%TO.C,R402*%
X150000000Y-111632500D03*
X150000000Y-105707500D03*
%TD*%
D25*
%TO.C,C301*%
X120500000Y-99050000D03*
X120500000Y-100950000D03*
%TD*%
D26*
%TO.C,C304*%
X123225000Y-96000000D03*
X124775000Y-96000000D03*
%TD*%
D27*
%TO.C,R301*%
X123500000Y-99175000D03*
X123500000Y-100825000D03*
%TD*%
D20*
%TO.C,C202*%
X136000000Y-117475000D03*
X136000000Y-114525000D03*
%TD*%
D25*
%TO.C,C208*%
X128000000Y-119500000D03*
X128000000Y-121400000D03*
%TD*%
D28*
%TO.C,U201*%
X129950000Y-114325000D03*
X129950000Y-114975000D03*
D29*
X129950000Y-115575000D03*
X129950000Y-116100000D03*
D30*
X130350000Y-116850000D03*
X130850000Y-116850000D03*
X131350000Y-116850000D03*
D29*
X131750000Y-116100000D03*
X131750000Y-115575000D03*
D28*
X131750000Y-114975000D03*
X131750000Y-114325000D03*
D31*
X130850000Y-114662000D03*
%TD*%
D15*
%TO.C,J501*%
X89900000Y-114130000D03*
D16*
X89900000Y-111590000D03*
X89900000Y-109050000D03*
X89900000Y-106510000D03*
X89900000Y-103970000D03*
%TD*%
D32*
%TO.C,C307*%
X112000000Y-93000000D03*
X110450000Y-93000000D03*
%TD*%
D33*
%TO.C,C601*%
X93500000Y-86000000D03*
X93500000Y-84100000D03*
%TD*%
D34*
%TO.C,R101*%
X118000000Y-106825000D03*
X118000000Y-105175000D03*
%TD*%
D32*
%TO.C,C309*%
X108950000Y-100000000D03*
X107400000Y-100000000D03*
%TD*%
D35*
%TO.C,L301*%
X110240000Y-94500000D03*
X111210000Y-94500000D03*
%TD*%
D36*
%TO.C,C312*%
X121000000Y-85225000D03*
X121000000Y-86775000D03*
%TD*%
D37*
%TO.C,U501*%
X95050000Y-112110000D03*
X95050000Y-113380000D03*
X95050000Y-114650000D03*
X95050000Y-115920000D03*
X95050000Y-117190000D03*
X95050000Y-118460000D03*
X95050000Y-119730000D03*
X95050000Y-121000000D03*
X100000000Y-121000000D03*
X100000000Y-119730000D03*
X100000000Y-118460000D03*
X100000000Y-117190000D03*
X100000000Y-115920000D03*
X100000000Y-114650000D03*
X100000000Y-113380000D03*
X100000000Y-112110000D03*
%TD*%
D26*
%TO.C,C402*%
X143947500Y-105670000D03*
X145497500Y-105670000D03*
%TD*%
D38*
%TO.C,Y302*%
X117800000Y-86550000D03*
X119200000Y-86550000D03*
X119200000Y-85450000D03*
X117800000Y-85450000D03*
%TD*%
D17*
%TO.C,J101*%
X154722500Y-125250000D03*
D18*
X154722500Y-120170000D03*
%TD*%
D39*
%TO.C,C504*%
X98425000Y-123055000D03*
X96525000Y-123055000D03*
%TD*%
D40*
%TO.C,J302*%
X137500000Y-77600000D03*
X137500000Y-87400000D03*
D41*
X134500000Y-79450000D03*
X134500000Y-80550000D03*
X134500000Y-81650000D03*
X134500000Y-82750000D03*
X134500000Y-83850000D03*
X134500000Y-84950000D03*
X134500000Y-86050000D03*
X134500000Y-87150000D03*
X134500000Y-78350000D03*
X134500000Y-77250000D03*
X142250000Y-75250000D03*
X142250000Y-89750000D03*
%TD*%
D42*
%TO.C,L201*%
X131000000Y-112350000D03*
X131000000Y-109550000D03*
%TD*%
D43*
%TO.C,C503*%
X96525000Y-108055000D03*
X98425000Y-108055000D03*
%TD*%
D36*
%TO.C,C302*%
X118500000Y-98725000D03*
X118500000Y-100275000D03*
%TD*%
D44*
%TO.C,Y301*%
X108675000Y-101750000D03*
X108675000Y-104250000D03*
%TD*%
D24*
%TO.C,R401*%
X150000000Y-125632500D03*
X150000000Y-119707500D03*
%TD*%
D34*
%TO.C,R305*%
X118000000Y-89825000D03*
X118000000Y-88175000D03*
%TD*%
D39*
%TO.C,C308*%
X112950000Y-109000000D03*
X111050000Y-109000000D03*
%TD*%
D14*
%TO.C,C311*%
X116000000Y-86775000D03*
X116000000Y-85225000D03*
%TD*%
D32*
%TO.C,C310*%
X108950000Y-106000000D03*
X107400000Y-106000000D03*
%TD*%
D36*
%TO.C,C314*%
X109000000Y-90725000D03*
X109000000Y-92275000D03*
%TD*%
D19*
%TO.C,R304*%
X112500000Y-101500000D03*
X110850000Y-101500000D03*
%TD*%
D32*
%TO.C,C306*%
X112000000Y-96000000D03*
X110450000Y-96000000D03*
%TD*%
D14*
%TO.C,C303*%
X116500000Y-90000000D03*
X116500000Y-88450000D03*
%TD*%
D19*
%TO.C,R302*%
X112825000Y-105500000D03*
X111175000Y-105500000D03*
%TD*%
D33*
%TO.C,C501*%
X103000000Y-113450000D03*
X103000000Y-111550000D03*
%TD*%
D39*
%TO.C,C207*%
X134950000Y-121500000D03*
X133050000Y-121500000D03*
%TD*%
D45*
%TO.C,C206*%
X134500000Y-109525000D03*
X134500000Y-112475000D03*
%TD*%
D43*
%TO.C,C502*%
X96525000Y-110055000D03*
X98425000Y-110055000D03*
%TD*%
D26*
%TO.C,C401*%
X143947500Y-120170000D03*
X145497500Y-120170000D03*
%TD*%
D46*
%TO.C,JP201*%
X132950000Y-73250000D03*
D47*
X134250000Y-73250000D03*
%TD*%
D25*
%TO.C,C505*%
X92975000Y-123105000D03*
X92975000Y-125005000D03*
%TD*%
D39*
%TO.C,C305*%
X111950000Y-98000000D03*
X110050000Y-98000000D03*
%TD*%
D48*
%TO.C,J301*%
X125500000Y-74302500D03*
X124850000Y-74302500D03*
X124200000Y-74302500D03*
X123550000Y-74302500D03*
X122900000Y-74302500D03*
D49*
X127700000Y-71602500D03*
D50*
X127100000Y-71602500D03*
D51*
X126700000Y-74302500D03*
D52*
X125200000Y-71602500D03*
X123200000Y-71602500D03*
D51*
X121700000Y-74302500D03*
D50*
X121300000Y-71602500D03*
D49*
X120700000Y-71602500D03*
%TD*%
D53*
%TO.C,L302*%
X112287500Y-91000000D03*
X110712500Y-91000000D03*
%TD*%
D14*
%TO.C,C313*%
X114000000Y-91275000D03*
X114000000Y-89725000D03*
%TD*%
D54*
%TO.C,U601*%
X90100000Y-84700000D03*
X90100000Y-85500000D03*
X91500000Y-85500000D03*
X91500000Y-84700000D03*
%TD*%
D55*
%TO.C,U301*%
X125000000Y-79225000D03*
X124050000Y-79225000D03*
X123100000Y-79225000D03*
X123100000Y-81500000D03*
X124050000Y-81500000D03*
X125000000Y-81500000D03*
%TD*%
D25*
%TO.C,C506*%
X92975000Y-108105000D03*
X92975000Y-110005000D03*
%TD*%
D45*
%TO.C,C205*%
X127500000Y-109500000D03*
X127500000Y-112450000D03*
%TD*%
D19*
%TO.C,R202*%
X131650000Y-118000000D03*
X130000000Y-118000000D03*
%TD*%
D56*
%TO.C,U401*%
X142522500Y-122170000D03*
X142522500Y-122670000D03*
X142522500Y-123170000D03*
X142522500Y-123670000D03*
X142522500Y-124170000D03*
X146922500Y-124170000D03*
X146922500Y-123670000D03*
X146922500Y-123170000D03*
X146922500Y-122670000D03*
X146922500Y-122170000D03*
%TD*%
%TO.C,U402*%
X142522500Y-107670000D03*
X142522500Y-108170000D03*
X142522500Y-108670000D03*
X142522500Y-109170000D03*
X142522500Y-109670000D03*
X146922500Y-109670000D03*
X146922500Y-109170000D03*
X146922500Y-108670000D03*
X146922500Y-108170000D03*
X146922500Y-107670000D03*
%TD*%
D34*
%TO.C,R102*%
X116500000Y-106825000D03*
X116500000Y-105175000D03*
%TD*%
M02*
