%TF.GenerationSoftware,KiCad,Pcbnew,7.0.8-7.0.8~ubuntu22.04.1*%
%TF.CreationDate,2023-11-01T09:21:20-04:00*%
%TF.ProjectId,esp32_sensor_board,65737033-325f-4736-956e-736f725f626f,rev?*%
%TF.SameCoordinates,Original*%
%TF.FileFunction,Soldermask,Bot*%
%TF.FilePolarity,Negative*%
%FSLAX46Y46*%
G04 Gerber Fmt 4.6, Leading zero omitted, Abs format (unit mm)*
G04 Created by KiCad (PCBNEW 7.0.8-7.0.8~ubuntu22.04.1) date 2023-11-01 09:21:20*
%MOMM*%
%LPD*%
G01*
G04 APERTURE LIST*
G04 Aperture macros list*
%AMRoundRect*
0 Rectangle with rounded corners*
0 $1 Rounding radius*
0 $2 $3 $4 $5 $6 $7 $8 $9 X,Y pos of 4 corners*
0 Add a 4 corners polygon primitive as box body*
4,1,4,$2,$3,$4,$5,$6,$7,$8,$9,$2,$3,0*
0 Add four circle primitives for the rounded corners*
1,1,$1+$1,$2,$3*
1,1,$1+$1,$4,$5*
1,1,$1+$1,$6,$7*
1,1,$1+$1,$8,$9*
0 Add four rect primitives between the rounded corners*
20,1,$1+$1,$2,$3,$4,$5,0*
20,1,$1+$1,$4,$5,$6,$7,0*
20,1,$1+$1,$6,$7,$8,$9,0*
20,1,$1+$1,$8,$9,$2,$3,0*%
G04 Aperture macros list end*
%ADD10RoundRect,0.249999X-0.790001X-1.550001X0.790001X-1.550001X0.790001X1.550001X-0.790001X1.550001X0*%
%ADD11O,2.080000X3.600000*%
%ADD12R,1.700000X1.700000*%
%ADD13O,1.700000X1.700000*%
%ADD14RoundRect,0.249999X1.550001X-0.790001X1.550001X0.790001X-1.550001X0.790001X-1.550001X-0.790001X0*%
%ADD15O,3.600000X2.080000*%
%ADD16C,0.750000*%
%ADD17C,5.600000*%
%ADD18C,1.640000*%
%ADD19O,1.200000X1.900000*%
%ADD20C,1.450000*%
G04 APERTURE END LIST*
D10*
%TO.C,J103*%
X106960000Y-125150500D03*
D11*
X112040000Y-125150500D03*
%TD*%
D12*
%TO.C,J502*%
X89900000Y-128630000D03*
D13*
X89900000Y-126090000D03*
X89900000Y-123550000D03*
X89900000Y-121010000D03*
X89900000Y-118470000D03*
%TD*%
D14*
%TO.C,J102*%
X154722500Y-111910000D03*
D15*
X154722500Y-106830000D03*
%TD*%
D12*
%TO.C,J201*%
X127156000Y-103020000D03*
D13*
X129696000Y-103020000D03*
X132236000Y-103020000D03*
%TD*%
D16*
%TO.C,SW302*%
X108360000Y-73280000D03*
X108360000Y-70530000D03*
%TD*%
D12*
%TO.C,J501*%
X89900000Y-114130000D03*
D13*
X89900000Y-111590000D03*
X89900000Y-109050000D03*
X89900000Y-106510000D03*
X89900000Y-103970000D03*
%TD*%
D17*
%TO.C,H101*%
X90500000Y-98000000D03*
%TD*%
D12*
%TO.C,J308*%
X130960000Y-92860000D03*
D13*
X133500000Y-92860000D03*
X136040000Y-92860000D03*
X138580000Y-92860000D03*
X141120000Y-92860000D03*
X143660000Y-92860000D03*
%TD*%
D14*
%TO.C,J101*%
X154722500Y-125250000D03*
D15*
X154722500Y-120170000D03*
%TD*%
D12*
%TO.C,J304*%
X117000000Y-74475000D03*
D13*
X117000000Y-77015000D03*
X117000000Y-79555000D03*
%TD*%
D18*
%TO.C,J302*%
X137500000Y-77600000D03*
X137500000Y-87400000D03*
%TD*%
D12*
%TO.C,J305*%
X143460000Y-106000000D03*
D13*
X146000000Y-106000000D03*
X148540000Y-106000000D03*
%TD*%
D17*
%TO.C,H103*%
X156500000Y-75000000D03*
%TD*%
D12*
%TO.C,J306*%
X143500000Y-100500000D03*
D13*
X146040000Y-100500000D03*
X148580000Y-100500000D03*
%TD*%
D10*
%TO.C,J104*%
X120460000Y-125222500D03*
D11*
X125540000Y-125222500D03*
%TD*%
D17*
%TO.C,H102*%
X156500000Y-98000000D03*
%TD*%
D19*
%TO.C,J301*%
X127700000Y-71602500D03*
D20*
X126700000Y-74302500D03*
X121700000Y-74302500D03*
D19*
X120700000Y-71602500D03*
%TD*%
D17*
%TO.C,H104*%
X90500000Y-75000000D03*
%TD*%
D12*
%TO.C,J307*%
X139880000Y-126000000D03*
D13*
X142420000Y-126000000D03*
X144960000Y-126000000D03*
X147500000Y-126000000D03*
%TD*%
M02*
