%TF.GenerationSoftware,KiCad,Pcbnew,7.0.6-7.0.6~ubuntu22.04.1*%
%TF.CreationDate,2023-07-31T15:47:24-04:00*%
%TF.ProjectId,esp32_sensor_board,65737033-325f-4736-956e-736f725f626f,rev?*%
%TF.SameCoordinates,Original*%
%TF.FileFunction,Legend,Bot*%
%TF.FilePolarity,Positive*%
%FSLAX46Y46*%
G04 Gerber Fmt 4.6, Leading zero omitted, Abs format (unit mm)*
G04 Created by KiCad (PCBNEW 7.0.6-7.0.6~ubuntu22.04.1) date 2023-07-31 15:47:24*
%MOMM*%
%LPD*%
G01*
G04 APERTURE LIST*
%ADD10C,0.150000*%
%ADD11C,0.010000*%
G04 APERTURE END LIST*
D10*
X119163220Y-103906009D02*
X118829887Y-103906009D01*
X118687030Y-104429819D02*
X119163220Y-104429819D01*
X119163220Y-104429819D02*
X119163220Y-103429819D01*
X119163220Y-103429819D02*
X118687030Y-103429819D01*
X118306077Y-104382200D02*
X118163220Y-104429819D01*
X118163220Y-104429819D02*
X117925125Y-104429819D01*
X117925125Y-104429819D02*
X117829887Y-104382200D01*
X117829887Y-104382200D02*
X117782268Y-104334580D01*
X117782268Y-104334580D02*
X117734649Y-104239342D01*
X117734649Y-104239342D02*
X117734649Y-104144104D01*
X117734649Y-104144104D02*
X117782268Y-104048866D01*
X117782268Y-104048866D02*
X117829887Y-104001247D01*
X117829887Y-104001247D02*
X117925125Y-103953628D01*
X117925125Y-103953628D02*
X118115601Y-103906009D01*
X118115601Y-103906009D02*
X118210839Y-103858390D01*
X118210839Y-103858390D02*
X118258458Y-103810771D01*
X118258458Y-103810771D02*
X118306077Y-103715533D01*
X118306077Y-103715533D02*
X118306077Y-103620295D01*
X118306077Y-103620295D02*
X118258458Y-103525057D01*
X118258458Y-103525057D02*
X118210839Y-103477438D01*
X118210839Y-103477438D02*
X118115601Y-103429819D01*
X118115601Y-103429819D02*
X117877506Y-103429819D01*
X117877506Y-103429819D02*
X117734649Y-103477438D01*
X117306077Y-104429819D02*
X117306077Y-103429819D01*
X117306077Y-103429819D02*
X116925125Y-103429819D01*
X116925125Y-103429819D02*
X116829887Y-103477438D01*
X116829887Y-103477438D02*
X116782268Y-103525057D01*
X116782268Y-103525057D02*
X116734649Y-103620295D01*
X116734649Y-103620295D02*
X116734649Y-103763152D01*
X116734649Y-103763152D02*
X116782268Y-103858390D01*
X116782268Y-103858390D02*
X116829887Y-103906009D01*
X116829887Y-103906009D02*
X116925125Y-103953628D01*
X116925125Y-103953628D02*
X117306077Y-103953628D01*
X116401315Y-103429819D02*
X115782268Y-103429819D01*
X115782268Y-103429819D02*
X116115601Y-103810771D01*
X116115601Y-103810771D02*
X115972744Y-103810771D01*
X115972744Y-103810771D02*
X115877506Y-103858390D01*
X115877506Y-103858390D02*
X115829887Y-103906009D01*
X115829887Y-103906009D02*
X115782268Y-104001247D01*
X115782268Y-104001247D02*
X115782268Y-104239342D01*
X115782268Y-104239342D02*
X115829887Y-104334580D01*
X115829887Y-104334580D02*
X115877506Y-104382200D01*
X115877506Y-104382200D02*
X115972744Y-104429819D01*
X115972744Y-104429819D02*
X116258458Y-104429819D01*
X116258458Y-104429819D02*
X116353696Y-104382200D01*
X116353696Y-104382200D02*
X116401315Y-104334580D01*
X115401315Y-103525057D02*
X115353696Y-103477438D01*
X115353696Y-103477438D02*
X115258458Y-103429819D01*
X115258458Y-103429819D02*
X115020363Y-103429819D01*
X115020363Y-103429819D02*
X114925125Y-103477438D01*
X114925125Y-103477438D02*
X114877506Y-103525057D01*
X114877506Y-103525057D02*
X114829887Y-103620295D01*
X114829887Y-103620295D02*
X114829887Y-103715533D01*
X114829887Y-103715533D02*
X114877506Y-103858390D01*
X114877506Y-103858390D02*
X115448934Y-104429819D01*
X115448934Y-104429819D02*
X114829887Y-104429819D01*
X114401315Y-104048866D02*
X113639411Y-104048866D01*
X112591792Y-104334580D02*
X112639411Y-104382200D01*
X112639411Y-104382200D02*
X112782268Y-104429819D01*
X112782268Y-104429819D02*
X112877506Y-104429819D01*
X112877506Y-104429819D02*
X113020363Y-104382200D01*
X113020363Y-104382200D02*
X113115601Y-104286961D01*
X113115601Y-104286961D02*
X113163220Y-104191723D01*
X113163220Y-104191723D02*
X113210839Y-104001247D01*
X113210839Y-104001247D02*
X113210839Y-103858390D01*
X113210839Y-103858390D02*
X113163220Y-103667914D01*
X113163220Y-103667914D02*
X113115601Y-103572676D01*
X113115601Y-103572676D02*
X113020363Y-103477438D01*
X113020363Y-103477438D02*
X112877506Y-103429819D01*
X112877506Y-103429819D02*
X112782268Y-103429819D01*
X112782268Y-103429819D02*
X112639411Y-103477438D01*
X112639411Y-103477438D02*
X112591792Y-103525057D01*
X112258458Y-103429819D02*
X111639411Y-103429819D01*
X111639411Y-103429819D02*
X111972744Y-103810771D01*
X111972744Y-103810771D02*
X111829887Y-103810771D01*
X111829887Y-103810771D02*
X111734649Y-103858390D01*
X111734649Y-103858390D02*
X111687030Y-103906009D01*
X111687030Y-103906009D02*
X111639411Y-104001247D01*
X111639411Y-104001247D02*
X111639411Y-104239342D01*
X111639411Y-104239342D02*
X111687030Y-104334580D01*
X111687030Y-104334580D02*
X111734649Y-104382200D01*
X111734649Y-104382200D02*
X111829887Y-104429819D01*
X111829887Y-104429819D02*
X112115601Y-104429819D01*
X112115601Y-104429819D02*
X112210839Y-104382200D01*
X112210839Y-104382200D02*
X112258458Y-104334580D01*
X110877506Y-103906009D02*
X111210839Y-103906009D01*
X111210839Y-104429819D02*
X111210839Y-103429819D01*
X111210839Y-103429819D02*
X110734649Y-103429819D01*
X110353696Y-104429819D02*
X110353696Y-103429819D01*
X110353696Y-103906009D02*
X109782268Y-103906009D01*
X109782268Y-104429819D02*
X109782268Y-103429819D01*
X108877506Y-103763152D02*
X108877506Y-104429819D01*
X109115601Y-103382200D02*
X109353696Y-104096485D01*
X109353696Y-104096485D02*
X108734649Y-104096485D01*
X107639410Y-104382200D02*
X107544172Y-104429819D01*
X107544172Y-104429819D02*
X107353696Y-104429819D01*
X107353696Y-104429819D02*
X107258458Y-104382200D01*
X107258458Y-104382200D02*
X107210839Y-104286961D01*
X107210839Y-104286961D02*
X107210839Y-104239342D01*
X107210839Y-104239342D02*
X107258458Y-104144104D01*
X107258458Y-104144104D02*
X107353696Y-104096485D01*
X107353696Y-104096485D02*
X107496553Y-104096485D01*
X107496553Y-104096485D02*
X107591791Y-104048866D01*
X107591791Y-104048866D02*
X107639410Y-103953628D01*
X107639410Y-103953628D02*
X107639410Y-103906009D01*
X107639410Y-103906009D02*
X107591791Y-103810771D01*
X107591791Y-103810771D02*
X107496553Y-103763152D01*
X107496553Y-103763152D02*
X107353696Y-103763152D01*
X107353696Y-103763152D02*
X107258458Y-103810771D01*
X106401315Y-104382200D02*
X106496553Y-104429819D01*
X106496553Y-104429819D02*
X106687029Y-104429819D01*
X106687029Y-104429819D02*
X106782267Y-104382200D01*
X106782267Y-104382200D02*
X106829886Y-104286961D01*
X106829886Y-104286961D02*
X106829886Y-103906009D01*
X106829886Y-103906009D02*
X106782267Y-103810771D01*
X106782267Y-103810771D02*
X106687029Y-103763152D01*
X106687029Y-103763152D02*
X106496553Y-103763152D01*
X106496553Y-103763152D02*
X106401315Y-103810771D01*
X106401315Y-103810771D02*
X106353696Y-103906009D01*
X106353696Y-103906009D02*
X106353696Y-104001247D01*
X106353696Y-104001247D02*
X106829886Y-104096485D01*
X105925124Y-103763152D02*
X105925124Y-104429819D01*
X105925124Y-103858390D02*
X105877505Y-103810771D01*
X105877505Y-103810771D02*
X105782267Y-103763152D01*
X105782267Y-103763152D02*
X105639410Y-103763152D01*
X105639410Y-103763152D02*
X105544172Y-103810771D01*
X105544172Y-103810771D02*
X105496553Y-103906009D01*
X105496553Y-103906009D02*
X105496553Y-104429819D01*
X105067981Y-104382200D02*
X104972743Y-104429819D01*
X104972743Y-104429819D02*
X104782267Y-104429819D01*
X104782267Y-104429819D02*
X104687029Y-104382200D01*
X104687029Y-104382200D02*
X104639410Y-104286961D01*
X104639410Y-104286961D02*
X104639410Y-104239342D01*
X104639410Y-104239342D02*
X104687029Y-104144104D01*
X104687029Y-104144104D02*
X104782267Y-104096485D01*
X104782267Y-104096485D02*
X104925124Y-104096485D01*
X104925124Y-104096485D02*
X105020362Y-104048866D01*
X105020362Y-104048866D02*
X105067981Y-103953628D01*
X105067981Y-103953628D02*
X105067981Y-103906009D01*
X105067981Y-103906009D02*
X105020362Y-103810771D01*
X105020362Y-103810771D02*
X104925124Y-103763152D01*
X104925124Y-103763152D02*
X104782267Y-103763152D01*
X104782267Y-103763152D02*
X104687029Y-103810771D01*
X104067981Y-104429819D02*
X104163219Y-104382200D01*
X104163219Y-104382200D02*
X104210838Y-104334580D01*
X104210838Y-104334580D02*
X104258457Y-104239342D01*
X104258457Y-104239342D02*
X104258457Y-103953628D01*
X104258457Y-103953628D02*
X104210838Y-103858390D01*
X104210838Y-103858390D02*
X104163219Y-103810771D01*
X104163219Y-103810771D02*
X104067981Y-103763152D01*
X104067981Y-103763152D02*
X103925124Y-103763152D01*
X103925124Y-103763152D02*
X103829886Y-103810771D01*
X103829886Y-103810771D02*
X103782267Y-103858390D01*
X103782267Y-103858390D02*
X103734648Y-103953628D01*
X103734648Y-103953628D02*
X103734648Y-104239342D01*
X103734648Y-104239342D02*
X103782267Y-104334580D01*
X103782267Y-104334580D02*
X103829886Y-104382200D01*
X103829886Y-104382200D02*
X103925124Y-104429819D01*
X103925124Y-104429819D02*
X104067981Y-104429819D01*
X103306076Y-104429819D02*
X103306076Y-103763152D01*
X103306076Y-103953628D02*
X103258457Y-103858390D01*
X103258457Y-103858390D02*
X103210838Y-103810771D01*
X103210838Y-103810771D02*
X103115600Y-103763152D01*
X103115600Y-103763152D02*
X103020362Y-103763152D01*
X101925123Y-104429819D02*
X101925123Y-103429819D01*
X101925123Y-103810771D02*
X101829885Y-103763152D01*
X101829885Y-103763152D02*
X101639409Y-103763152D01*
X101639409Y-103763152D02*
X101544171Y-103810771D01*
X101544171Y-103810771D02*
X101496552Y-103858390D01*
X101496552Y-103858390D02*
X101448933Y-103953628D01*
X101448933Y-103953628D02*
X101448933Y-104239342D01*
X101448933Y-104239342D02*
X101496552Y-104334580D01*
X101496552Y-104334580D02*
X101544171Y-104382200D01*
X101544171Y-104382200D02*
X101639409Y-104429819D01*
X101639409Y-104429819D02*
X101829885Y-104429819D01*
X101829885Y-104429819D02*
X101925123Y-104382200D01*
X100877504Y-104429819D02*
X100972742Y-104382200D01*
X100972742Y-104382200D02*
X101020361Y-104334580D01*
X101020361Y-104334580D02*
X101067980Y-104239342D01*
X101067980Y-104239342D02*
X101067980Y-103953628D01*
X101067980Y-103953628D02*
X101020361Y-103858390D01*
X101020361Y-103858390D02*
X100972742Y-103810771D01*
X100972742Y-103810771D02*
X100877504Y-103763152D01*
X100877504Y-103763152D02*
X100734647Y-103763152D01*
X100734647Y-103763152D02*
X100639409Y-103810771D01*
X100639409Y-103810771D02*
X100591790Y-103858390D01*
X100591790Y-103858390D02*
X100544171Y-103953628D01*
X100544171Y-103953628D02*
X100544171Y-104239342D01*
X100544171Y-104239342D02*
X100591790Y-104334580D01*
X100591790Y-104334580D02*
X100639409Y-104382200D01*
X100639409Y-104382200D02*
X100734647Y-104429819D01*
X100734647Y-104429819D02*
X100877504Y-104429819D01*
X99687028Y-104429819D02*
X99687028Y-103906009D01*
X99687028Y-103906009D02*
X99734647Y-103810771D01*
X99734647Y-103810771D02*
X99829885Y-103763152D01*
X99829885Y-103763152D02*
X100020361Y-103763152D01*
X100020361Y-103763152D02*
X100115599Y-103810771D01*
X99687028Y-104382200D02*
X99782266Y-104429819D01*
X99782266Y-104429819D02*
X100020361Y-104429819D01*
X100020361Y-104429819D02*
X100115599Y-104382200D01*
X100115599Y-104382200D02*
X100163218Y-104286961D01*
X100163218Y-104286961D02*
X100163218Y-104191723D01*
X100163218Y-104191723D02*
X100115599Y-104096485D01*
X100115599Y-104096485D02*
X100020361Y-104048866D01*
X100020361Y-104048866D02*
X99782266Y-104048866D01*
X99782266Y-104048866D02*
X99687028Y-104001247D01*
X99210837Y-104429819D02*
X99210837Y-103763152D01*
X99210837Y-103953628D02*
X99163218Y-103858390D01*
X99163218Y-103858390D02*
X99115599Y-103810771D01*
X99115599Y-103810771D02*
X99020361Y-103763152D01*
X99020361Y-103763152D02*
X98925123Y-103763152D01*
X98163218Y-104429819D02*
X98163218Y-103429819D01*
X98163218Y-104382200D02*
X98258456Y-104429819D01*
X98258456Y-104429819D02*
X98448932Y-104429819D01*
X98448932Y-104429819D02*
X98544170Y-104382200D01*
X98544170Y-104382200D02*
X98591789Y-104334580D01*
X98591789Y-104334580D02*
X98639408Y-104239342D01*
X98639408Y-104239342D02*
X98639408Y-103953628D01*
X98639408Y-103953628D02*
X98591789Y-103858390D01*
X98591789Y-103858390D02*
X98544170Y-103810771D01*
X98544170Y-103810771D02*
X98448932Y-103763152D01*
X98448932Y-103763152D02*
X98258456Y-103763152D01*
X98258456Y-103763152D02*
X98163218Y-103810771D01*
X119258458Y-105373152D02*
X119020363Y-106039819D01*
X119020363Y-106039819D02*
X118782268Y-105373152D01*
X117925125Y-105039819D02*
X118401315Y-105039819D01*
X118401315Y-105039819D02*
X118448934Y-105516009D01*
X118448934Y-105516009D02*
X118401315Y-105468390D01*
X118401315Y-105468390D02*
X118306077Y-105420771D01*
X118306077Y-105420771D02*
X118067982Y-105420771D01*
X118067982Y-105420771D02*
X117972744Y-105468390D01*
X117972744Y-105468390D02*
X117925125Y-105516009D01*
X117925125Y-105516009D02*
X117877506Y-105611247D01*
X117877506Y-105611247D02*
X117877506Y-105849342D01*
X117877506Y-105849342D02*
X117925125Y-105944580D01*
X117925125Y-105944580D02*
X117972744Y-105992200D01*
X117972744Y-105992200D02*
X118067982Y-106039819D01*
X118067982Y-106039819D02*
X118306077Y-106039819D01*
X118306077Y-106039819D02*
X118401315Y-105992200D01*
X118401315Y-105992200D02*
X118448934Y-105944580D01*
X116687029Y-105658866D02*
X115925125Y-105658866D01*
X114782267Y-105373152D02*
X114544172Y-106039819D01*
X114544172Y-106039819D02*
X114306077Y-105373152D01*
X113496553Y-105039819D02*
X113687029Y-105039819D01*
X113687029Y-105039819D02*
X113782267Y-105087438D01*
X113782267Y-105087438D02*
X113829886Y-105135057D01*
X113829886Y-105135057D02*
X113925124Y-105277914D01*
X113925124Y-105277914D02*
X113972743Y-105468390D01*
X113972743Y-105468390D02*
X113972743Y-105849342D01*
X113972743Y-105849342D02*
X113925124Y-105944580D01*
X113925124Y-105944580D02*
X113877505Y-105992200D01*
X113877505Y-105992200D02*
X113782267Y-106039819D01*
X113782267Y-106039819D02*
X113591791Y-106039819D01*
X113591791Y-106039819D02*
X113496553Y-105992200D01*
X113496553Y-105992200D02*
X113448934Y-105944580D01*
X113448934Y-105944580D02*
X113401315Y-105849342D01*
X113401315Y-105849342D02*
X113401315Y-105611247D01*
X113401315Y-105611247D02*
X113448934Y-105516009D01*
X113448934Y-105516009D02*
X113496553Y-105468390D01*
X113496553Y-105468390D02*
X113591791Y-105420771D01*
X113591791Y-105420771D02*
X113782267Y-105420771D01*
X113782267Y-105420771D02*
X113877505Y-105468390D01*
X113877505Y-105468390D02*
X113925124Y-105516009D01*
X113925124Y-105516009D02*
X113972743Y-105611247D01*
X112782267Y-105039819D02*
X112687029Y-105039819D01*
X112687029Y-105039819D02*
X112591791Y-105087438D01*
X112591791Y-105087438D02*
X112544172Y-105135057D01*
X112544172Y-105135057D02*
X112496553Y-105230295D01*
X112496553Y-105230295D02*
X112448934Y-105420771D01*
X112448934Y-105420771D02*
X112448934Y-105658866D01*
X112448934Y-105658866D02*
X112496553Y-105849342D01*
X112496553Y-105849342D02*
X112544172Y-105944580D01*
X112544172Y-105944580D02*
X112591791Y-105992200D01*
X112591791Y-105992200D02*
X112687029Y-106039819D01*
X112687029Y-106039819D02*
X112782267Y-106039819D01*
X112782267Y-106039819D02*
X112877505Y-105992200D01*
X112877505Y-105992200D02*
X112925124Y-105944580D01*
X112925124Y-105944580D02*
X112972743Y-105849342D01*
X112972743Y-105849342D02*
X113020362Y-105658866D01*
X113020362Y-105658866D02*
X113020362Y-105420771D01*
X113020362Y-105420771D02*
X112972743Y-105230295D01*
X112972743Y-105230295D02*
X112925124Y-105135057D01*
X112925124Y-105135057D02*
X112877505Y-105087438D01*
X112877505Y-105087438D02*
X112782267Y-105039819D01*
X111258457Y-106039819D02*
X111258457Y-105373152D01*
X111258457Y-105039819D02*
X111306076Y-105087438D01*
X111306076Y-105087438D02*
X111258457Y-105135057D01*
X111258457Y-105135057D02*
X111210838Y-105087438D01*
X111210838Y-105087438D02*
X111258457Y-105039819D01*
X111258457Y-105039819D02*
X111258457Y-105135057D01*
X110782267Y-105373152D02*
X110782267Y-106039819D01*
X110782267Y-105468390D02*
X110734648Y-105420771D01*
X110734648Y-105420771D02*
X110639410Y-105373152D01*
X110639410Y-105373152D02*
X110496553Y-105373152D01*
X110496553Y-105373152D02*
X110401315Y-105420771D01*
X110401315Y-105420771D02*
X110353696Y-105516009D01*
X110353696Y-105516009D02*
X110353696Y-106039819D01*
X109877505Y-105373152D02*
X109877505Y-106373152D01*
X109877505Y-105420771D02*
X109782267Y-105373152D01*
X109782267Y-105373152D02*
X109591791Y-105373152D01*
X109591791Y-105373152D02*
X109496553Y-105420771D01*
X109496553Y-105420771D02*
X109448934Y-105468390D01*
X109448934Y-105468390D02*
X109401315Y-105563628D01*
X109401315Y-105563628D02*
X109401315Y-105849342D01*
X109401315Y-105849342D02*
X109448934Y-105944580D01*
X109448934Y-105944580D02*
X109496553Y-105992200D01*
X109496553Y-105992200D02*
X109591791Y-106039819D01*
X109591791Y-106039819D02*
X109782267Y-106039819D01*
X109782267Y-106039819D02*
X109877505Y-105992200D01*
X108544172Y-105373152D02*
X108544172Y-106039819D01*
X108972743Y-105373152D02*
X108972743Y-105896961D01*
X108972743Y-105896961D02*
X108925124Y-105992200D01*
X108925124Y-105992200D02*
X108829886Y-106039819D01*
X108829886Y-106039819D02*
X108687029Y-106039819D01*
X108687029Y-106039819D02*
X108591791Y-105992200D01*
X108591791Y-105992200D02*
X108544172Y-105944580D01*
X108210838Y-105373152D02*
X107829886Y-105373152D01*
X108067981Y-105039819D02*
X108067981Y-105896961D01*
X108067981Y-105896961D02*
X108020362Y-105992200D01*
X108020362Y-105992200D02*
X107925124Y-106039819D01*
X107925124Y-106039819D02*
X107829886Y-106039819D01*
X106591790Y-106039819D02*
X106687028Y-105992200D01*
X106687028Y-105992200D02*
X106734647Y-105944580D01*
X106734647Y-105944580D02*
X106782266Y-105849342D01*
X106782266Y-105849342D02*
X106782266Y-105563628D01*
X106782266Y-105563628D02*
X106734647Y-105468390D01*
X106734647Y-105468390D02*
X106687028Y-105420771D01*
X106687028Y-105420771D02*
X106591790Y-105373152D01*
X106591790Y-105373152D02*
X106448933Y-105373152D01*
X106448933Y-105373152D02*
X106353695Y-105420771D01*
X106353695Y-105420771D02*
X106306076Y-105468390D01*
X106306076Y-105468390D02*
X106258457Y-105563628D01*
X106258457Y-105563628D02*
X106258457Y-105849342D01*
X106258457Y-105849342D02*
X106306076Y-105944580D01*
X106306076Y-105944580D02*
X106353695Y-105992200D01*
X106353695Y-105992200D02*
X106448933Y-106039819D01*
X106448933Y-106039819D02*
X106591790Y-106039819D01*
X105829885Y-105373152D02*
X105829885Y-106039819D01*
X105829885Y-105468390D02*
X105782266Y-105420771D01*
X105782266Y-105420771D02*
X105687028Y-105373152D01*
X105687028Y-105373152D02*
X105544171Y-105373152D01*
X105544171Y-105373152D02*
X105448933Y-105420771D01*
X105448933Y-105420771D02*
X105401314Y-105516009D01*
X105401314Y-105516009D02*
X105401314Y-106039819D01*
X103877504Y-105039819D02*
X103877504Y-105754104D01*
X103877504Y-105754104D02*
X103925123Y-105896961D01*
X103925123Y-105896961D02*
X104020361Y-105992200D01*
X104020361Y-105992200D02*
X104163218Y-106039819D01*
X104163218Y-106039819D02*
X104258456Y-106039819D01*
X102877504Y-106039819D02*
X103448932Y-106039819D01*
X103163218Y-106039819D02*
X103163218Y-105039819D01*
X103163218Y-105039819D02*
X103258456Y-105182676D01*
X103258456Y-105182676D02*
X103353694Y-105277914D01*
X103353694Y-105277914D02*
X103448932Y-105325533D01*
X102258456Y-105039819D02*
X102163218Y-105039819D01*
X102163218Y-105039819D02*
X102067980Y-105087438D01*
X102067980Y-105087438D02*
X102020361Y-105135057D01*
X102020361Y-105135057D02*
X101972742Y-105230295D01*
X101972742Y-105230295D02*
X101925123Y-105420771D01*
X101925123Y-105420771D02*
X101925123Y-105658866D01*
X101925123Y-105658866D02*
X101972742Y-105849342D01*
X101972742Y-105849342D02*
X102020361Y-105944580D01*
X102020361Y-105944580D02*
X102067980Y-105992200D01*
X102067980Y-105992200D02*
X102163218Y-106039819D01*
X102163218Y-106039819D02*
X102258456Y-106039819D01*
X102258456Y-106039819D02*
X102353694Y-105992200D01*
X102353694Y-105992200D02*
X102401313Y-105944580D01*
X102401313Y-105944580D02*
X102448932Y-105849342D01*
X102448932Y-105849342D02*
X102496551Y-105658866D01*
X102496551Y-105658866D02*
X102496551Y-105420771D01*
X102496551Y-105420771D02*
X102448932Y-105230295D01*
X102448932Y-105230295D02*
X102401313Y-105135057D01*
X102401313Y-105135057D02*
X102353694Y-105087438D01*
X102353694Y-105087438D02*
X102258456Y-105039819D01*
X100972742Y-106039819D02*
X101544170Y-106039819D01*
X101258456Y-106039819D02*
X101258456Y-105039819D01*
X101258456Y-105039819D02*
X101353694Y-105182676D01*
X101353694Y-105182676D02*
X101448932Y-105277914D01*
X101448932Y-105277914D02*
X101544170Y-105325533D01*
X99782265Y-105658866D02*
X99020361Y-105658866D01*
X97782265Y-106039819D02*
X97782265Y-105039819D01*
X97782265Y-105039819D02*
X97401313Y-105039819D01*
X97401313Y-105039819D02*
X97306075Y-105087438D01*
X97306075Y-105087438D02*
X97258456Y-105135057D01*
X97258456Y-105135057D02*
X97210837Y-105230295D01*
X97210837Y-105230295D02*
X97210837Y-105373152D01*
X97210837Y-105373152D02*
X97258456Y-105468390D01*
X97258456Y-105468390D02*
X97306075Y-105516009D01*
X97306075Y-105516009D02*
X97401313Y-105563628D01*
X97401313Y-105563628D02*
X97782265Y-105563628D01*
X96639408Y-106039819D02*
X96734646Y-105992200D01*
X96734646Y-105992200D02*
X96782265Y-105944580D01*
X96782265Y-105944580D02*
X96829884Y-105849342D01*
X96829884Y-105849342D02*
X96829884Y-105563628D01*
X96829884Y-105563628D02*
X96782265Y-105468390D01*
X96782265Y-105468390D02*
X96734646Y-105420771D01*
X96734646Y-105420771D02*
X96639408Y-105373152D01*
X96639408Y-105373152D02*
X96496551Y-105373152D01*
X96496551Y-105373152D02*
X96401313Y-105420771D01*
X96401313Y-105420771D02*
X96353694Y-105468390D01*
X96353694Y-105468390D02*
X96306075Y-105563628D01*
X96306075Y-105563628D02*
X96306075Y-105849342D01*
X96306075Y-105849342D02*
X96353694Y-105944580D01*
X96353694Y-105944580D02*
X96401313Y-105992200D01*
X96401313Y-105992200D02*
X96496551Y-106039819D01*
X96496551Y-106039819D02*
X96639408Y-106039819D01*
X95972741Y-105373152D02*
X95782265Y-106039819D01*
X95782265Y-106039819D02*
X95591789Y-105563628D01*
X95591789Y-105563628D02*
X95401313Y-106039819D01*
X95401313Y-106039819D02*
X95210837Y-105373152D01*
X94448932Y-105992200D02*
X94544170Y-106039819D01*
X94544170Y-106039819D02*
X94734646Y-106039819D01*
X94734646Y-106039819D02*
X94829884Y-105992200D01*
X94829884Y-105992200D02*
X94877503Y-105896961D01*
X94877503Y-105896961D02*
X94877503Y-105516009D01*
X94877503Y-105516009D02*
X94829884Y-105420771D01*
X94829884Y-105420771D02*
X94734646Y-105373152D01*
X94734646Y-105373152D02*
X94544170Y-105373152D01*
X94544170Y-105373152D02*
X94448932Y-105420771D01*
X94448932Y-105420771D02*
X94401313Y-105516009D01*
X94401313Y-105516009D02*
X94401313Y-105611247D01*
X94401313Y-105611247D02*
X94877503Y-105706485D01*
X93972741Y-106039819D02*
X93972741Y-105373152D01*
X93972741Y-105563628D02*
X93925122Y-105468390D01*
X93925122Y-105468390D02*
X93877503Y-105420771D01*
X93877503Y-105420771D02*
X93782265Y-105373152D01*
X93782265Y-105373152D02*
X93687027Y-105373152D01*
X93401312Y-105992200D02*
X93306074Y-106039819D01*
X93306074Y-106039819D02*
X93115598Y-106039819D01*
X93115598Y-106039819D02*
X93020360Y-105992200D01*
X93020360Y-105992200D02*
X92972741Y-105896961D01*
X92972741Y-105896961D02*
X92972741Y-105849342D01*
X92972741Y-105849342D02*
X93020360Y-105754104D01*
X93020360Y-105754104D02*
X93115598Y-105706485D01*
X93115598Y-105706485D02*
X93258455Y-105706485D01*
X93258455Y-105706485D02*
X93353693Y-105658866D01*
X93353693Y-105658866D02*
X93401312Y-105563628D01*
X93401312Y-105563628D02*
X93401312Y-105516009D01*
X93401312Y-105516009D02*
X93353693Y-105420771D01*
X93353693Y-105420771D02*
X93258455Y-105373152D01*
X93258455Y-105373152D02*
X93115598Y-105373152D01*
X93115598Y-105373152D02*
X93020360Y-105420771D01*
X91782264Y-106039819D02*
X91782264Y-105039819D01*
X91782264Y-105420771D02*
X91687026Y-105373152D01*
X91687026Y-105373152D02*
X91496550Y-105373152D01*
X91496550Y-105373152D02*
X91401312Y-105420771D01*
X91401312Y-105420771D02*
X91353693Y-105468390D01*
X91353693Y-105468390D02*
X91306074Y-105563628D01*
X91306074Y-105563628D02*
X91306074Y-105849342D01*
X91306074Y-105849342D02*
X91353693Y-105944580D01*
X91353693Y-105944580D02*
X91401312Y-105992200D01*
X91401312Y-105992200D02*
X91496550Y-106039819D01*
X91496550Y-106039819D02*
X91687026Y-106039819D01*
X91687026Y-106039819D02*
X91782264Y-105992200D01*
X90734645Y-106039819D02*
X90829883Y-105992200D01*
X90829883Y-105992200D02*
X90877502Y-105944580D01*
X90877502Y-105944580D02*
X90925121Y-105849342D01*
X90925121Y-105849342D02*
X90925121Y-105563628D01*
X90925121Y-105563628D02*
X90877502Y-105468390D01*
X90877502Y-105468390D02*
X90829883Y-105420771D01*
X90829883Y-105420771D02*
X90734645Y-105373152D01*
X90734645Y-105373152D02*
X90591788Y-105373152D01*
X90591788Y-105373152D02*
X90496550Y-105420771D01*
X90496550Y-105420771D02*
X90448931Y-105468390D01*
X90448931Y-105468390D02*
X90401312Y-105563628D01*
X90401312Y-105563628D02*
X90401312Y-105849342D01*
X90401312Y-105849342D02*
X90448931Y-105944580D01*
X90448931Y-105944580D02*
X90496550Y-105992200D01*
X90496550Y-105992200D02*
X90591788Y-106039819D01*
X90591788Y-106039819D02*
X90734645Y-106039819D01*
X89544169Y-106039819D02*
X89544169Y-105516009D01*
X89544169Y-105516009D02*
X89591788Y-105420771D01*
X89591788Y-105420771D02*
X89687026Y-105373152D01*
X89687026Y-105373152D02*
X89877502Y-105373152D01*
X89877502Y-105373152D02*
X89972740Y-105420771D01*
X89544169Y-105992200D02*
X89639407Y-106039819D01*
X89639407Y-106039819D02*
X89877502Y-106039819D01*
X89877502Y-106039819D02*
X89972740Y-105992200D01*
X89972740Y-105992200D02*
X90020359Y-105896961D01*
X90020359Y-105896961D02*
X90020359Y-105801723D01*
X90020359Y-105801723D02*
X89972740Y-105706485D01*
X89972740Y-105706485D02*
X89877502Y-105658866D01*
X89877502Y-105658866D02*
X89639407Y-105658866D01*
X89639407Y-105658866D02*
X89544169Y-105611247D01*
X89067978Y-106039819D02*
X89067978Y-105373152D01*
X89067978Y-105563628D02*
X89020359Y-105468390D01*
X89020359Y-105468390D02*
X88972740Y-105420771D01*
X88972740Y-105420771D02*
X88877502Y-105373152D01*
X88877502Y-105373152D02*
X88782264Y-105373152D01*
X88020359Y-106039819D02*
X88020359Y-105039819D01*
X88020359Y-105992200D02*
X88115597Y-106039819D01*
X88115597Y-106039819D02*
X88306073Y-106039819D01*
X88306073Y-106039819D02*
X88401311Y-105992200D01*
X88401311Y-105992200D02*
X88448930Y-105944580D01*
X88448930Y-105944580D02*
X88496549Y-105849342D01*
X88496549Y-105849342D02*
X88496549Y-105563628D01*
X88496549Y-105563628D02*
X88448930Y-105468390D01*
X88448930Y-105468390D02*
X88401311Y-105420771D01*
X88401311Y-105420771D02*
X88306073Y-105373152D01*
X88306073Y-105373152D02*
X88115597Y-105373152D01*
X88115597Y-105373152D02*
X88020359Y-105420771D01*
X119258458Y-106983152D02*
X119020363Y-107649819D01*
X119020363Y-107649819D02*
X118782268Y-106983152D01*
X117925125Y-106649819D02*
X118401315Y-106649819D01*
X118401315Y-106649819D02*
X118448934Y-107126009D01*
X118448934Y-107126009D02*
X118401315Y-107078390D01*
X118401315Y-107078390D02*
X118306077Y-107030771D01*
X118306077Y-107030771D02*
X118067982Y-107030771D01*
X118067982Y-107030771D02*
X117972744Y-107078390D01*
X117972744Y-107078390D02*
X117925125Y-107126009D01*
X117925125Y-107126009D02*
X117877506Y-107221247D01*
X117877506Y-107221247D02*
X117877506Y-107459342D01*
X117877506Y-107459342D02*
X117925125Y-107554580D01*
X117925125Y-107554580D02*
X117972744Y-107602200D01*
X117972744Y-107602200D02*
X118067982Y-107649819D01*
X118067982Y-107649819D02*
X118306077Y-107649819D01*
X118306077Y-107649819D02*
X118401315Y-107602200D01*
X118401315Y-107602200D02*
X118448934Y-107554580D01*
X116687029Y-107268866D02*
X115925125Y-107268866D01*
X114782267Y-106983152D02*
X114544172Y-107649819D01*
X114544172Y-107649819D02*
X114306077Y-106983152D01*
X113496553Y-106649819D02*
X113687029Y-106649819D01*
X113687029Y-106649819D02*
X113782267Y-106697438D01*
X113782267Y-106697438D02*
X113829886Y-106745057D01*
X113829886Y-106745057D02*
X113925124Y-106887914D01*
X113925124Y-106887914D02*
X113972743Y-107078390D01*
X113972743Y-107078390D02*
X113972743Y-107459342D01*
X113972743Y-107459342D02*
X113925124Y-107554580D01*
X113925124Y-107554580D02*
X113877505Y-107602200D01*
X113877505Y-107602200D02*
X113782267Y-107649819D01*
X113782267Y-107649819D02*
X113591791Y-107649819D01*
X113591791Y-107649819D02*
X113496553Y-107602200D01*
X113496553Y-107602200D02*
X113448934Y-107554580D01*
X113448934Y-107554580D02*
X113401315Y-107459342D01*
X113401315Y-107459342D02*
X113401315Y-107221247D01*
X113401315Y-107221247D02*
X113448934Y-107126009D01*
X113448934Y-107126009D02*
X113496553Y-107078390D01*
X113496553Y-107078390D02*
X113591791Y-107030771D01*
X113591791Y-107030771D02*
X113782267Y-107030771D01*
X113782267Y-107030771D02*
X113877505Y-107078390D01*
X113877505Y-107078390D02*
X113925124Y-107126009D01*
X113925124Y-107126009D02*
X113972743Y-107221247D01*
X112782267Y-106649819D02*
X112687029Y-106649819D01*
X112687029Y-106649819D02*
X112591791Y-106697438D01*
X112591791Y-106697438D02*
X112544172Y-106745057D01*
X112544172Y-106745057D02*
X112496553Y-106840295D01*
X112496553Y-106840295D02*
X112448934Y-107030771D01*
X112448934Y-107030771D02*
X112448934Y-107268866D01*
X112448934Y-107268866D02*
X112496553Y-107459342D01*
X112496553Y-107459342D02*
X112544172Y-107554580D01*
X112544172Y-107554580D02*
X112591791Y-107602200D01*
X112591791Y-107602200D02*
X112687029Y-107649819D01*
X112687029Y-107649819D02*
X112782267Y-107649819D01*
X112782267Y-107649819D02*
X112877505Y-107602200D01*
X112877505Y-107602200D02*
X112925124Y-107554580D01*
X112925124Y-107554580D02*
X112972743Y-107459342D01*
X112972743Y-107459342D02*
X113020362Y-107268866D01*
X113020362Y-107268866D02*
X113020362Y-107030771D01*
X113020362Y-107030771D02*
X112972743Y-106840295D01*
X112972743Y-106840295D02*
X112925124Y-106745057D01*
X112925124Y-106745057D02*
X112877505Y-106697438D01*
X112877505Y-106697438D02*
X112782267Y-106649819D01*
X111258457Y-107649819D02*
X111258457Y-106983152D01*
X111258457Y-107078390D02*
X111210838Y-107030771D01*
X111210838Y-107030771D02*
X111115600Y-106983152D01*
X111115600Y-106983152D02*
X110972743Y-106983152D01*
X110972743Y-106983152D02*
X110877505Y-107030771D01*
X110877505Y-107030771D02*
X110829886Y-107126009D01*
X110829886Y-107126009D02*
X110829886Y-107649819D01*
X110829886Y-107126009D02*
X110782267Y-107030771D01*
X110782267Y-107030771D02*
X110687029Y-106983152D01*
X110687029Y-106983152D02*
X110544172Y-106983152D01*
X110544172Y-106983152D02*
X110448933Y-107030771D01*
X110448933Y-107030771D02*
X110401314Y-107126009D01*
X110401314Y-107126009D02*
X110401314Y-107649819D01*
X109544172Y-107602200D02*
X109639410Y-107649819D01*
X109639410Y-107649819D02*
X109829886Y-107649819D01*
X109829886Y-107649819D02*
X109925124Y-107602200D01*
X109925124Y-107602200D02*
X109972743Y-107506961D01*
X109972743Y-107506961D02*
X109972743Y-107126009D01*
X109972743Y-107126009D02*
X109925124Y-107030771D01*
X109925124Y-107030771D02*
X109829886Y-106983152D01*
X109829886Y-106983152D02*
X109639410Y-106983152D01*
X109639410Y-106983152D02*
X109544172Y-107030771D01*
X109544172Y-107030771D02*
X109496553Y-107126009D01*
X109496553Y-107126009D02*
X109496553Y-107221247D01*
X109496553Y-107221247D02*
X109972743Y-107316485D01*
X108639410Y-107649819D02*
X108639410Y-107126009D01*
X108639410Y-107126009D02*
X108687029Y-107030771D01*
X108687029Y-107030771D02*
X108782267Y-106983152D01*
X108782267Y-106983152D02*
X108972743Y-106983152D01*
X108972743Y-106983152D02*
X109067981Y-107030771D01*
X108639410Y-107602200D02*
X108734648Y-107649819D01*
X108734648Y-107649819D02*
X108972743Y-107649819D01*
X108972743Y-107649819D02*
X109067981Y-107602200D01*
X109067981Y-107602200D02*
X109115600Y-107506961D01*
X109115600Y-107506961D02*
X109115600Y-107411723D01*
X109115600Y-107411723D02*
X109067981Y-107316485D01*
X109067981Y-107316485D02*
X108972743Y-107268866D01*
X108972743Y-107268866D02*
X108734648Y-107268866D01*
X108734648Y-107268866D02*
X108639410Y-107221247D01*
X108210838Y-107602200D02*
X108115600Y-107649819D01*
X108115600Y-107649819D02*
X107925124Y-107649819D01*
X107925124Y-107649819D02*
X107829886Y-107602200D01*
X107829886Y-107602200D02*
X107782267Y-107506961D01*
X107782267Y-107506961D02*
X107782267Y-107459342D01*
X107782267Y-107459342D02*
X107829886Y-107364104D01*
X107829886Y-107364104D02*
X107925124Y-107316485D01*
X107925124Y-107316485D02*
X108067981Y-107316485D01*
X108067981Y-107316485D02*
X108163219Y-107268866D01*
X108163219Y-107268866D02*
X108210838Y-107173628D01*
X108210838Y-107173628D02*
X108210838Y-107126009D01*
X108210838Y-107126009D02*
X108163219Y-107030771D01*
X108163219Y-107030771D02*
X108067981Y-106983152D01*
X108067981Y-106983152D02*
X107925124Y-106983152D01*
X107925124Y-106983152D02*
X107829886Y-107030771D01*
X106925124Y-106983152D02*
X106925124Y-107649819D01*
X107353695Y-106983152D02*
X107353695Y-107506961D01*
X107353695Y-107506961D02*
X107306076Y-107602200D01*
X107306076Y-107602200D02*
X107210838Y-107649819D01*
X107210838Y-107649819D02*
X107067981Y-107649819D01*
X107067981Y-107649819D02*
X106972743Y-107602200D01*
X106972743Y-107602200D02*
X106925124Y-107554580D01*
X106448933Y-107649819D02*
X106448933Y-106983152D01*
X106448933Y-107173628D02*
X106401314Y-107078390D01*
X106401314Y-107078390D02*
X106353695Y-107030771D01*
X106353695Y-107030771D02*
X106258457Y-106983152D01*
X106258457Y-106983152D02*
X106163219Y-106983152D01*
X105448933Y-107602200D02*
X105544171Y-107649819D01*
X105544171Y-107649819D02*
X105734647Y-107649819D01*
X105734647Y-107649819D02*
X105829885Y-107602200D01*
X105829885Y-107602200D02*
X105877504Y-107506961D01*
X105877504Y-107506961D02*
X105877504Y-107126009D01*
X105877504Y-107126009D02*
X105829885Y-107030771D01*
X105829885Y-107030771D02*
X105734647Y-106983152D01*
X105734647Y-106983152D02*
X105544171Y-106983152D01*
X105544171Y-106983152D02*
X105448933Y-107030771D01*
X105448933Y-107030771D02*
X105401314Y-107126009D01*
X105401314Y-107126009D02*
X105401314Y-107221247D01*
X105401314Y-107221247D02*
X105877504Y-107316485D01*
X104972742Y-107649819D02*
X104972742Y-106983152D01*
X104972742Y-107078390D02*
X104925123Y-107030771D01*
X104925123Y-107030771D02*
X104829885Y-106983152D01*
X104829885Y-106983152D02*
X104687028Y-106983152D01*
X104687028Y-106983152D02*
X104591790Y-107030771D01*
X104591790Y-107030771D02*
X104544171Y-107126009D01*
X104544171Y-107126009D02*
X104544171Y-107649819D01*
X104544171Y-107126009D02*
X104496552Y-107030771D01*
X104496552Y-107030771D02*
X104401314Y-106983152D01*
X104401314Y-106983152D02*
X104258457Y-106983152D01*
X104258457Y-106983152D02*
X104163218Y-107030771D01*
X104163218Y-107030771D02*
X104115599Y-107126009D01*
X104115599Y-107126009D02*
X104115599Y-107649819D01*
X103258457Y-107602200D02*
X103353695Y-107649819D01*
X103353695Y-107649819D02*
X103544171Y-107649819D01*
X103544171Y-107649819D02*
X103639409Y-107602200D01*
X103639409Y-107602200D02*
X103687028Y-107506961D01*
X103687028Y-107506961D02*
X103687028Y-107126009D01*
X103687028Y-107126009D02*
X103639409Y-107030771D01*
X103639409Y-107030771D02*
X103544171Y-106983152D01*
X103544171Y-106983152D02*
X103353695Y-106983152D01*
X103353695Y-106983152D02*
X103258457Y-107030771D01*
X103258457Y-107030771D02*
X103210838Y-107126009D01*
X103210838Y-107126009D02*
X103210838Y-107221247D01*
X103210838Y-107221247D02*
X103687028Y-107316485D01*
X102782266Y-106983152D02*
X102782266Y-107649819D01*
X102782266Y-107078390D02*
X102734647Y-107030771D01*
X102734647Y-107030771D02*
X102639409Y-106983152D01*
X102639409Y-106983152D02*
X102496552Y-106983152D01*
X102496552Y-106983152D02*
X102401314Y-107030771D01*
X102401314Y-107030771D02*
X102353695Y-107126009D01*
X102353695Y-107126009D02*
X102353695Y-107649819D01*
X102020361Y-106983152D02*
X101639409Y-106983152D01*
X101877504Y-106649819D02*
X101877504Y-107506961D01*
X101877504Y-107506961D02*
X101829885Y-107602200D01*
X101829885Y-107602200D02*
X101734647Y-107649819D01*
X101734647Y-107649819D02*
X101639409Y-107649819D01*
X100401313Y-107649819D02*
X100496551Y-107602200D01*
X100496551Y-107602200D02*
X100544170Y-107554580D01*
X100544170Y-107554580D02*
X100591789Y-107459342D01*
X100591789Y-107459342D02*
X100591789Y-107173628D01*
X100591789Y-107173628D02*
X100544170Y-107078390D01*
X100544170Y-107078390D02*
X100496551Y-107030771D01*
X100496551Y-107030771D02*
X100401313Y-106983152D01*
X100401313Y-106983152D02*
X100258456Y-106983152D01*
X100258456Y-106983152D02*
X100163218Y-107030771D01*
X100163218Y-107030771D02*
X100115599Y-107078390D01*
X100115599Y-107078390D02*
X100067980Y-107173628D01*
X100067980Y-107173628D02*
X100067980Y-107459342D01*
X100067980Y-107459342D02*
X100115599Y-107554580D01*
X100115599Y-107554580D02*
X100163218Y-107602200D01*
X100163218Y-107602200D02*
X100258456Y-107649819D01*
X100258456Y-107649819D02*
X100401313Y-107649819D01*
X99639408Y-106983152D02*
X99639408Y-107649819D01*
X99639408Y-107078390D02*
X99591789Y-107030771D01*
X99591789Y-107030771D02*
X99496551Y-106983152D01*
X99496551Y-106983152D02*
X99353694Y-106983152D01*
X99353694Y-106983152D02*
X99258456Y-107030771D01*
X99258456Y-107030771D02*
X99210837Y-107126009D01*
X99210837Y-107126009D02*
X99210837Y-107649819D01*
X97687027Y-106649819D02*
X97687027Y-107364104D01*
X97687027Y-107364104D02*
X97734646Y-107506961D01*
X97734646Y-107506961D02*
X97829884Y-107602200D01*
X97829884Y-107602200D02*
X97972741Y-107649819D01*
X97972741Y-107649819D02*
X98067979Y-107649819D01*
X96687027Y-107649819D02*
X97258455Y-107649819D01*
X96972741Y-107649819D02*
X96972741Y-106649819D01*
X96972741Y-106649819D02*
X97067979Y-106792676D01*
X97067979Y-106792676D02*
X97163217Y-106887914D01*
X97163217Y-106887914D02*
X97258455Y-106935533D01*
X96067979Y-106649819D02*
X95972741Y-106649819D01*
X95972741Y-106649819D02*
X95877503Y-106697438D01*
X95877503Y-106697438D02*
X95829884Y-106745057D01*
X95829884Y-106745057D02*
X95782265Y-106840295D01*
X95782265Y-106840295D02*
X95734646Y-107030771D01*
X95734646Y-107030771D02*
X95734646Y-107268866D01*
X95734646Y-107268866D02*
X95782265Y-107459342D01*
X95782265Y-107459342D02*
X95829884Y-107554580D01*
X95829884Y-107554580D02*
X95877503Y-107602200D01*
X95877503Y-107602200D02*
X95972741Y-107649819D01*
X95972741Y-107649819D02*
X96067979Y-107649819D01*
X96067979Y-107649819D02*
X96163217Y-107602200D01*
X96163217Y-107602200D02*
X96210836Y-107554580D01*
X96210836Y-107554580D02*
X96258455Y-107459342D01*
X96258455Y-107459342D02*
X96306074Y-107268866D01*
X96306074Y-107268866D02*
X96306074Y-107030771D01*
X96306074Y-107030771D02*
X96258455Y-106840295D01*
X96258455Y-106840295D02*
X96210836Y-106745057D01*
X96210836Y-106745057D02*
X96163217Y-106697438D01*
X96163217Y-106697438D02*
X96067979Y-106649819D01*
X95353693Y-106745057D02*
X95306074Y-106697438D01*
X95306074Y-106697438D02*
X95210836Y-106649819D01*
X95210836Y-106649819D02*
X94972741Y-106649819D01*
X94972741Y-106649819D02*
X94877503Y-106697438D01*
X94877503Y-106697438D02*
X94829884Y-106745057D01*
X94829884Y-106745057D02*
X94782265Y-106840295D01*
X94782265Y-106840295D02*
X94782265Y-106935533D01*
X94782265Y-106935533D02*
X94829884Y-107078390D01*
X94829884Y-107078390D02*
X95401312Y-107649819D01*
X95401312Y-107649819D02*
X94782265Y-107649819D01*
X119258458Y-110203152D02*
X119020363Y-110869819D01*
X119020363Y-110869819D02*
X118782268Y-110203152D01*
X118210839Y-109869819D02*
X118115601Y-109869819D01*
X118115601Y-109869819D02*
X118020363Y-109917438D01*
X118020363Y-109917438D02*
X117972744Y-109965057D01*
X117972744Y-109965057D02*
X117925125Y-110060295D01*
X117925125Y-110060295D02*
X117877506Y-110250771D01*
X117877506Y-110250771D02*
X117877506Y-110488866D01*
X117877506Y-110488866D02*
X117925125Y-110679342D01*
X117925125Y-110679342D02*
X117972744Y-110774580D01*
X117972744Y-110774580D02*
X118020363Y-110822200D01*
X118020363Y-110822200D02*
X118115601Y-110869819D01*
X118115601Y-110869819D02*
X118210839Y-110869819D01*
X118210839Y-110869819D02*
X118306077Y-110822200D01*
X118306077Y-110822200D02*
X118353696Y-110774580D01*
X118353696Y-110774580D02*
X118401315Y-110679342D01*
X118401315Y-110679342D02*
X118448934Y-110488866D01*
X118448934Y-110488866D02*
X118448934Y-110250771D01*
X118448934Y-110250771D02*
X118401315Y-110060295D01*
X118401315Y-110060295D02*
X118353696Y-109965057D01*
X118353696Y-109965057D02*
X118306077Y-109917438D01*
X118306077Y-109917438D02*
X118210839Y-109869819D01*
X117448934Y-110774580D02*
X117401315Y-110822200D01*
X117401315Y-110822200D02*
X117448934Y-110869819D01*
X117448934Y-110869819D02*
X117496553Y-110822200D01*
X117496553Y-110822200D02*
X117448934Y-110774580D01*
X117448934Y-110774580D02*
X117448934Y-110869819D01*
X116448935Y-110869819D02*
X117020363Y-110869819D01*
X116734649Y-110869819D02*
X116734649Y-109869819D01*
X116734649Y-109869819D02*
X116829887Y-110012676D01*
X116829887Y-110012676D02*
X116925125Y-110107914D01*
X116925125Y-110107914D02*
X117020363Y-110155533D01*
X115258458Y-110869819D02*
X115258458Y-109869819D01*
X115258458Y-109869819D02*
X114877506Y-109869819D01*
X114877506Y-109869819D02*
X114782268Y-109917438D01*
X114782268Y-109917438D02*
X114734649Y-109965057D01*
X114734649Y-109965057D02*
X114687030Y-110060295D01*
X114687030Y-110060295D02*
X114687030Y-110203152D01*
X114687030Y-110203152D02*
X114734649Y-110298390D01*
X114734649Y-110298390D02*
X114782268Y-110346009D01*
X114782268Y-110346009D02*
X114877506Y-110393628D01*
X114877506Y-110393628D02*
X115258458Y-110393628D01*
X114258458Y-110869819D02*
X114258458Y-110203152D01*
X114258458Y-110393628D02*
X114210839Y-110298390D01*
X114210839Y-110298390D02*
X114163220Y-110250771D01*
X114163220Y-110250771D02*
X114067982Y-110203152D01*
X114067982Y-110203152D02*
X113972744Y-110203152D01*
X113496553Y-110869819D02*
X113591791Y-110822200D01*
X113591791Y-110822200D02*
X113639410Y-110774580D01*
X113639410Y-110774580D02*
X113687029Y-110679342D01*
X113687029Y-110679342D02*
X113687029Y-110393628D01*
X113687029Y-110393628D02*
X113639410Y-110298390D01*
X113639410Y-110298390D02*
X113591791Y-110250771D01*
X113591791Y-110250771D02*
X113496553Y-110203152D01*
X113496553Y-110203152D02*
X113353696Y-110203152D01*
X113353696Y-110203152D02*
X113258458Y-110250771D01*
X113258458Y-110250771D02*
X113210839Y-110298390D01*
X113210839Y-110298390D02*
X113163220Y-110393628D01*
X113163220Y-110393628D02*
X113163220Y-110679342D01*
X113163220Y-110679342D02*
X113210839Y-110774580D01*
X113210839Y-110774580D02*
X113258458Y-110822200D01*
X113258458Y-110822200D02*
X113353696Y-110869819D01*
X113353696Y-110869819D02*
X113496553Y-110869819D01*
X112877505Y-110203152D02*
X112496553Y-110203152D01*
X112734648Y-109869819D02*
X112734648Y-110726961D01*
X112734648Y-110726961D02*
X112687029Y-110822200D01*
X112687029Y-110822200D02*
X112591791Y-110869819D01*
X112591791Y-110869819D02*
X112496553Y-110869819D01*
X112020362Y-110869819D02*
X112115600Y-110822200D01*
X112115600Y-110822200D02*
X112163219Y-110774580D01*
X112163219Y-110774580D02*
X112210838Y-110679342D01*
X112210838Y-110679342D02*
X112210838Y-110393628D01*
X112210838Y-110393628D02*
X112163219Y-110298390D01*
X112163219Y-110298390D02*
X112115600Y-110250771D01*
X112115600Y-110250771D02*
X112020362Y-110203152D01*
X112020362Y-110203152D02*
X111877505Y-110203152D01*
X111877505Y-110203152D02*
X111782267Y-110250771D01*
X111782267Y-110250771D02*
X111734648Y-110298390D01*
X111734648Y-110298390D02*
X111687029Y-110393628D01*
X111687029Y-110393628D02*
X111687029Y-110679342D01*
X111687029Y-110679342D02*
X111734648Y-110774580D01*
X111734648Y-110774580D02*
X111782267Y-110822200D01*
X111782267Y-110822200D02*
X111877505Y-110869819D01*
X111877505Y-110869819D02*
X112020362Y-110869819D01*
X111401314Y-110203152D02*
X111020362Y-110203152D01*
X111258457Y-109869819D02*
X111258457Y-110726961D01*
X111258457Y-110726961D02*
X111210838Y-110822200D01*
X111210838Y-110822200D02*
X111115600Y-110869819D01*
X111115600Y-110869819D02*
X111020362Y-110869819D01*
X110782266Y-110203152D02*
X110544171Y-110869819D01*
X110306076Y-110203152D02*
X110544171Y-110869819D01*
X110544171Y-110869819D02*
X110639409Y-111107914D01*
X110639409Y-111107914D02*
X110687028Y-111155533D01*
X110687028Y-111155533D02*
X110782266Y-111203152D01*
X109925123Y-110203152D02*
X109925123Y-111203152D01*
X109925123Y-110250771D02*
X109829885Y-110203152D01*
X109829885Y-110203152D02*
X109639409Y-110203152D01*
X109639409Y-110203152D02*
X109544171Y-110250771D01*
X109544171Y-110250771D02*
X109496552Y-110298390D01*
X109496552Y-110298390D02*
X109448933Y-110393628D01*
X109448933Y-110393628D02*
X109448933Y-110679342D01*
X109448933Y-110679342D02*
X109496552Y-110774580D01*
X109496552Y-110774580D02*
X109544171Y-110822200D01*
X109544171Y-110822200D02*
X109639409Y-110869819D01*
X109639409Y-110869819D02*
X109829885Y-110869819D01*
X109829885Y-110869819D02*
X109925123Y-110822200D01*
X108639409Y-110822200D02*
X108734647Y-110869819D01*
X108734647Y-110869819D02*
X108925123Y-110869819D01*
X108925123Y-110869819D02*
X109020361Y-110822200D01*
X109020361Y-110822200D02*
X109067980Y-110726961D01*
X109067980Y-110726961D02*
X109067980Y-110346009D01*
X109067980Y-110346009D02*
X109020361Y-110250771D01*
X109020361Y-110250771D02*
X108925123Y-110203152D01*
X108925123Y-110203152D02*
X108734647Y-110203152D01*
X108734647Y-110203152D02*
X108639409Y-110250771D01*
X108639409Y-110250771D02*
X108591790Y-110346009D01*
X108591790Y-110346009D02*
X108591790Y-110441247D01*
X108591790Y-110441247D02*
X109067980Y-110536485D01*
X107401313Y-110488866D02*
X106639409Y-110488866D01*
X105448932Y-109965057D02*
X105401313Y-109917438D01*
X105401313Y-109917438D02*
X105306075Y-109869819D01*
X105306075Y-109869819D02*
X105067980Y-109869819D01*
X105067980Y-109869819D02*
X104972742Y-109917438D01*
X104972742Y-109917438D02*
X104925123Y-109965057D01*
X104925123Y-109965057D02*
X104877504Y-110060295D01*
X104877504Y-110060295D02*
X104877504Y-110155533D01*
X104877504Y-110155533D02*
X104925123Y-110298390D01*
X104925123Y-110298390D02*
X105496551Y-110869819D01*
X105496551Y-110869819D02*
X104877504Y-110869819D01*
X104258456Y-109869819D02*
X104163218Y-109869819D01*
X104163218Y-109869819D02*
X104067980Y-109917438D01*
X104067980Y-109917438D02*
X104020361Y-109965057D01*
X104020361Y-109965057D02*
X103972742Y-110060295D01*
X103972742Y-110060295D02*
X103925123Y-110250771D01*
X103925123Y-110250771D02*
X103925123Y-110488866D01*
X103925123Y-110488866D02*
X103972742Y-110679342D01*
X103972742Y-110679342D02*
X104020361Y-110774580D01*
X104020361Y-110774580D02*
X104067980Y-110822200D01*
X104067980Y-110822200D02*
X104163218Y-110869819D01*
X104163218Y-110869819D02*
X104258456Y-110869819D01*
X104258456Y-110869819D02*
X104353694Y-110822200D01*
X104353694Y-110822200D02*
X104401313Y-110774580D01*
X104401313Y-110774580D02*
X104448932Y-110679342D01*
X104448932Y-110679342D02*
X104496551Y-110488866D01*
X104496551Y-110488866D02*
X104496551Y-110250771D01*
X104496551Y-110250771D02*
X104448932Y-110060295D01*
X104448932Y-110060295D02*
X104401313Y-109965057D01*
X104401313Y-109965057D02*
X104353694Y-109917438D01*
X104353694Y-109917438D02*
X104258456Y-109869819D01*
X103544170Y-109965057D02*
X103496551Y-109917438D01*
X103496551Y-109917438D02*
X103401313Y-109869819D01*
X103401313Y-109869819D02*
X103163218Y-109869819D01*
X103163218Y-109869819D02*
X103067980Y-109917438D01*
X103067980Y-109917438D02*
X103020361Y-109965057D01*
X103020361Y-109965057D02*
X102972742Y-110060295D01*
X102972742Y-110060295D02*
X102972742Y-110155533D01*
X102972742Y-110155533D02*
X103020361Y-110298390D01*
X103020361Y-110298390D02*
X103591789Y-110869819D01*
X103591789Y-110869819D02*
X102972742Y-110869819D01*
X102639408Y-109869819D02*
X102020361Y-109869819D01*
X102020361Y-109869819D02*
X102353694Y-110250771D01*
X102353694Y-110250771D02*
X102210837Y-110250771D01*
X102210837Y-110250771D02*
X102115599Y-110298390D01*
X102115599Y-110298390D02*
X102067980Y-110346009D01*
X102067980Y-110346009D02*
X102020361Y-110441247D01*
X102020361Y-110441247D02*
X102020361Y-110679342D01*
X102020361Y-110679342D02*
X102067980Y-110774580D01*
X102067980Y-110774580D02*
X102115599Y-110822200D01*
X102115599Y-110822200D02*
X102210837Y-110869819D01*
X102210837Y-110869819D02*
X102496551Y-110869819D01*
X102496551Y-110869819D02*
X102591789Y-110822200D01*
X102591789Y-110822200D02*
X102639408Y-110774580D01*
X101591789Y-110488866D02*
X100829885Y-110488866D01*
X100067980Y-109869819D02*
X100067980Y-110584104D01*
X100067980Y-110584104D02*
X100115599Y-110726961D01*
X100115599Y-110726961D02*
X100210837Y-110822200D01*
X100210837Y-110822200D02*
X100353694Y-110869819D01*
X100353694Y-110869819D02*
X100448932Y-110869819D01*
X99163218Y-110203152D02*
X99163218Y-110869819D01*
X99591789Y-110203152D02*
X99591789Y-110726961D01*
X99591789Y-110726961D02*
X99544170Y-110822200D01*
X99544170Y-110822200D02*
X99448932Y-110869819D01*
X99448932Y-110869819D02*
X99306075Y-110869819D01*
X99306075Y-110869819D02*
X99210837Y-110822200D01*
X99210837Y-110822200D02*
X99163218Y-110774580D01*
X98544170Y-110869819D02*
X98639408Y-110822200D01*
X98639408Y-110822200D02*
X98687027Y-110726961D01*
X98687027Y-110726961D02*
X98687027Y-109869819D01*
X98163217Y-110488866D02*
X97401313Y-110488866D01*
X97020360Y-109869819D02*
X96401313Y-109869819D01*
X96401313Y-109869819D02*
X96734646Y-110250771D01*
X96734646Y-110250771D02*
X96591789Y-110250771D01*
X96591789Y-110250771D02*
X96496551Y-110298390D01*
X96496551Y-110298390D02*
X96448932Y-110346009D01*
X96448932Y-110346009D02*
X96401313Y-110441247D01*
X96401313Y-110441247D02*
X96401313Y-110679342D01*
X96401313Y-110679342D02*
X96448932Y-110774580D01*
X96448932Y-110774580D02*
X96496551Y-110822200D01*
X96496551Y-110822200D02*
X96591789Y-110869819D01*
X96591789Y-110869819D02*
X96877503Y-110869819D01*
X96877503Y-110869819D02*
X96972741Y-110822200D01*
X96972741Y-110822200D02*
X97020360Y-110774580D01*
X95448932Y-110869819D02*
X96020360Y-110869819D01*
X95734646Y-110869819D02*
X95734646Y-109869819D01*
X95734646Y-109869819D02*
X95829884Y-110012676D01*
X95829884Y-110012676D02*
X95925122Y-110107914D01*
X95925122Y-110107914D02*
X96020360Y-110155533D01*
%TO.C,G\u002A\u002A\u002A*%
D11*
X114245077Y-120636625D02*
X114151277Y-121202590D01*
X113909697Y-121701144D01*
X113528188Y-122116403D01*
X113014596Y-122432483D01*
X113002904Y-122437746D01*
X112875819Y-122489233D01*
X112738018Y-122529005D01*
X112566842Y-122558584D01*
X112339631Y-122579491D01*
X112033727Y-122593245D01*
X111626469Y-122601369D01*
X111095200Y-122605383D01*
X110417261Y-122606807D01*
X108200925Y-122608667D01*
X107676765Y-123243667D01*
X108377181Y-123268707D01*
X109077596Y-123293746D01*
X107299596Y-124466410D01*
X106895875Y-124731492D01*
X106448521Y-125022182D01*
X106065371Y-125267785D01*
X105765619Y-125456125D01*
X105568462Y-125575026D01*
X105493094Y-125612312D01*
X105527317Y-125542435D01*
X105645857Y-125364629D01*
X105830060Y-125106555D01*
X106060880Y-124795609D01*
X106657168Y-124005667D01*
X106237549Y-123980076D01*
X106088540Y-123968100D01*
X105894059Y-123940286D01*
X105817930Y-123910395D01*
X105830164Y-123884854D01*
X105922140Y-123749903D01*
X106084553Y-123530443D01*
X106293904Y-123258653D01*
X106769879Y-122651000D01*
X106181865Y-122604313D01*
X106091897Y-122595686D01*
X105960137Y-122564409D01*
X106884804Y-122564409D01*
X106961472Y-122593901D01*
X107152686Y-122606201D01*
X107485831Y-122608667D01*
X108163976Y-122608667D01*
X108957611Y-121592667D01*
X109106438Y-121403172D01*
X109367281Y-121076420D01*
X109581728Y-120814781D01*
X109730775Y-120641248D01*
X109795421Y-120578817D01*
X109803542Y-120581699D01*
X109908953Y-120653743D01*
X110101324Y-120802757D01*
X110346068Y-121002150D01*
X110402512Y-121048824D01*
X110640171Y-121239209D01*
X110819153Y-121372883D01*
X110904315Y-121423334D01*
X110906159Y-121423095D01*
X110987973Y-121354841D01*
X111148923Y-121184998D01*
X111363604Y-120942244D01*
X111606614Y-120655262D01*
X111852551Y-120352732D01*
X112002838Y-120163566D01*
X110683757Y-119151442D01*
X109364676Y-118139319D01*
X108437970Y-118445478D01*
X108093925Y-118562702D01*
X107791469Y-118673201D01*
X107586626Y-118756778D01*
X107511263Y-118801200D01*
X107538749Y-118835369D01*
X107675963Y-118954656D01*
X107902350Y-119133769D01*
X108188596Y-119349000D01*
X108377843Y-119491048D01*
X108629362Y-119690437D01*
X108801878Y-119841109D01*
X108865930Y-119918304D01*
X108859465Y-119933337D01*
X108777996Y-120056127D01*
X108618329Y-120277758D01*
X108399785Y-120572798D01*
X108141690Y-120915817D01*
X107863366Y-121281383D01*
X107584138Y-121644065D01*
X107323328Y-121978433D01*
X107100261Y-122259055D01*
X106934259Y-122460500D01*
X106895298Y-122510370D01*
X106884804Y-122564409D01*
X105960137Y-122564409D01*
X105482594Y-122451050D01*
X104956574Y-122170759D01*
X104532210Y-121767510D01*
X104227875Y-121254000D01*
X104203101Y-121189635D01*
X104115530Y-120769536D01*
X104106366Y-120285057D01*
X104172443Y-119806937D01*
X104310595Y-119405916D01*
X104392145Y-119263658D01*
X104745961Y-118858715D01*
X105216308Y-118552902D01*
X105779187Y-118358976D01*
X106410596Y-118289694D01*
X106876263Y-118287777D01*
X107076378Y-117825476D01*
X107217268Y-117559710D01*
X107539286Y-117139859D01*
X107931271Y-116781609D01*
X108341876Y-116537229D01*
X108520909Y-116482286D01*
X108852298Y-116426258D01*
X109206572Y-116404234D01*
X109251632Y-116404456D01*
X109859586Y-116481201D01*
X110386228Y-116701199D01*
X110851763Y-117072660D01*
X110931628Y-117161937D01*
X111124052Y-117423464D01*
X111319216Y-117737294D01*
X111490991Y-118056516D01*
X111613249Y-118334222D01*
X111659863Y-118523500D01*
X111666767Y-118548732D01*
X111795640Y-118609221D01*
X112088104Y-118629334D01*
X112372369Y-118638384D01*
X112884530Y-118723013D01*
X113311365Y-118909737D01*
X113696794Y-119214535D01*
X113729643Y-119246757D01*
X113964262Y-119507973D01*
X114104056Y-119753111D01*
X114190490Y-120052560D01*
X114200865Y-120163566D01*
X114245077Y-120636625D01*
G36*
X114245077Y-120636625D02*
G01*
X114151277Y-121202590D01*
X113909697Y-121701144D01*
X113528188Y-122116403D01*
X113014596Y-122432483D01*
X113002904Y-122437746D01*
X112875819Y-122489233D01*
X112738018Y-122529005D01*
X112566842Y-122558584D01*
X112339631Y-122579491D01*
X112033727Y-122593245D01*
X111626469Y-122601369D01*
X111095200Y-122605383D01*
X110417261Y-122606807D01*
X108200925Y-122608667D01*
X107676765Y-123243667D01*
X108377181Y-123268707D01*
X109077596Y-123293746D01*
X107299596Y-124466410D01*
X106895875Y-124731492D01*
X106448521Y-125022182D01*
X106065371Y-125267785D01*
X105765619Y-125456125D01*
X105568462Y-125575026D01*
X105493094Y-125612312D01*
X105527317Y-125542435D01*
X105645857Y-125364629D01*
X105830060Y-125106555D01*
X106060880Y-124795609D01*
X106657168Y-124005667D01*
X106237549Y-123980076D01*
X106088540Y-123968100D01*
X105894059Y-123940286D01*
X105817930Y-123910395D01*
X105830164Y-123884854D01*
X105922140Y-123749903D01*
X106084553Y-123530443D01*
X106293904Y-123258653D01*
X106769879Y-122651000D01*
X106181865Y-122604313D01*
X106091897Y-122595686D01*
X105960137Y-122564409D01*
X106884804Y-122564409D01*
X106961472Y-122593901D01*
X107152686Y-122606201D01*
X107485831Y-122608667D01*
X108163976Y-122608667D01*
X108957611Y-121592667D01*
X109106438Y-121403172D01*
X109367281Y-121076420D01*
X109581728Y-120814781D01*
X109730775Y-120641248D01*
X109795421Y-120578817D01*
X109803542Y-120581699D01*
X109908953Y-120653743D01*
X110101324Y-120802757D01*
X110346068Y-121002150D01*
X110402512Y-121048824D01*
X110640171Y-121239209D01*
X110819153Y-121372883D01*
X110904315Y-121423334D01*
X110906159Y-121423095D01*
X110987973Y-121354841D01*
X111148923Y-121184998D01*
X111363604Y-120942244D01*
X111606614Y-120655262D01*
X111852551Y-120352732D01*
X112002838Y-120163566D01*
X110683757Y-119151442D01*
X109364676Y-118139319D01*
X108437970Y-118445478D01*
X108093925Y-118562702D01*
X107791469Y-118673201D01*
X107586626Y-118756778D01*
X107511263Y-118801200D01*
X107538749Y-118835369D01*
X107675963Y-118954656D01*
X107902350Y-119133769D01*
X108188596Y-119349000D01*
X108377843Y-119491048D01*
X108629362Y-119690437D01*
X108801878Y-119841109D01*
X108865930Y-119918304D01*
X108859465Y-119933337D01*
X108777996Y-120056127D01*
X108618329Y-120277758D01*
X108399785Y-120572798D01*
X108141690Y-120915817D01*
X107863366Y-121281383D01*
X107584138Y-121644065D01*
X107323328Y-121978433D01*
X107100261Y-122259055D01*
X106934259Y-122460500D01*
X106895298Y-122510370D01*
X106884804Y-122564409D01*
X105960137Y-122564409D01*
X105482594Y-122451050D01*
X104956574Y-122170759D01*
X104532210Y-121767510D01*
X104227875Y-121254000D01*
X104203101Y-121189635D01*
X104115530Y-120769536D01*
X104106366Y-120285057D01*
X104172443Y-119806937D01*
X104310595Y-119405916D01*
X104392145Y-119263658D01*
X104745961Y-118858715D01*
X105216308Y-118552902D01*
X105779187Y-118358976D01*
X106410596Y-118289694D01*
X106876263Y-118287777D01*
X107076378Y-117825476D01*
X107217268Y-117559710D01*
X107539286Y-117139859D01*
X107931271Y-116781609D01*
X108341876Y-116537229D01*
X108520909Y-116482286D01*
X108852298Y-116426258D01*
X109206572Y-116404234D01*
X109251632Y-116404456D01*
X109859586Y-116481201D01*
X110386228Y-116701199D01*
X110851763Y-117072660D01*
X110931628Y-117161937D01*
X111124052Y-117423464D01*
X111319216Y-117737294D01*
X111490991Y-118056516D01*
X111613249Y-118334222D01*
X111659863Y-118523500D01*
X111666767Y-118548732D01*
X111795640Y-118609221D01*
X112088104Y-118629334D01*
X112372369Y-118638384D01*
X112884530Y-118723013D01*
X113311365Y-118909737D01*
X113696794Y-119214535D01*
X113729643Y-119246757D01*
X113964262Y-119507973D01*
X114104056Y-119753111D01*
X114190490Y-120052560D01*
X114200865Y-120163566D01*
X114245077Y-120636625D01*
G37*
X115656783Y-127124161D02*
X115669066Y-128150809D01*
X115336246Y-128150809D01*
X115336246Y-127328802D01*
X113733333Y-127328802D01*
X113733333Y-128150809D01*
X113404531Y-128150809D01*
X113404531Y-127132446D01*
X113404704Y-127000000D01*
X113730357Y-127000000D01*
X115339223Y-127000000D01*
X115327459Y-126599271D01*
X115315696Y-126198543D01*
X113753883Y-126198543D01*
X113742120Y-126599271D01*
X113730357Y-127000000D01*
X113404704Y-127000000D01*
X113404922Y-126832931D01*
X113407432Y-126561094D01*
X113413956Y-126353008D01*
X113426387Y-126198855D01*
X113446617Y-126088818D01*
X113476539Y-126013081D01*
X113518044Y-125961828D01*
X113573026Y-125925241D01*
X113643377Y-125893503D01*
X113685491Y-125881462D01*
X113806437Y-125866127D01*
X113993998Y-125857072D01*
X114253303Y-125854101D01*
X114589482Y-125857014D01*
X115416767Y-125869741D01*
X115530632Y-125983627D01*
X115644498Y-126097514D01*
X115655298Y-127000000D01*
X115656783Y-127124161D01*
G36*
X115656783Y-127124161D02*
G01*
X115669066Y-128150809D01*
X115336246Y-128150809D01*
X115336246Y-127328802D01*
X113733333Y-127328802D01*
X113733333Y-128150809D01*
X113404531Y-128150809D01*
X113404531Y-127132446D01*
X113404704Y-127000000D01*
X113730357Y-127000000D01*
X115339223Y-127000000D01*
X115327459Y-126599271D01*
X115315696Y-126198543D01*
X113753883Y-126198543D01*
X113742120Y-126599271D01*
X113730357Y-127000000D01*
X113404704Y-127000000D01*
X113404922Y-126832931D01*
X113407432Y-126561094D01*
X113413956Y-126353008D01*
X113426387Y-126198855D01*
X113446617Y-126088818D01*
X113476539Y-126013081D01*
X113518044Y-125961828D01*
X113573026Y-125925241D01*
X113643377Y-125893503D01*
X113685491Y-125881462D01*
X113806437Y-125866127D01*
X113993998Y-125857072D01*
X114253303Y-125854101D01*
X114589482Y-125857014D01*
X115416767Y-125869741D01*
X115530632Y-125983627D01*
X115644498Y-126097514D01*
X115655298Y-127000000D01*
X115656783Y-127124161D01*
G37*
X112993527Y-127470201D02*
X112993527Y-128150809D01*
X112025629Y-128150809D01*
X111899010Y-128150704D01*
X111586772Y-128148708D01*
X111343489Y-128142805D01*
X111159343Y-128131218D01*
X111024519Y-128112174D01*
X110929201Y-128083895D01*
X110863571Y-128044608D01*
X110817813Y-127992537D01*
X110782112Y-127925905D01*
X110775795Y-127909781D01*
X110752318Y-127794769D01*
X110738506Y-127632721D01*
X110734402Y-127449365D01*
X110738606Y-127316008D01*
X111068663Y-127316008D01*
X111070152Y-127496825D01*
X111082362Y-127801456D01*
X111845265Y-127812609D01*
X112084571Y-127814671D01*
X112298890Y-127813731D01*
X112471245Y-127810026D01*
X112588233Y-127803847D01*
X112636446Y-127795484D01*
X112637805Y-127793784D01*
X112651420Y-127735154D01*
X112661063Y-127619580D01*
X112664725Y-127470201D01*
X112663926Y-127385657D01*
X112655506Y-127254110D01*
X112635208Y-127180454D01*
X112599713Y-127148248D01*
X112565948Y-127141522D01*
X112457137Y-127133085D01*
X112295846Y-127127493D01*
X112098906Y-127124631D01*
X111883149Y-127124384D01*
X111665408Y-127126639D01*
X111462516Y-127131280D01*
X111291304Y-127138193D01*
X111168606Y-127147263D01*
X111111253Y-127158377D01*
X111082613Y-127206140D01*
X111068663Y-127316008D01*
X110738606Y-127316008D01*
X110740043Y-127270431D01*
X110755471Y-127121647D01*
X110780724Y-127028741D01*
X110793607Y-126989883D01*
X110812387Y-126872421D01*
X110820514Y-126773948D01*
X111164563Y-126773948D01*
X111916463Y-126785157D01*
X112668364Y-126796366D01*
X112656269Y-126497455D01*
X112644175Y-126198543D01*
X111164563Y-126198543D01*
X111164563Y-126773948D01*
X110820514Y-126773948D01*
X110825956Y-126708016D01*
X110832100Y-126518670D01*
X110832656Y-126460480D01*
X110836316Y-126287520D01*
X110845637Y-126172517D01*
X110864827Y-126096321D01*
X110898092Y-126039781D01*
X110949641Y-125983748D01*
X111063522Y-125869741D01*
X112028525Y-125857354D01*
X112993527Y-125844969D01*
X112993527Y-126796366D01*
X112993527Y-127470201D01*
G36*
X112993527Y-127470201D02*
G01*
X112993527Y-128150809D01*
X112025629Y-128150809D01*
X111899010Y-128150704D01*
X111586772Y-128148708D01*
X111343489Y-128142805D01*
X111159343Y-128131218D01*
X111024519Y-128112174D01*
X110929201Y-128083895D01*
X110863571Y-128044608D01*
X110817813Y-127992537D01*
X110782112Y-127925905D01*
X110775795Y-127909781D01*
X110752318Y-127794769D01*
X110738506Y-127632721D01*
X110734402Y-127449365D01*
X110738606Y-127316008D01*
X111068663Y-127316008D01*
X111070152Y-127496825D01*
X111082362Y-127801456D01*
X111845265Y-127812609D01*
X112084571Y-127814671D01*
X112298890Y-127813731D01*
X112471245Y-127810026D01*
X112588233Y-127803847D01*
X112636446Y-127795484D01*
X112637805Y-127793784D01*
X112651420Y-127735154D01*
X112661063Y-127619580D01*
X112664725Y-127470201D01*
X112663926Y-127385657D01*
X112655506Y-127254110D01*
X112635208Y-127180454D01*
X112599713Y-127148248D01*
X112565948Y-127141522D01*
X112457137Y-127133085D01*
X112295846Y-127127493D01*
X112098906Y-127124631D01*
X111883149Y-127124384D01*
X111665408Y-127126639D01*
X111462516Y-127131280D01*
X111291304Y-127138193D01*
X111168606Y-127147263D01*
X111111253Y-127158377D01*
X111082613Y-127206140D01*
X111068663Y-127316008D01*
X110738606Y-127316008D01*
X110740043Y-127270431D01*
X110755471Y-127121647D01*
X110780724Y-127028741D01*
X110793607Y-126989883D01*
X110812387Y-126872421D01*
X110820514Y-126773948D01*
X111164563Y-126773948D01*
X111916463Y-126785157D01*
X112668364Y-126796366D01*
X112656269Y-126497455D01*
X112644175Y-126198543D01*
X111164563Y-126198543D01*
X111164563Y-126773948D01*
X110820514Y-126773948D01*
X110825956Y-126708016D01*
X110832100Y-126518670D01*
X110832656Y-126460480D01*
X110836316Y-126287520D01*
X110845637Y-126172517D01*
X110864827Y-126096321D01*
X110898092Y-126039781D01*
X110949641Y-125983748D01*
X111063522Y-125869741D01*
X112028525Y-125857354D01*
X112993527Y-125844969D01*
X112993527Y-126796366D01*
X112993527Y-127470201D01*
G37*
X110527508Y-127222912D02*
X110527508Y-127575404D01*
X109006796Y-127575404D01*
X109006796Y-128150809D01*
X108677993Y-128150809D01*
X108677993Y-127575404D01*
X108349191Y-127575404D01*
X108349191Y-127246602D01*
X108677993Y-127246602D01*
X108677993Y-127005021D01*
X109012548Y-127005021D01*
X109016368Y-127128656D01*
X109024419Y-127192143D01*
X109029143Y-127200028D01*
X109072854Y-127222050D01*
X109166962Y-127236421D01*
X109322028Y-127244239D01*
X109548618Y-127246602D01*
X109563196Y-127246611D01*
X109750489Y-127247713D01*
X109883327Y-127245585D01*
X109960657Y-127232952D01*
X109981425Y-127202536D01*
X109944579Y-127147060D01*
X109849064Y-127059247D01*
X109693828Y-126931820D01*
X109477816Y-126757502D01*
X109027346Y-126392035D01*
X109015434Y-126764860D01*
X109013421Y-126843204D01*
X109012548Y-127005021D01*
X108677993Y-127005021D01*
X108677993Y-125849191D01*
X108844092Y-125849191D01*
X108851875Y-125849224D01*
X108905744Y-125852916D01*
X108959685Y-125867244D01*
X109022342Y-125898628D01*
X109102357Y-125953486D01*
X109208373Y-126038238D01*
X109349032Y-126159304D01*
X109532976Y-126323102D01*
X109768849Y-126536051D01*
X110505003Y-127202536D01*
X110527508Y-127222912D01*
G36*
X110527508Y-127222912D02*
G01*
X110527508Y-127575404D01*
X109006796Y-127575404D01*
X109006796Y-128150809D01*
X108677993Y-128150809D01*
X108677993Y-127575404D01*
X108349191Y-127575404D01*
X108349191Y-127246602D01*
X108677993Y-127246602D01*
X108677993Y-127005021D01*
X109012548Y-127005021D01*
X109016368Y-127128656D01*
X109024419Y-127192143D01*
X109029143Y-127200028D01*
X109072854Y-127222050D01*
X109166962Y-127236421D01*
X109322028Y-127244239D01*
X109548618Y-127246602D01*
X109563196Y-127246611D01*
X109750489Y-127247713D01*
X109883327Y-127245585D01*
X109960657Y-127232952D01*
X109981425Y-127202536D01*
X109944579Y-127147060D01*
X109849064Y-127059247D01*
X109693828Y-126931820D01*
X109477816Y-126757502D01*
X109027346Y-126392035D01*
X109015434Y-126764860D01*
X109013421Y-126843204D01*
X109012548Y-127005021D01*
X108677993Y-127005021D01*
X108677993Y-125849191D01*
X108844092Y-125849191D01*
X108851875Y-125849224D01*
X108905744Y-125852916D01*
X108959685Y-125867244D01*
X109022342Y-125898628D01*
X109102357Y-125953486D01*
X109208373Y-126038238D01*
X109349032Y-126159304D01*
X109532976Y-126323102D01*
X109768849Y-126536051D01*
X110505003Y-127202536D01*
X110527508Y-127222912D01*
G37*
X108020388Y-128150809D02*
X105965372Y-128150809D01*
X105965372Y-127823641D01*
X106838754Y-127812548D01*
X107712136Y-127801456D01*
X107712136Y-127184951D01*
X107003155Y-127173705D01*
X106294175Y-127162460D01*
X106294175Y-126837539D01*
X107003155Y-126826294D01*
X107712136Y-126815048D01*
X107712136Y-126198543D01*
X106838754Y-126187451D01*
X105965372Y-126176358D01*
X105965372Y-125849191D01*
X108020388Y-125849191D01*
X108020388Y-128150809D01*
G36*
X108020388Y-128150809D02*
G01*
X105965372Y-128150809D01*
X105965372Y-127823641D01*
X106838754Y-127812548D01*
X107712136Y-127801456D01*
X107712136Y-127184951D01*
X107003155Y-127173705D01*
X106294175Y-127162460D01*
X106294175Y-126837539D01*
X107003155Y-126826294D01*
X107712136Y-126815048D01*
X107712136Y-126198543D01*
X106838754Y-126187451D01*
X105965372Y-126176358D01*
X105965372Y-125849191D01*
X108020388Y-125849191D01*
X108020388Y-128150809D01*
G37*
X105595469Y-128150809D02*
X105268239Y-128150809D01*
X105257178Y-127241500D01*
X105246116Y-126332192D01*
X104489956Y-127241500D01*
X103733795Y-128150809D01*
X103334951Y-128150809D01*
X103334951Y-125849191D01*
X103663754Y-125849191D01*
X103663754Y-126753398D01*
X103664034Y-126874971D01*
X103666501Y-127125226D01*
X103671189Y-127340004D01*
X103677698Y-127507625D01*
X103685628Y-127616408D01*
X103694579Y-127654673D01*
X103696542Y-127653758D01*
X103737473Y-127613310D01*
X103822695Y-127518791D01*
X103945258Y-127378238D01*
X104098214Y-127199687D01*
X104274613Y-126991176D01*
X104467507Y-126760741D01*
X105209609Y-125869741D01*
X105402539Y-125857214D01*
X105595469Y-125844688D01*
X105595469Y-128150809D01*
G36*
X105595469Y-128150809D02*
G01*
X105268239Y-128150809D01*
X105257178Y-127241500D01*
X105246116Y-126332192D01*
X104489956Y-127241500D01*
X103733795Y-128150809D01*
X103334951Y-128150809D01*
X103334951Y-125849191D01*
X103663754Y-125849191D01*
X103663754Y-126753398D01*
X103664034Y-126874971D01*
X103666501Y-127125226D01*
X103671189Y-127340004D01*
X103677698Y-127507625D01*
X103685628Y-127616408D01*
X103694579Y-127654673D01*
X103696542Y-127653758D01*
X103737473Y-127613310D01*
X103822695Y-127518791D01*
X103945258Y-127378238D01*
X104098214Y-127199687D01*
X104274613Y-126991176D01*
X104467507Y-126760741D01*
X105209609Y-125869741D01*
X105402539Y-125857214D01*
X105595469Y-125844688D01*
X105595469Y-128150809D01*
G37*
%TD*%
M02*
