%TF.GenerationSoftware,KiCad,Pcbnew,8.0.7-8.0.7-0~ubuntu24.04.1*%
%TF.CreationDate,2025-01-11T18:55:06-05:00*%
%TF.ProjectId,esp32_sensor_board,65737033-325f-4736-956e-736f725f626f,rev?*%
%TF.SameCoordinates,Original*%
%TF.FileFunction,Profile,NP*%
%FSLAX46Y46*%
G04 Gerber Fmt 4.6, Leading zero omitted, Abs format (unit mm)*
G04 Created by KiCad (PCBNEW 8.0.7-8.0.7-0~ubuntu24.04.1) date 2025-01-11 18:55:06*
%MOMM*%
%LPD*%
G01*
G04 APERTURE LIST*
%TA.AperFunction,Profile*%
%ADD10C,0.150000*%
%TD*%
%TA.AperFunction,Profile*%
%ADD11C,0.100000*%
%TD*%
G04 APERTURE END LIST*
D10*
X92875000Y-84000000D02*
X92875000Y-83500000D01*
X92875000Y-86250000D02*
G75*
G02*
X93375000Y-85750000I500000J0D01*
G01*
X97625000Y-83500000D02*
X97625000Y-84000000D01*
X97625000Y-86750000D02*
G75*
G02*
X97125000Y-87250000I-500000J0D01*
G01*
D11*
X87500000Y-132000000D02*
G75*
G02*
X85500000Y-130000000I0J2000000D01*
G01*
X85500000Y-72000000D02*
G75*
G02*
X87500000Y-70000000I2000000J0D01*
G01*
X159500000Y-70000000D02*
G75*
G02*
X161500000Y-72000000I0J-2000000D01*
G01*
X161500000Y-130000000D02*
G75*
G02*
X159500000Y-132000000I-2000000J0D01*
G01*
D10*
X92875000Y-86250000D02*
X92875000Y-86750000D01*
X93375000Y-87250000D02*
G75*
G02*
X92875000Y-86750000I0J500000D01*
G01*
X97625000Y-86750000D02*
X97625000Y-86250000D01*
X93375000Y-85750000D02*
G75*
G02*
X93875000Y-86250000I0J-500000D01*
G01*
D11*
X85500000Y-130000000D02*
X85500000Y-72000000D01*
X159500000Y-132000000D02*
X87500000Y-132000000D01*
X159500000Y-70000000D02*
X131640000Y-70000000D01*
D10*
X97125000Y-84500000D02*
G75*
G02*
X96625000Y-84000000I0J500000D01*
G01*
X93375000Y-84500000D02*
G75*
G02*
X92875000Y-84000000I0J500000D01*
G01*
X93875000Y-84000000D02*
G75*
G02*
X93375000Y-84500000I-500000J0D01*
G01*
X93375000Y-83000000D02*
X97125000Y-83000000D01*
X97125000Y-83000000D02*
G75*
G02*
X97625000Y-83500000I0J-500000D01*
G01*
X96625000Y-86250000D02*
X93875000Y-86250000D01*
D11*
X87500000Y-70000000D02*
X131640000Y-70000000D01*
D10*
X96625000Y-86250000D02*
G75*
G02*
X97125000Y-85750000I500000J0D01*
G01*
X96625000Y-84000000D02*
X93875000Y-84000000D01*
X97125000Y-85750000D02*
G75*
G02*
X97625000Y-86250000I0J-500000D01*
G01*
X92875000Y-83500000D02*
G75*
G02*
X93375000Y-83000000I500000J0D01*
G01*
X97625000Y-84000000D02*
G75*
G02*
X97125000Y-84500000I-500000J0D01*
G01*
X93375000Y-87250000D02*
X97125000Y-87250000D01*
D11*
X161500000Y-72000000D02*
X161500000Y-130000000D01*
M02*
