%TF.GenerationSoftware,KiCad,Pcbnew,7.0.7-7.0.7~ubuntu22.04.1*%
%TF.CreationDate,2023-10-05T15:00:09-04:00*%
%TF.ProjectId,esp32_sensor_board,65737033-325f-4736-956e-736f725f626f,rev?*%
%TF.SameCoordinates,Original*%
%TF.FileFunction,Copper,L3,Inr*%
%TF.FilePolarity,Positive*%
%FSLAX46Y46*%
G04 Gerber Fmt 4.6, Leading zero omitted, Abs format (unit mm)*
G04 Created by KiCad (PCBNEW 7.0.7-7.0.7~ubuntu22.04.1) date 2023-10-05 15:00:09*
%MOMM*%
%LPD*%
G01*
G04 APERTURE LIST*
G04 Aperture macros list*
%AMRoundRect*
0 Rectangle with rounded corners*
0 $1 Rounding radius*
0 $2 $3 $4 $5 $6 $7 $8 $9 X,Y pos of 4 corners*
0 Add a 4 corners polygon primitive as box body*
4,1,4,$2,$3,$4,$5,$6,$7,$8,$9,$2,$3,0*
0 Add four circle primitives for the rounded corners*
1,1,$1+$1,$2,$3*
1,1,$1+$1,$4,$5*
1,1,$1+$1,$6,$7*
1,1,$1+$1,$8,$9*
0 Add four rect primitives between the rounded corners*
20,1,$1+$1,$2,$3,$4,$5,0*
20,1,$1+$1,$4,$5,$6,$7,0*
20,1,$1+$1,$6,$7,$8,$9,0*
20,1,$1+$1,$8,$9,$2,$3,0*%
G04 Aperture macros list end*
%TA.AperFunction,ComponentPad*%
%ADD10RoundRect,0.249999X-0.790001X-1.550001X0.790001X-1.550001X0.790001X1.550001X-0.790001X1.550001X0*%
%TD*%
%TA.AperFunction,ComponentPad*%
%ADD11O,2.080000X3.600000*%
%TD*%
%TA.AperFunction,ComponentPad*%
%ADD12R,1.700000X1.700000*%
%TD*%
%TA.AperFunction,ComponentPad*%
%ADD13O,1.700000X1.700000*%
%TD*%
%TA.AperFunction,ComponentPad*%
%ADD14RoundRect,0.249999X1.550001X-0.790001X1.550001X0.790001X-1.550001X0.790001X-1.550001X-0.790001X0*%
%TD*%
%TA.AperFunction,ComponentPad*%
%ADD15O,3.600000X2.080000*%
%TD*%
%TA.AperFunction,ComponentPad*%
%ADD16C,5.600000*%
%TD*%
%TA.AperFunction,ComponentPad*%
%ADD17O,1.200000X1.900000*%
%TD*%
%TA.AperFunction,ComponentPad*%
%ADD18C,1.450000*%
%TD*%
%TA.AperFunction,ViaPad*%
%ADD19C,0.800000*%
%TD*%
G04 APERTURE END LIST*
D10*
%TO.N,GND*%
%TO.C,J103*%
X106960000Y-125150500D03*
D11*
%TO.N,/Vbus2_in*%
X112040000Y-125150500D03*
%TD*%
D12*
%TO.N,GND*%
%TO.C,J502*%
X89900000Y-128630000D03*
D13*
%TO.N,/Load Cell Sensor/S2_P*%
X89900000Y-126090000D03*
%TO.N,/Load Cell Sensor/S2_N*%
X89900000Y-123550000D03*
%TO.N,GND*%
X89900000Y-121010000D03*
%TO.N,/Load Cell Sensor/E_p*%
X89900000Y-118470000D03*
%TD*%
D14*
%TO.N,VIN*%
%TO.C,J102*%
X154722500Y-111910000D03*
D15*
%TO.N,GND*%
X154722500Y-106830000D03*
%TD*%
D12*
%TO.N,GND*%
%TO.C,J201*%
X127156000Y-103020000D03*
D13*
%TO.N,+3.3V*%
X129696000Y-103020000D03*
%TO.N,P_GOOD*%
X132236000Y-103020000D03*
%TD*%
D12*
%TO.N,GND*%
%TO.C,J501*%
X89900000Y-114130000D03*
D13*
%TO.N,/Load Cell Sensor/S1_P*%
X89900000Y-111590000D03*
%TO.N,/Load Cell Sensor/S1_N*%
X89900000Y-109050000D03*
%TO.N,GND*%
X89900000Y-106510000D03*
%TO.N,/Load Cell Sensor/E_p*%
X89900000Y-103970000D03*
%TD*%
D16*
%TO.N,GND*%
%TO.C,H101*%
X90500000Y-98000000D03*
%TD*%
D12*
%TO.N,GND*%
%TO.C,J308*%
X130960000Y-93000000D03*
D13*
%TO.N,+3.3V*%
X133500000Y-93000000D03*
%TO.N,/Microprocessor/SPI_SCK*%
X136040000Y-93000000D03*
%TO.N,/Microprocessor/SPI_COPI*%
X138580000Y-93000000D03*
%TO.N,/Microprocessor/SPI_CIPO*%
X141120000Y-93000000D03*
%TO.N,/Microprocessor/SPI_CS1*%
X143660000Y-93000000D03*
%TD*%
D14*
%TO.N,GND*%
%TO.C,J101*%
X154722500Y-125250000D03*
D15*
%TO.N,/Vbus1_in*%
X154722500Y-120170000D03*
%TD*%
D12*
%TO.N,GND*%
%TO.C,J304*%
X117000000Y-74475000D03*
D13*
%TO.N,/Microprocessor/UART_RX*%
X117000000Y-77015000D03*
%TO.N,/Microprocessor/UART_TX*%
X117000000Y-79555000D03*
%TD*%
D12*
%TO.N,GND*%
%TO.C,J305*%
X148580000Y-104500000D03*
D13*
%TO.N,VIN*%
X146040000Y-104500000D03*
%TO.N,/Microprocessor/EXT_1*%
X143500000Y-104500000D03*
%TD*%
D16*
%TO.N,GND*%
%TO.C,H103*%
X156500000Y-75000000D03*
%TD*%
D12*
%TO.N,GND*%
%TO.C,J306*%
X148525000Y-100500000D03*
D13*
%TO.N,VIN*%
X145985000Y-100500000D03*
%TO.N,/Microprocessor/EXT_2*%
X143445000Y-100500000D03*
%TD*%
D10*
%TO.N,/Vbus2_out*%
%TO.C,J104*%
X120460000Y-125222500D03*
D11*
%TO.N,GND*%
X125540000Y-125222500D03*
%TD*%
D16*
%TO.N,GND*%
%TO.C,H102*%
X156500000Y-98000000D03*
%TD*%
D17*
%TO.N,unconnected-(J301-Shield-Pad6)*%
%TO.C,J301*%
X127700000Y-71602500D03*
D18*
X126700000Y-74302500D03*
X121700000Y-74302500D03*
D17*
X120700000Y-71602500D03*
%TD*%
D16*
%TO.N,GND*%
%TO.C,H104*%
X90500000Y-75000000D03*
%TD*%
D12*
%TO.N,GND*%
%TO.C,J307*%
X87500000Y-83700000D03*
D13*
%TO.N,+3.3V*%
X87500000Y-86240000D03*
%TO.N,/Power Measurement/I2C_SDA*%
X87500000Y-88780000D03*
%TO.N,/Power Measurement/I2C_SCL*%
X87500000Y-91320000D03*
%TD*%
D19*
%TO.N,VIN*%
X126000000Y-118100000D03*
X152400000Y-112500000D03*
X137400000Y-118000000D03*
X152400000Y-111500000D03*
X125000000Y-118000000D03*
X127100000Y-118100000D03*
X151400000Y-110500000D03*
X133100000Y-116400000D03*
X137400000Y-116400000D03*
X136400000Y-116400000D03*
X134200000Y-116400000D03*
X150500000Y-110500000D03*
X135400000Y-116400000D03*
X125010260Y-116475000D03*
X152400000Y-110500000D03*
X149500000Y-110500000D03*
%TO.N,GND*%
X119000000Y-87500000D03*
X130750000Y-119250000D03*
X117750000Y-92750000D03*
X99500000Y-123000000D03*
X115000000Y-85000000D03*
X109000000Y-98000000D03*
X99945000Y-108055000D03*
X98500000Y-121000000D03*
X121004000Y-115310000D03*
X126000000Y-112750000D03*
X105500000Y-93000000D03*
X135000000Y-97500000D03*
X109250000Y-96000000D03*
X136250000Y-113000000D03*
X137000000Y-97500000D03*
X106917351Y-105392045D03*
X106000000Y-100000000D03*
X115500000Y-88500000D03*
X133000000Y-85000000D03*
X125000000Y-114000000D03*
X137500000Y-114000000D03*
X120500000Y-102000000D03*
X109500000Y-109000000D03*
X129500000Y-121500000D03*
X124250000Y-78000000D03*
X95000000Y-120500000D03*
X129250000Y-110750000D03*
X133000000Y-79500000D03*
X135250000Y-113500000D03*
X120250000Y-92750000D03*
X94750000Y-84750000D03*
X126419149Y-99080851D03*
X128250000Y-114000000D03*
X100000000Y-110000000D03*
X118500000Y-101250000D03*
X117750000Y-95250000D03*
X132500000Y-78500000D03*
X118000000Y-84500000D03*
X129250000Y-114000000D03*
X110000000Y-92000000D03*
X136250000Y-111000000D03*
X136250000Y-112000000D03*
X120250000Y-94000000D03*
X126000000Y-111750000D03*
X125000000Y-115000000D03*
X130500000Y-110750000D03*
X146500000Y-112830000D03*
X119000001Y-94000001D03*
X113500000Y-88500000D03*
X126000000Y-110750000D03*
X122481263Y-77481263D03*
X104500000Y-111500000D03*
X134250000Y-113500000D03*
X132250000Y-114000000D03*
X133000000Y-87500000D03*
X137250000Y-113000000D03*
X105500000Y-88000000D03*
X126012653Y-95837347D03*
X109438725Y-93966130D03*
X117750000Y-94000000D03*
X102500000Y-90000000D03*
X120919149Y-87919149D03*
X131500000Y-110750000D03*
X132500000Y-110750000D03*
X120250000Y-95250000D03*
X125000000Y-113000000D03*
%TO.N,+3.3V*%
X110000000Y-111000000D03*
X111000000Y-106500000D03*
X126250000Y-108000000D03*
X124000000Y-83000000D03*
X136250000Y-109750000D03*
X133250000Y-108000000D03*
X132250000Y-108000000D03*
X127250000Y-108000000D03*
X131250000Y-108000000D03*
X115500000Y-90000000D03*
X142500000Y-113330000D03*
X123775619Y-95271945D03*
X134250000Y-108000000D03*
X121004000Y-114310000D03*
X130250000Y-108000000D03*
X119000000Y-106750000D03*
X94750000Y-85750000D03*
X128250000Y-108000000D03*
X112000000Y-99500000D03*
X136000000Y-121500000D03*
X136250000Y-108750000D03*
X129250000Y-108000000D03*
X126000000Y-109750000D03*
X133000000Y-83000000D03*
X135250000Y-108000000D03*
X104500000Y-113500000D03*
X119750000Y-98250000D03*
X125284595Y-108034595D03*
%TO.N,/Microprocessor/SD_CS*%
X132000000Y-84500000D03*
X132500000Y-80500000D03*
%TO.N,/Microprocessor/SPI_CIPO*%
X128000000Y-85500000D03*
X131000000Y-88000000D03*
%TO.N,/Microprocessor/SD_DET*%
X132000000Y-77500000D03*
X131000000Y-86500000D03*
%TO.N,P_GOOD*%
X132074500Y-116800000D03*
X122800000Y-110600000D03*
%TO.N,/Microprocessor/EXT_1*%
X116500000Y-96500000D03*
%TO.N,/Microprocessor/EXT_2*%
X121500000Y-96500000D03*
%TO.N,/Microprocessor/SPI_CS1*%
X122500000Y-94500000D03*
%TO.N,/Power Measurement/I2C_SCL*%
X140500000Y-109500000D03*
X91350000Y-87650000D03*
X106500000Y-115920000D03*
X140273198Y-107226802D03*
X106500000Y-110500000D03*
%TO.N,/Power Measurement/I2C_SDA*%
X119500000Y-108000000D03*
X115000000Y-106000000D03*
%TO.N,/Microprocessor/STATUS_LED*%
X124944857Y-97675000D03*
X119000000Y-97500000D03*
%TD*%
%TA.AperFunction,Conductor*%
%TO.N,+3.3V*%
G36*
X159502019Y-70000633D02*
G01*
X159537198Y-70002938D01*
X159583708Y-70005986D01*
X159765459Y-70018985D01*
X159773100Y-70020015D01*
X159866738Y-70038641D01*
X159889420Y-70043153D01*
X159915023Y-70048722D01*
X160033666Y-70074531D01*
X160040383Y-70076395D01*
X160159437Y-70116809D01*
X160256671Y-70153076D01*
X160291741Y-70166157D01*
X160297499Y-70168643D01*
X160412952Y-70225578D01*
X160534906Y-70292170D01*
X160539634Y-70295032D01*
X160596571Y-70333076D01*
X160646649Y-70366537D01*
X160649358Y-70368454D01*
X160758652Y-70450271D01*
X160762345Y-70453265D01*
X160821941Y-70505529D01*
X160859502Y-70538469D01*
X160862448Y-70541228D01*
X160958769Y-70637549D01*
X160961526Y-70640492D01*
X161046729Y-70737648D01*
X161049732Y-70741353D01*
X161101564Y-70810592D01*
X161131543Y-70850639D01*
X161133461Y-70853349D01*
X161204962Y-70960357D01*
X161207828Y-70965091D01*
X161274421Y-71087047D01*
X161331355Y-71202499D01*
X161333841Y-71208257D01*
X161370212Y-71305768D01*
X161383196Y-71340578D01*
X161388289Y-71355581D01*
X161423597Y-71459596D01*
X161425472Y-71466352D01*
X161456846Y-71610579D01*
X161479980Y-71726880D01*
X161481015Y-71734560D01*
X161494017Y-71916350D01*
X161496531Y-71954709D01*
X161497786Y-71973857D01*
X161499367Y-71997966D01*
X161499500Y-72002023D01*
X161499500Y-129997975D01*
X161499367Y-130002032D01*
X161494017Y-130083648D01*
X161481015Y-130265438D01*
X161479980Y-130273118D01*
X161456846Y-130389420D01*
X161425472Y-130533646D01*
X161423597Y-130540401D01*
X161389297Y-130641448D01*
X161383208Y-130659388D01*
X161383195Y-130659425D01*
X161333841Y-130791741D01*
X161331355Y-130797499D01*
X161274421Y-130912952D01*
X161207828Y-131034907D01*
X161204961Y-131039641D01*
X161133461Y-131146649D01*
X161131543Y-131149359D01*
X161049744Y-131258631D01*
X161046723Y-131262357D01*
X160961529Y-131359502D01*
X160958755Y-131362464D01*
X160862464Y-131458755D01*
X160859502Y-131461529D01*
X160762357Y-131546723D01*
X160758631Y-131549744D01*
X160649359Y-131631543D01*
X160646649Y-131633461D01*
X160539641Y-131704961D01*
X160534907Y-131707828D01*
X160412952Y-131774421D01*
X160297499Y-131831355D01*
X160291741Y-131833841D01*
X160170956Y-131878893D01*
X160159418Y-131883197D01*
X160040401Y-131923597D01*
X160033646Y-131925472D01*
X159889420Y-131956846D01*
X159773118Y-131979980D01*
X159765438Y-131981015D01*
X159583648Y-131994017D01*
X159532582Y-131997364D01*
X159502025Y-131999367D01*
X159497976Y-131999500D01*
X87502024Y-131999500D01*
X87497974Y-131999367D01*
X87459954Y-131996875D01*
X87416350Y-131994017D01*
X87234560Y-131981015D01*
X87226880Y-131979980D01*
X87110579Y-131956846D01*
X86966352Y-131925472D01*
X86959596Y-131923597D01*
X86927881Y-131912831D01*
X86840578Y-131883196D01*
X86805768Y-131870212D01*
X86708257Y-131833841D01*
X86702499Y-131831355D01*
X86587047Y-131774421D01*
X86465091Y-131707828D01*
X86460357Y-131704962D01*
X86353349Y-131633461D01*
X86350639Y-131631543D01*
X86310592Y-131601564D01*
X86241353Y-131549732D01*
X86237648Y-131546729D01*
X86140492Y-131461526D01*
X86137549Y-131458769D01*
X86041228Y-131362448D01*
X86038469Y-131359502D01*
X86005450Y-131321851D01*
X85953265Y-131262345D01*
X85950271Y-131258652D01*
X85868454Y-131149358D01*
X85866537Y-131146649D01*
X85795036Y-131039641D01*
X85792170Y-131034906D01*
X85725578Y-130912952D01*
X85668643Y-130797499D01*
X85666157Y-130791741D01*
X85653076Y-130756671D01*
X85616805Y-130659425D01*
X85576395Y-130540383D01*
X85574531Y-130533666D01*
X85543153Y-130389420D01*
X85538641Y-130366738D01*
X85520015Y-130273100D01*
X85518985Y-130265459D01*
X85505986Y-130083708D01*
X85502938Y-130037198D01*
X85500633Y-130002019D01*
X85500500Y-129997964D01*
X85500500Y-129503692D01*
X88809500Y-129503692D01*
X88823452Y-129573834D01*
X88823453Y-129573837D01*
X88823454Y-129573839D01*
X88876609Y-129653391D01*
X88956161Y-129706546D01*
X88956164Y-129706546D01*
X88956165Y-129706547D01*
X89026307Y-129720499D01*
X89026310Y-129720500D01*
X89026312Y-129720500D01*
X90773690Y-129720500D01*
X90773691Y-129720499D01*
X90843839Y-129706546D01*
X90923391Y-129653391D01*
X90976546Y-129573839D01*
X90990500Y-129503688D01*
X90990500Y-127756312D01*
X90990500Y-127756309D01*
X90990499Y-127756307D01*
X90976547Y-127686165D01*
X90976546Y-127686164D01*
X90976546Y-127686161D01*
X90923391Y-127606609D01*
X90843839Y-127553454D01*
X90843837Y-127553453D01*
X90843834Y-127553452D01*
X90773691Y-127539500D01*
X90773688Y-127539500D01*
X89026312Y-127539500D01*
X89026309Y-127539500D01*
X88956165Y-127553452D01*
X88956161Y-127553454D01*
X88876609Y-127606609D01*
X88823454Y-127686161D01*
X88823452Y-127686165D01*
X88809500Y-127756307D01*
X88809500Y-129503692D01*
X85500500Y-129503692D01*
X85500500Y-126090000D01*
X88804828Y-126090000D01*
X88823474Y-126291236D01*
X88878782Y-126485619D01*
X88878787Y-126485632D01*
X88968866Y-126666534D01*
X89090659Y-126827815D01*
X89240010Y-126963965D01*
X89240012Y-126963967D01*
X89411836Y-127070356D01*
X89411842Y-127070359D01*
X89451764Y-127085824D01*
X89600292Y-127143365D01*
X89798950Y-127180500D01*
X89798953Y-127180500D01*
X90001047Y-127180500D01*
X90001050Y-127180500D01*
X90199708Y-127143365D01*
X90388160Y-127070358D01*
X90559989Y-126963966D01*
X90709342Y-126827813D01*
X90770055Y-126747416D01*
X105679500Y-126747416D01*
X105685781Y-126805836D01*
X105685781Y-126805838D01*
X105685782Y-126805839D01*
X105735069Y-126937986D01*
X105735070Y-126937988D01*
X105735071Y-126937989D01*
X105819597Y-127050903D01*
X105909727Y-127118373D01*
X105932511Y-127135429D01*
X105932513Y-127135430D01*
X105953783Y-127143363D01*
X106064664Y-127184719D01*
X106123084Y-127191000D01*
X106123094Y-127191000D01*
X107796906Y-127191000D01*
X107796916Y-127191000D01*
X107855336Y-127184719D01*
X107987489Y-127135429D01*
X108100403Y-127050903D01*
X108184929Y-126937989D01*
X108234219Y-126805836D01*
X108240500Y-126747416D01*
X108240500Y-125966404D01*
X110759500Y-125966404D01*
X110774136Y-126133701D01*
X110774137Y-126133708D01*
X110832126Y-126350125D01*
X110832127Y-126350127D01*
X110832128Y-126350130D01*
X110895308Y-126485619D01*
X110926818Y-126553193D01*
X110926819Y-126553195D01*
X111055331Y-126736731D01*
X111055332Y-126736732D01*
X111055333Y-126736733D01*
X111213767Y-126895167D01*
X111213770Y-126895169D01*
X111213771Y-126895170D01*
X111397299Y-127023678D01*
X111397301Y-127023679D01*
X111397304Y-127023681D01*
X111600370Y-127118372D01*
X111816794Y-127176363D01*
X111976226Y-127190311D01*
X112039998Y-127195891D01*
X112040000Y-127195891D01*
X112040002Y-127195891D01*
X112103105Y-127190370D01*
X112263206Y-127176363D01*
X112479630Y-127118372D01*
X112682695Y-127023681D01*
X112866233Y-126895167D01*
X112941984Y-126819416D01*
X119179500Y-126819416D01*
X119185781Y-126877836D01*
X119185781Y-126877838D01*
X119185782Y-126877839D01*
X119235069Y-127009986D01*
X119235070Y-127009988D01*
X119235071Y-127009989D01*
X119319597Y-127122903D01*
X119417098Y-127195891D01*
X119432511Y-127207429D01*
X119432513Y-127207430D01*
X119476561Y-127223859D01*
X119564664Y-127256719D01*
X119623084Y-127263000D01*
X119623094Y-127263000D01*
X121296906Y-127263000D01*
X121296916Y-127263000D01*
X121355336Y-127256719D01*
X121487489Y-127207429D01*
X121600403Y-127122903D01*
X121684929Y-127009989D01*
X121734219Y-126877836D01*
X121740500Y-126819416D01*
X121740500Y-126038404D01*
X124259500Y-126038404D01*
X124274136Y-126205701D01*
X124274137Y-126205708D01*
X124332126Y-126422125D01*
X124332127Y-126422127D01*
X124332128Y-126422130D01*
X124382662Y-126530500D01*
X124426818Y-126625193D01*
X124426819Y-126625195D01*
X124555331Y-126808731D01*
X124555332Y-126808732D01*
X124555333Y-126808733D01*
X124713767Y-126967167D01*
X124713770Y-126967169D01*
X124713771Y-126967170D01*
X124897299Y-127095678D01*
X124897301Y-127095679D01*
X124897304Y-127095681D01*
X125100370Y-127190372D01*
X125316794Y-127248363D01*
X125476226Y-127262311D01*
X125539998Y-127267891D01*
X125540000Y-127267891D01*
X125540002Y-127267891D01*
X125595916Y-127262999D01*
X125763206Y-127248363D01*
X125979630Y-127190372D01*
X126182695Y-127095681D01*
X126366233Y-126967167D01*
X126524667Y-126808733D01*
X126653181Y-126625195D01*
X126747872Y-126422130D01*
X126805863Y-126205706D01*
X126816256Y-126086916D01*
X152682000Y-126086916D01*
X152688281Y-126145336D01*
X152688281Y-126145338D01*
X152688282Y-126145339D01*
X152737569Y-126277486D01*
X152737570Y-126277488D01*
X152758821Y-126305876D01*
X152822097Y-126390403D01*
X152935010Y-126474929D01*
X152935011Y-126474929D01*
X152935013Y-126474930D01*
X152963672Y-126485619D01*
X153067164Y-126524219D01*
X153125584Y-126530500D01*
X153125594Y-126530500D01*
X156319406Y-126530500D01*
X156319416Y-126530500D01*
X156377836Y-126524219D01*
X156509989Y-126474929D01*
X156622903Y-126390403D01*
X156707429Y-126277489D01*
X156756719Y-126145336D01*
X156763000Y-126086916D01*
X156763000Y-124413084D01*
X156756719Y-124354664D01*
X156707429Y-124222511D01*
X156622903Y-124109597D01*
X156509989Y-124025071D01*
X156509988Y-124025070D01*
X156509986Y-124025069D01*
X156377839Y-123975782D01*
X156377838Y-123975781D01*
X156377836Y-123975781D01*
X156319416Y-123969500D01*
X153125584Y-123969500D01*
X153067164Y-123975781D01*
X153067161Y-123975781D01*
X153067160Y-123975782D01*
X152935013Y-124025069D01*
X152935011Y-124025070D01*
X152822097Y-124109597D01*
X152737570Y-124222511D01*
X152737569Y-124222513D01*
X152688282Y-124354660D01*
X152688281Y-124354664D01*
X152682000Y-124413084D01*
X152682000Y-126086916D01*
X126816256Y-126086916D01*
X126820500Y-126038404D01*
X126820500Y-124406596D01*
X126805863Y-124239294D01*
X126747872Y-124022870D01*
X126653181Y-123819805D01*
X126524667Y-123636267D01*
X126366233Y-123477833D01*
X126366229Y-123477830D01*
X126366228Y-123477829D01*
X126182700Y-123349321D01*
X126182696Y-123349319D01*
X126076594Y-123299843D01*
X125979630Y-123254628D01*
X125979627Y-123254627D01*
X125979625Y-123254626D01*
X125763208Y-123196637D01*
X125763200Y-123196636D01*
X125540002Y-123177109D01*
X125539998Y-123177109D01*
X125316799Y-123196636D01*
X125316791Y-123196637D01*
X125100374Y-123254626D01*
X125100368Y-123254629D01*
X124897306Y-123349318D01*
X124897304Y-123349319D01*
X124713764Y-123477834D01*
X124555334Y-123636264D01*
X124426819Y-123819804D01*
X124426818Y-123819806D01*
X124332129Y-124022868D01*
X124332126Y-124022874D01*
X124274137Y-124239291D01*
X124274136Y-124239298D01*
X124259500Y-124406596D01*
X124259500Y-126038404D01*
X121740500Y-126038404D01*
X121740500Y-123625584D01*
X121734219Y-123567164D01*
X121684929Y-123435011D01*
X121600403Y-123322097D01*
X121487489Y-123237571D01*
X121487488Y-123237570D01*
X121487486Y-123237569D01*
X121355339Y-123188282D01*
X121355338Y-123188281D01*
X121355336Y-123188281D01*
X121296916Y-123182000D01*
X119623084Y-123182000D01*
X119564664Y-123188281D01*
X119564661Y-123188281D01*
X119564660Y-123188282D01*
X119432513Y-123237569D01*
X119432511Y-123237570D01*
X119319597Y-123322097D01*
X119235070Y-123435011D01*
X119235069Y-123435013D01*
X119186861Y-123564268D01*
X119185781Y-123567164D01*
X119179500Y-123625584D01*
X119179500Y-126819416D01*
X112941984Y-126819416D01*
X113024667Y-126736733D01*
X113153181Y-126553195D01*
X113247872Y-126350130D01*
X113305863Y-126133706D01*
X113320500Y-125966404D01*
X113320500Y-124334596D01*
X113305863Y-124167294D01*
X113247872Y-123950870D01*
X113153181Y-123747805D01*
X113051981Y-123603276D01*
X113024668Y-123564268D01*
X112955560Y-123495160D01*
X112866233Y-123405833D01*
X112866229Y-123405830D01*
X112866228Y-123405829D01*
X112682700Y-123277321D01*
X112682696Y-123277319D01*
X112634035Y-123254628D01*
X112479630Y-123182628D01*
X112479627Y-123182627D01*
X112479625Y-123182626D01*
X112263208Y-123124637D01*
X112263200Y-123124636D01*
X112040002Y-123105109D01*
X112039998Y-123105109D01*
X111816799Y-123124636D01*
X111816791Y-123124637D01*
X111600374Y-123182626D01*
X111600368Y-123182629D01*
X111397306Y-123277318D01*
X111397304Y-123277319D01*
X111213764Y-123405834D01*
X111055334Y-123564264D01*
X110926819Y-123747804D01*
X110926818Y-123747806D01*
X110832129Y-123950868D01*
X110832126Y-123950874D01*
X110774137Y-124167291D01*
X110774136Y-124167298D01*
X110759500Y-124334596D01*
X110759500Y-125966404D01*
X108240500Y-125966404D01*
X108240500Y-123553584D01*
X108234219Y-123495164D01*
X108184929Y-123363011D01*
X108100403Y-123250097D01*
X107987489Y-123165571D01*
X107987488Y-123165570D01*
X107987486Y-123165569D01*
X107855339Y-123116282D01*
X107855338Y-123116281D01*
X107855336Y-123116281D01*
X107796916Y-123110000D01*
X106123084Y-123110000D01*
X106064664Y-123116281D01*
X106064661Y-123116281D01*
X106064660Y-123116282D01*
X105932513Y-123165569D01*
X105932511Y-123165570D01*
X105819597Y-123250097D01*
X105735070Y-123363011D01*
X105735069Y-123363013D01*
X105685782Y-123495160D01*
X105685781Y-123495164D01*
X105679500Y-123553584D01*
X105679500Y-126747416D01*
X90770055Y-126747416D01*
X90831134Y-126666534D01*
X90921217Y-126485622D01*
X90976525Y-126291237D01*
X90995172Y-126090000D01*
X90976525Y-125888763D01*
X90921217Y-125694378D01*
X90831134Y-125513466D01*
X90709342Y-125352187D01*
X90709340Y-125352184D01*
X90559989Y-125216034D01*
X90559987Y-125216032D01*
X90388163Y-125109643D01*
X90388157Y-125109640D01*
X90239632Y-125052101D01*
X90199708Y-125036635D01*
X90001050Y-124999500D01*
X89798950Y-124999500D01*
X89600292Y-125036635D01*
X89600289Y-125036635D01*
X89600289Y-125036636D01*
X89411842Y-125109640D01*
X89411836Y-125109643D01*
X89240012Y-125216032D01*
X89240010Y-125216034D01*
X89090659Y-125352184D01*
X88968866Y-125513465D01*
X88878787Y-125694367D01*
X88878782Y-125694380D01*
X88823474Y-125888763D01*
X88804828Y-126089999D01*
X88804828Y-126090000D01*
X85500500Y-126090000D01*
X85500500Y-123550000D01*
X88804828Y-123550000D01*
X88823474Y-123751236D01*
X88878782Y-123945619D01*
X88878787Y-123945632D01*
X88968866Y-124126534D01*
X89090659Y-124287815D01*
X89240010Y-124423965D01*
X89240012Y-124423967D01*
X89411836Y-124530356D01*
X89411842Y-124530359D01*
X89451764Y-124545824D01*
X89600292Y-124603365D01*
X89798950Y-124640500D01*
X89798953Y-124640500D01*
X90001047Y-124640500D01*
X90001050Y-124640500D01*
X90199708Y-124603365D01*
X90388160Y-124530358D01*
X90559989Y-124423966D01*
X90709342Y-124287813D01*
X90831134Y-124126534D01*
X90921217Y-123945622D01*
X90976525Y-123751237D01*
X90995172Y-123550000D01*
X90988484Y-123477829D01*
X90976525Y-123348763D01*
X90949740Y-123254626D01*
X90921217Y-123154378D01*
X90906407Y-123124636D01*
X90844346Y-123000000D01*
X98854796Y-123000000D01*
X98873543Y-123154406D01*
X98928701Y-123299843D01*
X98962852Y-123349319D01*
X99017058Y-123427849D01*
X99017060Y-123427851D01*
X99017062Y-123427853D01*
X99133480Y-123530991D01*
X99133482Y-123530992D01*
X99271208Y-123603276D01*
X99422229Y-123640500D01*
X99422230Y-123640500D01*
X99577770Y-123640500D01*
X99577771Y-123640500D01*
X99728792Y-123603276D01*
X99866518Y-123530992D01*
X99982942Y-123427849D01*
X100071300Y-123299841D01*
X100126456Y-123154407D01*
X100145204Y-123000000D01*
X100126456Y-122845593D01*
X100071300Y-122700159D01*
X99982942Y-122572151D01*
X99982939Y-122572148D01*
X99982937Y-122572146D01*
X99866519Y-122469008D01*
X99728790Y-122396723D01*
X99627169Y-122371675D01*
X99577771Y-122359500D01*
X99422229Y-122359500D01*
X99385005Y-122368674D01*
X99271209Y-122396723D01*
X99133480Y-122469008D01*
X99017062Y-122572146D01*
X99017056Y-122572153D01*
X98928701Y-122700156D01*
X98873543Y-122845593D01*
X98854796Y-123000000D01*
X90844346Y-123000000D01*
X90831134Y-122973466D01*
X90709342Y-122812187D01*
X90709340Y-122812184D01*
X90559989Y-122676034D01*
X90559987Y-122676032D01*
X90388163Y-122569643D01*
X90388157Y-122569640D01*
X90239632Y-122512101D01*
X90199708Y-122496635D01*
X90001050Y-122459500D01*
X89798950Y-122459500D01*
X89600292Y-122496635D01*
X89600289Y-122496635D01*
X89600289Y-122496636D01*
X89411842Y-122569640D01*
X89411836Y-122569643D01*
X89240012Y-122676032D01*
X89240010Y-122676034D01*
X89090659Y-122812184D01*
X88968866Y-122973465D01*
X88878787Y-123154367D01*
X88878782Y-123154380D01*
X88823474Y-123348763D01*
X88804828Y-123549999D01*
X88804828Y-123550000D01*
X85500500Y-123550000D01*
X85500500Y-121010000D01*
X88804828Y-121010000D01*
X88823474Y-121211236D01*
X88878782Y-121405619D01*
X88878787Y-121405632D01*
X88968866Y-121586534D01*
X89090659Y-121747815D01*
X89240010Y-121883965D01*
X89240012Y-121883967D01*
X89411836Y-121990356D01*
X89411842Y-121990359D01*
X89451764Y-122005824D01*
X89600292Y-122063365D01*
X89798950Y-122100500D01*
X89798953Y-122100500D01*
X90001047Y-122100500D01*
X90001050Y-122100500D01*
X90199708Y-122063365D01*
X90388160Y-121990358D01*
X90559989Y-121883966D01*
X90709342Y-121747813D01*
X90831134Y-121586534D01*
X90921217Y-121405622D01*
X90976525Y-121211237D01*
X90995172Y-121010000D01*
X90987559Y-120927846D01*
X90976525Y-120808763D01*
X90932606Y-120654406D01*
X90921217Y-120614378D01*
X90918853Y-120609631D01*
X90864264Y-120500000D01*
X94354796Y-120500000D01*
X94373543Y-120654406D01*
X94428701Y-120799843D01*
X94437573Y-120812696D01*
X94517058Y-120927849D01*
X94517060Y-120927851D01*
X94517062Y-120927853D01*
X94633480Y-121030991D01*
X94633482Y-121030992D01*
X94771208Y-121103276D01*
X94922229Y-121140500D01*
X94922230Y-121140500D01*
X95077770Y-121140500D01*
X95077771Y-121140500D01*
X95228792Y-121103276D01*
X95366518Y-121030992D01*
X95401501Y-121000000D01*
X97854796Y-121000000D01*
X97873543Y-121154406D01*
X97890894Y-121200156D01*
X97928700Y-121299841D01*
X98017058Y-121427849D01*
X98017060Y-121427851D01*
X98017062Y-121427853D01*
X98133480Y-121530991D01*
X98133482Y-121530992D01*
X98271208Y-121603276D01*
X98422229Y-121640500D01*
X98422230Y-121640500D01*
X98577770Y-121640500D01*
X98577771Y-121640500D01*
X98728792Y-121603276D01*
X98866518Y-121530992D01*
X98901502Y-121499999D01*
X128854796Y-121499999D01*
X128873543Y-121654406D01*
X128908968Y-121747813D01*
X128928700Y-121799841D01*
X129017058Y-121927849D01*
X129017060Y-121927851D01*
X129017062Y-121927853D01*
X129133480Y-122030991D01*
X129133482Y-122030992D01*
X129271208Y-122103276D01*
X129422229Y-122140500D01*
X129422230Y-122140500D01*
X129577770Y-122140500D01*
X129577771Y-122140500D01*
X129728792Y-122103276D01*
X129866518Y-122030992D01*
X129982942Y-121927849D01*
X130071300Y-121799841D01*
X130126456Y-121654407D01*
X130145204Y-121500000D01*
X130126456Y-121345593D01*
X130071300Y-121200159D01*
X129982942Y-121072151D01*
X129982939Y-121072148D01*
X129982937Y-121072146D01*
X129866519Y-120969008D01*
X129728790Y-120896723D01*
X129627169Y-120871675D01*
X129577771Y-120859500D01*
X129422229Y-120859500D01*
X129385005Y-120868674D01*
X129271209Y-120896723D01*
X129133480Y-120969008D01*
X129017062Y-121072146D01*
X129017056Y-121072153D01*
X128928701Y-121200156D01*
X128873543Y-121345593D01*
X128854796Y-121499999D01*
X98901502Y-121499999D01*
X98982942Y-121427849D01*
X99071300Y-121299841D01*
X99126456Y-121154407D01*
X99145204Y-121000000D01*
X99126456Y-120845593D01*
X99071300Y-120700159D01*
X98982942Y-120572151D01*
X98982939Y-120572148D01*
X98982937Y-120572146D01*
X98866519Y-120469008D01*
X98728790Y-120396723D01*
X98627169Y-120371675D01*
X98577771Y-120359500D01*
X98422229Y-120359500D01*
X98385006Y-120368674D01*
X98271209Y-120396723D01*
X98133480Y-120469008D01*
X98017062Y-120572146D01*
X98017056Y-120572153D01*
X97928701Y-120700156D01*
X97873543Y-120845593D01*
X97854796Y-121000000D01*
X95401501Y-121000000D01*
X95482942Y-120927849D01*
X95571300Y-120799841D01*
X95626456Y-120654407D01*
X95645204Y-120500000D01*
X95626456Y-120345593D01*
X95571300Y-120200159D01*
X95550483Y-120170001D01*
X152677109Y-120170001D01*
X152696636Y-120393200D01*
X152696637Y-120393208D01*
X152754626Y-120609625D01*
X152754627Y-120609627D01*
X152754628Y-120609630D01*
X152838703Y-120789929D01*
X152849318Y-120812693D01*
X152849319Y-120812695D01*
X152977834Y-120996235D01*
X153136264Y-121154665D01*
X153136267Y-121154667D01*
X153319805Y-121283181D01*
X153522870Y-121377872D01*
X153739294Y-121435863D01*
X153906596Y-121450500D01*
X155538404Y-121450500D01*
X155705706Y-121435863D01*
X155922130Y-121377872D01*
X156125195Y-121283181D01*
X156308733Y-121154667D01*
X156467167Y-120996233D01*
X156595681Y-120812696D01*
X156690372Y-120609630D01*
X156748363Y-120393206D01*
X156767891Y-120170000D01*
X156748363Y-119946794D01*
X156690372Y-119730370D01*
X156595681Y-119527305D01*
X156467167Y-119343767D01*
X156467165Y-119343764D01*
X156308735Y-119185334D01*
X156125195Y-119056819D01*
X156125193Y-119056818D01*
X156102429Y-119046203D01*
X155922130Y-118962128D01*
X155922127Y-118962127D01*
X155922125Y-118962126D01*
X155705708Y-118904137D01*
X155705701Y-118904136D01*
X155538404Y-118889500D01*
X153906596Y-118889500D01*
X153739298Y-118904136D01*
X153739291Y-118904137D01*
X153522874Y-118962126D01*
X153522868Y-118962129D01*
X153319806Y-119056818D01*
X153319804Y-119056819D01*
X153136268Y-119185331D01*
X152977829Y-119343771D01*
X152849321Y-119527299D01*
X152849319Y-119527303D01*
X152754629Y-119730368D01*
X152754626Y-119730374D01*
X152696637Y-119946791D01*
X152696636Y-119946799D01*
X152677109Y-120169998D01*
X152677109Y-120170001D01*
X95550483Y-120170001D01*
X95482942Y-120072151D01*
X95482939Y-120072148D01*
X95482937Y-120072146D01*
X95366519Y-119969008D01*
X95228790Y-119896723D01*
X95127169Y-119871675D01*
X95077771Y-119859500D01*
X94922229Y-119859500D01*
X94885005Y-119868674D01*
X94771209Y-119896723D01*
X94633480Y-119969008D01*
X94517062Y-120072146D01*
X94517056Y-120072153D01*
X94428701Y-120200156D01*
X94373543Y-120345593D01*
X94354796Y-120500000D01*
X90864264Y-120500000D01*
X90831134Y-120433466D01*
X90709342Y-120272187D01*
X90709340Y-120272184D01*
X90559989Y-120136034D01*
X90559987Y-120136032D01*
X90388163Y-120029643D01*
X90388157Y-120029640D01*
X90231646Y-119969008D01*
X90199708Y-119956635D01*
X90001050Y-119919500D01*
X89798950Y-119919500D01*
X89600292Y-119956635D01*
X89600289Y-119956635D01*
X89600289Y-119956636D01*
X89411842Y-120029640D01*
X89411836Y-120029643D01*
X89240012Y-120136032D01*
X89240010Y-120136034D01*
X89090659Y-120272184D01*
X88968866Y-120433465D01*
X88878787Y-120614367D01*
X88878782Y-120614380D01*
X88823474Y-120808763D01*
X88804828Y-121009999D01*
X88804828Y-121010000D01*
X85500500Y-121010000D01*
X85500500Y-118470000D01*
X88804828Y-118470000D01*
X88823474Y-118671236D01*
X88878782Y-118865619D01*
X88878787Y-118865632D01*
X88968866Y-119046534D01*
X89090659Y-119207815D01*
X89228792Y-119333739D01*
X89239789Y-119343764D01*
X89240010Y-119343965D01*
X89240012Y-119343967D01*
X89411836Y-119450356D01*
X89411842Y-119450359D01*
X89451764Y-119465824D01*
X89600292Y-119523365D01*
X89798950Y-119560500D01*
X89798953Y-119560500D01*
X90001047Y-119560500D01*
X90001050Y-119560500D01*
X90199708Y-119523365D01*
X90388160Y-119450358D01*
X90559989Y-119343966D01*
X90663066Y-119249999D01*
X130104796Y-119249999D01*
X130123543Y-119404406D01*
X130140970Y-119450356D01*
X130178700Y-119549841D01*
X130267058Y-119677849D01*
X130267060Y-119677851D01*
X130267062Y-119677853D01*
X130383480Y-119780991D01*
X130383482Y-119780992D01*
X130521208Y-119853276D01*
X130672229Y-119890500D01*
X130672230Y-119890500D01*
X130827770Y-119890500D01*
X130827771Y-119890500D01*
X130978792Y-119853276D01*
X131116518Y-119780992D01*
X131232942Y-119677849D01*
X131321300Y-119549841D01*
X131376456Y-119404407D01*
X131395204Y-119250000D01*
X131376456Y-119095593D01*
X131321300Y-118950159D01*
X131232942Y-118822151D01*
X131232939Y-118822148D01*
X131232937Y-118822146D01*
X131116519Y-118719008D01*
X130978790Y-118646723D01*
X130877169Y-118621675D01*
X130827771Y-118609500D01*
X130672229Y-118609500D01*
X130635006Y-118618674D01*
X130521209Y-118646723D01*
X130383480Y-118719008D01*
X130267062Y-118822146D01*
X130267056Y-118822153D01*
X130178701Y-118950156D01*
X130123543Y-119095593D01*
X130104796Y-119249999D01*
X90663066Y-119249999D01*
X90709342Y-119207813D01*
X90831134Y-119046534D01*
X90921217Y-118865622D01*
X90976525Y-118671237D01*
X90995172Y-118470000D01*
X90993044Y-118447040D01*
X90976525Y-118268763D01*
X90972440Y-118254406D01*
X90921217Y-118074378D01*
X90884181Y-118000000D01*
X124354796Y-118000000D01*
X124373543Y-118154406D01*
X124411469Y-118254406D01*
X124428700Y-118299841D01*
X124517058Y-118427849D01*
X124517060Y-118427851D01*
X124517062Y-118427853D01*
X124633480Y-118530991D01*
X124633482Y-118530992D01*
X124771208Y-118603276D01*
X124922229Y-118640500D01*
X124922230Y-118640500D01*
X125077770Y-118640500D01*
X125077771Y-118640500D01*
X125228792Y-118603276D01*
X125366518Y-118530992D01*
X125366521Y-118530989D01*
X125372690Y-118526732D01*
X125374538Y-118529410D01*
X125424382Y-118505890D01*
X125493660Y-118514969D01*
X125525782Y-118535578D01*
X125633482Y-118630992D01*
X125771208Y-118703276D01*
X125922229Y-118740500D01*
X125922230Y-118740500D01*
X126077770Y-118740500D01*
X126077771Y-118740500D01*
X126228792Y-118703276D01*
X126366518Y-118630992D01*
X126467772Y-118541288D01*
X126531006Y-118511566D01*
X126600269Y-118520750D01*
X126632227Y-118541288D01*
X126733480Y-118630991D01*
X126733482Y-118630992D01*
X126871208Y-118703276D01*
X127022229Y-118740500D01*
X127022230Y-118740500D01*
X127177770Y-118740500D01*
X127177771Y-118740500D01*
X127328792Y-118703276D01*
X127466518Y-118630992D01*
X127582942Y-118527849D01*
X127671300Y-118399841D01*
X127726456Y-118254407D01*
X127745204Y-118100000D01*
X127733062Y-118000000D01*
X136754796Y-118000000D01*
X136773543Y-118154406D01*
X136811469Y-118254406D01*
X136828700Y-118299841D01*
X136917058Y-118427849D01*
X136917060Y-118427851D01*
X136917062Y-118427853D01*
X137033480Y-118530991D01*
X137033482Y-118530992D01*
X137171208Y-118603276D01*
X137322229Y-118640500D01*
X137322230Y-118640500D01*
X137477770Y-118640500D01*
X137477771Y-118640500D01*
X137628792Y-118603276D01*
X137766518Y-118530992D01*
X137882942Y-118427849D01*
X137971300Y-118299841D01*
X138026456Y-118154407D01*
X138045204Y-118000000D01*
X138026456Y-117845593D01*
X137971300Y-117700159D01*
X137882942Y-117572151D01*
X137882939Y-117572148D01*
X137882937Y-117572146D01*
X137766519Y-117469008D01*
X137628790Y-117396723D01*
X137527169Y-117371675D01*
X137477771Y-117359500D01*
X137322229Y-117359500D01*
X137285005Y-117368674D01*
X137171209Y-117396723D01*
X137033480Y-117469008D01*
X136917062Y-117572146D01*
X136917056Y-117572153D01*
X136828701Y-117700156D01*
X136773543Y-117845593D01*
X136754796Y-118000000D01*
X127733062Y-118000000D01*
X127726456Y-117945593D01*
X127671300Y-117800159D01*
X127582942Y-117672151D01*
X127582939Y-117672148D01*
X127582937Y-117672146D01*
X127466519Y-117569008D01*
X127328790Y-117496723D01*
X127216346Y-117469008D01*
X127177771Y-117459500D01*
X127022229Y-117459500D01*
X126985005Y-117468674D01*
X126871209Y-117496723D01*
X126733480Y-117569008D01*
X126632225Y-117658712D01*
X126568992Y-117688433D01*
X126499729Y-117679249D01*
X126467772Y-117658711D01*
X126366519Y-117569008D01*
X126228790Y-117496723D01*
X126116346Y-117469008D01*
X126077771Y-117459500D01*
X125922229Y-117459500D01*
X125885005Y-117468674D01*
X125771209Y-117496723D01*
X125633479Y-117569009D01*
X125627310Y-117573268D01*
X125625490Y-117570632D01*
X125575299Y-117594157D01*
X125506046Y-117584899D01*
X125474211Y-117564415D01*
X125366519Y-117469008D01*
X125228790Y-117396723D01*
X125074917Y-117358796D01*
X125014537Y-117323639D01*
X125004329Y-117303659D01*
X124977222Y-117337870D01*
X124929187Y-117356390D01*
X124929512Y-117357705D01*
X124771209Y-117396723D01*
X124633480Y-117469008D01*
X124517062Y-117572146D01*
X124517056Y-117572153D01*
X124428701Y-117700156D01*
X124373543Y-117845593D01*
X124354796Y-118000000D01*
X90884181Y-118000000D01*
X90831134Y-117893466D01*
X90760670Y-117800156D01*
X90709340Y-117732184D01*
X90559989Y-117596034D01*
X90559987Y-117596032D01*
X90388163Y-117489643D01*
X90388157Y-117489640D01*
X90239632Y-117432101D01*
X90199708Y-117416635D01*
X90001050Y-117379500D01*
X89798950Y-117379500D01*
X89600292Y-117416635D01*
X89600289Y-117416635D01*
X89600289Y-117416636D01*
X89411842Y-117489640D01*
X89411836Y-117489643D01*
X89240012Y-117596032D01*
X89240010Y-117596034D01*
X89090659Y-117732184D01*
X88968866Y-117893465D01*
X88878787Y-118074367D01*
X88878782Y-118074380D01*
X88823474Y-118268763D01*
X88804828Y-118469999D01*
X88804828Y-118470000D01*
X85500500Y-118470000D01*
X85500500Y-115920000D01*
X105854796Y-115920000D01*
X105873543Y-116074406D01*
X105911753Y-116175156D01*
X105919932Y-116196723D01*
X105928701Y-116219843D01*
X105979026Y-116292750D01*
X106017058Y-116347849D01*
X106017060Y-116347851D01*
X106017062Y-116347853D01*
X106133480Y-116450991D01*
X106133482Y-116450992D01*
X106271208Y-116523276D01*
X106422229Y-116560500D01*
X106422230Y-116560500D01*
X106577770Y-116560500D01*
X106577771Y-116560500D01*
X106728792Y-116523276D01*
X106866518Y-116450992D01*
X106982942Y-116347849D01*
X107071300Y-116219841D01*
X107126456Y-116074407D01*
X107145204Y-115920000D01*
X107126456Y-115765593D01*
X107071300Y-115620159D01*
X106982942Y-115492151D01*
X106982939Y-115492148D01*
X106982937Y-115492146D01*
X106866519Y-115389008D01*
X106728790Y-115316723D01*
X106701514Y-115310000D01*
X120358796Y-115310000D01*
X120377543Y-115464406D01*
X120432701Y-115609843D01*
X120487841Y-115689726D01*
X120521058Y-115737849D01*
X120521060Y-115737851D01*
X120521062Y-115737853D01*
X120637480Y-115840991D01*
X120637482Y-115840992D01*
X120775208Y-115913276D01*
X120926229Y-115950500D01*
X120926230Y-115950500D01*
X121081770Y-115950500D01*
X121081771Y-115950500D01*
X121232792Y-115913276D01*
X121370518Y-115840992D01*
X121486942Y-115737849D01*
X121575300Y-115609841D01*
X121630456Y-115464407D01*
X121649204Y-115310000D01*
X121630456Y-115155593D01*
X121575300Y-115010159D01*
X121568288Y-115000000D01*
X124354796Y-115000000D01*
X124373543Y-115154406D01*
X124428701Y-115299843D01*
X124490248Y-115389008D01*
X124517058Y-115427849D01*
X124517060Y-115427851D01*
X124517062Y-115427853D01*
X124633480Y-115530991D01*
X124633482Y-115530992D01*
X124771208Y-115603276D01*
X124832434Y-115618367D01*
X124892815Y-115653523D01*
X124924603Y-115715743D01*
X124917707Y-115785271D01*
X124874316Y-115840034D01*
X124832436Y-115859160D01*
X124781472Y-115871722D01*
X124781471Y-115871722D01*
X124643740Y-115944008D01*
X124527322Y-116047146D01*
X124527316Y-116047153D01*
X124438961Y-116175156D01*
X124383803Y-116320593D01*
X124365056Y-116475000D01*
X124383803Y-116629406D01*
X124438961Y-116774843D01*
X124484825Y-116841288D01*
X124527318Y-116902849D01*
X124527320Y-116902851D01*
X124527322Y-116902853D01*
X124643740Y-117005991D01*
X124643742Y-117005992D01*
X124781468Y-117078276D01*
X124932489Y-117115500D01*
X124932490Y-117115500D01*
X124935342Y-117116203D01*
X124995722Y-117151360D01*
X125005929Y-117171339D01*
X125033037Y-117137128D01*
X125081072Y-117118613D01*
X125080748Y-117117295D01*
X125088030Y-117115500D01*
X125088031Y-117115500D01*
X125239052Y-117078276D01*
X125376778Y-117005992D01*
X125493202Y-116902849D01*
X125564194Y-116800000D01*
X131429296Y-116800000D01*
X131448043Y-116954406D01*
X131480695Y-117040500D01*
X131495021Y-117078276D01*
X131503201Y-117099843D01*
X131516157Y-117118613D01*
X131591558Y-117227849D01*
X131591560Y-117227851D01*
X131591562Y-117227853D01*
X131707980Y-117330991D01*
X131707982Y-117330992D01*
X131845708Y-117403276D01*
X131996729Y-117440500D01*
X131996730Y-117440500D01*
X132152270Y-117440500D01*
X132152271Y-117440500D01*
X132303292Y-117403276D01*
X132441018Y-117330992D01*
X132557442Y-117227849D01*
X132645800Y-117099841D01*
X132664128Y-117051511D01*
X132706305Y-116995810D01*
X132771902Y-116971752D01*
X132837693Y-116985686D01*
X132871208Y-117003276D01*
X133022229Y-117040500D01*
X133022230Y-117040500D01*
X133177770Y-117040500D01*
X133177771Y-117040500D01*
X133328792Y-117003276D01*
X133466518Y-116930992D01*
X133567774Y-116841286D01*
X133631004Y-116811567D01*
X133700268Y-116820749D01*
X133732227Y-116841287D01*
X133833482Y-116930992D01*
X133971208Y-117003276D01*
X134122229Y-117040500D01*
X134122230Y-117040500D01*
X134277770Y-117040500D01*
X134277771Y-117040500D01*
X134428792Y-117003276D01*
X134566518Y-116930992D01*
X134682942Y-116827849D01*
X134697950Y-116806105D01*
X134752233Y-116762116D01*
X134821681Y-116754456D01*
X134884246Y-116785559D01*
X134902049Y-116806104D01*
X134917058Y-116827849D01*
X134917060Y-116827851D01*
X134917062Y-116827853D01*
X135033480Y-116930991D01*
X135033482Y-116930992D01*
X135171208Y-117003276D01*
X135322229Y-117040500D01*
X135322230Y-117040500D01*
X135477770Y-117040500D01*
X135477771Y-117040500D01*
X135628792Y-117003276D01*
X135766518Y-116930992D01*
X135817773Y-116885583D01*
X135881005Y-116855862D01*
X135950269Y-116865045D01*
X135982224Y-116885581D01*
X136033482Y-116930992D01*
X136171208Y-117003276D01*
X136322229Y-117040500D01*
X136322230Y-117040500D01*
X136477770Y-117040500D01*
X136477771Y-117040500D01*
X136628792Y-117003276D01*
X136766518Y-116930992D01*
X136817773Y-116885583D01*
X136881005Y-116855862D01*
X136950269Y-116865045D01*
X136982224Y-116885581D01*
X137033482Y-116930992D01*
X137171208Y-117003276D01*
X137322229Y-117040500D01*
X137322230Y-117040500D01*
X137477770Y-117040500D01*
X137477771Y-117040500D01*
X137628792Y-117003276D01*
X137766518Y-116930992D01*
X137882942Y-116827849D01*
X137971300Y-116699841D01*
X138026456Y-116554407D01*
X138045204Y-116400000D01*
X138026456Y-116245593D01*
X137971300Y-116100159D01*
X137882942Y-115972151D01*
X137882939Y-115972148D01*
X137882937Y-115972146D01*
X137766519Y-115869008D01*
X137628790Y-115796723D01*
X137527169Y-115771675D01*
X137477771Y-115759500D01*
X137322229Y-115759500D01*
X137285005Y-115768674D01*
X137171209Y-115796723D01*
X137033483Y-115869007D01*
X136982227Y-115914416D01*
X136918994Y-115944137D01*
X136849730Y-115934953D01*
X136817773Y-115914416D01*
X136811090Y-115908495D01*
X136766518Y-115869008D01*
X136628792Y-115796724D01*
X136628791Y-115796723D01*
X136628790Y-115796723D01*
X136527169Y-115771675D01*
X136477771Y-115759500D01*
X136322229Y-115759500D01*
X136285005Y-115768674D01*
X136171209Y-115796723D01*
X136033483Y-115869007D01*
X135982227Y-115914416D01*
X135918994Y-115944137D01*
X135849730Y-115934953D01*
X135817773Y-115914416D01*
X135811090Y-115908495D01*
X135766518Y-115869008D01*
X135628792Y-115796724D01*
X135628791Y-115796723D01*
X135628790Y-115796723D01*
X135527169Y-115771675D01*
X135477771Y-115759500D01*
X135322229Y-115759500D01*
X135285006Y-115768674D01*
X135171209Y-115796723D01*
X135033480Y-115869008D01*
X134917062Y-115972146D01*
X134917057Y-115972151D01*
X134902049Y-115993895D01*
X134847765Y-116037884D01*
X134778317Y-116045542D01*
X134715752Y-116014438D01*
X134697951Y-115993895D01*
X134682942Y-115972151D01*
X134682937Y-115972146D01*
X134566519Y-115869008D01*
X134428790Y-115796723D01*
X134327169Y-115771675D01*
X134277771Y-115759500D01*
X134122229Y-115759500D01*
X134085005Y-115768674D01*
X133971209Y-115796723D01*
X133833483Y-115869007D01*
X133732227Y-115958712D01*
X133668994Y-115988433D01*
X133599730Y-115979249D01*
X133567773Y-115958712D01*
X133516486Y-115913276D01*
X133466518Y-115869008D01*
X133328792Y-115796724D01*
X133328791Y-115796723D01*
X133328790Y-115796723D01*
X133227169Y-115771675D01*
X133177771Y-115759500D01*
X133022229Y-115759500D01*
X132985006Y-115768674D01*
X132871209Y-115796723D01*
X132733480Y-115869008D01*
X132617062Y-115972146D01*
X132617056Y-115972153D01*
X132528700Y-116100157D01*
X132528699Y-116100160D01*
X132510370Y-116148489D01*
X132468192Y-116204191D01*
X132402594Y-116228247D01*
X132336803Y-116214312D01*
X132303292Y-116196724D01*
X132218539Y-116175834D01*
X132152271Y-116159500D01*
X131996729Y-116159500D01*
X131959505Y-116168674D01*
X131845709Y-116196723D01*
X131707980Y-116269008D01*
X131591562Y-116372146D01*
X131591556Y-116372153D01*
X131503201Y-116500156D01*
X131448043Y-116645593D01*
X131429296Y-116800000D01*
X125564194Y-116800000D01*
X125581560Y-116774841D01*
X125636716Y-116629407D01*
X125655464Y-116475000D01*
X125636716Y-116320593D01*
X125581560Y-116175159D01*
X125493202Y-116047151D01*
X125493199Y-116047148D01*
X125493197Y-116047146D01*
X125376779Y-115944008D01*
X125239048Y-115871722D01*
X125239045Y-115871721D01*
X125177824Y-115856631D01*
X125117443Y-115821475D01*
X125085655Y-115759255D01*
X125092552Y-115689726D01*
X125135944Y-115634964D01*
X125177824Y-115615838D01*
X125228792Y-115603276D01*
X125366518Y-115530992D01*
X125482942Y-115427849D01*
X125571300Y-115299841D01*
X125626456Y-115154407D01*
X125645204Y-115000000D01*
X125626456Y-114845593D01*
X125571300Y-114700159D01*
X125571298Y-114700156D01*
X125571298Y-114700155D01*
X125504426Y-114603276D01*
X125482942Y-114572151D01*
X125482940Y-114572149D01*
X125481761Y-114570441D01*
X125459877Y-114504086D01*
X125477342Y-114436435D01*
X125481761Y-114429559D01*
X125482940Y-114427850D01*
X125482942Y-114427849D01*
X125571300Y-114299841D01*
X125626456Y-114154407D01*
X125645204Y-114000000D01*
X127604796Y-114000000D01*
X127623543Y-114154406D01*
X127663252Y-114259109D01*
X127678700Y-114299841D01*
X127767058Y-114427849D01*
X127767060Y-114427851D01*
X127767062Y-114427853D01*
X127883480Y-114530991D01*
X127883482Y-114530992D01*
X128021208Y-114603276D01*
X128172229Y-114640500D01*
X128172230Y-114640500D01*
X128327770Y-114640500D01*
X128327771Y-114640500D01*
X128478792Y-114603276D01*
X128616518Y-114530992D01*
X128667773Y-114485583D01*
X128731005Y-114455862D01*
X128800269Y-114465045D01*
X128832224Y-114485581D01*
X128883482Y-114530992D01*
X129021208Y-114603276D01*
X129172229Y-114640500D01*
X129172230Y-114640500D01*
X129327770Y-114640500D01*
X129327771Y-114640500D01*
X129478792Y-114603276D01*
X129616518Y-114530992D01*
X129732942Y-114427849D01*
X129821300Y-114299841D01*
X129876456Y-114154407D01*
X129895204Y-114000000D01*
X131604796Y-114000000D01*
X131623543Y-114154406D01*
X131663252Y-114259109D01*
X131678700Y-114299841D01*
X131767058Y-114427849D01*
X131767060Y-114427851D01*
X131767062Y-114427853D01*
X131883480Y-114530991D01*
X131883482Y-114530992D01*
X132021208Y-114603276D01*
X132172229Y-114640500D01*
X132172230Y-114640500D01*
X132327770Y-114640500D01*
X132327771Y-114640500D01*
X132478792Y-114603276D01*
X132616518Y-114530992D01*
X132732942Y-114427849D01*
X132821300Y-114299841D01*
X132876456Y-114154407D01*
X132895204Y-114000000D01*
X132876456Y-113845593D01*
X132821300Y-113700159D01*
X132732942Y-113572151D01*
X132732939Y-113572148D01*
X132732937Y-113572146D01*
X132651500Y-113499999D01*
X133604796Y-113499999D01*
X133623543Y-113654406D01*
X133640894Y-113700155D01*
X133678700Y-113799841D01*
X133767058Y-113927849D01*
X133767060Y-113927851D01*
X133767062Y-113927853D01*
X133883480Y-114030991D01*
X133883482Y-114030992D01*
X134021208Y-114103276D01*
X134172229Y-114140500D01*
X134172230Y-114140500D01*
X134327770Y-114140500D01*
X134327771Y-114140500D01*
X134478792Y-114103276D01*
X134616518Y-114030992D01*
X134667773Y-113985583D01*
X134731005Y-113955862D01*
X134800269Y-113965045D01*
X134832224Y-113985581D01*
X134883482Y-114030992D01*
X135021208Y-114103276D01*
X135172229Y-114140500D01*
X135172230Y-114140500D01*
X135327770Y-114140500D01*
X135327771Y-114140500D01*
X135478792Y-114103276D01*
X135616518Y-114030992D01*
X135732942Y-113927849D01*
X135821300Y-113799841D01*
X135867640Y-113677650D01*
X135909817Y-113621950D01*
X135975414Y-113597893D01*
X136013409Y-113603576D01*
X136013926Y-113601481D01*
X136021207Y-113603275D01*
X136021208Y-113603276D01*
X136172229Y-113640500D01*
X136172230Y-113640500D01*
X136327770Y-113640500D01*
X136327771Y-113640500D01*
X136478792Y-113603276D01*
X136616518Y-113530992D01*
X136667773Y-113485583D01*
X136731005Y-113455862D01*
X136800269Y-113465045D01*
X136832224Y-113485581D01*
X136883482Y-113530992D01*
X136883483Y-113530992D01*
X136883486Y-113530995D01*
X136889656Y-113535254D01*
X136888080Y-113537536D01*
X136928964Y-113577098D01*
X136944935Y-113645118D01*
X136930925Y-113695917D01*
X136928704Y-113700149D01*
X136873543Y-113845593D01*
X136854796Y-114000000D01*
X136873543Y-114154406D01*
X136913252Y-114259109D01*
X136928700Y-114299841D01*
X137017058Y-114427849D01*
X137017060Y-114427851D01*
X137017062Y-114427853D01*
X137133480Y-114530991D01*
X137133482Y-114530992D01*
X137271208Y-114603276D01*
X137422229Y-114640500D01*
X137422230Y-114640500D01*
X137577770Y-114640500D01*
X137577771Y-114640500D01*
X137728792Y-114603276D01*
X137866518Y-114530992D01*
X137982942Y-114427849D01*
X138071300Y-114299841D01*
X138126456Y-114154407D01*
X138145204Y-114000000D01*
X138126456Y-113845593D01*
X138071300Y-113700159D01*
X137982942Y-113572151D01*
X137982939Y-113572148D01*
X137982937Y-113572146D01*
X137866518Y-113469008D01*
X137860344Y-113464746D01*
X137861916Y-113462467D01*
X137821024Y-113422880D01*
X137805066Y-113354857D01*
X137819080Y-113304069D01*
X137821293Y-113299850D01*
X137821300Y-113299841D01*
X137876456Y-113154407D01*
X137895204Y-113000000D01*
X137876456Y-112845593D01*
X137870542Y-112830000D01*
X145854796Y-112830000D01*
X145873543Y-112984406D01*
X145928701Y-113129843D01*
X145967575Y-113186161D01*
X146017058Y-113257849D01*
X146017060Y-113257851D01*
X146017062Y-113257853D01*
X146133480Y-113360991D01*
X146133482Y-113360992D01*
X146271208Y-113433276D01*
X146422229Y-113470500D01*
X146422230Y-113470500D01*
X146577770Y-113470500D01*
X146577771Y-113470500D01*
X146728792Y-113433276D01*
X146866518Y-113360992D01*
X146982942Y-113257849D01*
X147071300Y-113129841D01*
X147126456Y-112984407D01*
X147145204Y-112830000D01*
X147126456Y-112675593D01*
X147071300Y-112530159D01*
X146982942Y-112402151D01*
X146982939Y-112402148D01*
X146982937Y-112402146D01*
X146866519Y-112299008D01*
X146728790Y-112226723D01*
X146621003Y-112200156D01*
X146577771Y-112189500D01*
X146422229Y-112189500D01*
X146385006Y-112198674D01*
X146271209Y-112226723D01*
X146133480Y-112299008D01*
X146017062Y-112402146D01*
X146017056Y-112402153D01*
X145928701Y-112530156D01*
X145873543Y-112675593D01*
X145854796Y-112830000D01*
X137870542Y-112830000D01*
X137821300Y-112700159D01*
X137732942Y-112572151D01*
X137732939Y-112572148D01*
X137732937Y-112572146D01*
X137616519Y-112469008D01*
X137478790Y-112396723D01*
X137377169Y-112371675D01*
X137327771Y-112359500D01*
X137172229Y-112359500D01*
X137135006Y-112368674D01*
X137021209Y-112396723D01*
X137015250Y-112399851D01*
X136946741Y-112413572D01*
X136881689Y-112388076D01*
X136840748Y-112331458D01*
X136836916Y-112261694D01*
X136841689Y-112246079D01*
X136876455Y-112154411D01*
X136876455Y-112154409D01*
X136876456Y-112154407D01*
X136895204Y-112000000D01*
X136876456Y-111845593D01*
X136821300Y-111700159D01*
X136821298Y-111700156D01*
X136821298Y-111700155D01*
X136745262Y-111590000D01*
X136732942Y-111572151D01*
X136732940Y-111572149D01*
X136731761Y-111570441D01*
X136709877Y-111504086D01*
X136727342Y-111436435D01*
X136731761Y-111429559D01*
X136732940Y-111427850D01*
X136732942Y-111427849D01*
X136821300Y-111299841D01*
X136876456Y-111154407D01*
X136895204Y-111000000D01*
X136876456Y-110845593D01*
X136821300Y-110700159D01*
X136732942Y-110572151D01*
X136732939Y-110572148D01*
X136732937Y-110572146D01*
X136651500Y-110499999D01*
X148854796Y-110499999D01*
X148873543Y-110654406D01*
X148885173Y-110685070D01*
X148928700Y-110799841D01*
X149017058Y-110927849D01*
X149017060Y-110927851D01*
X149017062Y-110927853D01*
X149133480Y-111030991D01*
X149133482Y-111030992D01*
X149271208Y-111103276D01*
X149422229Y-111140500D01*
X149422230Y-111140500D01*
X149577770Y-111140500D01*
X149577771Y-111140500D01*
X149728792Y-111103276D01*
X149866518Y-111030992D01*
X149917773Y-110985583D01*
X149981005Y-110955862D01*
X150050269Y-110965045D01*
X150082224Y-110985581D01*
X150133482Y-111030992D01*
X150271208Y-111103276D01*
X150422229Y-111140500D01*
X150422230Y-111140500D01*
X150577770Y-111140500D01*
X150577771Y-111140500D01*
X150728792Y-111103276D01*
X150866518Y-111030992D01*
X150867769Y-111029883D01*
X150868882Y-111029359D01*
X150872690Y-111026732D01*
X150873126Y-111027364D01*
X150931000Y-111000159D01*
X151000264Y-111009339D01*
X151032229Y-111029882D01*
X151033482Y-111030992D01*
X151171208Y-111103276D01*
X151322229Y-111140500D01*
X151322230Y-111140500D01*
X151477770Y-111140500D01*
X151477771Y-111140500D01*
X151628792Y-111103276D01*
X151634741Y-111100153D01*
X151703246Y-111086426D01*
X151768301Y-111111915D01*
X151809247Y-111168530D01*
X151813086Y-111238294D01*
X151808311Y-111253919D01*
X151773544Y-111345592D01*
X151754796Y-111500000D01*
X151773543Y-111654406D01*
X151828701Y-111799843D01*
X151918239Y-111929560D01*
X151940122Y-111995914D01*
X151922657Y-112063566D01*
X151918239Y-112070440D01*
X151828701Y-112200156D01*
X151773543Y-112345593D01*
X151754796Y-112500000D01*
X151773543Y-112654406D01*
X151828701Y-112799843D01*
X151849517Y-112830000D01*
X151917058Y-112927849D01*
X151917060Y-112927851D01*
X151917062Y-112927853D01*
X152033480Y-113030991D01*
X152033482Y-113030992D01*
X152171208Y-113103276D01*
X152322229Y-113140500D01*
X152322230Y-113140500D01*
X152477770Y-113140500D01*
X152477771Y-113140500D01*
X152628792Y-113103276D01*
X152714656Y-113058210D01*
X152783165Y-113044485D01*
X152846592Y-113068740D01*
X152935010Y-113134929D01*
X152935013Y-113134930D01*
X152979061Y-113151358D01*
X153067164Y-113184219D01*
X153125584Y-113190500D01*
X153125594Y-113190500D01*
X156319406Y-113190500D01*
X156319416Y-113190500D01*
X156377836Y-113184219D01*
X156509989Y-113134929D01*
X156622903Y-113050403D01*
X156707429Y-112937489D01*
X156756719Y-112805336D01*
X156763000Y-112746916D01*
X156763000Y-111073084D01*
X156756719Y-111014664D01*
X156715122Y-110903136D01*
X156707430Y-110882513D01*
X156707429Y-110882511D01*
X156684729Y-110852187D01*
X156622903Y-110769597D01*
X156509989Y-110685071D01*
X156509988Y-110685070D01*
X156509986Y-110685069D01*
X156377839Y-110635782D01*
X156377838Y-110635781D01*
X156377836Y-110635781D01*
X156319416Y-110629500D01*
X153169204Y-110629500D01*
X153102165Y-110609815D01*
X153056410Y-110557011D01*
X153045204Y-110505500D01*
X153045204Y-110500000D01*
X153026456Y-110345593D01*
X153017566Y-110322153D01*
X152971300Y-110200159D01*
X152882942Y-110072151D01*
X152882939Y-110072148D01*
X152882937Y-110072146D01*
X152766519Y-109969008D01*
X152628790Y-109896723D01*
X152527169Y-109871675D01*
X152477771Y-109859500D01*
X152322229Y-109859500D01*
X152285005Y-109868674D01*
X152171209Y-109896723D01*
X152033483Y-109969007D01*
X151982227Y-110014416D01*
X151918994Y-110044137D01*
X151849730Y-110034953D01*
X151817773Y-110014416D01*
X151811090Y-110008495D01*
X151766518Y-109969008D01*
X151628792Y-109896724D01*
X151628791Y-109896723D01*
X151628790Y-109896723D01*
X151527169Y-109871675D01*
X151477771Y-109859500D01*
X151322229Y-109859500D01*
X151285006Y-109868674D01*
X151171209Y-109896723D01*
X151033480Y-109969008D01*
X151032224Y-109970122D01*
X151031107Y-109970646D01*
X151027310Y-109973268D01*
X151026874Y-109972636D01*
X150968990Y-109999841D01*
X150899727Y-109990656D01*
X150867776Y-109970122D01*
X150866519Y-109969008D01*
X150728790Y-109896723D01*
X150627169Y-109871675D01*
X150577771Y-109859500D01*
X150422229Y-109859500D01*
X150385006Y-109868674D01*
X150271209Y-109896723D01*
X150133483Y-109969007D01*
X150082227Y-110014416D01*
X150018994Y-110044137D01*
X149949730Y-110034953D01*
X149917773Y-110014416D01*
X149911090Y-110008495D01*
X149866518Y-109969008D01*
X149728792Y-109896724D01*
X149728791Y-109896723D01*
X149728790Y-109896723D01*
X149627169Y-109871675D01*
X149577771Y-109859500D01*
X149422229Y-109859500D01*
X149385006Y-109868674D01*
X149271209Y-109896723D01*
X149133480Y-109969008D01*
X149017062Y-110072146D01*
X149017056Y-110072153D01*
X148928701Y-110200156D01*
X148873543Y-110345593D01*
X148854796Y-110499999D01*
X136651500Y-110499999D01*
X136616519Y-110469008D01*
X136478790Y-110396723D01*
X136377169Y-110371675D01*
X136327771Y-110359500D01*
X136172229Y-110359500D01*
X136135005Y-110368674D01*
X136021209Y-110396723D01*
X135883480Y-110469008D01*
X135767062Y-110572146D01*
X135767056Y-110572153D01*
X135678701Y-110700156D01*
X135623543Y-110845593D01*
X135604796Y-111000000D01*
X135623543Y-111154406D01*
X135643058Y-111205862D01*
X135671551Y-111280992D01*
X135678701Y-111299843D01*
X135768239Y-111429560D01*
X135790122Y-111495914D01*
X135772657Y-111563566D01*
X135768239Y-111570440D01*
X135678701Y-111700156D01*
X135623543Y-111845593D01*
X135604796Y-112000000D01*
X135623543Y-112154406D01*
X135678701Y-112299843D01*
X135768239Y-112429560D01*
X135790122Y-112495914D01*
X135772657Y-112563566D01*
X135768239Y-112570440D01*
X135678701Y-112700156D01*
X135632360Y-112822347D01*
X135590181Y-112878049D01*
X135524584Y-112902106D01*
X135486586Y-112896438D01*
X135486074Y-112898519D01*
X135478792Y-112896724D01*
X135327771Y-112859500D01*
X135172229Y-112859500D01*
X135135006Y-112868674D01*
X135021209Y-112896723D01*
X134883483Y-112969007D01*
X134832227Y-113014416D01*
X134768994Y-113044137D01*
X134699730Y-113034953D01*
X134667773Y-113014416D01*
X134661090Y-113008495D01*
X134616518Y-112969008D01*
X134478792Y-112896724D01*
X134478791Y-112896723D01*
X134478790Y-112896723D01*
X134377169Y-112871675D01*
X134327771Y-112859500D01*
X134172229Y-112859500D01*
X134135006Y-112868674D01*
X134021209Y-112896723D01*
X133883480Y-112969008D01*
X133767062Y-113072146D01*
X133767056Y-113072153D01*
X133678701Y-113200156D01*
X133623543Y-113345593D01*
X133604796Y-113499999D01*
X132651500Y-113499999D01*
X132616519Y-113469008D01*
X132478790Y-113396723D01*
X132377169Y-113371675D01*
X132327771Y-113359500D01*
X132172229Y-113359500D01*
X132135006Y-113368674D01*
X132021209Y-113396723D01*
X131883480Y-113469008D01*
X131767062Y-113572146D01*
X131767056Y-113572153D01*
X131678701Y-113700156D01*
X131623543Y-113845593D01*
X131604796Y-114000000D01*
X129895204Y-114000000D01*
X129876456Y-113845593D01*
X129821300Y-113700159D01*
X129732942Y-113572151D01*
X129732939Y-113572148D01*
X129732937Y-113572146D01*
X129616519Y-113469008D01*
X129478790Y-113396723D01*
X129377169Y-113371675D01*
X129327771Y-113359500D01*
X129172229Y-113359500D01*
X129135006Y-113368674D01*
X129021209Y-113396723D01*
X128883480Y-113469008D01*
X128832225Y-113514416D01*
X128768991Y-113544137D01*
X128699728Y-113534953D01*
X128667773Y-113514416D01*
X128616518Y-113469008D01*
X128478792Y-113396724D01*
X128478791Y-113396723D01*
X128478790Y-113396723D01*
X128377169Y-113371675D01*
X128327771Y-113359500D01*
X128172229Y-113359500D01*
X128135005Y-113368674D01*
X128021209Y-113396723D01*
X127883480Y-113469008D01*
X127767062Y-113572146D01*
X127767056Y-113572153D01*
X127678701Y-113700156D01*
X127623543Y-113845593D01*
X127604796Y-114000000D01*
X125645204Y-114000000D01*
X125626456Y-113845593D01*
X125571300Y-113700159D01*
X125571298Y-113700156D01*
X125571298Y-113700155D01*
X125503187Y-113601481D01*
X125482942Y-113572151D01*
X125482940Y-113572149D01*
X125481761Y-113570441D01*
X125459877Y-113504086D01*
X125477342Y-113436435D01*
X125481760Y-113429560D01*
X125482939Y-113427851D01*
X125482942Y-113427849D01*
X125534984Y-113352453D01*
X125589265Y-113308465D01*
X125658714Y-113300805D01*
X125694654Y-113313097D01*
X125771208Y-113353276D01*
X125922229Y-113390500D01*
X125922230Y-113390500D01*
X126077770Y-113390500D01*
X126077771Y-113390500D01*
X126228792Y-113353276D01*
X126366518Y-113280992D01*
X126482942Y-113177849D01*
X126571300Y-113049841D01*
X126626456Y-112904407D01*
X126645204Y-112750000D01*
X126626456Y-112595593D01*
X126571300Y-112450159D01*
X126571298Y-112450157D01*
X126571298Y-112450155D01*
X126489366Y-112331458D01*
X126482942Y-112322151D01*
X126482940Y-112322149D01*
X126481761Y-112320441D01*
X126459877Y-112254086D01*
X126477342Y-112186435D01*
X126481761Y-112179559D01*
X126482940Y-112177850D01*
X126482942Y-112177849D01*
X126571300Y-112049841D01*
X126626456Y-111904407D01*
X126645204Y-111750000D01*
X126626456Y-111595593D01*
X126571300Y-111450159D01*
X126571298Y-111450156D01*
X126571298Y-111450155D01*
X126499122Y-111345592D01*
X126482942Y-111322151D01*
X126482940Y-111322149D01*
X126481761Y-111320441D01*
X126459877Y-111254086D01*
X126477342Y-111186435D01*
X126481761Y-111179559D01*
X126482940Y-111177850D01*
X126482942Y-111177849D01*
X126571300Y-111049841D01*
X126626456Y-110904407D01*
X126645204Y-110750000D01*
X126645204Y-110749999D01*
X128604796Y-110749999D01*
X128623543Y-110904406D01*
X128643058Y-110955862D01*
X128671551Y-111030992D01*
X128678701Y-111049843D01*
X128734714Y-111130991D01*
X128767058Y-111177849D01*
X128767060Y-111177851D01*
X128767062Y-111177853D01*
X128883480Y-111280991D01*
X128883482Y-111280992D01*
X129021208Y-111353276D01*
X129172229Y-111390500D01*
X129172230Y-111390500D01*
X129327770Y-111390500D01*
X129327771Y-111390500D01*
X129478792Y-111353276D01*
X129616518Y-111280992D01*
X129732942Y-111177849D01*
X129772951Y-111119886D01*
X129827233Y-111075897D01*
X129896681Y-111068237D01*
X129959246Y-111099340D01*
X129977047Y-111119884D01*
X130017058Y-111177849D01*
X130017060Y-111177851D01*
X130017062Y-111177853D01*
X130133480Y-111280991D01*
X130133482Y-111280992D01*
X130271208Y-111353276D01*
X130422229Y-111390500D01*
X130422230Y-111390500D01*
X130577770Y-111390500D01*
X130577771Y-111390500D01*
X130728792Y-111353276D01*
X130866518Y-111280992D01*
X130917773Y-111235583D01*
X130981005Y-111205862D01*
X131050269Y-111215045D01*
X131082224Y-111235581D01*
X131133482Y-111280992D01*
X131271208Y-111353276D01*
X131422229Y-111390500D01*
X131422230Y-111390500D01*
X131577770Y-111390500D01*
X131577771Y-111390500D01*
X131728792Y-111353276D01*
X131866518Y-111280992D01*
X131917773Y-111235583D01*
X131981005Y-111205862D01*
X132050269Y-111215045D01*
X132082224Y-111235581D01*
X132133482Y-111280992D01*
X132271208Y-111353276D01*
X132422229Y-111390500D01*
X132422230Y-111390500D01*
X132577770Y-111390500D01*
X132577771Y-111390500D01*
X132728792Y-111353276D01*
X132866518Y-111280992D01*
X132982942Y-111177849D01*
X133071300Y-111049841D01*
X133126456Y-110904407D01*
X133145204Y-110750000D01*
X133126456Y-110595593D01*
X133071300Y-110450159D01*
X132982942Y-110322151D01*
X132982939Y-110322148D01*
X132982937Y-110322146D01*
X132866519Y-110219008D01*
X132728790Y-110146723D01*
X132627169Y-110121675D01*
X132577771Y-110109500D01*
X132422229Y-110109500D01*
X132385005Y-110118674D01*
X132271209Y-110146723D01*
X132133483Y-110219007D01*
X132082227Y-110264416D01*
X132018994Y-110294137D01*
X131949730Y-110284953D01*
X131917773Y-110264416D01*
X131911090Y-110258495D01*
X131866518Y-110219008D01*
X131728792Y-110146724D01*
X131728791Y-110146723D01*
X131728790Y-110146723D01*
X131627169Y-110121675D01*
X131577771Y-110109500D01*
X131422229Y-110109500D01*
X131385005Y-110118674D01*
X131271209Y-110146723D01*
X131133483Y-110219007D01*
X131082227Y-110264416D01*
X131018994Y-110294137D01*
X130949730Y-110284953D01*
X130917773Y-110264416D01*
X130911090Y-110258495D01*
X130866518Y-110219008D01*
X130728792Y-110146724D01*
X130728791Y-110146723D01*
X130728790Y-110146723D01*
X130627169Y-110121675D01*
X130577771Y-110109500D01*
X130422229Y-110109500D01*
X130385006Y-110118674D01*
X130271209Y-110146723D01*
X130133480Y-110219008D01*
X130017062Y-110322146D01*
X130017057Y-110322151D01*
X129977048Y-110380114D01*
X129922764Y-110424103D01*
X129853316Y-110431761D01*
X129790751Y-110400657D01*
X129772949Y-110380111D01*
X129732946Y-110322156D01*
X129732937Y-110322146D01*
X129616519Y-110219008D01*
X129478790Y-110146723D01*
X129377169Y-110121675D01*
X129327771Y-110109500D01*
X129172229Y-110109500D01*
X129135006Y-110118674D01*
X129021209Y-110146723D01*
X128883480Y-110219008D01*
X128767062Y-110322146D01*
X128767056Y-110322153D01*
X128678701Y-110450156D01*
X128623543Y-110595593D01*
X128604796Y-110749999D01*
X126645204Y-110749999D01*
X126626456Y-110595593D01*
X126571300Y-110450159D01*
X126482942Y-110322151D01*
X126482939Y-110322148D01*
X126482937Y-110322146D01*
X126366519Y-110219008D01*
X126228790Y-110146723D01*
X126127169Y-110121675D01*
X126077771Y-110109500D01*
X125922229Y-110109500D01*
X125885005Y-110118674D01*
X125771209Y-110146723D01*
X125633480Y-110219008D01*
X125517062Y-110322146D01*
X125517056Y-110322153D01*
X125428701Y-110450156D01*
X125373543Y-110595593D01*
X125354796Y-110750000D01*
X125373543Y-110904406D01*
X125393058Y-110955862D01*
X125421551Y-111030992D01*
X125428701Y-111049843D01*
X125518239Y-111179560D01*
X125540122Y-111245914D01*
X125522657Y-111313566D01*
X125518239Y-111320440D01*
X125428701Y-111450156D01*
X125373543Y-111595593D01*
X125354796Y-111750000D01*
X125373543Y-111904406D01*
X125383083Y-111929560D01*
X125421551Y-112030992D01*
X125428701Y-112049843D01*
X125518239Y-112179560D01*
X125540122Y-112245914D01*
X125522657Y-112313566D01*
X125518238Y-112320441D01*
X125465016Y-112397545D01*
X125410733Y-112441535D01*
X125341285Y-112449194D01*
X125305346Y-112436903D01*
X125228792Y-112396724D01*
X125077771Y-112359500D01*
X124922229Y-112359500D01*
X124885006Y-112368674D01*
X124771209Y-112396723D01*
X124633480Y-112469008D01*
X124517062Y-112572146D01*
X124517056Y-112572153D01*
X124428701Y-112700156D01*
X124373543Y-112845593D01*
X124354796Y-113000000D01*
X124373543Y-113154406D01*
X124385588Y-113186165D01*
X124421551Y-113280992D01*
X124428701Y-113299843D01*
X124518239Y-113429560D01*
X124540122Y-113495914D01*
X124522657Y-113563566D01*
X124518239Y-113570440D01*
X124428701Y-113700156D01*
X124373543Y-113845593D01*
X124354796Y-114000000D01*
X124373543Y-114154406D01*
X124428701Y-114299843D01*
X124518239Y-114429560D01*
X124540122Y-114495914D01*
X124522657Y-114563566D01*
X124518239Y-114570440D01*
X124428701Y-114700156D01*
X124373543Y-114845593D01*
X124354796Y-115000000D01*
X121568288Y-115000000D01*
X121486942Y-114882151D01*
X121486939Y-114882148D01*
X121486937Y-114882146D01*
X121370519Y-114779008D01*
X121232790Y-114706723D01*
X121131169Y-114681675D01*
X121081771Y-114669500D01*
X120926229Y-114669500D01*
X120889006Y-114678674D01*
X120775209Y-114706723D01*
X120637480Y-114779008D01*
X120521062Y-114882146D01*
X120521056Y-114882153D01*
X120432701Y-115010156D01*
X120377543Y-115155593D01*
X120358796Y-115310000D01*
X106701514Y-115310000D01*
X106627169Y-115291675D01*
X106577771Y-115279500D01*
X106422229Y-115279500D01*
X106385006Y-115288674D01*
X106271209Y-115316723D01*
X106133480Y-115389008D01*
X106017062Y-115492146D01*
X106017056Y-115492153D01*
X105928701Y-115620156D01*
X105873543Y-115765593D01*
X105854796Y-115920000D01*
X85500500Y-115920000D01*
X85500500Y-115003692D01*
X88809500Y-115003692D01*
X88823452Y-115073834D01*
X88823453Y-115073837D01*
X88823454Y-115073839D01*
X88876609Y-115153391D01*
X88956161Y-115206546D01*
X88956164Y-115206546D01*
X88956165Y-115206547D01*
X89026307Y-115220499D01*
X89026310Y-115220500D01*
X89026312Y-115220500D01*
X90773690Y-115220500D01*
X90773691Y-115220499D01*
X90843839Y-115206546D01*
X90923391Y-115153391D01*
X90976546Y-115073839D01*
X90990500Y-115003688D01*
X90990500Y-113256312D01*
X90990500Y-113256309D01*
X90990499Y-113256307D01*
X90976547Y-113186165D01*
X90976546Y-113186164D01*
X90976546Y-113186161D01*
X90923391Y-113106609D01*
X90843839Y-113053454D01*
X90843837Y-113053453D01*
X90843834Y-113053452D01*
X90773691Y-113039500D01*
X90773688Y-113039500D01*
X89026312Y-113039500D01*
X89026309Y-113039500D01*
X88956165Y-113053452D01*
X88956161Y-113053454D01*
X88876609Y-113106609D01*
X88823454Y-113186161D01*
X88823452Y-113186165D01*
X88809500Y-113256307D01*
X88809500Y-115003692D01*
X85500500Y-115003692D01*
X85500500Y-111590000D01*
X88804828Y-111590000D01*
X88823474Y-111791236D01*
X88878782Y-111985619D01*
X88878787Y-111985632D01*
X88968866Y-112166534D01*
X89090659Y-112327815D01*
X89240010Y-112463965D01*
X89240012Y-112463967D01*
X89411836Y-112570356D01*
X89411842Y-112570359D01*
X89416455Y-112572146D01*
X89600292Y-112643365D01*
X89798950Y-112680500D01*
X89798953Y-112680500D01*
X90001047Y-112680500D01*
X90001050Y-112680500D01*
X90199708Y-112643365D01*
X90388160Y-112570358D01*
X90559989Y-112463966D01*
X90709342Y-112327813D01*
X90831134Y-112166534D01*
X90921217Y-111985622D01*
X90976525Y-111791237D01*
X90995172Y-111590000D01*
X90986832Y-111499999D01*
X103854796Y-111499999D01*
X103873543Y-111654406D01*
X103890894Y-111700155D01*
X103928700Y-111799841D01*
X104017058Y-111927849D01*
X104017060Y-111927851D01*
X104017062Y-111927853D01*
X104133480Y-112030991D01*
X104133482Y-112030992D01*
X104271208Y-112103276D01*
X104422229Y-112140500D01*
X104422230Y-112140500D01*
X104577770Y-112140500D01*
X104577771Y-112140500D01*
X104728792Y-112103276D01*
X104866518Y-112030992D01*
X104982942Y-111927849D01*
X105071300Y-111799841D01*
X105126456Y-111654407D01*
X105145204Y-111500000D01*
X105126456Y-111345593D01*
X105071300Y-111200159D01*
X104982942Y-111072151D01*
X104982939Y-111072148D01*
X104982937Y-111072146D01*
X104866519Y-110969008D01*
X104728790Y-110896723D01*
X104627169Y-110871675D01*
X104577771Y-110859500D01*
X104422229Y-110859500D01*
X104385006Y-110868674D01*
X104271209Y-110896723D01*
X104133480Y-110969008D01*
X104017062Y-111072146D01*
X104017056Y-111072153D01*
X103928701Y-111200156D01*
X103873543Y-111345593D01*
X103854796Y-111499999D01*
X90986832Y-111499999D01*
X90976525Y-111388763D01*
X90921217Y-111194378D01*
X90908346Y-111168530D01*
X90873894Y-111099340D01*
X90831134Y-111013466D01*
X90709342Y-110852187D01*
X90709340Y-110852184D01*
X90559989Y-110716034D01*
X90559987Y-110716032D01*
X90388163Y-110609643D01*
X90388157Y-110609640D01*
X90239632Y-110552101D01*
X90199708Y-110536635D01*
X90001050Y-110499500D01*
X89798950Y-110499500D01*
X89600292Y-110536635D01*
X89600289Y-110536635D01*
X89600289Y-110536636D01*
X89411842Y-110609640D01*
X89411836Y-110609643D01*
X89240012Y-110716032D01*
X89240010Y-110716034D01*
X89090659Y-110852184D01*
X88968866Y-111013465D01*
X88878787Y-111194367D01*
X88878782Y-111194380D01*
X88823474Y-111388763D01*
X88804828Y-111589999D01*
X88804828Y-111590000D01*
X85500500Y-111590000D01*
X85500500Y-109050000D01*
X88804828Y-109050000D01*
X88823474Y-109251236D01*
X88878782Y-109445619D01*
X88878787Y-109445632D01*
X88968866Y-109626534D01*
X89090659Y-109787815D01*
X89240010Y-109923965D01*
X89240012Y-109923967D01*
X89411836Y-110030356D01*
X89411842Y-110030359D01*
X89451764Y-110045824D01*
X89600292Y-110103365D01*
X89798950Y-110140500D01*
X89798953Y-110140500D01*
X90001047Y-110140500D01*
X90001050Y-110140500D01*
X90199708Y-110103365D01*
X90388160Y-110030358D01*
X90437190Y-110000000D01*
X99354796Y-110000000D01*
X99373543Y-110154406D01*
X99428701Y-110299843D01*
X99444101Y-110322153D01*
X99517058Y-110427849D01*
X99517060Y-110427851D01*
X99517062Y-110427853D01*
X99633480Y-110530991D01*
X99633482Y-110530992D01*
X99771208Y-110603276D01*
X99922229Y-110640500D01*
X99922230Y-110640500D01*
X100077770Y-110640500D01*
X100077771Y-110640500D01*
X100228792Y-110603276D01*
X100366518Y-110530992D01*
X100401501Y-110500000D01*
X105854796Y-110500000D01*
X105873543Y-110654406D01*
X105885173Y-110685070D01*
X105928700Y-110799841D01*
X106017058Y-110927849D01*
X106017060Y-110927851D01*
X106017062Y-110927853D01*
X106133480Y-111030991D01*
X106133482Y-111030992D01*
X106271208Y-111103276D01*
X106422229Y-111140500D01*
X106422230Y-111140500D01*
X106577770Y-111140500D01*
X106577771Y-111140500D01*
X106728792Y-111103276D01*
X106866518Y-111030992D01*
X106982942Y-110927849D01*
X107071300Y-110799841D01*
X107126456Y-110654407D01*
X107133062Y-110600000D01*
X122154796Y-110600000D01*
X122173543Y-110754406D01*
X122208126Y-110845593D01*
X122227517Y-110896723D01*
X122228701Y-110899843D01*
X122248035Y-110927853D01*
X122317058Y-111027849D01*
X122317060Y-111027851D01*
X122317062Y-111027853D01*
X122433480Y-111130991D01*
X122433482Y-111130992D01*
X122571208Y-111203276D01*
X122722229Y-111240500D01*
X122722230Y-111240500D01*
X122877770Y-111240500D01*
X122877771Y-111240500D01*
X123028792Y-111203276D01*
X123166518Y-111130992D01*
X123282942Y-111027849D01*
X123371300Y-110899841D01*
X123426456Y-110754407D01*
X123445204Y-110600000D01*
X123426456Y-110445593D01*
X123371300Y-110300159D01*
X123371080Y-110299841D01*
X123315285Y-110219008D01*
X123282942Y-110172151D01*
X123282939Y-110172148D01*
X123282937Y-110172146D01*
X123166519Y-110069008D01*
X123028790Y-109996723D01*
X122916342Y-109969007D01*
X122877771Y-109959500D01*
X122722229Y-109959500D01*
X122685005Y-109968674D01*
X122571209Y-109996723D01*
X122433480Y-110069008D01*
X122317062Y-110172146D01*
X122317056Y-110172153D01*
X122228701Y-110300156D01*
X122173543Y-110445593D01*
X122154796Y-110600000D01*
X107133062Y-110600000D01*
X107145204Y-110500000D01*
X107126456Y-110345593D01*
X107071300Y-110200159D01*
X106982942Y-110072151D01*
X106982939Y-110072148D01*
X106982937Y-110072146D01*
X106866519Y-109969008D01*
X106728790Y-109896723D01*
X106627169Y-109871675D01*
X106577771Y-109859500D01*
X106422229Y-109859500D01*
X106385006Y-109868674D01*
X106271209Y-109896723D01*
X106133480Y-109969008D01*
X106017062Y-110072146D01*
X106017056Y-110072153D01*
X105928701Y-110200156D01*
X105873543Y-110345593D01*
X105854796Y-110500000D01*
X100401501Y-110500000D01*
X100482942Y-110427849D01*
X100571300Y-110299841D01*
X100626456Y-110154407D01*
X100645204Y-110000000D01*
X100626456Y-109845593D01*
X100571300Y-109700159D01*
X100482942Y-109572151D01*
X100482939Y-109572148D01*
X100482937Y-109572146D01*
X100366519Y-109469008D01*
X100228790Y-109396723D01*
X100127169Y-109371675D01*
X100077771Y-109359500D01*
X99922229Y-109359500D01*
X99885006Y-109368674D01*
X99771209Y-109396723D01*
X99633480Y-109469008D01*
X99517062Y-109572146D01*
X99517056Y-109572153D01*
X99428701Y-109700156D01*
X99373543Y-109845593D01*
X99354796Y-110000000D01*
X90437190Y-110000000D01*
X90559989Y-109923966D01*
X90709342Y-109787813D01*
X90831134Y-109626534D01*
X90921217Y-109445622D01*
X90976525Y-109251237D01*
X90995172Y-109050000D01*
X90990539Y-109000000D01*
X108854796Y-109000000D01*
X108873543Y-109154406D01*
X108910267Y-109251237D01*
X108928700Y-109299841D01*
X109017058Y-109427849D01*
X109017060Y-109427851D01*
X109017062Y-109427853D01*
X109133480Y-109530991D01*
X109133482Y-109530992D01*
X109271208Y-109603276D01*
X109422229Y-109640500D01*
X109422230Y-109640500D01*
X109577770Y-109640500D01*
X109577771Y-109640500D01*
X109728792Y-109603276D01*
X109866518Y-109530992D01*
X109901501Y-109500000D01*
X139854796Y-109500000D01*
X139873543Y-109654406D01*
X139890894Y-109700156D01*
X139928700Y-109799841D01*
X140017058Y-109927849D01*
X140017060Y-109927851D01*
X140017062Y-109927853D01*
X140133480Y-110030991D01*
X140133482Y-110030992D01*
X140271208Y-110103276D01*
X140422229Y-110140500D01*
X140422230Y-110140500D01*
X140577770Y-110140500D01*
X140577771Y-110140500D01*
X140728792Y-110103276D01*
X140866518Y-110030992D01*
X140982942Y-109927849D01*
X141071300Y-109799841D01*
X141126456Y-109654407D01*
X141145204Y-109500000D01*
X141126456Y-109345593D01*
X141071300Y-109200159D01*
X140982942Y-109072151D01*
X140982939Y-109072148D01*
X140982937Y-109072146D01*
X140866519Y-108969008D01*
X140728790Y-108896723D01*
X140627169Y-108871675D01*
X140577771Y-108859500D01*
X140422229Y-108859500D01*
X140385006Y-108868674D01*
X140271209Y-108896723D01*
X140133480Y-108969008D01*
X140017062Y-109072146D01*
X140017056Y-109072153D01*
X139928701Y-109200156D01*
X139873543Y-109345593D01*
X139854796Y-109500000D01*
X109901501Y-109500000D01*
X109982942Y-109427849D01*
X110071300Y-109299841D01*
X110126456Y-109154407D01*
X110145204Y-109000000D01*
X110126456Y-108845593D01*
X110071300Y-108700159D01*
X109982942Y-108572151D01*
X109982939Y-108572148D01*
X109982937Y-108572146D01*
X109866519Y-108469008D01*
X109728790Y-108396723D01*
X109627169Y-108371675D01*
X109577771Y-108359500D01*
X109422229Y-108359500D01*
X109385006Y-108368674D01*
X109271209Y-108396723D01*
X109133480Y-108469008D01*
X109017062Y-108572146D01*
X109017056Y-108572153D01*
X108928701Y-108700156D01*
X108873543Y-108845593D01*
X108854796Y-109000000D01*
X90990539Y-109000000D01*
X90976525Y-108848763D01*
X90921217Y-108654378D01*
X90895771Y-108603276D01*
X90835806Y-108482849D01*
X90831134Y-108473466D01*
X90709342Y-108312187D01*
X90709340Y-108312184D01*
X90559989Y-108176034D01*
X90559987Y-108176032D01*
X90388163Y-108069643D01*
X90388157Y-108069640D01*
X90350367Y-108055000D01*
X99299796Y-108055000D01*
X99318543Y-108209406D01*
X99352841Y-108299841D01*
X99373700Y-108354841D01*
X99462058Y-108482849D01*
X99462060Y-108482851D01*
X99462062Y-108482853D01*
X99578480Y-108585991D01*
X99578482Y-108585992D01*
X99716208Y-108658276D01*
X99867229Y-108695500D01*
X99867230Y-108695500D01*
X100022770Y-108695500D01*
X100022771Y-108695500D01*
X100173792Y-108658276D01*
X100311518Y-108585992D01*
X100427942Y-108482849D01*
X100516300Y-108354841D01*
X100571456Y-108209407D01*
X100590204Y-108055000D01*
X100583526Y-108000000D01*
X118854796Y-108000000D01*
X118873543Y-108154406D01*
X118928701Y-108299843D01*
X118937222Y-108312187D01*
X119017058Y-108427849D01*
X119017060Y-108427851D01*
X119017062Y-108427853D01*
X119133480Y-108530991D01*
X119133482Y-108530992D01*
X119271208Y-108603276D01*
X119422229Y-108640500D01*
X119422230Y-108640500D01*
X119577770Y-108640500D01*
X119577771Y-108640500D01*
X119728792Y-108603276D01*
X119866518Y-108530992D01*
X119982942Y-108427849D01*
X120071300Y-108299841D01*
X120126456Y-108154407D01*
X120145204Y-108000000D01*
X120126456Y-107845593D01*
X120071300Y-107700159D01*
X119982942Y-107572151D01*
X119982939Y-107572148D01*
X119982937Y-107572146D01*
X119866519Y-107469008D01*
X119728790Y-107396723D01*
X119627169Y-107371675D01*
X119577771Y-107359500D01*
X119422229Y-107359500D01*
X119385005Y-107368674D01*
X119271209Y-107396723D01*
X119133480Y-107469008D01*
X119017062Y-107572146D01*
X119017056Y-107572153D01*
X118928701Y-107700156D01*
X118873543Y-107845593D01*
X118854796Y-108000000D01*
X100583526Y-108000000D01*
X100571456Y-107900593D01*
X100516300Y-107755159D01*
X100427942Y-107627151D01*
X100427939Y-107627148D01*
X100427937Y-107627146D01*
X100311519Y-107524008D01*
X100173790Y-107451723D01*
X100072169Y-107426675D01*
X100022771Y-107414500D01*
X99867229Y-107414500D01*
X99830006Y-107423674D01*
X99716209Y-107451723D01*
X99578480Y-107524008D01*
X99462062Y-107627146D01*
X99462056Y-107627153D01*
X99373701Y-107755156D01*
X99318543Y-107900593D01*
X99299796Y-108055000D01*
X90350367Y-108055000D01*
X90208394Y-108000000D01*
X90199708Y-107996635D01*
X90001050Y-107959500D01*
X89798950Y-107959500D01*
X89600292Y-107996635D01*
X89600289Y-107996635D01*
X89600289Y-107996636D01*
X89411842Y-108069640D01*
X89411836Y-108069643D01*
X89240012Y-108176032D01*
X89240010Y-108176034D01*
X89090659Y-108312184D01*
X88968866Y-108473465D01*
X88878787Y-108654367D01*
X88878782Y-108654380D01*
X88823474Y-108848763D01*
X88804828Y-109049999D01*
X88804828Y-109050000D01*
X85500500Y-109050000D01*
X85500500Y-106510000D01*
X88804828Y-106510000D01*
X88823474Y-106711236D01*
X88878782Y-106905619D01*
X88878787Y-106905632D01*
X88968866Y-107086534D01*
X89090659Y-107247815D01*
X89240010Y-107383965D01*
X89240012Y-107383967D01*
X89411836Y-107490356D01*
X89411842Y-107490359D01*
X89451764Y-107505824D01*
X89600292Y-107563365D01*
X89798950Y-107600500D01*
X89798953Y-107600500D01*
X90001047Y-107600500D01*
X90001050Y-107600500D01*
X90199708Y-107563365D01*
X90388160Y-107490358D01*
X90559989Y-107383966D01*
X90709342Y-107247813D01*
X90725209Y-107226802D01*
X139627994Y-107226802D01*
X139646741Y-107381208D01*
X139701899Y-107526645D01*
X139733310Y-107572151D01*
X139790256Y-107654651D01*
X139790258Y-107654653D01*
X139790260Y-107654655D01*
X139906678Y-107757793D01*
X139906680Y-107757794D01*
X140044406Y-107830078D01*
X140195427Y-107867302D01*
X140195428Y-107867302D01*
X140350968Y-107867302D01*
X140350969Y-107867302D01*
X140501990Y-107830078D01*
X140639716Y-107757794D01*
X140756140Y-107654651D01*
X140844498Y-107526643D01*
X140899654Y-107381209D01*
X140918402Y-107226802D01*
X140899654Y-107072395D01*
X140844498Y-106926961D01*
X140777571Y-106830001D01*
X152677109Y-106830001D01*
X152696636Y-107053200D01*
X152696637Y-107053208D01*
X152754626Y-107269625D01*
X152754627Y-107269627D01*
X152754628Y-107269630D01*
X152813893Y-107396723D01*
X152849318Y-107472693D01*
X152849319Y-107472695D01*
X152977834Y-107656235D01*
X153136264Y-107814665D01*
X153136267Y-107814667D01*
X153319805Y-107943181D01*
X153522870Y-108037872D01*
X153739294Y-108095863D01*
X153906596Y-108110500D01*
X155538404Y-108110500D01*
X155705706Y-108095863D01*
X155922130Y-108037872D01*
X156125195Y-107943181D01*
X156308733Y-107814667D01*
X156467167Y-107656233D01*
X156595681Y-107472696D01*
X156690372Y-107269630D01*
X156748363Y-107053206D01*
X156767891Y-106830000D01*
X156748363Y-106606794D01*
X156690372Y-106390370D01*
X156595681Y-106187305D01*
X156499457Y-106049882D01*
X156467165Y-106003764D01*
X156308735Y-105845334D01*
X156125195Y-105716819D01*
X156125193Y-105716818D01*
X156071726Y-105691886D01*
X155922130Y-105622128D01*
X155922127Y-105622127D01*
X155922125Y-105622126D01*
X155705708Y-105564137D01*
X155705701Y-105564136D01*
X155538404Y-105549500D01*
X153906596Y-105549500D01*
X153739298Y-105564136D01*
X153739291Y-105564137D01*
X153522874Y-105622126D01*
X153522868Y-105622129D01*
X153319806Y-105716818D01*
X153319804Y-105716819D01*
X153136268Y-105845331D01*
X152977829Y-106003771D01*
X152849321Y-106187299D01*
X152849319Y-106187303D01*
X152754629Y-106390368D01*
X152754626Y-106390374D01*
X152696637Y-106606791D01*
X152696636Y-106606799D01*
X152677109Y-106829998D01*
X152677109Y-106830001D01*
X140777571Y-106830001D01*
X140756140Y-106798953D01*
X140756137Y-106798950D01*
X140756135Y-106798948D01*
X140639717Y-106695810D01*
X140501988Y-106623525D01*
X140400367Y-106598477D01*
X140350969Y-106586302D01*
X140195427Y-106586302D01*
X140158203Y-106595476D01*
X140044407Y-106623525D01*
X139906678Y-106695810D01*
X139790260Y-106798948D01*
X139790254Y-106798955D01*
X139701899Y-106926958D01*
X139646741Y-107072395D01*
X139627994Y-107226802D01*
X90725209Y-107226802D01*
X90831134Y-107086534D01*
X90921217Y-106905622D01*
X90976525Y-106711237D01*
X90995172Y-106510000D01*
X90987559Y-106427846D01*
X90976525Y-106308763D01*
X90941967Y-106187306D01*
X90921217Y-106114378D01*
X90831134Y-105933466D01*
X90709342Y-105772187D01*
X90709340Y-105772184D01*
X90559989Y-105636034D01*
X90559987Y-105636032D01*
X90388163Y-105529643D01*
X90388157Y-105529640D01*
X90231646Y-105469008D01*
X90199708Y-105456635D01*
X90001050Y-105419500D01*
X89798950Y-105419500D01*
X89600292Y-105456635D01*
X89600289Y-105456635D01*
X89600289Y-105456636D01*
X89411842Y-105529640D01*
X89411836Y-105529643D01*
X89240012Y-105636032D01*
X89240010Y-105636034D01*
X89090659Y-105772184D01*
X88968866Y-105933465D01*
X88878787Y-106114367D01*
X88878782Y-106114380D01*
X88823474Y-106308763D01*
X88804828Y-106509999D01*
X88804828Y-106510000D01*
X85500500Y-106510000D01*
X85500500Y-105392044D01*
X106272147Y-105392044D01*
X106290894Y-105546451D01*
X106324868Y-105636032D01*
X106346051Y-105691886D01*
X106434409Y-105819894D01*
X106434411Y-105819896D01*
X106434413Y-105819898D01*
X106550831Y-105923036D01*
X106550833Y-105923037D01*
X106688559Y-105995321D01*
X106839580Y-106032545D01*
X106839581Y-106032545D01*
X106995121Y-106032545D01*
X106995122Y-106032545D01*
X107127160Y-106000000D01*
X114354796Y-106000000D01*
X114373543Y-106154406D01*
X114386021Y-106187306D01*
X114428700Y-106299841D01*
X114517058Y-106427849D01*
X114517060Y-106427851D01*
X114517062Y-106427853D01*
X114633480Y-106530991D01*
X114633482Y-106530992D01*
X114771208Y-106603276D01*
X114922229Y-106640500D01*
X114922230Y-106640500D01*
X115077770Y-106640500D01*
X115077771Y-106640500D01*
X115228792Y-106603276D01*
X115366518Y-106530992D01*
X115482942Y-106427849D01*
X115571300Y-106299841D01*
X115626456Y-106154407D01*
X115645204Y-106000000D01*
X115626456Y-105845593D01*
X115571300Y-105700159D01*
X115482942Y-105572151D01*
X115482939Y-105572148D01*
X115482937Y-105572146D01*
X115366519Y-105469008D01*
X115228790Y-105396723D01*
X115127169Y-105371675D01*
X115077771Y-105359500D01*
X114922229Y-105359500D01*
X114885006Y-105368674D01*
X114771209Y-105396723D01*
X114633480Y-105469008D01*
X114517062Y-105572146D01*
X114517056Y-105572153D01*
X114428701Y-105700156D01*
X114373543Y-105845593D01*
X114354796Y-106000000D01*
X107127160Y-106000000D01*
X107146143Y-105995321D01*
X107283869Y-105923037D01*
X107400293Y-105819894D01*
X107488651Y-105691886D01*
X107543807Y-105546452D01*
X107562555Y-105392045D01*
X107543807Y-105237638D01*
X107488651Y-105092204D01*
X107400293Y-104964196D01*
X107400290Y-104964193D01*
X107400288Y-104964191D01*
X107283870Y-104861053D01*
X107146141Y-104788768D01*
X107044520Y-104763720D01*
X106995122Y-104751545D01*
X106839580Y-104751545D01*
X106802356Y-104760719D01*
X106688560Y-104788768D01*
X106550831Y-104861053D01*
X106434413Y-104964191D01*
X106434407Y-104964198D01*
X106346052Y-105092201D01*
X106290894Y-105237638D01*
X106272147Y-105392044D01*
X85500500Y-105392044D01*
X85500500Y-103970000D01*
X88804828Y-103970000D01*
X88823474Y-104171236D01*
X88878782Y-104365619D01*
X88878787Y-104365632D01*
X88968866Y-104546534D01*
X89090659Y-104707815D01*
X89240010Y-104843965D01*
X89240012Y-104843967D01*
X89411836Y-104950356D01*
X89411842Y-104950359D01*
X89447547Y-104964191D01*
X89600292Y-105023365D01*
X89798950Y-105060500D01*
X89798953Y-105060500D01*
X90001047Y-105060500D01*
X90001050Y-105060500D01*
X90199708Y-105023365D01*
X90388160Y-104950358D01*
X90559989Y-104843966D01*
X90709342Y-104707813D01*
X90831134Y-104546534D01*
X90854305Y-104500000D01*
X142404828Y-104500000D01*
X142423474Y-104701236D01*
X142478782Y-104895619D01*
X142478787Y-104895632D01*
X142568866Y-105076534D01*
X142690659Y-105237815D01*
X142828792Y-105363739D01*
X142839710Y-105373692D01*
X142840010Y-105373965D01*
X142840012Y-105373967D01*
X143011836Y-105480356D01*
X143011842Y-105480359D01*
X143051764Y-105495824D01*
X143200292Y-105553365D01*
X143398950Y-105590500D01*
X143398953Y-105590500D01*
X143601047Y-105590500D01*
X143601050Y-105590500D01*
X143799708Y-105553365D01*
X143988160Y-105480358D01*
X144159989Y-105373966D01*
X144309342Y-105237813D01*
X144431134Y-105076534D01*
X144521217Y-104895622D01*
X144576525Y-104701237D01*
X144595172Y-104500000D01*
X144944828Y-104500000D01*
X144963474Y-104701236D01*
X145018782Y-104895619D01*
X145018787Y-104895632D01*
X145108866Y-105076534D01*
X145230659Y-105237815D01*
X145368792Y-105363739D01*
X145379710Y-105373692D01*
X145380010Y-105373965D01*
X145380012Y-105373967D01*
X145551836Y-105480356D01*
X145551842Y-105480359D01*
X145591764Y-105495824D01*
X145740292Y-105553365D01*
X145938950Y-105590500D01*
X145938953Y-105590500D01*
X146141047Y-105590500D01*
X146141050Y-105590500D01*
X146339708Y-105553365D01*
X146528160Y-105480358D01*
X146699989Y-105373966D01*
X146700290Y-105373692D01*
X147489500Y-105373692D01*
X147503452Y-105443834D01*
X147503453Y-105443837D01*
X147503454Y-105443839D01*
X147556609Y-105523391D01*
X147636161Y-105576546D01*
X147636164Y-105576546D01*
X147636165Y-105576547D01*
X147706307Y-105590499D01*
X147706310Y-105590500D01*
X147706312Y-105590500D01*
X149453690Y-105590500D01*
X149453691Y-105590499D01*
X149523839Y-105576546D01*
X149603391Y-105523391D01*
X149656546Y-105443839D01*
X149670500Y-105373688D01*
X149670500Y-103626312D01*
X149670500Y-103626309D01*
X149670499Y-103626307D01*
X149656547Y-103556165D01*
X149656546Y-103556164D01*
X149656546Y-103556161D01*
X149603391Y-103476609D01*
X149523839Y-103423454D01*
X149523837Y-103423453D01*
X149523834Y-103423452D01*
X149453691Y-103409500D01*
X149453688Y-103409500D01*
X147706312Y-103409500D01*
X147706309Y-103409500D01*
X147636165Y-103423452D01*
X147636161Y-103423454D01*
X147556609Y-103476609D01*
X147503454Y-103556161D01*
X147503452Y-103556165D01*
X147489500Y-103626307D01*
X147489500Y-105373692D01*
X146700290Y-105373692D01*
X146849342Y-105237813D01*
X146971134Y-105076534D01*
X147061217Y-104895622D01*
X147116525Y-104701237D01*
X147135172Y-104500000D01*
X147116525Y-104298763D01*
X147061217Y-104104378D01*
X147057317Y-104096546D01*
X146994305Y-103970000D01*
X146971134Y-103923466D01*
X146849342Y-103762187D01*
X146849340Y-103762184D01*
X146699989Y-103626034D01*
X146699987Y-103626032D01*
X146528163Y-103519643D01*
X146528157Y-103519640D01*
X146379632Y-103462101D01*
X146339708Y-103446635D01*
X146141050Y-103409500D01*
X145938950Y-103409500D01*
X145740292Y-103446635D01*
X145740289Y-103446635D01*
X145740289Y-103446636D01*
X145551842Y-103519640D01*
X145551836Y-103519643D01*
X145380012Y-103626032D01*
X145380010Y-103626034D01*
X145230659Y-103762184D01*
X145108866Y-103923465D01*
X145018787Y-104104367D01*
X145018782Y-104104380D01*
X144963474Y-104298763D01*
X144944828Y-104499999D01*
X144944828Y-104500000D01*
X144595172Y-104500000D01*
X144576525Y-104298763D01*
X144521217Y-104104378D01*
X144517317Y-104096546D01*
X144454305Y-103970000D01*
X144431134Y-103923466D01*
X144309342Y-103762187D01*
X144309340Y-103762184D01*
X144159989Y-103626034D01*
X144159987Y-103626032D01*
X143988163Y-103519643D01*
X143988157Y-103519640D01*
X143839632Y-103462101D01*
X143799708Y-103446635D01*
X143601050Y-103409500D01*
X143398950Y-103409500D01*
X143200292Y-103446635D01*
X143200289Y-103446635D01*
X143200289Y-103446636D01*
X143011842Y-103519640D01*
X143011836Y-103519643D01*
X142840012Y-103626032D01*
X142840010Y-103626034D01*
X142690659Y-103762184D01*
X142568866Y-103923465D01*
X142478787Y-104104367D01*
X142478782Y-104104380D01*
X142423474Y-104298763D01*
X142404828Y-104499999D01*
X142404828Y-104500000D01*
X90854305Y-104500000D01*
X90921217Y-104365622D01*
X90976525Y-104171237D01*
X90995172Y-103970000D01*
X90988126Y-103893965D01*
X90988101Y-103893692D01*
X126065500Y-103893692D01*
X126079452Y-103963834D01*
X126079453Y-103963837D01*
X126079454Y-103963839D01*
X126132609Y-104043391D01*
X126212161Y-104096546D01*
X126212164Y-104096546D01*
X126212165Y-104096547D01*
X126282307Y-104110499D01*
X126282310Y-104110500D01*
X126282312Y-104110500D01*
X128029690Y-104110500D01*
X128029691Y-104110499D01*
X128099839Y-104096546D01*
X128179391Y-104043391D01*
X128232546Y-103963839D01*
X128246500Y-103893688D01*
X128246500Y-103665235D01*
X128266185Y-103598197D01*
X128318989Y-103552442D01*
X128388147Y-103542498D01*
X128451703Y-103571523D01*
X128482882Y-103612832D01*
X128522398Y-103697575D01*
X128522399Y-103697577D01*
X128657894Y-103891082D01*
X128824917Y-104058105D01*
X129018421Y-104193600D01*
X129232507Y-104293429D01*
X129232516Y-104293433D01*
X129446000Y-104350634D01*
X129446000Y-103632301D01*
X129465685Y-103565262D01*
X129518489Y-103519507D01*
X129587647Y-103509563D01*
X129660237Y-103520000D01*
X129660238Y-103520000D01*
X129731762Y-103520000D01*
X129731763Y-103520000D01*
X129804353Y-103509563D01*
X129873512Y-103519507D01*
X129926315Y-103565262D01*
X129946000Y-103632301D01*
X129946000Y-104350633D01*
X130159483Y-104293433D01*
X130159492Y-104293429D01*
X130373578Y-104193600D01*
X130567082Y-104058105D01*
X130734105Y-103891082D01*
X130869600Y-103697578D01*
X130969429Y-103483492D01*
X130969433Y-103483483D01*
X130982316Y-103435404D01*
X131018681Y-103375743D01*
X131081528Y-103345214D01*
X131150903Y-103353509D01*
X131204781Y-103397994D01*
X131213091Y-103412225D01*
X131304866Y-103596534D01*
X131426659Y-103757815D01*
X131564792Y-103883739D01*
X131575710Y-103893692D01*
X131576010Y-103893965D01*
X131576012Y-103893967D01*
X131747836Y-104000356D01*
X131747842Y-104000359D01*
X131787764Y-104015824D01*
X131936292Y-104073365D01*
X132134950Y-104110500D01*
X132134953Y-104110500D01*
X132337047Y-104110500D01*
X132337050Y-104110500D01*
X132535708Y-104073365D01*
X132724160Y-104000358D01*
X132895989Y-103893966D01*
X133045342Y-103757813D01*
X133167134Y-103596534D01*
X133257217Y-103415622D01*
X133312525Y-103221237D01*
X133331172Y-103020000D01*
X133312525Y-102818763D01*
X133257217Y-102624378D01*
X133255134Y-102620195D01*
X133182705Y-102474737D01*
X133167134Y-102443466D01*
X133045342Y-102282187D01*
X133045340Y-102282184D01*
X132895989Y-102146034D01*
X132895987Y-102146032D01*
X132724163Y-102039643D01*
X132724157Y-102039640D01*
X132575075Y-101981886D01*
X132535708Y-101966635D01*
X132337050Y-101929500D01*
X132134950Y-101929500D01*
X131936292Y-101966635D01*
X131936289Y-101966635D01*
X131936289Y-101966636D01*
X131747842Y-102039640D01*
X131747836Y-102039643D01*
X131576012Y-102146032D01*
X131576010Y-102146034D01*
X131426659Y-102282184D01*
X131304866Y-102443465D01*
X131213091Y-102627774D01*
X131165588Y-102679011D01*
X131097925Y-102696432D01*
X131031585Y-102674506D01*
X130987630Y-102620195D01*
X130982316Y-102604596D01*
X130969432Y-102556513D01*
X130969429Y-102556507D01*
X130869600Y-102342422D01*
X130869599Y-102342420D01*
X130734113Y-102148926D01*
X130734108Y-102148920D01*
X130567082Y-101981894D01*
X130373578Y-101846399D01*
X130159492Y-101746570D01*
X130159486Y-101746567D01*
X129946000Y-101689364D01*
X129946000Y-102407698D01*
X129926315Y-102474737D01*
X129873511Y-102520492D01*
X129804355Y-102530436D01*
X129731766Y-102520000D01*
X129731763Y-102520000D01*
X129660237Y-102520000D01*
X129660233Y-102520000D01*
X129587645Y-102530436D01*
X129518487Y-102520492D01*
X129465684Y-102474736D01*
X129446000Y-102407698D01*
X129446000Y-101689364D01*
X129445999Y-101689364D01*
X129232513Y-101746567D01*
X129232507Y-101746570D01*
X129018422Y-101846399D01*
X129018420Y-101846400D01*
X128824926Y-101981886D01*
X128824920Y-101981891D01*
X128657891Y-102148920D01*
X128657886Y-102148926D01*
X128522400Y-102342420D01*
X128522399Y-102342422D01*
X128482882Y-102427168D01*
X128436710Y-102479607D01*
X128369516Y-102498759D01*
X128302635Y-102478543D01*
X128257300Y-102425378D01*
X128246500Y-102374763D01*
X128246500Y-102146309D01*
X128246499Y-102146307D01*
X128232547Y-102076165D01*
X128232546Y-102076164D01*
X128232546Y-102076161D01*
X128179391Y-101996609D01*
X128099839Y-101943454D01*
X128099837Y-101943453D01*
X128099834Y-101943452D01*
X128029691Y-101929500D01*
X128029688Y-101929500D01*
X126282312Y-101929500D01*
X126282309Y-101929500D01*
X126212165Y-101943452D01*
X126212161Y-101943454D01*
X126132609Y-101996609D01*
X126079454Y-102076161D01*
X126079452Y-102076165D01*
X126065500Y-102146307D01*
X126065500Y-103893692D01*
X90988101Y-103893692D01*
X90976525Y-103768763D01*
X90956271Y-103697578D01*
X90921217Y-103574378D01*
X90919795Y-103571523D01*
X90856771Y-103444952D01*
X90831134Y-103393466D01*
X90709342Y-103232187D01*
X90709340Y-103232184D01*
X90559989Y-103096034D01*
X90559987Y-103096032D01*
X90388163Y-102989643D01*
X90388157Y-102989640D01*
X90239632Y-102932101D01*
X90199708Y-102916635D01*
X90001050Y-102879500D01*
X89798950Y-102879500D01*
X89600292Y-102916635D01*
X89600289Y-102916635D01*
X89600289Y-102916636D01*
X89411842Y-102989640D01*
X89411836Y-102989643D01*
X89240012Y-103096032D01*
X89240010Y-103096034D01*
X89090659Y-103232184D01*
X88968866Y-103393465D01*
X88878787Y-103574367D01*
X88878782Y-103574380D01*
X88823474Y-103768763D01*
X88804828Y-103969999D01*
X88804828Y-103970000D01*
X85500500Y-103970000D01*
X85500500Y-102000000D01*
X119854796Y-102000000D01*
X119873543Y-102154406D01*
X119928701Y-102299843D01*
X119980415Y-102374763D01*
X120017058Y-102427849D01*
X120017060Y-102427851D01*
X120017062Y-102427853D01*
X120133480Y-102530991D01*
X120133482Y-102530992D01*
X120271208Y-102603276D01*
X120422229Y-102640500D01*
X120422230Y-102640500D01*
X120577770Y-102640500D01*
X120577771Y-102640500D01*
X120728792Y-102603276D01*
X120866518Y-102530992D01*
X120982942Y-102427849D01*
X121071300Y-102299841D01*
X121126456Y-102154407D01*
X121145204Y-102000000D01*
X121126456Y-101845593D01*
X121071300Y-101700159D01*
X120982942Y-101572151D01*
X120982939Y-101572148D01*
X120982937Y-101572146D01*
X120866519Y-101469008D01*
X120728790Y-101396723D01*
X120627169Y-101371675D01*
X120577771Y-101359500D01*
X120422229Y-101359500D01*
X120385006Y-101368674D01*
X120271209Y-101396723D01*
X120133480Y-101469008D01*
X120017062Y-101572146D01*
X120017056Y-101572153D01*
X119928701Y-101700156D01*
X119873543Y-101845593D01*
X119854796Y-102000000D01*
X85500500Y-102000000D01*
X85500500Y-101249999D01*
X117854796Y-101249999D01*
X117873543Y-101404406D01*
X117898044Y-101469008D01*
X117918668Y-101523390D01*
X117928701Y-101549843D01*
X117947133Y-101576546D01*
X118017058Y-101677849D01*
X118017060Y-101677851D01*
X118017062Y-101677853D01*
X118133480Y-101780991D01*
X118133482Y-101780992D01*
X118271208Y-101853276D01*
X118422229Y-101890500D01*
X118422230Y-101890500D01*
X118577770Y-101890500D01*
X118577771Y-101890500D01*
X118728792Y-101853276D01*
X118866518Y-101780992D01*
X118982942Y-101677849D01*
X119071300Y-101549841D01*
X119126456Y-101404407D01*
X119145204Y-101250000D01*
X119126456Y-101095593D01*
X119071300Y-100950159D01*
X118982942Y-100822151D01*
X118982939Y-100822148D01*
X118982937Y-100822146D01*
X118866519Y-100719008D01*
X118728790Y-100646723D01*
X118627169Y-100621675D01*
X118577771Y-100609500D01*
X118422229Y-100609500D01*
X118385005Y-100618674D01*
X118271209Y-100646723D01*
X118133480Y-100719008D01*
X118017062Y-100822146D01*
X118017056Y-100822153D01*
X117928701Y-100950156D01*
X117873543Y-101095593D01*
X117854796Y-101249999D01*
X85500500Y-101249999D01*
X85500500Y-98000000D01*
X87454709Y-98000000D01*
X87473856Y-98340959D01*
X87473858Y-98340971D01*
X87526874Y-98653002D01*
X87531061Y-98677641D01*
X87625601Y-99005796D01*
X87656690Y-99080851D01*
X87756287Y-99321300D01*
X87921480Y-99620196D01*
X87921483Y-99620201D01*
X88119092Y-99898703D01*
X88119096Y-99898708D01*
X88346654Y-100153346D01*
X88601292Y-100380904D01*
X88601295Y-100380906D01*
X88601296Y-100380907D01*
X88879798Y-100578516D01*
X88879803Y-100578519D01*
X88879806Y-100578520D01*
X88879808Y-100578522D01*
X89178698Y-100743712D01*
X89494204Y-100874399D01*
X89822359Y-100968939D01*
X90159036Y-101026143D01*
X90500000Y-101045291D01*
X90840964Y-101026143D01*
X91177641Y-100968939D01*
X91505796Y-100874399D01*
X91821302Y-100743712D01*
X92120192Y-100578522D01*
X92120197Y-100578518D01*
X92120201Y-100578516D01*
X92235310Y-100496840D01*
X92398708Y-100380904D01*
X92653346Y-100153346D01*
X92790384Y-100000000D01*
X105354796Y-100000000D01*
X105373543Y-100154406D01*
X105413252Y-100259109D01*
X105428700Y-100299841D01*
X105517058Y-100427849D01*
X105517060Y-100427851D01*
X105517062Y-100427853D01*
X105633480Y-100530991D01*
X105633482Y-100530992D01*
X105771208Y-100603276D01*
X105922229Y-100640500D01*
X105922230Y-100640500D01*
X106077770Y-100640500D01*
X106077771Y-100640500D01*
X106228792Y-100603276D01*
X106366518Y-100530992D01*
X106401501Y-100500000D01*
X142349828Y-100500000D01*
X142368474Y-100701236D01*
X142423782Y-100895619D01*
X142423787Y-100895632D01*
X142513866Y-101076534D01*
X142635659Y-101237815D01*
X142773792Y-101363739D01*
X142784710Y-101373692D01*
X142785010Y-101373965D01*
X142785012Y-101373967D01*
X142956836Y-101480356D01*
X142956842Y-101480359D01*
X142996764Y-101495824D01*
X143145292Y-101553365D01*
X143343950Y-101590500D01*
X143343953Y-101590500D01*
X143546047Y-101590500D01*
X143546050Y-101590500D01*
X143744708Y-101553365D01*
X143933160Y-101480358D01*
X144104989Y-101373966D01*
X144231905Y-101258266D01*
X144254340Y-101237815D01*
X144254342Y-101237813D01*
X144376134Y-101076534D01*
X144466217Y-100895622D01*
X144521525Y-100701237D01*
X144540172Y-100500000D01*
X144889828Y-100500000D01*
X144908474Y-100701236D01*
X144963782Y-100895619D01*
X144963787Y-100895632D01*
X145053866Y-101076534D01*
X145175659Y-101237815D01*
X145313792Y-101363739D01*
X145324710Y-101373692D01*
X145325010Y-101373965D01*
X145325012Y-101373967D01*
X145496836Y-101480356D01*
X145496842Y-101480359D01*
X145536764Y-101495824D01*
X145685292Y-101553365D01*
X145883950Y-101590500D01*
X145883953Y-101590500D01*
X146086047Y-101590500D01*
X146086050Y-101590500D01*
X146284708Y-101553365D01*
X146473160Y-101480358D01*
X146644989Y-101373966D01*
X146645290Y-101373692D01*
X147434500Y-101373692D01*
X147448452Y-101443834D01*
X147448453Y-101443837D01*
X147448454Y-101443839D01*
X147501609Y-101523391D01*
X147581161Y-101576546D01*
X147581164Y-101576546D01*
X147581165Y-101576547D01*
X147651307Y-101590499D01*
X147651310Y-101590500D01*
X147651312Y-101590500D01*
X149398690Y-101590500D01*
X149398691Y-101590499D01*
X149468839Y-101576546D01*
X149548391Y-101523391D01*
X149601546Y-101443839D01*
X149615500Y-101373688D01*
X149615500Y-99626312D01*
X149615500Y-99626311D01*
X149615500Y-99626309D01*
X149615499Y-99626307D01*
X149601547Y-99556165D01*
X149601546Y-99556164D01*
X149601546Y-99556161D01*
X149548391Y-99476609D01*
X149468839Y-99423454D01*
X149468837Y-99423453D01*
X149468834Y-99423452D01*
X149398691Y-99409500D01*
X149398688Y-99409500D01*
X147651312Y-99409500D01*
X147651309Y-99409500D01*
X147581165Y-99423452D01*
X147581161Y-99423454D01*
X147501609Y-99476609D01*
X147448454Y-99556161D01*
X147448452Y-99556165D01*
X147434500Y-99626307D01*
X147434500Y-101373692D01*
X146645290Y-101373692D01*
X146771905Y-101258266D01*
X146794340Y-101237815D01*
X146794342Y-101237813D01*
X146916134Y-101076534D01*
X147006217Y-100895622D01*
X147061525Y-100701237D01*
X147080172Y-100500000D01*
X147061525Y-100298763D01*
X147006217Y-100104378D01*
X146916134Y-99923466D01*
X146794342Y-99762187D01*
X146794340Y-99762184D01*
X146644989Y-99626034D01*
X146644987Y-99626032D01*
X146473163Y-99519643D01*
X146473157Y-99519640D01*
X146324632Y-99462101D01*
X146284708Y-99446635D01*
X146086050Y-99409500D01*
X145883950Y-99409500D01*
X145685292Y-99446635D01*
X145685289Y-99446635D01*
X145685289Y-99446636D01*
X145496842Y-99519640D01*
X145496836Y-99519643D01*
X145325012Y-99626032D01*
X145325010Y-99626034D01*
X145175659Y-99762184D01*
X145053866Y-99923465D01*
X144963787Y-100104367D01*
X144963782Y-100104380D01*
X144908474Y-100298763D01*
X144889828Y-100499999D01*
X144889828Y-100500000D01*
X144540172Y-100500000D01*
X144521525Y-100298763D01*
X144466217Y-100104378D01*
X144376134Y-99923466D01*
X144254342Y-99762187D01*
X144254340Y-99762184D01*
X144104989Y-99626034D01*
X144104987Y-99626032D01*
X143933163Y-99519643D01*
X143933157Y-99519640D01*
X143784632Y-99462101D01*
X143744708Y-99446635D01*
X143546050Y-99409500D01*
X143343950Y-99409500D01*
X143145292Y-99446635D01*
X143145289Y-99446635D01*
X143145289Y-99446636D01*
X142956842Y-99519640D01*
X142956836Y-99519643D01*
X142785012Y-99626032D01*
X142785010Y-99626034D01*
X142635659Y-99762184D01*
X142513866Y-99923465D01*
X142423787Y-100104367D01*
X142423782Y-100104380D01*
X142368474Y-100298763D01*
X142349828Y-100499999D01*
X142349828Y-100500000D01*
X106401501Y-100500000D01*
X106482942Y-100427849D01*
X106571300Y-100299841D01*
X106626456Y-100154407D01*
X106645204Y-100000000D01*
X106626456Y-99845593D01*
X106571300Y-99700159D01*
X106482942Y-99572151D01*
X106482939Y-99572148D01*
X106482937Y-99572146D01*
X106366519Y-99469008D01*
X106228790Y-99396723D01*
X106127169Y-99371675D01*
X106077771Y-99359500D01*
X105922229Y-99359500D01*
X105885006Y-99368674D01*
X105771209Y-99396723D01*
X105633480Y-99469008D01*
X105517062Y-99572146D01*
X105517056Y-99572153D01*
X105428701Y-99700156D01*
X105373543Y-99845593D01*
X105354796Y-100000000D01*
X92790384Y-100000000D01*
X92880904Y-99898708D01*
X93021782Y-99700159D01*
X93078516Y-99620201D01*
X93078519Y-99620196D01*
X93078522Y-99620192D01*
X93243712Y-99321302D01*
X93343311Y-99080850D01*
X125773945Y-99080850D01*
X125792692Y-99235257D01*
X125847850Y-99380694D01*
X125893366Y-99446635D01*
X125936207Y-99508700D01*
X125936209Y-99508702D01*
X125936211Y-99508704D01*
X126052629Y-99611842D01*
X126052631Y-99611843D01*
X126190357Y-99684127D01*
X126341378Y-99721351D01*
X126341379Y-99721351D01*
X126496919Y-99721351D01*
X126496920Y-99721351D01*
X126647941Y-99684127D01*
X126785667Y-99611843D01*
X126902091Y-99508700D01*
X126990449Y-99380692D01*
X127045605Y-99235258D01*
X127064353Y-99080851D01*
X127045605Y-98926444D01*
X126990449Y-98781010D01*
X126902091Y-98653002D01*
X126902088Y-98652999D01*
X126902086Y-98652997D01*
X126785668Y-98549859D01*
X126647939Y-98477574D01*
X126546318Y-98452526D01*
X126496920Y-98440351D01*
X126341378Y-98440351D01*
X126304154Y-98449525D01*
X126190358Y-98477574D01*
X126052629Y-98549859D01*
X125936211Y-98652997D01*
X125936205Y-98653004D01*
X125847850Y-98781007D01*
X125792692Y-98926444D01*
X125773945Y-99080850D01*
X93343311Y-99080850D01*
X93374399Y-99005796D01*
X93468939Y-98677641D01*
X93526143Y-98340964D01*
X93545291Y-98000000D01*
X108354796Y-98000000D01*
X108373543Y-98154406D01*
X108413252Y-98259109D01*
X108420521Y-98278276D01*
X108428701Y-98299843D01*
X108457082Y-98340959D01*
X108517058Y-98427849D01*
X108517060Y-98427851D01*
X108517062Y-98427853D01*
X108633480Y-98530991D01*
X108633482Y-98530992D01*
X108771208Y-98603276D01*
X108922229Y-98640500D01*
X108922230Y-98640500D01*
X109077770Y-98640500D01*
X109077771Y-98640500D01*
X109228792Y-98603276D01*
X109366518Y-98530992D01*
X109482942Y-98427849D01*
X109571300Y-98299841D01*
X109626456Y-98154407D01*
X109645204Y-98000000D01*
X109626456Y-97845593D01*
X109571300Y-97700159D01*
X109482942Y-97572151D01*
X109482939Y-97572148D01*
X109482937Y-97572146D01*
X109401500Y-97499999D01*
X118354796Y-97499999D01*
X118373543Y-97654406D01*
X118390894Y-97700156D01*
X118428700Y-97799841D01*
X118517058Y-97927849D01*
X118517060Y-97927851D01*
X118517062Y-97927853D01*
X118633480Y-98030991D01*
X118633482Y-98030992D01*
X118771208Y-98103276D01*
X118922229Y-98140500D01*
X118922230Y-98140500D01*
X119077770Y-98140500D01*
X119077771Y-98140500D01*
X119228792Y-98103276D01*
X119366518Y-98030992D01*
X119482942Y-97927849D01*
X119571300Y-97799841D01*
X119618646Y-97675000D01*
X124299653Y-97675000D01*
X124318400Y-97829406D01*
X124355734Y-97927846D01*
X124373557Y-97974841D01*
X124461915Y-98102849D01*
X124461917Y-98102851D01*
X124461919Y-98102853D01*
X124578337Y-98205991D01*
X124578339Y-98205992D01*
X124716065Y-98278276D01*
X124867086Y-98315500D01*
X124867087Y-98315500D01*
X125022627Y-98315500D01*
X125022628Y-98315500D01*
X125173649Y-98278276D01*
X125311375Y-98205992D01*
X125427799Y-98102849D01*
X125516157Y-97974841D01*
X125571313Y-97829407D01*
X125590061Y-97675000D01*
X125571313Y-97520593D01*
X125563503Y-97499999D01*
X134354796Y-97499999D01*
X134373543Y-97654406D01*
X134390894Y-97700156D01*
X134428700Y-97799841D01*
X134517058Y-97927849D01*
X134517060Y-97927851D01*
X134517062Y-97927853D01*
X134633480Y-98030991D01*
X134633482Y-98030992D01*
X134771208Y-98103276D01*
X134922229Y-98140500D01*
X134922230Y-98140500D01*
X135077770Y-98140500D01*
X135077771Y-98140500D01*
X135228792Y-98103276D01*
X135366518Y-98030992D01*
X135482942Y-97927849D01*
X135571300Y-97799841D01*
X135626456Y-97654407D01*
X135645204Y-97500000D01*
X135645204Y-97499999D01*
X136354796Y-97499999D01*
X136373543Y-97654406D01*
X136390894Y-97700156D01*
X136428700Y-97799841D01*
X136517058Y-97927849D01*
X136517060Y-97927851D01*
X136517062Y-97927853D01*
X136633480Y-98030991D01*
X136633482Y-98030992D01*
X136771208Y-98103276D01*
X136922229Y-98140500D01*
X136922230Y-98140500D01*
X137077770Y-98140500D01*
X137077771Y-98140500D01*
X137228792Y-98103276D01*
X137366518Y-98030992D01*
X137401502Y-97999999D01*
X153454709Y-97999999D01*
X153473856Y-98340959D01*
X153473858Y-98340971D01*
X153526874Y-98653002D01*
X153531061Y-98677641D01*
X153625601Y-99005796D01*
X153656690Y-99080851D01*
X153756287Y-99321300D01*
X153921480Y-99620196D01*
X153921483Y-99620201D01*
X154119092Y-99898703D01*
X154119096Y-99898708D01*
X154346654Y-100153346D01*
X154601292Y-100380904D01*
X154601295Y-100380906D01*
X154601296Y-100380907D01*
X154879798Y-100578516D01*
X154879803Y-100578519D01*
X154879806Y-100578520D01*
X154879808Y-100578522D01*
X155178698Y-100743712D01*
X155494204Y-100874399D01*
X155822359Y-100968939D01*
X156159036Y-101026143D01*
X156500000Y-101045291D01*
X156840964Y-101026143D01*
X157177641Y-100968939D01*
X157505796Y-100874399D01*
X157821302Y-100743712D01*
X158120192Y-100578522D01*
X158120197Y-100578518D01*
X158120201Y-100578516D01*
X158235310Y-100496840D01*
X158398708Y-100380904D01*
X158653346Y-100153346D01*
X158880904Y-99898708D01*
X159021782Y-99700159D01*
X159078516Y-99620201D01*
X159078519Y-99620196D01*
X159078522Y-99620192D01*
X159243712Y-99321302D01*
X159374399Y-99005796D01*
X159468939Y-98677641D01*
X159526143Y-98340964D01*
X159545291Y-98000000D01*
X159526143Y-97659036D01*
X159468939Y-97322359D01*
X159374399Y-96994204D01*
X159243712Y-96678698D01*
X159078522Y-96379808D01*
X159078520Y-96379806D01*
X159078519Y-96379803D01*
X159078516Y-96379798D01*
X158880907Y-96101296D01*
X158880906Y-96101295D01*
X158880904Y-96101292D01*
X158653346Y-95846654D01*
X158398708Y-95619096D01*
X158398705Y-95619094D01*
X158398703Y-95619092D01*
X158120201Y-95421483D01*
X158120196Y-95421480D01*
X157821300Y-95256287D01*
X157755956Y-95229221D01*
X157505796Y-95125601D01*
X157401636Y-95095593D01*
X157177646Y-95031062D01*
X157177637Y-95031060D01*
X156840971Y-94973858D01*
X156840959Y-94973856D01*
X156500000Y-94954709D01*
X156159040Y-94973856D01*
X156159028Y-94973858D01*
X155822362Y-95031060D01*
X155822353Y-95031062D01*
X155494207Y-95125600D01*
X155494204Y-95125601D01*
X155458235Y-95140500D01*
X155178699Y-95256287D01*
X154879803Y-95421480D01*
X154879798Y-95421483D01*
X154601296Y-95619092D01*
X154346654Y-95846654D01*
X154119092Y-96101296D01*
X153921483Y-96379798D01*
X153921480Y-96379803D01*
X153756287Y-96678699D01*
X153625600Y-96994207D01*
X153531062Y-97322353D01*
X153531060Y-97322362D01*
X153473858Y-97659028D01*
X153473856Y-97659040D01*
X153454709Y-97999999D01*
X137401502Y-97999999D01*
X137482942Y-97927849D01*
X137571300Y-97799841D01*
X137626456Y-97654407D01*
X137645204Y-97500000D01*
X137626456Y-97345593D01*
X137571300Y-97200159D01*
X137482942Y-97072151D01*
X137482939Y-97072148D01*
X137482937Y-97072146D01*
X137366519Y-96969008D01*
X137228790Y-96896723D01*
X137127169Y-96871675D01*
X137077771Y-96859500D01*
X136922229Y-96859500D01*
X136885006Y-96868674D01*
X136771209Y-96896723D01*
X136633480Y-96969008D01*
X136517062Y-97072146D01*
X136517056Y-97072153D01*
X136428701Y-97200156D01*
X136373543Y-97345593D01*
X136354796Y-97499999D01*
X135645204Y-97499999D01*
X135626456Y-97345593D01*
X135571300Y-97200159D01*
X135482942Y-97072151D01*
X135482939Y-97072148D01*
X135482937Y-97072146D01*
X135366519Y-96969008D01*
X135228790Y-96896723D01*
X135127169Y-96871675D01*
X135077771Y-96859500D01*
X134922229Y-96859500D01*
X134885006Y-96868674D01*
X134771209Y-96896723D01*
X134633480Y-96969008D01*
X134517062Y-97072146D01*
X134517056Y-97072153D01*
X134428701Y-97200156D01*
X134373543Y-97345593D01*
X134354796Y-97499999D01*
X125563503Y-97499999D01*
X125516157Y-97375159D01*
X125427799Y-97247151D01*
X125427796Y-97247148D01*
X125427794Y-97247146D01*
X125311376Y-97144008D01*
X125174466Y-97072153D01*
X125173649Y-97071724D01*
X125173648Y-97071723D01*
X125173647Y-97071723D01*
X125072026Y-97046675D01*
X125022628Y-97034500D01*
X124867086Y-97034500D01*
X124829863Y-97043674D01*
X124716066Y-97071723D01*
X124578337Y-97144008D01*
X124461919Y-97247146D01*
X124461913Y-97247153D01*
X124373558Y-97375156D01*
X124318400Y-97520593D01*
X124299653Y-97675000D01*
X119618646Y-97675000D01*
X119626456Y-97654407D01*
X119645204Y-97500000D01*
X119626456Y-97345593D01*
X119571300Y-97200159D01*
X119482942Y-97072151D01*
X119482939Y-97072148D01*
X119482937Y-97072146D01*
X119366519Y-96969008D01*
X119228790Y-96896723D01*
X119127169Y-96871675D01*
X119077771Y-96859500D01*
X118922229Y-96859500D01*
X118885006Y-96868674D01*
X118771209Y-96896723D01*
X118633480Y-96969008D01*
X118517062Y-97072146D01*
X118517056Y-97072153D01*
X118428701Y-97200156D01*
X118373543Y-97345593D01*
X118354796Y-97499999D01*
X109401500Y-97499999D01*
X109366519Y-97469008D01*
X109228790Y-97396723D01*
X109127169Y-97371675D01*
X109077771Y-97359500D01*
X108922229Y-97359500D01*
X108885006Y-97368674D01*
X108771209Y-97396723D01*
X108633480Y-97469008D01*
X108517062Y-97572146D01*
X108517056Y-97572153D01*
X108428701Y-97700156D01*
X108373543Y-97845593D01*
X108354796Y-98000000D01*
X93545291Y-98000000D01*
X93526143Y-97659036D01*
X93468939Y-97322359D01*
X93374399Y-96994204D01*
X93243712Y-96678698D01*
X93078522Y-96379808D01*
X93078520Y-96379806D01*
X93078519Y-96379803D01*
X93078516Y-96379798D01*
X92880907Y-96101296D01*
X92880906Y-96101295D01*
X92880904Y-96101292D01*
X92790384Y-96000000D01*
X108604796Y-96000000D01*
X108623543Y-96154406D01*
X108678701Y-96299843D01*
X108753201Y-96407774D01*
X108767058Y-96427849D01*
X108767060Y-96427851D01*
X108767062Y-96427853D01*
X108883480Y-96530991D01*
X108883482Y-96530992D01*
X109021208Y-96603276D01*
X109172229Y-96640500D01*
X109172230Y-96640500D01*
X109327770Y-96640500D01*
X109327771Y-96640500D01*
X109478792Y-96603276D01*
X109616518Y-96530992D01*
X109651502Y-96499999D01*
X115854796Y-96499999D01*
X115873543Y-96654406D01*
X115913252Y-96759109D01*
X115928700Y-96799841D01*
X116017058Y-96927849D01*
X116017060Y-96927851D01*
X116017062Y-96927853D01*
X116133480Y-97030991D01*
X116133482Y-97030992D01*
X116271208Y-97103276D01*
X116422229Y-97140500D01*
X116422230Y-97140500D01*
X116577770Y-97140500D01*
X116577771Y-97140500D01*
X116728792Y-97103276D01*
X116866518Y-97030992D01*
X116982942Y-96927849D01*
X117071300Y-96799841D01*
X117126456Y-96654407D01*
X117145204Y-96500000D01*
X120854796Y-96500000D01*
X120873543Y-96654406D01*
X120913252Y-96759109D01*
X120928700Y-96799841D01*
X121017058Y-96927849D01*
X121017060Y-96927851D01*
X121017062Y-96927853D01*
X121133480Y-97030991D01*
X121133482Y-97030992D01*
X121271208Y-97103276D01*
X121422229Y-97140500D01*
X121422230Y-97140500D01*
X121577770Y-97140500D01*
X121577771Y-97140500D01*
X121728792Y-97103276D01*
X121866518Y-97030992D01*
X121982942Y-96927849D01*
X122071300Y-96799841D01*
X122126456Y-96654407D01*
X122145204Y-96500000D01*
X122126456Y-96345593D01*
X122071300Y-96200159D01*
X121982942Y-96072151D01*
X121982939Y-96072148D01*
X121982937Y-96072146D01*
X121866519Y-95969008D01*
X121728790Y-95896723D01*
X121627169Y-95871675D01*
X121577771Y-95859500D01*
X121422229Y-95859500D01*
X121385005Y-95868674D01*
X121271209Y-95896723D01*
X121133480Y-95969008D01*
X121017062Y-96072146D01*
X121017056Y-96072153D01*
X120928701Y-96200156D01*
X120873543Y-96345593D01*
X120854796Y-96500000D01*
X117145204Y-96500000D01*
X117126456Y-96345593D01*
X117071300Y-96200159D01*
X116982942Y-96072151D01*
X116982939Y-96072148D01*
X116982937Y-96072146D01*
X116866519Y-95969008D01*
X116728790Y-95896723D01*
X116627169Y-95871675D01*
X116577771Y-95859500D01*
X116422229Y-95859500D01*
X116385005Y-95868674D01*
X116271209Y-95896723D01*
X116133480Y-95969008D01*
X116017062Y-96072146D01*
X116017056Y-96072153D01*
X115928701Y-96200156D01*
X115873543Y-96345593D01*
X115854796Y-96499999D01*
X109651502Y-96499999D01*
X109732942Y-96427849D01*
X109821300Y-96299841D01*
X109876456Y-96154407D01*
X109895204Y-96000000D01*
X109876456Y-95845593D01*
X109821300Y-95700159D01*
X109732942Y-95572151D01*
X109732939Y-95572148D01*
X109732937Y-95572146D01*
X109616519Y-95469008D01*
X109478790Y-95396723D01*
X109377169Y-95371675D01*
X109327771Y-95359500D01*
X109172229Y-95359500D01*
X109135005Y-95368674D01*
X109021209Y-95396723D01*
X108883480Y-95469008D01*
X108767062Y-95572146D01*
X108767056Y-95572153D01*
X108678701Y-95700156D01*
X108623543Y-95845593D01*
X108604796Y-96000000D01*
X92790384Y-96000000D01*
X92653346Y-95846654D01*
X92398708Y-95619096D01*
X92398705Y-95619094D01*
X92398703Y-95619092D01*
X92120201Y-95421483D01*
X92120196Y-95421480D01*
X91821300Y-95256287D01*
X91806122Y-95250000D01*
X117104796Y-95250000D01*
X117107072Y-95268746D01*
X117123543Y-95404406D01*
X117178701Y-95549843D01*
X117253201Y-95657774D01*
X117267058Y-95677849D01*
X117267060Y-95677851D01*
X117267062Y-95677853D01*
X117383480Y-95780991D01*
X117383482Y-95780992D01*
X117521208Y-95853276D01*
X117672229Y-95890500D01*
X117672230Y-95890500D01*
X117827770Y-95890500D01*
X117827771Y-95890500D01*
X117978792Y-95853276D01*
X118116518Y-95780992D01*
X118232942Y-95677849D01*
X118321300Y-95549841D01*
X118376456Y-95404407D01*
X118395204Y-95250000D01*
X118376456Y-95095593D01*
X118321300Y-94950159D01*
X118232942Y-94822151D01*
X118116518Y-94719008D01*
X118116514Y-94719006D01*
X118115171Y-94717816D01*
X118078044Y-94658626D01*
X118078812Y-94588761D01*
X118115171Y-94532184D01*
X118116514Y-94530993D01*
X118116518Y-94530992D01*
X118232942Y-94427849D01*
X118272951Y-94369886D01*
X118327233Y-94325897D01*
X118396681Y-94318237D01*
X118459246Y-94349340D01*
X118477049Y-94369885D01*
X118517059Y-94427850D01*
X118517061Y-94427852D01*
X118517063Y-94427854D01*
X118633481Y-94530992D01*
X118633483Y-94530993D01*
X118771209Y-94603277D01*
X118922230Y-94640501D01*
X118922231Y-94640501D01*
X119077771Y-94640501D01*
X119077772Y-94640501D01*
X119228793Y-94603277D01*
X119366519Y-94530993D01*
X119482943Y-94427850D01*
X119522953Y-94369885D01*
X119577231Y-94325898D01*
X119646680Y-94318238D01*
X119709245Y-94349340D01*
X119727047Y-94369884D01*
X119767058Y-94427849D01*
X119883482Y-94530992D01*
X119883485Y-94530994D01*
X119884828Y-94532183D01*
X119921955Y-94591373D01*
X119921187Y-94661238D01*
X119884829Y-94717814D01*
X119767058Y-94822150D01*
X119767056Y-94822153D01*
X119678701Y-94950156D01*
X119623543Y-95095593D01*
X119604796Y-95250000D01*
X119623543Y-95404406D01*
X119678701Y-95549843D01*
X119753201Y-95657774D01*
X119767058Y-95677849D01*
X119767060Y-95677851D01*
X119767062Y-95677853D01*
X119883480Y-95780991D01*
X119883482Y-95780992D01*
X120021208Y-95853276D01*
X120172229Y-95890500D01*
X120172230Y-95890500D01*
X120327770Y-95890500D01*
X120327771Y-95890500D01*
X120478792Y-95853276D01*
X120509144Y-95837346D01*
X125367449Y-95837346D01*
X125386196Y-95991753D01*
X125441354Y-96137190D01*
X125453238Y-96154407D01*
X125529711Y-96265196D01*
X125529713Y-96265198D01*
X125529715Y-96265200D01*
X125646133Y-96368338D01*
X125646135Y-96368339D01*
X125783861Y-96440623D01*
X125934882Y-96477847D01*
X125934883Y-96477847D01*
X126090423Y-96477847D01*
X126090424Y-96477847D01*
X126241445Y-96440623D01*
X126379171Y-96368339D01*
X126495595Y-96265196D01*
X126583953Y-96137188D01*
X126639109Y-95991754D01*
X126657857Y-95837347D01*
X126639109Y-95682940D01*
X126583953Y-95537506D01*
X126495595Y-95409498D01*
X126495592Y-95409495D01*
X126495590Y-95409493D01*
X126379172Y-95306355D01*
X126241443Y-95234070D01*
X126139822Y-95209022D01*
X126090424Y-95196847D01*
X125934882Y-95196847D01*
X125897658Y-95206021D01*
X125783862Y-95234070D01*
X125646133Y-95306355D01*
X125529715Y-95409493D01*
X125529709Y-95409500D01*
X125441354Y-95537503D01*
X125386196Y-95682940D01*
X125367449Y-95837346D01*
X120509144Y-95837346D01*
X120616518Y-95780992D01*
X120732942Y-95677849D01*
X120821300Y-95549841D01*
X120876456Y-95404407D01*
X120895204Y-95250000D01*
X120876456Y-95095593D01*
X120821300Y-94950159D01*
X120732942Y-94822151D01*
X120732939Y-94822148D01*
X120732937Y-94822146D01*
X120615171Y-94717814D01*
X120578044Y-94658625D01*
X120578812Y-94588759D01*
X120615171Y-94532183D01*
X120616511Y-94530995D01*
X120616518Y-94530992D01*
X120651501Y-94500000D01*
X121854796Y-94500000D01*
X121873543Y-94654406D01*
X121928701Y-94799843D01*
X121944101Y-94822153D01*
X122017058Y-94927849D01*
X122017060Y-94927851D01*
X122017062Y-94927853D01*
X122133480Y-95030991D01*
X122133613Y-95031061D01*
X122271208Y-95103276D01*
X122422229Y-95140500D01*
X122422230Y-95140500D01*
X122577770Y-95140500D01*
X122577771Y-95140500D01*
X122728792Y-95103276D01*
X122866518Y-95030992D01*
X122982942Y-94927849D01*
X123071300Y-94799841D01*
X123126456Y-94654407D01*
X123145204Y-94500000D01*
X123126456Y-94345593D01*
X123071300Y-94200159D01*
X122982942Y-94072151D01*
X122982939Y-94072148D01*
X122982937Y-94072146D01*
X122866519Y-93969008D01*
X122728790Y-93896723D01*
X122635349Y-93873692D01*
X129869500Y-93873692D01*
X129883452Y-93943834D01*
X129883453Y-93943837D01*
X129883454Y-93943839D01*
X129936609Y-94023391D01*
X130016161Y-94076546D01*
X130016164Y-94076546D01*
X130016165Y-94076547D01*
X130086307Y-94090499D01*
X130086310Y-94090500D01*
X130086312Y-94090500D01*
X131833690Y-94090500D01*
X131833691Y-94090499D01*
X131903839Y-94076546D01*
X131983391Y-94023391D01*
X132036546Y-93943839D01*
X132050500Y-93873688D01*
X132050500Y-93645236D01*
X132070185Y-93578197D01*
X132122989Y-93532442D01*
X132192147Y-93522498D01*
X132255703Y-93551523D01*
X132286882Y-93592832D01*
X132326398Y-93677575D01*
X132326399Y-93677577D01*
X132461894Y-93871082D01*
X132628917Y-94038105D01*
X132822421Y-94173600D01*
X133036507Y-94273429D01*
X133036516Y-94273433D01*
X133250000Y-94330634D01*
X133250000Y-93612301D01*
X133269685Y-93545262D01*
X133322489Y-93499507D01*
X133391647Y-93489563D01*
X133464237Y-93500000D01*
X133464238Y-93500000D01*
X133535762Y-93500000D01*
X133535763Y-93500000D01*
X133608352Y-93489563D01*
X133677510Y-93499507D01*
X133730314Y-93545261D01*
X133749999Y-93612301D01*
X133749999Y-94330634D01*
X133963483Y-94273433D01*
X133963492Y-94273429D01*
X134177578Y-94173600D01*
X134371082Y-94038105D01*
X134538105Y-93871082D01*
X134673600Y-93677578D01*
X134773429Y-93463492D01*
X134773433Y-93463483D01*
X134786316Y-93415404D01*
X134822681Y-93355743D01*
X134885528Y-93325214D01*
X134954903Y-93333509D01*
X135008781Y-93377994D01*
X135017091Y-93392225D01*
X135108866Y-93576534D01*
X135230659Y-93737815D01*
X135368792Y-93863739D01*
X135379710Y-93873692D01*
X135380010Y-93873965D01*
X135380012Y-93873967D01*
X135551836Y-93980356D01*
X135551842Y-93980359D01*
X135591764Y-93995824D01*
X135740292Y-94053365D01*
X135938950Y-94090500D01*
X135938953Y-94090500D01*
X136141047Y-94090500D01*
X136141050Y-94090500D01*
X136339708Y-94053365D01*
X136528160Y-93980358D01*
X136699989Y-93873966D01*
X136849342Y-93737813D01*
X136971134Y-93576534D01*
X137061217Y-93395622D01*
X137116525Y-93201237D01*
X137135172Y-93000000D01*
X137484828Y-93000000D01*
X137503474Y-93201236D01*
X137558782Y-93395619D01*
X137558787Y-93395632D01*
X137648866Y-93576534D01*
X137770659Y-93737815D01*
X137908792Y-93863739D01*
X137919710Y-93873692D01*
X137920010Y-93873965D01*
X137920012Y-93873967D01*
X138091836Y-93980356D01*
X138091842Y-93980359D01*
X138131764Y-93995824D01*
X138280292Y-94053365D01*
X138478950Y-94090500D01*
X138478953Y-94090500D01*
X138681047Y-94090500D01*
X138681050Y-94090500D01*
X138879708Y-94053365D01*
X139068160Y-93980358D01*
X139239989Y-93873966D01*
X139389342Y-93737813D01*
X139511134Y-93576534D01*
X139601217Y-93395622D01*
X139656525Y-93201237D01*
X139675172Y-93000000D01*
X140024828Y-93000000D01*
X140043474Y-93201236D01*
X140098782Y-93395619D01*
X140098787Y-93395632D01*
X140188866Y-93576534D01*
X140310659Y-93737815D01*
X140448792Y-93863739D01*
X140459710Y-93873692D01*
X140460010Y-93873965D01*
X140460012Y-93873967D01*
X140631836Y-93980356D01*
X140631842Y-93980359D01*
X140671764Y-93995824D01*
X140820292Y-94053365D01*
X141018950Y-94090500D01*
X141018953Y-94090500D01*
X141221047Y-94090500D01*
X141221050Y-94090500D01*
X141419708Y-94053365D01*
X141608160Y-93980358D01*
X141779989Y-93873966D01*
X141929342Y-93737813D01*
X142051134Y-93576534D01*
X142141217Y-93395622D01*
X142196525Y-93201237D01*
X142215172Y-93000000D01*
X142564828Y-93000000D01*
X142583474Y-93201236D01*
X142638782Y-93395619D01*
X142638787Y-93395632D01*
X142728866Y-93576534D01*
X142850659Y-93737815D01*
X142988792Y-93863739D01*
X142999710Y-93873692D01*
X143000010Y-93873965D01*
X143000012Y-93873967D01*
X143171836Y-93980356D01*
X143171842Y-93980359D01*
X143211764Y-93995824D01*
X143360292Y-94053365D01*
X143558950Y-94090500D01*
X143558953Y-94090500D01*
X143761047Y-94090500D01*
X143761050Y-94090500D01*
X143959708Y-94053365D01*
X144148160Y-93980358D01*
X144319989Y-93873966D01*
X144469342Y-93737813D01*
X144591134Y-93576534D01*
X144681217Y-93395622D01*
X144736525Y-93201237D01*
X144755172Y-93000000D01*
X144736525Y-92798763D01*
X144681217Y-92604378D01*
X144680668Y-92603276D01*
X144608600Y-92458543D01*
X144591134Y-92423466D01*
X144498166Y-92300356D01*
X144469340Y-92262184D01*
X144319989Y-92126034D01*
X144319987Y-92126032D01*
X144148163Y-92019643D01*
X144148157Y-92019640D01*
X143999075Y-91961886D01*
X143959708Y-91946635D01*
X143761050Y-91909500D01*
X143558950Y-91909500D01*
X143360292Y-91946635D01*
X143360289Y-91946635D01*
X143360289Y-91946636D01*
X143171842Y-92019640D01*
X143171836Y-92019643D01*
X143000012Y-92126032D01*
X143000010Y-92126034D01*
X142850659Y-92262184D01*
X142728866Y-92423465D01*
X142638787Y-92604367D01*
X142638782Y-92604380D01*
X142583474Y-92798763D01*
X142564828Y-92999999D01*
X142564828Y-93000000D01*
X142215172Y-93000000D01*
X142196525Y-92798763D01*
X142141217Y-92604378D01*
X142140668Y-92603276D01*
X142068600Y-92458543D01*
X142051134Y-92423466D01*
X141958166Y-92300356D01*
X141929340Y-92262184D01*
X141779989Y-92126034D01*
X141779987Y-92126032D01*
X141608163Y-92019643D01*
X141608157Y-92019640D01*
X141459075Y-91961886D01*
X141419708Y-91946635D01*
X141221050Y-91909500D01*
X141018950Y-91909500D01*
X140820292Y-91946635D01*
X140820289Y-91946635D01*
X140820289Y-91946636D01*
X140631842Y-92019640D01*
X140631836Y-92019643D01*
X140460012Y-92126032D01*
X140460010Y-92126034D01*
X140310659Y-92262184D01*
X140188866Y-92423465D01*
X140098787Y-92604367D01*
X140098782Y-92604380D01*
X140043474Y-92798763D01*
X140024828Y-92999999D01*
X140024828Y-93000000D01*
X139675172Y-93000000D01*
X139656525Y-92798763D01*
X139601217Y-92604378D01*
X139600668Y-92603276D01*
X139528600Y-92458543D01*
X139511134Y-92423466D01*
X139418166Y-92300356D01*
X139389340Y-92262184D01*
X139239989Y-92126034D01*
X139239987Y-92126032D01*
X139068163Y-92019643D01*
X139068157Y-92019640D01*
X138919075Y-91961886D01*
X138879708Y-91946635D01*
X138681050Y-91909500D01*
X138478950Y-91909500D01*
X138280292Y-91946635D01*
X138280289Y-91946635D01*
X138280289Y-91946636D01*
X138091842Y-92019640D01*
X138091836Y-92019643D01*
X137920012Y-92126032D01*
X137920010Y-92126034D01*
X137770659Y-92262184D01*
X137648866Y-92423465D01*
X137558787Y-92604367D01*
X137558782Y-92604380D01*
X137503474Y-92798763D01*
X137484828Y-92999999D01*
X137484828Y-93000000D01*
X137135172Y-93000000D01*
X137116525Y-92798763D01*
X137061217Y-92604378D01*
X137060668Y-92603276D01*
X136988600Y-92458543D01*
X136971134Y-92423466D01*
X136878166Y-92300356D01*
X136849340Y-92262184D01*
X136699989Y-92126034D01*
X136699987Y-92126032D01*
X136528163Y-92019643D01*
X136528157Y-92019640D01*
X136379075Y-91961886D01*
X136339708Y-91946635D01*
X136141050Y-91909500D01*
X135938950Y-91909500D01*
X135740292Y-91946635D01*
X135740289Y-91946635D01*
X135740289Y-91946636D01*
X135551842Y-92019640D01*
X135551836Y-92019643D01*
X135380012Y-92126032D01*
X135380010Y-92126034D01*
X135230659Y-92262184D01*
X135108866Y-92423465D01*
X135017091Y-92607774D01*
X134969588Y-92659011D01*
X134901925Y-92676432D01*
X134835585Y-92654506D01*
X134791630Y-92600195D01*
X134786316Y-92584596D01*
X134773432Y-92536513D01*
X134773429Y-92536507D01*
X134673600Y-92322422D01*
X134673599Y-92322420D01*
X134538113Y-92128926D01*
X134538108Y-92128920D01*
X134371082Y-91961894D01*
X134177578Y-91826399D01*
X133963492Y-91726570D01*
X133963486Y-91726567D01*
X133750000Y-91669364D01*
X133749999Y-91669364D01*
X133749999Y-92387698D01*
X133730314Y-92454738D01*
X133677510Y-92500492D01*
X133608353Y-92510436D01*
X133535764Y-92500000D01*
X133535763Y-92500000D01*
X133464237Y-92500000D01*
X133464233Y-92500000D01*
X133391645Y-92510436D01*
X133322487Y-92500492D01*
X133269684Y-92454736D01*
X133250000Y-92387698D01*
X133250000Y-91669364D01*
X133249999Y-91669364D01*
X133036513Y-91726567D01*
X133036507Y-91726570D01*
X132822422Y-91826399D01*
X132822420Y-91826400D01*
X132628926Y-91961886D01*
X132628920Y-91961891D01*
X132461891Y-92128920D01*
X132461886Y-92128926D01*
X132326400Y-92322420D01*
X132326399Y-92322422D01*
X132286882Y-92407168D01*
X132240710Y-92459607D01*
X132173516Y-92478759D01*
X132106635Y-92458543D01*
X132061300Y-92405378D01*
X132050500Y-92354763D01*
X132050500Y-92126309D01*
X132050499Y-92126307D01*
X132036547Y-92056165D01*
X132036546Y-92056164D01*
X132036546Y-92056161D01*
X131983391Y-91976609D01*
X131903839Y-91923454D01*
X131903837Y-91923453D01*
X131903834Y-91923452D01*
X131833691Y-91909500D01*
X131833688Y-91909500D01*
X130086312Y-91909500D01*
X130086309Y-91909500D01*
X130016165Y-91923452D01*
X130016161Y-91923454D01*
X129936609Y-91976609D01*
X129883454Y-92056161D01*
X129883452Y-92056165D01*
X129869500Y-92126307D01*
X129869500Y-93873692D01*
X122635349Y-93873692D01*
X122624760Y-93871082D01*
X122577771Y-93859500D01*
X122422229Y-93859500D01*
X122385006Y-93868674D01*
X122271209Y-93896723D01*
X122133480Y-93969008D01*
X122017062Y-94072146D01*
X122017056Y-94072153D01*
X121928701Y-94200156D01*
X121873543Y-94345593D01*
X121854796Y-94500000D01*
X120651501Y-94500000D01*
X120732942Y-94427849D01*
X120821300Y-94299841D01*
X120876456Y-94154407D01*
X120895204Y-94000000D01*
X120876456Y-93845593D01*
X120821300Y-93700159D01*
X120732942Y-93572151D01*
X120616518Y-93469008D01*
X120616514Y-93469006D01*
X120615171Y-93467816D01*
X120578044Y-93408626D01*
X120578812Y-93338761D01*
X120615171Y-93282184D01*
X120616514Y-93280993D01*
X120616518Y-93280992D01*
X120732942Y-93177849D01*
X120821300Y-93049841D01*
X120876456Y-92904407D01*
X120895204Y-92750000D01*
X120876456Y-92595593D01*
X120821300Y-92450159D01*
X120732942Y-92322151D01*
X120732939Y-92322148D01*
X120732937Y-92322146D01*
X120616519Y-92219008D01*
X120478790Y-92146723D01*
X120377169Y-92121675D01*
X120327771Y-92109500D01*
X120172229Y-92109500D01*
X120135005Y-92118674D01*
X120021209Y-92146723D01*
X119883480Y-92219008D01*
X119767062Y-92322146D01*
X119767056Y-92322153D01*
X119678701Y-92450156D01*
X119623543Y-92595593D01*
X119604796Y-92749999D01*
X119623543Y-92904406D01*
X119678701Y-93049843D01*
X119750876Y-93154406D01*
X119767058Y-93177849D01*
X119767060Y-93177851D01*
X119767062Y-93177853D01*
X119884828Y-93282185D01*
X119921955Y-93341374D01*
X119921187Y-93411240D01*
X119884828Y-93467815D01*
X119767062Y-93572146D01*
X119767059Y-93572149D01*
X119752783Y-93592832D01*
X119727051Y-93630112D01*
X119727050Y-93630113D01*
X119672767Y-93674103D01*
X119603318Y-93681762D01*
X119540753Y-93650658D01*
X119522950Y-93630112D01*
X119497217Y-93592832D01*
X119482943Y-93572152D01*
X119482940Y-93572149D01*
X119482938Y-93572147D01*
X119366520Y-93469009D01*
X119228791Y-93396724D01*
X119091371Y-93362853D01*
X119077772Y-93359501D01*
X118922230Y-93359501D01*
X118908631Y-93362853D01*
X118771210Y-93396724D01*
X118633481Y-93469009D01*
X118517063Y-93572147D01*
X118517058Y-93572152D01*
X118477049Y-93630115D01*
X118422765Y-93674104D01*
X118353317Y-93681762D01*
X118290752Y-93650658D01*
X118272950Y-93630113D01*
X118272949Y-93630112D01*
X118232942Y-93572151D01*
X118116518Y-93469008D01*
X118116514Y-93469006D01*
X118115171Y-93467816D01*
X118078044Y-93408626D01*
X118078812Y-93338761D01*
X118115171Y-93282184D01*
X118116514Y-93280993D01*
X118116518Y-93280992D01*
X118232942Y-93177849D01*
X118321300Y-93049841D01*
X118376456Y-92904407D01*
X118395204Y-92750000D01*
X118376456Y-92595593D01*
X118321300Y-92450159D01*
X118232942Y-92322151D01*
X118232939Y-92322148D01*
X118232937Y-92322146D01*
X118116519Y-92219008D01*
X117978790Y-92146723D01*
X117877169Y-92121675D01*
X117827771Y-92109500D01*
X117672229Y-92109500D01*
X117635005Y-92118674D01*
X117521209Y-92146723D01*
X117383480Y-92219008D01*
X117267062Y-92322146D01*
X117267056Y-92322153D01*
X117178701Y-92450156D01*
X117123543Y-92595593D01*
X117104796Y-92750000D01*
X117123543Y-92904406D01*
X117178701Y-93049843D01*
X117250876Y-93154406D01*
X117267058Y-93177849D01*
X117267060Y-93177851D01*
X117267062Y-93177853D01*
X117384828Y-93282185D01*
X117421955Y-93341374D01*
X117421187Y-93411240D01*
X117384828Y-93467815D01*
X117267062Y-93572146D01*
X117267056Y-93572153D01*
X117178701Y-93700156D01*
X117123543Y-93845593D01*
X117104796Y-94000000D01*
X117123543Y-94154406D01*
X117178701Y-94299843D01*
X117227051Y-94369889D01*
X117267058Y-94427849D01*
X117267059Y-94427850D01*
X117267062Y-94427853D01*
X117384828Y-94532185D01*
X117421955Y-94591374D01*
X117421187Y-94661240D01*
X117384828Y-94717815D01*
X117267062Y-94822146D01*
X117267056Y-94822153D01*
X117178701Y-94950156D01*
X117123543Y-95095593D01*
X117106730Y-95234070D01*
X117104796Y-95250000D01*
X91806122Y-95250000D01*
X91755956Y-95229220D01*
X91505796Y-95125601D01*
X91401636Y-95095593D01*
X91177646Y-95031062D01*
X91177637Y-95031060D01*
X90840971Y-94973858D01*
X90840959Y-94973856D01*
X90524694Y-94956095D01*
X90500000Y-94954709D01*
X90499999Y-94954709D01*
X90159040Y-94973856D01*
X90159028Y-94973858D01*
X89822362Y-95031060D01*
X89822353Y-95031062D01*
X89494207Y-95125600D01*
X89494204Y-95125601D01*
X89458235Y-95140500D01*
X89178699Y-95256287D01*
X88879803Y-95421480D01*
X88879798Y-95421483D01*
X88601296Y-95619092D01*
X88346654Y-95846654D01*
X88119092Y-96101296D01*
X87921483Y-96379798D01*
X87921480Y-96379803D01*
X87756287Y-96678699D01*
X87625600Y-96994207D01*
X87531062Y-97322353D01*
X87531060Y-97322362D01*
X87473858Y-97659028D01*
X87473856Y-97659040D01*
X87454709Y-98000000D01*
X85500500Y-98000000D01*
X85500500Y-93966130D01*
X108793521Y-93966130D01*
X108812268Y-94120536D01*
X108867426Y-94265973D01*
X108890805Y-94299843D01*
X108955783Y-94393979D01*
X108955785Y-94393981D01*
X108955787Y-94393983D01*
X109072205Y-94497121D01*
X109072207Y-94497122D01*
X109209933Y-94569406D01*
X109360954Y-94606630D01*
X109360955Y-94606630D01*
X109516495Y-94606630D01*
X109516496Y-94606630D01*
X109667517Y-94569406D01*
X109805243Y-94497122D01*
X109921667Y-94393979D01*
X110010025Y-94265971D01*
X110065181Y-94120537D01*
X110083929Y-93966130D01*
X110065181Y-93811723D01*
X110010025Y-93666289D01*
X109921667Y-93538281D01*
X109921664Y-93538278D01*
X109921662Y-93538276D01*
X109805244Y-93435138D01*
X109667515Y-93362853D01*
X109565894Y-93337805D01*
X109516496Y-93325630D01*
X109360954Y-93325630D01*
X109339987Y-93330798D01*
X109209934Y-93362853D01*
X109072205Y-93435138D01*
X108955787Y-93538276D01*
X108955781Y-93538283D01*
X108867426Y-93666286D01*
X108812268Y-93811723D01*
X108793521Y-93966130D01*
X85500500Y-93966130D01*
X85500500Y-93000000D01*
X104854796Y-93000000D01*
X104873543Y-93154406D01*
X104913252Y-93259109D01*
X104921551Y-93280992D01*
X104928701Y-93299843D01*
X104972194Y-93362853D01*
X105017058Y-93427849D01*
X105017060Y-93427851D01*
X105017062Y-93427853D01*
X105133480Y-93530991D01*
X105133482Y-93530992D01*
X105271208Y-93603276D01*
X105422229Y-93640500D01*
X105422230Y-93640500D01*
X105577770Y-93640500D01*
X105577771Y-93640500D01*
X105728792Y-93603276D01*
X105866518Y-93530992D01*
X105982942Y-93427849D01*
X106071300Y-93299841D01*
X106126456Y-93154407D01*
X106145204Y-93000000D01*
X106126456Y-92845593D01*
X106071300Y-92700159D01*
X105982942Y-92572151D01*
X105982939Y-92572148D01*
X105982937Y-92572146D01*
X105866519Y-92469008D01*
X105728790Y-92396723D01*
X105627169Y-92371675D01*
X105577771Y-92359500D01*
X105422229Y-92359500D01*
X105385006Y-92368674D01*
X105271209Y-92396723D01*
X105133480Y-92469008D01*
X105017062Y-92572146D01*
X105017056Y-92572153D01*
X104928701Y-92700156D01*
X104873543Y-92845593D01*
X104854796Y-93000000D01*
X85500500Y-93000000D01*
X85500500Y-91320000D01*
X86404828Y-91320000D01*
X86423474Y-91521236D01*
X86478782Y-91715619D01*
X86478787Y-91715632D01*
X86568866Y-91896534D01*
X86690659Y-92057815D01*
X86840010Y-92193965D01*
X86840012Y-92193967D01*
X87011836Y-92300356D01*
X87011842Y-92300359D01*
X87051764Y-92315824D01*
X87200292Y-92373365D01*
X87398950Y-92410500D01*
X87398953Y-92410500D01*
X87601047Y-92410500D01*
X87601050Y-92410500D01*
X87799708Y-92373365D01*
X87988160Y-92300358D01*
X88159989Y-92193966D01*
X88309342Y-92057813D01*
X88353000Y-92000000D01*
X109354796Y-92000000D01*
X109373543Y-92154406D01*
X109428701Y-92299843D01*
X109466610Y-92354763D01*
X109517058Y-92427849D01*
X109517060Y-92427851D01*
X109517062Y-92427853D01*
X109633480Y-92530991D01*
X109633482Y-92530992D01*
X109771208Y-92603276D01*
X109922229Y-92640500D01*
X109922230Y-92640500D01*
X110077770Y-92640500D01*
X110077771Y-92640500D01*
X110228792Y-92603276D01*
X110366518Y-92530992D01*
X110482942Y-92427849D01*
X110571300Y-92299841D01*
X110626456Y-92154407D01*
X110645204Y-92000000D01*
X110626456Y-91845593D01*
X110571300Y-91700159D01*
X110482942Y-91572151D01*
X110482939Y-91572148D01*
X110482937Y-91572146D01*
X110366519Y-91469008D01*
X110228790Y-91396723D01*
X110127169Y-91371675D01*
X110077771Y-91359500D01*
X109922229Y-91359500D01*
X109885005Y-91368674D01*
X109771209Y-91396723D01*
X109633480Y-91469008D01*
X109517062Y-91572146D01*
X109517056Y-91572153D01*
X109428701Y-91700156D01*
X109373543Y-91845593D01*
X109354796Y-92000000D01*
X88353000Y-92000000D01*
X88431134Y-91896534D01*
X88521217Y-91715622D01*
X88576525Y-91521237D01*
X88595172Y-91320000D01*
X88576525Y-91118763D01*
X88521217Y-90924378D01*
X88431134Y-90743466D01*
X88309342Y-90582187D01*
X88309340Y-90582184D01*
X88159989Y-90446034D01*
X88159987Y-90446032D01*
X87988163Y-90339643D01*
X87988157Y-90339640D01*
X87839632Y-90282101D01*
X87799708Y-90266635D01*
X87601050Y-90229500D01*
X87398950Y-90229500D01*
X87200292Y-90266635D01*
X87200289Y-90266635D01*
X87200289Y-90266636D01*
X87011842Y-90339640D01*
X87011836Y-90339643D01*
X86840012Y-90446032D01*
X86840010Y-90446034D01*
X86690659Y-90582184D01*
X86568866Y-90743465D01*
X86478787Y-90924367D01*
X86478782Y-90924380D01*
X86423474Y-91118763D01*
X86404828Y-91319999D01*
X86404828Y-91320000D01*
X85500500Y-91320000D01*
X85500500Y-90000000D01*
X101854796Y-90000000D01*
X101873543Y-90154406D01*
X101902023Y-90229500D01*
X101928700Y-90299841D01*
X102017058Y-90427849D01*
X102017060Y-90427851D01*
X102017062Y-90427853D01*
X102133480Y-90530991D01*
X102133482Y-90530992D01*
X102271208Y-90603276D01*
X102422229Y-90640500D01*
X102422230Y-90640500D01*
X102577770Y-90640500D01*
X102577771Y-90640500D01*
X102728792Y-90603276D01*
X102866518Y-90530992D01*
X102982942Y-90427849D01*
X103071300Y-90299841D01*
X103126456Y-90154407D01*
X103145204Y-90000000D01*
X103126456Y-89845593D01*
X103071300Y-89700159D01*
X102982942Y-89572151D01*
X102982939Y-89572148D01*
X102982937Y-89572146D01*
X102866519Y-89469008D01*
X102728790Y-89396723D01*
X102627169Y-89371675D01*
X102577771Y-89359500D01*
X102422229Y-89359500D01*
X102385005Y-89368674D01*
X102271209Y-89396723D01*
X102133480Y-89469008D01*
X102017062Y-89572146D01*
X102017056Y-89572153D01*
X101928701Y-89700156D01*
X101873543Y-89845593D01*
X101854796Y-90000000D01*
X85500500Y-90000000D01*
X85500500Y-86490000D01*
X86169364Y-86490000D01*
X86226567Y-86703486D01*
X86226570Y-86703492D01*
X86326399Y-86917578D01*
X86461894Y-87111082D01*
X86628917Y-87278105D01*
X86822421Y-87413600D01*
X87036507Y-87513429D01*
X87036518Y-87513434D01*
X87091946Y-87528285D01*
X87151607Y-87564649D01*
X87182137Y-87627495D01*
X87173843Y-87696871D01*
X87129358Y-87750750D01*
X87104649Y-87763686D01*
X87011848Y-87799637D01*
X87011836Y-87799643D01*
X86840012Y-87906032D01*
X86840010Y-87906034D01*
X86690659Y-88042184D01*
X86568866Y-88203465D01*
X86478787Y-88384367D01*
X86478782Y-88384380D01*
X86423474Y-88578763D01*
X86404828Y-88779999D01*
X86404828Y-88780000D01*
X86423474Y-88981236D01*
X86478782Y-89175619D01*
X86478787Y-89175632D01*
X86568866Y-89356534D01*
X86690659Y-89517815D01*
X86840010Y-89653965D01*
X86840012Y-89653967D01*
X87011836Y-89760356D01*
X87011842Y-89760359D01*
X87051764Y-89775824D01*
X87200292Y-89833365D01*
X87398950Y-89870500D01*
X87398953Y-89870500D01*
X87601047Y-89870500D01*
X87601050Y-89870500D01*
X87799708Y-89833365D01*
X87988160Y-89760358D01*
X88159989Y-89653966D01*
X88309342Y-89517813D01*
X88431134Y-89356534D01*
X88521217Y-89175622D01*
X88576525Y-88981237D01*
X88595172Y-88780000D01*
X88576525Y-88578763D01*
X88521217Y-88384378D01*
X88508849Y-88359540D01*
X88455936Y-88253276D01*
X88431134Y-88203466D01*
X88336273Y-88077849D01*
X88309340Y-88042184D01*
X88159989Y-87906034D01*
X88159987Y-87906032D01*
X87988163Y-87799643D01*
X87988151Y-87799638D01*
X87895350Y-87763686D01*
X87839949Y-87721113D01*
X87816359Y-87655346D01*
X87817593Y-87650000D01*
X90704796Y-87650000D01*
X90723543Y-87804406D01*
X90744438Y-87859500D01*
X90771919Y-87931962D01*
X90778701Y-87949843D01*
X90824070Y-88015571D01*
X90867058Y-88077849D01*
X90867060Y-88077851D01*
X90867062Y-88077853D01*
X90983480Y-88180991D01*
X90983482Y-88180992D01*
X91121208Y-88253276D01*
X91272229Y-88290500D01*
X91272230Y-88290500D01*
X91427770Y-88290500D01*
X91427771Y-88290500D01*
X91578792Y-88253276D01*
X91716518Y-88180992D01*
X91832942Y-88077849D01*
X91886678Y-88000000D01*
X104854796Y-88000000D01*
X104873543Y-88154406D01*
X104900472Y-88225410D01*
X104925157Y-88290500D01*
X104928701Y-88299843D01*
X104960280Y-88345593D01*
X105017058Y-88427849D01*
X105017060Y-88427851D01*
X105017062Y-88427853D01*
X105133480Y-88530991D01*
X105133482Y-88530992D01*
X105271208Y-88603276D01*
X105422229Y-88640500D01*
X105422230Y-88640500D01*
X105577770Y-88640500D01*
X105577771Y-88640500D01*
X105728792Y-88603276D01*
X105866518Y-88530992D01*
X105901501Y-88500000D01*
X112854796Y-88500000D01*
X112873543Y-88654406D01*
X112913252Y-88759109D01*
X112928700Y-88799841D01*
X113017058Y-88927849D01*
X113017060Y-88927851D01*
X113017062Y-88927853D01*
X113133480Y-89030991D01*
X113133482Y-89030992D01*
X113271208Y-89103276D01*
X113422229Y-89140500D01*
X113422230Y-89140500D01*
X113577770Y-89140500D01*
X113577771Y-89140500D01*
X113728792Y-89103276D01*
X113866518Y-89030992D01*
X113982942Y-88927849D01*
X114071300Y-88799841D01*
X114126456Y-88654407D01*
X114145204Y-88500000D01*
X114145204Y-88499999D01*
X114854796Y-88499999D01*
X114873543Y-88654406D01*
X114913252Y-88759109D01*
X114928700Y-88799841D01*
X115017058Y-88927849D01*
X115017060Y-88927851D01*
X115017062Y-88927853D01*
X115133480Y-89030991D01*
X115133482Y-89030992D01*
X115271208Y-89103276D01*
X115422229Y-89140500D01*
X115422230Y-89140500D01*
X115577770Y-89140500D01*
X115577771Y-89140500D01*
X115728792Y-89103276D01*
X115866518Y-89030992D01*
X115982942Y-88927849D01*
X116071300Y-88799841D01*
X116126456Y-88654407D01*
X116145204Y-88500000D01*
X116126456Y-88345593D01*
X116071300Y-88200159D01*
X115982942Y-88072151D01*
X115982939Y-88072148D01*
X115982937Y-88072146D01*
X115866519Y-87969008D01*
X115728790Y-87896723D01*
X115627169Y-87871675D01*
X115577771Y-87859500D01*
X115422229Y-87859500D01*
X115385006Y-87868674D01*
X115271209Y-87896723D01*
X115133480Y-87969008D01*
X115017062Y-88072146D01*
X115017056Y-88072153D01*
X114928701Y-88200156D01*
X114873543Y-88345593D01*
X114854796Y-88499999D01*
X114145204Y-88499999D01*
X114126456Y-88345593D01*
X114071300Y-88200159D01*
X113982942Y-88072151D01*
X113982939Y-88072148D01*
X113982937Y-88072146D01*
X113866519Y-87969008D01*
X113728790Y-87896723D01*
X113627169Y-87871675D01*
X113577771Y-87859500D01*
X113422229Y-87859500D01*
X113385005Y-87868674D01*
X113271209Y-87896723D01*
X113133480Y-87969008D01*
X113017062Y-88072146D01*
X113017056Y-88072153D01*
X112928701Y-88200156D01*
X112873543Y-88345593D01*
X112854796Y-88500000D01*
X105901501Y-88500000D01*
X105982942Y-88427849D01*
X106071300Y-88299841D01*
X106126456Y-88154407D01*
X106145204Y-88000000D01*
X106126456Y-87845593D01*
X106071300Y-87700159D01*
X106069030Y-87696871D01*
X106040368Y-87655346D01*
X105982942Y-87572151D01*
X105982939Y-87572148D01*
X105982937Y-87572146D01*
X105901500Y-87499999D01*
X118354796Y-87499999D01*
X118373543Y-87654406D01*
X118428701Y-87799843D01*
X118458413Y-87842888D01*
X118517058Y-87927849D01*
X118517060Y-87927851D01*
X118517062Y-87927853D01*
X118633480Y-88030991D01*
X118633482Y-88030992D01*
X118771208Y-88103276D01*
X118922229Y-88140500D01*
X118922230Y-88140500D01*
X119077770Y-88140500D01*
X119077771Y-88140500D01*
X119228792Y-88103276D01*
X119366518Y-88030992D01*
X119482942Y-87927849D01*
X119488948Y-87919148D01*
X120273945Y-87919148D01*
X120292692Y-88073555D01*
X120347850Y-88218992D01*
X120352280Y-88225410D01*
X120436207Y-88346998D01*
X120436209Y-88347000D01*
X120436211Y-88347002D01*
X120552629Y-88450140D01*
X120552631Y-88450141D01*
X120690357Y-88522425D01*
X120841378Y-88559649D01*
X120841379Y-88559649D01*
X120996919Y-88559649D01*
X120996920Y-88559649D01*
X121147941Y-88522425D01*
X121285667Y-88450141D01*
X121402091Y-88346998D01*
X121490449Y-88218990D01*
X121545605Y-88073556D01*
X121554536Y-88000000D01*
X130354796Y-88000000D01*
X130373543Y-88154406D01*
X130400472Y-88225410D01*
X130425157Y-88290500D01*
X130428701Y-88299843D01*
X130460280Y-88345593D01*
X130517058Y-88427849D01*
X130517060Y-88427851D01*
X130517062Y-88427853D01*
X130633480Y-88530991D01*
X130633482Y-88530992D01*
X130771208Y-88603276D01*
X130922229Y-88640500D01*
X130922230Y-88640500D01*
X131077770Y-88640500D01*
X131077771Y-88640500D01*
X131228792Y-88603276D01*
X131366518Y-88530992D01*
X131482942Y-88427849D01*
X131571300Y-88299841D01*
X131626456Y-88154407D01*
X131645204Y-88000000D01*
X131626456Y-87845593D01*
X131571300Y-87700159D01*
X131569030Y-87696871D01*
X131540368Y-87655346D01*
X131482942Y-87572151D01*
X131482939Y-87572148D01*
X131482937Y-87572146D01*
X131401502Y-87500000D01*
X132354796Y-87500000D01*
X132373543Y-87654406D01*
X132428701Y-87799843D01*
X132458413Y-87842888D01*
X132517058Y-87927849D01*
X132517060Y-87927851D01*
X132517062Y-87927853D01*
X132633480Y-88030991D01*
X132633482Y-88030992D01*
X132771208Y-88103276D01*
X132922229Y-88140500D01*
X132922230Y-88140500D01*
X133077770Y-88140500D01*
X133077771Y-88140500D01*
X133228792Y-88103276D01*
X133366518Y-88030992D01*
X133482942Y-87927849D01*
X133571300Y-87799841D01*
X133626456Y-87654407D01*
X133645204Y-87500000D01*
X133639247Y-87450936D01*
X136495631Y-87450936D01*
X136526442Y-87652063D01*
X136526445Y-87652075D01*
X136597111Y-87842881D01*
X136597115Y-87842888D01*
X136704745Y-88015567D01*
X136704747Y-88015569D01*
X136704748Y-88015571D01*
X136844941Y-88163053D01*
X136973344Y-88252424D01*
X137011949Y-88279294D01*
X137011950Y-88279294D01*
X137011951Y-88279295D01*
X137198942Y-88359540D01*
X137398259Y-88400500D01*
X137550743Y-88400500D01*
X137702439Y-88385074D01*
X137896579Y-88324162D01*
X137896580Y-88324161D01*
X137896588Y-88324159D01*
X138074502Y-88225409D01*
X138228895Y-88092866D01*
X138353448Y-87931958D01*
X138443060Y-87749271D01*
X138494063Y-87552285D01*
X138504369Y-87349064D01*
X138473556Y-87147929D01*
X138422288Y-87009500D01*
X138402888Y-86957118D01*
X138402887Y-86957117D01*
X138402886Y-86957113D01*
X138295252Y-86784429D01*
X138155059Y-86636947D01*
X138056587Y-86568409D01*
X137988050Y-86520705D01*
X137801056Y-86440459D01*
X137601741Y-86399500D01*
X137449258Y-86399500D01*
X137449257Y-86399500D01*
X137297560Y-86414925D01*
X137103420Y-86475837D01*
X137103405Y-86475844D01*
X136925500Y-86574589D01*
X136925495Y-86574592D01*
X136771106Y-86707132D01*
X136771104Y-86707134D01*
X136646554Y-86868037D01*
X136646553Y-86868040D01*
X136556940Y-87050728D01*
X136505937Y-87247714D01*
X136495631Y-87450936D01*
X133639247Y-87450936D01*
X133626456Y-87345593D01*
X133571300Y-87200159D01*
X133482942Y-87072151D01*
X133482939Y-87072148D01*
X133482937Y-87072146D01*
X133366519Y-86969008D01*
X133228790Y-86896723D01*
X133127169Y-86871675D01*
X133077771Y-86859500D01*
X132922229Y-86859500D01*
X132887573Y-86868042D01*
X132771209Y-86896723D01*
X132633480Y-86969008D01*
X132517062Y-87072146D01*
X132517056Y-87072153D01*
X132428701Y-87200156D01*
X132373543Y-87345593D01*
X132354796Y-87500000D01*
X131401502Y-87500000D01*
X131366519Y-87469008D01*
X131300765Y-87434498D01*
X131228792Y-87396724D01*
X131228789Y-87396723D01*
X131121981Y-87370397D01*
X131061600Y-87335240D01*
X131029812Y-87273021D01*
X131036708Y-87203492D01*
X131080100Y-87148730D01*
X131121981Y-87129603D01*
X131228792Y-87103276D01*
X131366518Y-87030992D01*
X131482942Y-86927849D01*
X131571300Y-86799841D01*
X131626456Y-86654407D01*
X131645204Y-86500000D01*
X131626456Y-86345593D01*
X131571300Y-86200159D01*
X131482942Y-86072151D01*
X131482939Y-86072148D01*
X131482937Y-86072146D01*
X131366519Y-85969008D01*
X131228790Y-85896723D01*
X131127169Y-85871675D01*
X131077771Y-85859500D01*
X130922229Y-85859500D01*
X130885005Y-85868674D01*
X130771209Y-85896723D01*
X130633480Y-85969008D01*
X130517062Y-86072146D01*
X130517056Y-86072153D01*
X130428701Y-86200156D01*
X130373543Y-86345593D01*
X130354796Y-86499999D01*
X130373543Y-86654406D01*
X130428701Y-86799843D01*
X130475776Y-86868042D01*
X130517058Y-86927849D01*
X130517060Y-86927851D01*
X130517062Y-86927853D01*
X130633480Y-87030991D01*
X130633482Y-87030992D01*
X130771208Y-87103276D01*
X130878019Y-87129603D01*
X130938399Y-87164760D01*
X130970187Y-87226979D01*
X130963291Y-87296508D01*
X130919899Y-87351270D01*
X130878019Y-87370397D01*
X130771209Y-87396723D01*
X130633480Y-87469008D01*
X130517062Y-87572146D01*
X130517056Y-87572153D01*
X130428701Y-87700156D01*
X130373543Y-87845593D01*
X130354796Y-88000000D01*
X121554536Y-88000000D01*
X121564353Y-87919149D01*
X121545605Y-87764742D01*
X121490449Y-87619308D01*
X121402091Y-87491300D01*
X121402088Y-87491297D01*
X121402086Y-87491295D01*
X121285668Y-87388157D01*
X121147939Y-87315872D01*
X121046318Y-87290824D01*
X120996920Y-87278649D01*
X120841378Y-87278649D01*
X120804154Y-87287823D01*
X120690358Y-87315872D01*
X120552629Y-87388157D01*
X120436211Y-87491295D01*
X120436205Y-87491302D01*
X120347850Y-87619305D01*
X120292692Y-87764742D01*
X120273945Y-87919148D01*
X119488948Y-87919148D01*
X119571300Y-87799841D01*
X119626456Y-87654407D01*
X119645204Y-87500000D01*
X119626456Y-87345593D01*
X119571300Y-87200159D01*
X119482942Y-87072151D01*
X119482939Y-87072148D01*
X119482937Y-87072146D01*
X119366519Y-86969008D01*
X119228790Y-86896723D01*
X119127169Y-86871675D01*
X119077771Y-86859500D01*
X118922229Y-86859500D01*
X118887573Y-86868042D01*
X118771209Y-86896723D01*
X118633480Y-86969008D01*
X118517062Y-87072146D01*
X118517056Y-87072153D01*
X118428701Y-87200156D01*
X118373543Y-87345593D01*
X118354796Y-87499999D01*
X105901500Y-87499999D01*
X105866519Y-87469008D01*
X105728790Y-87396723D01*
X105621981Y-87370397D01*
X105577771Y-87359500D01*
X105422229Y-87359500D01*
X105385005Y-87368674D01*
X105271209Y-87396723D01*
X105133480Y-87469008D01*
X105017062Y-87572146D01*
X105017056Y-87572153D01*
X104928701Y-87700156D01*
X104873543Y-87845593D01*
X104854796Y-88000000D01*
X91886678Y-88000000D01*
X91921300Y-87949841D01*
X91976456Y-87804407D01*
X91995204Y-87650000D01*
X91976456Y-87495593D01*
X91921300Y-87350159D01*
X91920543Y-87349063D01*
X91868055Y-87273021D01*
X91832942Y-87222151D01*
X91832939Y-87222148D01*
X91832937Y-87222146D01*
X91716519Y-87119008D01*
X91578790Y-87046723D01*
X91477169Y-87021675D01*
X91427771Y-87009500D01*
X91272229Y-87009500D01*
X91235006Y-87018674D01*
X91121209Y-87046723D01*
X90983480Y-87119008D01*
X90867062Y-87222146D01*
X90867056Y-87222153D01*
X90778701Y-87350156D01*
X90723543Y-87495593D01*
X90704796Y-87650000D01*
X87817593Y-87650000D01*
X87832070Y-87587266D01*
X87882095Y-87538487D01*
X87908054Y-87528285D01*
X87963478Y-87513435D01*
X87963492Y-87513429D01*
X88177578Y-87413600D01*
X88371082Y-87278105D01*
X88538105Y-87111082D01*
X88673600Y-86917578D01*
X88773429Y-86703492D01*
X88773432Y-86703486D01*
X88830636Y-86490000D01*
X88113347Y-86490000D01*
X88046308Y-86470315D01*
X88000553Y-86417511D01*
X87990609Y-86348353D01*
X87994369Y-86331067D01*
X88000000Y-86311888D01*
X88000000Y-86168111D01*
X87994369Y-86148933D01*
X87994370Y-86079064D01*
X88032145Y-86020286D01*
X88095701Y-85991262D01*
X88113347Y-85990000D01*
X88830636Y-85990000D01*
X88830635Y-85989999D01*
X88773432Y-85776513D01*
X88773429Y-85776507D01*
X88673600Y-85562422D01*
X88673599Y-85562420D01*
X88538113Y-85368926D01*
X88538108Y-85368920D01*
X88371082Y-85201894D01*
X88177578Y-85066399D01*
X88092832Y-85026882D01*
X88040393Y-84980710D01*
X88021241Y-84913516D01*
X88041457Y-84846635D01*
X88094622Y-84801300D01*
X88145237Y-84790500D01*
X88373690Y-84790500D01*
X88373691Y-84790499D01*
X88443839Y-84776546D01*
X88483568Y-84750000D01*
X94104796Y-84750000D01*
X94123543Y-84904406D01*
X94134064Y-84932147D01*
X94173040Y-85034918D01*
X94178701Y-85049843D01*
X94214345Y-85101481D01*
X94267058Y-85177849D01*
X94267060Y-85177851D01*
X94267062Y-85177853D01*
X94383480Y-85280991D01*
X94383482Y-85280992D01*
X94521208Y-85353276D01*
X94672229Y-85390500D01*
X94672230Y-85390500D01*
X94827770Y-85390500D01*
X94827771Y-85390500D01*
X94978792Y-85353276D01*
X95116518Y-85280992D01*
X95232942Y-85177849D01*
X95321300Y-85049841D01*
X95340202Y-85000000D01*
X114354796Y-85000000D01*
X114373543Y-85154406D01*
X114390894Y-85200156D01*
X114428700Y-85299841D01*
X114517058Y-85427849D01*
X114517060Y-85427851D01*
X114517062Y-85427853D01*
X114633480Y-85530991D01*
X114633482Y-85530992D01*
X114771208Y-85603276D01*
X114922229Y-85640500D01*
X114922230Y-85640500D01*
X115077770Y-85640500D01*
X115077771Y-85640500D01*
X115228792Y-85603276D01*
X115366518Y-85530992D01*
X115401502Y-85499999D01*
X127354796Y-85499999D01*
X127373543Y-85654406D01*
X127428701Y-85799843D01*
X127469880Y-85859500D01*
X127517058Y-85927849D01*
X127517060Y-85927851D01*
X127517062Y-85927853D01*
X127633480Y-86030991D01*
X127633482Y-86030992D01*
X127771208Y-86103276D01*
X127922229Y-86140500D01*
X127922230Y-86140500D01*
X128077770Y-86140500D01*
X128077771Y-86140500D01*
X128228792Y-86103276D01*
X128366518Y-86030992D01*
X128482942Y-85927849D01*
X128571300Y-85799841D01*
X128626456Y-85654407D01*
X128645204Y-85500000D01*
X128626456Y-85345593D01*
X128571300Y-85200159D01*
X128482942Y-85072151D01*
X128482939Y-85072148D01*
X128482937Y-85072146D01*
X128366519Y-84969008D01*
X128228790Y-84896723D01*
X128127169Y-84871675D01*
X128077771Y-84859500D01*
X127922229Y-84859500D01*
X127908074Y-84862989D01*
X127771209Y-84896723D01*
X127633480Y-84969008D01*
X127517062Y-85072146D01*
X127517056Y-85072153D01*
X127428701Y-85200156D01*
X127373543Y-85345593D01*
X127354796Y-85499999D01*
X115401502Y-85499999D01*
X115482942Y-85427849D01*
X115571300Y-85299841D01*
X115626456Y-85154407D01*
X115645204Y-85000000D01*
X115626456Y-84845593D01*
X115571300Y-84700159D01*
X115482942Y-84572151D01*
X115482939Y-84572148D01*
X115482937Y-84572146D01*
X115401500Y-84499999D01*
X117354796Y-84499999D01*
X117373543Y-84654406D01*
X117390894Y-84700156D01*
X117428700Y-84799841D01*
X117517058Y-84927849D01*
X117517060Y-84927851D01*
X117517062Y-84927853D01*
X117633480Y-85030991D01*
X117633482Y-85030992D01*
X117771208Y-85103276D01*
X117922229Y-85140500D01*
X117922230Y-85140500D01*
X118077770Y-85140500D01*
X118077771Y-85140500D01*
X118228792Y-85103276D01*
X118366518Y-85030992D01*
X118482942Y-84927849D01*
X118571300Y-84799841D01*
X118626456Y-84654407D01*
X118645204Y-84500000D01*
X118645204Y-84499999D01*
X131354796Y-84499999D01*
X131373543Y-84654406D01*
X131390894Y-84700156D01*
X131428700Y-84799841D01*
X131517058Y-84927849D01*
X131517060Y-84927851D01*
X131517062Y-84927853D01*
X131633480Y-85030991D01*
X131633482Y-85030992D01*
X131771208Y-85103276D01*
X131922229Y-85140500D01*
X131922230Y-85140500D01*
X132077770Y-85140500D01*
X132077771Y-85140500D01*
X132228792Y-85103276D01*
X132228792Y-85103275D01*
X132236074Y-85101481D01*
X132236840Y-85104590D01*
X132292005Y-85100293D01*
X132353540Y-85133387D01*
X132382360Y-85177653D01*
X132428700Y-85299841D01*
X132428700Y-85299842D01*
X132476382Y-85368920D01*
X132517058Y-85427849D01*
X132517060Y-85427851D01*
X132517062Y-85427853D01*
X132633480Y-85530991D01*
X132633482Y-85530992D01*
X132771208Y-85603276D01*
X132922229Y-85640500D01*
X132922230Y-85640500D01*
X133077770Y-85640500D01*
X133077771Y-85640500D01*
X133228792Y-85603276D01*
X133366518Y-85530992D01*
X133482942Y-85427849D01*
X133571300Y-85299841D01*
X133626456Y-85154407D01*
X133645204Y-85000000D01*
X133626456Y-84845593D01*
X133571300Y-84700159D01*
X133482942Y-84572151D01*
X133482939Y-84572148D01*
X133482937Y-84572146D01*
X133366519Y-84469008D01*
X133228790Y-84396723D01*
X133105988Y-84366455D01*
X133077771Y-84359500D01*
X132922229Y-84359500D01*
X132771208Y-84396724D01*
X132763926Y-84398519D01*
X132763168Y-84395444D01*
X132707775Y-84399660D01*
X132646300Y-84366455D01*
X132617640Y-84322348D01*
X132571300Y-84200159D01*
X132482942Y-84072151D01*
X132482939Y-84072148D01*
X132482937Y-84072146D01*
X132366519Y-83969008D01*
X132228790Y-83896723D01*
X132127169Y-83871675D01*
X132077771Y-83859500D01*
X131922229Y-83859500D01*
X131885006Y-83868674D01*
X131771209Y-83896723D01*
X131633480Y-83969008D01*
X131517062Y-84072146D01*
X131517056Y-84072153D01*
X131428701Y-84200156D01*
X131373543Y-84345593D01*
X131354796Y-84499999D01*
X118645204Y-84499999D01*
X118626456Y-84345593D01*
X118571300Y-84200159D01*
X118482942Y-84072151D01*
X118482939Y-84072148D01*
X118482937Y-84072146D01*
X118366519Y-83969008D01*
X118228790Y-83896723D01*
X118127169Y-83871675D01*
X118077771Y-83859500D01*
X117922229Y-83859500D01*
X117885005Y-83868674D01*
X117771209Y-83896723D01*
X117633480Y-83969008D01*
X117517062Y-84072146D01*
X117517056Y-84072153D01*
X117428701Y-84200156D01*
X117373543Y-84345593D01*
X117354796Y-84499999D01*
X115401500Y-84499999D01*
X115366519Y-84469008D01*
X115228790Y-84396723D01*
X115105988Y-84366455D01*
X115077771Y-84359500D01*
X114922229Y-84359500D01*
X114894012Y-84366455D01*
X114771209Y-84396723D01*
X114633480Y-84469008D01*
X114517062Y-84572146D01*
X114517056Y-84572153D01*
X114428701Y-84700156D01*
X114373543Y-84845593D01*
X114354796Y-85000000D01*
X95340202Y-85000000D01*
X95376456Y-84904407D01*
X95395204Y-84750000D01*
X95376456Y-84595593D01*
X95321300Y-84450159D01*
X95232942Y-84322151D01*
X95232939Y-84322148D01*
X95232937Y-84322146D01*
X95116519Y-84219008D01*
X94978790Y-84146723D01*
X94877169Y-84121675D01*
X94827771Y-84109500D01*
X94672229Y-84109500D01*
X94635005Y-84118674D01*
X94521209Y-84146723D01*
X94383480Y-84219008D01*
X94267062Y-84322146D01*
X94267056Y-84322153D01*
X94178701Y-84450156D01*
X94123543Y-84595593D01*
X94104796Y-84750000D01*
X88483568Y-84750000D01*
X88523391Y-84723391D01*
X88576546Y-84643839D01*
X88590500Y-84573688D01*
X88590500Y-82826312D01*
X88590500Y-82826309D01*
X88590499Y-82826307D01*
X88576547Y-82756165D01*
X88576546Y-82756164D01*
X88576546Y-82756161D01*
X88523391Y-82676609D01*
X88443839Y-82623454D01*
X88443837Y-82623453D01*
X88443834Y-82623452D01*
X88373691Y-82609500D01*
X88373688Y-82609500D01*
X86626312Y-82609500D01*
X86626309Y-82609500D01*
X86556165Y-82623452D01*
X86556161Y-82623454D01*
X86476609Y-82676609D01*
X86423454Y-82756161D01*
X86423452Y-82756165D01*
X86409500Y-82826307D01*
X86409500Y-84573692D01*
X86423452Y-84643834D01*
X86423453Y-84643837D01*
X86423454Y-84643839D01*
X86476609Y-84723391D01*
X86556161Y-84776546D01*
X86556164Y-84776546D01*
X86556165Y-84776547D01*
X86626307Y-84790499D01*
X86626310Y-84790500D01*
X86854763Y-84790500D01*
X86921802Y-84810185D01*
X86967557Y-84862989D01*
X86977501Y-84932147D01*
X86948476Y-84995703D01*
X86907168Y-85026882D01*
X86822422Y-85066399D01*
X86822420Y-85066400D01*
X86628926Y-85201886D01*
X86628920Y-85201891D01*
X86461891Y-85368920D01*
X86461886Y-85368926D01*
X86326400Y-85562420D01*
X86326399Y-85562422D01*
X86226570Y-85776507D01*
X86226567Y-85776513D01*
X86169364Y-85989999D01*
X86169364Y-85990000D01*
X86886653Y-85990000D01*
X86953692Y-86009685D01*
X86999447Y-86062489D01*
X87009391Y-86131647D01*
X87005631Y-86148933D01*
X87000000Y-86168111D01*
X87000000Y-86311888D01*
X87005631Y-86331067D01*
X87005630Y-86400936D01*
X86967855Y-86459714D01*
X86904299Y-86488738D01*
X86886653Y-86490000D01*
X86169364Y-86490000D01*
X85500500Y-86490000D01*
X85500500Y-79555000D01*
X115904828Y-79555000D01*
X115923474Y-79756236D01*
X115978782Y-79950619D01*
X115978787Y-79950632D01*
X116068866Y-80131534D01*
X116190659Y-80292815D01*
X116340010Y-80428965D01*
X116340012Y-80428967D01*
X116511836Y-80535356D01*
X116511842Y-80535359D01*
X116551764Y-80550824D01*
X116700292Y-80608365D01*
X116898950Y-80645500D01*
X116898953Y-80645500D01*
X117101047Y-80645500D01*
X117101050Y-80645500D01*
X117299708Y-80608365D01*
X117488160Y-80535358D01*
X117659989Y-80428966D01*
X117809342Y-80292813D01*
X117931134Y-80131534D01*
X118021217Y-79950622D01*
X118076525Y-79756237D01*
X118095172Y-79555000D01*
X118076525Y-79353763D01*
X118021217Y-79159378D01*
X117931134Y-78978466D01*
X117809342Y-78817187D01*
X117809340Y-78817184D01*
X117659989Y-78681034D01*
X117659987Y-78681032D01*
X117488163Y-78574643D01*
X117488157Y-78574640D01*
X117339632Y-78517101D01*
X117299708Y-78501635D01*
X117101050Y-78464500D01*
X116898950Y-78464500D01*
X116700292Y-78501635D01*
X116700289Y-78501635D01*
X116700289Y-78501636D01*
X116511842Y-78574640D01*
X116511836Y-78574643D01*
X116340012Y-78681032D01*
X116340010Y-78681034D01*
X116190659Y-78817184D01*
X116068866Y-78978465D01*
X115978787Y-79159367D01*
X115978782Y-79159380D01*
X115923474Y-79353763D01*
X115904828Y-79554999D01*
X115904828Y-79555000D01*
X85500500Y-79555000D01*
X85500500Y-75000000D01*
X87454709Y-75000000D01*
X87473856Y-75340959D01*
X87473858Y-75340971D01*
X87509636Y-75551547D01*
X87531061Y-75677641D01*
X87625601Y-76005796D01*
X87729220Y-76255956D01*
X87756287Y-76321300D01*
X87921480Y-76620196D01*
X87921483Y-76620201D01*
X88117688Y-76896724D01*
X88119096Y-76898708D01*
X88346654Y-77153346D01*
X88601292Y-77380904D01*
X88601295Y-77380906D01*
X88601296Y-77380907D01*
X88879798Y-77578516D01*
X88879803Y-77578519D01*
X88879806Y-77578520D01*
X88879808Y-77578522D01*
X89178698Y-77743712D01*
X89494204Y-77874399D01*
X89822359Y-77968939D01*
X90159036Y-78026143D01*
X90500000Y-78045291D01*
X90840964Y-78026143D01*
X91177641Y-77968939D01*
X91505796Y-77874399D01*
X91821302Y-77743712D01*
X92120192Y-77578522D01*
X92120197Y-77578518D01*
X92120201Y-77578516D01*
X92356824Y-77410622D01*
X92398708Y-77380904D01*
X92653346Y-77153346D01*
X92776979Y-77015000D01*
X115904828Y-77015000D01*
X115923474Y-77216236D01*
X115978782Y-77410619D01*
X115978787Y-77410632D01*
X116068866Y-77591534D01*
X116190659Y-77752815D01*
X116340010Y-77888965D01*
X116340012Y-77888967D01*
X116511836Y-77995356D01*
X116511842Y-77995359D01*
X116523822Y-78000000D01*
X116700292Y-78068365D01*
X116898950Y-78105500D01*
X116898953Y-78105500D01*
X117101047Y-78105500D01*
X117101050Y-78105500D01*
X117299708Y-78068365D01*
X117488160Y-77995358D01*
X117659989Y-77888966D01*
X117809342Y-77752813D01*
X117931134Y-77591534D01*
X117986043Y-77481262D01*
X121836059Y-77481262D01*
X121854806Y-77635669D01*
X121909964Y-77781106D01*
X121954477Y-77845593D01*
X121998321Y-77909112D01*
X121998323Y-77909114D01*
X121998325Y-77909116D01*
X122114743Y-78012254D01*
X122114745Y-78012255D01*
X122252471Y-78084539D01*
X122403492Y-78121763D01*
X122403493Y-78121763D01*
X122559033Y-78121763D01*
X122559034Y-78121763D01*
X122710055Y-78084539D01*
X122847781Y-78012255D01*
X122861614Y-78000000D01*
X123604796Y-78000000D01*
X123623543Y-78154406D01*
X123646741Y-78215572D01*
X123678700Y-78299841D01*
X123767058Y-78427849D01*
X123767060Y-78427851D01*
X123767062Y-78427853D01*
X123883480Y-78530991D01*
X123883482Y-78530992D01*
X124021208Y-78603276D01*
X124172229Y-78640500D01*
X124172230Y-78640500D01*
X124327770Y-78640500D01*
X124327771Y-78640500D01*
X124478792Y-78603276D01*
X124616518Y-78530992D01*
X124732942Y-78427849D01*
X124821300Y-78299841D01*
X124876456Y-78154407D01*
X124895204Y-78000000D01*
X124876456Y-77845593D01*
X124821300Y-77700159D01*
X124732942Y-77572151D01*
X124732939Y-77572148D01*
X124732937Y-77572146D01*
X124651502Y-77500000D01*
X131354796Y-77500000D01*
X131373543Y-77654406D01*
X131428701Y-77799843D01*
X131495573Y-77896723D01*
X131517058Y-77927849D01*
X131517060Y-77927851D01*
X131517062Y-77927853D01*
X131633480Y-78030991D01*
X131633482Y-78030992D01*
X131771208Y-78103276D01*
X131812938Y-78113561D01*
X131873318Y-78148716D01*
X131905107Y-78210935D01*
X131899205Y-78277929D01*
X131873544Y-78345591D01*
X131854796Y-78499999D01*
X131873543Y-78654406D01*
X131928701Y-78799843D01*
X131969880Y-78859500D01*
X132017058Y-78927849D01*
X132017060Y-78927851D01*
X132017062Y-78927853D01*
X132133480Y-79030991D01*
X132133482Y-79030992D01*
X132271208Y-79103276D01*
X132312938Y-79113561D01*
X132373318Y-79148716D01*
X132405107Y-79210935D01*
X132399205Y-79277929D01*
X132373544Y-79345591D01*
X132354796Y-79500000D01*
X132373544Y-79654407D01*
X132399205Y-79722070D01*
X132404572Y-79791733D01*
X132371425Y-79853239D01*
X132312939Y-79886438D01*
X132271209Y-79896723D01*
X132133480Y-79969008D01*
X132017062Y-80072146D01*
X132017056Y-80072153D01*
X131928701Y-80200156D01*
X131873543Y-80345593D01*
X131854796Y-80499999D01*
X131873543Y-80654406D01*
X131913252Y-80759109D01*
X131928700Y-80799841D01*
X132017058Y-80927849D01*
X132017060Y-80927851D01*
X132017062Y-80927853D01*
X132133480Y-81030991D01*
X132133482Y-81030992D01*
X132271208Y-81103276D01*
X132422229Y-81140500D01*
X132422230Y-81140500D01*
X132577770Y-81140500D01*
X132577771Y-81140500D01*
X132728792Y-81103276D01*
X132866518Y-81030992D01*
X132982942Y-80927849D01*
X133071300Y-80799841D01*
X133126456Y-80654407D01*
X133145204Y-80500000D01*
X133126456Y-80345593D01*
X133100793Y-80277927D01*
X133095427Y-80208267D01*
X133128574Y-80146760D01*
X133187061Y-80113561D01*
X133228792Y-80103276D01*
X133366518Y-80030992D01*
X133482942Y-79927849D01*
X133571300Y-79799841D01*
X133626456Y-79654407D01*
X133645204Y-79500000D01*
X133626456Y-79345593D01*
X133571300Y-79200159D01*
X133482942Y-79072151D01*
X133482939Y-79072148D01*
X133482937Y-79072146D01*
X133366519Y-78969008D01*
X133228790Y-78896723D01*
X133187061Y-78886438D01*
X133126680Y-78851281D01*
X133094892Y-78789062D01*
X133100795Y-78722068D01*
X133126456Y-78654407D01*
X133145204Y-78500000D01*
X133126456Y-78345593D01*
X133071300Y-78200159D01*
X132982942Y-78072151D01*
X132982939Y-78072148D01*
X132982937Y-78072146D01*
X132866519Y-77969008D01*
X132728790Y-77896723D01*
X132687061Y-77886438D01*
X132626680Y-77851281D01*
X132594892Y-77789062D01*
X132600795Y-77722068D01*
X132626456Y-77654407D01*
X132626877Y-77650936D01*
X136495631Y-77650936D01*
X136526442Y-77852063D01*
X136526445Y-77852075D01*
X136597111Y-78042881D01*
X136597113Y-78042884D01*
X136597114Y-78042887D01*
X136636141Y-78105500D01*
X136704745Y-78215567D01*
X136704747Y-78215569D01*
X136704748Y-78215571D01*
X136844941Y-78363053D01*
X136973344Y-78452424D01*
X137011949Y-78479294D01*
X137011950Y-78479294D01*
X137011951Y-78479295D01*
X137198942Y-78559540D01*
X137398259Y-78600500D01*
X137550743Y-78600500D01*
X137702439Y-78585074D01*
X137896579Y-78524162D01*
X137896580Y-78524161D01*
X137896588Y-78524159D01*
X138074502Y-78425409D01*
X138228895Y-78292866D01*
X138353448Y-78131958D01*
X138443060Y-77949271D01*
X138494063Y-77752285D01*
X138504369Y-77549064D01*
X138473556Y-77347929D01*
X138402886Y-77157113D01*
X138295252Y-76984429D01*
X138155059Y-76836947D01*
X138056587Y-76768409D01*
X137988050Y-76720705D01*
X137801056Y-76640459D01*
X137601741Y-76599500D01*
X137449258Y-76599500D01*
X137449257Y-76599500D01*
X137297560Y-76614925D01*
X137103420Y-76675837D01*
X137103405Y-76675844D01*
X136925500Y-76774589D01*
X136925495Y-76774592D01*
X136771106Y-76907132D01*
X136771104Y-76907134D01*
X136646554Y-77068037D01*
X136646553Y-77068040D01*
X136556940Y-77250728D01*
X136505937Y-77447714D01*
X136495631Y-77650936D01*
X132626877Y-77650936D01*
X132645204Y-77500000D01*
X132626456Y-77345593D01*
X132571300Y-77200159D01*
X132482942Y-77072151D01*
X132482939Y-77072148D01*
X132482937Y-77072146D01*
X132366519Y-76969008D01*
X132228790Y-76896723D01*
X132127169Y-76871675D01*
X132077771Y-76859500D01*
X131922229Y-76859500D01*
X131885006Y-76868674D01*
X131771209Y-76896723D01*
X131633480Y-76969008D01*
X131517062Y-77072146D01*
X131517056Y-77072153D01*
X131428701Y-77200156D01*
X131373543Y-77345593D01*
X131354796Y-77500000D01*
X124651502Y-77500000D01*
X124616519Y-77469008D01*
X124478790Y-77396723D01*
X124377169Y-77371675D01*
X124327771Y-77359500D01*
X124172229Y-77359500D01*
X124135005Y-77368674D01*
X124021209Y-77396723D01*
X123883480Y-77469008D01*
X123767062Y-77572146D01*
X123767056Y-77572153D01*
X123678701Y-77700156D01*
X123623543Y-77845593D01*
X123604796Y-78000000D01*
X122861614Y-78000000D01*
X122964205Y-77909112D01*
X123052563Y-77781104D01*
X123107719Y-77635670D01*
X123126467Y-77481263D01*
X123107719Y-77326856D01*
X123052563Y-77181422D01*
X122964205Y-77053414D01*
X122964202Y-77053411D01*
X122964200Y-77053409D01*
X122847782Y-76950271D01*
X122710053Y-76877986D01*
X122608432Y-76852938D01*
X122559034Y-76840763D01*
X122403492Y-76840763D01*
X122366268Y-76849937D01*
X122252472Y-76877986D01*
X122114743Y-76950271D01*
X121998325Y-77053409D01*
X121998319Y-77053416D01*
X121909964Y-77181419D01*
X121854806Y-77326856D01*
X121836059Y-77481262D01*
X117986043Y-77481262D01*
X118021217Y-77410622D01*
X118076525Y-77216237D01*
X118095172Y-77015000D01*
X118076525Y-76813763D01*
X118021217Y-76619378D01*
X118019000Y-76614926D01*
X117977310Y-76531200D01*
X117931134Y-76438466D01*
X117809342Y-76277187D01*
X117809340Y-76277184D01*
X117659989Y-76141034D01*
X117659987Y-76141032D01*
X117488163Y-76034643D01*
X117488157Y-76034640D01*
X117339632Y-75977101D01*
X117299708Y-75961635D01*
X117101050Y-75924500D01*
X116898950Y-75924500D01*
X116700292Y-75961635D01*
X116700289Y-75961635D01*
X116700289Y-75961636D01*
X116511842Y-76034640D01*
X116511836Y-76034643D01*
X116340012Y-76141032D01*
X116340010Y-76141034D01*
X116190659Y-76277184D01*
X116068866Y-76438465D01*
X115978787Y-76619367D01*
X115978782Y-76619380D01*
X115923474Y-76813763D01*
X115904828Y-77014999D01*
X115904828Y-77015000D01*
X92776979Y-77015000D01*
X92880904Y-76898708D01*
X93078522Y-76620192D01*
X93243712Y-76321302D01*
X93374399Y-76005796D01*
X93468939Y-75677641D01*
X93524830Y-75348692D01*
X115909500Y-75348692D01*
X115923452Y-75418834D01*
X115923453Y-75418837D01*
X115923454Y-75418839D01*
X115976609Y-75498391D01*
X116056161Y-75551546D01*
X116056164Y-75551546D01*
X116056165Y-75551547D01*
X116126307Y-75565499D01*
X116126310Y-75565500D01*
X116126312Y-75565500D01*
X117873690Y-75565500D01*
X117873691Y-75565499D01*
X117943839Y-75551546D01*
X118023391Y-75498391D01*
X118076546Y-75418839D01*
X118090500Y-75348688D01*
X118090500Y-74302500D01*
X120729828Y-74302500D01*
X120748469Y-74491769D01*
X120748470Y-74491771D01*
X120803678Y-74673769D01*
X120893331Y-74841499D01*
X120893332Y-74841500D01*
X121013984Y-74988515D01*
X121027979Y-75000000D01*
X121161001Y-75109169D01*
X121328731Y-75198822D01*
X121510729Y-75254030D01*
X121510728Y-75254030D01*
X121527698Y-75255701D01*
X121700000Y-75272672D01*
X121889271Y-75254030D01*
X122071269Y-75198822D01*
X122238999Y-75109169D01*
X122386015Y-74988515D01*
X122506669Y-74841499D01*
X122596322Y-74673769D01*
X122651530Y-74491771D01*
X122670172Y-74302500D01*
X122670172Y-74302499D01*
X125729828Y-74302499D01*
X125748469Y-74491769D01*
X125748470Y-74491771D01*
X125803678Y-74673769D01*
X125893331Y-74841499D01*
X125893332Y-74841500D01*
X126013984Y-74988515D01*
X126027979Y-75000000D01*
X126161001Y-75109169D01*
X126328731Y-75198822D01*
X126510729Y-75254030D01*
X126510728Y-75254030D01*
X126527698Y-75255701D01*
X126700000Y-75272672D01*
X126889271Y-75254030D01*
X127071269Y-75198822D01*
X127238999Y-75109169D01*
X127372021Y-75000000D01*
X153454709Y-75000000D01*
X153473856Y-75340959D01*
X153473858Y-75340971D01*
X153509636Y-75551547D01*
X153531061Y-75677641D01*
X153625601Y-76005796D01*
X153729221Y-76255956D01*
X153756287Y-76321300D01*
X153921480Y-76620196D01*
X153921483Y-76620201D01*
X154117688Y-76896724D01*
X154119096Y-76898708D01*
X154346654Y-77153346D01*
X154601292Y-77380904D01*
X154601295Y-77380906D01*
X154601296Y-77380907D01*
X154879798Y-77578516D01*
X154879803Y-77578519D01*
X154879806Y-77578520D01*
X154879808Y-77578522D01*
X155178698Y-77743712D01*
X155494204Y-77874399D01*
X155822359Y-77968939D01*
X156159036Y-78026143D01*
X156500000Y-78045291D01*
X156840964Y-78026143D01*
X157177641Y-77968939D01*
X157505796Y-77874399D01*
X157821302Y-77743712D01*
X158120192Y-77578522D01*
X158120197Y-77578518D01*
X158120201Y-77578516D01*
X158356824Y-77410622D01*
X158398708Y-77380904D01*
X158653346Y-77153346D01*
X158880904Y-76898708D01*
X159078522Y-76620192D01*
X159243712Y-76321302D01*
X159374399Y-76005796D01*
X159468939Y-75677641D01*
X159526143Y-75340964D01*
X159545291Y-75000000D01*
X159526143Y-74659036D01*
X159468939Y-74322359D01*
X159374399Y-73994204D01*
X159243712Y-73678698D01*
X159078522Y-73379808D01*
X159078520Y-73379806D01*
X159078519Y-73379803D01*
X159078516Y-73379798D01*
X158880907Y-73101296D01*
X158880906Y-73101295D01*
X158880904Y-73101292D01*
X158653346Y-72846654D01*
X158398708Y-72619096D01*
X158398705Y-72619094D01*
X158398703Y-72619092D01*
X158120201Y-72421483D01*
X158120196Y-72421480D01*
X157821300Y-72256287D01*
X157739612Y-72222451D01*
X157505796Y-72125601D01*
X157421448Y-72101300D01*
X157177646Y-72031062D01*
X157177637Y-72031060D01*
X156840971Y-71973858D01*
X156840959Y-71973856D01*
X156500000Y-71954709D01*
X156159040Y-71973856D01*
X156159028Y-71973858D01*
X155822362Y-72031060D01*
X155822353Y-72031062D01*
X155494207Y-72125600D01*
X155494204Y-72125601D01*
X155401796Y-72163877D01*
X155178699Y-72256287D01*
X154879803Y-72421480D01*
X154879798Y-72421483D01*
X154601296Y-72619092D01*
X154346654Y-72846654D01*
X154119092Y-73101296D01*
X153921483Y-73379798D01*
X153921480Y-73379803D01*
X153756287Y-73678699D01*
X153625600Y-73994207D01*
X153531062Y-74322353D01*
X153531060Y-74322362D01*
X153473858Y-74659028D01*
X153473856Y-74659040D01*
X153454709Y-75000000D01*
X127372021Y-75000000D01*
X127386015Y-74988515D01*
X127506669Y-74841499D01*
X127596322Y-74673769D01*
X127651530Y-74491771D01*
X127670172Y-74302500D01*
X127651530Y-74113229D01*
X127596322Y-73931231D01*
X127506669Y-73763501D01*
X127437073Y-73678699D01*
X127386015Y-73616484D01*
X127239000Y-73495832D01*
X127238999Y-73495831D01*
X127071269Y-73406178D01*
X126889271Y-73350970D01*
X126889269Y-73350969D01*
X126889271Y-73350969D01*
X126700000Y-73332328D01*
X126510730Y-73350969D01*
X126328731Y-73406178D01*
X126160999Y-73495832D01*
X126013984Y-73616484D01*
X125893332Y-73763499D01*
X125803678Y-73931231D01*
X125748469Y-74113230D01*
X125729828Y-74302499D01*
X122670172Y-74302499D01*
X122651530Y-74113229D01*
X122596322Y-73931231D01*
X122506669Y-73763501D01*
X122437073Y-73678699D01*
X122386015Y-73616484D01*
X122239000Y-73495832D01*
X122238999Y-73495831D01*
X122071269Y-73406178D01*
X121889271Y-73350970D01*
X121889269Y-73350969D01*
X121889271Y-73350969D01*
X121700000Y-73332328D01*
X121510730Y-73350969D01*
X121328731Y-73406178D01*
X121160999Y-73495832D01*
X121013984Y-73616484D01*
X120893332Y-73763499D01*
X120803678Y-73931231D01*
X120748469Y-74113230D01*
X120729828Y-74302500D01*
X118090500Y-74302500D01*
X118090500Y-73601312D01*
X118090500Y-73601309D01*
X118090499Y-73601307D01*
X118076547Y-73531165D01*
X118076546Y-73531164D01*
X118076546Y-73531161D01*
X118023391Y-73451609D01*
X117943839Y-73398454D01*
X117943837Y-73398453D01*
X117943834Y-73398452D01*
X117873691Y-73384500D01*
X117873688Y-73384500D01*
X116126312Y-73384500D01*
X116126309Y-73384500D01*
X116056165Y-73398452D01*
X116056161Y-73398454D01*
X115976609Y-73451609D01*
X115923454Y-73531161D01*
X115923452Y-73531165D01*
X115909500Y-73601307D01*
X115909500Y-75348692D01*
X93524830Y-75348692D01*
X93526143Y-75340964D01*
X93545291Y-75000000D01*
X93526143Y-74659036D01*
X93468939Y-74322359D01*
X93374399Y-73994204D01*
X93243712Y-73678698D01*
X93078522Y-73379808D01*
X93078520Y-73379806D01*
X93078519Y-73379803D01*
X93078516Y-73379798D01*
X92880907Y-73101296D01*
X92880906Y-73101295D01*
X92880904Y-73101292D01*
X92653346Y-72846654D01*
X92398708Y-72619096D01*
X92398705Y-72619094D01*
X92398703Y-72619092D01*
X92120201Y-72421483D01*
X92120196Y-72421480D01*
X91821300Y-72256287D01*
X91739612Y-72222451D01*
X91505796Y-72125601D01*
X91421448Y-72101300D01*
X91177646Y-72031062D01*
X91177637Y-72031060D01*
X90983472Y-71998070D01*
X119859500Y-71998070D01*
X119874310Y-72134248D01*
X119932685Y-72307498D01*
X120026938Y-72464148D01*
X120152663Y-72596874D01*
X120303981Y-72699471D01*
X120389740Y-72733640D01*
X120473811Y-72767137D01*
X120473813Y-72767137D01*
X120473817Y-72767139D01*
X120654228Y-72796716D01*
X120836780Y-72786818D01*
X120975148Y-72748400D01*
X121012933Y-72737910D01*
X121012933Y-72737909D01*
X121012936Y-72737909D01*
X121174459Y-72652275D01*
X121313797Y-72533920D01*
X121424435Y-72388378D01*
X121501199Y-72222455D01*
X121540500Y-72043910D01*
X121540500Y-71998070D01*
X126859500Y-71998070D01*
X126874310Y-72134248D01*
X126932685Y-72307498D01*
X127026938Y-72464148D01*
X127152663Y-72596874D01*
X127303981Y-72699471D01*
X127389740Y-72733640D01*
X127473811Y-72767137D01*
X127473813Y-72767137D01*
X127473817Y-72767139D01*
X127654228Y-72796716D01*
X127836780Y-72786818D01*
X127975148Y-72748400D01*
X128012933Y-72737910D01*
X128012933Y-72737909D01*
X128012936Y-72737909D01*
X128174459Y-72652275D01*
X128313797Y-72533920D01*
X128424435Y-72388378D01*
X128501199Y-72222455D01*
X128540500Y-72043910D01*
X128540500Y-71206930D01*
X128525690Y-71070752D01*
X128467315Y-70897502D01*
X128373062Y-70740852D01*
X128247337Y-70608126D01*
X128096019Y-70505529D01*
X128096017Y-70505528D01*
X127926188Y-70437862D01*
X127926184Y-70437861D01*
X127890100Y-70431945D01*
X127745772Y-70408284D01*
X127745768Y-70408284D01*
X127563221Y-70418181D01*
X127563214Y-70418183D01*
X127387066Y-70467089D01*
X127387060Y-70467092D01*
X127225542Y-70552723D01*
X127086203Y-70671079D01*
X126975564Y-70816622D01*
X126975563Y-70816624D01*
X126898802Y-70982540D01*
X126898799Y-70982548D01*
X126859500Y-71161089D01*
X126859500Y-71161090D01*
X126859500Y-71998070D01*
X121540500Y-71998070D01*
X121540500Y-71206930D01*
X121525690Y-71070752D01*
X121467315Y-70897502D01*
X121373062Y-70740852D01*
X121247337Y-70608126D01*
X121096019Y-70505529D01*
X121096017Y-70505528D01*
X120926188Y-70437862D01*
X120926184Y-70437861D01*
X120890100Y-70431945D01*
X120745772Y-70408284D01*
X120745768Y-70408284D01*
X120563221Y-70418181D01*
X120563214Y-70418183D01*
X120387066Y-70467089D01*
X120387060Y-70467092D01*
X120225542Y-70552723D01*
X120086203Y-70671079D01*
X119975564Y-70816622D01*
X119975563Y-70816624D01*
X119898802Y-70982540D01*
X119898799Y-70982548D01*
X119859500Y-71161089D01*
X119859500Y-71161090D01*
X119859500Y-71998070D01*
X90983472Y-71998070D01*
X90840971Y-71973858D01*
X90840959Y-71973856D01*
X90500000Y-71954709D01*
X90159040Y-71973856D01*
X90159028Y-71973858D01*
X89822362Y-72031060D01*
X89822353Y-72031062D01*
X89494207Y-72125600D01*
X89494204Y-72125601D01*
X89401796Y-72163877D01*
X89178699Y-72256287D01*
X88879803Y-72421480D01*
X88879798Y-72421483D01*
X88601296Y-72619092D01*
X88346654Y-72846654D01*
X88119092Y-73101296D01*
X87921483Y-73379798D01*
X87921480Y-73379803D01*
X87756287Y-73678699D01*
X87625600Y-73994207D01*
X87531062Y-74322353D01*
X87531060Y-74322362D01*
X87473858Y-74659028D01*
X87473856Y-74659040D01*
X87454709Y-75000000D01*
X85500500Y-75000000D01*
X85500500Y-72002035D01*
X85500633Y-71997980D01*
X85502393Y-71971103D01*
X85505989Y-71916244D01*
X85518986Y-71734536D01*
X85520014Y-71726903D01*
X85543153Y-71610579D01*
X85544118Y-71606141D01*
X85574533Y-71466323D01*
X85576392Y-71459625D01*
X85616815Y-71340543D01*
X85666159Y-71208251D01*
X85668633Y-71202520D01*
X85725583Y-71087036D01*
X85792179Y-70965076D01*
X85795019Y-70960384D01*
X85866563Y-70853311D01*
X85868428Y-70850676D01*
X85950291Y-70741321D01*
X85953244Y-70737678D01*
X86038503Y-70640459D01*
X86041198Y-70637581D01*
X86137581Y-70541198D01*
X86140459Y-70538503D01*
X86237678Y-70453244D01*
X86241321Y-70450291D01*
X86350676Y-70368428D01*
X86353311Y-70366563D01*
X86460384Y-70295019D01*
X86465076Y-70292179D01*
X86587036Y-70225583D01*
X86702520Y-70168633D01*
X86708251Y-70166159D01*
X86840543Y-70116815D01*
X86959625Y-70076392D01*
X86966323Y-70074533D01*
X87110548Y-70043158D01*
X87226903Y-70020014D01*
X87234536Y-70018986D01*
X87416244Y-70005989D01*
X87469211Y-70002517D01*
X87497981Y-70000633D01*
X87502036Y-70000500D01*
X159497964Y-70000500D01*
X159502019Y-70000633D01*
G37*
%TD.AperFunction*%
%TD*%
M02*
