%TF.GenerationSoftware,KiCad,Pcbnew,7.0.7-7.0.7~ubuntu22.04.1*%
%TF.CreationDate,2023-10-05T15:00:09-04:00*%
%TF.ProjectId,esp32_sensor_board,65737033-325f-4736-956e-736f725f626f,rev?*%
%TF.SameCoordinates,Original*%
%TF.FileFunction,Legend,Bot*%
%TF.FilePolarity,Positive*%
%FSLAX46Y46*%
G04 Gerber Fmt 4.6, Leading zero omitted, Abs format (unit mm)*
G04 Created by KiCad (PCBNEW 7.0.7-7.0.7~ubuntu22.04.1) date 2023-10-05 15:00:09*
%MOMM*%
%LPD*%
G01*
G04 APERTURE LIST*
%ADD10C,0.150000*%
%ADD11C,0.010000*%
G04 APERTURE END LIST*
D10*
X123663220Y-106076009D02*
X123329887Y-106076009D01*
X123187030Y-106599819D02*
X123663220Y-106599819D01*
X123663220Y-106599819D02*
X123663220Y-105599819D01*
X123663220Y-105599819D02*
X123187030Y-105599819D01*
X122806077Y-106552200D02*
X122663220Y-106599819D01*
X122663220Y-106599819D02*
X122425125Y-106599819D01*
X122425125Y-106599819D02*
X122329887Y-106552200D01*
X122329887Y-106552200D02*
X122282268Y-106504580D01*
X122282268Y-106504580D02*
X122234649Y-106409342D01*
X122234649Y-106409342D02*
X122234649Y-106314104D01*
X122234649Y-106314104D02*
X122282268Y-106218866D01*
X122282268Y-106218866D02*
X122329887Y-106171247D01*
X122329887Y-106171247D02*
X122425125Y-106123628D01*
X122425125Y-106123628D02*
X122615601Y-106076009D01*
X122615601Y-106076009D02*
X122710839Y-106028390D01*
X122710839Y-106028390D02*
X122758458Y-105980771D01*
X122758458Y-105980771D02*
X122806077Y-105885533D01*
X122806077Y-105885533D02*
X122806077Y-105790295D01*
X122806077Y-105790295D02*
X122758458Y-105695057D01*
X122758458Y-105695057D02*
X122710839Y-105647438D01*
X122710839Y-105647438D02*
X122615601Y-105599819D01*
X122615601Y-105599819D02*
X122377506Y-105599819D01*
X122377506Y-105599819D02*
X122234649Y-105647438D01*
X121806077Y-106599819D02*
X121806077Y-105599819D01*
X121806077Y-105599819D02*
X121425125Y-105599819D01*
X121425125Y-105599819D02*
X121329887Y-105647438D01*
X121329887Y-105647438D02*
X121282268Y-105695057D01*
X121282268Y-105695057D02*
X121234649Y-105790295D01*
X121234649Y-105790295D02*
X121234649Y-105933152D01*
X121234649Y-105933152D02*
X121282268Y-106028390D01*
X121282268Y-106028390D02*
X121329887Y-106076009D01*
X121329887Y-106076009D02*
X121425125Y-106123628D01*
X121425125Y-106123628D02*
X121806077Y-106123628D01*
X120901315Y-105599819D02*
X120282268Y-105599819D01*
X120282268Y-105599819D02*
X120615601Y-105980771D01*
X120615601Y-105980771D02*
X120472744Y-105980771D01*
X120472744Y-105980771D02*
X120377506Y-106028390D01*
X120377506Y-106028390D02*
X120329887Y-106076009D01*
X120329887Y-106076009D02*
X120282268Y-106171247D01*
X120282268Y-106171247D02*
X120282268Y-106409342D01*
X120282268Y-106409342D02*
X120329887Y-106504580D01*
X120329887Y-106504580D02*
X120377506Y-106552200D01*
X120377506Y-106552200D02*
X120472744Y-106599819D01*
X120472744Y-106599819D02*
X120758458Y-106599819D01*
X120758458Y-106599819D02*
X120853696Y-106552200D01*
X120853696Y-106552200D02*
X120901315Y-106504580D01*
X119901315Y-105695057D02*
X119853696Y-105647438D01*
X119853696Y-105647438D02*
X119758458Y-105599819D01*
X119758458Y-105599819D02*
X119520363Y-105599819D01*
X119520363Y-105599819D02*
X119425125Y-105647438D01*
X119425125Y-105647438D02*
X119377506Y-105695057D01*
X119377506Y-105695057D02*
X119329887Y-105790295D01*
X119329887Y-105790295D02*
X119329887Y-105885533D01*
X119329887Y-105885533D02*
X119377506Y-106028390D01*
X119377506Y-106028390D02*
X119948934Y-106599819D01*
X119948934Y-106599819D02*
X119329887Y-106599819D01*
X118901315Y-106218866D02*
X118139411Y-106218866D01*
X117091792Y-106504580D02*
X117139411Y-106552200D01*
X117139411Y-106552200D02*
X117282268Y-106599819D01*
X117282268Y-106599819D02*
X117377506Y-106599819D01*
X117377506Y-106599819D02*
X117520363Y-106552200D01*
X117520363Y-106552200D02*
X117615601Y-106456961D01*
X117615601Y-106456961D02*
X117663220Y-106361723D01*
X117663220Y-106361723D02*
X117710839Y-106171247D01*
X117710839Y-106171247D02*
X117710839Y-106028390D01*
X117710839Y-106028390D02*
X117663220Y-105837914D01*
X117663220Y-105837914D02*
X117615601Y-105742676D01*
X117615601Y-105742676D02*
X117520363Y-105647438D01*
X117520363Y-105647438D02*
X117377506Y-105599819D01*
X117377506Y-105599819D02*
X117282268Y-105599819D01*
X117282268Y-105599819D02*
X117139411Y-105647438D01*
X117139411Y-105647438D02*
X117091792Y-105695057D01*
X116758458Y-105599819D02*
X116139411Y-105599819D01*
X116139411Y-105599819D02*
X116472744Y-105980771D01*
X116472744Y-105980771D02*
X116329887Y-105980771D01*
X116329887Y-105980771D02*
X116234649Y-106028390D01*
X116234649Y-106028390D02*
X116187030Y-106076009D01*
X116187030Y-106076009D02*
X116139411Y-106171247D01*
X116139411Y-106171247D02*
X116139411Y-106409342D01*
X116139411Y-106409342D02*
X116187030Y-106504580D01*
X116187030Y-106504580D02*
X116234649Y-106552200D01*
X116234649Y-106552200D02*
X116329887Y-106599819D01*
X116329887Y-106599819D02*
X116615601Y-106599819D01*
X116615601Y-106599819D02*
X116710839Y-106552200D01*
X116710839Y-106552200D02*
X116758458Y-106504580D01*
X115377506Y-106076009D02*
X115710839Y-106076009D01*
X115710839Y-106599819D02*
X115710839Y-105599819D01*
X115710839Y-105599819D02*
X115234649Y-105599819D01*
X114853696Y-106599819D02*
X114853696Y-105599819D01*
X114853696Y-106076009D02*
X114282268Y-106076009D01*
X114282268Y-106599819D02*
X114282268Y-105599819D01*
X113377506Y-105933152D02*
X113377506Y-106599819D01*
X113615601Y-105552200D02*
X113853696Y-106266485D01*
X113853696Y-106266485D02*
X113234649Y-106266485D01*
X112139410Y-106552200D02*
X112044172Y-106599819D01*
X112044172Y-106599819D02*
X111853696Y-106599819D01*
X111853696Y-106599819D02*
X111758458Y-106552200D01*
X111758458Y-106552200D02*
X111710839Y-106456961D01*
X111710839Y-106456961D02*
X111710839Y-106409342D01*
X111710839Y-106409342D02*
X111758458Y-106314104D01*
X111758458Y-106314104D02*
X111853696Y-106266485D01*
X111853696Y-106266485D02*
X111996553Y-106266485D01*
X111996553Y-106266485D02*
X112091791Y-106218866D01*
X112091791Y-106218866D02*
X112139410Y-106123628D01*
X112139410Y-106123628D02*
X112139410Y-106076009D01*
X112139410Y-106076009D02*
X112091791Y-105980771D01*
X112091791Y-105980771D02*
X111996553Y-105933152D01*
X111996553Y-105933152D02*
X111853696Y-105933152D01*
X111853696Y-105933152D02*
X111758458Y-105980771D01*
X110901315Y-106552200D02*
X110996553Y-106599819D01*
X110996553Y-106599819D02*
X111187029Y-106599819D01*
X111187029Y-106599819D02*
X111282267Y-106552200D01*
X111282267Y-106552200D02*
X111329886Y-106456961D01*
X111329886Y-106456961D02*
X111329886Y-106076009D01*
X111329886Y-106076009D02*
X111282267Y-105980771D01*
X111282267Y-105980771D02*
X111187029Y-105933152D01*
X111187029Y-105933152D02*
X110996553Y-105933152D01*
X110996553Y-105933152D02*
X110901315Y-105980771D01*
X110901315Y-105980771D02*
X110853696Y-106076009D01*
X110853696Y-106076009D02*
X110853696Y-106171247D01*
X110853696Y-106171247D02*
X111329886Y-106266485D01*
X110425124Y-105933152D02*
X110425124Y-106599819D01*
X110425124Y-106028390D02*
X110377505Y-105980771D01*
X110377505Y-105980771D02*
X110282267Y-105933152D01*
X110282267Y-105933152D02*
X110139410Y-105933152D01*
X110139410Y-105933152D02*
X110044172Y-105980771D01*
X110044172Y-105980771D02*
X109996553Y-106076009D01*
X109996553Y-106076009D02*
X109996553Y-106599819D01*
X109567981Y-106552200D02*
X109472743Y-106599819D01*
X109472743Y-106599819D02*
X109282267Y-106599819D01*
X109282267Y-106599819D02*
X109187029Y-106552200D01*
X109187029Y-106552200D02*
X109139410Y-106456961D01*
X109139410Y-106456961D02*
X109139410Y-106409342D01*
X109139410Y-106409342D02*
X109187029Y-106314104D01*
X109187029Y-106314104D02*
X109282267Y-106266485D01*
X109282267Y-106266485D02*
X109425124Y-106266485D01*
X109425124Y-106266485D02*
X109520362Y-106218866D01*
X109520362Y-106218866D02*
X109567981Y-106123628D01*
X109567981Y-106123628D02*
X109567981Y-106076009D01*
X109567981Y-106076009D02*
X109520362Y-105980771D01*
X109520362Y-105980771D02*
X109425124Y-105933152D01*
X109425124Y-105933152D02*
X109282267Y-105933152D01*
X109282267Y-105933152D02*
X109187029Y-105980771D01*
X108567981Y-106599819D02*
X108663219Y-106552200D01*
X108663219Y-106552200D02*
X108710838Y-106504580D01*
X108710838Y-106504580D02*
X108758457Y-106409342D01*
X108758457Y-106409342D02*
X108758457Y-106123628D01*
X108758457Y-106123628D02*
X108710838Y-106028390D01*
X108710838Y-106028390D02*
X108663219Y-105980771D01*
X108663219Y-105980771D02*
X108567981Y-105933152D01*
X108567981Y-105933152D02*
X108425124Y-105933152D01*
X108425124Y-105933152D02*
X108329886Y-105980771D01*
X108329886Y-105980771D02*
X108282267Y-106028390D01*
X108282267Y-106028390D02*
X108234648Y-106123628D01*
X108234648Y-106123628D02*
X108234648Y-106409342D01*
X108234648Y-106409342D02*
X108282267Y-106504580D01*
X108282267Y-106504580D02*
X108329886Y-106552200D01*
X108329886Y-106552200D02*
X108425124Y-106599819D01*
X108425124Y-106599819D02*
X108567981Y-106599819D01*
X107806076Y-106599819D02*
X107806076Y-105933152D01*
X107806076Y-106123628D02*
X107758457Y-106028390D01*
X107758457Y-106028390D02*
X107710838Y-105980771D01*
X107710838Y-105980771D02*
X107615600Y-105933152D01*
X107615600Y-105933152D02*
X107520362Y-105933152D01*
X106425123Y-106599819D02*
X106425123Y-105599819D01*
X106425123Y-105980771D02*
X106329885Y-105933152D01*
X106329885Y-105933152D02*
X106139409Y-105933152D01*
X106139409Y-105933152D02*
X106044171Y-105980771D01*
X106044171Y-105980771D02*
X105996552Y-106028390D01*
X105996552Y-106028390D02*
X105948933Y-106123628D01*
X105948933Y-106123628D02*
X105948933Y-106409342D01*
X105948933Y-106409342D02*
X105996552Y-106504580D01*
X105996552Y-106504580D02*
X106044171Y-106552200D01*
X106044171Y-106552200D02*
X106139409Y-106599819D01*
X106139409Y-106599819D02*
X106329885Y-106599819D01*
X106329885Y-106599819D02*
X106425123Y-106552200D01*
X105377504Y-106599819D02*
X105472742Y-106552200D01*
X105472742Y-106552200D02*
X105520361Y-106504580D01*
X105520361Y-106504580D02*
X105567980Y-106409342D01*
X105567980Y-106409342D02*
X105567980Y-106123628D01*
X105567980Y-106123628D02*
X105520361Y-106028390D01*
X105520361Y-106028390D02*
X105472742Y-105980771D01*
X105472742Y-105980771D02*
X105377504Y-105933152D01*
X105377504Y-105933152D02*
X105234647Y-105933152D01*
X105234647Y-105933152D02*
X105139409Y-105980771D01*
X105139409Y-105980771D02*
X105091790Y-106028390D01*
X105091790Y-106028390D02*
X105044171Y-106123628D01*
X105044171Y-106123628D02*
X105044171Y-106409342D01*
X105044171Y-106409342D02*
X105091790Y-106504580D01*
X105091790Y-106504580D02*
X105139409Y-106552200D01*
X105139409Y-106552200D02*
X105234647Y-106599819D01*
X105234647Y-106599819D02*
X105377504Y-106599819D01*
X104187028Y-106599819D02*
X104187028Y-106076009D01*
X104187028Y-106076009D02*
X104234647Y-105980771D01*
X104234647Y-105980771D02*
X104329885Y-105933152D01*
X104329885Y-105933152D02*
X104520361Y-105933152D01*
X104520361Y-105933152D02*
X104615599Y-105980771D01*
X104187028Y-106552200D02*
X104282266Y-106599819D01*
X104282266Y-106599819D02*
X104520361Y-106599819D01*
X104520361Y-106599819D02*
X104615599Y-106552200D01*
X104615599Y-106552200D02*
X104663218Y-106456961D01*
X104663218Y-106456961D02*
X104663218Y-106361723D01*
X104663218Y-106361723D02*
X104615599Y-106266485D01*
X104615599Y-106266485D02*
X104520361Y-106218866D01*
X104520361Y-106218866D02*
X104282266Y-106218866D01*
X104282266Y-106218866D02*
X104187028Y-106171247D01*
X103710837Y-106599819D02*
X103710837Y-105933152D01*
X103710837Y-106123628D02*
X103663218Y-106028390D01*
X103663218Y-106028390D02*
X103615599Y-105980771D01*
X103615599Y-105980771D02*
X103520361Y-105933152D01*
X103520361Y-105933152D02*
X103425123Y-105933152D01*
X102663218Y-106599819D02*
X102663218Y-105599819D01*
X102663218Y-106552200D02*
X102758456Y-106599819D01*
X102758456Y-106599819D02*
X102948932Y-106599819D01*
X102948932Y-106599819D02*
X103044170Y-106552200D01*
X103044170Y-106552200D02*
X103091789Y-106504580D01*
X103091789Y-106504580D02*
X103139408Y-106409342D01*
X103139408Y-106409342D02*
X103139408Y-106123628D01*
X103139408Y-106123628D02*
X103091789Y-106028390D01*
X103091789Y-106028390D02*
X103044170Y-105980771D01*
X103044170Y-105980771D02*
X102948932Y-105933152D01*
X102948932Y-105933152D02*
X102758456Y-105933152D01*
X102758456Y-105933152D02*
X102663218Y-105980771D01*
X123758458Y-107543152D02*
X123520363Y-108209819D01*
X123520363Y-108209819D02*
X123282268Y-107543152D01*
X122425125Y-107209819D02*
X122901315Y-107209819D01*
X122901315Y-107209819D02*
X122948934Y-107686009D01*
X122948934Y-107686009D02*
X122901315Y-107638390D01*
X122901315Y-107638390D02*
X122806077Y-107590771D01*
X122806077Y-107590771D02*
X122567982Y-107590771D01*
X122567982Y-107590771D02*
X122472744Y-107638390D01*
X122472744Y-107638390D02*
X122425125Y-107686009D01*
X122425125Y-107686009D02*
X122377506Y-107781247D01*
X122377506Y-107781247D02*
X122377506Y-108019342D01*
X122377506Y-108019342D02*
X122425125Y-108114580D01*
X122425125Y-108114580D02*
X122472744Y-108162200D01*
X122472744Y-108162200D02*
X122567982Y-108209819D01*
X122567982Y-108209819D02*
X122806077Y-108209819D01*
X122806077Y-108209819D02*
X122901315Y-108162200D01*
X122901315Y-108162200D02*
X122948934Y-108114580D01*
X121187029Y-107828866D02*
X120425125Y-107828866D01*
X119282267Y-107543152D02*
X119044172Y-108209819D01*
X119044172Y-108209819D02*
X118806077Y-107543152D01*
X117996553Y-107209819D02*
X118187029Y-107209819D01*
X118187029Y-107209819D02*
X118282267Y-107257438D01*
X118282267Y-107257438D02*
X118329886Y-107305057D01*
X118329886Y-107305057D02*
X118425124Y-107447914D01*
X118425124Y-107447914D02*
X118472743Y-107638390D01*
X118472743Y-107638390D02*
X118472743Y-108019342D01*
X118472743Y-108019342D02*
X118425124Y-108114580D01*
X118425124Y-108114580D02*
X118377505Y-108162200D01*
X118377505Y-108162200D02*
X118282267Y-108209819D01*
X118282267Y-108209819D02*
X118091791Y-108209819D01*
X118091791Y-108209819D02*
X117996553Y-108162200D01*
X117996553Y-108162200D02*
X117948934Y-108114580D01*
X117948934Y-108114580D02*
X117901315Y-108019342D01*
X117901315Y-108019342D02*
X117901315Y-107781247D01*
X117901315Y-107781247D02*
X117948934Y-107686009D01*
X117948934Y-107686009D02*
X117996553Y-107638390D01*
X117996553Y-107638390D02*
X118091791Y-107590771D01*
X118091791Y-107590771D02*
X118282267Y-107590771D01*
X118282267Y-107590771D02*
X118377505Y-107638390D01*
X118377505Y-107638390D02*
X118425124Y-107686009D01*
X118425124Y-107686009D02*
X118472743Y-107781247D01*
X117282267Y-107209819D02*
X117187029Y-107209819D01*
X117187029Y-107209819D02*
X117091791Y-107257438D01*
X117091791Y-107257438D02*
X117044172Y-107305057D01*
X117044172Y-107305057D02*
X116996553Y-107400295D01*
X116996553Y-107400295D02*
X116948934Y-107590771D01*
X116948934Y-107590771D02*
X116948934Y-107828866D01*
X116948934Y-107828866D02*
X116996553Y-108019342D01*
X116996553Y-108019342D02*
X117044172Y-108114580D01*
X117044172Y-108114580D02*
X117091791Y-108162200D01*
X117091791Y-108162200D02*
X117187029Y-108209819D01*
X117187029Y-108209819D02*
X117282267Y-108209819D01*
X117282267Y-108209819D02*
X117377505Y-108162200D01*
X117377505Y-108162200D02*
X117425124Y-108114580D01*
X117425124Y-108114580D02*
X117472743Y-108019342D01*
X117472743Y-108019342D02*
X117520362Y-107828866D01*
X117520362Y-107828866D02*
X117520362Y-107590771D01*
X117520362Y-107590771D02*
X117472743Y-107400295D01*
X117472743Y-107400295D02*
X117425124Y-107305057D01*
X117425124Y-107305057D02*
X117377505Y-107257438D01*
X117377505Y-107257438D02*
X117282267Y-107209819D01*
X115758457Y-108209819D02*
X115758457Y-107543152D01*
X115758457Y-107209819D02*
X115806076Y-107257438D01*
X115806076Y-107257438D02*
X115758457Y-107305057D01*
X115758457Y-107305057D02*
X115710838Y-107257438D01*
X115710838Y-107257438D02*
X115758457Y-107209819D01*
X115758457Y-107209819D02*
X115758457Y-107305057D01*
X115282267Y-107543152D02*
X115282267Y-108209819D01*
X115282267Y-107638390D02*
X115234648Y-107590771D01*
X115234648Y-107590771D02*
X115139410Y-107543152D01*
X115139410Y-107543152D02*
X114996553Y-107543152D01*
X114996553Y-107543152D02*
X114901315Y-107590771D01*
X114901315Y-107590771D02*
X114853696Y-107686009D01*
X114853696Y-107686009D02*
X114853696Y-108209819D01*
X114377505Y-107543152D02*
X114377505Y-108543152D01*
X114377505Y-107590771D02*
X114282267Y-107543152D01*
X114282267Y-107543152D02*
X114091791Y-107543152D01*
X114091791Y-107543152D02*
X113996553Y-107590771D01*
X113996553Y-107590771D02*
X113948934Y-107638390D01*
X113948934Y-107638390D02*
X113901315Y-107733628D01*
X113901315Y-107733628D02*
X113901315Y-108019342D01*
X113901315Y-108019342D02*
X113948934Y-108114580D01*
X113948934Y-108114580D02*
X113996553Y-108162200D01*
X113996553Y-108162200D02*
X114091791Y-108209819D01*
X114091791Y-108209819D02*
X114282267Y-108209819D01*
X114282267Y-108209819D02*
X114377505Y-108162200D01*
X113044172Y-107543152D02*
X113044172Y-108209819D01*
X113472743Y-107543152D02*
X113472743Y-108066961D01*
X113472743Y-108066961D02*
X113425124Y-108162200D01*
X113425124Y-108162200D02*
X113329886Y-108209819D01*
X113329886Y-108209819D02*
X113187029Y-108209819D01*
X113187029Y-108209819D02*
X113091791Y-108162200D01*
X113091791Y-108162200D02*
X113044172Y-108114580D01*
X112710838Y-107543152D02*
X112329886Y-107543152D01*
X112567981Y-107209819D02*
X112567981Y-108066961D01*
X112567981Y-108066961D02*
X112520362Y-108162200D01*
X112520362Y-108162200D02*
X112425124Y-108209819D01*
X112425124Y-108209819D02*
X112329886Y-108209819D01*
X111091790Y-108209819D02*
X111187028Y-108162200D01*
X111187028Y-108162200D02*
X111234647Y-108114580D01*
X111234647Y-108114580D02*
X111282266Y-108019342D01*
X111282266Y-108019342D02*
X111282266Y-107733628D01*
X111282266Y-107733628D02*
X111234647Y-107638390D01*
X111234647Y-107638390D02*
X111187028Y-107590771D01*
X111187028Y-107590771D02*
X111091790Y-107543152D01*
X111091790Y-107543152D02*
X110948933Y-107543152D01*
X110948933Y-107543152D02*
X110853695Y-107590771D01*
X110853695Y-107590771D02*
X110806076Y-107638390D01*
X110806076Y-107638390D02*
X110758457Y-107733628D01*
X110758457Y-107733628D02*
X110758457Y-108019342D01*
X110758457Y-108019342D02*
X110806076Y-108114580D01*
X110806076Y-108114580D02*
X110853695Y-108162200D01*
X110853695Y-108162200D02*
X110948933Y-108209819D01*
X110948933Y-108209819D02*
X111091790Y-108209819D01*
X110329885Y-107543152D02*
X110329885Y-108209819D01*
X110329885Y-107638390D02*
X110282266Y-107590771D01*
X110282266Y-107590771D02*
X110187028Y-107543152D01*
X110187028Y-107543152D02*
X110044171Y-107543152D01*
X110044171Y-107543152D02*
X109948933Y-107590771D01*
X109948933Y-107590771D02*
X109901314Y-107686009D01*
X109901314Y-107686009D02*
X109901314Y-108209819D01*
X108377504Y-107209819D02*
X108377504Y-107924104D01*
X108377504Y-107924104D02*
X108425123Y-108066961D01*
X108425123Y-108066961D02*
X108520361Y-108162200D01*
X108520361Y-108162200D02*
X108663218Y-108209819D01*
X108663218Y-108209819D02*
X108758456Y-108209819D01*
X107377504Y-108209819D02*
X107948932Y-108209819D01*
X107663218Y-108209819D02*
X107663218Y-107209819D01*
X107663218Y-107209819D02*
X107758456Y-107352676D01*
X107758456Y-107352676D02*
X107853694Y-107447914D01*
X107853694Y-107447914D02*
X107948932Y-107495533D01*
X106758456Y-107209819D02*
X106663218Y-107209819D01*
X106663218Y-107209819D02*
X106567980Y-107257438D01*
X106567980Y-107257438D02*
X106520361Y-107305057D01*
X106520361Y-107305057D02*
X106472742Y-107400295D01*
X106472742Y-107400295D02*
X106425123Y-107590771D01*
X106425123Y-107590771D02*
X106425123Y-107828866D01*
X106425123Y-107828866D02*
X106472742Y-108019342D01*
X106472742Y-108019342D02*
X106520361Y-108114580D01*
X106520361Y-108114580D02*
X106567980Y-108162200D01*
X106567980Y-108162200D02*
X106663218Y-108209819D01*
X106663218Y-108209819D02*
X106758456Y-108209819D01*
X106758456Y-108209819D02*
X106853694Y-108162200D01*
X106853694Y-108162200D02*
X106901313Y-108114580D01*
X106901313Y-108114580D02*
X106948932Y-108019342D01*
X106948932Y-108019342D02*
X106996551Y-107828866D01*
X106996551Y-107828866D02*
X106996551Y-107590771D01*
X106996551Y-107590771D02*
X106948932Y-107400295D01*
X106948932Y-107400295D02*
X106901313Y-107305057D01*
X106901313Y-107305057D02*
X106853694Y-107257438D01*
X106853694Y-107257438D02*
X106758456Y-107209819D01*
X105472742Y-108209819D02*
X106044170Y-108209819D01*
X105758456Y-108209819D02*
X105758456Y-107209819D01*
X105758456Y-107209819D02*
X105853694Y-107352676D01*
X105853694Y-107352676D02*
X105948932Y-107447914D01*
X105948932Y-107447914D02*
X106044170Y-107495533D01*
X104282265Y-107828866D02*
X103520361Y-107828866D01*
X102282265Y-108209819D02*
X102282265Y-107209819D01*
X102282265Y-107209819D02*
X101901313Y-107209819D01*
X101901313Y-107209819D02*
X101806075Y-107257438D01*
X101806075Y-107257438D02*
X101758456Y-107305057D01*
X101758456Y-107305057D02*
X101710837Y-107400295D01*
X101710837Y-107400295D02*
X101710837Y-107543152D01*
X101710837Y-107543152D02*
X101758456Y-107638390D01*
X101758456Y-107638390D02*
X101806075Y-107686009D01*
X101806075Y-107686009D02*
X101901313Y-107733628D01*
X101901313Y-107733628D02*
X102282265Y-107733628D01*
X101139408Y-108209819D02*
X101234646Y-108162200D01*
X101234646Y-108162200D02*
X101282265Y-108114580D01*
X101282265Y-108114580D02*
X101329884Y-108019342D01*
X101329884Y-108019342D02*
X101329884Y-107733628D01*
X101329884Y-107733628D02*
X101282265Y-107638390D01*
X101282265Y-107638390D02*
X101234646Y-107590771D01*
X101234646Y-107590771D02*
X101139408Y-107543152D01*
X101139408Y-107543152D02*
X100996551Y-107543152D01*
X100996551Y-107543152D02*
X100901313Y-107590771D01*
X100901313Y-107590771D02*
X100853694Y-107638390D01*
X100853694Y-107638390D02*
X100806075Y-107733628D01*
X100806075Y-107733628D02*
X100806075Y-108019342D01*
X100806075Y-108019342D02*
X100853694Y-108114580D01*
X100853694Y-108114580D02*
X100901313Y-108162200D01*
X100901313Y-108162200D02*
X100996551Y-108209819D01*
X100996551Y-108209819D02*
X101139408Y-108209819D01*
X100472741Y-107543152D02*
X100282265Y-108209819D01*
X100282265Y-108209819D02*
X100091789Y-107733628D01*
X100091789Y-107733628D02*
X99901313Y-108209819D01*
X99901313Y-108209819D02*
X99710837Y-107543152D01*
X98948932Y-108162200D02*
X99044170Y-108209819D01*
X99044170Y-108209819D02*
X99234646Y-108209819D01*
X99234646Y-108209819D02*
X99329884Y-108162200D01*
X99329884Y-108162200D02*
X99377503Y-108066961D01*
X99377503Y-108066961D02*
X99377503Y-107686009D01*
X99377503Y-107686009D02*
X99329884Y-107590771D01*
X99329884Y-107590771D02*
X99234646Y-107543152D01*
X99234646Y-107543152D02*
X99044170Y-107543152D01*
X99044170Y-107543152D02*
X98948932Y-107590771D01*
X98948932Y-107590771D02*
X98901313Y-107686009D01*
X98901313Y-107686009D02*
X98901313Y-107781247D01*
X98901313Y-107781247D02*
X99377503Y-107876485D01*
X98472741Y-108209819D02*
X98472741Y-107543152D01*
X98472741Y-107733628D02*
X98425122Y-107638390D01*
X98425122Y-107638390D02*
X98377503Y-107590771D01*
X98377503Y-107590771D02*
X98282265Y-107543152D01*
X98282265Y-107543152D02*
X98187027Y-107543152D01*
X97901312Y-108162200D02*
X97806074Y-108209819D01*
X97806074Y-108209819D02*
X97615598Y-108209819D01*
X97615598Y-108209819D02*
X97520360Y-108162200D01*
X97520360Y-108162200D02*
X97472741Y-108066961D01*
X97472741Y-108066961D02*
X97472741Y-108019342D01*
X97472741Y-108019342D02*
X97520360Y-107924104D01*
X97520360Y-107924104D02*
X97615598Y-107876485D01*
X97615598Y-107876485D02*
X97758455Y-107876485D01*
X97758455Y-107876485D02*
X97853693Y-107828866D01*
X97853693Y-107828866D02*
X97901312Y-107733628D01*
X97901312Y-107733628D02*
X97901312Y-107686009D01*
X97901312Y-107686009D02*
X97853693Y-107590771D01*
X97853693Y-107590771D02*
X97758455Y-107543152D01*
X97758455Y-107543152D02*
X97615598Y-107543152D01*
X97615598Y-107543152D02*
X97520360Y-107590771D01*
X96282264Y-108209819D02*
X96282264Y-107209819D01*
X96282264Y-107590771D02*
X96187026Y-107543152D01*
X96187026Y-107543152D02*
X95996550Y-107543152D01*
X95996550Y-107543152D02*
X95901312Y-107590771D01*
X95901312Y-107590771D02*
X95853693Y-107638390D01*
X95853693Y-107638390D02*
X95806074Y-107733628D01*
X95806074Y-107733628D02*
X95806074Y-108019342D01*
X95806074Y-108019342D02*
X95853693Y-108114580D01*
X95853693Y-108114580D02*
X95901312Y-108162200D01*
X95901312Y-108162200D02*
X95996550Y-108209819D01*
X95996550Y-108209819D02*
X96187026Y-108209819D01*
X96187026Y-108209819D02*
X96282264Y-108162200D01*
X95234645Y-108209819D02*
X95329883Y-108162200D01*
X95329883Y-108162200D02*
X95377502Y-108114580D01*
X95377502Y-108114580D02*
X95425121Y-108019342D01*
X95425121Y-108019342D02*
X95425121Y-107733628D01*
X95425121Y-107733628D02*
X95377502Y-107638390D01*
X95377502Y-107638390D02*
X95329883Y-107590771D01*
X95329883Y-107590771D02*
X95234645Y-107543152D01*
X95234645Y-107543152D02*
X95091788Y-107543152D01*
X95091788Y-107543152D02*
X94996550Y-107590771D01*
X94996550Y-107590771D02*
X94948931Y-107638390D01*
X94948931Y-107638390D02*
X94901312Y-107733628D01*
X94901312Y-107733628D02*
X94901312Y-108019342D01*
X94901312Y-108019342D02*
X94948931Y-108114580D01*
X94948931Y-108114580D02*
X94996550Y-108162200D01*
X94996550Y-108162200D02*
X95091788Y-108209819D01*
X95091788Y-108209819D02*
X95234645Y-108209819D01*
X94044169Y-108209819D02*
X94044169Y-107686009D01*
X94044169Y-107686009D02*
X94091788Y-107590771D01*
X94091788Y-107590771D02*
X94187026Y-107543152D01*
X94187026Y-107543152D02*
X94377502Y-107543152D01*
X94377502Y-107543152D02*
X94472740Y-107590771D01*
X94044169Y-108162200D02*
X94139407Y-108209819D01*
X94139407Y-108209819D02*
X94377502Y-108209819D01*
X94377502Y-108209819D02*
X94472740Y-108162200D01*
X94472740Y-108162200D02*
X94520359Y-108066961D01*
X94520359Y-108066961D02*
X94520359Y-107971723D01*
X94520359Y-107971723D02*
X94472740Y-107876485D01*
X94472740Y-107876485D02*
X94377502Y-107828866D01*
X94377502Y-107828866D02*
X94139407Y-107828866D01*
X94139407Y-107828866D02*
X94044169Y-107781247D01*
X93567978Y-108209819D02*
X93567978Y-107543152D01*
X93567978Y-107733628D02*
X93520359Y-107638390D01*
X93520359Y-107638390D02*
X93472740Y-107590771D01*
X93472740Y-107590771D02*
X93377502Y-107543152D01*
X93377502Y-107543152D02*
X93282264Y-107543152D01*
X92520359Y-108209819D02*
X92520359Y-107209819D01*
X92520359Y-108162200D02*
X92615597Y-108209819D01*
X92615597Y-108209819D02*
X92806073Y-108209819D01*
X92806073Y-108209819D02*
X92901311Y-108162200D01*
X92901311Y-108162200D02*
X92948930Y-108114580D01*
X92948930Y-108114580D02*
X92996549Y-108019342D01*
X92996549Y-108019342D02*
X92996549Y-107733628D01*
X92996549Y-107733628D02*
X92948930Y-107638390D01*
X92948930Y-107638390D02*
X92901311Y-107590771D01*
X92901311Y-107590771D02*
X92806073Y-107543152D01*
X92806073Y-107543152D02*
X92615597Y-107543152D01*
X92615597Y-107543152D02*
X92520359Y-107590771D01*
X123758458Y-109153152D02*
X123520363Y-109819819D01*
X123520363Y-109819819D02*
X123282268Y-109153152D01*
X122425125Y-108819819D02*
X122901315Y-108819819D01*
X122901315Y-108819819D02*
X122948934Y-109296009D01*
X122948934Y-109296009D02*
X122901315Y-109248390D01*
X122901315Y-109248390D02*
X122806077Y-109200771D01*
X122806077Y-109200771D02*
X122567982Y-109200771D01*
X122567982Y-109200771D02*
X122472744Y-109248390D01*
X122472744Y-109248390D02*
X122425125Y-109296009D01*
X122425125Y-109296009D02*
X122377506Y-109391247D01*
X122377506Y-109391247D02*
X122377506Y-109629342D01*
X122377506Y-109629342D02*
X122425125Y-109724580D01*
X122425125Y-109724580D02*
X122472744Y-109772200D01*
X122472744Y-109772200D02*
X122567982Y-109819819D01*
X122567982Y-109819819D02*
X122806077Y-109819819D01*
X122806077Y-109819819D02*
X122901315Y-109772200D01*
X122901315Y-109772200D02*
X122948934Y-109724580D01*
X121187029Y-109438866D02*
X120425125Y-109438866D01*
X119282267Y-109153152D02*
X119044172Y-109819819D01*
X119044172Y-109819819D02*
X118806077Y-109153152D01*
X117996553Y-108819819D02*
X118187029Y-108819819D01*
X118187029Y-108819819D02*
X118282267Y-108867438D01*
X118282267Y-108867438D02*
X118329886Y-108915057D01*
X118329886Y-108915057D02*
X118425124Y-109057914D01*
X118425124Y-109057914D02*
X118472743Y-109248390D01*
X118472743Y-109248390D02*
X118472743Y-109629342D01*
X118472743Y-109629342D02*
X118425124Y-109724580D01*
X118425124Y-109724580D02*
X118377505Y-109772200D01*
X118377505Y-109772200D02*
X118282267Y-109819819D01*
X118282267Y-109819819D02*
X118091791Y-109819819D01*
X118091791Y-109819819D02*
X117996553Y-109772200D01*
X117996553Y-109772200D02*
X117948934Y-109724580D01*
X117948934Y-109724580D02*
X117901315Y-109629342D01*
X117901315Y-109629342D02*
X117901315Y-109391247D01*
X117901315Y-109391247D02*
X117948934Y-109296009D01*
X117948934Y-109296009D02*
X117996553Y-109248390D01*
X117996553Y-109248390D02*
X118091791Y-109200771D01*
X118091791Y-109200771D02*
X118282267Y-109200771D01*
X118282267Y-109200771D02*
X118377505Y-109248390D01*
X118377505Y-109248390D02*
X118425124Y-109296009D01*
X118425124Y-109296009D02*
X118472743Y-109391247D01*
X117282267Y-108819819D02*
X117187029Y-108819819D01*
X117187029Y-108819819D02*
X117091791Y-108867438D01*
X117091791Y-108867438D02*
X117044172Y-108915057D01*
X117044172Y-108915057D02*
X116996553Y-109010295D01*
X116996553Y-109010295D02*
X116948934Y-109200771D01*
X116948934Y-109200771D02*
X116948934Y-109438866D01*
X116948934Y-109438866D02*
X116996553Y-109629342D01*
X116996553Y-109629342D02*
X117044172Y-109724580D01*
X117044172Y-109724580D02*
X117091791Y-109772200D01*
X117091791Y-109772200D02*
X117187029Y-109819819D01*
X117187029Y-109819819D02*
X117282267Y-109819819D01*
X117282267Y-109819819D02*
X117377505Y-109772200D01*
X117377505Y-109772200D02*
X117425124Y-109724580D01*
X117425124Y-109724580D02*
X117472743Y-109629342D01*
X117472743Y-109629342D02*
X117520362Y-109438866D01*
X117520362Y-109438866D02*
X117520362Y-109200771D01*
X117520362Y-109200771D02*
X117472743Y-109010295D01*
X117472743Y-109010295D02*
X117425124Y-108915057D01*
X117425124Y-108915057D02*
X117377505Y-108867438D01*
X117377505Y-108867438D02*
X117282267Y-108819819D01*
X115758457Y-109819819D02*
X115758457Y-109153152D01*
X115758457Y-109248390D02*
X115710838Y-109200771D01*
X115710838Y-109200771D02*
X115615600Y-109153152D01*
X115615600Y-109153152D02*
X115472743Y-109153152D01*
X115472743Y-109153152D02*
X115377505Y-109200771D01*
X115377505Y-109200771D02*
X115329886Y-109296009D01*
X115329886Y-109296009D02*
X115329886Y-109819819D01*
X115329886Y-109296009D02*
X115282267Y-109200771D01*
X115282267Y-109200771D02*
X115187029Y-109153152D01*
X115187029Y-109153152D02*
X115044172Y-109153152D01*
X115044172Y-109153152D02*
X114948933Y-109200771D01*
X114948933Y-109200771D02*
X114901314Y-109296009D01*
X114901314Y-109296009D02*
X114901314Y-109819819D01*
X114044172Y-109772200D02*
X114139410Y-109819819D01*
X114139410Y-109819819D02*
X114329886Y-109819819D01*
X114329886Y-109819819D02*
X114425124Y-109772200D01*
X114425124Y-109772200D02*
X114472743Y-109676961D01*
X114472743Y-109676961D02*
X114472743Y-109296009D01*
X114472743Y-109296009D02*
X114425124Y-109200771D01*
X114425124Y-109200771D02*
X114329886Y-109153152D01*
X114329886Y-109153152D02*
X114139410Y-109153152D01*
X114139410Y-109153152D02*
X114044172Y-109200771D01*
X114044172Y-109200771D02*
X113996553Y-109296009D01*
X113996553Y-109296009D02*
X113996553Y-109391247D01*
X113996553Y-109391247D02*
X114472743Y-109486485D01*
X113139410Y-109819819D02*
X113139410Y-109296009D01*
X113139410Y-109296009D02*
X113187029Y-109200771D01*
X113187029Y-109200771D02*
X113282267Y-109153152D01*
X113282267Y-109153152D02*
X113472743Y-109153152D01*
X113472743Y-109153152D02*
X113567981Y-109200771D01*
X113139410Y-109772200D02*
X113234648Y-109819819D01*
X113234648Y-109819819D02*
X113472743Y-109819819D01*
X113472743Y-109819819D02*
X113567981Y-109772200D01*
X113567981Y-109772200D02*
X113615600Y-109676961D01*
X113615600Y-109676961D02*
X113615600Y-109581723D01*
X113615600Y-109581723D02*
X113567981Y-109486485D01*
X113567981Y-109486485D02*
X113472743Y-109438866D01*
X113472743Y-109438866D02*
X113234648Y-109438866D01*
X113234648Y-109438866D02*
X113139410Y-109391247D01*
X112710838Y-109772200D02*
X112615600Y-109819819D01*
X112615600Y-109819819D02*
X112425124Y-109819819D01*
X112425124Y-109819819D02*
X112329886Y-109772200D01*
X112329886Y-109772200D02*
X112282267Y-109676961D01*
X112282267Y-109676961D02*
X112282267Y-109629342D01*
X112282267Y-109629342D02*
X112329886Y-109534104D01*
X112329886Y-109534104D02*
X112425124Y-109486485D01*
X112425124Y-109486485D02*
X112567981Y-109486485D01*
X112567981Y-109486485D02*
X112663219Y-109438866D01*
X112663219Y-109438866D02*
X112710838Y-109343628D01*
X112710838Y-109343628D02*
X112710838Y-109296009D01*
X112710838Y-109296009D02*
X112663219Y-109200771D01*
X112663219Y-109200771D02*
X112567981Y-109153152D01*
X112567981Y-109153152D02*
X112425124Y-109153152D01*
X112425124Y-109153152D02*
X112329886Y-109200771D01*
X111425124Y-109153152D02*
X111425124Y-109819819D01*
X111853695Y-109153152D02*
X111853695Y-109676961D01*
X111853695Y-109676961D02*
X111806076Y-109772200D01*
X111806076Y-109772200D02*
X111710838Y-109819819D01*
X111710838Y-109819819D02*
X111567981Y-109819819D01*
X111567981Y-109819819D02*
X111472743Y-109772200D01*
X111472743Y-109772200D02*
X111425124Y-109724580D01*
X110948933Y-109819819D02*
X110948933Y-109153152D01*
X110948933Y-109343628D02*
X110901314Y-109248390D01*
X110901314Y-109248390D02*
X110853695Y-109200771D01*
X110853695Y-109200771D02*
X110758457Y-109153152D01*
X110758457Y-109153152D02*
X110663219Y-109153152D01*
X109948933Y-109772200D02*
X110044171Y-109819819D01*
X110044171Y-109819819D02*
X110234647Y-109819819D01*
X110234647Y-109819819D02*
X110329885Y-109772200D01*
X110329885Y-109772200D02*
X110377504Y-109676961D01*
X110377504Y-109676961D02*
X110377504Y-109296009D01*
X110377504Y-109296009D02*
X110329885Y-109200771D01*
X110329885Y-109200771D02*
X110234647Y-109153152D01*
X110234647Y-109153152D02*
X110044171Y-109153152D01*
X110044171Y-109153152D02*
X109948933Y-109200771D01*
X109948933Y-109200771D02*
X109901314Y-109296009D01*
X109901314Y-109296009D02*
X109901314Y-109391247D01*
X109901314Y-109391247D02*
X110377504Y-109486485D01*
X109472742Y-109819819D02*
X109472742Y-109153152D01*
X109472742Y-109248390D02*
X109425123Y-109200771D01*
X109425123Y-109200771D02*
X109329885Y-109153152D01*
X109329885Y-109153152D02*
X109187028Y-109153152D01*
X109187028Y-109153152D02*
X109091790Y-109200771D01*
X109091790Y-109200771D02*
X109044171Y-109296009D01*
X109044171Y-109296009D02*
X109044171Y-109819819D01*
X109044171Y-109296009D02*
X108996552Y-109200771D01*
X108996552Y-109200771D02*
X108901314Y-109153152D01*
X108901314Y-109153152D02*
X108758457Y-109153152D01*
X108758457Y-109153152D02*
X108663218Y-109200771D01*
X108663218Y-109200771D02*
X108615599Y-109296009D01*
X108615599Y-109296009D02*
X108615599Y-109819819D01*
X107758457Y-109772200D02*
X107853695Y-109819819D01*
X107853695Y-109819819D02*
X108044171Y-109819819D01*
X108044171Y-109819819D02*
X108139409Y-109772200D01*
X108139409Y-109772200D02*
X108187028Y-109676961D01*
X108187028Y-109676961D02*
X108187028Y-109296009D01*
X108187028Y-109296009D02*
X108139409Y-109200771D01*
X108139409Y-109200771D02*
X108044171Y-109153152D01*
X108044171Y-109153152D02*
X107853695Y-109153152D01*
X107853695Y-109153152D02*
X107758457Y-109200771D01*
X107758457Y-109200771D02*
X107710838Y-109296009D01*
X107710838Y-109296009D02*
X107710838Y-109391247D01*
X107710838Y-109391247D02*
X108187028Y-109486485D01*
X107282266Y-109153152D02*
X107282266Y-109819819D01*
X107282266Y-109248390D02*
X107234647Y-109200771D01*
X107234647Y-109200771D02*
X107139409Y-109153152D01*
X107139409Y-109153152D02*
X106996552Y-109153152D01*
X106996552Y-109153152D02*
X106901314Y-109200771D01*
X106901314Y-109200771D02*
X106853695Y-109296009D01*
X106853695Y-109296009D02*
X106853695Y-109819819D01*
X106520361Y-109153152D02*
X106139409Y-109153152D01*
X106377504Y-108819819D02*
X106377504Y-109676961D01*
X106377504Y-109676961D02*
X106329885Y-109772200D01*
X106329885Y-109772200D02*
X106234647Y-109819819D01*
X106234647Y-109819819D02*
X106139409Y-109819819D01*
X104901313Y-109819819D02*
X104996551Y-109772200D01*
X104996551Y-109772200D02*
X105044170Y-109724580D01*
X105044170Y-109724580D02*
X105091789Y-109629342D01*
X105091789Y-109629342D02*
X105091789Y-109343628D01*
X105091789Y-109343628D02*
X105044170Y-109248390D01*
X105044170Y-109248390D02*
X104996551Y-109200771D01*
X104996551Y-109200771D02*
X104901313Y-109153152D01*
X104901313Y-109153152D02*
X104758456Y-109153152D01*
X104758456Y-109153152D02*
X104663218Y-109200771D01*
X104663218Y-109200771D02*
X104615599Y-109248390D01*
X104615599Y-109248390D02*
X104567980Y-109343628D01*
X104567980Y-109343628D02*
X104567980Y-109629342D01*
X104567980Y-109629342D02*
X104615599Y-109724580D01*
X104615599Y-109724580D02*
X104663218Y-109772200D01*
X104663218Y-109772200D02*
X104758456Y-109819819D01*
X104758456Y-109819819D02*
X104901313Y-109819819D01*
X104139408Y-109153152D02*
X104139408Y-109819819D01*
X104139408Y-109248390D02*
X104091789Y-109200771D01*
X104091789Y-109200771D02*
X103996551Y-109153152D01*
X103996551Y-109153152D02*
X103853694Y-109153152D01*
X103853694Y-109153152D02*
X103758456Y-109200771D01*
X103758456Y-109200771D02*
X103710837Y-109296009D01*
X103710837Y-109296009D02*
X103710837Y-109819819D01*
X102187027Y-108819819D02*
X102187027Y-109534104D01*
X102187027Y-109534104D02*
X102234646Y-109676961D01*
X102234646Y-109676961D02*
X102329884Y-109772200D01*
X102329884Y-109772200D02*
X102472741Y-109819819D01*
X102472741Y-109819819D02*
X102567979Y-109819819D01*
X101187027Y-109819819D02*
X101758455Y-109819819D01*
X101472741Y-109819819D02*
X101472741Y-108819819D01*
X101472741Y-108819819D02*
X101567979Y-108962676D01*
X101567979Y-108962676D02*
X101663217Y-109057914D01*
X101663217Y-109057914D02*
X101758455Y-109105533D01*
X100567979Y-108819819D02*
X100472741Y-108819819D01*
X100472741Y-108819819D02*
X100377503Y-108867438D01*
X100377503Y-108867438D02*
X100329884Y-108915057D01*
X100329884Y-108915057D02*
X100282265Y-109010295D01*
X100282265Y-109010295D02*
X100234646Y-109200771D01*
X100234646Y-109200771D02*
X100234646Y-109438866D01*
X100234646Y-109438866D02*
X100282265Y-109629342D01*
X100282265Y-109629342D02*
X100329884Y-109724580D01*
X100329884Y-109724580D02*
X100377503Y-109772200D01*
X100377503Y-109772200D02*
X100472741Y-109819819D01*
X100472741Y-109819819D02*
X100567979Y-109819819D01*
X100567979Y-109819819D02*
X100663217Y-109772200D01*
X100663217Y-109772200D02*
X100710836Y-109724580D01*
X100710836Y-109724580D02*
X100758455Y-109629342D01*
X100758455Y-109629342D02*
X100806074Y-109438866D01*
X100806074Y-109438866D02*
X100806074Y-109200771D01*
X100806074Y-109200771D02*
X100758455Y-109010295D01*
X100758455Y-109010295D02*
X100710836Y-108915057D01*
X100710836Y-108915057D02*
X100663217Y-108867438D01*
X100663217Y-108867438D02*
X100567979Y-108819819D01*
X99901312Y-108819819D02*
X99282265Y-108819819D01*
X99282265Y-108819819D02*
X99615598Y-109200771D01*
X99615598Y-109200771D02*
X99472741Y-109200771D01*
X99472741Y-109200771D02*
X99377503Y-109248390D01*
X99377503Y-109248390D02*
X99329884Y-109296009D01*
X99329884Y-109296009D02*
X99282265Y-109391247D01*
X99282265Y-109391247D02*
X99282265Y-109629342D01*
X99282265Y-109629342D02*
X99329884Y-109724580D01*
X99329884Y-109724580D02*
X99377503Y-109772200D01*
X99377503Y-109772200D02*
X99472741Y-109819819D01*
X99472741Y-109819819D02*
X99758455Y-109819819D01*
X99758455Y-109819819D02*
X99853693Y-109772200D01*
X99853693Y-109772200D02*
X99901312Y-109724580D01*
X123663220Y-112658866D02*
X122901316Y-112658866D01*
X123282268Y-113039819D02*
X123282268Y-112277914D01*
X122567982Y-112039819D02*
X122234649Y-113039819D01*
X122234649Y-113039819D02*
X121901316Y-112039819D01*
X120806077Y-113039819D02*
X120806077Y-112373152D01*
X120806077Y-112039819D02*
X120853696Y-112087438D01*
X120853696Y-112087438D02*
X120806077Y-112135057D01*
X120806077Y-112135057D02*
X120758458Y-112087438D01*
X120758458Y-112087438D02*
X120806077Y-112039819D01*
X120806077Y-112039819D02*
X120806077Y-112135057D01*
X120377506Y-112992200D02*
X120282268Y-113039819D01*
X120282268Y-113039819D02*
X120091792Y-113039819D01*
X120091792Y-113039819D02*
X119996554Y-112992200D01*
X119996554Y-112992200D02*
X119948935Y-112896961D01*
X119948935Y-112896961D02*
X119948935Y-112849342D01*
X119948935Y-112849342D02*
X119996554Y-112754104D01*
X119996554Y-112754104D02*
X120091792Y-112706485D01*
X120091792Y-112706485D02*
X120234649Y-112706485D01*
X120234649Y-112706485D02*
X120329887Y-112658866D01*
X120329887Y-112658866D02*
X120377506Y-112563628D01*
X120377506Y-112563628D02*
X120377506Y-112516009D01*
X120377506Y-112516009D02*
X120329887Y-112420771D01*
X120329887Y-112420771D02*
X120234649Y-112373152D01*
X120234649Y-112373152D02*
X120091792Y-112373152D01*
X120091792Y-112373152D02*
X119996554Y-112420771D01*
X118329887Y-113039819D02*
X118329887Y-112516009D01*
X118329887Y-112516009D02*
X118377506Y-112420771D01*
X118377506Y-112420771D02*
X118472744Y-112373152D01*
X118472744Y-112373152D02*
X118663220Y-112373152D01*
X118663220Y-112373152D02*
X118758458Y-112420771D01*
X118329887Y-112992200D02*
X118425125Y-113039819D01*
X118425125Y-113039819D02*
X118663220Y-113039819D01*
X118663220Y-113039819D02*
X118758458Y-112992200D01*
X118758458Y-112992200D02*
X118806077Y-112896961D01*
X118806077Y-112896961D02*
X118806077Y-112801723D01*
X118806077Y-112801723D02*
X118758458Y-112706485D01*
X118758458Y-112706485D02*
X118663220Y-112658866D01*
X118663220Y-112658866D02*
X118425125Y-112658866D01*
X118425125Y-112658866D02*
X118329887Y-112611247D01*
X117710839Y-113039819D02*
X117806077Y-112992200D01*
X117806077Y-112992200D02*
X117853696Y-112896961D01*
X117853696Y-112896961D02*
X117853696Y-112039819D01*
X117425124Y-112373152D02*
X117234648Y-113039819D01*
X117234648Y-113039819D02*
X117044172Y-112563628D01*
X117044172Y-112563628D02*
X116853696Y-113039819D01*
X116853696Y-113039819D02*
X116663220Y-112373152D01*
X115853696Y-113039819D02*
X115853696Y-112516009D01*
X115853696Y-112516009D02*
X115901315Y-112420771D01*
X115901315Y-112420771D02*
X115996553Y-112373152D01*
X115996553Y-112373152D02*
X116187029Y-112373152D01*
X116187029Y-112373152D02*
X116282267Y-112420771D01*
X115853696Y-112992200D02*
X115948934Y-113039819D01*
X115948934Y-113039819D02*
X116187029Y-113039819D01*
X116187029Y-113039819D02*
X116282267Y-112992200D01*
X116282267Y-112992200D02*
X116329886Y-112896961D01*
X116329886Y-112896961D02*
X116329886Y-112801723D01*
X116329886Y-112801723D02*
X116282267Y-112706485D01*
X116282267Y-112706485D02*
X116187029Y-112658866D01*
X116187029Y-112658866D02*
X115948934Y-112658866D01*
X115948934Y-112658866D02*
X115853696Y-112611247D01*
X115472743Y-112373152D02*
X115234648Y-113039819D01*
X114996553Y-112373152D02*
X115234648Y-113039819D01*
X115234648Y-113039819D02*
X115329886Y-113277914D01*
X115329886Y-113277914D02*
X115377505Y-113325533D01*
X115377505Y-113325533D02*
X115472743Y-113373152D01*
X114663219Y-112992200D02*
X114567981Y-113039819D01*
X114567981Y-113039819D02*
X114377505Y-113039819D01*
X114377505Y-113039819D02*
X114282267Y-112992200D01*
X114282267Y-112992200D02*
X114234648Y-112896961D01*
X114234648Y-112896961D02*
X114234648Y-112849342D01*
X114234648Y-112849342D02*
X114282267Y-112754104D01*
X114282267Y-112754104D02*
X114377505Y-112706485D01*
X114377505Y-112706485D02*
X114520362Y-112706485D01*
X114520362Y-112706485D02*
X114615600Y-112658866D01*
X114615600Y-112658866D02*
X114663219Y-112563628D01*
X114663219Y-112563628D02*
X114663219Y-112516009D01*
X114663219Y-112516009D02*
X114615600Y-112420771D01*
X114615600Y-112420771D02*
X114520362Y-112373152D01*
X114520362Y-112373152D02*
X114377505Y-112373152D01*
X114377505Y-112373152D02*
X114282267Y-112420771D01*
X113187028Y-112373152D02*
X112806076Y-112373152D01*
X113044171Y-112039819D02*
X113044171Y-112896961D01*
X113044171Y-112896961D02*
X112996552Y-112992200D01*
X112996552Y-112992200D02*
X112901314Y-113039819D01*
X112901314Y-113039819D02*
X112806076Y-113039819D01*
X112472742Y-113039819D02*
X112472742Y-112039819D01*
X112044171Y-113039819D02*
X112044171Y-112516009D01*
X112044171Y-112516009D02*
X112091790Y-112420771D01*
X112091790Y-112420771D02*
X112187028Y-112373152D01*
X112187028Y-112373152D02*
X112329885Y-112373152D01*
X112329885Y-112373152D02*
X112425123Y-112420771D01*
X112425123Y-112420771D02*
X112472742Y-112468390D01*
X111187028Y-112992200D02*
X111282266Y-113039819D01*
X111282266Y-113039819D02*
X111472742Y-113039819D01*
X111472742Y-113039819D02*
X111567980Y-112992200D01*
X111567980Y-112992200D02*
X111615599Y-112896961D01*
X111615599Y-112896961D02*
X111615599Y-112516009D01*
X111615599Y-112516009D02*
X111567980Y-112420771D01*
X111567980Y-112420771D02*
X111472742Y-112373152D01*
X111472742Y-112373152D02*
X111282266Y-112373152D01*
X111282266Y-112373152D02*
X111187028Y-112420771D01*
X111187028Y-112420771D02*
X111139409Y-112516009D01*
X111139409Y-112516009D02*
X111139409Y-112611247D01*
X111139409Y-112611247D02*
X111615599Y-112706485D01*
X109948932Y-113039819D02*
X109948932Y-112373152D01*
X109948932Y-112039819D02*
X109996551Y-112087438D01*
X109996551Y-112087438D02*
X109948932Y-112135057D01*
X109948932Y-112135057D02*
X109901313Y-112087438D01*
X109901313Y-112087438D02*
X109948932Y-112039819D01*
X109948932Y-112039819D02*
X109948932Y-112135057D01*
X109472742Y-112373152D02*
X109472742Y-113039819D01*
X109472742Y-112468390D02*
X109425123Y-112420771D01*
X109425123Y-112420771D02*
X109329885Y-112373152D01*
X109329885Y-112373152D02*
X109187028Y-112373152D01*
X109187028Y-112373152D02*
X109091790Y-112420771D01*
X109091790Y-112420771D02*
X109044171Y-112516009D01*
X109044171Y-112516009D02*
X109044171Y-113039819D01*
X108615599Y-112992200D02*
X108520361Y-113039819D01*
X108520361Y-113039819D02*
X108329885Y-113039819D01*
X108329885Y-113039819D02*
X108234647Y-112992200D01*
X108234647Y-112992200D02*
X108187028Y-112896961D01*
X108187028Y-112896961D02*
X108187028Y-112849342D01*
X108187028Y-112849342D02*
X108234647Y-112754104D01*
X108234647Y-112754104D02*
X108329885Y-112706485D01*
X108329885Y-112706485D02*
X108472742Y-112706485D01*
X108472742Y-112706485D02*
X108567980Y-112658866D01*
X108567980Y-112658866D02*
X108615599Y-112563628D01*
X108615599Y-112563628D02*
X108615599Y-112516009D01*
X108615599Y-112516009D02*
X108567980Y-112420771D01*
X108567980Y-112420771D02*
X108472742Y-112373152D01*
X108472742Y-112373152D02*
X108329885Y-112373152D01*
X108329885Y-112373152D02*
X108234647Y-112420771D01*
X107758456Y-113039819D02*
X107758456Y-112373152D01*
X107758456Y-112039819D02*
X107806075Y-112087438D01*
X107806075Y-112087438D02*
X107758456Y-112135057D01*
X107758456Y-112135057D02*
X107710837Y-112087438D01*
X107710837Y-112087438D02*
X107758456Y-112039819D01*
X107758456Y-112039819D02*
X107758456Y-112135057D01*
X106853695Y-113039819D02*
X106853695Y-112039819D01*
X106853695Y-112992200D02*
X106948933Y-113039819D01*
X106948933Y-113039819D02*
X107139409Y-113039819D01*
X107139409Y-113039819D02*
X107234647Y-112992200D01*
X107234647Y-112992200D02*
X107282266Y-112944580D01*
X107282266Y-112944580D02*
X107329885Y-112849342D01*
X107329885Y-112849342D02*
X107329885Y-112563628D01*
X107329885Y-112563628D02*
X107282266Y-112468390D01*
X107282266Y-112468390D02*
X107234647Y-112420771D01*
X107234647Y-112420771D02*
X107139409Y-112373152D01*
X107139409Y-112373152D02*
X106948933Y-112373152D01*
X106948933Y-112373152D02*
X106853695Y-112420771D01*
X105996552Y-112992200D02*
X106091790Y-113039819D01*
X106091790Y-113039819D02*
X106282266Y-113039819D01*
X106282266Y-113039819D02*
X106377504Y-112992200D01*
X106377504Y-112992200D02*
X106425123Y-112896961D01*
X106425123Y-112896961D02*
X106425123Y-112516009D01*
X106425123Y-112516009D02*
X106377504Y-112420771D01*
X106377504Y-112420771D02*
X106282266Y-112373152D01*
X106282266Y-112373152D02*
X106091790Y-112373152D01*
X106091790Y-112373152D02*
X105996552Y-112420771D01*
X105996552Y-112420771D02*
X105948933Y-112516009D01*
X105948933Y-112516009D02*
X105948933Y-112611247D01*
X105948933Y-112611247D02*
X106425123Y-112706485D01*
X104758456Y-112373152D02*
X104758456Y-113373152D01*
X104758456Y-112420771D02*
X104663218Y-112373152D01*
X104663218Y-112373152D02*
X104472742Y-112373152D01*
X104472742Y-112373152D02*
X104377504Y-112420771D01*
X104377504Y-112420771D02*
X104329885Y-112468390D01*
X104329885Y-112468390D02*
X104282266Y-112563628D01*
X104282266Y-112563628D02*
X104282266Y-112849342D01*
X104282266Y-112849342D02*
X104329885Y-112944580D01*
X104329885Y-112944580D02*
X104377504Y-112992200D01*
X104377504Y-112992200D02*
X104472742Y-113039819D01*
X104472742Y-113039819D02*
X104663218Y-113039819D01*
X104663218Y-113039819D02*
X104758456Y-112992200D01*
X103853694Y-113039819D02*
X103853694Y-112373152D01*
X103853694Y-112039819D02*
X103901313Y-112087438D01*
X103901313Y-112087438D02*
X103853694Y-112135057D01*
X103853694Y-112135057D02*
X103806075Y-112087438D01*
X103806075Y-112087438D02*
X103853694Y-112039819D01*
X103853694Y-112039819D02*
X103853694Y-112135057D01*
X103377504Y-112373152D02*
X103377504Y-113039819D01*
X103377504Y-112468390D02*
X103329885Y-112420771D01*
X103329885Y-112420771D02*
X103234647Y-112373152D01*
X103234647Y-112373152D02*
X103091790Y-112373152D01*
X103091790Y-112373152D02*
X102996552Y-112420771D01*
X102996552Y-112420771D02*
X102948933Y-112516009D01*
X102948933Y-112516009D02*
X102948933Y-113039819D01*
X101567980Y-113039819D02*
X101663218Y-112992200D01*
X101663218Y-112992200D02*
X101710837Y-112944580D01*
X101710837Y-112944580D02*
X101758456Y-112849342D01*
X101758456Y-112849342D02*
X101758456Y-112563628D01*
X101758456Y-112563628D02*
X101710837Y-112468390D01*
X101710837Y-112468390D02*
X101663218Y-112420771D01*
X101663218Y-112420771D02*
X101567980Y-112373152D01*
X101567980Y-112373152D02*
X101425123Y-112373152D01*
X101425123Y-112373152D02*
X101329885Y-112420771D01*
X101329885Y-112420771D02*
X101282266Y-112468390D01*
X101282266Y-112468390D02*
X101234647Y-112563628D01*
X101234647Y-112563628D02*
X101234647Y-112849342D01*
X101234647Y-112849342D02*
X101282266Y-112944580D01*
X101282266Y-112944580D02*
X101329885Y-112992200D01*
X101329885Y-112992200D02*
X101425123Y-113039819D01*
X101425123Y-113039819D02*
X101567980Y-113039819D01*
X100948932Y-112373152D02*
X100567980Y-112373152D01*
X100806075Y-113039819D02*
X100806075Y-112182676D01*
X100806075Y-112182676D02*
X100758456Y-112087438D01*
X100758456Y-112087438D02*
X100663218Y-112039819D01*
X100663218Y-112039819D02*
X100567980Y-112039819D01*
X99091789Y-112992200D02*
X99187027Y-113039819D01*
X99187027Y-113039819D02*
X99377503Y-113039819D01*
X99377503Y-113039819D02*
X99472741Y-112992200D01*
X99472741Y-112992200D02*
X99520360Y-112896961D01*
X99520360Y-112896961D02*
X99520360Y-112516009D01*
X99520360Y-112516009D02*
X99472741Y-112420771D01*
X99472741Y-112420771D02*
X99377503Y-112373152D01*
X99377503Y-112373152D02*
X99187027Y-112373152D01*
X99187027Y-112373152D02*
X99091789Y-112420771D01*
X99091789Y-112420771D02*
X99044170Y-112516009D01*
X99044170Y-112516009D02*
X99044170Y-112611247D01*
X99044170Y-112611247D02*
X99520360Y-112706485D01*
X98187027Y-113039819D02*
X98187027Y-112516009D01*
X98187027Y-112516009D02*
X98234646Y-112420771D01*
X98234646Y-112420771D02*
X98329884Y-112373152D01*
X98329884Y-112373152D02*
X98520360Y-112373152D01*
X98520360Y-112373152D02*
X98615598Y-112420771D01*
X98187027Y-112992200D02*
X98282265Y-113039819D01*
X98282265Y-113039819D02*
X98520360Y-113039819D01*
X98520360Y-113039819D02*
X98615598Y-112992200D01*
X98615598Y-112992200D02*
X98663217Y-112896961D01*
X98663217Y-112896961D02*
X98663217Y-112801723D01*
X98663217Y-112801723D02*
X98615598Y-112706485D01*
X98615598Y-112706485D02*
X98520360Y-112658866D01*
X98520360Y-112658866D02*
X98282265Y-112658866D01*
X98282265Y-112658866D02*
X98187027Y-112611247D01*
X97282265Y-112992200D02*
X97377503Y-113039819D01*
X97377503Y-113039819D02*
X97567979Y-113039819D01*
X97567979Y-113039819D02*
X97663217Y-112992200D01*
X97663217Y-112992200D02*
X97710836Y-112944580D01*
X97710836Y-112944580D02*
X97758455Y-112849342D01*
X97758455Y-112849342D02*
X97758455Y-112563628D01*
X97758455Y-112563628D02*
X97710836Y-112468390D01*
X97710836Y-112468390D02*
X97663217Y-112420771D01*
X97663217Y-112420771D02*
X97567979Y-112373152D01*
X97567979Y-112373152D02*
X97377503Y-112373152D01*
X97377503Y-112373152D02*
X97282265Y-112420771D01*
X96853693Y-113039819D02*
X96853693Y-112039819D01*
X96425122Y-113039819D02*
X96425122Y-112516009D01*
X96425122Y-112516009D02*
X96472741Y-112420771D01*
X96472741Y-112420771D02*
X96567979Y-112373152D01*
X96567979Y-112373152D02*
X96710836Y-112373152D01*
X96710836Y-112373152D02*
X96806074Y-112420771D01*
X96806074Y-112420771D02*
X96853693Y-112468390D01*
X95187026Y-112373152D02*
X95187026Y-113373152D01*
X95187026Y-112420771D02*
X95091788Y-112373152D01*
X95091788Y-112373152D02*
X94901312Y-112373152D01*
X94901312Y-112373152D02*
X94806074Y-112420771D01*
X94806074Y-112420771D02*
X94758455Y-112468390D01*
X94758455Y-112468390D02*
X94710836Y-112563628D01*
X94710836Y-112563628D02*
X94710836Y-112849342D01*
X94710836Y-112849342D02*
X94758455Y-112944580D01*
X94758455Y-112944580D02*
X94806074Y-112992200D01*
X94806074Y-112992200D02*
X94901312Y-113039819D01*
X94901312Y-113039819D02*
X95091788Y-113039819D01*
X95091788Y-113039819D02*
X95187026Y-112992200D01*
X93853693Y-113039819D02*
X93853693Y-112516009D01*
X93853693Y-112516009D02*
X93901312Y-112420771D01*
X93901312Y-112420771D02*
X93996550Y-112373152D01*
X93996550Y-112373152D02*
X94187026Y-112373152D01*
X94187026Y-112373152D02*
X94282264Y-112420771D01*
X93853693Y-112992200D02*
X93948931Y-113039819D01*
X93948931Y-113039819D02*
X94187026Y-113039819D01*
X94187026Y-113039819D02*
X94282264Y-112992200D01*
X94282264Y-112992200D02*
X94329883Y-112896961D01*
X94329883Y-112896961D02*
X94329883Y-112801723D01*
X94329883Y-112801723D02*
X94282264Y-112706485D01*
X94282264Y-112706485D02*
X94187026Y-112658866D01*
X94187026Y-112658866D02*
X93948931Y-112658866D01*
X93948931Y-112658866D02*
X93853693Y-112611247D01*
X93377502Y-113039819D02*
X93377502Y-112373152D01*
X93377502Y-112039819D02*
X93425121Y-112087438D01*
X93425121Y-112087438D02*
X93377502Y-112135057D01*
X93377502Y-112135057D02*
X93329883Y-112087438D01*
X93329883Y-112087438D02*
X93377502Y-112039819D01*
X93377502Y-112039819D02*
X93377502Y-112135057D01*
X92901312Y-113039819D02*
X92901312Y-112373152D01*
X92901312Y-112563628D02*
X92853693Y-112468390D01*
X92853693Y-112468390D02*
X92806074Y-112420771D01*
X92806074Y-112420771D02*
X92710836Y-112373152D01*
X92710836Y-112373152D02*
X92615598Y-112373152D01*
X123758458Y-115593152D02*
X123520363Y-116259819D01*
X123520363Y-116259819D02*
X123282268Y-115593152D01*
X122710839Y-115259819D02*
X122615601Y-115259819D01*
X122615601Y-115259819D02*
X122520363Y-115307438D01*
X122520363Y-115307438D02*
X122472744Y-115355057D01*
X122472744Y-115355057D02*
X122425125Y-115450295D01*
X122425125Y-115450295D02*
X122377506Y-115640771D01*
X122377506Y-115640771D02*
X122377506Y-115878866D01*
X122377506Y-115878866D02*
X122425125Y-116069342D01*
X122425125Y-116069342D02*
X122472744Y-116164580D01*
X122472744Y-116164580D02*
X122520363Y-116212200D01*
X122520363Y-116212200D02*
X122615601Y-116259819D01*
X122615601Y-116259819D02*
X122710839Y-116259819D01*
X122710839Y-116259819D02*
X122806077Y-116212200D01*
X122806077Y-116212200D02*
X122853696Y-116164580D01*
X122853696Y-116164580D02*
X122901315Y-116069342D01*
X122901315Y-116069342D02*
X122948934Y-115878866D01*
X122948934Y-115878866D02*
X122948934Y-115640771D01*
X122948934Y-115640771D02*
X122901315Y-115450295D01*
X122901315Y-115450295D02*
X122853696Y-115355057D01*
X122853696Y-115355057D02*
X122806077Y-115307438D01*
X122806077Y-115307438D02*
X122710839Y-115259819D01*
X121948934Y-116164580D02*
X121901315Y-116212200D01*
X121901315Y-116212200D02*
X121948934Y-116259819D01*
X121948934Y-116259819D02*
X121996553Y-116212200D01*
X121996553Y-116212200D02*
X121948934Y-116164580D01*
X121948934Y-116164580D02*
X121948934Y-116259819D01*
X121520363Y-115355057D02*
X121472744Y-115307438D01*
X121472744Y-115307438D02*
X121377506Y-115259819D01*
X121377506Y-115259819D02*
X121139411Y-115259819D01*
X121139411Y-115259819D02*
X121044173Y-115307438D01*
X121044173Y-115307438D02*
X120996554Y-115355057D01*
X120996554Y-115355057D02*
X120948935Y-115450295D01*
X120948935Y-115450295D02*
X120948935Y-115545533D01*
X120948935Y-115545533D02*
X120996554Y-115688390D01*
X120996554Y-115688390D02*
X121567982Y-116259819D01*
X121567982Y-116259819D02*
X120948935Y-116259819D01*
X119758458Y-116259819D02*
X119758458Y-115259819D01*
X119758458Y-115259819D02*
X119377506Y-115259819D01*
X119377506Y-115259819D02*
X119282268Y-115307438D01*
X119282268Y-115307438D02*
X119234649Y-115355057D01*
X119234649Y-115355057D02*
X119187030Y-115450295D01*
X119187030Y-115450295D02*
X119187030Y-115593152D01*
X119187030Y-115593152D02*
X119234649Y-115688390D01*
X119234649Y-115688390D02*
X119282268Y-115736009D01*
X119282268Y-115736009D02*
X119377506Y-115783628D01*
X119377506Y-115783628D02*
X119758458Y-115783628D01*
X118758458Y-116259819D02*
X118758458Y-115593152D01*
X118758458Y-115783628D02*
X118710839Y-115688390D01*
X118710839Y-115688390D02*
X118663220Y-115640771D01*
X118663220Y-115640771D02*
X118567982Y-115593152D01*
X118567982Y-115593152D02*
X118472744Y-115593152D01*
X117996553Y-116259819D02*
X118091791Y-116212200D01*
X118091791Y-116212200D02*
X118139410Y-116164580D01*
X118139410Y-116164580D02*
X118187029Y-116069342D01*
X118187029Y-116069342D02*
X118187029Y-115783628D01*
X118187029Y-115783628D02*
X118139410Y-115688390D01*
X118139410Y-115688390D02*
X118091791Y-115640771D01*
X118091791Y-115640771D02*
X117996553Y-115593152D01*
X117996553Y-115593152D02*
X117853696Y-115593152D01*
X117853696Y-115593152D02*
X117758458Y-115640771D01*
X117758458Y-115640771D02*
X117710839Y-115688390D01*
X117710839Y-115688390D02*
X117663220Y-115783628D01*
X117663220Y-115783628D02*
X117663220Y-116069342D01*
X117663220Y-116069342D02*
X117710839Y-116164580D01*
X117710839Y-116164580D02*
X117758458Y-116212200D01*
X117758458Y-116212200D02*
X117853696Y-116259819D01*
X117853696Y-116259819D02*
X117996553Y-116259819D01*
X117377505Y-115593152D02*
X116996553Y-115593152D01*
X117234648Y-115259819D02*
X117234648Y-116116961D01*
X117234648Y-116116961D02*
X117187029Y-116212200D01*
X117187029Y-116212200D02*
X117091791Y-116259819D01*
X117091791Y-116259819D02*
X116996553Y-116259819D01*
X116520362Y-116259819D02*
X116615600Y-116212200D01*
X116615600Y-116212200D02*
X116663219Y-116164580D01*
X116663219Y-116164580D02*
X116710838Y-116069342D01*
X116710838Y-116069342D02*
X116710838Y-115783628D01*
X116710838Y-115783628D02*
X116663219Y-115688390D01*
X116663219Y-115688390D02*
X116615600Y-115640771D01*
X116615600Y-115640771D02*
X116520362Y-115593152D01*
X116520362Y-115593152D02*
X116377505Y-115593152D01*
X116377505Y-115593152D02*
X116282267Y-115640771D01*
X116282267Y-115640771D02*
X116234648Y-115688390D01*
X116234648Y-115688390D02*
X116187029Y-115783628D01*
X116187029Y-115783628D02*
X116187029Y-116069342D01*
X116187029Y-116069342D02*
X116234648Y-116164580D01*
X116234648Y-116164580D02*
X116282267Y-116212200D01*
X116282267Y-116212200D02*
X116377505Y-116259819D01*
X116377505Y-116259819D02*
X116520362Y-116259819D01*
X115901314Y-115593152D02*
X115520362Y-115593152D01*
X115758457Y-115259819D02*
X115758457Y-116116961D01*
X115758457Y-116116961D02*
X115710838Y-116212200D01*
X115710838Y-116212200D02*
X115615600Y-116259819D01*
X115615600Y-116259819D02*
X115520362Y-116259819D01*
X115282266Y-115593152D02*
X115044171Y-116259819D01*
X114806076Y-115593152D02*
X115044171Y-116259819D01*
X115044171Y-116259819D02*
X115139409Y-116497914D01*
X115139409Y-116497914D02*
X115187028Y-116545533D01*
X115187028Y-116545533D02*
X115282266Y-116593152D01*
X114425123Y-115593152D02*
X114425123Y-116593152D01*
X114425123Y-115640771D02*
X114329885Y-115593152D01*
X114329885Y-115593152D02*
X114139409Y-115593152D01*
X114139409Y-115593152D02*
X114044171Y-115640771D01*
X114044171Y-115640771D02*
X113996552Y-115688390D01*
X113996552Y-115688390D02*
X113948933Y-115783628D01*
X113948933Y-115783628D02*
X113948933Y-116069342D01*
X113948933Y-116069342D02*
X113996552Y-116164580D01*
X113996552Y-116164580D02*
X114044171Y-116212200D01*
X114044171Y-116212200D02*
X114139409Y-116259819D01*
X114139409Y-116259819D02*
X114329885Y-116259819D01*
X114329885Y-116259819D02*
X114425123Y-116212200D01*
X113139409Y-116212200D02*
X113234647Y-116259819D01*
X113234647Y-116259819D02*
X113425123Y-116259819D01*
X113425123Y-116259819D02*
X113520361Y-116212200D01*
X113520361Y-116212200D02*
X113567980Y-116116961D01*
X113567980Y-116116961D02*
X113567980Y-115736009D01*
X113567980Y-115736009D02*
X113520361Y-115640771D01*
X113520361Y-115640771D02*
X113425123Y-115593152D01*
X113425123Y-115593152D02*
X113234647Y-115593152D01*
X113234647Y-115593152D02*
X113139409Y-115640771D01*
X113139409Y-115640771D02*
X113091790Y-115736009D01*
X113091790Y-115736009D02*
X113091790Y-115831247D01*
X113091790Y-115831247D02*
X113567980Y-115926485D01*
X111901313Y-115878866D02*
X111139409Y-115878866D01*
X109948932Y-115355057D02*
X109901313Y-115307438D01*
X109901313Y-115307438D02*
X109806075Y-115259819D01*
X109806075Y-115259819D02*
X109567980Y-115259819D01*
X109567980Y-115259819D02*
X109472742Y-115307438D01*
X109472742Y-115307438D02*
X109425123Y-115355057D01*
X109425123Y-115355057D02*
X109377504Y-115450295D01*
X109377504Y-115450295D02*
X109377504Y-115545533D01*
X109377504Y-115545533D02*
X109425123Y-115688390D01*
X109425123Y-115688390D02*
X109996551Y-116259819D01*
X109996551Y-116259819D02*
X109377504Y-116259819D01*
X108758456Y-115259819D02*
X108663218Y-115259819D01*
X108663218Y-115259819D02*
X108567980Y-115307438D01*
X108567980Y-115307438D02*
X108520361Y-115355057D01*
X108520361Y-115355057D02*
X108472742Y-115450295D01*
X108472742Y-115450295D02*
X108425123Y-115640771D01*
X108425123Y-115640771D02*
X108425123Y-115878866D01*
X108425123Y-115878866D02*
X108472742Y-116069342D01*
X108472742Y-116069342D02*
X108520361Y-116164580D01*
X108520361Y-116164580D02*
X108567980Y-116212200D01*
X108567980Y-116212200D02*
X108663218Y-116259819D01*
X108663218Y-116259819D02*
X108758456Y-116259819D01*
X108758456Y-116259819D02*
X108853694Y-116212200D01*
X108853694Y-116212200D02*
X108901313Y-116164580D01*
X108901313Y-116164580D02*
X108948932Y-116069342D01*
X108948932Y-116069342D02*
X108996551Y-115878866D01*
X108996551Y-115878866D02*
X108996551Y-115640771D01*
X108996551Y-115640771D02*
X108948932Y-115450295D01*
X108948932Y-115450295D02*
X108901313Y-115355057D01*
X108901313Y-115355057D02*
X108853694Y-115307438D01*
X108853694Y-115307438D02*
X108758456Y-115259819D01*
X108044170Y-115355057D02*
X107996551Y-115307438D01*
X107996551Y-115307438D02*
X107901313Y-115259819D01*
X107901313Y-115259819D02*
X107663218Y-115259819D01*
X107663218Y-115259819D02*
X107567980Y-115307438D01*
X107567980Y-115307438D02*
X107520361Y-115355057D01*
X107520361Y-115355057D02*
X107472742Y-115450295D01*
X107472742Y-115450295D02*
X107472742Y-115545533D01*
X107472742Y-115545533D02*
X107520361Y-115688390D01*
X107520361Y-115688390D02*
X108091789Y-116259819D01*
X108091789Y-116259819D02*
X107472742Y-116259819D01*
X107139408Y-115259819D02*
X106520361Y-115259819D01*
X106520361Y-115259819D02*
X106853694Y-115640771D01*
X106853694Y-115640771D02*
X106710837Y-115640771D01*
X106710837Y-115640771D02*
X106615599Y-115688390D01*
X106615599Y-115688390D02*
X106567980Y-115736009D01*
X106567980Y-115736009D02*
X106520361Y-115831247D01*
X106520361Y-115831247D02*
X106520361Y-116069342D01*
X106520361Y-116069342D02*
X106567980Y-116164580D01*
X106567980Y-116164580D02*
X106615599Y-116212200D01*
X106615599Y-116212200D02*
X106710837Y-116259819D01*
X106710837Y-116259819D02*
X106996551Y-116259819D01*
X106996551Y-116259819D02*
X107091789Y-116212200D01*
X107091789Y-116212200D02*
X107139408Y-116164580D01*
X106091789Y-115878866D02*
X105329885Y-115878866D01*
X104663218Y-115259819D02*
X104472742Y-115259819D01*
X104472742Y-115259819D02*
X104377504Y-115307438D01*
X104377504Y-115307438D02*
X104282266Y-115402676D01*
X104282266Y-115402676D02*
X104234647Y-115593152D01*
X104234647Y-115593152D02*
X104234647Y-115926485D01*
X104234647Y-115926485D02*
X104282266Y-116116961D01*
X104282266Y-116116961D02*
X104377504Y-116212200D01*
X104377504Y-116212200D02*
X104472742Y-116259819D01*
X104472742Y-116259819D02*
X104663218Y-116259819D01*
X104663218Y-116259819D02*
X104758456Y-116212200D01*
X104758456Y-116212200D02*
X104853694Y-116116961D01*
X104853694Y-116116961D02*
X104901313Y-115926485D01*
X104901313Y-115926485D02*
X104901313Y-115593152D01*
X104901313Y-115593152D02*
X104853694Y-115402676D01*
X104853694Y-115402676D02*
X104758456Y-115307438D01*
X104758456Y-115307438D02*
X104663218Y-115259819D01*
X103377504Y-116212200D02*
X103472742Y-116259819D01*
X103472742Y-116259819D02*
X103663218Y-116259819D01*
X103663218Y-116259819D02*
X103758456Y-116212200D01*
X103758456Y-116212200D02*
X103806075Y-116164580D01*
X103806075Y-116164580D02*
X103853694Y-116069342D01*
X103853694Y-116069342D02*
X103853694Y-115783628D01*
X103853694Y-115783628D02*
X103806075Y-115688390D01*
X103806075Y-115688390D02*
X103758456Y-115640771D01*
X103758456Y-115640771D02*
X103663218Y-115593152D01*
X103663218Y-115593152D02*
X103472742Y-115593152D01*
X103472742Y-115593152D02*
X103377504Y-115640771D01*
X103091789Y-115593152D02*
X102710837Y-115593152D01*
X102948932Y-115259819D02*
X102948932Y-116116961D01*
X102948932Y-116116961D02*
X102901313Y-116212200D01*
X102901313Y-116212200D02*
X102806075Y-116259819D01*
X102806075Y-116259819D02*
X102710837Y-116259819D01*
X102377503Y-115878866D02*
X101615599Y-115878866D01*
X100948932Y-115259819D02*
X100853694Y-115259819D01*
X100853694Y-115259819D02*
X100758456Y-115307438D01*
X100758456Y-115307438D02*
X100710837Y-115355057D01*
X100710837Y-115355057D02*
X100663218Y-115450295D01*
X100663218Y-115450295D02*
X100615599Y-115640771D01*
X100615599Y-115640771D02*
X100615599Y-115878866D01*
X100615599Y-115878866D02*
X100663218Y-116069342D01*
X100663218Y-116069342D02*
X100710837Y-116164580D01*
X100710837Y-116164580D02*
X100758456Y-116212200D01*
X100758456Y-116212200D02*
X100853694Y-116259819D01*
X100853694Y-116259819D02*
X100948932Y-116259819D01*
X100948932Y-116259819D02*
X101044170Y-116212200D01*
X101044170Y-116212200D02*
X101091789Y-116164580D01*
X101091789Y-116164580D02*
X101139408Y-116069342D01*
X101139408Y-116069342D02*
X101187027Y-115878866D01*
X101187027Y-115878866D02*
X101187027Y-115640771D01*
X101187027Y-115640771D02*
X101139408Y-115450295D01*
X101139408Y-115450295D02*
X101091789Y-115355057D01*
X101091789Y-115355057D02*
X101044170Y-115307438D01*
X101044170Y-115307438D02*
X100948932Y-115259819D01*
X99758456Y-115593152D02*
X99758456Y-116259819D01*
X99996551Y-115212200D02*
X100234646Y-115926485D01*
X100234646Y-115926485D02*
X99615599Y-115926485D01*
X123710839Y-117584104D02*
X123234649Y-117584104D01*
X123806077Y-117869819D02*
X123472744Y-116869819D01*
X123472744Y-116869819D02*
X123139411Y-117869819D01*
X122472744Y-117346009D02*
X122329887Y-117393628D01*
X122329887Y-117393628D02*
X122282268Y-117441247D01*
X122282268Y-117441247D02*
X122234649Y-117536485D01*
X122234649Y-117536485D02*
X122234649Y-117679342D01*
X122234649Y-117679342D02*
X122282268Y-117774580D01*
X122282268Y-117774580D02*
X122329887Y-117822200D01*
X122329887Y-117822200D02*
X122425125Y-117869819D01*
X122425125Y-117869819D02*
X122806077Y-117869819D01*
X122806077Y-117869819D02*
X122806077Y-116869819D01*
X122806077Y-116869819D02*
X122472744Y-116869819D01*
X122472744Y-116869819D02*
X122377506Y-116917438D01*
X122377506Y-116917438D02*
X122329887Y-116965057D01*
X122329887Y-116965057D02*
X122282268Y-117060295D01*
X122282268Y-117060295D02*
X122282268Y-117155533D01*
X122282268Y-117155533D02*
X122329887Y-117250771D01*
X122329887Y-117250771D02*
X122377506Y-117298390D01*
X122377506Y-117298390D02*
X122472744Y-117346009D01*
X122472744Y-117346009D02*
X122806077Y-117346009D01*
X121377506Y-117203152D02*
X121377506Y-117869819D01*
X121615601Y-116822200D02*
X121853696Y-117536485D01*
X121853696Y-117536485D02*
X121234649Y-117536485D01*
X120853696Y-117346009D02*
X120520363Y-117346009D01*
X120377506Y-117869819D02*
X120853696Y-117869819D01*
X120853696Y-117869819D02*
X120853696Y-116869819D01*
X120853696Y-116869819D02*
X120377506Y-116869819D01*
X119948934Y-117869819D02*
X119948934Y-116869819D01*
X119948934Y-116869819D02*
X119377506Y-117869819D01*
X119377506Y-117869819D02*
X119377506Y-116869819D01*
%TO.C,G\u002A\u002A\u002A*%
D11*
X118245077Y-99636625D02*
X118151277Y-100202590D01*
X117909697Y-100701144D01*
X117528188Y-101116403D01*
X117014596Y-101432483D01*
X117002904Y-101437746D01*
X116875819Y-101489233D01*
X116738018Y-101529005D01*
X116566842Y-101558584D01*
X116339631Y-101579491D01*
X116033727Y-101593245D01*
X115626469Y-101601369D01*
X115095200Y-101605383D01*
X114417261Y-101606807D01*
X112200925Y-101608667D01*
X111676765Y-102243667D01*
X112377181Y-102268707D01*
X113077596Y-102293746D01*
X111299596Y-103466410D01*
X110895875Y-103731492D01*
X110448521Y-104022182D01*
X110065371Y-104267785D01*
X109765619Y-104456125D01*
X109568462Y-104575026D01*
X109493094Y-104612312D01*
X109527317Y-104542435D01*
X109645857Y-104364629D01*
X109830060Y-104106555D01*
X110060880Y-103795609D01*
X110657168Y-103005667D01*
X110237549Y-102980076D01*
X110088540Y-102968100D01*
X109894059Y-102940286D01*
X109817930Y-102910395D01*
X109830164Y-102884854D01*
X109922140Y-102749903D01*
X110084553Y-102530443D01*
X110293904Y-102258653D01*
X110769879Y-101651000D01*
X110181865Y-101604313D01*
X110091897Y-101595686D01*
X109960137Y-101564409D01*
X110884804Y-101564409D01*
X110961472Y-101593901D01*
X111152686Y-101606201D01*
X111485831Y-101608667D01*
X112163976Y-101608667D01*
X112957611Y-100592667D01*
X113106438Y-100403172D01*
X113367281Y-100076420D01*
X113581728Y-99814781D01*
X113730775Y-99641248D01*
X113795421Y-99578817D01*
X113803542Y-99581699D01*
X113908953Y-99653743D01*
X114101324Y-99802757D01*
X114346068Y-100002150D01*
X114402512Y-100048824D01*
X114640171Y-100239209D01*
X114819153Y-100372883D01*
X114904315Y-100423334D01*
X114906159Y-100423095D01*
X114987973Y-100354841D01*
X115148923Y-100184998D01*
X115363604Y-99942244D01*
X115606614Y-99655262D01*
X115852551Y-99352732D01*
X116002838Y-99163566D01*
X114683757Y-98151442D01*
X113364676Y-97139319D01*
X112437970Y-97445478D01*
X112093925Y-97562702D01*
X111791469Y-97673201D01*
X111586626Y-97756778D01*
X111511263Y-97801200D01*
X111538749Y-97835369D01*
X111675963Y-97954656D01*
X111902350Y-98133769D01*
X112188596Y-98349000D01*
X112377843Y-98491048D01*
X112629362Y-98690437D01*
X112801878Y-98841109D01*
X112865930Y-98918304D01*
X112859465Y-98933337D01*
X112777996Y-99056127D01*
X112618329Y-99277758D01*
X112399785Y-99572798D01*
X112141690Y-99915817D01*
X111863366Y-100281383D01*
X111584138Y-100644065D01*
X111323328Y-100978433D01*
X111100261Y-101259055D01*
X110934259Y-101460500D01*
X110895298Y-101510370D01*
X110884804Y-101564409D01*
X109960137Y-101564409D01*
X109482594Y-101451050D01*
X108956574Y-101170759D01*
X108532210Y-100767510D01*
X108227875Y-100254000D01*
X108203101Y-100189635D01*
X108115530Y-99769536D01*
X108106366Y-99285057D01*
X108172443Y-98806937D01*
X108310595Y-98405916D01*
X108392145Y-98263658D01*
X108745961Y-97858715D01*
X109216308Y-97552902D01*
X109779187Y-97358976D01*
X110410596Y-97289694D01*
X110876263Y-97287777D01*
X111076378Y-96825476D01*
X111217268Y-96559710D01*
X111539286Y-96139859D01*
X111931271Y-95781609D01*
X112341876Y-95537229D01*
X112520909Y-95482286D01*
X112852298Y-95426258D01*
X113206572Y-95404234D01*
X113251632Y-95404456D01*
X113859586Y-95481201D01*
X114386228Y-95701199D01*
X114851763Y-96072660D01*
X114931628Y-96161937D01*
X115124052Y-96423464D01*
X115319216Y-96737294D01*
X115490991Y-97056516D01*
X115613249Y-97334222D01*
X115659863Y-97523500D01*
X115666767Y-97548732D01*
X115795640Y-97609221D01*
X116088104Y-97629334D01*
X116372369Y-97638384D01*
X116884530Y-97723013D01*
X117311365Y-97909737D01*
X117696794Y-98214535D01*
X117729643Y-98246757D01*
X117964262Y-98507973D01*
X118104056Y-98753111D01*
X118190490Y-99052560D01*
X118200865Y-99163566D01*
X118245077Y-99636625D01*
G36*
X118245077Y-99636625D02*
G01*
X118151277Y-100202590D01*
X117909697Y-100701144D01*
X117528188Y-101116403D01*
X117014596Y-101432483D01*
X117002904Y-101437746D01*
X116875819Y-101489233D01*
X116738018Y-101529005D01*
X116566842Y-101558584D01*
X116339631Y-101579491D01*
X116033727Y-101593245D01*
X115626469Y-101601369D01*
X115095200Y-101605383D01*
X114417261Y-101606807D01*
X112200925Y-101608667D01*
X111676765Y-102243667D01*
X112377181Y-102268707D01*
X113077596Y-102293746D01*
X111299596Y-103466410D01*
X110895875Y-103731492D01*
X110448521Y-104022182D01*
X110065371Y-104267785D01*
X109765619Y-104456125D01*
X109568462Y-104575026D01*
X109493094Y-104612312D01*
X109527317Y-104542435D01*
X109645857Y-104364629D01*
X109830060Y-104106555D01*
X110060880Y-103795609D01*
X110657168Y-103005667D01*
X110237549Y-102980076D01*
X110088540Y-102968100D01*
X109894059Y-102940286D01*
X109817930Y-102910395D01*
X109830164Y-102884854D01*
X109922140Y-102749903D01*
X110084553Y-102530443D01*
X110293904Y-102258653D01*
X110769879Y-101651000D01*
X110181865Y-101604313D01*
X110091897Y-101595686D01*
X109960137Y-101564409D01*
X110884804Y-101564409D01*
X110961472Y-101593901D01*
X111152686Y-101606201D01*
X111485831Y-101608667D01*
X112163976Y-101608667D01*
X112957611Y-100592667D01*
X113106438Y-100403172D01*
X113367281Y-100076420D01*
X113581728Y-99814781D01*
X113730775Y-99641248D01*
X113795421Y-99578817D01*
X113803542Y-99581699D01*
X113908953Y-99653743D01*
X114101324Y-99802757D01*
X114346068Y-100002150D01*
X114402512Y-100048824D01*
X114640171Y-100239209D01*
X114819153Y-100372883D01*
X114904315Y-100423334D01*
X114906159Y-100423095D01*
X114987973Y-100354841D01*
X115148923Y-100184998D01*
X115363604Y-99942244D01*
X115606614Y-99655262D01*
X115852551Y-99352732D01*
X116002838Y-99163566D01*
X114683757Y-98151442D01*
X113364676Y-97139319D01*
X112437970Y-97445478D01*
X112093925Y-97562702D01*
X111791469Y-97673201D01*
X111586626Y-97756778D01*
X111511263Y-97801200D01*
X111538749Y-97835369D01*
X111675963Y-97954656D01*
X111902350Y-98133769D01*
X112188596Y-98349000D01*
X112377843Y-98491048D01*
X112629362Y-98690437D01*
X112801878Y-98841109D01*
X112865930Y-98918304D01*
X112859465Y-98933337D01*
X112777996Y-99056127D01*
X112618329Y-99277758D01*
X112399785Y-99572798D01*
X112141690Y-99915817D01*
X111863366Y-100281383D01*
X111584138Y-100644065D01*
X111323328Y-100978433D01*
X111100261Y-101259055D01*
X110934259Y-101460500D01*
X110895298Y-101510370D01*
X110884804Y-101564409D01*
X109960137Y-101564409D01*
X109482594Y-101451050D01*
X108956574Y-101170759D01*
X108532210Y-100767510D01*
X108227875Y-100254000D01*
X108203101Y-100189635D01*
X108115530Y-99769536D01*
X108106366Y-99285057D01*
X108172443Y-98806937D01*
X108310595Y-98405916D01*
X108392145Y-98263658D01*
X108745961Y-97858715D01*
X109216308Y-97552902D01*
X109779187Y-97358976D01*
X110410596Y-97289694D01*
X110876263Y-97287777D01*
X111076378Y-96825476D01*
X111217268Y-96559710D01*
X111539286Y-96139859D01*
X111931271Y-95781609D01*
X112341876Y-95537229D01*
X112520909Y-95482286D01*
X112852298Y-95426258D01*
X113206572Y-95404234D01*
X113251632Y-95404456D01*
X113859586Y-95481201D01*
X114386228Y-95701199D01*
X114851763Y-96072660D01*
X114931628Y-96161937D01*
X115124052Y-96423464D01*
X115319216Y-96737294D01*
X115490991Y-97056516D01*
X115613249Y-97334222D01*
X115659863Y-97523500D01*
X115666767Y-97548732D01*
X115795640Y-97609221D01*
X116088104Y-97629334D01*
X116372369Y-97638384D01*
X116884530Y-97723013D01*
X117311365Y-97909737D01*
X117696794Y-98214535D01*
X117729643Y-98246757D01*
X117964262Y-98507973D01*
X118104056Y-98753111D01*
X118190490Y-99052560D01*
X118200865Y-99163566D01*
X118245077Y-99636625D01*
G37*
%TD*%
M02*
